<?xml version="1.0" encoding="UTF-8"?>
<svg id="Layer_1" data-name="Layer 1" xmlns="http://www.w3.org/2000/svg" version="1.1" xmlns:xlink="http://www.w3.org/1999/xlink" viewBox="0 0 224.5 20.5">
  <defs>
    <style>
      .cls-1 {
        fill: #524a4a;
      }

      .cls-1, .cls-2, .cls-3 {
        stroke-width: 0px;
      }

      .cls-4 {
        clip-path: url(#clippath-2);
      }

      .cls-2 {
        fill: #4e4545;
      }

      .cls-3 {
        fill: none;
      }

      .cls-5 {
        clip-path: url(#clippath-1);
      }

      .cls-6 {
        clip-path: url(#clippath-4);
      }

      .cls-7 {
        clip-path: url(#clippath);
      }

      .cls-8 {
        clip-path: url(#clippath-3);
      }

      .cls-9 {
        clip-path: url(#clippath-5);
      }
    </style>
    <clipPath id="clippath">
      <polygon class="cls-3" points="218.5 16.3 224.4 18 218.5 18 218.5 16.3"/>
    </clipPath>
    <clipPath id="clippath-1">
      <polygon class="cls-3" points="218.5 16.3 224.4 18 219.5 14.8 218.5 16.3"/>
    </clipPath>
    <clipPath id="clippath-2">
      <polygon class="cls-3" points="3.4 3.9 1.7 2.1 3.4 2.1 3.4 3.9"/>
    </clipPath>
    <clipPath id="clippath-3">
      <polygon class="cls-3" points="3.4 3.9 1.7 2.1 1.7 3.9 3.4 3.9"/>
    </clipPath>
    <clipPath id="clippath-4">
      <polygon class="cls-3" points="3.4 16.3 1.7 18 1.7 16.3 3.4 16.3"/>
    </clipPath>
    <clipPath id="clippath-5">
      <polygon class="cls-3" points="3.4 16.3 1.7 18 3.4 18 3.4 16.3"/>
    </clipPath>
  </defs>
  <polygon class="cls-1" points="2.5 3 2.5 17.2 221.5 17.2 199.9 3 2.5 3"/>
  <g>
    <polygon class="cls-2" points="4.6 16.6 4.6 16.3 3.4 16.3 3.4 16.6 3.9 16.6 3.9 17.7 3.6 17.7 3.6 18 4.5 18 4.5 17.7 4.2 17.7 4.2 16.6 4.6 16.6"/>
    <polygon class="cls-2" points="5.9 16.6 5.9 16.3 4.6 16.3 4.6 16.6 5.1 16.6 5.1 17.7 4.8 17.7 4.8 18 5.7 18 5.7 17.7 5.4 17.7 5.4 16.6 5.9 16.6"/>
    <polygon class="cls-2" points="7.1 16.6 7.1 16.3 5.9 16.3 5.9 16.6 6.3 16.6 6.3 17.7 6 17.7 6 18 6.9 18 6.9 17.7 6.6 17.7 6.6 16.6 7.1 16.6"/>
    <polygon class="cls-2" points="8.3 16.6 8.3 16.3 7.1 16.3 7.1 16.6 7.5 16.6 7.5 17.7 7.2 17.7 7.2 18 8.1 18 8.1 17.7 7.8 17.7 7.8 16.6 8.3 16.6"/>
    <polygon class="cls-2" points="9.5 16.6 9.5 16.3 8.3 16.3 8.3 16.6 8.7 16.6 8.7 17.7 8.5 17.7 8.5 18 9.3 18 9.3 17.7 9.1 17.7 9.1 16.6 9.5 16.6"/>
    <polygon class="cls-2" points="10.7 16.6 10.7 16.3 9.5 16.3 9.5 16.6 9.9 16.6 9.9 17.7 9.7 17.7 9.7 18 10.6 18 10.6 17.7 10.3 17.7 10.3 16.6 10.7 16.6"/>
    <polygon class="cls-2" points="11.9 16.6 11.9 16.3 10.7 16.3 10.7 16.6 11.2 16.6 11.2 17.7 10.9 17.7 10.9 18 11.8 18 11.8 17.7 11.5 17.7 11.5 16.6 11.9 16.6"/>
    <polygon class="cls-2" points="13.1 16.6 13.1 16.3 11.9 16.3 11.9 16.6 12.4 16.6 12.4 17.7 12.1 17.7 12.1 18 13 18 13 17.7 12.7 17.7 12.7 16.6 13.1 16.6"/>
    <polygon class="cls-2" points="14.4 16.6 14.4 16.3 13.1 16.3 13.1 16.6 13.6 16.6 13.6 17.7 13.3 17.7 13.3 18 14.2 18 14.2 17.7 13.9 17.7 13.9 16.6 14.4 16.6"/>
    <polygon class="cls-2" points="15.6 16.6 15.6 16.3 14.4 16.3 14.4 16.6 14.8 16.6 14.8 17.7 14.5 17.7 14.5 18 15.4 18 15.4 17.7 15.1 17.7 15.1 16.6 15.6 16.6"/>
    <polygon class="cls-2" points="16.8 16.6 16.8 16.3 15.6 16.3 15.6 16.6 16 16.6 16 17.7 15.7 17.7 15.7 18 16.6 18 16.6 17.7 16.4 17.7 16.4 16.6 16.8 16.6"/>
    <polygon class="cls-2" points="18 16.6 18 16.3 16.8 16.3 16.8 16.6 17.2 16.6 17.2 17.7 17 17.7 17 18 17.8 18 17.8 17.7 17.6 17.7 17.6 16.6 18 16.6"/>
    <polygon class="cls-2" points="19.2 16.6 19.2 16.3 18 16.3 18 16.6 18.5 16.6 18.5 17.7 18.2 17.7 18.2 18 19.1 18 19.1 17.7 18.8 17.7 18.8 16.6 19.2 16.6"/>
    <polygon class="cls-2" points="20.4 16.6 20.4 16.3 19.2 16.3 19.2 16.6 19.7 16.6 19.7 17.7 19.4 17.7 19.4 18 20.3 18 20.3 17.7 20 17.7 20 16.6 20.4 16.6"/>
    <polygon class="cls-2" points="21.7 16.6 21.7 16.3 20.4 16.3 20.4 16.6 20.9 16.6 20.9 17.7 20.6 17.7 20.6 18 21.5 18 21.5 17.7 21.2 17.7 21.2 16.6 21.7 16.6"/>
    <polygon class="cls-2" points="22.9 16.6 22.9 16.3 21.7 16.3 21.7 16.6 22.1 16.6 22.1 17.7 21.8 17.7 21.8 18 22.7 18 22.7 17.7 22.4 17.7 22.4 16.6 22.9 16.6"/>
    <polygon class="cls-2" points="24.1 16.6 24.1 16.3 22.9 16.3 22.9 16.6 23.3 16.6 23.3 17.7 23 17.7 23 18 23.9 18 23.9 17.7 23.6 17.7 23.6 16.6 24.1 16.6"/>
    <polygon class="cls-2" points="25.3 16.6 25.3 16.3 24.1 16.3 24.1 16.6 24.5 16.6 24.5 17.7 24.2 17.7 24.2 18 25.1 18 25.1 17.7 24.9 17.7 24.9 16.6 25.3 16.6"/>
    <polygon class="cls-2" points="26.5 16.6 26.5 16.3 25.3 16.3 25.3 16.6 25.7 16.6 25.7 17.7 25.5 17.7 25.5 18 26.4 18 26.4 17.7 26.1 17.7 26.1 16.6 26.5 16.6"/>
    <polygon class="cls-2" points="27.7 16.6 27.7 16.3 26.5 16.3 26.5 16.6 27 16.6 27 17.7 26.7 17.7 26.7 18 27.6 18 27.6 17.7 27.3 17.7 27.3 16.6 27.7 16.6"/>
    <polygon class="cls-2" points="28.9 16.6 28.9 16.3 27.7 16.3 27.7 16.6 28.2 16.6 28.2 17.7 27.9 17.7 27.9 18 28.8 18 28.8 17.7 28.5 17.7 28.5 16.6 28.9 16.6"/>
    <polygon class="cls-2" points="30.2 16.6 30.2 16.3 28.9 16.3 28.9 16.6 29.4 16.6 29.4 17.7 29.1 17.7 29.1 18 30 18 30 17.7 29.7 17.7 29.7 16.6 30.2 16.6"/>
    <polygon class="cls-2" points="31.4 16.6 31.4 16.3 30.2 16.3 30.2 16.6 30.6 16.6 30.6 17.7 30.3 17.7 30.3 18 31.2 18 31.2 17.7 30.9 17.7 30.9 16.6 31.4 16.6"/>
    <polygon class="cls-2" points="32.6 16.6 32.6 16.3 31.4 16.3 31.4 16.6 31.8 16.6 31.8 17.7 31.5 17.7 31.5 18 32.4 18 32.4 17.7 32.1 17.7 32.1 16.6 32.6 16.6"/>
    <polygon class="cls-2" points="33.8 16.6 33.8 16.3 32.6 16.3 32.6 16.6 33 16.6 33 17.7 32.8 17.7 32.8 18 33.6 18 33.6 17.7 33.4 17.7 33.4 16.6 33.8 16.6"/>
    <polygon class="cls-2" points="35 16.6 35 16.3 33.8 16.3 33.8 16.6 34.2 16.6 34.2 17.7 34 17.7 34 18 34.9 18 34.9 17.7 34.6 17.7 34.6 16.6 35 16.6"/>
    <polygon class="cls-2" points="36.2 16.6 36.2 16.3 35 16.3 35 16.6 35.5 16.6 35.5 17.7 35.2 17.7 35.2 18 36.1 18 36.1 17.7 35.8 17.7 35.8 16.6 36.2 16.6"/>
    <polygon class="cls-2" points="37.4 16.6 37.4 16.3 36.2 16.3 36.2 16.6 36.7 16.6 36.7 17.7 36.4 17.7 36.4 18 37.3 18 37.3 17.7 37 17.7 37 16.6 37.4 16.6"/>
    <polygon class="cls-2" points="38.7 16.6 38.7 16.3 37.4 16.3 37.4 16.6 37.9 16.6 37.9 17.7 37.6 17.7 37.6 18 38.5 18 38.5 17.7 38.2 17.7 38.2 16.6 38.7 16.6"/>
    <polygon class="cls-2" points="39.9 16.6 39.9 16.3 38.7 16.3 38.7 16.6 39.1 16.6 39.1 17.7 38.8 17.7 38.8 18 39.7 18 39.7 17.7 39.4 17.7 39.4 16.6 39.9 16.6"/>
    <polygon class="cls-2" points="41.1 16.6 41.1 16.3 39.9 16.3 39.9 16.6 40.3 16.6 40.3 17.7 40 17.7 40 18 40.9 18 40.9 17.7 40.7 17.7 40.7 16.6 41.1 16.6"/>
    <polygon class="cls-2" points="42.3 16.6 42.3 16.3 41.1 16.3 41.1 16.6 41.5 16.6 41.5 17.7 41.3 17.7 41.3 18 42.1 18 42.1 17.7 41.9 17.7 41.9 16.6 42.3 16.6"/>
    <polygon class="cls-2" points="43.5 16.6 43.5 16.3 42.3 16.3 42.3 16.6 42.8 16.6 42.8 17.7 42.5 17.7 42.5 18 43.4 18 43.4 17.7 43.1 17.7 43.1 16.6 43.5 16.6"/>
    <polygon class="cls-2" points="44.7 16.6 44.7 16.3 43.5 16.3 43.5 16.6 44 16.6 44 17.7 43.7 17.7 43.7 18 44.6 18 44.6 17.7 44.3 17.7 44.3 16.6 44.7 16.6"/>
    <polygon class="cls-2" points="46 16.6 46 16.3 44.7 16.3 44.7 16.6 45.2 16.6 45.2 17.7 44.9 17.7 44.9 18 45.8 18 45.8 17.7 45.5 17.7 45.5 16.6 46 16.6"/>
    <polygon class="cls-2" points="47.2 16.6 47.2 16.3 46 16.3 46 16.6 46.4 16.6 46.4 17.7 46.1 17.7 46.1 18 47 18 47 17.7 46.7 17.7 46.7 16.6 47.2 16.6"/>
    <polygon class="cls-2" points="48.4 16.6 48.4 16.3 47.2 16.3 47.2 16.6 47.6 16.6 47.6 17.7 47.3 17.7 47.3 18 48.2 18 48.2 17.7 47.9 17.7 47.9 16.6 48.4 16.6"/>
    <polygon class="cls-2" points="49.6 16.6 49.6 16.3 48.4 16.3 48.4 16.6 48.8 16.6 48.8 17.7 48.5 17.7 48.5 18 49.4 18 49.4 17.7 49.2 17.7 49.2 16.6 49.6 16.6"/>
    <polygon class="cls-2" points="50.8 16.6 50.8 16.3 49.6 16.3 49.6 16.6 50 16.6 50 17.7 49.8 17.7 49.8 18 50.7 18 50.7 17.7 50.4 17.7 50.4 16.6 50.8 16.6"/>
    <polygon class="cls-2" points="52 16.6 52 16.3 50.8 16.3 50.8 16.6 51.3 16.6 51.3 17.7 51 17.7 51 18 51.9 18 51.9 17.7 51.6 17.7 51.6 16.6 52 16.6"/>
    <polygon class="cls-2" points="53.2 16.6 53.2 16.3 52 16.3 52 16.6 52.5 16.6 52.5 17.7 52.2 17.7 52.2 18 53.1 18 53.1 17.7 52.8 17.7 52.8 16.6 53.2 16.6"/>
    <polygon class="cls-2" points="54.5 16.6 54.5 16.3 53.2 16.3 53.2 16.6 53.7 16.6 53.7 17.7 53.4 17.7 53.4 18 54.3 18 54.3 17.7 54 17.7 54 16.6 54.5 16.6"/>
    <polygon class="cls-2" points="55.7 16.6 55.7 16.3 54.5 16.3 54.5 16.6 54.9 16.6 54.9 17.7 54.6 17.7 54.6 18 55.5 18 55.5 17.7 55.2 17.7 55.2 16.6 55.7 16.6"/>
    <polygon class="cls-2" points="56.9 16.6 56.9 16.3 55.7 16.3 55.7 16.6 56.1 16.6 56.1 17.7 55.8 17.7 55.8 18 56.7 18 56.7 17.7 56.4 17.7 56.4 16.6 56.9 16.6"/>
    <polygon class="cls-2" points="58.1 16.6 58.1 16.3 56.9 16.3 56.9 16.6 57.3 16.6 57.3 17.7 57.1 17.7 57.1 18 57.9 18 57.9 17.7 57.7 17.7 57.7 16.6 58.1 16.6"/>
    <polygon class="cls-2" points="59.3 16.6 59.3 16.3 58.1 16.3 58.1 16.6 58.5 16.6 58.5 17.7 58.3 17.7 58.3 18 59.2 18 59.2 17.7 58.9 17.7 58.9 16.6 59.3 16.6"/>
    <polygon class="cls-2" points="60.5 16.6 60.5 16.3 59.3 16.3 59.3 16.6 59.8 16.6 59.8 17.7 59.5 17.7 59.5 18 60.4 18 60.4 17.7 60.1 17.7 60.1 16.6 60.5 16.6"/>
    <polygon class="cls-2" points="61.7 16.6 61.7 16.3 60.5 16.3 60.5 16.6 61 16.6 61 17.7 60.7 17.7 60.7 18 61.6 18 61.6 17.7 61.3 17.7 61.3 16.6 61.7 16.6"/>
    <polygon class="cls-2" points="63 16.6 63 16.3 61.7 16.3 61.7 16.6 62.2 16.6 62.2 17.7 61.9 17.7 61.9 18 62.8 18 62.8 17.7 62.5 17.7 62.5 16.6 63 16.6"/>
    <polygon class="cls-2" points="64.2 16.6 64.2 16.3 63 16.3 63 16.6 63.4 16.6 63.4 17.7 63.1 17.7 63.1 18 64 18 64 17.7 63.7 17.7 63.7 16.6 64.2 16.6"/>
    <polygon class="cls-2" points="65.4 16.6 65.4 16.3 64.2 16.3 64.2 16.6 64.6 16.6 64.6 17.7 64.3 17.7 64.3 18 65.2 18 65.2 17.7 65 17.7 65 16.6 65.4 16.6"/>
    <polygon class="cls-2" points="66.6 16.6 66.6 16.3 65.4 16.3 65.4 16.6 65.8 16.6 65.8 17.7 65.6 17.7 65.6 18 66.4 18 66.4 17.7 66.2 17.7 66.2 16.6 66.6 16.6"/>
    <polygon class="cls-2" points="67.8 16.6 67.8 16.3 66.6 16.3 66.6 16.6 67.1 16.6 67.1 17.7 66.8 17.7 66.8 18 67.7 18 67.7 17.7 67.4 17.7 67.4 16.6 67.8 16.6"/>
    <polygon class="cls-2" points="69 16.6 69 16.3 67.8 16.3 67.8 16.6 68.3 16.6 68.3 17.7 68 17.7 68 18 68.9 18 68.9 17.7 68.6 17.7 68.6 16.6 69 16.6"/>
    <polygon class="cls-2" points="70.3 16.6 70.3 16.3 69 16.3 69 16.6 69.5 16.6 69.5 17.7 69.2 17.7 69.2 18 70.1 18 70.1 17.7 69.8 17.7 69.8 16.6 70.3 16.6"/>
    <polygon class="cls-2" points="71.5 16.6 71.5 16.3 70.3 16.3 70.3 16.6 70.7 16.6 70.7 17.7 70.4 17.7 70.4 18 71.3 18 71.3 17.7 71 17.7 71 16.6 71.5 16.6"/>
    <polygon class="cls-2" points="72.7 16.6 72.7 16.3 71.5 16.3 71.5 16.6 71.9 16.6 71.9 17.7 71.6 17.7 71.6 18 72.5 18 72.5 17.7 72.2 17.7 72.2 16.6 72.7 16.6"/>
    <polygon class="cls-2" points="73.9 16.6 73.9 16.3 72.7 16.3 72.7 16.6 73.1 16.6 73.1 17.7 72.8 17.7 72.8 18 73.7 18 73.7 17.7 73.5 17.7 73.5 16.6 73.9 16.6"/>
    <polygon class="cls-2" points="75.1 16.6 75.1 16.3 73.9 16.3 73.9 16.6 74.3 16.6 74.3 17.7 74.1 17.7 74.1 18 75 18 75 17.7 74.7 17.7 74.7 16.6 75.1 16.6"/>
    <polygon class="cls-2" points="76.3 16.6 76.3 16.3 75.1 16.3 75.1 16.6 75.6 16.6 75.6 17.7 75.3 17.7 75.3 18 76.2 18 76.2 17.7 75.9 17.7 75.9 16.6 76.3 16.6"/>
    <polygon class="cls-2" points="77.5 16.6 77.5 16.3 76.3 16.3 76.3 16.6 76.8 16.6 76.8 17.7 76.5 17.7 76.5 18 77.4 18 77.4 17.7 77.1 17.7 77.1 16.6 77.5 16.6"/>
    <polygon class="cls-2" points="78.8 16.6 78.8 16.3 77.5 16.3 77.5 16.6 78 16.6 78 17.7 77.7 17.7 77.7 18 78.6 18 78.6 17.7 78.3 17.7 78.3 16.6 78.8 16.6"/>
    <polygon class="cls-2" points="80 16.6 80 16.3 78.8 16.3 78.8 16.6 79.2 16.6 79.2 17.7 78.9 17.7 78.9 18 79.8 18 79.8 17.7 79.5 17.7 79.5 16.6 80 16.6"/>
    <polygon class="cls-2" points="81.2 16.6 81.2 16.3 80 16.3 80 16.6 80.4 16.6 80.4 17.7 80.1 17.7 80.1 18 81 18 81 17.7 80.8 17.7 80.8 16.6 81.2 16.6"/>
    <polygon class="cls-2" points="82.4 16.6 82.4 16.3 81.2 16.3 81.2 16.6 81.6 16.6 81.6 17.7 81.4 17.7 81.4 18 82.2 18 82.2 17.7 82 17.7 82 16.6 82.4 16.6"/>
    <polygon class="cls-2" points="83.6 16.6 83.6 16.3 82.4 16.3 82.4 16.6 82.8 16.6 82.8 17.7 82.6 17.7 82.6 18 83.5 18 83.5 17.7 83.2 17.7 83.2 16.6 83.6 16.6"/>
    <polygon class="cls-2" points="84.8 16.6 84.8 16.3 83.6 16.3 83.6 16.6 84.1 16.6 84.1 17.7 83.8 17.7 83.8 18 84.7 18 84.7 17.7 84.4 17.7 84.4 16.6 84.8 16.6"/>
    <polygon class="cls-2" points="86 16.6 86 16.3 84.8 16.3 84.8 16.6 85.3 16.6 85.3 17.7 85 17.7 85 18 85.9 18 85.9 17.7 85.6 17.7 85.6 16.6 86 16.6"/>
    <polygon class="cls-2" points="87.3 16.6 87.3 16.3 86 16.3 86 16.6 86.5 16.6 86.5 17.7 86.2 17.7 86.2 18 87.1 18 87.1 17.7 86.8 17.7 86.8 16.6 87.3 16.6"/>
    <polygon class="cls-2" points="88.5 16.6 88.5 16.3 87.3 16.3 87.3 16.6 87.7 16.6 87.7 17.7 87.4 17.7 87.4 18 88.3 18 88.3 17.7 88 17.7 88 16.6 88.5 16.6"/>
    <polygon class="cls-2" points="89.7 16.6 89.7 16.3 88.5 16.3 88.5 16.6 88.9 16.6 88.9 17.7 88.6 17.7 88.6 18 89.5 18 89.5 17.7 89.3 17.7 89.3 16.6 89.7 16.6"/>
    <polygon class="cls-2" points="90.9 16.6 90.9 16.3 89.7 16.3 89.7 16.6 90.1 16.6 90.1 17.7 89.9 17.7 89.9 18 90.7 18 90.7 17.7 90.5 17.7 90.5 16.6 90.9 16.6"/>
    <polygon class="cls-2" points="92.1 16.6 92.1 16.3 90.9 16.3 90.9 16.6 91.4 16.6 91.4 17.7 91.1 17.7 91.1 18 92 18 92 17.7 91.7 17.7 91.7 16.6 92.1 16.6"/>
    <polygon class="cls-2" points="93.3 16.6 93.3 16.3 92.1 16.3 92.1 16.6 92.6 16.6 92.6 17.7 92.3 17.7 92.3 18 93.2 18 93.2 17.7 92.9 17.7 92.9 16.6 93.3 16.6"/>
    <polygon class="cls-2" points="94.6 16.6 94.6 16.3 93.3 16.3 93.3 16.6 93.8 16.6 93.8 17.7 93.5 17.7 93.5 18 94.4 18 94.4 17.7 94.1 17.7 94.1 16.6 94.6 16.6"/>
    <polygon class="cls-2" points="95.8 16.6 95.8 16.3 94.6 16.3 94.6 16.6 95 16.6 95 17.7 94.7 17.7 94.7 18 95.6 18 95.6 17.7 95.3 17.7 95.3 16.6 95.8 16.6"/>
    <polygon class="cls-2" points="97 16.6 97 16.3 95.8 16.3 95.8 16.6 96.2 16.6 96.2 17.7 95.9 17.7 95.9 18 96.8 18 96.8 17.7 96.5 17.7 96.5 16.6 97 16.6"/>
    <polygon class="cls-2" points="98.2 16.6 98.2 16.3 97 16.3 97 16.6 97.4 16.6 97.4 17.7 97.2 17.7 97.2 18 98 18 98 17.7 97.8 17.7 97.8 16.6 98.2 16.6"/>
    <polygon class="cls-2" points="99.4 16.6 99.4 16.3 98.2 16.3 98.2 16.6 98.6 16.6 98.6 17.7 98.4 17.7 98.4 18 99.3 18 99.3 17.7 99 17.7 99 16.6 99.4 16.6"/>
    <polygon class="cls-2" points="100.6 16.6 100.6 16.3 99.4 16.3 99.4 16.6 99.9 16.6 99.9 17.7 99.6 17.7 99.6 18 100.5 18 100.5 17.7 100.2 17.7 100.2 16.6 100.6 16.6"/>
    <polygon class="cls-2" points="101.8 16.6 101.8 16.3 100.6 16.3 100.6 16.6 101.1 16.6 101.1 17.7 100.8 17.7 100.8 18 101.7 18 101.7 17.7 101.4 17.7 101.4 16.6 101.8 16.6"/>
    <polygon class="cls-2" points="103.1 16.6 103.1 16.3 101.8 16.3 101.8 16.6 102.3 16.6 102.3 17.7 102 17.7 102 18 102.9 18 102.9 17.7 102.6 17.7 102.6 16.6 103.1 16.6"/>
    <polygon class="cls-2" points="104.3 16.6 104.3 16.3 103.1 16.3 103.1 16.6 103.5 16.6 103.5 17.7 103.2 17.7 103.2 18 104.1 18 104.1 17.7 103.8 17.7 103.8 16.6 104.3 16.6"/>
    <polygon class="cls-2" points="105.5 16.6 105.5 16.3 104.3 16.3 104.3 16.6 104.7 16.6 104.7 17.7 104.4 17.7 104.4 18 105.3 18 105.3 17.7 105.1 17.7 105.1 16.6 105.5 16.6"/>
    <polygon class="cls-2" points="106.7 16.6 106.7 16.3 105.5 16.3 105.5 16.6 105.9 16.6 105.9 17.7 105.7 17.7 105.7 18 106.5 18 106.5 17.7 106.3 17.7 106.3 16.6 106.7 16.6"/>
    <polygon class="cls-2" points="107.9 16.6 107.9 16.3 106.7 16.3 106.7 16.6 107.1 16.6 107.1 17.7 106.9 17.7 106.9 18 107.8 18 107.8 17.7 107.5 17.7 107.5 16.6 107.9 16.6"/>
    <polygon class="cls-2" points="109.1 16.6 109.1 16.3 107.9 16.3 107.9 16.6 108.4 16.6 108.4 17.7 108.1 17.7 108.1 18 109 18 109 17.7 108.7 17.7 108.7 16.6 109.1 16.6"/>
    <polygon class="cls-2" points="110.4 16.6 110.4 16.3 109.1 16.3 109.1 16.6 109.6 16.6 109.6 17.7 109.3 17.7 109.3 18 110.2 18 110.2 17.7 109.9 17.7 109.9 16.6 110.4 16.6"/>
    <polygon class="cls-2" points="111.6 16.6 111.6 16.3 110.4 16.3 110.4 16.6 110.8 16.6 110.8 17.7 110.5 17.7 110.5 18 111.4 18 111.4 17.7 111.1 17.7 111.1 16.6 111.6 16.6"/>
    <polygon class="cls-2" points="112.8 16.6 112.8 16.3 111.6 16.3 111.6 16.6 112 16.6 112 17.7 111.7 17.7 111.7 18 112.6 18 112.6 17.7 112.3 17.7 112.3 16.6 112.8 16.6"/>
    <polygon class="cls-2" points="114 16.6 114 16.3 112.8 16.3 112.8 16.6 113.2 16.6 113.2 17.7 112.9 17.7 112.9 18 113.8 18 113.8 17.7 113.6 17.7 113.6 16.6 114 16.6"/>
    <polygon class="cls-2" points="115.2 16.6 115.2 16.3 114 16.3 114 16.6 114.4 16.6 114.4 17.7 114.2 17.7 114.2 18 115 18 115 17.7 114.8 17.7 114.8 16.6 115.2 16.6"/>
    <polygon class="cls-2" points="116.4 16.6 116.4 16.3 115.2 16.3 115.2 16.6 115.7 16.6 115.7 17.7 115.4 17.7 115.4 18 116.3 18 116.3 17.7 116 17.7 116 16.6 116.4 16.6"/>
    <polygon class="cls-2" points="117.6 16.6 117.6 16.3 116.4 16.3 116.4 16.6 116.9 16.6 116.9 17.7 116.6 17.7 116.6 18 117.5 18 117.5 17.7 117.2 17.7 117.2 16.6 117.6 16.6"/>
    <polygon class="cls-2" points="118.9 16.6 118.9 16.3 117.6 16.3 117.6 16.6 118.1 16.6 118.1 17.7 117.8 17.7 117.8 18 118.7 18 118.7 17.7 118.4 17.7 118.4 16.6 118.9 16.6"/>
    <polygon class="cls-2" points="120.1 16.6 120.1 16.3 118.9 16.3 118.9 16.6 119.3 16.6 119.3 17.7 119 17.7 119 18 119.9 18 119.9 17.7 119.6 17.7 119.6 16.6 120.1 16.6"/>
    <polygon class="cls-2" points="121.3 16.6 121.3 16.3 120.1 16.3 120.1 16.6 120.5 16.6 120.5 17.7 120.2 17.7 120.2 18 121.1 18 121.1 17.7 120.8 17.7 120.8 16.6 121.3 16.6"/>
    <polygon class="cls-2" points="122.5 16.6 122.5 16.3 121.3 16.3 121.3 16.6 121.7 16.6 121.7 17.7 121.5 17.7 121.5 18 122.3 18 122.3 17.7 122.1 17.7 122.1 16.6 122.5 16.6"/>
    <polygon class="cls-2" points="123.7 16.6 123.7 16.3 122.5 16.3 122.5 16.6 122.9 16.6 122.9 17.7 122.7 17.7 122.7 18 123.6 18 123.6 17.7 123.3 17.7 123.3 16.6 123.7 16.6"/>
    <polygon class="cls-2" points="124.9 16.6 124.9 16.3 123.7 16.3 123.7 16.6 124.2 16.6 124.2 17.7 123.9 17.7 123.9 18 124.8 18 124.8 17.7 124.5 17.7 124.5 16.6 124.9 16.6"/>
    <polygon class="cls-2" points="126.1 16.6 126.1 16.3 124.9 16.3 124.9 16.6 125.4 16.6 125.4 17.7 125.1 17.7 125.1 18 126 18 126 17.7 125.7 17.7 125.7 16.6 126.1 16.6"/>
    <polygon class="cls-2" points="127.4 16.6 127.4 16.3 126.1 16.3 126.1 16.6 126.6 16.6 126.6 17.7 126.3 17.7 126.3 18 127.2 18 127.2 17.7 126.9 17.7 126.9 16.6 127.4 16.6"/>
    <polygon class="cls-2" points="128.6 16.6 128.6 16.3 127.4 16.3 127.4 16.6 127.8 16.6 127.8 17.7 127.5 17.7 127.5 18 128.4 18 128.4 17.7 128.1 17.7 128.1 16.6 128.6 16.6"/>
    <polygon class="cls-2" points="129.8 16.6 129.8 16.3 128.6 16.3 128.6 16.6 129 16.6 129 17.7 128.7 17.7 128.7 18 129.6 18 129.6 17.7 129.4 17.7 129.4 16.6 129.8 16.6"/>
    <polygon class="cls-2" points="131 16.6 131 16.3 129.8 16.3 129.8 16.6 130.2 16.6 130.2 17.7 130 17.7 130 18 130.8 18 130.8 17.7 130.6 17.7 130.6 16.6 131 16.6"/>
    <polygon class="cls-2" points="132.2 16.6 132.2 16.3 131 16.3 131 16.6 131.4 16.6 131.4 17.7 131.2 17.7 131.2 18 132.1 18 132.1 17.7 131.8 17.7 131.8 16.6 132.2 16.6"/>
    <polygon class="cls-2" points="133.4 16.6 133.4 16.3 132.2 16.3 132.2 16.6 132.7 16.6 132.7 17.7 132.4 17.7 132.4 18 133.3 18 133.3 17.7 133 17.7 133 16.6 133.4 16.6"/>
    <polygon class="cls-2" points="134.7 16.6 134.7 16.3 133.4 16.3 133.4 16.6 133.9 16.6 133.9 17.7 133.6 17.7 133.6 18 134.5 18 134.5 17.7 134.2 17.7 134.2 16.6 134.7 16.6"/>
    <polygon class="cls-2" points="135.9 16.6 135.9 16.3 134.7 16.3 134.7 16.6 135.1 16.6 135.1 17.7 134.8 17.7 134.8 18 135.7 18 135.7 17.7 135.4 17.7 135.4 16.6 135.9 16.6"/>
    <polygon class="cls-2" points="137.1 16.6 137.1 16.3 135.9 16.3 135.9 16.6 136.3 16.6 136.3 17.7 136 17.7 136 18 136.9 18 136.9 17.7 136.6 17.7 136.6 16.6 137.1 16.6"/>
    <polygon class="cls-2" points="138.3 16.6 138.3 16.3 137.1 16.3 137.1 16.6 137.5 16.6 137.5 17.7 137.2 17.7 137.2 18 138.1 18 138.1 17.7 137.9 17.7 137.9 16.6 138.3 16.6"/>
    <polygon class="cls-2" points="139.5 16.6 139.5 16.3 138.3 16.3 138.3 16.6 138.7 16.6 138.7 17.7 138.5 17.7 138.5 18 139.3 18 139.3 17.7 139.1 17.7 139.1 16.6 139.5 16.6"/>
    <polygon class="cls-2" points="140.7 16.6 140.7 16.3 139.5 16.3 139.5 16.6 140 16.6 140 17.7 139.7 17.7 139.7 18 140.6 18 140.6 17.7 140.3 17.7 140.3 16.6 140.7 16.6"/>
    <polygon class="cls-2" points="141.9 16.6 141.9 16.3 140.7 16.3 140.7 16.6 141.2 16.6 141.2 17.7 140.9 17.7 140.9 18 141.8 18 141.8 17.7 141.5 17.7 141.5 16.6 141.9 16.6"/>
    <polygon class="cls-2" points="143.2 16.6 143.2 16.3 141.9 16.3 141.9 16.6 142.4 16.6 142.4 17.7 142.1 17.7 142.1 18 143 18 143 17.7 142.7 17.7 142.7 16.6 143.2 16.6"/>
    <polygon class="cls-2" points="144.4 16.6 144.4 16.3 143.2 16.3 143.2 16.6 143.6 16.6 143.6 17.7 143.3 17.7 143.3 18 144.2 18 144.2 17.7 143.9 17.7 143.9 16.6 144.4 16.6"/>
    <polygon class="cls-2" points="145.6 16.6 145.6 16.3 144.4 16.3 144.4 16.6 144.8 16.6 144.8 17.7 144.5 17.7 144.5 18 145.4 18 145.4 17.7 145.1 17.7 145.1 16.6 145.6 16.6"/>
    <polygon class="cls-2" points="146.8 16.6 146.8 16.3 145.6 16.3 145.6 16.6 146 16.6 146 17.7 145.8 17.7 145.8 18 146.6 18 146.6 17.7 146.4 17.7 146.4 16.6 146.8 16.6"/>
    <polygon class="cls-2" points="148 16.6 148 16.3 146.8 16.3 146.8 16.6 147.2 16.6 147.2 17.7 147 17.7 147 18 147.9 18 147.9 17.7 147.6 17.7 147.6 16.6 148 16.6"/>
    <polygon class="cls-2" points="149.2 16.6 149.2 16.3 148 16.3 148 16.6 148.5 16.6 148.5 17.7 148.2 17.7 148.2 18 149.1 18 149.1 17.7 148.8 17.7 148.8 16.6 149.2 16.6"/>
    <polygon class="cls-2" points="150.4 16.6 150.4 16.3 149.2 16.3 149.2 16.6 149.7 16.6 149.7 17.7 149.4 17.7 149.4 18 150.3 18 150.3 17.7 150 17.7 150 16.6 150.4 16.6"/>
    <polygon class="cls-2" points="151.7 16.6 151.7 16.3 150.4 16.3 150.4 16.6 150.9 16.6 150.9 17.7 150.6 17.7 150.6 18 151.5 18 151.5 17.7 151.2 17.7 151.2 16.6 151.7 16.6"/>
    <polygon class="cls-2" points="152.9 16.6 152.9 16.3 151.7 16.3 151.7 16.6 152.1 16.6 152.1 17.7 151.8 17.7 151.8 18 152.7 18 152.7 17.7 152.4 17.7 152.4 16.6 152.9 16.6"/>
    <polygon class="cls-2" points="154.1 16.6 154.1 16.3 152.9 16.3 152.9 16.6 153.3 16.6 153.3 17.7 153 17.7 153 18 153.9 18 153.9 17.7 153.7 17.7 153.7 16.6 154.1 16.6"/>
    <polygon class="cls-2" points="155.3 16.6 155.3 16.3 154.1 16.3 154.1 16.6 154.5 16.6 154.5 17.7 154.3 17.7 154.3 18 155.1 18 155.1 17.7 154.9 17.7 154.9 16.6 155.3 16.6"/>
    <polygon class="cls-2" points="156.5 16.6 156.5 16.3 155.3 16.3 155.3 16.6 155.7 16.6 155.7 17.7 155.5 17.7 155.5 18 156.4 18 156.4 17.7 156.1 17.7 156.1 16.6 156.5 16.6"/>
    <polygon class="cls-2" points="157.7 16.6 157.7 16.3 156.5 16.3 156.5 16.6 157 16.6 157 17.7 156.7 17.7 156.7 18 157.6 18 157.6 17.7 157.3 17.7 157.3 16.6 157.7 16.6"/>
    <polygon class="cls-2" points="159 16.6 159 16.3 157.7 16.3 157.7 16.6 158.2 16.6 158.2 17.7 157.9 17.7 157.9 18 158.8 18 158.8 17.7 158.5 17.7 158.5 16.6 159 16.6"/>
    <polygon class="cls-2" points="160.2 16.6 160.2 16.3 159 16.3 159 16.6 159.4 16.6 159.4 17.7 159.1 17.7 159.1 18 160 18 160 17.7 159.7 17.7 159.7 16.6 160.2 16.6"/>
    <polygon class="cls-2" points="161.4 16.6 161.4 16.3 160.2 16.3 160.2 16.6 160.6 16.6 160.6 17.7 160.3 17.7 160.3 18 161.2 18 161.2 17.7 160.9 17.7 160.9 16.6 161.4 16.6"/>
    <polygon class="cls-2" points="162.6 16.6 162.6 16.3 161.4 16.3 161.4 16.6 161.8 16.6 161.8 17.7 161.5 17.7 161.5 18 162.4 18 162.4 17.7 162.2 17.7 162.2 16.6 162.6 16.6"/>
    <polygon class="cls-2" points="163.8 16.6 163.8 16.3 162.6 16.3 162.6 16.6 163 16.6 163 17.7 162.8 17.7 162.8 18 163.7 18 163.7 17.7 163.4 17.7 163.4 16.6 163.8 16.6"/>
    <polygon class="cls-2" points="165 16.6 165 16.3 163.8 16.3 163.8 16.6 164.3 16.6 164.3 17.7 164 17.7 164 18 164.9 18 164.9 17.7 164.6 17.7 164.6 16.6 165 16.6"/>
    <polygon class="cls-2" points="166.2 16.6 166.2 16.3 165 16.3 165 16.6 165.5 16.6 165.5 17.7 165.2 17.7 165.2 18 166.1 18 166.1 17.7 165.8 17.7 165.8 16.6 166.2 16.6"/>
    <polygon class="cls-2" points="167.5 16.6 167.5 16.3 166.2 16.3 166.2 16.6 166.7 16.6 166.7 17.7 166.4 17.7 166.4 18 167.3 18 167.3 17.7 167 17.7 167 16.6 167.5 16.6"/>
    <polygon class="cls-2" points="168.7 16.6 168.7 16.3 167.5 16.3 167.5 16.6 167.9 16.6 167.9 17.7 167.6 17.7 167.6 18 168.5 18 168.5 17.7 168.2 17.7 168.2 16.6 168.7 16.6"/>
    <polygon class="cls-2" points="169.9 16.6 169.9 16.3 168.7 16.3 168.7 16.6 169.1 16.6 169.1 17.7 168.8 17.7 168.8 18 169.7 18 169.7 17.7 169.4 17.7 169.4 16.6 169.9 16.6"/>
    <polygon class="cls-2" points="171.1 16.6 171.1 16.3 169.9 16.3 169.9 16.6 170.3 16.6 170.3 17.7 170.1 17.7 170.1 18 170.9 18 170.9 17.7 170.7 17.7 170.7 16.6 171.1 16.6"/>
    <polygon class="cls-2" points="172.3 16.6 172.3 16.3 171.1 16.3 171.1 16.6 171.5 16.6 171.5 17.7 171.3 17.7 171.3 18 172.2 18 172.2 17.7 171.9 17.7 171.9 16.6 172.3 16.6"/>
    <polygon class="cls-2" points="173.5 16.6 173.5 16.3 172.3 16.3 172.3 16.6 172.8 16.6 172.8 17.7 172.5 17.7 172.5 18 173.4 18 173.4 17.7 173.1 17.7 173.1 16.6 173.5 16.6"/>
    <polygon class="cls-2" points="174.7 16.6 174.7 16.3 173.5 16.3 173.5 16.6 174 16.6 174 17.7 173.7 17.7 173.7 18 174.6 18 174.6 17.7 174.3 17.7 174.3 16.6 174.7 16.6"/>
    <polygon class="cls-2" points="176 16.6 176 16.3 174.7 16.3 174.7 16.6 175.2 16.6 175.2 17.7 174.9 17.7 174.9 18 175.8 18 175.8 17.7 175.5 17.7 175.5 16.6 176 16.6"/>
    <polygon class="cls-2" points="177.2 16.6 177.2 16.3 176 16.3 176 16.6 176.4 16.6 176.4 17.7 176.1 17.7 176.1 18 177 18 177 17.7 176.7 17.7 176.7 16.6 177.2 16.6"/>
    <polygon class="cls-2" points="178.4 16.6 178.4 16.3 177.2 16.3 177.2 16.6 177.6 16.6 177.6 17.7 177.3 17.7 177.3 18 178.2 18 178.2 17.7 178 17.7 178 16.6 178.4 16.6"/>
    <polygon class="cls-2" points="179.6 16.6 179.6 16.3 178.4 16.3 178.4 16.6 178.8 16.6 178.8 17.7 178.6 17.7 178.6 18 179.4 18 179.4 17.7 179.2 17.7 179.2 16.6 179.6 16.6"/>
    <polygon class="cls-2" points="180.8 16.6 180.8 16.3 179.6 16.3 179.6 16.6 180.1 16.6 180.1 17.7 179.8 17.7 179.8 18 180.7 18 180.7 17.7 180.4 17.7 180.4 16.6 180.8 16.6"/>
    <polygon class="cls-2" points="182 16.6 182 16.3 180.8 16.3 180.8 16.6 181.3 16.6 181.3 17.7 181 17.7 181 18 181.9 18 181.9 17.7 181.6 17.7 181.6 16.6 182 16.6"/>
    <polygon class="cls-2" points="183.3 16.6 183.3 16.3 182 16.3 182 16.6 182.5 16.6 182.5 17.7 182.2 17.7 182.2 18 183.1 18 183.1 17.7 182.8 17.7 182.8 16.6 183.3 16.6"/>
    <polygon class="cls-2" points="184.5 16.6 184.5 16.3 183.3 16.3 183.3 16.6 183.7 16.6 183.7 17.7 183.4 17.7 183.4 18 184.3 18 184.3 17.7 184 17.7 184 16.6 184.5 16.6"/>
    <polygon class="cls-2" points="185.7 16.6 185.7 16.3 184.5 16.3 184.5 16.6 184.9 16.6 184.9 17.7 184.6 17.7 184.6 18 185.5 18 185.5 17.7 185.2 17.7 185.2 16.6 185.7 16.6"/>
    <polygon class="cls-2" points="186.9 16.6 186.9 16.3 185.7 16.3 185.7 16.6 186.1 16.6 186.1 17.7 185.8 17.7 185.8 18 186.7 18 186.7 17.7 186.5 17.7 186.5 16.6 186.9 16.6"/>
    <polygon class="cls-2" points="188.1 16.6 188.1 16.3 186.9 16.3 186.9 16.6 187.3 16.6 187.3 17.7 187.1 17.7 187.1 18 188 18 188 17.7 187.7 17.7 187.7 16.6 188.1 16.6"/>
    <polygon class="cls-2" points="189.3 16.6 189.3 16.3 188.1 16.3 188.1 16.6 188.6 16.6 188.6 17.7 188.3 17.7 188.3 18 189.2 18 189.2 17.7 188.9 17.7 188.9 16.6 189.3 16.6"/>
    <polygon class="cls-2" points="190.5 16.6 190.5 16.3 189.3 16.3 189.3 16.6 189.8 16.6 189.8 17.7 189.5 17.7 189.5 18 190.4 18 190.4 17.7 190.1 17.7 190.1 16.6 190.5 16.6"/>
    <polygon class="cls-2" points="191.8 16.6 191.8 16.3 190.5 16.3 190.5 16.6 191 16.6 191 17.7 190.7 17.7 190.7 18 191.6 18 191.6 17.7 191.3 17.7 191.3 16.6 191.8 16.6"/>
    <polygon class="cls-2" points="193 16.6 193 16.3 191.8 16.3 191.8 16.6 192.2 16.6 192.2 17.7 191.9 17.7 191.9 18 192.8 18 192.8 17.7 192.5 17.7 192.5 16.6 193 16.6"/>
    <polygon class="cls-2" points="194.2 16.6 194.2 16.3 193 16.3 193 16.6 193.4 16.6 193.4 17.7 193.1 17.7 193.1 18 194 18 194 17.7 193.7 17.7 193.7 16.6 194.2 16.6"/>
    <polygon class="cls-2" points="195.4 16.6 195.4 16.3 194.2 16.3 194.2 16.6 194.6 16.6 194.6 17.7 194.4 17.7 194.4 18 195.2 18 195.2 17.7 195 17.7 195 16.6 195.4 16.6"/>
    <polygon class="cls-2" points="196.6 16.6 196.6 16.3 195.4 16.3 195.4 16.6 195.8 16.6 195.8 17.7 195.6 17.7 195.6 18 196.5 18 196.5 17.7 196.2 17.7 196.2 16.6 196.6 16.6"/>
    <polygon class="cls-2" points="197.8 16.6 197.8 16.3 196.6 16.3 196.6 16.6 197.1 16.6 197.1 17.7 196.8 17.7 196.8 18 197.7 18 197.7 17.7 197.4 17.7 197.4 16.6 197.8 16.6"/>
    <polygon class="cls-2" points="199 16.6 199 16.3 197.8 16.3 197.8 16.6 198.3 16.6 198.3 17.7 198 17.7 198 18 198.9 18 198.9 17.7 198.6 17.7 198.6 16.6 199 16.6"/>
    <polygon class="cls-2" points="200.3 16.6 200.3 16.3 199 16.3 199 16.6 199.5 16.6 199.5 17.7 199.2 17.7 199.2 18 200.1 18 200.1 17.7 199.8 17.7 199.8 16.6 200.3 16.6"/>
    <polygon class="cls-2" points="201.5 16.6 201.5 16.3 200.3 16.3 200.3 16.6 200.7 16.6 200.7 17.7 200.4 17.7 200.4 18 201.3 18 201.3 17.7 201 17.7 201 16.6 201.5 16.6"/>
    <polygon class="cls-2" points="202.7 16.6 202.7 16.3 201.5 16.3 201.5 16.6 201.9 16.6 201.9 17.7 201.6 17.7 201.6 18 202.5 18 202.5 17.7 202.3 17.7 202.3 16.6 202.7 16.6"/>
    <polygon class="cls-2" points="203.9 16.6 203.9 16.3 202.7 16.3 202.7 16.6 203.1 16.6 203.1 17.7 202.9 17.7 202.9 18 203.7 18 203.7 17.7 203.5 17.7 203.5 16.6 203.9 16.6"/>
    <polygon class="cls-2" points="205.1 16.6 205.1 16.3 203.9 16.3 203.9 16.6 204.4 16.6 204.4 17.7 204.1 17.7 204.1 18 205 18 205 17.7 204.7 17.7 204.7 16.6 205.1 16.6"/>
    <polygon class="cls-2" points="206.3 16.6 206.3 16.3 205.1 16.3 205.1 16.6 205.6 16.6 205.6 17.7 205.3 17.7 205.3 18 206.2 18 206.2 17.7 205.9 17.7 205.9 16.6 206.3 16.6"/>
    <polygon class="cls-2" points="207.6 16.6 207.6 16.3 206.3 16.3 206.3 16.6 206.8 16.6 206.8 17.7 206.5 17.7 206.5 18 207.4 18 207.4 17.7 207.1 17.7 207.1 16.6 207.6 16.6"/>
    <polygon class="cls-2" points="208.8 16.6 208.8 16.3 207.6 16.3 207.6 16.6 208 16.6 208 17.7 207.7 17.7 207.7 18 208.6 18 208.6 17.7 208.3 17.7 208.3 16.6 208.8 16.6"/>
    <polygon class="cls-2" points="210 16.6 210 16.3 208.8 16.3 208.8 16.6 209.2 16.6 209.2 17.7 208.9 17.7 208.9 18 209.8 18 209.8 17.7 209.5 17.7 209.5 16.6 210 16.6"/>
    <polygon class="cls-2" points="211.2 16.6 211.2 16.3 210 16.3 210 16.6 210.4 16.6 210.4 17.7 210.1 17.7 210.1 18 211 18 211 17.7 210.8 17.7 210.8 16.6 211.2 16.6"/>
    <polygon class="cls-2" points="212.4 16.6 212.4 16.3 211.2 16.3 211.2 16.6 211.6 16.6 211.6 17.7 211.4 17.7 211.4 18 212.3 18 212.3 17.7 212 17.7 212 16.6 212.4 16.6"/>
    <polygon class="cls-2" points="213.6 16.6 213.6 16.3 212.4 16.3 212.4 16.6 212.9 16.6 212.9 17.7 212.6 17.7 212.6 18 213.5 18 213.5 17.7 213.2 17.7 213.2 16.6 213.6 16.6"/>
    <polygon class="cls-2" points="214.8 16.6 214.8 16.3 213.6 16.3 213.6 16.6 214.1 16.6 214.1 17.7 213.8 17.7 213.8 18 214.7 18 214.7 17.7 214.4 17.7 214.4 16.6 214.8 16.6"/>
    <polygon class="cls-2" points="216.1 16.6 216.1 16.3 214.8 16.3 214.8 16.6 215.3 16.6 215.3 17.7 215 17.7 215 18 215.9 18 215.9 17.7 215.6 17.7 215.6 16.6 216.1 16.6"/>
    <polygon class="cls-2" points="217.3 16.6 217.3 16.3 216.1 16.3 216.1 16.6 216.5 16.6 216.5 17.7 216.2 17.7 216.2 18 217.1 18 217.1 17.7 216.8 17.7 216.8 16.6 217.3 16.6"/>
    <polygon class="cls-2" points="218.5 16.6 218.5 16.3 217.3 16.3 217.3 16.6 217.7 16.6 217.7 17.7 217.4 17.7 217.4 18 218.3 18 218.3 17.7 218 17.7 218 16.6 218.5 16.6"/>
    <polygon class="cls-2" points="217.7 15.3 217.5 15.6 218.5 16.3 218.7 16 218.3 15.7 218.9 14.8 219.1 15 219.3 14.7 218.6 14.2 218.4 14.5 218.6 14.6 218 15.6 217.7 15.3"/>
    <polygon class="cls-2" points="216.6 14.7 216.5 14.9 217.5 15.6 217.7 15.3 217.3 15.1 217.9 14.2 218.1 14.3 218.3 14 217.6 13.6 217.4 13.8 217.6 14 217 14.9 216.6 14.7"/>
    <polygon class="cls-2" points="215.6 14 215.4 14.3 216.5 14.9 216.6 14.7 216.3 14.4 216.9 13.5 217.1 13.6 217.3 13.4 216.6 12.9 216.4 13.2 216.6 13.3 216 14.2 215.6 14"/>
    <polygon class="cls-2" points="214.6 13.3 214.4 13.6 215.4 14.3 215.6 14 215.3 13.8 215.9 12.8 216.1 13 216.3 12.7 215.5 12.2 215.4 12.5 215.6 12.7 215 13.6 214.6 13.3"/>
    <polygon class="cls-2" points="213.6 12.7 213.4 13 214.4 13.6 214.6 13.3 214.2 13.1 214.9 12.2 215.1 12.3 215.3 12 214.5 11.6 214.3 11.8 214.6 12 214 12.9 213.6 12.7"/>
    <polygon class="cls-2" points="212.6 12 212.4 12.3 213.4 13 213.6 12.7 213.2 12.4 213.8 11.5 214.1 11.7 214.3 11.4 213.5 10.9 213.3 11.2 213.6 11.3 213 12.2 212.6 12"/>
    <polygon class="cls-2" points="211.6 11.3 211.4 11.6 212.4 12.3 212.6 12 212.2 11.8 212.8 10.8 213.1 11 213.2 10.7 212.5 10.2 212.3 10.5 212.5 10.7 211.9 11.6 211.6 11.3"/>
    <polygon class="cls-2" points="210.6 10.7 210.4 11 211.4 11.6 211.6 11.3 211.2 11.1 211.8 10.2 212 10.3 212.2 10.1 211.5 9.6 211.3 9.8 211.5 10 210.9 10.9 210.6 10.7"/>
    <polygon class="cls-2" points="209.5 10 209.4 10.3 210.4 11 210.6 10.7 210.2 10.4 210.8 9.5 211 9.7 211.2 9.4 210.5 8.9 210.3 9.2 210.5 9.3 209.9 10.3 209.5 10"/>
    <polygon class="cls-2" points="208.5 9.4 208.4 9.6 209.4 10.3 209.5 10 209.2 9.8 209.8 8.9 210 9 210.2 8.7 209.5 8.2 209.3 8.5 209.5 8.7 208.9 9.6 208.5 9.4"/>
    <polygon class="cls-2" points="207.5 8.7 207.3 9 208.4 9.6 208.5 9.4 208.2 9.1 208.8 8.2 209 8.3 209.2 8.1 208.4 7.6 208.3 7.9 208.5 8 207.9 8.9 207.5 8.7"/>
    <polygon class="cls-2" points="206.5 8 206.3 8.3 207.3 9 207.5 8.7 207.2 8.4 207.8 7.5 208 7.7 208.2 7.4 207.4 6.9 207.2 7.2 207.5 7.3 206.9 8.3 206.5 8"/>
    <polygon class="cls-2" points="205.5 7.4 205.3 7.6 206.3 8.3 206.5 8 206.1 7.8 206.7 6.9 207 7 207.2 6.7 206.4 6.2 206.2 6.5 206.5 6.7 205.9 7.6 205.5 7.4"/>
    <polygon class="cls-2" points="204.5 6.7 204.3 7 205.3 7.6 205.5 7.4 205.1 7.1 205.7 6.2 206 6.3 206.1 6.1 205.4 5.6 205.2 5.9 205.5 6 204.8 6.9 204.5 6.7"/>
    <polygon class="cls-2" points="203.5 6 203.3 6.3 204.3 7 204.5 6.7 204.1 6.5 204.7 5.5 205 5.7 205.1 5.4 204.4 4.9 204.2 5.2 204.4 5.4 203.8 6.3 203.5 6"/>
    <polygon class="cls-2" points="202.5 5.4 202.3 5.6 203.3 6.3 203.5 6 203.1 5.8 203.7 4.9 203.9 5 204.1 4.7 203.4 4.3 203.2 4.5 203.4 4.7 202.8 5.6 202.5 5.4"/>
    <polygon class="cls-2" points="201.4 4.7 201.3 5 202.3 5.6 202.5 5.4 202.1 5.1 202.7 4.2 202.9 4.4 203.1 4.1 202.4 3.6 202.2 3.9 202.4 4 201.8 4.9 201.4 4.7"/>
    <polygon class="cls-2" points="200.4 4 200.2 4.3 201.3 5 201.4 4.7 201.1 4.5 201.7 3.5 201.9 3.7 202.1 3.4 201.4 2.9 201.2 3.2 201.4 3.4 200.8 4.3 200.4 4"/>
    <polygon class="cls-2" points="199.6 3.6 199.6 3.9 200.2 4.3 200.4 4 200.1 3.8 200.7 2.9 200.9 3 201.1 2.8 200.1 2.1 200.1 2.1 200 2.5 200 2.5 200.4 2.7 199.8 3.6 199.7 3.6 199.6 3.6"/>
    <polygon class="cls-2" points="198.5 3.6 198.5 3.9 199.6 3.9 199.6 3.6 199.2 3.6 199.2 2.5 199.5 2.5 199.5 2.1 198.6 2.1 198.6 2.5 198.9 2.5 198.9 3.6 198.5 3.6"/>
    <polygon class="cls-2" points="197.3 3.6 197.3 3.9 198.5 3.9 198.5 3.6 198 3.6 198 2.5 198.3 2.5 198.3 2.1 197.4 2.1 197.4 2.5 197.7 2.5 197.7 3.6 197.3 3.6"/>
    <polygon class="cls-2" points="196.1 3.6 196.1 3.9 197.3 3.9 197.3 3.6 196.8 3.6 196.8 2.5 197.1 2.5 197.1 2.1 196.2 2.1 196.2 2.5 196.5 2.5 196.5 3.6 196.1 3.6"/>
    <polygon class="cls-2" points="194.8 3.6 194.8 3.9 196.1 3.9 196.1 3.6 195.6 3.6 195.6 2.5 195.9 2.5 195.9 2.1 195 2.1 195 2.5 195.3 2.5 195.3 3.6 194.8 3.6"/>
    <polygon class="cls-2" points="193.6 3.6 193.6 3.9 194.8 3.9 194.8 3.6 194.4 3.6 194.4 2.5 194.7 2.5 194.7 2.1 193.8 2.1 193.8 2.5 194.1 2.5 194.1 3.6 193.6 3.6"/>
    <polygon class="cls-2" points="192.4 3.6 192.4 3.9 193.6 3.9 193.6 3.6 193.2 3.6 193.2 2.5 193.5 2.5 193.5 2.1 192.6 2.1 192.6 2.5 192.9 2.5 192.9 3.6 192.4 3.6"/>
    <polygon class="cls-2" points="191.2 3.6 191.2 3.9 192.4 3.9 192.4 3.6 192 3.6 192 2.5 192.3 2.5 192.3 2.1 191.4 2.1 191.4 2.5 191.6 2.5 191.6 3.6 191.2 3.6"/>
    <polygon class="cls-2" points="190 3.6 190 3.9 191.2 3.9 191.2 3.6 190.8 3.6 190.8 2.5 191 2.5 191 2.1 190.2 2.1 190.2 2.5 190.4 2.5 190.4 3.6 190 3.6"/>
    <polygon class="cls-2" points="188.8 3.6 188.8 3.9 190 3.9 190 3.6 189.6 3.6 189.6 2.5 189.8 2.5 189.8 2.1 188.9 2.1 188.9 2.5 189.2 2.5 189.2 3.6 188.8 3.6"/>
    <polygon class="cls-2" points="187.6 3.6 187.6 3.9 188.8 3.9 188.8 3.6 188.3 3.6 188.3 2.5 188.6 2.5 188.6 2.1 187.7 2.1 187.7 2.5 188 2.5 188 3.6 187.6 3.6"/>
    <polygon class="cls-2" points="186.4 3.6 186.4 3.9 187.6 3.9 187.6 3.6 187.1 3.6 187.1 2.5 187.4 2.5 187.4 2.1 186.5 2.1 186.5 2.5 186.8 2.5 186.8 3.6 186.4 3.6"/>
    <polygon class="cls-2" points="185.1 3.6 185.1 3.9 186.4 3.9 186.4 3.6 185.9 3.6 185.9 2.5 186.2 2.5 186.2 2.1 185.3 2.1 185.3 2.5 185.6 2.5 185.6 3.6 185.1 3.6"/>
    <polygon class="cls-2" points="183.9 3.6 183.9 3.9 185.1 3.9 185.1 3.6 184.7 3.6 184.7 2.5 185 2.5 185 2.1 184.1 2.1 184.1 2.5 184.4 2.5 184.4 3.6 183.9 3.6"/>
    <polygon class="cls-2" points="182.7 3.6 182.7 3.9 183.9 3.9 183.9 3.6 183.5 3.6 183.5 2.5 183.8 2.5 183.8 2.1 182.9 2.1 182.9 2.5 183.2 2.5 183.2 3.6 182.7 3.6"/>
    <polygon class="cls-2" points="181.5 3.6 181.5 3.9 182.7 3.9 182.7 3.6 182.3 3.6 182.3 2.5 182.6 2.5 182.6 2.1 181.7 2.1 181.7 2.5 182 2.5 182 3.6 181.5 3.6"/>
    <polygon class="cls-2" points="180.3 3.6 180.3 3.9 181.5 3.9 181.5 3.6 181.1 3.6 181.1 2.5 181.3 2.5 181.3 2.1 180.5 2.1 180.5 2.5 180.7 2.5 180.7 3.6 180.3 3.6"/>
    <polygon class="cls-2" points="179.1 3.6 179.1 3.9 180.3 3.9 180.3 3.6 179.9 3.6 179.9 2.5 180.1 2.5 180.1 2.1 179.3 2.1 179.3 2.5 179.5 2.5 179.5 3.6 179.1 3.6"/>
    <polygon class="cls-2" points="177.9 3.6 177.9 3.9 179.1 3.9 179.1 3.6 178.6 3.6 178.6 2.5 178.9 2.5 178.9 2.1 178 2.1 178 2.5 178.3 2.5 178.3 3.6 177.9 3.6"/>
    <polygon class="cls-2" points="176.7 3.6 176.7 3.9 177.9 3.9 177.9 3.6 177.4 3.6 177.4 2.5 177.7 2.5 177.7 2.1 176.8 2.1 176.8 2.5 177.1 2.5 177.1 3.6 176.7 3.6"/>
    <polygon class="cls-2" points="175.5 3.6 175.5 3.9 176.7 3.9 176.7 3.6 176.2 3.6 176.2 2.5 176.5 2.5 176.5 2.1 175.6 2.1 175.6 2.5 175.9 2.5 175.9 3.6 175.5 3.6"/>
    <polygon class="cls-2" points="174.2 3.6 174.2 3.9 175.5 3.9 175.5 3.6 175 3.6 175 2.5 175.3 2.5 175.3 2.1 174.4 2.1 174.4 2.5 174.7 2.5 174.7 3.6 174.2 3.6"/>
    <polygon class="cls-2" points="173 3.6 173 3.9 174.2 3.9 174.2 3.6 173.8 3.6 173.8 2.5 174.1 2.5 174.1 2.1 173.2 2.1 173.2 2.5 173.5 2.5 173.5 3.6 173 3.6"/>
    <polygon class="cls-2" points="171.8 3.6 171.8 3.9 173 3.9 173 3.6 172.6 3.6 172.6 2.5 172.9 2.5 172.9 2.1 172 2.1 172 2.5 172.3 2.5 172.3 3.6 171.8 3.6"/>
    <polygon class="cls-2" points="170.6 3.6 170.6 3.9 171.8 3.9 171.8 3.6 171.4 3.6 171.4 2.5 171.7 2.5 171.7 2.1 170.8 2.1 170.8 2.5 171 2.5 171 3.6 170.6 3.6"/>
    <polygon class="cls-2" points="169.4 3.6 169.4 3.9 170.6 3.9 170.6 3.6 170.2 3.6 170.2 2.5 170.4 2.5 170.4 2.1 169.6 2.1 169.6 2.5 169.8 2.5 169.8 3.6 169.4 3.6"/>
    <polygon class="cls-2" points="168.2 3.6 168.2 3.9 169.4 3.9 169.4 3.6 169 3.6 169 2.5 169.2 2.5 169.2 2.1 168.3 2.1 168.3 2.5 168.6 2.5 168.6 3.6 168.2 3.6"/>
    <polygon class="cls-2" points="167 3.6 167 3.9 168.2 3.9 168.2 3.6 167.7 3.6 167.7 2.5 168 2.5 168 2.1 167.1 2.1 167.1 2.5 167.4 2.5 167.4 3.6 167 3.6"/>
    <polygon class="cls-2" points="165.8 3.6 165.8 3.9 167 3.9 167 3.6 166.5 3.6 166.5 2.5 166.8 2.5 166.8 2.1 165.9 2.1 165.9 2.5 166.2 2.5 166.2 3.6 165.8 3.6"/>
    <polygon class="cls-2" points="164.6 3.6 164.6 3.9 165.8 3.9 165.8 3.6 165.3 3.6 165.3 2.5 165.6 2.5 165.6 2.1 164.7 2.1 164.7 2.5 165 2.5 165 3.6 164.6 3.6"/>
    <polygon class="cls-2" points="163.3 3.6 163.3 3.9 164.6 3.9 164.6 3.6 164.1 3.6 164.1 2.5 164.4 2.5 164.4 2.1 163.5 2.1 163.5 2.5 163.8 2.5 163.8 3.6 163.3 3.6"/>
    <polygon class="cls-2" points="162.1 3.6 162.1 3.9 163.3 3.9 163.3 3.6 162.9 3.6 162.9 2.5 163.2 2.5 163.2 2.1 162.3 2.1 162.3 2.5 162.6 2.5 162.6 3.6 162.1 3.6"/>
    <polygon class="cls-2" points="160.9 3.6 160.9 3.9 162.1 3.9 162.1 3.6 161.7 3.6 161.7 2.5 162 2.5 162 2.1 161.1 2.1 161.1 2.5 161.4 2.5 161.4 3.6 160.9 3.6"/>
    <polygon class="cls-2" points="159.7 3.6 159.7 3.9 160.9 3.9 160.9 3.6 160.5 3.6 160.5 2.5 160.8 2.5 160.8 2.1 159.9 2.1 159.9 2.5 160.1 2.5 160.1 3.6 159.7 3.6"/>
    <polygon class="cls-2" points="158.5 3.6 158.5 3.9 159.7 3.9 159.7 3.6 159.3 3.6 159.3 2.5 159.5 2.5 159.5 2.1 158.7 2.1 158.7 2.5 158.9 2.5 158.9 3.6 158.5 3.6"/>
    <polygon class="cls-2" points="157.3 3.6 157.3 3.9 158.5 3.9 158.5 3.6 158.1 3.6 158.1 2.5 158.3 2.5 158.3 2.1 157.4 2.1 157.4 2.5 157.7 2.5 157.7 3.6 157.3 3.6"/>
    <polygon class="cls-2" points="156.1 3.6 156.1 3.9 157.3 3.9 157.3 3.6 156.8 3.6 156.8 2.5 157.1 2.5 157.1 2.1 156.2 2.1 156.2 2.5 156.5 2.5 156.5 3.6 156.1 3.6"/>
    <polygon class="cls-2" points="154.9 3.6 154.9 3.9 156.1 3.9 156.1 3.6 155.6 3.6 155.6 2.5 155.9 2.5 155.9 2.1 155 2.1 155 2.5 155.3 2.5 155.3 3.6 154.9 3.6"/>
    <polygon class="cls-2" points="153.7 3.6 153.7 3.9 154.9 3.9 154.9 3.6 154.4 3.6 154.4 2.5 154.7 2.5 154.7 2.1 153.8 2.1 153.8 2.5 154.1 2.5 154.1 3.6 153.7 3.6"/>
    <polygon class="cls-2" points="152.4 3.6 152.4 3.9 153.7 3.9 153.7 3.6 153.2 3.6 153.2 2.5 153.5 2.5 153.5 2.1 152.6 2.1 152.6 2.5 152.9 2.5 152.9 3.6 152.4 3.6"/>
    <polygon class="cls-2" points="151.2 3.6 151.2 3.9 152.4 3.9 152.4 3.6 152 3.6 152 2.5 152.3 2.5 152.3 2.1 151.4 2.1 151.4 2.5 151.7 2.5 151.7 3.6 151.2 3.6"/>
    <polygon class="cls-2" points="150 3.6 150 3.9 151.2 3.9 151.2 3.6 150.8 3.6 150.8 2.5 151.1 2.5 151.1 2.1 150.2 2.1 150.2 2.5 150.5 2.5 150.5 3.6 150 3.6"/>
    <polygon class="cls-2" points="148.8 3.6 148.8 3.9 150 3.9 150 3.6 149.6 3.6 149.6 2.5 149.9 2.5 149.9 2.1 149 2.1 149 2.5 149.2 2.5 149.2 3.6 148.8 3.6"/>
    <polygon class="cls-2" points="147.6 3.6 147.6 3.9 148.8 3.9 148.8 3.6 148.4 3.6 148.4 2.5 148.6 2.5 148.6 2.1 147.8 2.1 147.8 2.5 148 2.5 148 3.6 147.6 3.6"/>
    <polygon class="cls-2" points="146.4 3.6 146.4 3.9 147.6 3.9 147.6 3.6 147.2 3.6 147.2 2.5 147.4 2.5 147.4 2.1 146.5 2.1 146.5 2.5 146.8 2.5 146.8 3.6 146.4 3.6"/>
    <polygon class="cls-2" points="145.2 3.6 145.2 3.9 146.4 3.9 146.4 3.6 145.9 3.6 145.9 2.5 146.2 2.5 146.2 2.1 145.3 2.1 145.3 2.5 145.6 2.5 145.6 3.6 145.2 3.6"/>
    <polygon class="cls-2" points="144 3.6 144 3.9 145.2 3.9 145.2 3.6 144.7 3.6 144.7 2.5 145 2.5 145 2.1 144.1 2.1 144.1 2.5 144.4 2.5 144.4 3.6 144 3.6"/>
    <polygon class="cls-2" points="142.7 3.6 142.7 3.9 144 3.9 144 3.6 143.5 3.6 143.5 2.5 143.8 2.5 143.8 2.1 142.9 2.1 142.9 2.5 143.2 2.5 143.2 3.6 142.7 3.6"/>
    <polygon class="cls-2" points="141.5 3.6 141.5 3.9 142.7 3.9 142.7 3.6 142.3 3.6 142.3 2.5 142.6 2.5 142.6 2.1 141.7 2.1 141.7 2.5 142 2.5 142 3.6 141.5 3.6"/>
    <polygon class="cls-2" points="140.3 3.6 140.3 3.9 141.5 3.9 141.5 3.6 141.1 3.6 141.1 2.5 141.4 2.5 141.4 2.1 140.5 2.1 140.5 2.5 140.8 2.5 140.8 3.6 140.3 3.6"/>
    <polygon class="cls-2" points="139.1 3.6 139.1 3.9 140.3 3.9 140.3 3.6 139.9 3.6 139.9 2.5 140.2 2.5 140.2 2.1 139.3 2.1 139.3 2.5 139.6 2.5 139.6 3.6 139.1 3.6"/>
    <polygon class="cls-2" points="137.9 3.6 137.9 3.9 139.1 3.9 139.1 3.6 138.7 3.6 138.7 2.5 138.9 2.5 138.9 2.1 138.1 2.1 138.1 2.5 138.3 2.5 138.3 3.6 137.9 3.6"/>
    <polygon class="cls-2" points="136.7 3.6 136.7 3.9 137.9 3.9 137.9 3.6 137.5 3.6 137.5 2.5 137.7 2.5 137.7 2.1 136.9 2.1 136.9 2.5 137.1 2.5 137.1 3.6 136.7 3.6"/>
    <polygon class="cls-2" points="135.5 3.6 135.5 3.9 136.7 3.9 136.7 3.6 136.2 3.6 136.2 2.5 136.5 2.5 136.5 2.1 135.6 2.1 135.6 2.5 135.9 2.5 135.9 3.6 135.5 3.6"/>
    <polygon class="cls-2" points="134.3 3.6 134.3 3.9 135.5 3.9 135.5 3.6 135 3.6 135 2.5 135.3 2.5 135.3 2.1 134.4 2.1 134.4 2.5 134.7 2.5 134.7 3.6 134.3 3.6"/>
    <polygon class="cls-2" points="133.1 3.6 133.1 3.9 134.3 3.9 134.3 3.6 133.8 3.6 133.8 2.5 134.1 2.5 134.1 2.1 133.2 2.1 133.2 2.5 133.5 2.5 133.5 3.6 133.1 3.6"/>
    <polygon class="cls-2" points="131.8 3.6 131.8 3.9 133.1 3.9 133.1 3.6 132.6 3.6 132.6 2.5 132.9 2.5 132.9 2.1 132 2.1 132 2.5 132.3 2.5 132.3 3.6 131.8 3.6"/>
    <polygon class="cls-2" points="130.6 3.6 130.6 3.9 131.8 3.9 131.8 3.6 131.4 3.6 131.4 2.5 131.7 2.5 131.7 2.1 130.8 2.1 130.8 2.5 131.1 2.5 131.1 3.6 130.6 3.6"/>
    <polygon class="cls-2" points="129.4 3.6 129.4 3.9 130.6 3.9 130.6 3.6 130.2 3.6 130.2 2.5 130.5 2.5 130.5 2.1 129.6 2.1 129.6 2.5 129.9 2.5 129.9 3.6 129.4 3.6"/>
    <polygon class="cls-2" points="128.2 3.6 128.2 3.9 129.4 3.9 129.4 3.6 129 3.6 129 2.5 129.3 2.5 129.3 2.1 128.4 2.1 128.4 2.5 128.6 2.5 128.6 3.6 128.2 3.6"/>
    <polygon class="cls-2" points="127 3.6 127 3.9 128.2 3.9 128.2 3.6 127.8 3.6 127.8 2.5 128 2.5 128 2.1 127.2 2.1 127.2 2.5 127.4 2.5 127.4 3.6 127 3.6"/>
    <polygon class="cls-2" points="125.8 3.6 125.8 3.9 127 3.9 127 3.6 126.6 3.6 126.6 2.5 126.8 2.5 126.8 2.1 125.9 2.1 125.9 2.5 126.2 2.5 126.2 3.6 125.8 3.6"/>
    <polygon class="cls-2" points="124.6 3.6 124.6 3.9 125.8 3.9 125.8 3.6 125.3 3.6 125.3 2.5 125.6 2.5 125.6 2.1 124.7 2.1 124.7 2.5 125 2.5 125 3.6 124.6 3.6"/>
    <polygon class="cls-2" points="123.4 3.6 123.4 3.9 124.6 3.9 124.6 3.6 124.1 3.6 124.1 2.5 124.4 2.5 124.4 2.1 123.5 2.1 123.5 2.5 123.8 2.5 123.8 3.6 123.4 3.6"/>
    <polygon class="cls-2" points="122.2 3.6 122.2 3.9 123.4 3.9 123.4 3.6 122.9 3.6 122.9 2.5 123.2 2.5 123.2 2.1 122.3 2.1 122.3 2.5 122.6 2.5 122.6 3.6 122.2 3.6"/>
    <polygon class="cls-2" points="120.9 3.6 120.9 3.9 122.2 3.9 122.2 3.6 121.7 3.6 121.7 2.5 122 2.5 122 2.1 121.1 2.1 121.1 2.5 121.4 2.5 121.4 3.6 120.9 3.6"/>
    <polygon class="cls-2" points="119.7 3.6 119.7 3.9 120.9 3.9 120.9 3.6 120.5 3.6 120.5 2.5 120.8 2.5 120.8 2.1 119.9 2.1 119.9 2.5 120.2 2.5 120.2 3.6 119.7 3.6"/>
    <polygon class="cls-2" points="118.5 3.6 118.5 3.9 119.7 3.9 119.7 3.6 119.3 3.6 119.3 2.5 119.6 2.5 119.6 2.1 118.7 2.1 118.7 2.5 119 2.5 119 3.6 118.5 3.6"/>
    <polygon class="cls-2" points="117.3 3.6 117.3 3.9 118.5 3.9 118.5 3.6 118.1 3.6 118.1 2.5 118.4 2.5 118.4 2.1 117.5 2.1 117.5 2.5 117.7 2.5 117.7 3.6 117.3 3.6"/>
    <polygon class="cls-2" points="116.1 3.6 116.1 3.9 117.3 3.9 117.3 3.6 116.9 3.6 116.9 2.5 117.1 2.5 117.1 2.1 116.3 2.1 116.3 2.5 116.5 2.5 116.5 3.6 116.1 3.6"/>
    <polygon class="cls-2" points="114.9 3.6 114.9 3.9 116.1 3.9 116.1 3.6 115.7 3.6 115.7 2.5 115.9 2.5 115.9 2.1 115 2.1 115 2.5 115.3 2.5 115.3 3.6 114.9 3.6"/>
    <polygon class="cls-2" points="113.7 3.6 113.7 3.9 114.9 3.9 114.9 3.6 114.4 3.6 114.4 2.5 114.7 2.5 114.7 2.1 113.8 2.1 113.8 2.5 114.1 2.5 114.1 3.6 113.7 3.6"/>
    <polygon class="cls-2" points="112.5 3.6 112.5 3.9 113.7 3.9 113.7 3.6 113.2 3.6 113.2 2.5 113.5 2.5 113.5 2.1 112.6 2.1 112.6 2.5 112.9 2.5 112.9 3.6 112.5 3.6"/>
    <polygon class="cls-2" points="111.2 3.6 111.2 3.9 112.5 3.9 112.5 3.6 112 3.6 112 2.5 112.3 2.5 112.3 2.1 111.4 2.1 111.4 2.5 111.7 2.5 111.7 3.6 111.2 3.6"/>
    <polygon class="cls-2" points="110 3.6 110 3.9 111.2 3.9 111.2 3.6 110.8 3.6 110.8 2.5 111.1 2.5 111.1 2.1 110.2 2.1 110.2 2.5 110.5 2.5 110.5 3.6 110 3.6"/>
    <polygon class="cls-2" points="108.8 3.6 108.8 3.9 110 3.9 110 3.6 109.6 3.6 109.6 2.5 109.9 2.5 109.9 2.1 109 2.1 109 2.5 109.3 2.5 109.3 3.6 108.8 3.6"/>
    <polygon class="cls-2" points="107.6 3.6 107.6 3.9 108.8 3.9 108.8 3.6 108.4 3.6 108.4 2.5 108.7 2.5 108.7 2.1 107.8 2.1 107.8 2.5 108.1 2.5 108.1 3.6 107.6 3.6"/>
    <polygon class="cls-2" points="106.4 3.6 106.4 3.9 107.6 3.9 107.6 3.6 107.2 3.6 107.2 2.5 107.4 2.5 107.4 2.1 106.6 2.1 106.6 2.5 106.8 2.5 106.8 3.6 106.4 3.6"/>
    <polygon class="cls-2" points="105.2 3.6 105.2 3.9 106.4 3.9 106.4 3.6 106 3.6 106 2.5 106.2 2.5 106.2 2.1 105.4 2.1 105.4 2.5 105.6 2.5 105.6 3.6 105.2 3.6"/>
    <polygon class="cls-2" points="104 3.6 104 3.9 105.2 3.9 105.2 3.6 104.7 3.6 104.7 2.5 105 2.5 105 2.1 104.1 2.1 104.1 2.5 104.4 2.5 104.4 3.6 104 3.6"/>
    <polygon class="cls-2" points="102.8 3.6 102.8 3.9 104 3.9 104 3.6 103.5 3.6 103.5 2.5 103.8 2.5 103.8 2.1 102.9 2.1 102.9 2.5 103.2 2.5 103.2 3.6 102.8 3.6"/>
    <polygon class="cls-2" points="101.6 3.6 101.6 3.9 102.8 3.9 102.8 3.6 102.3 3.6 102.3 2.5 102.6 2.5 102.6 2.1 101.7 2.1 101.7 2.5 102 2.5 102 3.6 101.6 3.6"/>
    <polygon class="cls-2" points="100.3 3.6 100.3 3.9 101.6 3.9 101.6 3.6 101.1 3.6 101.1 2.5 101.4 2.5 101.4 2.1 100.5 2.1 100.5 2.5 100.8 2.5 100.8 3.6 100.3 3.6"/>
    <polygon class="cls-2" points="99.1 3.6 99.1 3.9 100.3 3.9 100.3 3.6 99.9 3.6 99.9 2.5 100.2 2.5 100.2 2.1 99.3 2.1 99.3 2.5 99.6 2.5 99.6 3.6 99.1 3.6"/>
    <polygon class="cls-2" points="97.9 3.6 97.9 3.9 99.1 3.9 99.1 3.6 98.7 3.6 98.7 2.5 99 2.5 99 2.1 98.1 2.1 98.1 2.5 98.4 2.5 98.4 3.6 97.9 3.6"/>
    <polygon class="cls-2" points="96.7 3.6 96.7 3.9 97.9 3.9 97.9 3.6 97.5 3.6 97.5 2.5 97.8 2.5 97.8 2.1 96.9 2.1 96.9 2.5 97.1 2.5 97.1 3.6 96.7 3.6"/>
    <polygon class="cls-2" points="95.5 3.6 95.5 3.9 96.7 3.9 96.7 3.6 96.3 3.6 96.3 2.5 96.5 2.5 96.5 2.1 95.7 2.1 95.7 2.5 95.9 2.5 95.9 3.6 95.5 3.6"/>
    <polygon class="cls-2" points="94.3 3.6 94.3 3.9 95.5 3.9 95.5 3.6 95.1 3.6 95.1 2.5 95.3 2.5 95.3 2.1 94.4 2.1 94.4 2.5 94.7 2.5 94.7 3.6 94.3 3.6"/>
    <polygon class="cls-2" points="93.1 3.6 93.1 3.9 94.3 3.9 94.3 3.6 93.8 3.6 93.8 2.5 94.1 2.5 94.1 2.1 93.2 2.1 93.2 2.5 93.5 2.5 93.5 3.6 93.1 3.6"/>
    <polygon class="cls-2" points="91.9 3.6 91.9 3.9 93.1 3.9 93.1 3.6 92.6 3.6 92.6 2.5 92.9 2.5 92.9 2.1 92 2.1 92 2.5 92.3 2.5 92.3 3.6 91.9 3.6"/>
    <polygon class="cls-2" points="90.7 3.6 90.7 3.9 91.9 3.9 91.9 3.6 91.4 3.6 91.4 2.5 91.7 2.5 91.7 2.1 90.8 2.1 90.8 2.5 91.1 2.5 91.1 3.6 90.7 3.6"/>
    <polygon class="cls-2" points="89.4 3.6 89.4 3.9 90.7 3.9 90.7 3.6 90.2 3.6 90.2 2.5 90.5 2.5 90.5 2.1 89.6 2.1 89.6 2.5 89.9 2.5 89.9 3.6 89.4 3.6"/>
    <polygon class="cls-2" points="88.2 3.6 88.2 3.9 89.4 3.9 89.4 3.6 89 3.6 89 2.5 89.3 2.5 89.3 2.1 88.4 2.1 88.4 2.5 88.7 2.5 88.7 3.6 88.2 3.6"/>
    <polygon class="cls-2" points="87 3.6 87 3.9 88.2 3.9 88.2 3.6 87.8 3.6 87.8 2.5 88.1 2.5 88.1 2.1 87.2 2.1 87.2 2.5 87.5 2.5 87.5 3.6 87 3.6"/>
    <polygon class="cls-2" points="85.8 3.6 85.8 3.9 87 3.9 87 3.6 86.6 3.6 86.6 2.5 86.9 2.5 86.9 2.1 86 2.1 86 2.5 86.2 2.5 86.2 3.6 85.8 3.6"/>
    <polygon class="cls-2" points="84.6 3.6 84.6 3.9 85.8 3.9 85.8 3.6 85.4 3.6 85.4 2.5 85.6 2.5 85.6 2.1 84.8 2.1 84.8 2.5 85 2.5 85 3.6 84.6 3.6"/>
    <polygon class="cls-2" points="83.4 3.6 83.4 3.9 84.6 3.9 84.6 3.6 84.2 3.6 84.2 2.5 84.4 2.5 84.4 2.1 83.5 2.1 83.5 2.5 83.8 2.5 83.8 3.6 83.4 3.6"/>
    <polygon class="cls-2" points="82.2 3.6 82.2 3.9 83.4 3.9 83.4 3.6 82.9 3.6 82.9 2.5 83.2 2.5 83.2 2.1 82.3 2.1 82.3 2.5 82.6 2.5 82.6 3.6 82.2 3.6"/>
    <polygon class="cls-2" points="81 3.6 81 3.9 82.2 3.9 82.2 3.6 81.7 3.6 81.7 2.5 82 2.5 82 2.1 81.1 2.1 81.1 2.5 81.4 2.5 81.4 3.6 81 3.6"/>
    <polygon class="cls-2" points="79.8 3.6 79.8 3.9 81 3.9 81 3.6 80.5 3.6 80.5 2.5 80.8 2.5 80.8 2.1 79.9 2.1 79.9 2.5 80.2 2.5 80.2 3.6 79.8 3.6"/>
    <polygon class="cls-2" points="78.5 3.6 78.5 3.9 79.8 3.9 79.8 3.6 79.3 3.6 79.3 2.5 79.6 2.5 79.6 2.1 78.7 2.1 78.7 2.5 79 2.5 79 3.6 78.5 3.6"/>
    <polygon class="cls-2" points="77.3 3.6 77.3 3.9 78.5 3.9 78.5 3.6 78.1 3.6 78.1 2.5 78.4 2.5 78.4 2.1 77.5 2.1 77.5 2.5 77.8 2.5 77.8 3.6 77.3 3.6"/>
    <polygon class="cls-2" points="76.1 3.6 76.1 3.9 77.3 3.9 77.3 3.6 76.9 3.6 76.9 2.5 77.2 2.5 77.2 2.1 76.3 2.1 76.3 2.5 76.6 2.5 76.6 3.6 76.1 3.6"/>
    <polygon class="cls-2" points="74.9 3.6 74.9 3.9 76.1 3.9 76.1 3.6 75.7 3.6 75.7 2.5 76 2.5 76 2.1 75.1 2.1 75.1 2.5 75.3 2.5 75.3 3.6 74.9 3.6"/>
    <polygon class="cls-2" points="73.7 3.6 73.7 3.9 74.9 3.9 74.9 3.6 74.5 3.6 74.5 2.5 74.7 2.5 74.7 2.1 73.9 2.1 73.9 2.5 74.1 2.5 74.1 3.6 73.7 3.6"/>
    <polygon class="cls-2" points="72.5 3.6 72.5 3.9 73.7 3.9 73.7 3.6 73.3 3.6 73.3 2.5 73.5 2.5 73.5 2.1 72.6 2.1 72.6 2.5 72.9 2.5 72.9 3.6 72.5 3.6"/>
    <polygon class="cls-2" points="71.3 3.6 71.3 3.9 72.5 3.9 72.5 3.6 72 3.6 72 2.5 72.3 2.5 72.3 2.1 71.4 2.1 71.4 2.5 71.7 2.5 71.7 3.6 71.3 3.6"/>
    <polygon class="cls-2" points="70.1 3.6 70.1 3.9 71.3 3.9 71.3 3.6 70.8 3.6 70.8 2.5 71.1 2.5 71.1 2.1 70.2 2.1 70.2 2.5 70.5 2.5 70.5 3.6 70.1 3.6"/>
    <polygon class="cls-2" points="68.8 3.6 68.8 3.9 70.1 3.9 70.1 3.6 69.6 3.6 69.6 2.5 69.9 2.5 69.9 2.1 69 2.1 69 2.5 69.3 2.5 69.3 3.6 68.8 3.6"/>
    <polygon class="cls-2" points="67.6 3.6 67.6 3.9 68.8 3.9 68.8 3.6 68.4 3.6 68.4 2.5 68.7 2.5 68.7 2.1 67.8 2.1 67.8 2.5 68.1 2.5 68.1 3.6 67.6 3.6"/>
    <polygon class="cls-2" points="66.4 3.6 66.4 3.9 67.6 3.9 67.6 3.6 67.2 3.6 67.2 2.5 67.5 2.5 67.5 2.1 66.6 2.1 66.6 2.5 66.9 2.5 66.9 3.6 66.4 3.6"/>
    <polygon class="cls-2" points="65.2 3.6 65.2 3.9 66.4 3.9 66.4 3.6 66 3.6 66 2.5 66.3 2.5 66.3 2.1 65.4 2.1 65.4 2.5 65.7 2.5 65.7 3.6 65.2 3.6"/>
    <polygon class="cls-2" points="64 3.6 64 3.9 65.2 3.9 65.2 3.6 64.8 3.6 64.8 2.5 65 2.5 65 2.1 64.2 2.1 64.2 2.5 64.4 2.5 64.4 3.6 64 3.6"/>
    <polygon class="cls-2" points="62.8 3.6 62.8 3.9 64 3.9 64 3.6 63.6 3.6 63.6 2.5 63.8 2.5 63.8 2.1 63 2.1 63 2.5 63.2 2.5 63.2 3.6 62.8 3.6"/>
    <polygon class="cls-2" points="61.6 3.6 61.6 3.9 62.8 3.9 62.8 3.6 62.3 3.6 62.3 2.5 62.6 2.5 62.6 2.1 61.7 2.1 61.7 2.5 62 2.5 62 3.6 61.6 3.6"/>
    <polygon class="cls-2" points="60.4 3.6 60.4 3.9 61.6 3.9 61.6 3.6 61.1 3.6 61.1 2.5 61.4 2.5 61.4 2.1 60.5 2.1 60.5 2.5 60.8 2.5 60.8 3.6 60.4 3.6"/>
    <polygon class="cls-2" points="59.2 3.6 59.2 3.9 60.4 3.9 60.4 3.6 59.9 3.6 59.9 2.5 60.2 2.5 60.2 2.1 59.3 2.1 59.3 2.5 59.6 2.5 59.6 3.6 59.2 3.6"/>
    <polygon class="cls-2" points="57.9 3.6 57.9 3.9 59.2 3.9 59.2 3.6 58.7 3.6 58.7 2.5 59 2.5 59 2.1 58.1 2.1 58.1 2.5 58.4 2.5 58.4 3.6 57.9 3.6"/>
    <polygon class="cls-2" points="56.7 3.6 56.7 3.9 57.9 3.9 57.9 3.6 57.5 3.6 57.5 2.5 57.8 2.5 57.8 2.1 56.9 2.1 56.9 2.5 57.2 2.5 57.2 3.6 56.7 3.6"/>
    <polygon class="cls-2" points="55.5 3.6 55.5 3.9 56.7 3.9 56.7 3.6 56.3 3.6 56.3 2.5 56.6 2.5 56.6 2.1 55.7 2.1 55.7 2.5 56 2.5 56 3.6 55.5 3.6"/>
    <polygon class="cls-2" points="54.3 3.6 54.3 3.9 55.5 3.9 55.5 3.6 55.1 3.6 55.1 2.5 55.4 2.5 55.4 2.1 54.5 2.1 54.5 2.5 54.7 2.5 54.7 3.6 54.3 3.6"/>
    <polygon class="cls-2" points="53.1 3.6 53.1 3.9 54.3 3.9 54.3 3.6 53.9 3.6 53.9 2.5 54.1 2.5 54.1 2.1 53.3 2.1 53.3 2.5 53.5 2.5 53.5 3.6 53.1 3.6"/>
    <polygon class="cls-2" points="51.9 3.6 51.9 3.9 53.1 3.9 53.1 3.6 52.7 3.6 52.7 2.5 52.9 2.5 52.9 2.1 52 2.1 52 2.5 52.3 2.5 52.3 3.6 51.9 3.6"/>
    <polygon class="cls-2" points="50.7 3.6 50.7 3.9 51.9 3.9 51.9 3.6 51.4 3.6 51.4 2.5 51.7 2.5 51.7 2.1 50.8 2.1 50.8 2.5 51.1 2.5 51.1 3.6 50.7 3.6"/>
    <polygon class="cls-2" points="49.5 3.6 49.5 3.9 50.7 3.9 50.7 3.6 50.2 3.6 50.2 2.5 50.5 2.5 50.5 2.1 49.6 2.1 49.6 2.5 49.9 2.5 49.9 3.6 49.5 3.6"/>
    <polygon class="cls-2" points="48.3 3.6 48.3 3.9 49.5 3.9 49.5 3.6 49 3.6 49 2.5 49.3 2.5 49.3 2.1 48.4 2.1 48.4 2.5 48.7 2.5 48.7 3.6 48.3 3.6"/>
    <polygon class="cls-2" points="47 3.6 47 3.9 48.3 3.9 48.3 3.6 47.8 3.6 47.8 2.5 48.1 2.5 48.1 2.1 47.2 2.1 47.2 2.5 47.5 2.5 47.5 3.6 47 3.6"/>
    <polygon class="cls-2" points="45.8 3.6 45.8 3.9 47 3.9 47 3.6 46.6 3.6 46.6 2.5 46.9 2.5 46.9 2.1 46 2.1 46 2.5 46.3 2.5 46.3 3.6 45.8 3.6"/>
    <polygon class="cls-2" points="44.6 3.6 44.6 3.9 45.8 3.9 45.8 3.6 45.4 3.6 45.4 2.5 45.7 2.5 45.7 2.1 44.8 2.1 44.8 2.5 45.1 2.5 45.1 3.6 44.6 3.6"/>
    <polygon class="cls-2" points="43.4 3.6 43.4 3.9 44.6 3.9 44.6 3.6 44.2 3.6 44.2 2.5 44.5 2.5 44.5 2.1 43.6 2.1 43.6 2.5 43.8 2.5 43.8 3.6 43.4 3.6"/>
    <polygon class="cls-2" points="42.2 3.6 42.2 3.9 43.4 3.9 43.4 3.6 43 3.6 43 2.5 43.2 2.5 43.2 2.1 42.4 2.1 42.4 2.5 42.6 2.5 42.6 3.6 42.2 3.6"/>
    <polygon class="cls-2" points="41 3.6 41 3.9 42.2 3.9 42.2 3.6 41.8 3.6 41.8 2.5 42 2.5 42 2.1 41.1 2.1 41.1 2.5 41.4 2.5 41.4 3.6 41 3.6"/>
    <polygon class="cls-2" points="39.8 3.6 39.8 3.9 41 3.9 41 3.6 40.5 3.6 40.5 2.5 40.8 2.5 40.8 2.1 39.9 2.1 39.9 2.5 40.2 2.5 40.2 3.6 39.8 3.6"/>
    <polygon class="cls-2" points="38.6 3.6 38.6 3.9 39.8 3.9 39.8 3.6 39.3 3.6 39.3 2.5 39.6 2.5 39.6 2.1 38.7 2.1 38.7 2.5 39 2.5 39 3.6 38.6 3.6"/>
    <polygon class="cls-2" points="37.3 3.6 37.3 3.9 38.6 3.9 38.6 3.6 38.1 3.6 38.1 2.5 38.4 2.5 38.4 2.1 37.5 2.1 37.5 2.5 37.8 2.5 37.8 3.6 37.3 3.6"/>
    <polygon class="cls-2" points="36.1 3.6 36.1 3.9 37.3 3.9 37.3 3.6 36.9 3.6 36.9 2.5 37.2 2.5 37.2 2.1 36.3 2.1 36.3 2.5 36.6 2.5 36.6 3.6 36.1 3.6"/>
    <polygon class="cls-2" points="34.9 3.6 34.9 3.9 36.1 3.9 36.1 3.6 35.7 3.6 35.7 2.5 36 2.5 36 2.1 35.1 2.1 35.1 2.5 35.4 2.5 35.4 3.6 34.9 3.6"/>
    <polygon class="cls-2" points="33.7 3.6 33.7 3.9 34.9 3.9 34.9 3.6 34.5 3.6 34.5 2.5 34.8 2.5 34.8 2.1 33.9 2.1 33.9 2.5 34.2 2.5 34.2 3.6 33.7 3.6"/>
    <polygon class="cls-2" points="32.5 3.6 32.5 3.9 33.7 3.9 33.7 3.6 33.3 3.6 33.3 2.5 33.5 2.5 33.5 2.1 32.7 2.1 32.7 2.5 32.9 2.5 32.9 3.6 32.5 3.6"/>
    <polygon class="cls-2" points="31.3 3.6 31.3 3.9 32.5 3.9 32.5 3.6 32.1 3.6 32.1 2.5 32.3 2.5 32.3 2.1 31.5 2.1 31.5 2.5 31.7 2.5 31.7 3.6 31.3 3.6"/>
    <polygon class="cls-2" points="30.1 3.6 30.1 3.9 31.3 3.9 31.3 3.6 30.8 3.6 30.8 2.5 31.1 2.5 31.1 2.1 30.2 2.1 30.2 2.5 30.5 2.5 30.5 3.6 30.1 3.6"/>
    <polygon class="cls-2" points="28.9 3.6 28.9 3.9 30.1 3.9 30.1 3.6 29.6 3.6 29.6 2.5 29.9 2.5 29.9 2.1 29 2.1 29 2.5 29.3 2.5 29.3 3.6 28.9 3.6"/>
    <polygon class="cls-2" points="27.7 3.6 27.7 3.9 28.9 3.9 28.9 3.6 28.4 3.6 28.4 2.5 28.7 2.5 28.7 2.1 27.8 2.1 27.8 2.5 28.1 2.5 28.1 3.6 27.7 3.6"/>
    <polygon class="cls-2" points="26.4 3.6 26.4 3.9 27.7 3.9 27.7 3.6 27.2 3.6 27.2 2.5 27.5 2.5 27.5 2.1 26.6 2.1 26.6 2.5 26.9 2.5 26.9 3.6 26.4 3.6"/>
    <polygon class="cls-2" points="25.2 3.6 25.2 3.9 26.4 3.9 26.4 3.6 26 3.6 26 2.5 26.3 2.5 26.3 2.1 25.4 2.1 25.4 2.5 25.7 2.5 25.7 3.6 25.2 3.6"/>
    <polygon class="cls-2" points="24 3.6 24 3.9 25.2 3.9 25.2 3.6 24.8 3.6 24.8 2.5 25.1 2.5 25.1 2.1 24.2 2.1 24.2 2.5 24.5 2.5 24.5 3.6 24 3.6"/>
    <polygon class="cls-2" points="22.8 3.6 22.8 3.9 24 3.9 24 3.6 23.6 3.6 23.6 2.5 23.9 2.5 23.9 2.1 23 2.1 23 2.5 23.2 2.5 23.2 3.6 22.8 3.6"/>
    <polygon class="cls-2" points="21.6 3.6 21.6 3.9 22.8 3.9 22.8 3.6 22.4 3.6 22.4 2.5 22.6 2.5 22.6 2.1 21.8 2.1 21.8 2.5 22 2.5 22 3.6 21.6 3.6"/>
    <polygon class="cls-2" points="20.4 3.6 20.4 3.9 21.6 3.9 21.6 3.6 21.2 3.6 21.2 2.5 21.4 2.5 21.4 2.1 20.5 2.1 20.5 2.5 20.8 2.5 20.8 3.6 20.4 3.6"/>
    <polygon class="cls-2" points="19.2 3.6 19.2 3.9 20.4 3.9 20.4 3.6 19.9 3.6 19.9 2.5 20.2 2.5 20.2 2.1 19.3 2.1 19.3 2.5 19.6 2.5 19.6 3.6 19.2 3.6"/>
    <polygon class="cls-2" points="18 3.6 18 3.9 19.2 3.9 19.2 3.6 18.7 3.6 18.7 2.5 19 2.5 19 2.1 18.1 2.1 18.1 2.5 18.4 2.5 18.4 3.6 18 3.6"/>
    <polygon class="cls-2" points="16.8 3.6 16.8 3.9 18 3.9 18 3.6 17.5 3.6 17.5 2.5 17.8 2.5 17.8 2.1 16.9 2.1 16.9 2.5 17.2 2.5 17.2 3.6 16.8 3.6"/>
    <polygon class="cls-2" points="15.5 3.6 15.5 3.9 16.8 3.9 16.8 3.6 16.3 3.6 16.3 2.5 16.6 2.5 16.6 2.1 15.7 2.1 15.7 2.5 16 2.5 16 3.6 15.5 3.6"/>
    <polygon class="cls-2" points="14.3 3.6 14.3 3.9 15.5 3.9 15.5 3.6 15.1 3.6 15.1 2.5 15.4 2.5 15.4 2.1 14.5 2.1 14.5 2.5 14.8 2.5 14.8 3.6 14.3 3.6"/>
    <polygon class="cls-2" points="13.1 3.6 13.1 3.9 14.3 3.9 14.3 3.6 13.9 3.6 13.9 2.5 14.2 2.5 14.2 2.1 13.3 2.1 13.3 2.5 13.6 2.5 13.6 3.6 13.1 3.6"/>
    <polygon class="cls-2" points="11.9 3.6 11.9 3.9 13.1 3.9 13.1 3.6 12.7 3.6 12.7 2.5 13 2.5 13 2.1 12.1 2.1 12.1 2.5 12.3 2.5 12.3 3.6 11.9 3.6"/>
    <polygon class="cls-2" points="10.7 3.6 10.7 3.9 11.9 3.9 11.9 3.6 11.5 3.6 11.5 2.5 11.7 2.5 11.7 2.1 10.9 2.1 10.9 2.5 11.1 2.5 11.1 3.6 10.7 3.6"/>
    <polygon class="cls-2" points="9.5 3.6 9.5 3.9 10.7 3.9 10.7 3.6 10.3 3.6 10.3 2.5 10.5 2.5 10.5 2.1 9.6 2.1 9.6 2.5 9.9 2.5 9.9 3.6 9.5 3.6"/>
    <polygon class="cls-2" points="8.3 3.6 8.3 3.9 9.5 3.9 9.5 3.6 9 3.6 9 2.5 9.3 2.5 9.3 2.1 8.4 2.1 8.4 2.5 8.7 2.5 8.7 3.6 8.3 3.6"/>
    <polygon class="cls-2" points="7.1 3.6 7.1 3.9 8.3 3.9 8.3 3.6 7.8 3.6 7.8 2.5 8.1 2.5 8.1 2.1 7.2 2.1 7.2 2.5 7.5 2.5 7.5 3.6 7.1 3.6"/>
    <polygon class="cls-2" points="5.9 3.6 5.9 3.9 7.1 3.9 7.1 3.6 6.6 3.6 6.6 2.5 6.9 2.5 6.9 2.1 6 2.1 6 2.5 6.3 2.5 6.3 3.6 5.9 3.6"/>
    <polygon class="cls-2" points="4.6 3.6 4.6 3.9 5.9 3.9 5.9 3.6 5.4 3.6 5.4 2.5 5.7 2.5 5.7 2.1 4.8 2.1 4.8 2.5 5.1 2.5 5.1 3.6 4.6 3.6"/>
    <polygon class="cls-2" points="3.4 3.6 3.4 3.9 4.6 3.9 4.6 3.6 4.2 3.6 4.2 2.5 4.5 2.5 4.5 2.1 3.6 2.1 3.6 2.5 3.9 2.5 3.9 3.6 3.4 3.6"/>
    <polygon class="cls-2" points="3.1 5.1 3.4 5.1 3.4 3.9 3.1 3.9 3.1 4.4 2 4.4 2 4.1 1.7 4.1 1.7 5 2 5 2 4.7 3.1 4.7 3.1 5.1"/>
    <polygon class="cls-2" points="3.1 6.4 3.4 6.4 3.4 5.1 3.1 5.1 3.1 5.6 2 5.6 2 5.3 1.7 5.3 1.7 6.2 2 6.2 2 5.9 3.1 5.9 3.1 6.4"/>
    <polygon class="cls-2" points="3.1 7.6 3.4 7.6 3.4 6.4 3.1 6.4 3.1 6.8 2 6.8 2 6.5 1.7 6.5 1.7 7.5 2 7.5 2 7.2 3.1 7.2 3.1 7.6"/>
    <polygon class="cls-2" points="3.1 8.9 3.4 8.9 3.4 7.6 3.1 7.6 3.1 8.1 2 8.1 2 7.8 1.7 7.8 1.7 8.7 2 8.7 2 8.4 3.1 8.4 3.1 8.9"/>
    <polygon class="cls-2" points="3.1 10.1 3.4 10.1 3.4 8.9 3.1 8.9 3.1 9.3 2 9.3 2 9 1.7 9 1.7 9.9 2 9.9 2 9.6 3.1 9.6 3.1 10.1"/>
    <polygon class="cls-2" points="3.1 11.3 3.4 11.3 3.4 10.1 3.1 10.1 3.1 10.5 2 10.5 2 10.3 1.7 10.3 1.7 11.2 2 11.2 2 10.9 3.1 10.9 3.1 11.3"/>
    <polygon class="cls-2" points="3.1 12.6 3.4 12.6 3.4 11.3 3.1 11.3 3.1 11.8 2 11.8 2 11.5 1.7 11.5 1.7 12.4 2 12.4 2 12.1 3.1 12.1 3.1 12.6"/>
    <polygon class="cls-2" points="3.1 13.8 3.4 13.8 3.4 12.6 3.1 12.6 3.1 13 2 13 2 12.7 1.7 12.7 1.7 13.6 2 13.6 2 13.4 3.1 13.4 3.1 13.8"/>
    <polygon class="cls-2" points="3.1 15 3.4 15 3.4 13.8 3.1 13.8 3.1 14.2 2 14.2 2 14 1.7 14 1.7 14.9 2 14.9 2 14.6 3.1 14.6 3.1 15"/>
    <polygon class="cls-2" points="3.1 16.3 3.4 16.3 3.4 15 3.1 15 3.1 15.5 2 15.5 2 15.2 1.7 15.2 1.7 16.1 2 16.1 2 15.8 3.1 15.8 3.1 16.3"/>
    <g class="cls-7">
      <polygon class="cls-2" points="224.4 16.6 224.4 16.3 218.5 16.3 218.5 16.6 220.7 16.6 220.7 17.7 219.3 17.7 219.3 18 223.6 18 223.6 17.7 222.3 17.7 222.3 16.6 224.4 16.6"/>
    </g>
    <g class="cls-5">
      <polygon class="cls-2" points="218.7 16 218.5 16.3 223.4 19.5 223.6 19.2 221.8 18.1 222.4 17.1 223.6 17.9 223.7 17.6 220.1 15.2 219.9 15.5 221.1 16.2 220.5 17.2 218.7 16"/>
    </g>
    <g class="cls-4">
      <polygon class="cls-2" points="1.7 3.6 1.7 3.9 3.4 3.9 3.4 3.6 2.8 3.6 2.8 2.5 3.2 2.5 3.2 2.1 1.9 2.1 1.9 2.5 2.3 2.5 2.3 3.6 1.7 3.6"/>
    </g>
    <g class="cls-8">
      <polygon class="cls-2" points="3.1 3.9 3.4 3.9 3.4 2.1 3.1 2.1 3.1 2.8 2 2.8 2 2.4 1.7 2.4 1.7 3.7 2 3.7 2 3.3 3.1 3.3 3.1 3.9"/>
    </g>
    <g class="cls-6">
      <polygon class="cls-2" points="3.1 18 3.4 18 3.4 16.3 3.1 16.3 3.1 16.9 2 16.9 2 16.5 1.7 16.5 1.7 17.8 2 17.8 2 17.4 3.1 17.4 3.1 18"/>
    </g>
    <g class="cls-9">
      <polygon class="cls-2" points="3.4 16.6 3.4 16.3 1.7 16.3 1.7 16.6 2.3 16.6 2.3 17.7 1.9 17.7 1.9 18 3.2 18 3.2 17.7 2.8 17.7 2.8 16.6 3.4 16.6"/>
    </g>
  </g>
</svg>