<?xml version="1.0" encoding="UTF-8"?>
<svg id="Layer_1" data-name="Layer 1" xmlns="http://www.w3.org/2000/svg" version="1.1" xmlns:xlink="http://www.w3.org/1999/xlink" viewBox="0 0 362.8 22.4">
  <defs>
    <style>
      .cls-1 {
        clip-path: url(#clippath-2);
      }

      .cls-2 {
        clip-path: url(#clippath-6);
      }

      .cls-3 {
        fill: none;
      }

      .cls-3, .cls-4 {
        stroke-width: 0px;
      }

      .cls-5 {
        clip-path: url(#clippath-7);
      }

      .cls-6 {
        clip-path: url(#clippath-1);
      }

      .cls-7 {
        clip-path: url(#clippath-4);
      }

      .cls-4 {
        fill: #fed700;
      }

      .cls-8 {
        clip-path: url(#clippath);
      }

      .cls-9 {
        clip-path: url(#clippath-3);
      }

      .cls-10 {
        clip-path: url(#clippath-5);
      }
    </style>
    <clipPath id="clippath">
      <polygon class="cls-3" points="3.7 3.5 1.5 1.3 1.5 3.5 3.7 3.5"/>
    </clipPath>
    <clipPath id="clippath-1">
      <polygon class="cls-3" points="3.7 3.5 1.5 1.3 3.7 1.3 3.7 3.5"/>
    </clipPath>
    <clipPath id="clippath-2">
      <polygon class="cls-3" points="359.2 3.5 361.4 1.3 359.2 1.3 359.2 3.5"/>
    </clipPath>
    <clipPath id="clippath-3">
      <polygon class="cls-3" points="359.2 3.5 361.4 1.3 361.4 3.5 359.2 3.5"/>
    </clipPath>
    <clipPath id="clippath-4">
      <polygon class="cls-3" points="359.2 19.1 361.4 21.2 361.4 19.1 359.2 19.1"/>
    </clipPath>
    <clipPath id="clippath-5">
      <polygon class="cls-3" points="359.2 19.1 361.4 21.2 359.2 21.2 359.2 19.1"/>
    </clipPath>
    <clipPath id="clippath-6">
      <polygon class="cls-3" points="3.7 19.1 1.5 21.2 3.7 21.2 3.7 19.1"/>
    </clipPath>
    <clipPath id="clippath-7">
      <polygon class="cls-3" points="3.7 19.1 1.5 21.2 1.5 19.1 3.7 19.1"/>
    </clipPath>
  </defs>
  <rect class="cls-4" x="2.6" y="2.4" width="357.7" height="17.8"/>
  <g>
    <polygon class="cls-4" points="3.2 17.3 3.7 17.3 3.7 19.1 3.2 19.1 3.2 18.4 2 18.4 2 18.8 1.5 18.8 1.5 17.6 2 17.6 2 18 3.2 18 3.2 17.3"/>
    <polygon class="cls-4" points="3.2 15.6 3.7 15.6 3.7 17.3 3.2 17.3 3.2 16.7 2 16.7 2 17.1 1.5 17.1 1.5 15.8 2 15.8 2 16.2 3.2 16.2 3.2 15.6"/>
    <polygon class="cls-4" points="3.2 13.9 3.7 13.9 3.7 15.6 3.2 15.6 3.2 15 2 15 2 15.4 1.5 15.4 1.5 14.1 2 14.1 2 14.5 3.2 14.5 3.2 13.9"/>
    <polygon class="cls-4" points="3.2 12.1 3.7 12.1 3.7 13.9 3.2 13.9 3.2 13.2 2 13.2 2 13.6 1.5 13.6 1.5 12.4 2 12.4 2 12.8 3.2 12.8 3.2 12.1"/>
    <polygon class="cls-4" points="3.2 10.4 3.7 10.4 3.7 12.1 3.2 12.1 3.2 11.5 2 11.5 2 11.9 1.5 11.9 1.5 10.6 2 10.6 2 11 3.2 11 3.2 10.4"/>
    <polygon class="cls-4" points="3.2 8.7 3.7 8.7 3.7 10.4 3.2 10.4 3.2 9.8 2 9.8 2 10.2 1.5 10.2 1.5 8.9 2 8.9 2 9.3 3.2 9.3 3.2 8.7"/>
    <polygon class="cls-4" points="3.2 6.9 3.7 6.9 3.7 8.7 3.2 8.7 3.2 8 2 8 2 8.4 1.5 8.4 1.5 7.2 2 7.2 2 7.6 3.2 7.6 3.2 6.9"/>
    <polygon class="cls-4" points="3.2 5.2 3.7 5.2 3.7 6.9 3.2 6.9 3.2 6.3 2 6.3 2 6.7 1.5 6.7 1.5 5.4 2 5.4 2 5.8 3.2 5.8 3.2 5.2"/>
    <polygon class="cls-4" points="3.2 3.5 3.7 3.5 3.7 5.2 3.2 5.2 3.2 4.6 2 4.6 2 5 1.5 5 1.5 3.7 2 3.7 2 4.1 3.2 4.1 3.2 3.5"/>
    <polygon class="cls-4" points="5.4 3 5.4 3.5 3.7 3.5 3.7 3 4.3 3 4.3 1.8 3.9 1.8 3.9 1.3 5.2 1.3 5.2 1.8 4.8 1.8 4.8 3 5.4 3"/>
    <polygon class="cls-4" points="7.2 3 7.2 3.5 5.4 3.5 5.4 3 6.1 3 6.1 1.8 5.7 1.8 5.7 1.3 6.9 1.3 6.9 1.8 6.6 1.8 6.6 3 7.2 3"/>
    <polygon class="cls-4" points="8.9 3 8.9 3.5 7.2 3.5 7.2 3 7.8 3 7.8 1.8 7.4 1.8 7.4 1.3 8.7 1.3 8.7 1.8 8.3 1.8 8.3 3 8.9 3"/>
    <polygon class="cls-4" points="10.6 3 10.6 3.5 8.9 3.5 8.9 3 9.5 3 9.5 1.8 9.1 1.8 9.1 1.3 10.4 1.3 10.4 1.8 10 1.8 10 3 10.6 3"/>
    <polygon class="cls-4" points="12.4 3 12.4 3.5 10.6 3.5 10.6 3 11.3 3 11.3 1.8 10.9 1.8 10.9 1.3 12.2 1.3 12.2 1.8 11.8 1.8 11.8 3 12.4 3"/>
    <polygon class="cls-4" points="14.1 3 14.1 3.5 12.4 3.5 12.4 3 13 3 13 1.8 12.6 1.8 12.6 1.3 13.9 1.3 13.9 1.8 13.5 1.8 13.5 3 14.1 3"/>
    <polygon class="cls-4" points="15.9 3 15.9 3.5 14.1 3.5 14.1 3 14.7 3 14.7 1.8 14.4 1.8 14.4 1.3 15.6 1.3 15.6 1.8 15.2 1.8 15.2 3 15.9 3"/>
    <polygon class="cls-4" points="17.6 3 17.6 3.5 15.9 3.5 15.9 3 16.5 3 16.5 1.8 16.1 1.8 16.1 1.3 17.4 1.3 17.4 1.8 17 1.8 17 3 17.6 3"/>
    <polygon class="cls-4" points="19.3 3 19.3 3.5 17.6 3.5 17.6 3 18.2 3 18.2 1.8 17.8 1.8 17.8 1.3 19.1 1.3 19.1 1.8 18.7 1.8 18.7 3 19.3 3"/>
    <polygon class="cls-4" points="21.1 3 21.1 3.5 19.3 3.5 19.3 3 20 3 20 1.8 19.6 1.8 19.6 1.3 20.8 1.3 20.8 1.8 20.4 1.8 20.4 3 21.1 3"/>
    <polygon class="cls-4" points="22.8 3 22.8 3.5 21.1 3.5 21.1 3 21.7 3 21.7 1.8 21.3 1.8 21.3 1.3 22.6 1.3 22.6 1.8 22.2 1.8 22.2 3 22.8 3"/>
    <polygon class="cls-4" points="24.5 3 24.5 3.5 22.8 3.5 22.8 3 23.4 3 23.4 1.8 23 1.8 23 1.3 24.3 1.3 24.3 1.8 23.9 1.8 23.9 3 24.5 3"/>
    <polygon class="cls-4" points="26.3 3 26.3 3.5 24.5 3.5 24.5 3 25.2 3 25.2 1.8 24.8 1.8 24.8 1.3 26 1.3 26 1.8 25.6 1.8 25.6 3 26.3 3"/>
    <polygon class="cls-4" points="28 3 28 3.5 26.3 3.5 26.3 3 26.9 3 26.9 1.8 26.5 1.8 26.5 1.3 27.8 1.3 27.8 1.8 27.4 1.8 27.4 3 28 3"/>
    <polygon class="cls-4" points="29.7 3 29.7 3.5 28 3.5 28 3 28.6 3 28.6 1.8 28.2 1.8 28.2 1.3 29.5 1.3 29.5 1.8 29.1 1.8 29.1 3 29.7 3"/>
    <polygon class="cls-4" points="31.5 3 31.5 3.5 29.7 3.5 29.7 3 30.4 3 30.4 1.8 30 1.8 30 1.3 31.2 1.3 31.2 1.8 30.8 1.8 30.8 3 31.5 3"/>
    <polygon class="cls-4" points="33.2 3 33.2 3.5 31.5 3.5 31.5 3 32.1 3 32.1 1.8 31.7 1.8 31.7 1.3 33 1.3 33 1.8 32.6 1.8 32.6 3 33.2 3"/>
    <polygon class="cls-4" points="34.9 3 34.9 3.5 33.2 3.5 33.2 3 33.8 3 33.8 1.8 33.4 1.8 33.4 1.3 34.7 1.3 34.7 1.8 34.3 1.8 34.3 3 34.9 3"/>
    <polygon class="cls-4" points="36.7 3 36.7 3.5 34.9 3.5 34.9 3 35.6 3 35.6 1.8 35.2 1.8 35.2 1.3 36.4 1.3 36.4 1.8 36 1.8 36 3 36.7 3"/>
    <polygon class="cls-4" points="38.4 3 38.4 3.5 36.7 3.5 36.7 3 37.3 3 37.3 1.8 36.9 1.8 36.9 1.3 38.2 1.3 38.2 1.8 37.8 1.8 37.8 3 38.4 3"/>
    <polygon class="cls-4" points="40.1 3 40.1 3.5 38.4 3.5 38.4 3 39 3 39 1.8 38.6 1.8 38.6 1.3 39.9 1.3 39.9 1.8 39.5 1.8 39.5 3 40.1 3"/>
    <polygon class="cls-4" points="41.9 3 41.9 3.5 40.1 3.5 40.1 3 40.8 3 40.8 1.8 40.4 1.8 40.4 1.3 41.6 1.3 41.6 1.8 41.2 1.8 41.2 3 41.9 3"/>
    <polygon class="cls-4" points="43.6 3 43.6 3.5 41.9 3.5 41.9 3 42.5 3 42.5 1.8 42.1 1.8 42.1 1.3 43.4 1.3 43.4 1.8 43 1.8 43 3 43.6 3"/>
    <polygon class="cls-4" points="45.3 3 45.3 3.5 43.6 3.5 43.6 3 44.2 3 44.2 1.8 43.8 1.8 43.8 1.3 45.1 1.3 45.1 1.8 44.7 1.8 44.7 3 45.3 3"/>
    <polygon class="cls-4" points="47.1 3 47.1 3.5 45.3 3.5 45.3 3 46 3 46 1.8 45.6 1.8 45.6 1.3 46.8 1.3 46.8 1.8 46.4 1.8 46.4 3 47.1 3"/>
    <polygon class="cls-4" points="48.8 3 48.8 3.5 47.1 3.5 47.1 3 47.7 3 47.7 1.8 47.3 1.8 47.3 1.3 48.6 1.3 48.6 1.8 48.2 1.8 48.2 3 48.8 3"/>
    <polygon class="cls-4" points="50.5 3 50.5 3.5 48.8 3.5 48.8 3 49.4 3 49.4 1.8 49 1.8 49 1.3 50.3 1.3 50.3 1.8 49.9 1.8 49.9 3 50.5 3"/>
    <polygon class="cls-4" points="52.3 3 52.3 3.5 50.5 3.5 50.5 3 51.2 3 51.2 1.8 50.8 1.8 50.8 1.3 52 1.3 52 1.8 51.6 1.8 51.6 3 52.3 3"/>
    <polygon class="cls-4" points="54 3 54 3.5 52.3 3.5 52.3 3 52.9 3 52.9 1.8 52.5 1.8 52.5 1.3 53.8 1.3 53.8 1.8 53.4 1.8 53.4 3 54 3"/>
    <polygon class="cls-4" points="55.7 3 55.7 3.5 54 3.5 54 3 54.6 3 54.6 1.8 54.2 1.8 54.2 1.3 55.5 1.3 55.5 1.8 55.1 1.8 55.1 3 55.7 3"/>
    <polygon class="cls-4" points="57.5 3 57.5 3.5 55.7 3.5 55.7 3 56.4 3 56.4 1.8 56 1.8 56 1.3 57.2 1.3 57.2 1.8 56.8 1.8 56.8 3 57.5 3"/>
    <polygon class="cls-4" points="59.2 3 59.2 3.5 57.5 3.5 57.5 3 58.1 3 58.1 1.8 57.7 1.8 57.7 1.3 59 1.3 59 1.8 58.6 1.8 58.6 3 59.2 3"/>
    <polygon class="cls-4" points="60.9 3 60.9 3.5 59.2 3.5 59.2 3 59.8 3 59.8 1.8 59.4 1.8 59.4 1.3 60.7 1.3 60.7 1.8 60.3 1.8 60.3 3 60.9 3"/>
    <polygon class="cls-4" points="62.7 3 62.7 3.5 60.9 3.5 60.9 3 61.6 3 61.6 1.8 61.2 1.8 61.2 1.3 62.4 1.3 62.4 1.8 62 1.8 62 3 62.7 3"/>
    <polygon class="cls-4" points="64.4 3 64.4 3.5 62.7 3.5 62.7 3 63.3 3 63.3 1.8 62.9 1.8 62.9 1.3 64.2 1.3 64.2 1.8 63.8 1.8 63.8 3 64.4 3"/>
    <polygon class="cls-4" points="66.1 3 66.1 3.5 64.4 3.5 64.4 3 65 3 65 1.8 64.6 1.8 64.6 1.3 65.9 1.3 65.9 1.8 65.5 1.8 65.5 3 66.1 3"/>
    <polygon class="cls-4" points="67.9 3 67.9 3.5 66.1 3.5 66.1 3 66.8 3 66.8 1.8 66.4 1.8 66.4 1.3 67.6 1.3 67.6 1.8 67.2 1.8 67.2 3 67.9 3"/>
    <polygon class="cls-4" points="69.6 3 69.6 3.5 67.9 3.5 67.9 3 68.5 3 68.5 1.8 68.1 1.8 68.1 1.3 69.4 1.3 69.4 1.8 69 1.8 69 3 69.6 3"/>
    <polygon class="cls-4" points="71.3 3 71.3 3.5 69.6 3.5 69.6 3 70.2 3 70.2 1.8 69.8 1.8 69.8 1.3 71.1 1.3 71.1 1.8 70.7 1.8 70.7 3 71.3 3"/>
    <polygon class="cls-4" points="73.1 3 73.1 3.5 71.3 3.5 71.3 3 72 3 72 1.8 71.6 1.8 71.6 1.3 72.8 1.3 72.8 1.8 72.5 1.8 72.5 3 73.1 3"/>
    <polygon class="cls-4" points="74.8 3 74.8 3.5 73.1 3.5 73.1 3 73.7 3 73.7 1.8 73.3 1.8 73.3 1.3 74.6 1.3 74.6 1.8 74.2 1.8 74.2 3 74.8 3"/>
    <polygon class="cls-4" points="76.5 3 76.5 3.5 74.8 3.5 74.8 3 75.4 3 75.4 1.8 75 1.8 75 1.3 76.3 1.3 76.3 1.8 75.9 1.8 75.9 3 76.5 3"/>
    <polygon class="cls-4" points="78.3 3 78.3 3.5 76.5 3.5 76.5 3 77.2 3 77.2 1.8 76.8 1.8 76.8 1.3 78.1 1.3 78.1 1.8 77.7 1.8 77.7 3 78.3 3"/>
    <polygon class="cls-4" points="80 3 80 3.5 78.3 3.5 78.3 3 78.9 3 78.9 1.8 78.5 1.8 78.5 1.3 79.8 1.3 79.8 1.8 79.4 1.8 79.4 3 80 3"/>
    <polygon class="cls-4" points="81.8 3 81.8 3.5 80 3.5 80 3 80.6 3 80.6 1.8 80.3 1.8 80.3 1.3 81.5 1.3 81.5 1.8 81.1 1.8 81.1 3 81.8 3"/>
    <polygon class="cls-4" points="83.5 3 83.5 3.5 81.8 3.5 81.8 3 82.4 3 82.4 1.8 82 1.8 82 1.3 83.3 1.3 83.3 1.8 82.9 1.8 82.9 3 83.5 3"/>
    <polygon class="cls-4" points="85.2 3 85.2 3.5 83.5 3.5 83.5 3 84.1 3 84.1 1.8 83.7 1.8 83.7 1.3 85 1.3 85 1.8 84.6 1.8 84.6 3 85.2 3"/>
    <polygon class="cls-4" points="87 3 87 3.5 85.2 3.5 85.2 3 85.9 3 85.9 1.8 85.5 1.8 85.5 1.3 86.7 1.3 86.7 1.8 86.3 1.8 86.3 3 87 3"/>
    <polygon class="cls-4" points="88.7 3 88.7 3.5 87 3.5 87 3 87.6 3 87.6 1.8 87.2 1.8 87.2 1.3 88.5 1.3 88.5 1.8 88.1 1.8 88.1 3 88.7 3"/>
    <polygon class="cls-4" points="90.4 3 90.4 3.5 88.7 3.5 88.7 3 89.3 3 89.3 1.8 88.9 1.8 88.9 1.3 90.2 1.3 90.2 1.8 89.8 1.8 89.8 3 90.4 3"/>
    <polygon class="cls-4" points="92.2 3 92.2 3.5 90.4 3.5 90.4 3 91.1 3 91.1 1.8 90.7 1.8 90.7 1.3 91.9 1.3 91.9 1.8 91.5 1.8 91.5 3 92.2 3"/>
    <polygon class="cls-4" points="93.9 3 93.9 3.5 92.2 3.5 92.2 3 92.8 3 92.8 1.8 92.4 1.8 92.4 1.3 93.7 1.3 93.7 1.8 93.3 1.8 93.3 3 93.9 3"/>
    <polygon class="cls-4" points="95.6 3 95.6 3.5 93.9 3.5 93.9 3 94.5 3 94.5 1.8 94.1 1.8 94.1 1.3 95.4 1.3 95.4 1.8 95 1.8 95 3 95.6 3"/>
    <polygon class="cls-4" points="97.4 3 97.4 3.5 95.6 3.5 95.6 3 96.3 3 96.3 1.8 95.9 1.8 95.9 1.3 97.1 1.3 97.1 1.8 96.7 1.8 96.7 3 97.4 3"/>
    <polygon class="cls-4" points="99.1 3 99.1 3.5 97.4 3.5 97.4 3 98 3 98 1.8 97.6 1.8 97.6 1.3 98.9 1.3 98.9 1.8 98.5 1.8 98.5 3 99.1 3"/>
    <polygon class="cls-4" points="100.8 3 100.8 3.5 99.1 3.5 99.1 3 99.7 3 99.7 1.8 99.3 1.8 99.3 1.3 100.6 1.3 100.6 1.8 100.2 1.8 100.2 3 100.8 3"/>
    <polygon class="cls-4" points="102.6 3 102.6 3.5 100.8 3.5 100.8 3 101.5 3 101.5 1.8 101.1 1.8 101.1 1.3 102.3 1.3 102.3 1.8 101.9 1.8 101.9 3 102.6 3"/>
    <polygon class="cls-4" points="104.3 3 104.3 3.5 102.6 3.5 102.6 3 103.2 3 103.2 1.8 102.8 1.8 102.8 1.3 104.1 1.3 104.1 1.8 103.7 1.8 103.7 3 104.3 3"/>
    <polygon class="cls-4" points="106 3 106 3.5 104.3 3.5 104.3 3 104.9 3 104.9 1.8 104.5 1.8 104.5 1.3 105.8 1.3 105.8 1.8 105.4 1.8 105.4 3 106 3"/>
    <polygon class="cls-4" points="107.8 3 107.8 3.5 106 3.5 106 3 106.7 3 106.7 1.8 106.3 1.8 106.3 1.3 107.5 1.3 107.5 1.8 107.1 1.8 107.1 3 107.8 3"/>
    <polygon class="cls-4" points="109.5 3 109.5 3.5 107.8 3.5 107.8 3 108.4 3 108.4 1.8 108 1.8 108 1.3 109.3 1.3 109.3 1.8 108.9 1.8 108.9 3 109.5 3"/>
    <polygon class="cls-4" points="111.2 3 111.2 3.5 109.5 3.5 109.5 3 110.1 3 110.1 1.8 109.7 1.8 109.7 1.3 111 1.3 111 1.8 110.6 1.8 110.6 3 111.2 3"/>
    <polygon class="cls-4" points="113 3 113 3.5 111.2 3.5 111.2 3 111.9 3 111.9 1.8 111.5 1.8 111.5 1.3 112.7 1.3 112.7 1.8 112.3 1.8 112.3 3 113 3"/>
    <polygon class="cls-4" points="114.7 3 114.7 3.5 113 3.5 113 3 113.6 3 113.6 1.8 113.2 1.8 113.2 1.3 114.5 1.3 114.5 1.8 114.1 1.8 114.1 3 114.7 3"/>
    <polygon class="cls-4" points="116.4 3 116.4 3.5 114.7 3.5 114.7 3 115.3 3 115.3 1.8 114.9 1.8 114.9 1.3 116.2 1.3 116.2 1.8 115.8 1.8 115.8 3 116.4 3"/>
    <polygon class="cls-4" points="118.2 3 118.2 3.5 116.4 3.5 116.4 3 117.1 3 117.1 1.8 116.7 1.8 116.7 1.3 117.9 1.3 117.9 1.8 117.5 1.8 117.5 3 118.2 3"/>
    <polygon class="cls-4" points="119.9 3 119.9 3.5 118.2 3.5 118.2 3 118.8 3 118.8 1.8 118.4 1.8 118.4 1.3 119.7 1.3 119.7 1.8 119.3 1.8 119.3 3 119.9 3"/>
    <polygon class="cls-4" points="121.6 3 121.6 3.5 119.9 3.5 119.9 3 120.5 3 120.5 1.8 120.1 1.8 120.1 1.3 121.4 1.3 121.4 1.8 121 1.8 121 3 121.6 3"/>
    <polygon class="cls-4" points="123.4 3 123.4 3.5 121.6 3.5 121.6 3 122.3 3 122.3 1.8 121.9 1.8 121.9 1.3 123.1 1.3 123.1 1.8 122.7 1.8 122.7 3 123.4 3"/>
    <polygon class="cls-4" points="125.1 3 125.1 3.5 123.4 3.5 123.4 3 124 3 124 1.8 123.6 1.8 123.6 1.3 124.9 1.3 124.9 1.8 124.5 1.8 124.5 3 125.1 3"/>
    <polygon class="cls-4" points="126.8 3 126.8 3.5 125.1 3.5 125.1 3 125.7 3 125.7 1.8 125.3 1.8 125.3 1.3 126.6 1.3 126.6 1.8 126.2 1.8 126.2 3 126.8 3"/>
    <polygon class="cls-4" points="128.6 3 128.6 3.5 126.8 3.5 126.8 3 127.5 3 127.5 1.8 127.1 1.8 127.1 1.3 128.3 1.3 128.3 1.8 127.9 1.8 127.9 3 128.6 3"/>
    <polygon class="cls-4" points="130.3 3 130.3 3.5 128.6 3.5 128.6 3 129.2 3 129.2 1.8 128.8 1.8 128.8 1.3 130.1 1.3 130.1 1.8 129.7 1.8 129.7 3 130.3 3"/>
    <polygon class="cls-4" points="132 3 132 3.5 130.3 3.5 130.3 3 130.9 3 130.9 1.8 130.5 1.8 130.5 1.3 131.8 1.3 131.8 1.8 131.4 1.8 131.4 3 132 3"/>
    <polygon class="cls-4" points="133.8 3 133.8 3.5 132 3.5 132 3 132.7 3 132.7 1.8 132.3 1.8 132.3 1.3 133.5 1.3 133.5 1.8 133.1 1.8 133.1 3 133.8 3"/>
    <polygon class="cls-4" points="135.5 3 135.5 3.5 133.8 3.5 133.8 3 134.4 3 134.4 1.8 134 1.8 134 1.3 135.3 1.3 135.3 1.8 134.9 1.8 134.9 3 135.5 3"/>
    <polygon class="cls-4" points="137.2 3 137.2 3.5 135.5 3.5 135.5 3 136.1 3 136.1 1.8 135.7 1.8 135.7 1.3 137 1.3 137 1.8 136.6 1.8 136.6 3 137.2 3"/>
    <polygon class="cls-4" points="139 3 139 3.5 137.2 3.5 137.2 3 137.9 3 137.9 1.8 137.5 1.8 137.5 1.3 138.7 1.3 138.7 1.8 138.4 1.8 138.4 3 139 3"/>
    <polygon class="cls-4" points="140.7 3 140.7 3.5 139 3.5 139 3 139.6 3 139.6 1.8 139.2 1.8 139.2 1.3 140.5 1.3 140.5 1.8 140.1 1.8 140.1 3 140.7 3"/>
    <polygon class="cls-4" points="142.4 3 142.4 3.5 140.7 3.5 140.7 3 141.3 3 141.3 1.8 140.9 1.8 140.9 1.3 142.2 1.3 142.2 1.8 141.8 1.8 141.8 3 142.4 3"/>
    <polygon class="cls-4" points="144.2 3 144.2 3.5 142.4 3.5 142.4 3 143.1 3 143.1 1.8 142.7 1.8 142.7 1.3 144 1.3 144 1.8 143.6 1.8 143.6 3 144.2 3"/>
    <polygon class="cls-4" points="145.9 3 145.9 3.5 144.2 3.5 144.2 3 144.8 3 144.8 1.8 144.4 1.8 144.4 1.3 145.7 1.3 145.7 1.8 145.3 1.8 145.3 3 145.9 3"/>
    <polygon class="cls-4" points="147.7 3 147.7 3.5 145.9 3.5 145.9 3 146.5 3 146.5 1.8 146.2 1.8 146.2 1.3 147.4 1.3 147.4 1.8 147 1.8 147 3 147.7 3"/>
    <polygon class="cls-4" points="149.4 3 149.4 3.5 147.7 3.5 147.7 3 148.3 3 148.3 1.8 147.9 1.8 147.9 1.3 149.2 1.3 149.2 1.8 148.8 1.8 148.8 3 149.4 3"/>
    <polygon class="cls-4" points="151.1 3 151.1 3.5 149.4 3.5 149.4 3 150 3 150 1.8 149.6 1.8 149.6 1.3 150.9 1.3 150.9 1.8 150.5 1.8 150.5 3 151.1 3"/>
    <polygon class="cls-4" points="152.9 3 152.9 3.5 151.1 3.5 151.1 3 151.8 3 151.8 1.8 151.4 1.8 151.4 1.3 152.6 1.3 152.6 1.8 152.2 1.8 152.2 3 152.9 3"/>
    <polygon class="cls-4" points="154.6 3 154.6 3.5 152.9 3.5 152.9 3 153.5 3 153.5 1.8 153.1 1.8 153.1 1.3 154.4 1.3 154.4 1.8 154 1.8 154 3 154.6 3"/>
    <polygon class="cls-4" points="156.3 3 156.3 3.5 154.6 3.5 154.6 3 155.2 3 155.2 1.8 154.8 1.8 154.8 1.3 156.1 1.3 156.1 1.8 155.7 1.8 155.7 3 156.3 3"/>
    <polygon class="cls-4" points="158.1 3 158.1 3.5 156.3 3.5 156.3 3 157 3 157 1.8 156.6 1.8 156.6 1.3 157.8 1.3 157.8 1.8 157.4 1.8 157.4 3 158.1 3"/>
    <polygon class="cls-4" points="159.8 3 159.8 3.5 158.1 3.5 158.1 3 158.7 3 158.7 1.8 158.3 1.8 158.3 1.3 159.6 1.3 159.6 1.8 159.2 1.8 159.2 3 159.8 3"/>
    <polygon class="cls-4" points="161.5 3 161.5 3.5 159.8 3.5 159.8 3 160.4 3 160.4 1.8 160 1.8 160 1.3 161.3 1.3 161.3 1.8 160.9 1.8 160.9 3 161.5 3"/>
    <polygon class="cls-4" points="163.3 3 163.3 3.5 161.5 3.5 161.5 3 162.2 3 162.2 1.8 161.8 1.8 161.8 1.3 163 1.3 163 1.8 162.6 1.8 162.6 3 163.3 3"/>
    <polygon class="cls-4" points="165 3 165 3.5 163.3 3.5 163.3 3 163.9 3 163.9 1.8 163.5 1.8 163.5 1.3 164.8 1.3 164.8 1.8 164.4 1.8 164.4 3 165 3"/>
    <polygon class="cls-4" points="166.7 3 166.7 3.5 165 3.5 165 3 165.6 3 165.6 1.8 165.2 1.8 165.2 1.3 166.5 1.3 166.5 1.8 166.1 1.8 166.1 3 166.7 3"/>
    <polygon class="cls-4" points="168.5 3 168.5 3.5 166.7 3.5 166.7 3 167.4 3 167.4 1.8 167 1.8 167 1.3 168.2 1.3 168.2 1.8 167.8 1.8 167.8 3 168.5 3"/>
    <polygon class="cls-4" points="170.2 3 170.2 3.5 168.5 3.5 168.5 3 169.1 3 169.1 1.8 168.7 1.8 168.7 1.3 170 1.3 170 1.8 169.6 1.8 169.6 3 170.2 3"/>
    <polygon class="cls-4" points="171.9 3 171.9 3.5 170.2 3.5 170.2 3 170.8 3 170.8 1.8 170.4 1.8 170.4 1.3 171.7 1.3 171.7 1.8 171.3 1.8 171.3 3 171.9 3"/>
    <polygon class="cls-4" points="173.7 3 173.7 3.5 171.9 3.5 171.9 3 172.6 3 172.6 1.8 172.2 1.8 172.2 1.3 173.4 1.3 173.4 1.8 173 1.8 173 3 173.7 3"/>
    <polygon class="cls-4" points="175.4 3 175.4 3.5 173.7 3.5 173.7 3 174.3 3 174.3 1.8 173.9 1.8 173.9 1.3 175.2 1.3 175.2 1.8 174.8 1.8 174.8 3 175.4 3"/>
    <polygon class="cls-4" points="177.1 3 177.1 3.5 175.4 3.5 175.4 3 176 3 176 1.8 175.6 1.8 175.6 1.3 176.9 1.3 176.9 1.8 176.5 1.8 176.5 3 177.1 3"/>
    <polygon class="cls-4" points="178.9 3 178.9 3.5 177.1 3.5 177.1 3 177.8 3 177.8 1.8 177.4 1.8 177.4 1.3 178.6 1.3 178.6 1.8 178.2 1.8 178.2 3 178.9 3"/>
    <polygon class="cls-4" points="180.6 3 180.6 3.5 178.9 3.5 178.9 3 179.5 3 179.5 1.8 179.1 1.8 179.1 1.3 180.4 1.3 180.4 1.8 180 1.8 180 3 180.6 3"/>
    <polygon class="cls-4" points="182.3 3 182.3 3.5 180.6 3.5 180.6 3 181.2 3 181.2 1.8 180.8 1.8 180.8 1.3 182.1 1.3 182.1 1.8 181.7 1.8 181.7 3 182.3 3"/>
    <polygon class="cls-4" points="184.1 3 184.1 3.5 182.3 3.5 182.3 3 183 3 183 1.8 182.6 1.8 182.6 1.3 183.8 1.3 183.8 1.8 183.4 1.8 183.4 3 184.1 3"/>
    <polygon class="cls-4" points="185.8 3 185.8 3.5 184.1 3.5 184.1 3 184.7 3 184.7 1.8 184.3 1.8 184.3 1.3 185.6 1.3 185.6 1.8 185.2 1.8 185.2 3 185.8 3"/>
    <polygon class="cls-4" points="187.5 3 187.5 3.5 185.8 3.5 185.8 3 186.4 3 186.4 1.8 186 1.8 186 1.3 187.3 1.3 187.3 1.8 186.9 1.8 186.9 3 187.5 3"/>
    <polygon class="cls-4" points="189.3 3 189.3 3.5 187.5 3.5 187.5 3 188.2 3 188.2 1.8 187.8 1.8 187.8 1.3 189 1.3 189 1.8 188.6 1.8 188.6 3 189.3 3"/>
    <polygon class="cls-4" points="191 3 191 3.5 189.3 3.5 189.3 3 189.9 3 189.9 1.8 189.5 1.8 189.5 1.3 190.8 1.3 190.8 1.8 190.4 1.8 190.4 3 191 3"/>
    <polygon class="cls-4" points="192.7 3 192.7 3.5 191 3.5 191 3 191.6 3 191.6 1.8 191.2 1.8 191.2 1.3 192.5 1.3 192.5 1.8 192.1 1.8 192.1 3 192.7 3"/>
    <polygon class="cls-4" points="194.5 3 194.5 3.5 192.7 3.5 192.7 3 193.4 3 193.4 1.8 193 1.8 193 1.3 194.2 1.3 194.2 1.8 193.8 1.8 193.8 3 194.5 3"/>
    <polygon class="cls-4" points="196.2 3 196.2 3.5 194.5 3.5 194.5 3 195.1 3 195.1 1.8 194.7 1.8 194.7 1.3 196 1.3 196 1.8 195.6 1.8 195.6 3 196.2 3"/>
    <polygon class="cls-4" points="197.9 3 197.9 3.5 196.2 3.5 196.2 3 196.8 3 196.8 1.8 196.4 1.8 196.4 1.3 197.7 1.3 197.7 1.8 197.3 1.8 197.3 3 197.9 3"/>
    <polygon class="cls-4" points="199.7 3 199.7 3.5 197.9 3.5 197.9 3 198.6 3 198.6 1.8 198.2 1.8 198.2 1.3 199.4 1.3 199.4 1.8 199 1.8 199 3 199.7 3"/>
    <polygon class="cls-4" points="201.4 3 201.4 3.5 199.7 3.5 199.7 3 200.3 3 200.3 1.8 199.9 1.8 199.9 1.3 201.2 1.3 201.2 1.8 200.8 1.8 200.8 3 201.4 3"/>
    <polygon class="cls-4" points="203.1 3 203.1 3.5 201.4 3.5 201.4 3 202 3 202 1.8 201.6 1.8 201.6 1.3 202.9 1.3 202.9 1.8 202.5 1.8 202.5 3 203.1 3"/>
    <polygon class="cls-4" points="204.9 3 204.9 3.5 203.1 3.5 203.1 3 203.8 3 203.8 1.8 203.4 1.8 203.4 1.3 204.6 1.3 204.6 1.8 204.3 1.8 204.3 3 204.9 3"/>
    <polygon class="cls-4" points="206.6 3 206.6 3.5 204.9 3.5 204.9 3 205.5 3 205.5 1.8 205.1 1.8 205.1 1.3 206.4 1.3 206.4 1.8 206 1.8 206 3 206.6 3"/>
    <polygon class="cls-4" points="208.3 3 208.3 3.5 206.6 3.5 206.6 3 207.2 3 207.2 1.8 206.8 1.8 206.8 1.3 208.1 1.3 208.1 1.8 207.7 1.8 207.7 3 208.3 3"/>
    <polygon class="cls-4" points="210.1 3 210.1 3.5 208.3 3.5 208.3 3 209 3 209 1.8 208.6 1.8 208.6 1.3 209.9 1.3 209.9 1.8 209.5 1.8 209.5 3 210.1 3"/>
    <polygon class="cls-4" points="211.8 3 211.8 3.5 210.1 3.5 210.1 3 210.7 3 210.7 1.8 210.3 1.8 210.3 1.3 211.6 1.3 211.6 1.8 211.2 1.8 211.2 3 211.8 3"/>
    <polygon class="cls-4" points="213.5 3 213.5 3.5 211.8 3.5 211.8 3 212.4 3 212.4 1.8 212.1 1.8 212.1 1.3 213.3 1.3 213.3 1.8 212.9 1.8 212.9 3 213.5 3"/>
    <polygon class="cls-4" points="215.3 3 215.3 3.5 213.5 3.5 213.5 3 214.2 3 214.2 1.8 213.8 1.8 213.8 1.3 215.1 1.3 215.1 1.8 214.7 1.8 214.7 3 215.3 3"/>
    <polygon class="cls-4" points="217 3 217 3.5 215.3 3.5 215.3 3 215.9 3 215.9 1.8 215.5 1.8 215.5 1.3 216.8 1.3 216.8 1.8 216.4 1.8 216.4 3 217 3"/>
    <polygon class="cls-4" points="218.8 3 218.8 3.5 217 3.5 217 3 217.7 3 217.7 1.8 217.3 1.8 217.3 1.3 218.5 1.3 218.5 1.8 218.1 1.8 218.1 3 218.8 3"/>
    <polygon class="cls-4" points="220.5 3 220.5 3.5 218.8 3.5 218.8 3 219.4 3 219.4 1.8 219 1.8 219 1.3 220.3 1.3 220.3 1.8 219.9 1.8 219.9 3 220.5 3"/>
    <polygon class="cls-4" points="222.2 3 222.2 3.5 220.5 3.5 220.5 3 221.1 3 221.1 1.8 220.7 1.8 220.7 1.3 222 1.3 222 1.8 221.6 1.8 221.6 3 222.2 3"/>
    <polygon class="cls-4" points="224 3 224 3.5 222.2 3.5 222.2 3 222.9 3 222.9 1.8 222.5 1.8 222.5 1.3 223.7 1.3 223.7 1.8 223.3 1.8 223.3 3 224 3"/>
    <polygon class="cls-4" points="225.7 3 225.7 3.5 224 3.5 224 3 224.6 3 224.6 1.8 224.2 1.8 224.2 1.3 225.5 1.3 225.5 1.8 225.1 1.8 225.1 3 225.7 3"/>
    <polygon class="cls-4" points="227.4 3 227.4 3.5 225.7 3.5 225.7 3 226.3 3 226.3 1.8 225.9 1.8 225.9 1.3 227.2 1.3 227.2 1.8 226.8 1.8 226.8 3 227.4 3"/>
    <polygon class="cls-4" points="229.2 3 229.2 3.5 227.4 3.5 227.4 3 228.1 3 228.1 1.8 227.7 1.8 227.7 1.3 228.9 1.3 228.9 1.8 228.5 1.8 228.5 3 229.2 3"/>
    <polygon class="cls-4" points="230.9 3 230.9 3.5 229.2 3.5 229.2 3 229.8 3 229.8 1.8 229.4 1.8 229.4 1.3 230.7 1.3 230.7 1.8 230.3 1.8 230.3 3 230.9 3"/>
    <polygon class="cls-4" points="232.6 3 232.6 3.5 230.9 3.5 230.9 3 231.5 3 231.5 1.8 231.1 1.8 231.1 1.3 232.4 1.3 232.4 1.8 232 1.8 232 3 232.6 3"/>
    <polygon class="cls-4" points="234.4 3 234.4 3.5 232.6 3.5 232.6 3 233.3 3 233.3 1.8 232.9 1.8 232.9 1.3 234.1 1.3 234.1 1.8 233.7 1.8 233.7 3 234.4 3"/>
    <polygon class="cls-4" points="236.1 3 236.1 3.5 234.4 3.5 234.4 3 235 3 235 1.8 234.6 1.8 234.6 1.3 235.9 1.3 235.9 1.8 235.5 1.8 235.5 3 236.1 3"/>
    <polygon class="cls-4" points="237.8 3 237.8 3.5 236.1 3.5 236.1 3 236.7 3 236.7 1.8 236.3 1.8 236.3 1.3 237.6 1.3 237.6 1.8 237.2 1.8 237.2 3 237.8 3"/>
    <polygon class="cls-4" points="239.6 3 239.6 3.5 237.8 3.5 237.8 3 238.5 3 238.5 1.8 238.1 1.8 238.1 1.3 239.3 1.3 239.3 1.8 238.9 1.8 238.9 3 239.6 3"/>
    <polygon class="cls-4" points="241.3 3 241.3 3.5 239.6 3.5 239.6 3 240.2 3 240.2 1.8 239.8 1.8 239.8 1.3 241.1 1.3 241.1 1.8 240.7 1.8 240.7 3 241.3 3"/>
    <polygon class="cls-4" points="243 3 243 3.5 241.3 3.5 241.3 3 241.9 3 241.9 1.8 241.5 1.8 241.5 1.3 242.8 1.3 242.8 1.8 242.4 1.8 242.4 3 243 3"/>
    <polygon class="cls-4" points="244.8 3 244.8 3.5 243 3.5 243 3 243.7 3 243.7 1.8 243.3 1.8 243.3 1.3 244.5 1.3 244.5 1.8 244.1 1.8 244.1 3 244.8 3"/>
    <polygon class="cls-4" points="246.5 3 246.5 3.5 244.8 3.5 244.8 3 245.4 3 245.4 1.8 245 1.8 245 1.3 246.3 1.3 246.3 1.8 245.9 1.8 245.9 3 246.5 3"/>
    <polygon class="cls-4" points="248.2 3 248.2 3.5 246.5 3.5 246.5 3 247.1 3 247.1 1.8 246.7 1.8 246.7 1.3 248 1.3 248 1.8 247.6 1.8 247.6 3 248.2 3"/>
    <polygon class="cls-4" points="250 3 250 3.5 248.2 3.5 248.2 3 248.9 3 248.9 1.8 248.5 1.8 248.5 1.3 249.7 1.3 249.7 1.8 249.3 1.8 249.3 3 250 3"/>
    <polygon class="cls-4" points="251.7 3 251.7 3.5 250 3.5 250 3 250.6 3 250.6 1.8 250.2 1.8 250.2 1.3 251.5 1.3 251.5 1.8 251.1 1.8 251.1 3 251.7 3"/>
    <polygon class="cls-4" points="253.4 3 253.4 3.5 251.7 3.5 251.7 3 252.3 3 252.3 1.8 251.9 1.8 251.9 1.3 253.2 1.3 253.2 1.8 252.8 1.8 252.8 3 253.4 3"/>
    <polygon class="cls-4" points="255.2 3 255.2 3.5 253.4 3.5 253.4 3 254.1 3 254.1 1.8 253.7 1.8 253.7 1.3 254.9 1.3 254.9 1.8 254.5 1.8 254.5 3 255.2 3"/>
    <polygon class="cls-4" points="256.9 3 256.9 3.5 255.2 3.5 255.2 3 255.8 3 255.8 1.8 255.4 1.8 255.4 1.3 256.7 1.3 256.7 1.8 256.3 1.8 256.3 3 256.9 3"/>
    <polygon class="cls-4" points="258.6 3 258.6 3.5 256.9 3.5 256.9 3 257.5 3 257.5 1.8 257.1 1.8 257.1 1.3 258.4 1.3 258.4 1.8 258 1.8 258 3 258.6 3"/>
    <polygon class="cls-4" points="260.4 3 260.4 3.5 258.6 3.5 258.6 3 259.3 3 259.3 1.8 258.9 1.8 258.9 1.3 260.1 1.3 260.1 1.8 259.7 1.8 259.7 3 260.4 3"/>
    <polygon class="cls-4" points="262.1 3 262.1 3.5 260.4 3.5 260.4 3 261 3 261 1.8 260.6 1.8 260.6 1.3 261.9 1.3 261.9 1.8 261.5 1.8 261.5 3 262.1 3"/>
    <polygon class="cls-4" points="263.8 3 263.8 3.5 262.1 3.5 262.1 3 262.7 3 262.7 1.8 262.3 1.8 262.3 1.3 263.6 1.3 263.6 1.8 263.2 1.8 263.2 3 263.8 3"/>
    <polygon class="cls-4" points="265.6 3 265.6 3.5 263.8 3.5 263.8 3 264.5 3 264.5 1.8 264.1 1.8 264.1 1.3 265.3 1.3 265.3 1.8 264.9 1.8 264.9 3 265.6 3"/>
    <polygon class="cls-4" points="267.3 3 267.3 3.5 265.6 3.5 265.6 3 266.2 3 266.2 1.8 265.8 1.8 265.8 1.3 267.1 1.3 267.1 1.8 266.7 1.8 266.7 3 267.3 3"/>
    <polygon class="cls-4" points="269 3 269 3.5 267.3 3.5 267.3 3 267.9 3 267.9 1.8 267.5 1.8 267.5 1.3 268.8 1.3 268.8 1.8 268.4 1.8 268.4 3 269 3"/>
    <polygon class="cls-4" points="270.8 3 270.8 3.5 269 3.5 269 3 269.7 3 269.7 1.8 269.3 1.8 269.3 1.3 270.5 1.3 270.5 1.8 270.2 1.8 270.2 3 270.8 3"/>
    <polygon class="cls-4" points="272.5 3 272.5 3.5 270.8 3.5 270.8 3 271.4 3 271.4 1.8 271 1.8 271 1.3 272.3 1.3 272.3 1.8 271.9 1.8 271.9 3 272.5 3"/>
    <polygon class="cls-4" points="274.2 3 274.2 3.5 272.5 3.5 272.5 3 273.1 3 273.1 1.8 272.7 1.8 272.7 1.3 274 1.3 274 1.8 273.6 1.8 273.6 3 274.2 3"/>
    <polygon class="cls-4" points="276 3 276 3.5 274.2 3.5 274.2 3 274.9 3 274.9 1.8 274.5 1.8 274.5 1.3 275.8 1.3 275.8 1.8 275.4 1.8 275.4 3 276 3"/>
    <polygon class="cls-4" points="277.7 3 277.7 3.5 276 3.5 276 3 276.6 3 276.6 1.8 276.2 1.8 276.2 1.3 277.5 1.3 277.5 1.8 277.1 1.8 277.1 3 277.7 3"/>
    <polygon class="cls-4" points="279.4 3 279.4 3.5 277.7 3.5 277.7 3 278.3 3 278.3 1.8 278 1.8 278 1.3 279.2 1.3 279.2 1.8 278.8 1.8 278.8 3 279.4 3"/>
    <polygon class="cls-4" points="281.2 3 281.2 3.5 279.4 3.5 279.4 3 280.1 3 280.1 1.8 279.7 1.8 279.7 1.3 281 1.3 281 1.8 280.6 1.8 280.6 3 281.2 3"/>
    <polygon class="cls-4" points="282.9 3 282.9 3.5 281.2 3.5 281.2 3 281.8 3 281.8 1.8 281.4 1.8 281.4 1.3 282.7 1.3 282.7 1.8 282.3 1.8 282.3 3 282.9 3"/>
    <polygon class="cls-4" points="284.7 3 284.7 3.5 282.9 3.5 282.9 3 283.5 3 283.5 1.8 283.2 1.8 283.2 1.3 284.4 1.3 284.4 1.8 284 1.8 284 3 284.7 3"/>
    <polygon class="cls-4" points="286.4 3 286.4 3.5 284.7 3.5 284.7 3 285.3 3 285.3 1.8 284.9 1.8 284.9 1.3 286.2 1.3 286.2 1.8 285.8 1.8 285.8 3 286.4 3"/>
    <polygon class="cls-4" points="288.1 3 288.1 3.5 286.4 3.5 286.4 3 287 3 287 1.8 286.6 1.8 286.6 1.3 287.9 1.3 287.9 1.8 287.5 1.8 287.5 3 288.1 3"/>
    <polygon class="cls-4" points="289.9 3 289.9 3.5 288.1 3.5 288.1 3 288.8 3 288.8 1.8 288.4 1.8 288.4 1.3 289.6 1.3 289.6 1.8 289.2 1.8 289.2 3 289.9 3"/>
    <polygon class="cls-4" points="291.6 3 291.6 3.5 289.9 3.5 289.9 3 290.5 3 290.5 1.8 290.1 1.8 290.1 1.3 291.4 1.3 291.4 1.8 291 1.8 291 3 291.6 3"/>
    <polygon class="cls-4" points="293.3 3 293.3 3.5 291.6 3.5 291.6 3 292.2 3 292.2 1.8 291.8 1.8 291.8 1.3 293.1 1.3 293.1 1.8 292.7 1.8 292.7 3 293.3 3"/>
    <polygon class="cls-4" points="295.1 3 295.1 3.5 293.3 3.5 293.3 3 294 3 294 1.8 293.6 1.8 293.6 1.3 294.8 1.3 294.8 1.8 294.4 1.8 294.4 3 295.1 3"/>
    <polygon class="cls-4" points="296.8 3 296.8 3.5 295.1 3.5 295.1 3 295.7 3 295.7 1.8 295.3 1.8 295.3 1.3 296.6 1.3 296.6 1.8 296.2 1.8 296.2 3 296.8 3"/>
    <polygon class="cls-4" points="298.5 3 298.5 3.5 296.8 3.5 296.8 3 297.4 3 297.4 1.8 297 1.8 297 1.3 298.3 1.3 298.3 1.8 297.9 1.8 297.9 3 298.5 3"/>
    <polygon class="cls-4" points="300.3 3 300.3 3.5 298.5 3.5 298.5 3 299.2 3 299.2 1.8 298.8 1.8 298.8 1.3 300 1.3 300 1.8 299.6 1.8 299.6 3 300.3 3"/>
    <polygon class="cls-4" points="302 3 302 3.5 300.3 3.5 300.3 3 300.9 3 300.9 1.8 300.5 1.8 300.5 1.3 301.8 1.3 301.8 1.8 301.4 1.8 301.4 3 302 3"/>
    <polygon class="cls-4" points="303.7 3 303.7 3.5 302 3.5 302 3 302.6 3 302.6 1.8 302.2 1.8 302.2 1.3 303.5 1.3 303.5 1.8 303.1 1.8 303.1 3 303.7 3"/>
    <polygon class="cls-4" points="305.5 3 305.5 3.5 303.7 3.5 303.7 3 304.4 3 304.4 1.8 304 1.8 304 1.3 305.2 1.3 305.2 1.8 304.8 1.8 304.8 3 305.5 3"/>
    <polygon class="cls-4" points="307.2 3 307.2 3.5 305.5 3.5 305.5 3 306.1 3 306.1 1.8 305.7 1.8 305.7 1.3 307 1.3 307 1.8 306.6 1.8 306.6 3 307.2 3"/>
    <polygon class="cls-4" points="308.9 3 308.9 3.5 307.2 3.5 307.2 3 307.8 3 307.8 1.8 307.4 1.8 307.4 1.3 308.7 1.3 308.7 1.8 308.3 1.8 308.3 3 308.9 3"/>
    <polygon class="cls-4" points="310.7 3 310.7 3.5 308.9 3.5 308.9 3 309.6 3 309.6 1.8 309.2 1.8 309.2 1.3 310.4 1.3 310.4 1.8 310 1.8 310 3 310.7 3"/>
    <polygon class="cls-4" points="312.4 3 312.4 3.5 310.7 3.5 310.7 3 311.3 3 311.3 1.8 310.9 1.8 310.9 1.3 312.2 1.3 312.2 1.8 311.8 1.8 311.8 3 312.4 3"/>
    <polygon class="cls-4" points="314.1 3 314.1 3.5 312.4 3.5 312.4 3 313 3 313 1.8 312.6 1.8 312.6 1.3 313.9 1.3 313.9 1.8 313.5 1.8 313.5 3 314.1 3"/>
    <polygon class="cls-4" points="315.9 3 315.9 3.5 314.1 3.5 314.1 3 314.8 3 314.8 1.8 314.4 1.8 314.4 1.3 315.6 1.3 315.6 1.8 315.2 1.8 315.2 3 315.9 3"/>
    <polygon class="cls-4" points="317.6 3 317.6 3.5 315.9 3.5 315.9 3 316.5 3 316.5 1.8 316.1 1.8 316.1 1.3 317.4 1.3 317.4 1.8 317 1.8 317 3 317.6 3"/>
    <polygon class="cls-4" points="319.3 3 319.3 3.5 317.6 3.5 317.6 3 318.2 3 318.2 1.8 317.8 1.8 317.8 1.3 319.1 1.3 319.1 1.8 318.7 1.8 318.7 3 319.3 3"/>
    <polygon class="cls-4" points="321.1 3 321.1 3.5 319.3 3.5 319.3 3 320 3 320 1.8 319.6 1.8 319.6 1.3 320.8 1.3 320.8 1.8 320.4 1.8 320.4 3 321.1 3"/>
    <polygon class="cls-4" points="322.8 3 322.8 3.5 321.1 3.5 321.1 3 321.7 3 321.7 1.8 321.3 1.8 321.3 1.3 322.6 1.3 322.6 1.8 322.2 1.8 322.2 3 322.8 3"/>
    <polygon class="cls-4" points="324.5 3 324.5 3.5 322.8 3.5 322.8 3 323.4 3 323.4 1.8 323 1.8 323 1.3 324.3 1.3 324.3 1.8 323.9 1.8 323.9 3 324.5 3"/>
    <polygon class="cls-4" points="326.3 3 326.3 3.5 324.5 3.5 324.5 3 325.2 3 325.2 1.8 324.8 1.8 324.8 1.3 326 1.3 326 1.8 325.6 1.8 325.6 3 326.3 3"/>
    <polygon class="cls-4" points="328 3 328 3.5 326.3 3.5 326.3 3 326.9 3 326.9 1.8 326.5 1.8 326.5 1.3 327.8 1.3 327.8 1.8 327.4 1.8 327.4 3 328 3"/>
    <polygon class="cls-4" points="329.7 3 329.7 3.5 328 3.5 328 3 328.6 3 328.6 1.8 328.2 1.8 328.2 1.3 329.5 1.3 329.5 1.8 329.1 1.8 329.1 3 329.7 3"/>
    <polygon class="cls-4" points="331.5 3 331.5 3.5 329.7 3.5 329.7 3 330.4 3 330.4 1.8 330 1.8 330 1.3 331.2 1.3 331.2 1.8 330.8 1.8 330.8 3 331.5 3"/>
    <polygon class="cls-4" points="333.2 3 333.2 3.5 331.5 3.5 331.5 3 332.1 3 332.1 1.8 331.7 1.8 331.7 1.3 333 1.3 333 1.8 332.6 1.8 332.6 3 333.2 3"/>
    <polygon class="cls-4" points="334.9 3 334.9 3.5 333.2 3.5 333.2 3 333.8 3 333.8 1.8 333.4 1.8 333.4 1.3 334.7 1.3 334.7 1.8 334.3 1.8 334.3 3 334.9 3"/>
    <polygon class="cls-4" points="336.7 3 336.7 3.5 334.9 3.5 334.9 3 335.6 3 335.6 1.8 335.2 1.8 335.2 1.3 336.4 1.3 336.4 1.8 336.1 1.8 336.1 3 336.7 3"/>
    <polygon class="cls-4" points="338.4 3 338.4 3.5 336.7 3.5 336.7 3 337.3 3 337.3 1.8 336.9 1.8 336.9 1.3 338.2 1.3 338.2 1.8 337.8 1.8 337.8 3 338.4 3"/>
    <polygon class="cls-4" points="340.1 3 340.1 3.5 338.4 3.5 338.4 3 339 3 339 1.8 338.6 1.8 338.6 1.3 339.9 1.3 339.9 1.8 339.5 1.8 339.5 3 340.1 3"/>
    <polygon class="cls-4" points="341.9 3 341.9 3.5 340.1 3.5 340.1 3 340.8 3 340.8 1.8 340.4 1.8 340.4 1.3 341.6 1.3 341.6 1.8 341.3 1.8 341.3 3 341.9 3"/>
    <polygon class="cls-4" points="343.6 3 343.6 3.5 341.9 3.5 341.9 3 342.5 3 342.5 1.8 342.1 1.8 342.1 1.3 343.4 1.3 343.4 1.8 343 1.8 343 3 343.6 3"/>
    <polygon class="cls-4" points="345.3 3 345.3 3.5 343.6 3.5 343.6 3 344.2 3 344.2 1.8 343.8 1.8 343.8 1.3 345.1 1.3 345.1 1.8 344.7 1.8 344.7 3 345.3 3"/>
    <polygon class="cls-4" points="347.1 3 347.1 3.5 345.3 3.5 345.3 3 346 3 346 1.8 345.6 1.8 345.6 1.3 346.9 1.3 346.9 1.8 346.5 1.8 346.5 3 347.1 3"/>
    <polygon class="cls-4" points="348.8 3 348.8 3.5 347.1 3.5 347.1 3 347.7 3 347.7 1.8 347.3 1.8 347.3 1.3 348.6 1.3 348.6 1.8 348.2 1.8 348.2 3 348.8 3"/>
    <polygon class="cls-4" points="350.6 3 350.6 3.5 348.8 3.5 348.8 3 349.4 3 349.4 1.8 349.1 1.8 349.1 1.3 350.3 1.3 350.3 1.8 349.9 1.8 349.9 3 350.6 3"/>
    <polygon class="cls-4" points="352.3 3 352.3 3.5 350.6 3.5 350.6 3 351.2 3 351.2 1.8 350.8 1.8 350.8 1.3 352.1 1.3 352.1 1.8 351.7 1.8 351.7 3 352.3 3"/>
    <polygon class="cls-4" points="354 3 354 3.5 352.3 3.5 352.3 3 352.9 3 352.9 1.8 352.5 1.8 352.5 1.3 353.8 1.3 353.8 1.8 353.4 1.8 353.4 3 354 3"/>
    <polygon class="cls-4" points="355.8 3 355.8 3.5 354 3.5 354 3 354.7 3 354.7 1.8 354.3 1.8 354.3 1.3 355.5 1.3 355.5 1.8 355.1 1.8 355.1 3 355.8 3"/>
    <polygon class="cls-4" points="357.5 3 357.5 3.5 355.8 3.5 355.8 3 356.4 3 356.4 1.8 356 1.8 356 1.3 357.3 1.3 357.3 1.8 356.9 1.8 356.9 3 357.5 3"/>
    <polygon class="cls-4" points="359.2 3 359.2 3.5 357.5 3.5 357.5 3 358.1 3 358.1 1.8 357.7 1.8 357.7 1.3 359 1.3 359 1.8 358.6 1.8 358.6 3 359.2 3"/>
    <polygon class="cls-4" points="359.7 5.2 359.2 5.2 359.2 3.5 359.7 3.5 359.7 4.1 360.9 4.1 360.9 3.7 361.4 3.7 361.4 5 360.9 5 360.9 4.6 359.7 4.6 359.7 5.2"/>
    <polygon class="cls-4" points="359.7 6.9 359.2 6.9 359.2 5.2 359.7 5.2 359.7 5.8 360.9 5.8 360.9 5.4 361.4 5.4 361.4 6.7 360.9 6.7 360.9 6.3 359.7 6.3 359.7 6.9"/>
    <polygon class="cls-4" points="359.7 8.7 359.2 8.7 359.2 6.9 359.7 6.9 359.7 7.6 360.9 7.6 360.9 7.2 361.4 7.2 361.4 8.4 360.9 8.4 360.9 8.1 359.7 8.1 359.7 8.7"/>
    <polygon class="cls-4" points="359.7 10.4 359.2 10.4 359.2 8.7 359.7 8.7 359.7 9.3 360.9 9.3 360.9 8.9 361.4 8.9 361.4 10.2 360.9 10.2 360.9 9.8 359.7 9.8 359.7 10.4"/>
    <polygon class="cls-4" points="359.7 12.1 359.2 12.1 359.2 10.4 359.7 10.4 359.7 11 360.9 11 360.9 10.6 361.4 10.6 361.4 11.9 360.9 11.9 360.9 11.5 359.7 11.5 359.7 12.1"/>
    <polygon class="cls-4" points="359.7 13.9 359.2 13.9 359.2 12.1 359.7 12.1 359.7 12.8 360.9 12.8 360.9 12.4 361.4 12.4 361.4 13.6 360.9 13.6 360.9 13.3 359.7 13.3 359.7 13.9"/>
    <polygon class="cls-4" points="359.7 15.6 359.2 15.6 359.2 13.9 359.7 13.9 359.7 14.5 360.9 14.5 360.9 14.1 361.4 14.1 361.4 15.4 360.9 15.4 360.9 15 359.7 15 359.7 15.6"/>
    <polygon class="cls-4" points="359.7 17.3 359.2 17.3 359.2 15.6 359.7 15.6 359.7 16.2 360.9 16.2 360.9 15.8 361.4 15.8 361.4 17.1 360.9 17.1 360.9 16.7 359.7 16.7 359.7 17.3"/>
    <polygon class="cls-4" points="359.7 19.1 359.2 19.1 359.2 17.3 359.7 17.3 359.7 18 360.9 18 360.9 17.6 361.4 17.6 361.4 18.8 360.9 18.8 360.9 18.5 359.7 18.5 359.7 19.1"/>
    <polygon class="cls-4" points="357.5 19.6 357.5 19.1 359.2 19.1 359.2 19.6 358.6 19.6 358.6 20.8 359 20.8 359 21.2 357.7 21.2 357.7 20.8 358.1 20.8 358.1 19.6 357.5 19.6"/>
    <polygon class="cls-4" points="355.8 19.6 355.8 19.1 357.5 19.1 357.5 19.6 356.9 19.6 356.9 20.8 357.3 20.8 357.3 21.2 356 21.2 356 20.8 356.4 20.8 356.4 19.6 355.8 19.6"/>
    <polygon class="cls-4" points="354 19.6 354 19.1 355.8 19.1 355.8 19.6 355.1 19.6 355.1 20.8 355.5 20.8 355.5 21.2 354.2 21.2 354.2 20.8 354.6 20.8 354.6 19.6 354 19.6"/>
    <polygon class="cls-4" points="352.3 19.6 352.3 19.1 354 19.1 354 19.6 353.4 19.6 353.4 20.8 353.8 20.8 353.8 21.2 352.5 21.2 352.5 20.8 352.9 20.8 352.9 19.6 352.3 19.6"/>
    <polygon class="cls-4" points="350.6 19.6 350.6 19.1 352.3 19.1 352.3 19.6 351.7 19.6 351.7 20.8 352 20.8 352 21.2 350.8 21.2 350.8 20.8 351.2 20.8 351.2 19.6 350.6 19.6"/>
    <polygon class="cls-4" points="348.8 19.6 348.8 19.1 350.6 19.1 350.6 19.6 349.9 19.6 349.9 20.8 350.3 20.8 350.3 21.2 349 21.2 349 20.8 349.4 20.8 349.4 19.6 348.8 19.6"/>
    <polygon class="cls-4" points="347.1 19.6 347.1 19.1 348.8 19.1 348.8 19.6 348.2 19.6 348.2 20.8 348.6 20.8 348.6 21.2 347.3 21.2 347.3 20.8 347.7 20.8 347.7 19.6 347.1 19.6"/>
    <polygon class="cls-4" points="345.3 19.6 345.3 19.1 347.1 19.1 347.1 19.6 346.5 19.6 346.5 20.8 346.8 20.8 346.8 21.2 345.6 21.2 345.6 20.8 346 20.8 346 19.6 345.3 19.6"/>
    <polygon class="cls-4" points="343.6 19.6 343.6 19.1 345.3 19.1 345.3 19.6 344.7 19.6 344.7 20.8 345.1 20.8 345.1 21.2 343.8 21.2 343.8 20.8 344.2 20.8 344.2 19.6 343.6 19.6"/>
    <polygon class="cls-4" points="341.9 19.6 341.9 19.1 343.6 19.1 343.6 19.6 343 19.6 343 20.8 343.4 20.8 343.4 21.2 342.1 21.2 342.1 20.8 342.5 20.8 342.5 19.6 341.9 19.6"/>
    <polygon class="cls-4" points="340.1 19.6 340.1 19.1 341.9 19.1 341.9 19.6 341.2 19.6 341.2 20.8 341.6 20.8 341.6 21.2 340.4 21.2 340.4 20.8 340.8 20.8 340.8 19.6 340.1 19.6"/>
    <polygon class="cls-4" points="338.4 19.6 338.4 19.1 340.1 19.1 340.1 19.6 339.5 19.6 339.5 20.8 339.9 20.8 339.9 21.2 338.6 21.2 338.6 20.8 339 20.8 339 19.6 338.4 19.6"/>
    <polygon class="cls-4" points="336.7 19.6 336.7 19.1 338.4 19.1 338.4 19.6 337.8 19.6 337.8 20.8 338.2 20.8 338.2 21.2 336.9 21.2 336.9 20.8 337.3 20.8 337.3 19.6 336.7 19.6"/>
    <polygon class="cls-4" points="334.9 19.6 334.9 19.1 336.7 19.1 336.7 19.6 336 19.6 336 20.8 336.4 20.8 336.4 21.2 335.2 21.2 335.2 20.8 335.6 20.8 335.6 19.6 334.9 19.6"/>
    <polygon class="cls-4" points="333.2 19.6 333.2 19.1 334.9 19.1 334.9 19.6 334.3 19.6 334.3 20.8 334.7 20.8 334.7 21.2 333.4 21.2 333.4 20.8 333.8 20.8 333.8 19.6 333.2 19.6"/>
    <polygon class="cls-4" points="331.5 19.6 331.5 19.1 333.2 19.1 333.2 19.6 332.6 19.6 332.6 20.8 333 20.8 333 21.2 331.7 21.2 331.7 20.8 332.1 20.8 332.1 19.6 331.5 19.6"/>
    <polygon class="cls-4" points="329.7 19.6 329.7 19.1 331.5 19.1 331.5 19.6 330.8 19.6 330.8 20.8 331.2 20.8 331.2 21.2 330 21.2 330 20.8 330.4 20.8 330.4 19.6 329.7 19.6"/>
    <polygon class="cls-4" points="328 19.6 328 19.1 329.7 19.1 329.7 19.6 329.1 19.6 329.1 20.8 329.5 20.8 329.5 21.2 328.2 21.2 328.2 20.8 328.6 20.8 328.6 19.6 328 19.6"/>
    <polygon class="cls-4" points="326.3 19.6 326.3 19.1 328 19.1 328 19.6 327.4 19.6 327.4 20.8 327.8 20.8 327.8 21.2 326.5 21.2 326.5 20.8 326.9 20.8 326.9 19.6 326.3 19.6"/>
    <polygon class="cls-4" points="324.5 19.6 324.5 19.1 326.3 19.1 326.3 19.6 325.6 19.6 325.6 20.8 326 20.8 326 21.2 324.8 21.2 324.8 20.8 325.2 20.8 325.2 19.6 324.5 19.6"/>
    <polygon class="cls-4" points="322.8 19.6 322.8 19.1 324.5 19.1 324.5 19.6 323.9 19.6 323.9 20.8 324.3 20.8 324.3 21.2 323 21.2 323 20.8 323.4 20.8 323.4 19.6 322.8 19.6"/>
    <polygon class="cls-4" points="321.1 19.6 321.1 19.1 322.8 19.1 322.8 19.6 322.2 19.6 322.2 20.8 322.6 20.8 322.6 21.2 321.3 21.2 321.3 20.8 321.7 20.8 321.7 19.6 321.1 19.6"/>
    <polygon class="cls-4" points="319.3 19.6 319.3 19.1 321.1 19.1 321.1 19.6 320.4 19.6 320.4 20.8 320.8 20.8 320.8 21.2 319.6 21.2 319.6 20.8 320 20.8 320 19.6 319.3 19.6"/>
    <polygon class="cls-4" points="317.6 19.6 317.6 19.1 319.3 19.1 319.3 19.6 318.7 19.6 318.7 20.8 319.1 20.8 319.1 21.2 317.8 21.2 317.8 20.8 318.2 20.8 318.2 19.6 317.6 19.6"/>
    <polygon class="cls-4" points="315.9 19.6 315.9 19.1 317.6 19.1 317.6 19.6 317 19.6 317 20.8 317.4 20.8 317.4 21.2 316.1 21.2 316.1 20.8 316.5 20.8 316.5 19.6 315.9 19.6"/>
    <polygon class="cls-4" points="314.1 19.6 314.1 19.1 315.9 19.1 315.9 19.6 315.2 19.6 315.2 20.8 315.6 20.8 315.6 21.2 314.4 21.2 314.4 20.8 314.8 20.8 314.8 19.6 314.1 19.6"/>
    <polygon class="cls-4" points="312.4 19.6 312.4 19.1 314.1 19.1 314.1 19.6 313.5 19.6 313.5 20.8 313.9 20.8 313.9 21.2 312.6 21.2 312.6 20.8 313 20.8 313 19.6 312.4 19.6"/>
    <polygon class="cls-4" points="310.7 19.6 310.7 19.1 312.4 19.1 312.4 19.6 311.8 19.6 311.8 20.8 312.2 20.8 312.2 21.2 310.9 21.2 310.9 20.8 311.3 20.8 311.3 19.6 310.7 19.6"/>
    <polygon class="cls-4" points="308.9 19.6 308.9 19.1 310.7 19.1 310.7 19.6 310 19.6 310 20.8 310.4 20.8 310.4 21.2 309.2 21.2 309.2 20.8 309.6 20.8 309.6 19.6 308.9 19.6"/>
    <polygon class="cls-4" points="307.2 19.6 307.2 19.1 308.9 19.1 308.9 19.6 308.3 19.6 308.3 20.8 308.7 20.8 308.7 21.2 307.4 21.2 307.4 20.8 307.8 20.8 307.8 19.6 307.2 19.6"/>
    <polygon class="cls-4" points="305.5 19.6 305.5 19.1 307.2 19.1 307.2 19.6 306.6 19.6 306.6 20.8 307 20.8 307 21.2 305.7 21.2 305.7 20.8 306.1 20.8 306.1 19.6 305.5 19.6"/>
    <polygon class="cls-4" points="303.7 19.6 303.7 19.1 305.5 19.1 305.5 19.6 304.8 19.6 304.8 20.8 305.2 20.8 305.2 21.2 304 21.2 304 20.8 304.4 20.8 304.4 19.6 303.7 19.6"/>
    <polygon class="cls-4" points="302 19.6 302 19.1 303.7 19.1 303.7 19.6 303.1 19.6 303.1 20.8 303.5 20.8 303.5 21.2 302.2 21.2 302.2 20.8 302.6 20.8 302.6 19.6 302 19.6"/>
    <polygon class="cls-4" points="300.3 19.6 300.3 19.1 302 19.1 302 19.6 301.4 19.6 301.4 20.8 301.8 20.8 301.8 21.2 300.5 21.2 300.5 20.8 300.9 20.8 300.9 19.6 300.3 19.6"/>
    <polygon class="cls-4" points="298.5 19.6 298.5 19.1 300.3 19.1 300.3 19.6 299.6 19.6 299.6 20.8 300 20.8 300 21.2 298.8 21.2 298.8 20.8 299.2 20.8 299.2 19.6 298.5 19.6"/>
    <polygon class="cls-4" points="296.8 19.6 296.8 19.1 298.5 19.1 298.5 19.6 297.9 19.6 297.9 20.8 298.3 20.8 298.3 21.2 297 21.2 297 20.8 297.4 20.8 297.4 19.6 296.8 19.6"/>
    <polygon class="cls-4" points="295.1 19.6 295.1 19.1 296.8 19.1 296.8 19.6 296.2 19.6 296.2 20.8 296.6 20.8 296.6 21.2 295.3 21.2 295.3 20.8 295.7 20.8 295.7 19.6 295.1 19.6"/>
    <polygon class="cls-4" points="293.3 19.6 293.3 19.1 295.1 19.1 295.1 19.6 294.4 19.6 294.4 20.8 294.8 20.8 294.8 21.2 293.6 21.2 293.6 20.8 293.9 20.8 293.9 19.6 293.3 19.6"/>
    <polygon class="cls-4" points="291.6 19.6 291.6 19.1 293.3 19.1 293.3 19.6 292.7 19.6 292.7 20.8 293.1 20.8 293.1 21.2 291.8 21.2 291.8 20.8 292.2 20.8 292.2 19.6 291.6 19.6"/>
    <polygon class="cls-4" points="289.9 19.6 289.9 19.1 291.6 19.1 291.6 19.6 291 19.6 291 20.8 291.4 20.8 291.4 21.2 290.1 21.2 290.1 20.8 290.5 20.8 290.5 19.6 289.9 19.6"/>
    <polygon class="cls-4" points="288.1 19.6 288.1 19.1 289.9 19.1 289.9 19.6 289.2 19.6 289.2 20.8 289.6 20.8 289.6 21.2 288.4 21.2 288.4 20.8 288.7 20.8 288.7 19.6 288.1 19.6"/>
    <polygon class="cls-4" points="286.4 19.6 286.4 19.1 288.1 19.1 288.1 19.6 287.5 19.6 287.5 20.8 287.9 20.8 287.9 21.2 286.6 21.2 286.6 20.8 287 20.8 287 19.6 286.4 19.6"/>
    <polygon class="cls-4" points="284.7 19.6 284.7 19.1 286.4 19.1 286.4 19.6 285.8 19.6 285.8 20.8 286.2 20.8 286.2 21.2 284.9 21.2 284.9 20.8 285.3 20.8 285.3 19.6 284.7 19.6"/>
    <polygon class="cls-4" points="282.9 19.6 282.9 19.1 284.7 19.1 284.7 19.6 284 19.6 284 20.8 284.4 20.8 284.4 21.2 283.1 21.2 283.1 20.8 283.5 20.8 283.5 19.6 282.9 19.6"/>
    <polygon class="cls-4" points="281.2 19.6 281.2 19.1 282.9 19.1 282.9 19.6 282.3 19.6 282.3 20.8 282.7 20.8 282.7 21.2 281.4 21.2 281.4 20.8 281.8 20.8 281.8 19.6 281.2 19.6"/>
    <polygon class="cls-4" points="279.4 19.6 279.4 19.1 281.2 19.1 281.2 19.6 280.6 19.6 280.6 20.8 280.9 20.8 280.9 21.2 279.7 21.2 279.7 20.8 280.1 20.8 280.1 19.6 279.4 19.6"/>
    <polygon class="cls-4" points="277.7 19.6 277.7 19.1 279.4 19.1 279.4 19.6 278.8 19.6 278.8 20.8 279.2 20.8 279.2 21.2 277.9 21.2 277.9 20.8 278.3 20.8 278.3 19.6 277.7 19.6"/>
    <polygon class="cls-4" points="276 19.6 276 19.1 277.7 19.1 277.7 19.6 277.1 19.6 277.1 20.8 277.5 20.8 277.5 21.2 276.2 21.2 276.2 20.8 276.6 20.8 276.6 19.6 276 19.6"/>
    <polygon class="cls-4" points="274.2 19.6 274.2 19.1 276 19.1 276 19.6 275.3 19.6 275.3 20.8 275.7 20.8 275.7 21.2 274.5 21.2 274.5 20.8 274.9 20.8 274.9 19.6 274.2 19.6"/>
    <polygon class="cls-4" points="272.5 19.6 272.5 19.1 274.2 19.1 274.2 19.6 273.6 19.6 273.6 20.8 274 20.8 274 21.2 272.7 21.2 272.7 20.8 273.1 20.8 273.1 19.6 272.5 19.6"/>
    <polygon class="cls-4" points="270.8 19.6 270.8 19.1 272.5 19.1 272.5 19.6 271.9 19.6 271.9 20.8 272.3 20.8 272.3 21.2 271 21.2 271 20.8 271.4 20.8 271.4 19.6 270.8 19.6"/>
    <polygon class="cls-4" points="269 19.6 269 19.1 270.8 19.1 270.8 19.6 270.1 19.6 270.1 20.8 270.5 20.8 270.5 21.2 269.3 21.2 269.3 20.8 269.7 20.8 269.7 19.6 269 19.6"/>
    <polygon class="cls-4" points="267.3 19.6 267.3 19.1 269 19.1 269 19.6 268.4 19.6 268.4 20.8 268.8 20.8 268.8 21.2 267.5 21.2 267.5 20.8 267.9 20.8 267.9 19.6 267.3 19.6"/>
    <polygon class="cls-4" points="265.6 19.6 265.6 19.1 267.3 19.1 267.3 19.6 266.7 19.6 266.7 20.8 267.1 20.8 267.1 21.2 265.8 21.2 265.8 20.8 266.2 20.8 266.2 19.6 265.6 19.6"/>
    <polygon class="cls-4" points="263.8 19.6 263.8 19.1 265.6 19.1 265.6 19.6 264.9 19.6 264.9 20.8 265.3 20.8 265.3 21.2 264.1 21.2 264.1 20.8 264.5 20.8 264.5 19.6 263.8 19.6"/>
    <polygon class="cls-4" points="262.1 19.6 262.1 19.1 263.8 19.1 263.8 19.6 263.2 19.6 263.2 20.8 263.6 20.8 263.6 21.2 262.3 21.2 262.3 20.8 262.7 20.8 262.7 19.6 262.1 19.6"/>
    <polygon class="cls-4" points="260.4 19.6 260.4 19.1 262.1 19.1 262.1 19.6 261.5 19.6 261.5 20.8 261.9 20.8 261.9 21.2 260.6 21.2 260.6 20.8 261 20.8 261 19.6 260.4 19.6"/>
    <polygon class="cls-4" points="258.6 19.6 258.6 19.1 260.4 19.1 260.4 19.6 259.7 19.6 259.7 20.8 260.1 20.8 260.1 21.2 258.9 21.2 258.9 20.8 259.3 20.8 259.3 19.6 258.6 19.6"/>
    <polygon class="cls-4" points="256.9 19.6 256.9 19.1 258.6 19.1 258.6 19.6 258 19.6 258 20.8 258.4 20.8 258.4 21.2 257.1 21.2 257.1 20.8 257.5 20.8 257.5 19.6 256.9 19.6"/>
    <polygon class="cls-4" points="255.2 19.6 255.2 19.1 256.9 19.1 256.9 19.6 256.3 19.6 256.3 20.8 256.7 20.8 256.7 21.2 255.4 21.2 255.4 20.8 255.8 20.8 255.8 19.6 255.2 19.6"/>
    <polygon class="cls-4" points="253.4 19.6 253.4 19.1 255.2 19.1 255.2 19.6 254.5 19.6 254.5 20.8 254.9 20.8 254.9 21.2 253.7 21.2 253.7 20.8 254.1 20.8 254.1 19.6 253.4 19.6"/>
    <polygon class="cls-4" points="251.7 19.6 251.7 19.1 253.4 19.1 253.4 19.6 252.8 19.6 252.8 20.8 253.2 20.8 253.2 21.2 251.9 21.2 251.9 20.8 252.3 20.8 252.3 19.6 251.7 19.6"/>
    <polygon class="cls-4" points="250 19.6 250 19.1 251.7 19.1 251.7 19.6 251.1 19.6 251.1 20.8 251.5 20.8 251.5 21.2 250.2 21.2 250.2 20.8 250.6 20.8 250.6 19.6 250 19.6"/>
    <polygon class="cls-4" points="248.2 19.6 248.2 19.1 250 19.1 250 19.6 249.3 19.6 249.3 20.8 249.7 20.8 249.7 21.2 248.5 21.2 248.5 20.8 248.9 20.8 248.9 19.6 248.2 19.6"/>
    <polygon class="cls-4" points="246.5 19.6 246.5 19.1 248.2 19.1 248.2 19.6 247.6 19.6 247.6 20.8 248 20.8 248 21.2 246.7 21.2 246.7 20.8 247.1 20.8 247.1 19.6 246.5 19.6"/>
    <polygon class="cls-4" points="244.8 19.6 244.8 19.1 246.5 19.1 246.5 19.6 245.9 19.6 245.9 20.8 246.3 20.8 246.3 21.2 245 21.2 245 20.8 245.4 20.8 245.4 19.6 244.8 19.6"/>
    <polygon class="cls-4" points="243 19.6 243 19.1 244.8 19.1 244.8 19.6 244.1 19.6 244.1 20.8 244.5 20.8 244.5 21.2 243.3 21.2 243.3 20.8 243.7 20.8 243.7 19.6 243 19.6"/>
    <polygon class="cls-4" points="241.3 19.6 241.3 19.1 243 19.1 243 19.6 242.4 19.6 242.4 20.8 242.8 20.8 242.8 21.2 241.5 21.2 241.5 20.8 241.9 20.8 241.9 19.6 241.3 19.6"/>
    <polygon class="cls-4" points="239.6 19.6 239.6 19.1 241.3 19.1 241.3 19.6 240.7 19.6 240.7 20.8 241.1 20.8 241.1 21.2 239.8 21.2 239.8 20.8 240.2 20.8 240.2 19.6 239.6 19.6"/>
    <polygon class="cls-4" points="237.8 19.6 237.8 19.1 239.6 19.1 239.6 19.6 238.9 19.6 238.9 20.8 239.3 20.8 239.3 21.2 238.1 21.2 238.1 20.8 238.5 20.8 238.5 19.6 237.8 19.6"/>
    <polygon class="cls-4" points="236.1 19.6 236.1 19.1 237.8 19.1 237.8 19.6 237.2 19.6 237.2 20.8 237.6 20.8 237.6 21.2 236.3 21.2 236.3 20.8 236.7 20.8 236.7 19.6 236.1 19.6"/>
    <polygon class="cls-4" points="234.4 19.6 234.4 19.1 236.1 19.1 236.1 19.6 235.5 19.6 235.5 20.8 235.9 20.8 235.9 21.2 234.6 21.2 234.6 20.8 235 20.8 235 19.6 234.4 19.6"/>
    <polygon class="cls-4" points="232.6 19.6 232.6 19.1 234.4 19.1 234.4 19.6 233.7 19.6 233.7 20.8 234.1 20.8 234.1 21.2 232.9 21.2 232.9 20.8 233.3 20.8 233.3 19.6 232.6 19.6"/>
    <polygon class="cls-4" points="230.9 19.6 230.9 19.1 232.6 19.1 232.6 19.6 232 19.6 232 20.8 232.4 20.8 232.4 21.2 231.1 21.2 231.1 20.8 231.5 20.8 231.5 19.6 230.9 19.6"/>
    <polygon class="cls-4" points="229.2 19.6 229.2 19.1 230.9 19.1 230.9 19.6 230.3 19.6 230.3 20.8 230.7 20.8 230.7 21.2 229.4 21.2 229.4 20.8 229.8 20.8 229.8 19.6 229.2 19.6"/>
    <polygon class="cls-4" points="227.4 19.6 227.4 19.1 229.2 19.1 229.2 19.6 228.5 19.6 228.5 20.8 228.9 20.8 228.9 21.2 227.7 21.2 227.7 20.8 228.1 20.8 228.1 19.6 227.4 19.6"/>
    <polygon class="cls-4" points="225.7 19.6 225.7 19.1 227.4 19.1 227.4 19.6 226.8 19.6 226.8 20.8 227.2 20.8 227.2 21.2 225.9 21.2 225.9 20.8 226.3 20.8 226.3 19.6 225.7 19.6"/>
    <polygon class="cls-4" points="224 19.6 224 19.1 225.7 19.1 225.7 19.6 225.1 19.6 225.1 20.8 225.5 20.8 225.5 21.2 224.2 21.2 224.2 20.8 224.6 20.8 224.6 19.6 224 19.6"/>
    <polygon class="cls-4" points="222.2 19.6 222.2 19.1 224 19.1 224 19.6 223.3 19.6 223.3 20.8 223.7 20.8 223.7 21.2 222.5 21.2 222.5 20.8 222.8 20.8 222.8 19.6 222.2 19.6"/>
    <polygon class="cls-4" points="220.5 19.6 220.5 19.1 222.2 19.1 222.2 19.6 221.6 19.6 221.6 20.8 222 20.8 222 21.2 220.7 21.2 220.7 20.8 221.1 20.8 221.1 19.6 220.5 19.6"/>
    <polygon class="cls-4" points="218.8 19.6 218.8 19.1 220.5 19.1 220.5 19.6 219.9 19.6 219.9 20.8 220.3 20.8 220.3 21.2 219 21.2 219 20.8 219.4 20.8 219.4 19.6 218.8 19.6"/>
    <polygon class="cls-4" points="217 19.6 217 19.1 218.8 19.1 218.8 19.6 218.1 19.6 218.1 20.8 218.5 20.8 218.5 21.2 217.2 21.2 217.2 20.8 217.6 20.8 217.6 19.6 217 19.6"/>
    <polygon class="cls-4" points="215.3 19.6 215.3 19.1 217 19.1 217 19.6 216.4 19.6 216.4 20.8 216.8 20.8 216.8 21.2 215.5 21.2 215.5 20.8 215.9 20.8 215.9 19.6 215.3 19.6"/>
    <polygon class="cls-4" points="213.5 19.6 213.5 19.1 215.3 19.1 215.3 19.6 214.7 19.6 214.7 20.8 215 20.8 215 21.2 213.8 21.2 213.8 20.8 214.2 20.8 214.2 19.6 213.5 19.6"/>
    <polygon class="cls-4" points="211.8 19.6 211.8 19.1 213.5 19.1 213.5 19.6 212.9 19.6 212.9 20.8 213.3 20.8 213.3 21.2 212 21.2 212 20.8 212.4 20.8 212.4 19.6 211.8 19.6"/>
    <polygon class="cls-4" points="210.1 19.6 210.1 19.1 211.8 19.1 211.8 19.6 211.2 19.6 211.2 20.8 211.6 20.8 211.6 21.2 210.3 21.2 210.3 20.8 210.7 20.8 210.7 19.6 210.1 19.6"/>
    <polygon class="cls-4" points="208.3 19.6 208.3 19.1 210.1 19.1 210.1 19.6 209.4 19.6 209.4 20.8 209.8 20.8 209.8 21.2 208.6 21.2 208.6 20.8 209 20.8 209 19.6 208.3 19.6"/>
    <polygon class="cls-4" points="206.6 19.6 206.6 19.1 208.3 19.1 208.3 19.6 207.7 19.6 207.7 20.8 208.1 20.8 208.1 21.2 206.8 21.2 206.8 20.8 207.2 20.8 207.2 19.6 206.6 19.6"/>
    <polygon class="cls-4" points="204.9 19.6 204.9 19.1 206.6 19.1 206.6 19.6 206 19.6 206 20.8 206.4 20.8 206.4 21.2 205.1 21.2 205.1 20.8 205.5 20.8 205.5 19.6 204.9 19.6"/>
    <polygon class="cls-4" points="203.1 19.6 203.1 19.1 204.9 19.1 204.9 19.6 204.2 19.6 204.2 20.8 204.6 20.8 204.6 21.2 203.4 21.2 203.4 20.8 203.8 20.8 203.8 19.6 203.1 19.6"/>
    <polygon class="cls-4" points="201.4 19.6 201.4 19.1 203.1 19.1 203.1 19.6 202.5 19.6 202.5 20.8 202.9 20.8 202.9 21.2 201.6 21.2 201.6 20.8 202 20.8 202 19.6 201.4 19.6"/>
    <polygon class="cls-4" points="199.7 19.6 199.7 19.1 201.4 19.1 201.4 19.6 200.8 19.6 200.8 20.8 201.2 20.8 201.2 21.2 199.9 21.2 199.9 20.8 200.3 20.8 200.3 19.6 199.7 19.6"/>
    <polygon class="cls-4" points="197.9 19.6 197.9 19.1 199.7 19.1 199.7 19.6 199 19.6 199 20.8 199.4 20.8 199.4 21.2 198.2 21.2 198.2 20.8 198.6 20.8 198.6 19.6 197.9 19.6"/>
    <polygon class="cls-4" points="196.2 19.6 196.2 19.1 197.9 19.1 197.9 19.6 197.3 19.6 197.3 20.8 197.7 20.8 197.7 21.2 196.4 21.2 196.4 20.8 196.8 20.8 196.8 19.6 196.2 19.6"/>
    <polygon class="cls-4" points="194.5 19.6 194.5 19.1 196.2 19.1 196.2 19.6 195.6 19.6 195.6 20.8 196 20.8 196 21.2 194.7 21.2 194.7 20.8 195.1 20.8 195.1 19.6 194.5 19.6"/>
    <polygon class="cls-4" points="192.7 19.6 192.7 19.1 194.5 19.1 194.5 19.6 193.8 19.6 193.8 20.8 194.2 20.8 194.2 21.2 193 21.2 193 20.8 193.4 20.8 193.4 19.6 192.7 19.6"/>
    <polygon class="cls-4" points="191 19.6 191 19.1 192.7 19.1 192.7 19.6 192.1 19.6 192.1 20.8 192.5 20.8 192.5 21.2 191.2 21.2 191.2 20.8 191.6 20.8 191.6 19.6 191 19.6"/>
    <polygon class="cls-4" points="189.3 19.6 189.3 19.1 191 19.1 191 19.6 190.4 19.6 190.4 20.8 190.8 20.8 190.8 21.2 189.5 21.2 189.5 20.8 189.9 20.8 189.9 19.6 189.3 19.6"/>
    <polygon class="cls-4" points="187.5 19.6 187.5 19.1 189.3 19.1 189.3 19.6 188.6 19.6 188.6 20.8 189 20.8 189 21.2 187.8 21.2 187.8 20.8 188.2 20.8 188.2 19.6 187.5 19.6"/>
    <polygon class="cls-4" points="185.8 19.6 185.8 19.1 187.5 19.1 187.5 19.6 186.9 19.6 186.9 20.8 187.3 20.8 187.3 21.2 186 21.2 186 20.8 186.4 20.8 186.4 19.6 185.8 19.6"/>
    <polygon class="cls-4" points="184.1 19.6 184.1 19.1 185.8 19.1 185.8 19.6 185.2 19.6 185.2 20.8 185.6 20.8 185.6 21.2 184.3 21.2 184.3 20.8 184.7 20.8 184.7 19.6 184.1 19.6"/>
    <polygon class="cls-4" points="182.3 19.6 182.3 19.1 184.1 19.1 184.1 19.6 183.4 19.6 183.4 20.8 183.8 20.8 183.8 21.2 182.6 21.2 182.6 20.8 183 20.8 183 19.6 182.3 19.6"/>
    <polygon class="cls-4" points="180.6 19.6 180.6 19.1 182.3 19.1 182.3 19.6 181.7 19.6 181.7 20.8 182.1 20.8 182.1 21.2 180.8 21.2 180.8 20.8 181.2 20.8 181.2 19.6 180.6 19.6"/>
    <polygon class="cls-4" points="178.9 19.6 178.9 19.1 180.6 19.1 180.6 19.6 180 19.6 180 20.8 180.4 20.8 180.4 21.2 179.1 21.2 179.1 20.8 179.5 20.8 179.5 19.6 178.9 19.6"/>
    <polygon class="cls-4" points="177.1 19.6 177.1 19.1 178.9 19.1 178.9 19.6 178.2 19.6 178.2 20.8 178.6 20.8 178.6 21.2 177.4 21.2 177.4 20.8 177.8 20.8 177.8 19.6 177.1 19.6"/>
    <polygon class="cls-4" points="175.4 19.6 175.4 19.1 177.1 19.1 177.1 19.6 176.5 19.6 176.5 20.8 176.9 20.8 176.9 21.2 175.6 21.2 175.6 20.8 176 20.8 176 19.6 175.4 19.6"/>
    <polygon class="cls-4" points="173.7 19.6 173.7 19.1 175.4 19.1 175.4 19.6 174.8 19.6 174.8 20.8 175.2 20.8 175.2 21.2 173.9 21.2 173.9 20.8 174.3 20.8 174.3 19.6 173.7 19.6"/>
    <polygon class="cls-4" points="171.9 19.6 171.9 19.1 173.7 19.1 173.7 19.6 173 19.6 173 20.8 173.4 20.8 173.4 21.2 172.2 21.2 172.2 20.8 172.6 20.8 172.6 19.6 171.9 19.6"/>
    <polygon class="cls-4" points="170.2 19.6 170.2 19.1 171.9 19.1 171.9 19.6 171.3 19.6 171.3 20.8 171.7 20.8 171.7 21.2 170.4 21.2 170.4 20.8 170.8 20.8 170.8 19.6 170.2 19.6"/>
    <polygon class="cls-4" points="168.5 19.6 168.5 19.1 170.2 19.1 170.2 19.6 169.6 19.6 169.6 20.8 170 20.8 170 21.2 168.7 21.2 168.7 20.8 169.1 20.8 169.1 19.6 168.5 19.6"/>
    <polygon class="cls-4" points="166.7 19.6 166.7 19.1 168.5 19.1 168.5 19.6 167.8 19.6 167.8 20.8 168.2 20.8 168.2 21.2 167 21.2 167 20.8 167.4 20.8 167.4 19.6 166.7 19.6"/>
    <polygon class="cls-4" points="165 19.6 165 19.1 166.7 19.1 166.7 19.6 166.1 19.6 166.1 20.8 166.5 20.8 166.5 21.2 165.2 21.2 165.2 20.8 165.6 20.8 165.6 19.6 165 19.6"/>
    <polygon class="cls-4" points="163.3 19.6 163.3 19.1 165 19.1 165 19.6 164.4 19.6 164.4 20.8 164.8 20.8 164.8 21.2 163.5 21.2 163.5 20.8 163.9 20.8 163.9 19.6 163.3 19.6"/>
    <polygon class="cls-4" points="161.5 19.6 161.5 19.1 163.3 19.1 163.3 19.6 162.6 19.6 162.6 20.8 163 20.8 163 21.2 161.8 21.2 161.8 20.8 162.2 20.8 162.2 19.6 161.5 19.6"/>
    <polygon class="cls-4" points="159.8 19.6 159.8 19.1 161.5 19.1 161.5 19.6 160.9 19.6 160.9 20.8 161.3 20.8 161.3 21.2 160 21.2 160 20.8 160.4 20.8 160.4 19.6 159.8 19.6"/>
    <polygon class="cls-4" points="158.1 19.6 158.1 19.1 159.8 19.1 159.8 19.6 159.2 19.6 159.2 20.8 159.6 20.8 159.6 21.2 158.3 21.2 158.3 20.8 158.7 20.8 158.7 19.6 158.1 19.6"/>
    <polygon class="cls-4" points="156.3 19.6 156.3 19.1 158.1 19.1 158.1 19.6 157.4 19.6 157.4 20.8 157.8 20.8 157.8 21.2 156.6 21.2 156.6 20.8 156.9 20.8 156.9 19.6 156.3 19.6"/>
    <polygon class="cls-4" points="154.6 19.6 154.6 19.1 156.3 19.1 156.3 19.6 155.7 19.6 155.7 20.8 156.1 20.8 156.1 21.2 154.8 21.2 154.8 20.8 155.2 20.8 155.2 19.6 154.6 19.6"/>
    <polygon class="cls-4" points="152.9 19.6 152.9 19.1 154.6 19.1 154.6 19.6 154 19.6 154 20.8 154.4 20.8 154.4 21.2 153.1 21.2 153.1 20.8 153.5 20.8 153.5 19.6 152.9 19.6"/>
    <polygon class="cls-4" points="151.1 19.6 151.1 19.1 152.9 19.1 152.9 19.6 152.2 19.6 152.2 20.8 152.6 20.8 152.6 21.2 151.3 21.2 151.3 20.8 151.7 20.8 151.7 19.6 151.1 19.6"/>
    <polygon class="cls-4" points="149.4 19.6 149.4 19.1 151.1 19.1 151.1 19.6 150.5 19.6 150.5 20.8 150.9 20.8 150.9 21.2 149.6 21.2 149.6 20.8 150 20.8 150 19.6 149.4 19.6"/>
    <polygon class="cls-4" points="147.7 19.6 147.7 19.1 149.4 19.1 149.4 19.6 148.8 19.6 148.8 20.8 149.1 20.8 149.1 21.2 147.9 21.2 147.9 20.8 148.3 20.8 148.3 19.6 147.7 19.6"/>
    <polygon class="cls-4" points="145.9 19.6 145.9 19.1 147.7 19.1 147.7 19.6 147 19.6 147 20.8 147.4 20.8 147.4 21.2 146.1 21.2 146.1 20.8 146.5 20.8 146.5 19.6 145.9 19.6"/>
    <polygon class="cls-4" points="144.2 19.6 144.2 19.1 145.9 19.1 145.9 19.6 145.3 19.6 145.3 20.8 145.7 20.8 145.7 21.2 144.4 21.2 144.4 20.8 144.8 20.8 144.8 19.6 144.2 19.6"/>
    <polygon class="cls-4" points="142.4 19.6 142.4 19.1 144.2 19.1 144.2 19.6 143.5 19.6 143.5 20.8 143.9 20.8 143.9 21.2 142.7 21.2 142.7 20.8 143.1 20.8 143.1 19.6 142.4 19.6"/>
    <polygon class="cls-4" points="140.7 19.6 140.7 19.1 142.4 19.1 142.4 19.6 141.8 19.6 141.8 20.8 142.2 20.8 142.2 21.2 140.9 21.2 140.9 20.8 141.3 20.8 141.3 19.6 140.7 19.6"/>
    <polygon class="cls-4" points="139 19.6 139 19.1 140.7 19.1 140.7 19.6 140.1 19.6 140.1 20.8 140.5 20.8 140.5 21.2 139.2 21.2 139.2 20.8 139.6 20.8 139.6 19.6 139 19.6"/>
    <polygon class="cls-4" points="137.2 19.6 137.2 19.1 139 19.1 139 19.6 138.3 19.6 138.3 20.8 138.7 20.8 138.7 21.2 137.5 21.2 137.5 20.8 137.9 20.8 137.9 19.6 137.2 19.6"/>
    <polygon class="cls-4" points="135.5 19.6 135.5 19.1 137.2 19.1 137.2 19.6 136.6 19.6 136.6 20.8 137 20.8 137 21.2 135.7 21.2 135.7 20.8 136.1 20.8 136.1 19.6 135.5 19.6"/>
    <polygon class="cls-4" points="133.8 19.6 133.8 19.1 135.5 19.1 135.5 19.6 134.9 19.6 134.9 20.8 135.3 20.8 135.3 21.2 134 21.2 134 20.8 134.4 20.8 134.4 19.6 133.8 19.6"/>
    <polygon class="cls-4" points="132 19.6 132 19.1 133.8 19.1 133.8 19.6 133.1 19.6 133.1 20.8 133.5 20.8 133.5 21.2 132.3 21.2 132.3 20.8 132.7 20.8 132.7 19.6 132 19.6"/>
    <polygon class="cls-4" points="130.3 19.6 130.3 19.1 132 19.1 132 19.6 131.4 19.6 131.4 20.8 131.8 20.8 131.8 21.2 130.5 21.2 130.5 20.8 130.9 20.8 130.9 19.6 130.3 19.6"/>
    <polygon class="cls-4" points="128.6 19.6 128.6 19.1 130.3 19.1 130.3 19.6 129.7 19.6 129.7 20.8 130.1 20.8 130.1 21.2 128.8 21.2 128.8 20.8 129.2 20.8 129.2 19.6 128.6 19.6"/>
    <polygon class="cls-4" points="126.8 19.6 126.8 19.1 128.6 19.1 128.6 19.6 127.9 19.6 127.9 20.8 128.3 20.8 128.3 21.2 127.1 21.2 127.1 20.8 127.5 20.8 127.5 19.6 126.8 19.6"/>
    <polygon class="cls-4" points="125.1 19.6 125.1 19.1 126.8 19.1 126.8 19.6 126.2 19.6 126.2 20.8 126.6 20.8 126.6 21.2 125.3 21.2 125.3 20.8 125.7 20.8 125.7 19.6 125.1 19.6"/>
    <polygon class="cls-4" points="123.4 19.6 123.4 19.1 125.1 19.1 125.1 19.6 124.5 19.6 124.5 20.8 124.9 20.8 124.9 21.2 123.6 21.2 123.6 20.8 124 20.8 124 19.6 123.4 19.6"/>
    <polygon class="cls-4" points="121.6 19.6 121.6 19.1 123.4 19.1 123.4 19.6 122.7 19.6 122.7 20.8 123.1 20.8 123.1 21.2 121.9 21.2 121.9 20.8 122.3 20.8 122.3 19.6 121.6 19.6"/>
    <polygon class="cls-4" points="119.9 19.6 119.9 19.1 121.6 19.1 121.6 19.6 121 19.6 121 20.8 121.4 20.8 121.4 21.2 120.1 21.2 120.1 20.8 120.5 20.8 120.5 19.6 119.9 19.6"/>
    <polygon class="cls-4" points="118.2 19.6 118.2 19.1 119.9 19.1 119.9 19.6 119.3 19.6 119.3 20.8 119.7 20.8 119.7 21.2 118.4 21.2 118.4 20.8 118.8 20.8 118.8 19.6 118.2 19.6"/>
    <polygon class="cls-4" points="116.4 19.6 116.4 19.1 118.2 19.1 118.2 19.6 117.5 19.6 117.5 20.8 117.9 20.8 117.9 21.2 116.7 21.2 116.7 20.8 117.1 20.8 117.1 19.6 116.4 19.6"/>
    <polygon class="cls-4" points="114.7 19.6 114.7 19.1 116.4 19.1 116.4 19.6 115.8 19.6 115.8 20.8 116.2 20.8 116.2 21.2 114.9 21.2 114.9 20.8 115.3 20.8 115.3 19.6 114.7 19.6"/>
    <polygon class="cls-4" points="113 19.6 113 19.1 114.7 19.1 114.7 19.6 114.1 19.6 114.1 20.8 114.5 20.8 114.5 21.2 113.2 21.2 113.2 20.8 113.6 20.8 113.6 19.6 113 19.6"/>
    <polygon class="cls-4" points="111.2 19.6 111.2 19.1 113 19.1 113 19.6 112.3 19.6 112.3 20.8 112.7 20.8 112.7 21.2 111.5 21.2 111.5 20.8 111.9 20.8 111.9 19.6 111.2 19.6"/>
    <polygon class="cls-4" points="109.5 19.6 109.5 19.1 111.2 19.1 111.2 19.6 110.6 19.6 110.6 20.8 111 20.8 111 21.2 109.7 21.2 109.7 20.8 110.1 20.8 110.1 19.6 109.5 19.6"/>
    <polygon class="cls-4" points="107.8 19.6 107.8 19.1 109.5 19.1 109.5 19.6 108.9 19.6 108.9 20.8 109.3 20.8 109.3 21.2 108 21.2 108 20.8 108.4 20.8 108.4 19.6 107.8 19.6"/>
    <polygon class="cls-4" points="106 19.6 106 19.1 107.8 19.1 107.8 19.6 107.1 19.6 107.1 20.8 107.5 20.8 107.5 21.2 106.3 21.2 106.3 20.8 106.7 20.8 106.7 19.6 106 19.6"/>
    <polygon class="cls-4" points="104.3 19.6 104.3 19.1 106 19.1 106 19.6 105.4 19.6 105.4 20.8 105.8 20.8 105.8 21.2 104.5 21.2 104.5 20.8 104.9 20.8 104.9 19.6 104.3 19.6"/>
    <polygon class="cls-4" points="102.6 19.6 102.6 19.1 104.3 19.1 104.3 19.6 103.7 19.6 103.7 20.8 104.1 20.8 104.1 21.2 102.8 21.2 102.8 20.8 103.2 20.8 103.2 19.6 102.6 19.6"/>
    <polygon class="cls-4" points="100.8 19.6 100.8 19.1 102.6 19.1 102.6 19.6 101.9 19.6 101.9 20.8 102.3 20.8 102.3 21.2 101.1 21.2 101.1 20.8 101.5 20.8 101.5 19.6 100.8 19.6"/>
    <polygon class="cls-4" points="99.1 19.6 99.1 19.1 100.8 19.1 100.8 19.6 100.2 19.6 100.2 20.8 100.6 20.8 100.6 21.2 99.3 21.2 99.3 20.8 99.7 20.8 99.7 19.6 99.1 19.6"/>
    <polygon class="cls-4" points="97.4 19.6 97.4 19.1 99.1 19.1 99.1 19.6 98.5 19.6 98.5 20.8 98.9 20.8 98.9 21.2 97.6 21.2 97.6 20.8 98 20.8 98 19.6 97.4 19.6"/>
    <polygon class="cls-4" points="95.6 19.6 95.6 19.1 97.4 19.1 97.4 19.6 96.7 19.6 96.7 20.8 97.1 20.8 97.1 21.2 95.9 21.2 95.9 20.8 96.3 20.8 96.3 19.6 95.6 19.6"/>
    <polygon class="cls-4" points="93.9 19.6 93.9 19.1 95.6 19.1 95.6 19.6 95 19.6 95 20.8 95.4 20.8 95.4 21.2 94.1 21.2 94.1 20.8 94.5 20.8 94.5 19.6 93.9 19.6"/>
    <polygon class="cls-4" points="92.2 19.6 92.2 19.1 93.9 19.1 93.9 19.6 93.3 19.6 93.3 20.8 93.7 20.8 93.7 21.2 92.4 21.2 92.4 20.8 92.8 20.8 92.8 19.6 92.2 19.6"/>
    <polygon class="cls-4" points="90.4 19.6 90.4 19.1 92.2 19.1 92.2 19.6 91.5 19.6 91.5 20.8 91.9 20.8 91.9 21.2 90.7 21.2 90.7 20.8 91 20.8 91 19.6 90.4 19.6"/>
    <polygon class="cls-4" points="88.7 19.6 88.7 19.1 90.4 19.1 90.4 19.6 89.8 19.6 89.8 20.8 90.2 20.8 90.2 21.2 88.9 21.2 88.9 20.8 89.3 20.8 89.3 19.6 88.7 19.6"/>
    <polygon class="cls-4" points="87 19.6 87 19.1 88.7 19.1 88.7 19.6 88.1 19.6 88.1 20.8 88.5 20.8 88.5 21.2 87.2 21.2 87.2 20.8 87.6 20.8 87.6 19.6 87 19.6"/>
    <polygon class="cls-4" points="85.2 19.6 85.2 19.1 87 19.1 87 19.6 86.3 19.6 86.3 20.8 86.7 20.8 86.7 21.2 85.4 21.2 85.4 20.8 85.8 20.8 85.8 19.6 85.2 19.6"/>
    <polygon class="cls-4" points="83.5 19.6 83.5 19.1 85.2 19.1 85.2 19.6 84.6 19.6 84.6 20.8 85 20.8 85 21.2 83.7 21.2 83.7 20.8 84.1 20.8 84.1 19.6 83.5 19.6"/>
    <polygon class="cls-4" points="81.8 19.6 81.8 19.1 83.5 19.1 83.5 19.6 82.9 19.6 82.9 20.8 83.2 20.8 83.2 21.2 82 21.2 82 20.8 82.4 20.8 82.4 19.6 81.8 19.6"/>
    <polygon class="cls-4" points="80 19.6 80 19.1 81.8 19.1 81.8 19.6 81.1 19.6 81.1 20.8 81.5 20.8 81.5 21.2 80.2 21.2 80.2 20.8 80.6 20.8 80.6 19.6 80 19.6"/>
    <polygon class="cls-4" points="78.3 19.6 78.3 19.1 80 19.1 80 19.6 79.4 19.6 79.4 20.8 79.8 20.8 79.8 21.2 78.5 21.2 78.5 20.8 78.9 20.8 78.9 19.6 78.3 19.6"/>
    <polygon class="cls-4" points="76.5 19.6 76.5 19.1 78.3 19.1 78.3 19.6 77.6 19.6 77.6 20.8 78 20.8 78 21.2 76.8 21.2 76.8 20.8 77.2 20.8 77.2 19.6 76.5 19.6"/>
    <polygon class="cls-4" points="74.8 19.6 74.8 19.1 76.5 19.1 76.5 19.6 75.9 19.6 75.9 20.8 76.3 20.8 76.3 21.2 75 21.2 75 20.8 75.4 20.8 75.4 19.6 74.8 19.6"/>
    <polygon class="cls-4" points="73.1 19.6 73.1 19.1 74.8 19.1 74.8 19.6 74.2 19.6 74.2 20.8 74.6 20.8 74.6 21.2 73.3 21.2 73.3 20.8 73.7 20.8 73.7 19.6 73.1 19.6"/>
    <polygon class="cls-4" points="71.3 19.6 71.3 19.1 73.1 19.1 73.1 19.6 72.4 19.6 72.4 20.8 72.8 20.8 72.8 21.2 71.6 21.2 71.6 20.8 72 20.8 72 19.6 71.3 19.6"/>
    <polygon class="cls-4" points="69.6 19.6 69.6 19.1 71.3 19.1 71.3 19.6 70.7 19.6 70.7 20.8 71.1 20.8 71.1 21.2 69.8 21.2 69.8 20.8 70.2 20.8 70.2 19.6 69.6 19.6"/>
    <polygon class="cls-4" points="67.9 19.6 67.9 19.1 69.6 19.1 69.6 19.6 69 19.6 69 20.8 69.4 20.8 69.4 21.2 68.1 21.2 68.1 20.8 68.5 20.8 68.5 19.6 67.9 19.6"/>
    <polygon class="cls-4" points="66.1 19.6 66.1 19.1 67.9 19.1 67.9 19.6 67.2 19.6 67.2 20.8 67.6 20.8 67.6 21.2 66.4 21.2 66.4 20.8 66.8 20.8 66.8 19.6 66.1 19.6"/>
    <polygon class="cls-4" points="64.4 19.6 64.4 19.1 66.1 19.1 66.1 19.6 65.5 19.6 65.5 20.8 65.9 20.8 65.9 21.2 64.6 21.2 64.6 20.8 65 20.8 65 19.6 64.4 19.6"/>
    <polygon class="cls-4" points="62.7 19.6 62.7 19.1 64.4 19.1 64.4 19.6 63.8 19.6 63.8 20.8 64.2 20.8 64.2 21.2 62.9 21.2 62.9 20.8 63.3 20.8 63.3 19.6 62.7 19.6"/>
    <polygon class="cls-4" points="60.9 19.6 60.9 19.1 62.7 19.1 62.7 19.6 62 19.6 62 20.8 62.4 20.8 62.4 21.2 61.2 21.2 61.2 20.8 61.6 20.8 61.6 19.6 60.9 19.6"/>
    <polygon class="cls-4" points="59.2 19.6 59.2 19.1 60.9 19.1 60.9 19.6 60.3 19.6 60.3 20.8 60.7 20.8 60.7 21.2 59.4 21.2 59.4 20.8 59.8 20.8 59.8 19.6 59.2 19.6"/>
    <polygon class="cls-4" points="57.5 19.6 57.5 19.1 59.2 19.1 59.2 19.6 58.6 19.6 58.6 20.8 59 20.8 59 21.2 57.7 21.2 57.7 20.8 58.1 20.8 58.1 19.6 57.5 19.6"/>
    <polygon class="cls-4" points="55.7 19.6 55.7 19.1 57.5 19.1 57.5 19.6 56.8 19.6 56.8 20.8 57.2 20.8 57.2 21.2 56 21.2 56 20.8 56.4 20.8 56.4 19.6 55.7 19.6"/>
    <polygon class="cls-4" points="54 19.6 54 19.1 55.7 19.1 55.7 19.6 55.1 19.6 55.1 20.8 55.5 20.8 55.5 21.2 54.2 21.2 54.2 20.8 54.6 20.8 54.6 19.6 54 19.6"/>
    <polygon class="cls-4" points="52.3 19.6 52.3 19.1 54 19.1 54 19.6 53.4 19.6 53.4 20.8 53.8 20.8 53.8 21.2 52.5 21.2 52.5 20.8 52.9 20.8 52.9 19.6 52.3 19.6"/>
    <polygon class="cls-4" points="50.5 19.6 50.5 19.1 52.3 19.1 52.3 19.6 51.6 19.6 51.6 20.8 52 20.8 52 21.2 50.8 21.2 50.8 20.8 51.2 20.8 51.2 19.6 50.5 19.6"/>
    <polygon class="cls-4" points="48.8 19.6 48.8 19.1 50.5 19.1 50.5 19.6 49.9 19.6 49.9 20.8 50.3 20.8 50.3 21.2 49 21.2 49 20.8 49.4 20.8 49.4 19.6 48.8 19.6"/>
    <polygon class="cls-4" points="47.1 19.6 47.1 19.1 48.8 19.1 48.8 19.6 48.2 19.6 48.2 20.8 48.6 20.8 48.6 21.2 47.3 21.2 47.3 20.8 47.7 20.8 47.7 19.6 47.1 19.6"/>
    <polygon class="cls-4" points="45.3 19.6 45.3 19.1 47.1 19.1 47.1 19.6 46.4 19.6 46.4 20.8 46.8 20.8 46.8 21.2 45.6 21.2 45.6 20.8 46 20.8 46 19.6 45.3 19.6"/>
    <polygon class="cls-4" points="43.6 19.6 43.6 19.1 45.3 19.1 45.3 19.6 44.7 19.6 44.7 20.8 45.1 20.8 45.1 21.2 43.8 21.2 43.8 20.8 44.2 20.8 44.2 19.6 43.6 19.6"/>
    <polygon class="cls-4" points="41.9 19.6 41.9 19.1 43.6 19.1 43.6 19.6 43 19.6 43 20.8 43.4 20.8 43.4 21.2 42.1 21.2 42.1 20.8 42.5 20.8 42.5 19.6 41.9 19.6"/>
    <polygon class="cls-4" points="40.1 19.6 40.1 19.1 41.9 19.1 41.9 19.6 41.2 19.6 41.2 20.8 41.6 20.8 41.6 21.2 40.4 21.2 40.4 20.8 40.8 20.8 40.8 19.6 40.1 19.6"/>
    <polygon class="cls-4" points="38.4 19.6 38.4 19.1 40.1 19.1 40.1 19.6 39.5 19.6 39.5 20.8 39.9 20.8 39.9 21.2 38.6 21.2 38.6 20.8 39 20.8 39 19.6 38.4 19.6"/>
    <polygon class="cls-4" points="36.7 19.6 36.7 19.1 38.4 19.1 38.4 19.6 37.8 19.6 37.8 20.8 38.2 20.8 38.2 21.2 36.9 21.2 36.9 20.8 37.3 20.8 37.3 19.6 36.7 19.6"/>
    <polygon class="cls-4" points="34.9 19.6 34.9 19.1 36.7 19.1 36.7 19.6 36 19.6 36 20.8 36.4 20.8 36.4 21.2 35.2 21.2 35.2 20.8 35.6 20.8 35.6 19.6 34.9 19.6"/>
    <polygon class="cls-4" points="33.2 19.6 33.2 19.1 34.9 19.1 34.9 19.6 34.3 19.6 34.3 20.8 34.7 20.8 34.7 21.2 33.4 21.2 33.4 20.8 33.8 20.8 33.8 19.6 33.2 19.6"/>
    <polygon class="cls-4" points="31.5 19.6 31.5 19.1 33.2 19.1 33.2 19.6 32.6 19.6 32.6 20.8 33 20.8 33 21.2 31.7 21.2 31.7 20.8 32.1 20.8 32.1 19.6 31.5 19.6"/>
    <polygon class="cls-4" points="29.7 19.6 29.7 19.1 31.5 19.1 31.5 19.6 30.8 19.6 30.8 20.8 31.2 20.8 31.2 21.2 30 21.2 30 20.8 30.4 20.8 30.4 19.6 29.7 19.6"/>
    <polygon class="cls-4" points="28 19.6 28 19.1 29.7 19.1 29.7 19.6 29.1 19.6 29.1 20.8 29.5 20.8 29.5 21.2 28.2 21.2 28.2 20.8 28.6 20.8 28.6 19.6 28 19.6"/>
    <polygon class="cls-4" points="26.3 19.6 26.3 19.1 28 19.1 28 19.6 27.4 19.6 27.4 20.8 27.8 20.8 27.8 21.2 26.5 21.2 26.5 20.8 26.9 20.8 26.9 19.6 26.3 19.6"/>
    <polygon class="cls-4" points="24.5 19.6 24.5 19.1 26.3 19.1 26.3 19.6 25.6 19.6 25.6 20.8 26 20.8 26 21.2 24.8 21.2 24.8 20.8 25.1 20.8 25.1 19.6 24.5 19.6"/>
    <polygon class="cls-4" points="22.8 19.6 22.8 19.1 24.5 19.1 24.5 19.6 23.9 19.6 23.9 20.8 24.3 20.8 24.3 21.2 23 21.2 23 20.8 23.4 20.8 23.4 19.6 22.8 19.6"/>
    <polygon class="cls-4" points="21.1 19.6 21.1 19.1 22.8 19.1 22.8 19.6 22.2 19.6 22.2 20.8 22.6 20.8 22.6 21.2 21.3 21.2 21.3 20.8 21.7 20.8 21.7 19.6 21.1 19.6"/>
    <polygon class="cls-4" points="19.3 19.6 19.3 19.1 21.1 19.1 21.1 19.6 20.4 19.6 20.4 20.8 20.8 20.8 20.8 21.2 19.6 21.2 19.6 20.8 19.9 20.8 19.9 19.6 19.3 19.6"/>
    <polygon class="cls-4" points="17.6 19.6 17.6 19.1 19.3 19.1 19.3 19.6 18.7 19.6 18.7 20.8 19.1 20.8 19.1 21.2 17.8 21.2 17.8 20.8 18.2 20.8 18.2 19.6 17.6 19.6"/>
    <polygon class="cls-4" points="15.9 19.6 15.9 19.1 17.6 19.1 17.6 19.6 17 19.6 17 20.8 17.3 20.8 17.3 21.2 16.1 21.2 16.1 20.8 16.5 20.8 16.5 19.6 15.9 19.6"/>
    <polygon class="cls-4" points="14.1 19.6 14.1 19.1 15.9 19.1 15.9 19.6 15.2 19.6 15.2 20.8 15.6 20.8 15.6 21.2 14.3 21.2 14.3 20.8 14.7 20.8 14.7 19.6 14.1 19.6"/>
    <polygon class="cls-4" points="12.4 19.6 12.4 19.1 14.1 19.1 14.1 19.6 13.5 19.6 13.5 20.8 13.9 20.8 13.9 21.2 12.6 21.2 12.6 20.8 13 20.8 13 19.6 12.4 19.6"/>
    <polygon class="cls-4" points="10.6 19.6 10.6 19.1 12.4 19.1 12.4 19.6 11.8 19.6 11.8 20.8 12.1 20.8 12.1 21.2 10.9 21.2 10.9 20.8 11.3 20.8 11.3 19.6 10.6 19.6"/>
    <polygon class="cls-4" points="8.9 19.6 8.9 19.1 10.6 19.1 10.6 19.6 10 19.6 10 20.8 10.4 20.8 10.4 21.2 9.1 21.2 9.1 20.8 9.5 20.8 9.5 19.6 8.9 19.6"/>
    <polygon class="cls-4" points="7.2 19.6 7.2 19.1 8.9 19.1 8.9 19.6 8.3 19.6 8.3 20.8 8.7 20.8 8.7 21.2 7.4 21.2 7.4 20.8 7.8 20.8 7.8 19.6 7.2 19.6"/>
    <polygon class="cls-4" points="5.4 19.6 5.4 19.1 7.2 19.1 7.2 19.6 6.5 19.6 6.5 20.8 6.9 20.8 6.9 21.2 5.7 21.2 5.7 20.8 6.1 20.8 6.1 19.6 5.4 19.6"/>
    <polygon class="cls-4" points="3.7 19.6 3.7 19.1 5.4 19.1 5.4 19.6 4.8 19.6 4.8 20.8 5.2 20.8 5.2 21.2 3.9 21.2 3.9 20.8 4.3 20.8 4.3 19.6 3.7 19.6"/>
    <g class="cls-8">
      <polygon class="cls-4" points="3.2 1.3 3.7 1.3 3.7 3.5 3.2 3.5 3.2 2.7 2 2.7 2 3.2 1.5 3.2 1.5 1.6 2 1.6 2 2.1 3.2 2.1 3.2 1.3"/>
    </g>
    <g class="cls-6">
      <polygon class="cls-4" points="3.7 3 3.7 3.5 1.5 3.5 1.5 3 2.3 3 2.3 1.8 1.8 1.8 1.8 1.3 3.4 1.3 3.4 1.8 2.9 1.8 2.9 3 3.7 3"/>
    </g>
    <g class="cls-1">
      <polygon class="cls-4" points="361.4 3 361.4 3.5 359.2 3.5 359.2 3 360 3 360 1.8 359.5 1.8 359.5 1.3 361.1 1.3 361.1 1.8 360.6 1.8 360.6 3 361.4 3"/>
    </g>
    <g class="cls-9">
      <polygon class="cls-4" points="359.7 3.5 359.2 3.5 359.2 1.3 359.7 1.3 359.7 2.1 360.9 2.1 360.9 1.6 361.4 1.6 361.4 3.2 360.9 3.2 360.9 2.7 359.7 2.7 359.7 3.5"/>
    </g>
    <g class="cls-7">
      <polygon class="cls-4" points="359.7 21.2 359.2 21.2 359.2 19.1 359.7 19.1 359.7 19.9 360.9 19.9 360.9 19.4 361.4 19.4 361.4 21 360.9 21 360.9 20.5 359.7 20.5 359.7 21.2"/>
    </g>
    <g class="cls-10">
      <polygon class="cls-4" points="359.2 19.6 359.2 19.1 361.4 19.1 361.4 19.6 360.6 19.6 360.6 20.8 361.1 20.8 361.1 21.2 359.5 21.2 359.5 20.8 360 20.8 360 19.6 359.2 19.6"/>
    </g>
    <g class="cls-2">
      <polygon class="cls-4" points="1.5 19.6 1.5 19.1 3.7 19.1 3.7 19.6 2.9 19.6 2.9 20.8 3.4 20.8 3.4 21.2 1.8 21.2 1.8 20.8 2.3 20.8 2.3 19.6 1.5 19.6"/>
    </g>
    <g class="cls-5">
      <polygon class="cls-4" points="3.2 19.1 3.7 19.1 3.7 21.2 3.2 21.2 3.2 20.5 2 20.5 2 21 1.5 21 1.5 19.4 2 19.4 2 19.9 3.2 19.9 3.2 19.1"/>
    </g>
  </g>
</svg>