<?xml version="1.0" encoding="UTF-8"?>
<svg xmlns="http://www.w3.org/2000/svg" version="1.1" xmlns:xlink="http://www.w3.org/1999/xlink" viewBox="0 0 449 101">
  <defs>
    <style>
      .cls-1 {
        clip-path: url(#clippath-11);
      }

      .cls-2 {
        clip-path: url(#clippath-2);
      }

      .cls-3 {
        clip-path: url(#clippath-13);
      }

      .cls-4 {
        clip-path: url(#clippath-15);
      }

      .cls-5 {
        clip-path: url(#clippath-6);
      }

      .cls-6 {
        fill: none;
      }

      .cls-6, .cls-7 {
        stroke-width: 0px;
      }

      .cls-8 {
        clip-path: url(#clippath-7);
      }

      .cls-9 {
        clip-path: url(#clippath-1);
      }

      .cls-10 {
        clip-path: url(#clippath-4);
      }

      .cls-11 {
        clip-path: url(#clippath-12);
      }

      .cls-7 {
        fill: #fed700;
      }

      .cls-12 {
        clip-path: url(#clippath-9);
      }

      .cls-13 {
        clip-path: url(#clippath);
      }

      .cls-14 {
        clip-path: url(#clippath-3);
      }

      .cls-15 {
        clip-path: url(#clippath-8);
      }

      .cls-16 {
        clip-path: url(#clippath-14);
      }

      .cls-17 {
        clip-path: url(#clippath-5);
      }

      .cls-18 {
        display: none;
      }

      .cls-19 {
        clip-path: url(#clippath-10);
      }
    </style>
    <clipPath id="clippath">
      <polygon class="cls-6" points="407.92 90.86 411.78 96.64 407.92 96.64 407.92 90.86"/>
    </clipPath>
    <clipPath id="clippath-1">
      <polygon class="cls-6" points="407.92 90.86 411.78 96.64 413.26 93.07 407.92 90.86"/>
    </clipPath>
    <clipPath id="clippath-2">
      <polygon class="cls-6" points="436.67 21.35 445.32 15.57 442.01 23.56 436.67 21.35"/>
    </clipPath>
    <clipPath id="clippath-3">
      <polygon class="cls-6" points="436.67 21.35 445.32 15.57 436.67 15.57 436.67 21.35"/>
    </clipPath>
    <clipPath id="clippath-4">
      <polygon class="cls-6" points="11.46 21.35 5.68 15.57 11.46 15.57 11.46 21.35"/>
    </clipPath>
    <clipPath id="clippath-5">
      <polygon class="cls-6" points="11.46 21.35 5.68 15.57 5.68 21.35 11.46 21.35"/>
    </clipPath>
    <clipPath id="clippath-6">
      <polygon class="cls-6" points="11.46 90.86 5.68 96.64 5.68 90.86 11.46 90.86"/>
    </clipPath>
    <clipPath id="clippath-7">
      <polygon class="cls-6" points="11.46 90.86 5.68 96.64 11.46 96.64 11.46 90.86"/>
    </clipPath>
    <clipPath id="clippath-8">
      <polygon class="cls-6" points="407.82 90.86 411.87 96.64 407.82 96.64 407.82 90.86"/>
    </clipPath>
    <clipPath id="clippath-9">
      <polygon class="cls-6" points="407.82 90.86 411.87 96.64 413.25 92.84 407.82 90.86"/>
    </clipPath>
    <clipPath id="clippath-10">
      <polygon class="cls-6" points="436.87 11.06 445.12 5.28 442.3 13.04 436.87 11.06"/>
    </clipPath>
    <clipPath id="clippath-11">
      <polygon class="cls-6" points="436.87 11.06 445.12 5.28 436.87 5.28 436.87 11.06"/>
    </clipPath>
    <clipPath id="clippath-12">
      <polygon class="cls-6" points="11.46 11.06 5.68 5.28 11.46 5.28 11.46 11.06"/>
    </clipPath>
    <clipPath id="clippath-13">
      <polygon class="cls-6" points="11.46 11.06 5.68 5.28 5.68 11.06 11.46 11.06"/>
    </clipPath>
    <clipPath id="clippath-14">
      <polygon class="cls-6" points="11.46 90.86 5.68 96.64 5.68 90.86 11.46 90.86"/>
    </clipPath>
    <clipPath id="clippath-15">
      <polygon class="cls-6" points="11.46 90.86 5.68 96.64 11.46 96.64 11.46 90.86"/>
    </clipPath>
  </defs>
  <g id="small" class="cls-18">
    <g id="_8_-_top_left_bg_social_media" data-name="%8 - top left bg social media">
      <polygon class="cls-7" points="8.57 18.46 8.57 93.75 409.85 93.75 441 18.46 8.57 18.46"/>
      <g>
        <polygon class="cls-7" points="16.07 92.12 16.07 90.86 11.46 90.86 11.46 92.12 13.14 92.12 13.14 95.37 12.09 95.37 12.09 96.64 15.46 96.64 15.46 95.37 14.4 95.37 14.4 92.12 16.07 92.12"/>
        <polygon class="cls-7" points="20.68 92.12 20.68 90.86 16.07 90.86 16.07 92.12 17.75 92.12 17.75 95.37 16.7 95.37 16.7 96.64 20.07 96.64 20.07 95.37 19.01 95.37 19.01 92.12 20.68 92.12"/>
        <polygon class="cls-7" points="25.29 92.12 25.29 90.86 20.68 90.86 20.68 92.12 22.36 92.12 22.36 95.37 21.31 95.37 21.31 96.64 24.68 96.64 24.68 95.37 23.62 95.37 23.62 92.12 25.29 92.12"/>
        <polygon class="cls-7" points="29.9 92.12 29.9 90.86 25.29 90.86 25.29 92.12 26.97 92.12 26.97 95.37 25.92 95.37 25.92 96.64 29.29 96.64 29.29 95.37 28.23 95.37 28.23 92.12 29.9 92.12"/>
        <polygon class="cls-7" points="34.51 92.12 34.51 90.86 29.9 90.86 29.9 92.12 31.58 92.12 31.58 95.37 30.53 95.37 30.53 96.64 33.9 96.64 33.9 95.37 32.84 95.37 32.84 92.12 34.51 92.12"/>
        <polygon class="cls-7" points="39.12 92.12 39.12 90.86 34.51 90.86 34.51 92.12 36.19 92.12 36.19 95.37 35.14 95.37 35.14 96.64 38.51 96.64 38.51 95.37 37.45 95.37 37.45 92.12 39.12 92.12"/>
        <polygon class="cls-7" points="43.73 92.12 43.73 90.86 39.12 90.86 39.12 92.12 40.8 92.12 40.8 95.37 39.75 95.37 39.75 96.64 43.12 96.64 43.12 95.37 42.06 95.37 42.06 92.12 43.73 92.12"/>
        <polygon class="cls-7" points="48.34 92.12 48.34 90.86 43.73 90.86 43.73 92.12 45.41 92.12 45.41 95.37 44.36 95.37 44.36 96.64 47.73 96.64 47.73 95.37 46.67 95.37 46.67 92.12 48.34 92.12"/>
        <polygon class="cls-7" points="52.95 92.12 52.95 90.86 48.34 90.86 48.34 92.12 50.02 92.12 50.02 95.37 48.97 95.37 48.97 96.64 52.34 96.64 52.34 95.37 51.28 95.37 51.28 92.12 52.95 92.12"/>
        <polygon class="cls-7" points="57.56 92.12 57.56 90.86 52.95 90.86 52.95 92.12 54.63 92.12 54.63 95.37 53.58 95.37 53.58 96.64 56.95 96.64 56.95 95.37 55.89 95.37 55.89 92.12 57.56 92.12"/>
        <polygon class="cls-7" points="62.17 92.12 62.17 90.86 57.56 90.86 57.56 92.12 59.24 92.12 59.24 95.37 58.19 95.37 58.19 96.64 61.56 96.64 61.56 95.37 60.5 95.37 60.5 92.12 62.17 92.12"/>
        <polygon class="cls-7" points="66.78 92.12 66.78 90.86 62.17 90.86 62.17 92.12 63.85 92.12 63.85 95.37 62.8 95.37 62.8 96.64 66.17 96.64 66.17 95.37 65.11 95.37 65.11 92.12 66.78 92.12"/>
        <polygon class="cls-7" points="71.39 92.12 71.39 90.86 66.78 90.86 66.78 92.12 68.46 92.12 68.46 95.37 67.41 95.37 67.41 96.64 70.78 96.64 70.78 95.37 69.72 95.37 69.72 92.12 71.39 92.12"/>
        <polygon class="cls-7" points="76 92.12 76 90.86 71.39 90.86 71.39 92.12 73.07 92.12 73.07 95.37 72.02 95.37 72.02 96.64 75.39 96.64 75.39 95.37 74.33 95.37 74.33 92.12 76 92.12"/>
        <polygon class="cls-7" points="80.61 92.12 80.61 90.86 76 90.86 76 92.12 77.68 92.12 77.68 95.37 76.63 95.37 76.63 96.64 80 96.64 80 95.37 78.94 95.37 78.94 92.12 80.61 92.12"/>
        <polygon class="cls-7" points="85.22 92.12 85.22 90.86 80.61 90.86 80.61 92.12 82.29 92.12 82.29 95.37 81.24 95.37 81.24 96.64 84.61 96.64 84.61 95.37 83.55 95.37 83.55 92.12 85.22 92.12"/>
        <polygon class="cls-7" points="89.83 92.12 89.83 90.86 85.22 90.86 85.22 92.12 86.9 92.12 86.9 95.37 85.85 95.37 85.85 96.64 89.22 96.64 89.22 95.37 88.16 95.37 88.16 92.12 89.83 92.12"/>
        <polygon class="cls-7" points="94.44 92.12 94.44 90.86 89.83 90.86 89.83 92.12 91.51 92.12 91.51 95.37 90.46 95.37 90.46 96.64 93.83 96.64 93.83 95.37 92.77 95.37 92.77 92.12 94.44 92.12"/>
        <polygon class="cls-7" points="99.05 92.12 99.05 90.86 94.44 90.86 94.44 92.12 96.12 92.12 96.12 95.37 95.07 95.37 95.07 96.64 98.44 96.64 98.44 95.37 97.38 95.37 97.38 92.12 99.05 92.12"/>
        <polygon class="cls-7" points="103.66 92.12 103.66 90.86 99.05 90.86 99.05 92.12 100.73 92.12 100.73 95.37 99.68 95.37 99.68 96.64 103.05 96.64 103.05 95.37 101.99 95.37 101.99 92.12 103.66 92.12"/>
        <polygon class="cls-7" points="108.27 92.12 108.27 90.86 103.66 90.86 103.66 92.12 105.34 92.12 105.34 95.37 104.29 95.37 104.29 96.64 107.66 96.64 107.66 95.37 106.6 95.37 106.6 92.12 108.27 92.12"/>
        <polygon class="cls-7" points="112.88 92.12 112.88 90.86 108.27 90.86 108.27 92.12 109.95 92.12 109.95 95.37 108.9 95.37 108.9 96.64 112.27 96.64 112.27 95.37 111.21 95.37 111.21 92.12 112.88 92.12"/>
        <polygon class="cls-7" points="117.49 92.12 117.49 90.86 112.88 90.86 112.88 92.12 114.56 92.12 114.56 95.37 113.5 95.37 113.5 96.64 116.88 96.64 116.88 95.37 115.82 95.37 115.82 92.12 117.49 92.12"/>
        <polygon class="cls-7" points="122.1 92.12 122.1 90.86 117.49 90.86 117.49 92.12 119.17 92.12 119.17 95.37 118.11 95.37 118.11 96.64 121.49 96.64 121.49 95.37 120.43 95.37 120.43 92.12 122.1 92.12"/>
        <polygon class="cls-7" points="126.71 92.12 126.71 90.86 122.1 90.86 122.1 92.12 123.78 92.12 123.78 95.37 122.72 95.37 122.72 96.64 126.1 96.64 126.1 95.37 125.04 95.37 125.04 92.12 126.71 92.12"/>
        <polygon class="cls-7" points="131.32 92.12 131.32 90.86 126.71 90.86 126.71 92.12 128.39 92.12 128.39 95.37 127.33 95.37 127.33 96.64 130.71 96.64 130.71 95.37 129.65 95.37 129.65 92.12 131.32 92.12"/>
        <polygon class="cls-7" points="135.93 92.12 135.93 90.86 131.32 90.86 131.32 92.12 133 92.12 133 95.37 131.94 95.37 131.94 96.64 135.32 96.64 135.32 95.37 134.26 95.37 134.26 92.12 135.93 92.12"/>
        <polygon class="cls-7" points="140.54 92.12 140.54 90.86 135.93 90.86 135.93 92.12 137.61 92.12 137.61 95.37 136.55 95.37 136.55 96.64 139.93 96.64 139.93 95.37 138.87 95.37 138.87 92.12 140.54 92.12"/>
        <polygon class="cls-7" points="145.15 92.12 145.15 90.86 140.54 90.86 140.54 92.12 142.22 92.12 142.22 95.37 141.16 95.37 141.16 96.64 144.54 96.64 144.54 95.37 143.48 95.37 143.48 92.12 145.15 92.12"/>
        <polygon class="cls-7" points="149.76 92.12 149.76 90.86 145.15 90.86 145.15 92.12 146.83 92.12 146.83 95.37 145.77 95.37 145.77 96.64 149.15 96.64 149.15 95.37 148.09 95.37 148.09 92.12 149.76 92.12"/>
        <polygon class="cls-7" points="154.37 92.12 154.37 90.86 149.76 90.86 149.76 92.12 151.44 92.12 151.44 95.37 150.38 95.37 150.38 96.64 153.76 96.64 153.76 95.37 152.7 95.37 152.7 92.12 154.37 92.12"/>
        <polygon class="cls-7" points="158.98 92.12 158.98 90.86 154.37 90.86 154.37 92.12 156.05 92.12 156.05 95.37 154.99 95.37 154.99 96.64 158.37 96.64 158.37 95.37 157.31 95.37 157.31 92.12 158.98 92.12"/>
        <polygon class="cls-7" points="163.59 92.12 163.59 90.86 158.98 90.86 158.98 92.12 160.66 92.12 160.66 95.37 159.6 95.37 159.6 96.64 162.98 96.64 162.98 95.37 161.92 95.37 161.92 92.12 163.59 92.12"/>
        <polygon class="cls-7" points="168.2 92.12 168.2 90.86 163.59 90.86 163.59 92.12 165.27 92.12 165.27 95.37 164.21 95.37 164.21 96.64 167.59 96.64 167.59 95.37 166.53 95.37 166.53 92.12 168.2 92.12"/>
        <polygon class="cls-7" points="172.81 92.12 172.81 90.86 168.2 90.86 168.2 92.12 169.88 92.12 169.88 95.37 168.82 95.37 168.82 96.64 172.2 96.64 172.2 95.37 171.14 95.37 171.14 92.12 172.81 92.12"/>
        <polygon class="cls-7" points="177.42 92.12 177.42 90.86 172.81 90.86 172.81 92.12 174.49 92.12 174.49 95.37 173.43 95.37 173.43 96.64 176.81 96.64 176.81 95.37 175.75 95.37 175.75 92.12 177.42 92.12"/>
        <polygon class="cls-7" points="182.03 92.12 182.03 90.86 177.42 90.86 177.42 92.12 179.1 92.12 179.1 95.37 178.04 95.37 178.04 96.64 181.42 96.64 181.42 95.37 180.36 95.37 180.36 92.12 182.03 92.12"/>
        <polygon class="cls-7" points="186.64 92.12 186.64 90.86 182.03 90.86 182.03 92.12 183.71 92.12 183.71 95.37 182.65 95.37 182.65 96.64 186.03 96.64 186.03 95.37 184.97 95.37 184.97 92.12 186.64 92.12"/>
        <polygon class="cls-7" points="191.25 92.12 191.25 90.86 186.64 90.86 186.64 92.12 188.32 92.12 188.32 95.37 187.26 95.37 187.26 96.64 190.64 96.64 190.64 95.37 189.58 95.37 189.58 92.12 191.25 92.12"/>
        <polygon class="cls-7" points="195.86 92.12 195.86 90.86 191.25 90.86 191.25 92.12 192.93 92.12 192.93 95.37 191.87 95.37 191.87 96.64 195.25 96.64 195.25 95.37 194.19 95.37 194.19 92.12 195.86 92.12"/>
        <polygon class="cls-7" points="200.47 92.12 200.47 90.86 195.86 90.86 195.86 92.12 197.54 92.12 197.54 95.37 196.48 95.37 196.48 96.64 199.86 96.64 199.86 95.37 198.8 95.37 198.8 92.12 200.47 92.12"/>
        <polygon class="cls-7" points="205.08 92.12 205.08 90.86 200.47 90.86 200.47 92.12 202.15 92.12 202.15 95.37 201.09 95.37 201.09 96.64 204.47 96.64 204.47 95.37 203.41 95.37 203.41 92.12 205.08 92.12"/>
        <polygon class="cls-7" points="209.69 92.12 209.69 90.86 205.08 90.86 205.08 92.12 206.76 92.12 206.76 95.37 205.7 95.37 205.7 96.64 209.08 96.64 209.08 95.37 208.02 95.37 208.02 92.12 209.69 92.12"/>
        <polygon class="cls-7" points="214.3 92.12 214.3 90.86 209.69 90.86 209.69 92.12 211.37 92.12 211.37 95.37 210.31 95.37 210.31 96.64 213.69 96.64 213.69 95.37 212.63 95.37 212.63 92.12 214.3 92.12"/>
        <polygon class="cls-7" points="218.91 92.12 218.91 90.86 214.3 90.86 214.3 92.12 215.98 92.12 215.98 95.37 214.92 95.37 214.92 96.64 218.3 96.64 218.3 95.37 217.24 95.37 217.24 92.12 218.91 92.12"/>
        <polygon class="cls-7" points="223.52 92.12 223.52 90.86 218.91 90.86 218.91 92.12 220.59 92.12 220.59 95.37 219.53 95.37 219.53 96.64 222.91 96.64 222.91 95.37 221.85 95.37 221.85 92.12 223.52 92.12"/>
        <polygon class="cls-7" points="228.13 92.12 228.13 90.86 223.52 90.86 223.52 92.12 225.2 92.12 225.2 95.37 224.14 95.37 224.14 96.64 227.52 96.64 227.52 95.37 226.46 95.37 226.46 92.12 228.13 92.12"/>
        <polygon class="cls-7" points="232.74 92.12 232.74 90.86 228.13 90.86 228.13 92.12 229.81 92.12 229.81 95.37 228.75 95.37 228.75 96.64 232.13 96.64 232.13 95.37 231.07 95.37 231.07 92.12 232.74 92.12"/>
        <polygon class="cls-7" points="237.35 92.12 237.35 90.86 232.74 90.86 232.74 92.12 234.42 92.12 234.42 95.37 233.36 95.37 233.36 96.64 236.74 96.64 236.74 95.37 235.68 95.37 235.68 92.12 237.35 92.12"/>
        <polygon class="cls-7" points="241.96 92.12 241.96 90.86 237.35 90.86 237.35 92.12 239.03 92.12 239.03 95.37 237.97 95.37 237.97 96.64 241.35 96.64 241.35 95.37 240.29 95.37 240.29 92.12 241.96 92.12"/>
        <polygon class="cls-7" points="246.57 92.12 246.57 90.86 241.96 90.86 241.96 92.12 243.64 92.12 243.64 95.37 242.58 95.37 242.58 96.64 245.96 96.64 245.96 95.37 244.9 95.37 244.9 92.12 246.57 92.12"/>
        <polygon class="cls-7" points="251.18 92.12 251.18 90.86 246.57 90.86 246.57 92.12 248.25 92.12 248.25 95.37 247.19 95.37 247.19 96.64 250.57 96.64 250.57 95.37 249.51 95.37 249.51 92.12 251.18 92.12"/>
        <polygon class="cls-7" points="255.79 92.12 255.79 90.86 251.18 90.86 251.18 92.12 252.86 92.12 252.86 95.37 251.8 95.37 251.8 96.64 255.18 96.64 255.18 95.37 254.12 95.37 254.12 92.12 255.79 92.12"/>
        <polygon class="cls-7" points="260.4 92.12 260.4 90.86 255.79 90.86 255.79 92.12 257.47 92.12 257.47 95.37 256.41 95.37 256.41 96.64 259.79 96.64 259.79 95.37 258.73 95.37 258.73 92.12 260.4 92.12"/>
        <polygon class="cls-7" points="265.01 92.12 265.01 90.86 260.4 90.86 260.4 92.12 262.08 92.12 262.08 95.37 261.02 95.37 261.02 96.64 264.39 96.64 264.39 95.37 263.34 95.37 263.34 92.12 265.01 92.12"/>
        <polygon class="cls-7" points="269.62 92.12 269.62 90.86 265.01 90.86 265.01 92.12 266.69 92.12 266.69 95.37 265.63 95.37 265.63 96.64 269 96.64 269 95.37 267.95 95.37 267.95 92.12 269.62 92.12"/>
        <polygon class="cls-7" points="274.23 92.12 274.23 90.86 269.62 90.86 269.62 92.12 271.3 92.12 271.3 95.37 270.24 95.37 270.24 96.64 273.61 96.64 273.61 95.37 272.56 95.37 272.56 92.12 274.23 92.12"/>
        <polygon class="cls-7" points="278.84 92.12 278.84 90.86 274.23 90.86 274.23 92.12 275.91 92.12 275.91 95.37 274.85 95.37 274.85 96.64 278.22 96.64 278.22 95.37 277.17 95.37 277.17 92.12 278.84 92.12"/>
        <polygon class="cls-7" points="283.45 92.12 283.45 90.86 278.84 90.86 278.84 92.12 280.52 92.12 280.52 95.37 279.46 95.37 279.46 96.64 282.83 96.64 282.83 95.37 281.78 95.37 281.78 92.12 283.45 92.12"/>
        <polygon class="cls-7" points="288.06 92.12 288.06 90.86 283.45 90.86 283.45 92.12 285.13 92.12 285.13 95.37 284.07 95.37 284.07 96.64 287.44 96.64 287.44 95.37 286.39 95.37 286.39 92.12 288.06 92.12"/>
        <polygon class="cls-7" points="292.67 92.12 292.67 90.86 288.06 90.86 288.06 92.12 289.74 92.12 289.74 95.37 288.68 95.37 288.68 96.64 292.05 96.64 292.05 95.37 291 95.37 291 92.12 292.67 92.12"/>
        <polygon class="cls-7" points="297.28 92.12 297.28 90.86 292.67 90.86 292.67 92.12 294.35 92.12 294.35 95.37 293.29 95.37 293.29 96.64 296.66 96.64 296.66 95.37 295.61 95.37 295.61 92.12 297.28 92.12"/>
        <polygon class="cls-7" points="301.89 92.12 301.89 90.86 297.28 90.86 297.28 92.12 298.96 92.12 298.96 95.37 297.9 95.37 297.9 96.64 301.27 96.64 301.27 95.37 300.22 95.37 300.22 92.12 301.89 92.12"/>
        <polygon class="cls-7" points="306.5 92.12 306.5 90.86 301.89 90.86 301.89 92.12 303.57 92.12 303.57 95.37 302.51 95.37 302.51 96.64 305.88 96.64 305.88 95.37 304.83 95.37 304.83 92.12 306.5 92.12"/>
        <polygon class="cls-7" points="311.11 92.12 311.11 90.86 306.5 90.86 306.5 92.12 308.18 92.12 308.18 95.37 307.12 95.37 307.12 96.64 310.49 96.64 310.49 95.37 309.44 95.37 309.44 92.12 311.11 92.12"/>
        <polygon class="cls-7" points="315.72 92.12 315.72 90.86 311.11 90.86 311.11 92.12 312.79 92.12 312.79 95.37 311.73 95.37 311.73 96.64 315.1 96.64 315.1 95.37 314.05 95.37 314.05 92.12 315.72 92.12"/>
        <polygon class="cls-7" points="320.33 92.12 320.33 90.86 315.72 90.86 315.72 92.12 317.4 92.12 317.4 95.37 316.34 95.37 316.34 96.64 319.71 96.64 319.71 95.37 318.66 95.37 318.66 92.12 320.33 92.12"/>
        <polygon class="cls-7" points="324.94 92.12 324.94 90.86 320.33 90.86 320.33 92.12 322.01 92.12 322.01 95.37 320.95 95.37 320.95 96.64 324.32 96.64 324.32 95.37 323.27 95.37 323.27 92.12 324.94 92.12"/>
        <polygon class="cls-7" points="329.55 92.12 329.55 90.86 324.94 90.86 324.94 92.12 326.62 92.12 326.62 95.37 325.56 95.37 325.56 96.64 328.93 96.64 328.93 95.37 327.88 95.37 327.88 92.12 329.55 92.12"/>
        <polygon class="cls-7" points="334.16 92.12 334.16 90.86 329.55 90.86 329.55 92.12 331.23 92.12 331.23 95.37 330.17 95.37 330.17 96.64 333.54 96.64 333.54 95.37 332.49 95.37 332.49 92.12 334.16 92.12"/>
        <polygon class="cls-7" points="338.77 92.12 338.77 90.86 334.16 90.86 334.16 92.12 335.84 92.12 335.84 95.37 334.78 95.37 334.78 96.64 338.15 96.64 338.15 95.37 337.1 95.37 337.1 92.12 338.77 92.12"/>
        <polygon class="cls-7" points="343.38 92.12 343.38 90.86 338.77 90.86 338.77 92.12 340.45 92.12 340.45 95.37 339.39 95.37 339.39 96.64 342.76 96.64 342.76 95.37 341.71 95.37 341.71 92.12 343.38 92.12"/>
        <polygon class="cls-7" points="347.99 92.12 347.99 90.86 343.38 90.86 343.38 92.12 345.06 92.12 345.06 95.37 344 95.37 344 96.64 347.37 96.64 347.37 95.37 346.32 95.37 346.32 92.12 347.99 92.12"/>
        <polygon class="cls-7" points="352.6 92.12 352.6 90.86 347.99 90.86 347.99 92.12 349.67 92.12 349.67 95.37 348.61 95.37 348.61 96.64 351.98 96.64 351.98 95.37 350.93 95.37 350.93 92.12 352.6 92.12"/>
        <polygon class="cls-7" points="357.21 92.12 357.21 90.86 352.6 90.86 352.6 92.12 354.28 92.12 354.28 95.37 353.22 95.37 353.22 96.64 356.59 96.64 356.59 95.37 355.54 95.37 355.54 92.12 357.21 92.12"/>
        <polygon class="cls-7" points="361.82 92.12 361.82 90.86 357.21 90.86 357.21 92.12 358.89 92.12 358.89 95.37 357.83 95.37 357.83 96.64 361.2 96.64 361.2 95.37 360.15 95.37 360.15 92.12 361.82 92.12"/>
        <polygon class="cls-7" points="366.43 92.12 366.43 90.86 361.82 90.86 361.82 92.12 363.5 92.12 363.5 95.37 362.44 95.37 362.44 96.64 365.81 96.64 365.81 95.37 364.76 95.37 364.76 92.12 366.43 92.12"/>
        <polygon class="cls-7" points="371.04 92.12 371.04 90.86 366.43 90.86 366.43 92.12 368.11 92.12 368.11 95.37 367.05 95.37 367.05 96.64 370.42 96.64 370.42 95.37 369.37 95.37 369.37 92.12 371.04 92.12"/>
        <polygon class="cls-7" points="375.65 92.12 375.65 90.86 371.04 90.86 371.04 92.12 372.72 92.12 372.72 95.37 371.66 95.37 371.66 96.64 375.03 96.64 375.03 95.37 373.98 95.37 373.98 92.12 375.65 92.12"/>
        <polygon class="cls-7" points="380.26 92.12 380.26 90.86 375.65 90.86 375.65 92.12 377.33 92.12 377.33 95.37 376.27 95.37 376.27 96.64 379.64 96.64 379.64 95.37 378.59 95.37 378.59 92.12 380.26 92.12"/>
        <polygon class="cls-7" points="384.87 92.12 384.87 90.86 380.26 90.86 380.26 92.12 381.94 92.12 381.94 95.37 380.88 95.37 380.88 96.64 384.25 96.64 384.25 95.37 383.2 95.37 383.2 92.12 384.87 92.12"/>
        <polygon class="cls-7" points="389.48 92.12 389.48 90.86 384.87 90.86 384.87 92.12 386.55 92.12 386.55 95.37 385.49 95.37 385.49 96.64 388.86 96.64 388.86 95.37 387.81 95.37 387.81 92.12 389.48 92.12"/>
        <polygon class="cls-7" points="394.09 92.12 394.09 90.86 389.48 90.86 389.48 92.12 391.16 92.12 391.16 95.37 390.1 95.37 390.1 96.64 393.47 96.64 393.47 95.37 392.42 95.37 392.42 92.12 394.09 92.12"/>
        <polygon class="cls-7" points="398.7 92.12 398.7 90.86 394.09 90.86 394.09 92.12 395.77 92.12 395.77 95.37 394.71 95.37 394.71 96.64 398.08 96.64 398.08 95.37 397.03 95.37 397.03 92.12 398.7 92.12"/>
        <polygon class="cls-7" points="403.31 92.12 403.31 90.86 398.7 90.86 398.7 92.12 400.38 92.12 400.38 95.37 399.32 95.37 399.32 96.64 402.69 96.64 402.69 95.37 401.64 95.37 401.64 92.12 403.31 92.12"/>
        <polygon class="cls-7" points="407.92 92.12 407.92 90.86 403.31 90.86 403.31 92.12 404.99 92.12 404.99 95.37 403.93 95.37 403.93 96.64 407.3 96.64 407.3 95.37 406.25 95.37 406.25 92.12 407.92 92.12"/>
        <polygon class="cls-7" points="410.88 87 409.71 86.52 407.92 90.86 409.08 91.34 409.74 89.76 412.74 91 412.33 92 413.5 92.48 414.81 89.3 413.65 88.82 413.24 89.81 410.23 88.57 410.88 87"/>
        <polygon class="cls-7" points="412.68 82.65 411.51 82.17 409.71 86.52 410.88 87 411.54 85.41 414.54 86.66 414.13 87.65 415.3 88.13 416.61 84.96 415.44 84.47 415.03 85.47 412.03 84.23 412.68 82.65"/>
        <polygon class="cls-7" points="414.48 78.31 413.31 77.83 411.51 82.17 412.68 82.65 413.33 81.07 416.34 82.31 415.93 83.31 417.09 83.79 418.41 80.61 417.24 80.13 416.83 81.12 413.83 79.88 414.48 78.31"/>
        <polygon class="cls-7" points="416.27 73.96 415.11 73.48 413.31 77.83 414.48 78.31 415.13 76.73 418.14 77.97 417.72 78.96 418.89 79.45 420.21 76.27 419.04 75.79 418.63 76.78 415.62 75.54 416.27 73.96"/>
        <polygon class="cls-7" points="418.07 69.62 416.9 69.14 415.11 73.48 416.27 73.96 416.93 72.38 419.93 73.62 419.52 74.62 420.69 75.1 422 71.92 420.84 71.44 420.42 72.44 417.42 71.19 418.07 69.62"/>
        <polygon class="cls-7" points="419.87 65.28 418.7 64.79 416.9 69.14 418.07 69.62 418.73 68.04 421.73 69.28 421.32 70.27 422.49 70.76 423.8 67.58 422.63 67.1 422.22 68.09 419.22 66.85 419.87 65.28"/>
        <polygon class="cls-7" points="421.67 60.93 420.5 60.45 418.7 64.79 419.87 65.28 420.52 63.69 423.53 64.93 423.12 65.93 424.28 66.41 425.6 63.23 424.43 62.75 424.02 63.75 421.02 62.5 421.67 60.93"/>
        <polygon class="cls-7" points="423.46 56.59 422.3 56.1 420.5 60.45 421.67 60.93 422.32 59.35 425.33 60.59 424.91 61.58 426.08 62.07 427.4 58.89 426.23 58.41 425.82 59.4 422.81 58.16 423.46 56.59"/>
        <polygon class="cls-7" points="425.26 52.24 424.09 51.76 422.3 56.1 423.46 56.59 424.12 55 427.12 56.25 426.71 57.24 427.88 57.72 429.19 54.55 428.03 54.06 427.61 55.06 424.61 53.81 425.26 52.24"/>
        <polygon class="cls-7" points="427.06 47.9 425.89 47.42 424.09 51.76 425.26 52.24 425.92 50.66 428.92 51.9 428.51 52.9 429.68 53.38 430.99 50.2 429.82 49.72 429.41 50.71 426.41 49.47 427.06 47.9"/>
        <polygon class="cls-7" points="428.86 43.55 427.69 43.07 425.89 47.42 427.06 47.9 427.71 46.31 430.72 47.56 430.31 48.55 431.47 49.03 432.79 45.86 431.62 45.37 431.21 46.37 428.2 45.13 428.86 43.55"/>
        <polygon class="cls-7" points="430.65 39.21 429.49 38.73 427.69 43.07 428.86 43.55 429.51 41.97 432.51 43.21 432.1 44.21 433.27 44.69 434.59 41.51 433.42 41.03 433.01 42.02 430 40.78 430.65 39.21"/>
        <polygon class="cls-7" points="432.45 34.87 431.28 34.38 429.49 38.73 430.65 39.21 431.31 37.63 434.31 38.87 433.9 39.86 435.07 40.35 436.38 37.17 435.22 36.69 434.8 37.68 431.8 36.44 432.45 34.87"/>
        <polygon class="cls-7" points="434.25 30.52 433.08 30.04 431.28 34.38 432.45 34.87 433.11 33.28 436.11 34.52 435.7 35.52 436.87 36 438.18 32.82 437.01 32.34 436.6 33.34 433.6 32.09 434.25 30.52"/>
        <polygon class="cls-7" points="436.04 26.18 434.88 25.69 433.08 30.04 434.25 30.52 434.9 28.94 437.91 30.18 437.5 31.17 438.66 31.66 439.98 28.48 438.81 28 438.4 28.99 435.39 27.75 436.04 26.18"/>
        <polygon class="cls-7" points="437.84 21.83 436.67 21.35 434.88 25.69 436.04 26.18 436.7 24.59 439.7 25.83 439.29 26.83 440.46 27.31 441.77 24.14 440.61 23.65 440.2 24.65 437.19 23.4 437.84 21.83"/>
        <polygon class="cls-7" points="432.05 20.09 432.05 21.35 436.67 21.35 436.67 20.09 434.99 20.09 434.99 16.83 436.05 16.83 436.05 15.57 432.67 15.57 432.67 16.83 433.72 16.83 433.72 20.09 432.05 20.09"/>
        <polygon class="cls-7" points="427.43 20.09 427.43 21.35 432.05 21.35 432.05 20.09 430.37 20.09 430.37 16.83 431.43 16.83 431.43 15.57 428.05 15.57 428.05 16.83 429.1 16.83 429.1 20.09 427.43 20.09"/>
        <polygon class="cls-7" points="422.81 20.09 422.81 21.35 427.43 21.35 427.43 20.09 425.75 20.09 425.75 16.83 426.8 16.83 426.8 15.57 423.42 15.57 423.42 16.83 424.48 16.83 424.48 20.09 422.81 20.09"/>
        <polygon class="cls-7" points="418.19 20.09 418.19 21.35 422.81 21.35 422.81 20.09 421.12 20.09 421.12 16.83 422.18 16.83 422.18 15.57 418.8 15.57 418.8 16.83 419.86 16.83 419.86 20.09 418.19 20.09"/>
        <polygon class="cls-7" points="413.57 20.09 413.57 21.35 418.19 21.35 418.19 20.09 416.5 20.09 416.5 16.83 417.56 16.83 417.56 15.57 414.18 15.57 414.18 16.83 415.24 16.83 415.24 20.09 413.57 20.09"/>
        <polygon class="cls-7" points="408.94 20.09 408.94 21.35 413.57 21.35 413.57 20.09 411.88 20.09 411.88 16.83 412.94 16.83 412.94 15.57 409.56 15.57 409.56 16.83 410.62 16.83 410.62 20.09 408.94 20.09"/>
        <polygon class="cls-7" points="404.32 20.09 404.32 21.35 408.94 21.35 408.94 20.09 407.26 20.09 407.26 16.83 408.32 16.83 408.32 15.57 404.94 15.57 404.94 16.83 405.99 16.83 405.99 20.09 404.32 20.09"/>
        <polygon class="cls-7" points="399.7 20.09 399.7 21.35 404.32 21.35 404.32 20.09 402.64 20.09 402.64 16.83 403.69 16.83 403.69 15.57 400.31 15.57 400.31 16.83 401.37 16.83 401.37 20.09 399.7 20.09"/>
        <polygon class="cls-7" points="395.08 20.09 395.08 21.35 399.7 21.35 399.7 20.09 398.01 20.09 398.01 16.83 399.07 16.83 399.07 15.57 395.69 15.57 395.69 16.83 396.75 16.83 396.75 20.09 395.08 20.09"/>
        <polygon class="cls-7" points="390.46 20.09 390.46 21.35 395.08 21.35 395.08 20.09 393.39 20.09 393.39 16.83 394.45 16.83 394.45 15.57 391.07 15.57 391.07 16.83 392.13 16.83 392.13 20.09 390.46 20.09"/>
        <polygon class="cls-7" points="385.83 20.09 385.83 21.35 390.46 21.35 390.46 20.09 388.77 20.09 388.77 16.83 389.83 16.83 389.83 15.57 386.45 15.57 386.45 16.83 387.51 16.83 387.51 20.09 385.83 20.09"/>
        <polygon class="cls-7" points="381.21 20.09 381.21 21.35 385.83 21.35 385.83 20.09 384.15 20.09 384.15 16.83 385.21 16.83 385.21 15.57 381.83 15.57 381.83 16.83 382.88 16.83 382.88 20.09 381.21 20.09"/>
        <polygon class="cls-7" points="376.59 20.09 376.59 21.35 381.21 21.35 381.21 20.09 379.53 20.09 379.53 16.83 380.58 16.83 380.58 15.57 377.2 15.57 377.2 16.83 378.26 16.83 378.26 20.09 376.59 20.09"/>
        <polygon class="cls-7" points="371.97 20.09 371.97 21.35 376.59 21.35 376.59 20.09 374.9 20.09 374.9 16.83 375.96 16.83 375.96 15.57 372.58 15.57 372.58 16.83 373.64 16.83 373.64 20.09 371.97 20.09"/>
        <polygon class="cls-7" points="367.35 20.09 367.35 21.35 371.97 21.35 371.97 20.09 370.28 20.09 370.28 16.83 371.34 16.83 371.34 15.57 367.96 15.57 367.96 16.83 369.02 16.83 369.02 20.09 367.35 20.09"/>
        <polygon class="cls-7" points="362.72 20.09 362.72 21.35 367.35 21.35 367.35 20.09 365.66 20.09 365.66 16.83 366.72 16.83 366.72 15.57 363.34 15.57 363.34 16.83 364.4 16.83 364.4 20.09 362.72 20.09"/>
        <polygon class="cls-7" points="358.1 20.09 358.1 21.35 362.72 21.35 362.72 20.09 361.04 20.09 361.04 16.83 362.1 16.83 362.1 15.57 358.72 15.57 358.72 16.83 359.77 16.83 359.77 20.09 358.1 20.09"/>
        <polygon class="cls-7" points="353.48 20.09 353.48 21.35 358.1 21.35 358.1 20.09 356.42 20.09 356.42 16.83 357.47 16.83 357.47 15.57 354.09 15.57 354.09 16.83 355.15 16.83 355.15 20.09 353.48 20.09"/>
        <polygon class="cls-7" points="348.86 20.09 348.86 21.35 353.48 21.35 353.48 20.09 351.8 20.09 351.8 16.83 352.85 16.83 352.85 15.57 349.47 15.57 349.47 16.83 350.53 16.83 350.53 20.09 348.86 20.09"/>
        <polygon class="cls-7" points="344.24 20.09 344.24 21.35 348.86 21.35 348.86 20.09 347.17 20.09 347.17 16.83 348.23 16.83 348.23 15.57 344.85 15.57 344.85 16.83 345.91 16.83 345.91 20.09 344.24 20.09"/>
        <polygon class="cls-7" points="339.61 20.09 339.61 21.35 344.24 21.35 344.24 20.09 342.55 20.09 342.55 16.83 343.61 16.83 343.61 15.57 340.23 15.57 340.23 16.83 341.29 16.83 341.29 20.09 339.61 20.09"/>
        <polygon class="cls-7" points="334.99 20.09 334.99 21.35 339.61 21.35 339.61 20.09 337.93 20.09 337.93 16.83 338.99 16.83 338.99 15.57 335.61 15.57 335.61 16.83 336.66 16.83 336.66 20.09 334.99 20.09"/>
        <polygon class="cls-7" points="330.37 20.09 330.37 21.35 334.99 21.35 334.99 20.09 333.31 20.09 333.31 16.83 334.37 16.83 334.37 15.57 330.99 15.57 330.99 16.83 332.04 16.83 332.04 20.09 330.37 20.09"/>
        <polygon class="cls-7" points="325.75 20.09 325.75 21.35 330.37 21.35 330.37 20.09 328.69 20.09 328.69 16.83 329.74 16.83 329.74 15.57 326.36 15.57 326.36 16.83 327.42 16.83 327.42 20.09 325.75 20.09"/>
        <polygon class="cls-7" points="321.13 20.09 321.13 21.35 325.75 21.35 325.75 20.09 324.06 20.09 324.06 16.83 325.12 16.83 325.12 15.57 321.74 15.57 321.74 16.83 322.8 16.83 322.8 20.09 321.13 20.09"/>
        <polygon class="cls-7" points="316.51 20.09 316.51 21.35 321.13 21.35 321.13 20.09 319.44 20.09 319.44 16.83 320.5 16.83 320.5 15.57 317.12 15.57 317.12 16.83 318.18 16.83 318.18 20.09 316.51 20.09"/>
        <polygon class="cls-7" points="311.88 20.09 311.88 21.35 316.51 21.35 316.51 20.09 314.82 20.09 314.82 16.83 315.88 16.83 315.88 15.57 312.5 15.57 312.5 16.83 313.56 16.83 313.56 20.09 311.88 20.09"/>
        <polygon class="cls-7" points="307.26 20.09 307.26 21.35 311.88 21.35 311.88 20.09 310.2 20.09 310.2 16.83 311.26 16.83 311.26 15.57 307.88 15.57 307.88 16.83 308.93 16.83 308.93 20.09 307.26 20.09"/>
        <polygon class="cls-7" points="302.64 20.09 302.64 21.35 307.26 21.35 307.26 20.09 305.58 20.09 305.58 16.83 306.63 16.83 306.63 15.57 303.25 15.57 303.25 16.83 304.31 16.83 304.31 20.09 302.64 20.09"/>
        <polygon class="cls-7" points="298.02 20.09 298.02 21.35 302.64 21.35 302.64 20.09 300.95 20.09 300.95 16.83 302.01 16.83 302.01 15.57 298.63 15.57 298.63 16.83 299.69 16.83 299.69 20.09 298.02 20.09"/>
        <polygon class="cls-7" points="293.4 20.09 293.4 21.35 298.02 21.35 298.02 20.09 296.33 20.09 296.33 16.83 297.39 16.83 297.39 15.57 294.01 15.57 294.01 16.83 295.07 16.83 295.07 20.09 293.4 20.09"/>
        <polygon class="cls-7" points="288.77 20.09 288.77 21.35 293.4 21.35 293.4 20.09 291.71 20.09 291.71 16.83 292.77 16.83 292.77 15.57 289.39 15.57 289.39 16.83 290.45 16.83 290.45 20.09 288.77 20.09"/>
        <polygon class="cls-7" points="284.15 20.09 284.15 21.35 288.77 21.35 288.77 20.09 287.09 20.09 287.09 16.83 288.15 16.83 288.15 15.57 284.77 15.57 284.77 16.83 285.82 16.83 285.82 20.09 284.15 20.09"/>
        <polygon class="cls-7" points="279.53 20.09 279.53 21.35 284.15 21.35 284.15 20.09 282.47 20.09 282.47 16.83 283.52 16.83 283.52 15.57 280.14 15.57 280.14 16.83 281.2 16.83 281.2 20.09 279.53 20.09"/>
        <polygon class="cls-7" points="274.91 20.09 274.91 21.35 279.53 21.35 279.53 20.09 277.84 20.09 277.84 16.83 278.9 16.83 278.9 15.57 275.52 15.57 275.52 16.83 276.58 16.83 276.58 20.09 274.91 20.09"/>
        <polygon class="cls-7" points="270.29 20.09 270.29 21.35 274.91 21.35 274.91 20.09 273.22 20.09 273.22 16.83 274.28 16.83 274.28 15.57 270.9 15.57 270.9 16.83 271.96 16.83 271.96 20.09 270.29 20.09"/>
        <polygon class="cls-7" points="265.66 20.09 265.66 21.35 270.29 21.35 270.29 20.09 268.6 20.09 268.6 16.83 269.66 16.83 269.66 15.57 266.28 15.57 266.28 16.83 267.34 16.83 267.34 20.09 265.66 20.09"/>
        <polygon class="cls-7" points="261.04 20.09 261.04 21.35 265.66 21.35 265.66 20.09 263.98 20.09 263.98 16.83 265.04 16.83 265.04 15.57 261.66 15.57 261.66 16.83 262.71 16.83 262.71 20.09 261.04 20.09"/>
        <polygon class="cls-7" points="256.42 20.09 256.42 21.35 261.04 21.35 261.04 20.09 259.36 20.09 259.36 16.83 260.41 16.83 260.41 15.57 257.03 15.57 257.03 16.83 258.09 16.83 258.09 20.09 256.42 20.09"/>
        <polygon class="cls-7" points="251.8 20.09 251.8 21.35 256.42 21.35 256.42 20.09 254.74 20.09 254.74 16.83 255.79 16.83 255.79 15.57 252.41 15.57 252.41 16.83 253.47 16.83 253.47 20.09 251.8 20.09"/>
        <polygon class="cls-7" points="247.18 20.09 247.18 21.35 251.8 21.35 251.8 20.09 250.11 20.09 250.11 16.83 251.17 16.83 251.17 15.57 247.79 15.57 247.79 16.83 248.85 16.83 248.85 20.09 247.18 20.09"/>
        <polygon class="cls-7" points="242.55 20.09 242.55 21.35 247.18 21.35 247.18 20.09 245.49 20.09 245.49 16.83 246.55 16.83 246.55 15.57 243.17 15.57 243.17 16.83 244.23 16.83 244.23 20.09 242.55 20.09"/>
        <polygon class="cls-7" points="237.93 20.09 237.93 21.35 242.55 21.35 242.55 20.09 240.87 20.09 240.87 16.83 241.93 16.83 241.93 15.57 238.55 15.57 238.55 16.83 239.6 16.83 239.6 20.09 237.93 20.09"/>
        <polygon class="cls-7" points="233.31 20.09 233.31 21.35 237.93 21.35 237.93 20.09 236.25 20.09 236.25 16.83 237.31 16.83 237.31 15.57 233.93 15.57 233.93 16.83 234.98 16.83 234.98 20.09 233.31 20.09"/>
        <polygon class="cls-7" points="228.69 20.09 228.69 21.35 233.31 21.35 233.31 20.09 231.63 20.09 231.63 16.83 232.68 16.83 232.68 15.57 229.3 15.57 229.3 16.83 230.36 16.83 230.36 20.09 228.69 20.09"/>
        <polygon class="cls-7" points="224.07 20.09 224.07 21.35 228.69 21.35 228.69 20.09 227 20.09 227 16.83 228.06 16.83 228.06 15.57 224.68 15.57 224.68 16.83 225.74 16.83 225.74 20.09 224.07 20.09"/>
        <polygon class="cls-7" points="219.45 20.09 219.45 21.35 224.07 21.35 224.07 20.09 222.38 20.09 222.38 16.83 223.44 16.83 223.44 15.57 220.06 15.57 220.06 16.83 221.12 16.83 221.12 20.09 219.45 20.09"/>
        <polygon class="cls-7" points="214.82 20.09 214.82 21.35 219.45 21.35 219.45 20.09 217.76 20.09 217.76 16.83 218.82 16.83 218.82 15.57 215.44 15.57 215.44 16.83 216.5 16.83 216.5 20.09 214.82 20.09"/>
        <polygon class="cls-7" points="210.2 20.09 210.2 21.35 214.82 21.35 214.82 20.09 213.14 20.09 213.14 16.83 214.2 16.83 214.2 15.57 210.82 15.57 210.82 16.83 211.87 16.83 211.87 20.09 210.2 20.09"/>
        <polygon class="cls-7" points="205.58 20.09 205.58 21.35 210.2 21.35 210.2 20.09 208.52 20.09 208.52 16.83 209.57 16.83 209.57 15.57 206.19 15.57 206.19 16.83 207.25 16.83 207.25 20.09 205.58 20.09"/>
        <polygon class="cls-7" points="200.96 20.09 200.96 21.35 205.58 21.35 205.58 20.09 203.89 20.09 203.89 16.83 204.95 16.83 204.95 15.57 201.57 15.57 201.57 16.83 202.63 16.83 202.63 20.09 200.96 20.09"/>
        <polygon class="cls-7" points="196.34 20.09 196.34 21.35 200.96 21.35 200.96 20.09 199.27 20.09 199.27 16.83 200.33 16.83 200.33 15.57 196.95 15.57 196.95 16.83 198.01 16.83 198.01 20.09 196.34 20.09"/>
        <polygon class="cls-7" points="191.71 20.09 191.71 21.35 196.34 21.35 196.34 20.09 194.65 20.09 194.65 16.83 195.71 16.83 195.71 15.57 192.33 15.57 192.33 16.83 193.39 16.83 193.39 20.09 191.71 20.09"/>
        <polygon class="cls-7" points="187.09 20.09 187.09 21.35 191.71 21.35 191.71 20.09 190.03 20.09 190.03 16.83 191.09 16.83 191.09 15.57 187.71 15.57 187.71 16.83 188.76 16.83 188.76 20.09 187.09 20.09"/>
        <polygon class="cls-7" points="182.47 20.09 182.47 21.35 187.09 21.35 187.09 20.09 185.41 20.09 185.41 16.83 186.46 16.83 186.46 15.57 183.08 15.57 183.08 16.83 184.14 16.83 184.14 20.09 182.47 20.09"/>
        <polygon class="cls-7" points="177.85 20.09 177.85 21.35 182.47 21.35 182.47 20.09 180.78 20.09 180.78 16.83 181.84 16.83 181.84 15.57 178.46 15.57 178.46 16.83 179.52 16.83 179.52 20.09 177.85 20.09"/>
        <polygon class="cls-7" points="173.23 20.09 173.23 21.35 177.85 21.35 177.85 20.09 176.16 20.09 176.16 16.83 177.22 16.83 177.22 15.57 173.84 15.57 173.84 16.83 174.9 16.83 174.9 20.09 173.23 20.09"/>
        <polygon class="cls-7" points="168.6 20.09 168.6 21.35 173.23 21.35 173.23 20.09 171.54 20.09 171.54 16.83 172.6 16.83 172.6 15.57 169.22 15.57 169.22 16.83 170.28 16.83 170.28 20.09 168.6 20.09"/>
        <polygon class="cls-7" points="163.98 20.09 163.98 21.35 168.6 21.35 168.6 20.09 166.92 20.09 166.92 16.83 167.98 16.83 167.98 15.57 164.6 15.57 164.6 16.83 165.65 16.83 165.65 20.09 163.98 20.09"/>
        <polygon class="cls-7" points="159.36 20.09 159.36 21.35 163.98 21.35 163.98 20.09 162.3 20.09 162.3 16.83 163.35 16.83 163.35 15.57 159.97 15.57 159.97 16.83 161.03 16.83 161.03 20.09 159.36 20.09"/>
        <polygon class="cls-7" points="154.74 20.09 154.74 21.35 159.36 21.35 159.36 20.09 157.68 20.09 157.68 16.83 158.73 16.83 158.73 15.57 155.35 15.57 155.35 16.83 156.41 16.83 156.41 20.09 154.74 20.09"/>
        <polygon class="cls-7" points="150.12 20.09 150.12 21.35 154.74 21.35 154.74 20.09 153.05 20.09 153.05 16.83 154.11 16.83 154.11 15.57 150.73 15.57 150.73 16.83 151.79 16.83 151.79 20.09 150.12 20.09"/>
        <polygon class="cls-7" points="145.49 20.09 145.49 21.35 150.12 21.35 150.12 20.09 148.43 20.09 148.43 16.83 149.49 16.83 149.49 15.57 146.11 15.57 146.11 16.83 147.17 16.83 147.17 20.09 145.49 20.09"/>
        <polygon class="cls-7" points="140.87 20.09 140.87 21.35 145.49 21.35 145.49 20.09 143.81 20.09 143.81 16.83 144.87 16.83 144.87 15.57 141.49 15.57 141.49 16.83 142.54 16.83 142.54 20.09 140.87 20.09"/>
        <polygon class="cls-7" points="136.25 20.09 136.25 21.35 140.87 21.35 140.87 20.09 139.19 20.09 139.19 16.83 140.25 16.83 140.25 15.57 136.87 15.57 136.87 16.83 137.92 16.83 137.92 20.09 136.25 20.09"/>
        <polygon class="cls-7" points="131.63 20.09 131.63 21.35 136.25 21.35 136.25 20.09 134.57 20.09 134.57 16.83 135.62 16.83 135.62 15.57 132.24 15.57 132.24 16.83 133.3 16.83 133.3 20.09 131.63 20.09"/>
        <polygon class="cls-7" points="127.01 20.09 127.01 21.35 131.63 21.35 131.63 20.09 129.94 20.09 129.94 16.83 131 16.83 131 15.57 127.62 15.57 127.62 16.83 128.68 16.83 128.68 20.09 127.01 20.09"/>
        <polygon class="cls-7" points="122.39 20.09 122.39 21.35 127.01 21.35 127.01 20.09 125.32 20.09 125.32 16.83 126.38 16.83 126.38 15.57 123 15.57 123 16.83 124.06 16.83 124.06 20.09 122.39 20.09"/>
        <polygon class="cls-7" points="117.76 20.09 117.76 21.35 122.39 21.35 122.39 20.09 120.7 20.09 120.7 16.83 121.76 16.83 121.76 15.57 118.38 15.57 118.38 16.83 119.44 16.83 119.44 20.09 117.76 20.09"/>
        <polygon class="cls-7" points="113.14 20.09 113.14 21.35 117.76 21.35 117.76 20.09 116.08 20.09 116.08 16.83 117.14 16.83 117.14 15.57 113.76 15.57 113.76 16.83 114.81 16.83 114.81 20.09 113.14 20.09"/>
        <polygon class="cls-7" points="108.52 20.09 108.52 21.35 113.14 21.35 113.14 20.09 111.46 20.09 111.46 16.83 112.51 16.83 112.51 15.57 109.13 15.57 109.13 16.83 110.19 16.83 110.19 20.09 108.52 20.09"/>
        <polygon class="cls-7" points="103.9 20.09 103.9 21.35 108.52 21.35 108.52 20.09 106.83 20.09 106.83 16.83 107.89 16.83 107.89 15.57 104.51 15.57 104.51 16.83 105.57 16.83 105.57 20.09 103.9 20.09"/>
        <polygon class="cls-7" points="99.28 20.09 99.28 21.35 103.9 21.35 103.9 20.09 102.21 20.09 102.21 16.83 103.27 16.83 103.27 15.57 99.89 15.57 99.89 16.83 100.95 16.83 100.95 20.09 99.28 20.09"/>
        <polygon class="cls-7" points="94.65 20.09 94.65 21.35 99.28 21.35 99.28 20.09 97.59 20.09 97.59 16.83 98.65 16.83 98.65 15.57 95.27 15.57 95.27 16.83 96.33 16.83 96.33 20.09 94.65 20.09"/>
        <polygon class="cls-7" points="90.03 20.09 90.03 21.35 94.65 21.35 94.65 20.09 92.97 20.09 92.97 16.83 94.03 16.83 94.03 15.57 90.65 15.57 90.65 16.83 91.7 16.83 91.7 20.09 90.03 20.09"/>
        <polygon class="cls-7" points="85.41 20.09 85.41 21.35 90.03 21.35 90.03 20.09 88.35 20.09 88.35 16.83 89.4 16.83 89.4 15.57 86.02 15.57 86.02 16.83 87.08 16.83 87.08 20.09 85.41 20.09"/>
        <polygon class="cls-7" points="80.79 20.09 80.79 21.35 85.41 21.35 85.41 20.09 83.72 20.09 83.72 16.83 84.78 16.83 84.78 15.57 81.4 15.57 81.4 16.83 82.46 16.83 82.46 20.09 80.79 20.09"/>
        <polygon class="cls-7" points="76.17 20.09 76.17 21.35 80.79 21.35 80.79 20.09 79.1 20.09 79.1 16.83 80.16 16.83 80.16 15.57 76.78 15.57 76.78 16.83 77.84 16.83 77.84 20.09 76.17 20.09"/>
        <polygon class="cls-7" points="71.54 20.09 71.54 21.35 76.17 21.35 76.17 20.09 74.48 20.09 74.48 16.83 75.54 16.83 75.54 15.57 72.16 15.57 72.16 16.83 73.22 16.83 73.22 20.09 71.54 20.09"/>
        <polygon class="cls-7" points="66.92 20.09 66.92 21.35 71.54 21.35 71.54 20.09 69.86 20.09 69.86 16.83 70.92 16.83 70.92 15.57 67.54 15.57 67.54 16.83 68.59 16.83 68.59 20.09 66.92 20.09"/>
        <polygon class="cls-7" points="62.3 20.09 62.3 21.35 66.92 21.35 66.92 20.09 65.24 20.09 65.24 16.83 66.29 16.83 66.29 15.57 62.91 15.57 62.91 16.83 63.97 16.83 63.97 20.09 62.3 20.09"/>
        <polygon class="cls-7" points="57.68 20.09 57.68 21.35 62.3 21.35 62.3 20.09 60.62 20.09 60.62 16.83 61.67 16.83 61.67 15.57 58.29 15.57 58.29 16.83 59.35 16.83 59.35 20.09 57.68 20.09"/>
        <polygon class="cls-7" points="53.06 20.09 53.06 21.35 57.68 21.35 57.68 20.09 55.99 20.09 55.99 16.83 57.05 16.83 57.05 15.57 53.67 15.57 53.67 16.83 54.73 16.83 54.73 20.09 53.06 20.09"/>
        <polygon class="cls-7" points="48.43 20.09 48.43 21.35 53.06 21.35 53.06 20.09 51.37 20.09 51.37 16.83 52.43 16.83 52.43 15.57 49.05 15.57 49.05 16.83 50.11 16.83 50.11 20.09 48.43 20.09"/>
        <polygon class="cls-7" points="43.81 20.09 43.81 21.35 48.43 21.35 48.43 20.09 46.75 20.09 46.75 16.83 47.81 16.83 47.81 15.57 44.43 15.57 44.43 16.83 45.48 16.83 45.48 20.09 43.81 20.09"/>
        <polygon class="cls-7" points="39.19 20.09 39.19 21.35 43.81 21.35 43.81 20.09 42.13 20.09 42.13 16.83 43.19 16.83 43.19 15.57 39.81 15.57 39.81 16.83 40.86 16.83 40.86 20.09 39.19 20.09"/>
        <polygon class="cls-7" points="34.57 20.09 34.57 21.35 39.19 21.35 39.19 20.09 37.51 20.09 37.51 16.83 38.56 16.83 38.56 15.57 35.18 15.57 35.18 16.83 36.24 16.83 36.24 20.09 34.57 20.09"/>
        <polygon class="cls-7" points="29.95 20.09 29.95 21.35 34.57 21.35 34.57 20.09 32.88 20.09 32.88 16.83 33.94 16.83 33.94 15.57 30.56 15.57 30.56 16.83 31.62 16.83 31.62 20.09 29.95 20.09"/>
        <polygon class="cls-7" points="25.33 20.09 25.33 21.35 29.95 21.35 29.95 20.09 28.26 20.09 28.26 16.83 29.32 16.83 29.32 15.57 25.94 15.57 25.94 16.83 27 16.83 27 20.09 25.33 20.09"/>
        <polygon class="cls-7" points="20.7 20.09 20.7 21.35 25.33 21.35 25.33 20.09 23.64 20.09 23.64 16.83 24.7 16.83 24.7 15.57 21.32 15.57 21.32 16.83 22.38 16.83 22.38 20.09 20.7 20.09"/>
        <polygon class="cls-7" points="16.08 20.09 16.08 21.35 20.7 21.35 20.7 20.09 19.02 20.09 19.02 16.83 20.08 16.83 20.08 15.57 16.7 15.57 16.7 16.83 17.75 16.83 17.75 20.09 16.08 20.09"/>
        <polygon class="cls-7" points="11.46 20.09 11.46 21.35 16.08 21.35 16.08 20.09 14.4 20.09 14.4 16.83 15.45 16.83 15.45 15.57 12.07 15.57 12.07 16.83 13.13 16.83 13.13 20.09 11.46 20.09"/>
        <polygon class="cls-7" points="10.2 25.98 11.46 25.98 11.46 21.35 10.2 21.35 10.2 23.04 6.95 23.04 6.95 21.98 5.68 21.98 5.68 25.37 6.95 25.37 6.95 24.31 10.2 24.31 10.2 25.98"/>
        <polygon class="cls-7" points="10.2 30.62 11.46 30.62 11.46 25.98 10.2 25.98 10.2 27.67 6.95 27.67 6.95 26.61 5.68 26.61 5.68 30 6.95 30 6.95 28.94 10.2 28.94 10.2 30.62"/>
        <polygon class="cls-7" points="10.2 35.25 11.46 35.25 11.46 30.62 10.2 30.62 10.2 32.31 6.95 32.31 6.95 31.25 5.68 31.25 5.68 34.64 6.95 34.64 6.95 33.57 10.2 33.57 10.2 35.25"/>
        <polygon class="cls-7" points="10.2 39.89 11.46 39.89 11.46 35.25 10.2 35.25 10.2 36.94 6.95 36.94 6.95 35.88 5.68 35.88 5.68 39.27 6.95 39.27 6.95 38.21 10.2 38.21 10.2 39.89"/>
        <polygon class="cls-7" points="10.2 44.52 11.46 44.52 11.46 39.89 10.2 39.89 10.2 41.58 6.95 41.58 6.95 40.51 5.68 40.51 5.68 43.9 6.95 43.9 6.95 42.84 10.2 42.84 10.2 44.52"/>
        <polygon class="cls-7" points="10.2 49.15 11.46 49.15 11.46 44.52 10.2 44.52 10.2 46.21 6.95 46.21 6.95 45.15 5.68 45.15 5.68 48.54 6.95 48.54 6.95 47.48 10.2 47.48 10.2 49.15"/>
        <polygon class="cls-7" points="10.2 53.79 11.46 53.79 11.46 49.15 10.2 49.15 10.2 50.84 6.95 50.84 6.95 49.78 5.68 49.78 5.68 53.17 6.95 53.17 6.95 52.11 10.2 52.11 10.2 53.79"/>
        <polygon class="cls-7" points="10.2 58.42 11.46 58.42 11.46 53.79 10.2 53.79 10.2 55.48 6.95 55.48 6.95 54.42 5.68 54.42 5.68 57.81 6.95 57.81 6.95 56.75 10.2 56.75 10.2 58.42"/>
        <polygon class="cls-7" points="10.2 63.06 11.46 63.06 11.46 58.42 10.2 58.42 10.2 60.11 6.95 60.11 6.95 59.05 5.68 59.05 5.68 62.44 6.95 62.44 6.95 61.38 10.2 61.38 10.2 63.06"/>
        <polygon class="cls-7" points="10.2 67.69 11.46 67.69 11.46 63.06 10.2 63.06 10.2 64.75 6.95 64.75 6.95 63.68 5.68 63.68 5.68 67.07 6.95 67.07 6.95 66.01 10.2 66.01 10.2 67.69"/>
        <polygon class="cls-7" points="10.2 72.32 11.46 72.32 11.46 67.69 10.2 67.69 10.2 69.38 6.95 69.38 6.95 68.32 5.68 68.32 5.68 71.71 6.95 71.71 6.95 70.65 10.2 70.65 10.2 72.32"/>
        <polygon class="cls-7" points="10.2 76.96 11.46 76.96 11.46 72.32 10.2 72.32 10.2 74.01 6.95 74.01 6.95 72.95 5.68 72.95 5.68 76.34 6.95 76.34 6.95 75.28 10.2 75.28 10.2 76.96"/>
        <polygon class="cls-7" points="10.2 81.59 11.46 81.59 11.46 76.96 10.2 76.96 10.2 78.65 6.95 78.65 6.95 77.59 5.68 77.59 5.68 80.98 6.95 80.98 6.95 79.92 10.2 79.92 10.2 81.59"/>
        <polygon class="cls-7" points="10.2 86.23 11.46 86.23 11.46 81.59 10.2 81.59 10.2 83.28 6.95 83.28 6.95 82.22 5.68 82.22 5.68 85.61 6.95 85.61 6.95 84.55 10.2 84.55 10.2 86.23"/>
        <polygon class="cls-7" points="10.2 90.86 11.46 90.86 11.46 86.23 10.2 86.23 10.2 87.92 6.95 87.92 6.95 86.86 5.68 86.86 5.68 90.24 6.95 90.24 6.95 89.18 10.2 89.18 10.2 90.86"/>
        <g class="cls-13">
          <polygon class="cls-7" points="411.78 92.12 411.78 90.86 407.92 90.86 407.92 92.12 409.32 92.12 409.32 95.37 408.44 95.37 408.44 96.64 411.27 96.64 411.27 95.37 410.38 95.37 410.38 92.12 411.78 92.12"/>
        </g>
        <g class="cls-9">
          <polygon class="cls-7" points="409.08 91.34 407.92 90.86 406.44 94.43 407.61 94.91 408.15 93.61 411.15 94.85 410.81 95.67 411.98 96.15 413.06 93.54 411.89 93.06 411.55 93.88 408.55 92.63 409.08 91.34"/>
        </g>
        <g class="cls-2">
          <polygon class="cls-7" points="441.15 13.85 439.98 13.36 436.67 21.35 437.84 21.83 439.05 18.92 442.05 20.16 441.3 21.99 442.46 22.47 444.88 16.63 443.71 16.15 442.96 17.98 439.95 16.73 441.15 13.85"/>
        </g>
        <g class="cls-14">
          <polygon class="cls-7" points="436.67 20.09 436.67 21.35 445.32 21.35 445.32 20.09 442.17 20.09 442.17 16.83 444.14 16.83 444.14 15.57 437.82 15.57 437.82 16.83 439.8 16.83 439.8 20.09 436.67 20.09"/>
        </g>
        <g class="cls-10">
          <polygon class="cls-7" points="5.68 20.09 5.68 21.35 11.46 21.35 11.46 20.09 9.35 20.09 9.35 16.83 10.67 16.83 10.67 15.57 6.45 15.57 6.45 16.83 7.77 16.83 7.77 20.09 5.68 20.09"/>
        </g>
        <g class="cls-17">
          <polygon class="cls-7" points="10.2 21.35 11.46 21.35 11.46 15.57 10.2 15.57 10.2 17.68 6.95 17.68 6.95 16.36 5.68 16.36 5.68 20.58 6.95 20.58 6.95 19.26 10.2 19.26 10.2 21.35"/>
        </g>
        <g class="cls-5">
          <polygon class="cls-7" points="10.2 96.64 11.46 96.64 11.46 90.86 10.2 90.86 10.2 92.97 6.95 92.97 6.95 91.64 5.68 91.64 5.68 95.87 6.95 95.87 6.95 94.55 10.2 94.55 10.2 96.64"/>
        </g>
        <g class="cls-8">
          <polygon class="cls-7" points="11.46 92.12 11.46 90.86 5.68 90.86 5.68 92.12 7.79 92.12 7.79 95.37 6.47 95.37 6.47 96.64 10.69 96.64 10.69 95.37 9.37 95.37 9.37 92.12 11.46 92.12"/>
        </g>
      </g>
    </g>
  </g>
  <g id="Layer_2" data-name="Layer 2">
    <g id="_8_-_top_left_bg_social_media-2" data-name="%8 - top left bg social media">
      <polygon class="cls-7" points="8.57 8.17 8.57 93.75 409.85 93.75 441 8.17 8.57 8.17"/>
      <g>
        <polygon class="cls-7" points="16.07 92.12 16.07 90.86 11.46 90.86 11.46 92.12 13.14 92.12 13.14 95.37 12.09 95.37 12.09 96.64 15.46 96.64 15.46 95.37 14.4 95.37 14.4 92.12 16.07 92.12"/>
        <polygon class="cls-7" points="20.68 92.12 20.68 90.86 16.07 90.86 16.07 92.12 17.75 92.12 17.75 95.37 16.69 95.37 16.69 96.64 20.07 96.64 20.07 95.37 19.01 95.37 19.01 92.12 20.68 92.12"/>
        <polygon class="cls-7" points="25.29 92.12 25.29 90.86 20.68 90.86 20.68 92.12 22.36 92.12 22.36 95.37 21.3 95.37 21.3 96.64 24.67 96.64 24.67 95.37 23.62 95.37 23.62 92.12 25.29 92.12"/>
        <polygon class="cls-7" points="29.9 92.12 29.9 90.86 25.29 90.86 25.29 92.12 26.97 92.12 26.97 95.37 25.91 95.37 25.91 96.64 29.28 96.64 29.28 95.37 28.23 95.37 28.23 92.12 29.9 92.12"/>
        <polygon class="cls-7" points="34.5 92.12 34.5 90.86 29.9 90.86 29.9 92.12 31.58 92.12 31.58 95.37 30.52 95.37 30.52 96.64 33.89 96.64 33.89 95.37 32.84 95.37 32.84 92.12 34.5 92.12"/>
        <polygon class="cls-7" points="39.11 92.12 39.11 90.86 34.5 90.86 34.5 92.12 36.18 92.12 36.18 95.37 35.13 95.37 35.13 96.64 38.5 96.64 38.5 95.37 37.45 95.37 37.45 92.12 39.11 92.12"/>
        <polygon class="cls-7" points="43.72 92.12 43.72 90.86 39.11 90.86 39.11 92.12 40.79 92.12 40.79 95.37 39.74 95.37 39.74 96.64 43.11 96.64 43.11 95.37 42.05 95.37 42.05 92.12 43.72 92.12"/>
        <polygon class="cls-7" points="48.33 92.12 48.33 90.86 43.72 90.86 43.72 92.12 45.4 92.12 45.4 95.37 44.35 95.37 44.35 96.64 47.72 96.64 47.72 95.37 46.66 95.37 46.66 92.12 48.33 92.12"/>
        <polygon class="cls-7" points="52.94 92.12 52.94 90.86 48.33 90.86 48.33 92.12 50.01 92.12 50.01 95.37 48.96 95.37 48.96 96.64 52.33 96.64 52.33 95.37 51.27 95.37 51.27 92.12 52.94 92.12"/>
        <polygon class="cls-7" points="57.55 92.12 57.55 90.86 52.94 90.86 52.94 92.12 54.62 92.12 54.62 95.37 53.57 95.37 53.57 96.64 56.94 96.64 56.94 95.37 55.88 95.37 55.88 92.12 57.55 92.12"/>
        <polygon class="cls-7" points="62.16 92.12 62.16 90.86 57.55 90.86 57.55 92.12 59.23 92.12 59.23 95.37 58.17 95.37 58.17 96.64 61.55 96.64 61.55 95.37 60.49 95.37 60.49 92.12 62.16 92.12"/>
        <polygon class="cls-7" points="66.77 92.12 66.77 90.86 62.16 90.86 62.16 92.12 63.84 92.12 63.84 95.37 62.78 95.37 62.78 96.64 66.15 96.64 66.15 95.37 65.1 95.37 65.1 92.12 66.77 92.12"/>
        <polygon class="cls-7" points="71.38 92.12 71.38 90.86 66.77 90.86 66.77 92.12 68.45 92.12 68.45 95.37 67.39 95.37 67.39 96.64 70.76 96.64 70.76 95.37 69.71 95.37 69.71 92.12 71.38 92.12"/>
        <polygon class="cls-7" points="75.98 92.12 75.98 90.86 71.38 90.86 71.38 92.12 73.06 92.12 73.06 95.37 72 95.37 72 96.64 75.37 96.64 75.37 95.37 74.32 95.37 74.32 92.12 75.98 92.12"/>
        <polygon class="cls-7" points="80.59 92.12 80.59 90.86 75.98 90.86 75.98 92.12 77.67 92.12 77.67 95.37 76.61 95.37 76.61 96.64 79.98 96.64 79.98 95.37 78.93 95.37 78.93 92.12 80.59 92.12"/>
        <polygon class="cls-7" points="85.2 92.12 85.2 90.86 80.59 90.86 80.59 92.12 82.27 92.12 82.27 95.37 81.22 95.37 81.22 96.64 84.59 96.64 84.59 95.37 83.53 95.37 83.53 92.12 85.2 92.12"/>
        <polygon class="cls-7" points="89.81 92.12 89.81 90.86 85.2 90.86 85.2 92.12 86.88 92.12 86.88 95.37 85.83 95.37 85.83 96.64 89.2 96.64 89.2 95.37 88.14 95.37 88.14 92.12 89.81 92.12"/>
        <polygon class="cls-7" points="94.42 92.12 94.42 90.86 89.81 90.86 89.81 92.12 91.49 92.12 91.49 95.37 90.44 95.37 90.44 96.64 93.81 96.64 93.81 95.37 92.75 95.37 92.75 92.12 94.42 92.12"/>
        <polygon class="cls-7" points="99.03 92.12 99.03 90.86 94.42 90.86 94.42 92.12 96.1 92.12 96.1 95.37 95.05 95.37 95.05 96.64 98.42 96.64 98.42 95.37 97.36 95.37 97.36 92.12 99.03 92.12"/>
        <polygon class="cls-7" points="103.64 92.12 103.64 90.86 99.03 90.86 99.03 92.12 100.71 92.12 100.71 95.37 99.65 95.37 99.65 96.64 103.03 96.64 103.03 95.37 101.97 95.37 101.97 92.12 103.64 92.12"/>
        <polygon class="cls-7" points="108.25 92.12 108.25 90.86 103.64 90.86 103.64 92.12 105.32 92.12 105.32 95.37 104.26 95.37 104.26 96.64 107.63 96.64 107.63 95.37 106.58 95.37 106.58 92.12 108.25 92.12"/>
        <polygon class="cls-7" points="112.86 92.12 112.86 90.86 108.25 90.86 108.25 92.12 109.93 92.12 109.93 95.37 108.87 95.37 108.87 96.64 112.24 96.64 112.24 95.37 111.19 95.37 111.19 92.12 112.86 92.12"/>
        <polygon class="cls-7" points="117.46 92.12 117.46 90.86 112.86 90.86 112.86 92.12 114.54 92.12 114.54 95.37 113.48 95.37 113.48 96.64 116.85 96.64 116.85 95.37 115.8 95.37 115.8 92.12 117.46 92.12"/>
        <polygon class="cls-7" points="122.07 92.12 122.07 90.86 117.46 90.86 117.46 92.12 119.15 92.12 119.15 95.37 118.09 95.37 118.09 96.64 121.46 96.64 121.46 95.37 120.41 95.37 120.41 92.12 122.07 92.12"/>
        <polygon class="cls-7" points="126.68 92.12 126.68 90.86 122.07 90.86 122.07 92.12 123.75 92.12 123.75 95.37 122.7 95.37 122.7 96.64 126.07 96.64 126.07 95.37 125.01 95.37 125.01 92.12 126.68 92.12"/>
        <polygon class="cls-7" points="131.29 92.12 131.29 90.86 126.68 90.86 126.68 92.12 128.36 92.12 128.36 95.37 127.31 95.37 127.31 96.64 130.68 96.64 130.68 95.37 129.62 95.37 129.62 92.12 131.29 92.12"/>
        <polygon class="cls-7" points="135.9 92.12 135.9 90.86 131.29 90.86 131.29 92.12 132.97 92.12 132.97 95.37 131.92 95.37 131.92 96.64 135.29 96.64 135.29 95.37 134.23 95.37 134.23 92.12 135.9 92.12"/>
        <polygon class="cls-7" points="140.51 92.12 140.51 90.86 135.9 90.86 135.9 92.12 137.58 92.12 137.58 95.37 136.53 95.37 136.53 96.64 139.9 96.64 139.9 95.37 138.84 95.37 138.84 92.12 140.51 92.12"/>
        <polygon class="cls-7" points="145.12 92.12 145.12 90.86 140.51 90.86 140.51 92.12 142.19 92.12 142.19 95.37 141.13 95.37 141.13 96.64 144.51 96.64 144.51 95.37 143.45 95.37 143.45 92.12 145.12 92.12"/>
        <polygon class="cls-7" points="149.73 92.12 149.73 90.86 145.12 90.86 145.12 92.12 146.8 92.12 146.8 95.37 145.74 95.37 145.74 96.64 149.11 96.64 149.11 95.37 148.06 95.37 148.06 92.12 149.73 92.12"/>
        <polygon class="cls-7" points="154.34 92.12 154.34 90.86 149.73 90.86 149.73 92.12 151.41 92.12 151.41 95.37 150.35 95.37 150.35 96.64 153.72 96.64 153.72 95.37 152.67 95.37 152.67 92.12 154.34 92.12"/>
        <polygon class="cls-7" points="158.94 92.12 158.94 90.86 154.34 90.86 154.34 92.12 156.02 92.12 156.02 95.37 154.96 95.37 154.96 96.64 158.33 96.64 158.33 95.37 157.28 95.37 157.28 92.12 158.94 92.12"/>
        <polygon class="cls-7" points="163.55 92.12 163.55 90.86 158.94 90.86 158.94 92.12 160.63 92.12 160.63 95.37 159.57 95.37 159.57 96.64 162.94 96.64 162.94 95.37 161.89 95.37 161.89 92.12 163.55 92.12"/>
        <polygon class="cls-7" points="168.16 92.12 168.16 90.86 163.55 90.86 163.55 92.12 165.23 92.12 165.23 95.37 164.18 95.37 164.18 96.64 167.55 96.64 167.55 95.37 166.49 95.37 166.49 92.12 168.16 92.12"/>
        <polygon class="cls-7" points="172.77 92.12 172.77 90.86 168.16 90.86 168.16 92.12 169.84 92.12 169.84 95.37 168.79 95.37 168.79 96.64 172.16 96.64 172.16 95.37 171.1 95.37 171.1 92.12 172.77 92.12"/>
        <polygon class="cls-7" points="177.38 92.12 177.38 90.86 172.77 90.86 172.77 92.12 174.45 92.12 174.45 95.37 173.4 95.37 173.4 96.64 176.77 96.64 176.77 95.37 175.71 95.37 175.71 92.12 177.38 92.12"/>
        <polygon class="cls-7" points="181.99 92.12 181.99 90.86 177.38 90.86 177.38 92.12 179.06 92.12 179.06 95.37 178.01 95.37 178.01 96.64 181.38 96.64 181.38 95.37 180.32 95.37 180.32 92.12 181.99 92.12"/>
        <polygon class="cls-7" points="186.6 92.12 186.6 90.86 181.99 90.86 181.99 92.12 183.67 92.12 183.67 95.37 182.61 95.37 182.61 96.64 185.99 96.64 185.99 95.37 184.93 95.37 184.93 92.12 186.6 92.12"/>
        <polygon class="cls-7" points="191.21 92.12 191.21 90.86 186.6 90.86 186.6 92.12 188.28 92.12 188.28 95.37 187.22 95.37 187.22 96.64 190.59 96.64 190.59 95.37 189.54 95.37 189.54 92.12 191.21 92.12"/>
        <polygon class="cls-7" points="195.82 92.12 195.82 90.86 191.21 90.86 191.21 92.12 192.89 92.12 192.89 95.37 191.83 95.37 191.83 96.64 195.2 96.64 195.2 95.37 194.15 95.37 194.15 92.12 195.82 92.12"/>
        <polygon class="cls-7" points="200.42 92.12 200.42 90.86 195.82 90.86 195.82 92.12 197.5 92.12 197.5 95.37 196.44 95.37 196.44 96.64 199.81 96.64 199.81 95.37 198.76 95.37 198.76 92.12 200.42 92.12"/>
        <polygon class="cls-7" points="205.03 92.12 205.03 90.86 200.42 90.86 200.42 92.12 202.11 92.12 202.11 95.37 201.05 95.37 201.05 96.64 204.42 96.64 204.42 95.37 203.37 95.37 203.37 92.12 205.03 92.12"/>
        <polygon class="cls-7" points="209.64 92.12 209.64 90.86 205.03 90.86 205.03 92.12 206.71 92.12 206.71 95.37 205.66 95.37 205.66 96.64 209.03 96.64 209.03 95.37 207.97 95.37 207.97 92.12 209.64 92.12"/>
        <polygon class="cls-7" points="214.25 92.12 214.25 90.86 209.64 90.86 209.64 92.12 211.32 92.12 211.32 95.37 210.27 95.37 210.27 96.64 213.64 96.64 213.64 95.37 212.58 95.37 212.58 92.12 214.25 92.12"/>
        <polygon class="cls-7" points="218.86 92.12 218.86 90.86 214.25 90.86 214.25 92.12 215.93 92.12 215.93 95.37 214.88 95.37 214.88 96.64 218.25 96.64 218.25 95.37 217.19 95.37 217.19 92.12 218.86 92.12"/>
        <polygon class="cls-7" points="223.47 92.12 223.47 90.86 218.86 90.86 218.86 92.12 220.54 92.12 220.54 95.37 219.49 95.37 219.49 96.64 222.86 96.64 222.86 95.37 221.8 95.37 221.8 92.12 223.47 92.12"/>
        <polygon class="cls-7" points="228.08 92.12 228.08 90.86 223.47 90.86 223.47 92.12 225.15 92.12 225.15 95.37 224.09 95.37 224.09 96.64 227.47 96.64 227.47 95.37 226.41 95.37 226.41 92.12 228.08 92.12"/>
        <polygon class="cls-7" points="232.69 92.12 232.69 90.86 228.08 90.86 228.08 92.12 229.76 92.12 229.76 95.37 228.7 95.37 228.7 96.64 232.07 96.64 232.07 95.37 231.02 95.37 231.02 92.12 232.69 92.12"/>
        <polygon class="cls-7" points="237.3 92.12 237.3 90.86 232.69 90.86 232.69 92.12 234.37 92.12 234.37 95.37 233.31 95.37 233.31 96.64 236.68 96.64 236.68 95.37 235.63 95.37 235.63 92.12 237.3 92.12"/>
        <polygon class="cls-7" points="241.9 92.12 241.9 90.86 237.3 90.86 237.3 92.12 238.98 92.12 238.98 95.37 237.92 95.37 237.92 96.64 241.29 96.64 241.29 95.37 240.24 95.37 240.24 92.12 241.9 92.12"/>
        <polygon class="cls-7" points="246.51 92.12 246.51 90.86 241.9 90.86 241.9 92.12 243.59 92.12 243.59 95.37 242.53 95.37 242.53 96.64 245.9 96.64 245.9 95.37 244.85 95.37 244.85 92.12 246.51 92.12"/>
        <polygon class="cls-7" points="251.12 92.12 251.12 90.86 246.51 90.86 246.51 92.12 248.19 92.12 248.19 95.37 247.14 95.37 247.14 96.64 250.51 96.64 250.51 95.37 249.46 95.37 249.46 92.12 251.12 92.12"/>
        <polygon class="cls-7" points="255.73 92.12 255.73 90.86 251.12 90.86 251.12 92.12 252.8 92.12 252.8 95.37 251.75 95.37 251.75 96.64 255.12 96.64 255.12 95.37 254.06 95.37 254.06 92.12 255.73 92.12"/>
        <polygon class="cls-7" points="260.34 92.12 260.34 90.86 255.73 90.86 255.73 92.12 257.41 92.12 257.41 95.37 256.36 95.37 256.36 96.64 259.73 96.64 259.73 95.37 258.67 95.37 258.67 92.12 260.34 92.12"/>
        <polygon class="cls-7" points="264.95 92.12 264.95 90.86 260.34 90.86 260.34 92.12 262.02 92.12 262.02 95.37 260.97 95.37 260.97 96.64 264.34 96.64 264.34 95.37 263.28 95.37 263.28 92.12 264.95 92.12"/>
        <polygon class="cls-7" points="269.56 92.12 269.56 90.86 264.95 90.86 264.95 92.12 266.63 92.12 266.63 95.37 265.57 95.37 265.57 96.64 268.95 96.64 268.95 95.37 267.89 95.37 267.89 92.12 269.56 92.12"/>
        <polygon class="cls-7" points="274.17 92.12 274.17 90.86 269.56 90.86 269.56 92.12 271.24 92.12 271.24 95.37 270.18 95.37 270.18 96.64 273.55 96.64 273.55 95.37 272.5 95.37 272.5 92.12 274.17 92.12"/>
        <polygon class="cls-7" points="278.78 92.12 278.78 90.86 274.17 90.86 274.17 92.12 275.85 92.12 275.85 95.37 274.79 95.37 274.79 96.64 278.16 96.64 278.16 95.37 277.11 95.37 277.11 92.12 278.78 92.12"/>
        <polygon class="cls-7" points="283.38 92.12 283.38 90.86 278.78 90.86 278.78 92.12 280.46 92.12 280.46 95.37 279.4 95.37 279.4 96.64 282.77 96.64 282.77 95.37 281.72 95.37 281.72 92.12 283.38 92.12"/>
        <polygon class="cls-7" points="287.99 92.12 287.99 90.86 283.38 90.86 283.38 92.12 285.07 92.12 285.07 95.37 284.01 95.37 284.01 96.64 287.38 96.64 287.38 95.37 286.33 95.37 286.33 92.12 287.99 92.12"/>
        <polygon class="cls-7" points="292.6 92.12 292.6 90.86 287.99 90.86 287.99 92.12 289.67 92.12 289.67 95.37 288.62 95.37 288.62 96.64 291.99 96.64 291.99 95.37 290.94 95.37 290.94 92.12 292.6 92.12"/>
        <polygon class="cls-7" points="297.21 92.12 297.21 90.86 292.6 90.86 292.6 92.12 294.28 92.12 294.28 95.37 293.23 95.37 293.23 96.64 296.6 96.64 296.6 95.37 295.54 95.37 295.54 92.12 297.21 92.12"/>
        <polygon class="cls-7" points="301.82 92.12 301.82 90.86 297.21 90.86 297.21 92.12 298.89 92.12 298.89 95.37 297.84 95.37 297.84 96.64 301.21 96.64 301.21 95.37 300.15 95.37 300.15 92.12 301.82 92.12"/>
        <polygon class="cls-7" points="306.43 92.12 306.43 90.86 301.82 90.86 301.82 92.12 303.5 92.12 303.5 95.37 302.45 95.37 302.45 96.64 305.82 96.64 305.82 95.37 304.76 95.37 304.76 92.12 306.43 92.12"/>
        <polygon class="cls-7" points="311.04 92.12 311.04 90.86 306.43 90.86 306.43 92.12 308.11 92.12 308.11 95.37 307.06 95.37 307.06 96.64 310.43 96.64 310.43 95.37 309.37 95.37 309.37 92.12 311.04 92.12"/>
        <polygon class="cls-7" points="315.65 92.12 315.65 90.86 311.04 90.86 311.04 92.12 312.72 92.12 312.72 95.37 311.66 95.37 311.66 96.64 315.03 96.64 315.03 95.37 313.98 95.37 313.98 92.12 315.65 92.12"/>
        <polygon class="cls-7" points="320.26 92.12 320.26 90.86 315.65 90.86 315.65 92.12 317.33 92.12 317.33 95.37 316.27 95.37 316.27 96.64 319.64 96.64 319.64 95.37 318.59 95.37 318.59 92.12 320.26 92.12"/>
        <polygon class="cls-7" points="324.86 92.12 324.86 90.86 320.26 90.86 320.26 92.12 321.94 92.12 321.94 95.37 320.88 95.37 320.88 96.64 324.25 96.64 324.25 95.37 323.2 95.37 323.2 92.12 324.86 92.12"/>
        <polygon class="cls-7" points="329.47 92.12 329.47 90.86 324.86 90.86 324.86 92.12 326.55 92.12 326.55 95.37 325.49 95.37 325.49 96.64 328.86 96.64 328.86 95.37 327.81 95.37 327.81 92.12 329.47 92.12"/>
        <polygon class="cls-7" points="334.08 92.12 334.08 90.86 329.47 90.86 329.47 92.12 331.15 92.12 331.15 95.37 330.1 95.37 330.1 96.64 333.47 96.64 333.47 95.37 332.42 95.37 332.42 92.12 334.08 92.12"/>
        <polygon class="cls-7" points="338.69 92.12 338.69 90.86 334.08 90.86 334.08 92.12 335.76 92.12 335.76 95.37 334.71 95.37 334.71 96.64 338.08 96.64 338.08 95.37 337.02 95.37 337.02 92.12 338.69 92.12"/>
        <polygon class="cls-7" points="343.3 92.12 343.3 90.86 338.69 90.86 338.69 92.12 340.37 92.12 340.37 95.37 339.32 95.37 339.32 96.64 342.69 96.64 342.69 95.37 341.63 95.37 341.63 92.12 343.3 92.12"/>
        <polygon class="cls-7" points="347.91 92.12 347.91 90.86 343.3 90.86 343.3 92.12 344.98 92.12 344.98 95.37 343.93 95.37 343.93 96.64 347.3 96.64 347.3 95.37 346.24 95.37 346.24 92.12 347.91 92.12"/>
        <polygon class="cls-7" points="352.52 92.12 352.52 90.86 347.91 90.86 347.91 92.12 349.59 92.12 349.59 95.37 348.54 95.37 348.54 96.64 351.91 96.64 351.91 95.37 350.85 95.37 350.85 92.12 352.52 92.12"/>
        <polygon class="cls-7" points="357.13 92.12 357.13 90.86 352.52 90.86 352.52 92.12 354.2 92.12 354.2 95.37 353.14 95.37 353.14 96.64 356.51 96.64 356.51 95.37 355.46 95.37 355.46 92.12 357.13 92.12"/>
        <polygon class="cls-7" points="361.74 92.12 361.74 90.86 357.13 90.86 357.13 92.12 358.81 92.12 358.81 95.37 357.75 95.37 357.75 96.64 361.12 96.64 361.12 95.37 360.07 95.37 360.07 92.12 361.74 92.12"/>
        <polygon class="cls-7" points="366.34 92.12 366.34 90.86 361.74 90.86 361.74 92.12 363.42 92.12 363.42 95.37 362.36 95.37 362.36 96.64 365.73 96.64 365.73 95.37 364.68 95.37 364.68 92.12 366.34 92.12"/>
        <polygon class="cls-7" points="370.95 92.12 370.95 90.86 366.34 90.86 366.34 92.12 368.03 92.12 368.03 95.37 366.97 95.37 366.97 96.64 370.34 96.64 370.34 95.37 369.29 95.37 369.29 92.12 370.95 92.12"/>
        <polygon class="cls-7" points="375.56 92.12 375.56 90.86 370.95 90.86 370.95 92.12 372.63 92.12 372.63 95.37 371.58 95.37 371.58 96.64 374.95 96.64 374.95 95.37 373.9 95.37 373.9 92.12 375.56 92.12"/>
        <polygon class="cls-7" points="380.17 92.12 380.17 90.86 375.56 90.86 375.56 92.12 377.24 92.12 377.24 95.37 376.19 95.37 376.19 96.64 379.56 96.64 379.56 95.37 378.5 95.37 378.5 92.12 380.17 92.12"/>
        <polygon class="cls-7" points="384.78 92.12 384.78 90.86 380.17 90.86 380.17 92.12 381.85 92.12 381.85 95.37 380.8 95.37 380.8 96.64 384.17 96.64 384.17 95.37 383.11 95.37 383.11 92.12 384.78 92.12"/>
        <polygon class="cls-7" points="389.39 92.12 389.39 90.86 384.78 90.86 384.78 92.12 386.46 92.12 386.46 95.37 385.41 95.37 385.41 96.64 388.78 96.64 388.78 95.37 387.72 95.37 387.72 92.12 389.39 92.12"/>
        <polygon class="cls-7" points="394 92.12 394 90.86 389.39 90.86 389.39 92.12 391.07 92.12 391.07 95.37 390.02 95.37 390.02 96.64 393.39 96.64 393.39 95.37 392.33 95.37 392.33 92.12 394 92.12"/>
        <polygon class="cls-7" points="398.61 92.12 398.61 90.86 394 90.86 394 92.12 395.68 92.12 395.68 95.37 394.62 95.37 394.62 96.64 397.99 96.64 397.99 95.37 396.94 95.37 396.94 92.12 398.61 92.12"/>
        <polygon class="cls-7" points="403.22 92.12 403.22 90.86 398.61 90.86 398.61 92.12 400.29 92.12 400.29 95.37 399.23 95.37 399.23 96.64 402.6 96.64 402.6 95.37 401.55 95.37 401.55 92.12 403.22 92.12"/>
        <polygon class="cls-7" points="407.82 92.12 407.82 90.86 403.22 90.86 403.22 92.12 404.9 92.12 404.9 95.37 403.84 95.37 403.84 96.64 407.21 96.64 407.21 95.37 406.16 95.37 406.16 92.12 407.82 92.12"/>
        <polygon class="cls-7" points="410.63 86.86 409.44 86.43 407.82 90.86 409.01 91.29 409.6 89.68 412.66 90.79 412.29 91.8 413.47 92.23 414.65 88.99 413.47 88.56 413.1 89.57 410.04 88.46 410.63 86.86"/>
        <polygon class="cls-7" points="412.24 82.43 411.05 81.99 409.44 86.43 410.63 86.86 411.21 85.24 414.27 86.35 413.9 87.37 415.09 87.8 416.27 84.56 415.08 84.13 414.71 85.14 411.66 84.03 412.24 82.43"/>
        <polygon class="cls-7" points="413.85 77.99 412.67 77.56 411.05 81.99 412.24 82.43 412.83 80.81 415.88 81.92 415.51 82.94 416.7 83.37 417.88 80.13 416.69 79.69 416.32 80.71 413.27 79.6 413.85 77.99"/>
        <polygon class="cls-7" points="415.47 73.56 414.28 73.13 412.67 77.56 413.85 77.99 414.44 76.38 417.5 77.49 417.13 78.5 418.31 78.93 419.49 75.69 418.31 75.26 417.94 76.27 414.88 75.16 415.47 73.56"/>
        <polygon class="cls-7" points="417.08 69.13 415.89 68.69 414.28 73.13 415.47 73.56 416.05 71.94 419.11 73.05 418.74 74.07 419.93 74.5 421.11 71.26 419.92 70.83 419.55 71.84 416.5 70.73 417.08 69.13"/>
        <polygon class="cls-7" points="418.69 64.69 417.51 64.26 415.89 68.69 417.08 69.13 417.67 67.51 420.72 68.62 420.35 69.64 421.54 70.07 422.72 66.83 421.53 66.39 421.17 67.41 418.11 66.3 418.69 64.69"/>
        <polygon class="cls-7" points="420.31 60.26 419.12 59.83 417.51 64.26 418.69 64.69 419.28 63.08 422.34 64.19 421.97 65.2 423.16 65.63 424.34 62.39 423.15 61.96 422.78 62.97 419.72 61.86 420.31 60.26"/>
        <polygon class="cls-7" points="421.92 55.83 420.73 55.39 419.12 59.83 420.31 60.26 420.9 58.64 423.95 59.75 423.58 60.77 424.77 61.2 425.95 57.96 424.76 57.53 424.39 58.54 421.34 57.43 421.92 55.83"/>
        <polygon class="cls-7" points="423.53 51.39 422.35 50.96 420.73 55.39 421.92 55.83 422.51 54.21 425.56 55.32 425.2 56.34 426.38 56.77 427.56 53.53 426.38 53.09 426.01 54.11 422.95 53 423.53 51.39"/>
        <polygon class="cls-7" points="425.15 46.96 423.96 46.53 422.35 50.96 423.53 51.39 424.12 49.78 427.18 50.89 426.81 51.9 428 52.33 429.18 49.09 427.99 48.66 427.62 49.67 424.56 48.56 425.15 46.96"/>
        <polygon class="cls-7" points="426.76 42.53 425.58 42.09 423.96 46.53 425.15 46.96 425.74 45.34 428.79 46.45 428.42 47.47 429.61 47.9 430.79 44.66 429.6 44.23 429.23 45.24 426.18 44.13 426.76 42.53"/>
        <polygon class="cls-7" points="428.38 38.09 427.19 37.66 425.58 42.09 426.76 42.53 427.35 40.91 430.41 42.02 430.04 43.04 431.22 43.47 432.4 40.23 431.22 39.79 430.85 40.81 427.79 39.7 428.38 38.09"/>
        <polygon class="cls-7" points="429.99 33.66 428.8 33.23 427.19 37.66 428.38 38.09 428.96 36.48 432.02 37.59 431.65 38.6 432.84 39.03 434.02 35.79 432.83 35.36 432.46 36.37 429.41 35.26 429.99 33.66"/>
        <polygon class="cls-7" points="431.6 29.23 430.42 28.79 428.8 33.23 429.99 33.66 430.58 32.04 433.63 33.15 433.26 34.17 434.45 34.6 435.63 31.36 434.44 30.93 434.07 31.94 431.02 30.83 431.6 29.23"/>
        <polygon class="cls-7" points="433.22 24.79 432.03 24.36 430.42 28.79 431.6 29.23 432.19 27.61 435.25 28.72 434.88 29.74 436.06 30.17 437.24 26.93 436.06 26.49 435.69 27.51 432.63 26.4 433.22 24.79"/>
        <polygon class="cls-7" points="434.83 20.36 433.64 19.93 432.03 24.36 433.22 24.79 433.81 23.18 436.86 24.29 436.49 25.3 437.68 25.73 438.86 22.49 437.67 22.06 437.3 23.07 434.25 21.96 434.83 20.36"/>
        <polygon class="cls-7" points="436.44 15.93 435.26 15.49 433.64 19.93 434.83 20.36 435.42 18.74 438.47 19.85 438.1 20.87 439.29 21.3 440.47 18.06 439.28 17.63 438.92 18.64 435.86 17.53 436.44 15.93"/>
        <polygon class="cls-7" points="438.06 11.49 436.87 11.06 435.26 15.49 436.44 15.93 437.03 14.31 440.09 15.42 439.72 16.44 440.91 16.87 442.09 13.63 440.9 13.19 440.53 14.21 437.47 13.1 438.06 11.49"/>
        <polygon class="cls-7" points="432.25 9.8 432.25 11.06 436.87 11.06 436.87 9.8 435.18 9.8 435.18 6.55 436.24 6.55 436.24 5.28 432.86 5.28 432.86 6.55 433.92 6.55 433.92 9.8 432.25 9.8"/>
        <polygon class="cls-7" points="427.62 9.8 427.62 11.06 432.25 11.06 432.25 9.8 430.56 9.8 430.56 6.55 431.62 6.55 431.62 5.28 428.24 5.28 428.24 6.55 429.3 6.55 429.3 9.8 427.62 9.8"/>
        <polygon class="cls-7" points="423 9.8 423 11.06 427.62 11.06 427.62 9.8 425.94 9.8 425.94 6.55 426.99 6.55 426.99 5.28 423.61 5.28 423.61 6.55 424.67 6.55 424.67 9.8 423 9.8"/>
        <polygon class="cls-7" points="418.37 9.8 418.37 11.06 423 11.06 423 9.8 421.31 9.8 421.31 6.55 422.37 6.55 422.37 5.28 418.99 5.28 418.99 6.55 420.05 6.55 420.05 9.8 418.37 9.8"/>
        <polygon class="cls-7" points="413.75 9.8 413.75 11.06 418.37 11.06 418.37 9.8 416.69 9.8 416.69 6.55 417.75 6.55 417.75 5.28 414.36 5.28 414.36 6.55 415.42 6.55 415.42 9.8 413.75 9.8"/>
        <polygon class="cls-7" points="409.13 9.8 409.13 11.06 413.75 11.06 413.75 9.8 412.06 9.8 412.06 6.55 413.12 6.55 413.12 5.28 409.74 5.28 409.74 6.55 410.8 6.55 410.8 9.8 409.13 9.8"/>
        <polygon class="cls-7" points="404.5 9.8 404.5 11.06 409.13 11.06 409.13 9.8 407.44 9.8 407.44 6.55 408.5 6.55 408.5 5.28 405.12 5.28 405.12 6.55 406.18 6.55 406.18 9.8 404.5 9.8"/>
        <polygon class="cls-7" points="399.88 9.8 399.88 11.06 404.5 11.06 404.5 9.8 402.82 9.8 402.82 6.55 403.87 6.55 403.87 5.28 400.49 5.28 400.49 6.55 401.55 6.55 401.55 9.8 399.88 9.8"/>
        <polygon class="cls-7" points="395.25 9.8 395.25 11.06 399.88 11.06 399.88 9.8 398.19 9.8 398.19 6.55 399.25 6.55 399.25 5.28 395.87 5.28 395.87 6.55 396.93 6.55 396.93 9.8 395.25 9.8"/>
        <polygon class="cls-7" points="390.63 9.8 390.63 11.06 395.25 11.06 395.25 9.8 393.57 9.8 393.57 6.55 394.63 6.55 394.63 5.28 391.24 5.28 391.24 6.55 392.3 6.55 392.3 9.8 390.63 9.8"/>
        <polygon class="cls-7" points="386.01 9.8 386.01 11.06 390.63 11.06 390.63 9.8 388.94 9.8 388.94 6.55 390 6.55 390 5.28 386.62 5.28 386.62 6.55 387.68 6.55 387.68 9.8 386.01 9.8"/>
        <polygon class="cls-7" points="381.38 9.8 381.38 11.06 386.01 11.06 386.01 9.8 384.32 9.8 384.32 6.55 385.38 6.55 385.38 5.28 382 5.28 382 6.55 383.06 6.55 383.06 9.8 381.38 9.8"/>
        <polygon class="cls-7" points="376.76 9.8 376.76 11.06 381.38 11.06 381.38 9.8 379.7 9.8 379.7 6.55 380.75 6.55 380.75 5.28 377.37 5.28 377.37 6.55 378.43 6.55 378.43 9.8 376.76 9.8"/>
        <polygon class="cls-7" points="372.13 9.8 372.13 11.06 376.76 11.06 376.76 9.8 375.07 9.8 375.07 6.55 376.13 6.55 376.13 5.28 372.75 5.28 372.75 6.55 373.81 6.55 373.81 9.8 372.13 9.8"/>
        <polygon class="cls-7" points="367.51 9.8 367.51 11.06 372.13 11.06 372.13 9.8 370.45 9.8 370.45 6.55 371.51 6.55 371.51 5.28 368.12 5.28 368.12 6.55 369.18 6.55 369.18 9.8 367.51 9.8"/>
        <polygon class="cls-7" points="362.89 9.8 362.89 11.06 367.51 11.06 367.51 9.8 365.82 9.8 365.82 6.55 366.88 6.55 366.88 5.28 363.5 5.28 363.5 6.55 364.56 6.55 364.56 9.8 362.89 9.8"/>
        <polygon class="cls-7" points="358.26 9.8 358.26 11.06 362.89 11.06 362.89 9.8 361.2 9.8 361.2 6.55 362.26 6.55 362.26 5.28 358.88 5.28 358.88 6.55 359.93 6.55 359.93 9.8 358.26 9.8"/>
        <polygon class="cls-7" points="353.64 9.8 353.64 11.06 358.26 11.06 358.26 9.8 356.58 9.8 356.58 6.55 357.63 6.55 357.63 5.28 354.25 5.28 354.25 6.55 355.31 6.55 355.31 9.8 353.64 9.8"/>
        <polygon class="cls-7" points="349.01 9.8 349.01 11.06 353.64 11.06 353.64 9.8 351.95 9.8 351.95 6.55 353.01 6.55 353.01 5.28 349.63 5.28 349.63 6.55 350.69 6.55 350.69 9.8 349.01 9.8"/>
        <polygon class="cls-7" points="344.39 9.8 344.39 11.06 349.01 11.06 349.01 9.8 347.33 9.8 347.33 6.55 348.39 6.55 348.39 5.28 345 5.28 345 6.55 346.06 6.55 346.06 9.8 344.39 9.8"/>
        <polygon class="cls-7" points="339.77 9.8 339.77 11.06 344.39 11.06 344.39 9.8 342.7 9.8 342.7 6.55 343.76 6.55 343.76 5.28 340.38 5.28 340.38 6.55 341.44 6.55 341.44 9.8 339.77 9.8"/>
        <polygon class="cls-7" points="335.14 9.8 335.14 11.06 339.77 11.06 339.77 9.8 338.08 9.8 338.08 6.55 339.14 6.55 339.14 5.28 335.76 5.28 335.76 6.55 336.81 6.55 336.81 9.8 335.14 9.8"/>
        <polygon class="cls-7" points="330.52 9.8 330.52 11.06 335.14 11.06 335.14 9.8 333.46 9.8 333.46 6.55 334.51 6.55 334.51 5.28 331.13 5.28 331.13 6.55 332.19 6.55 332.19 9.8 330.52 9.8"/>
        <polygon class="cls-7" points="325.89 9.8 325.89 11.06 330.52 11.06 330.52 9.8 328.83 9.8 328.83 6.55 329.89 6.55 329.89 5.28 326.51 5.28 326.51 6.55 327.57 6.55 327.57 9.8 325.89 9.8"/>
        <polygon class="cls-7" points="321.27 9.8 321.27 11.06 325.89 11.06 325.89 9.8 324.21 9.8 324.21 6.55 325.27 6.55 325.27 5.28 321.88 5.28 321.88 6.55 322.94 6.55 322.94 9.8 321.27 9.8"/>
        <polygon class="cls-7" points="316.65 9.8 316.65 11.06 321.27 11.06 321.27 9.8 319.58 9.8 319.58 6.55 320.64 6.55 320.64 5.28 317.26 5.28 317.26 6.55 318.32 6.55 318.32 9.8 316.65 9.8"/>
        <polygon class="cls-7" points="312.02 9.8 312.02 11.06 316.65 11.06 316.65 9.8 314.96 9.8 314.96 6.55 316.02 6.55 316.02 5.28 312.64 5.28 312.64 6.55 313.69 6.55 313.69 9.8 312.02 9.8"/>
        <polygon class="cls-7" points="307.4 9.8 307.4 11.06 312.02 11.06 312.02 9.8 310.34 9.8 310.34 6.55 311.39 6.55 311.39 5.28 308.01 5.28 308.01 6.55 309.07 6.55 309.07 9.8 307.4 9.8"/>
        <polygon class="cls-7" points="302.77 9.8 302.77 11.06 307.4 11.06 307.4 9.8 305.71 9.8 305.71 6.55 306.77 6.55 306.77 5.28 303.39 5.28 303.39 6.55 304.45 6.55 304.45 9.8 302.77 9.8"/>
        <polygon class="cls-7" points="298.15 9.8 298.15 11.06 302.77 11.06 302.77 9.8 301.09 9.8 301.09 6.55 302.15 6.55 302.15 5.28 298.76 5.28 298.76 6.55 299.82 6.55 299.82 9.8 298.15 9.8"/>
        <polygon class="cls-7" points="293.53 9.8 293.53 11.06 298.15 11.06 298.15 9.8 296.46 9.8 296.46 6.55 297.52 6.55 297.52 5.28 294.14 5.28 294.14 6.55 295.2 6.55 295.2 9.8 293.53 9.8"/>
        <polygon class="cls-7" points="288.9 9.8 288.9 11.06 293.53 11.06 293.53 9.8 291.84 9.8 291.84 6.55 292.9 6.55 292.9 5.28 289.52 5.28 289.52 6.55 290.57 6.55 290.57 9.8 288.9 9.8"/>
        <polygon class="cls-7" points="284.28 9.8 284.28 11.06 288.9 11.06 288.9 9.8 287.22 9.8 287.22 6.55 288.27 6.55 288.27 5.28 284.89 5.28 284.89 6.55 285.95 6.55 285.95 9.8 284.28 9.8"/>
        <polygon class="cls-7" points="279.65 9.8 279.65 11.06 284.28 11.06 284.28 9.8 282.59 9.8 282.59 6.55 283.65 6.55 283.65 5.28 280.27 5.28 280.27 6.55 281.33 6.55 281.33 9.8 279.65 9.8"/>
        <polygon class="cls-7" points="275.03 9.8 275.03 11.06 279.65 11.06 279.65 9.8 277.97 9.8 277.97 6.55 279.03 6.55 279.03 5.28 275.64 5.28 275.64 6.55 276.7 6.55 276.7 9.8 275.03 9.8"/>
        <polygon class="cls-7" points="270.41 9.8 270.41 11.06 275.03 11.06 275.03 9.8 273.34 9.8 273.34 6.55 274.4 6.55 274.4 5.28 271.02 5.28 271.02 6.55 272.08 6.55 272.08 9.8 270.41 9.8"/>
        <polygon class="cls-7" points="265.78 9.8 265.78 11.06 270.41 11.06 270.41 9.8 268.72 9.8 268.72 6.55 269.78 6.55 269.78 5.28 266.4 5.28 266.4 6.55 267.45 6.55 267.45 9.8 265.78 9.8"/>
        <polygon class="cls-7" points="261.16 9.8 261.16 11.06 265.78 11.06 265.78 9.8 264.1 9.8 264.1 6.55 265.15 6.55 265.15 5.28 261.77 5.28 261.77 6.55 262.83 6.55 262.83 9.8 261.16 9.8"/>
        <polygon class="cls-7" points="256.53 9.8 256.53 11.06 261.16 11.06 261.16 9.8 259.47 9.8 259.47 6.55 260.53 6.55 260.53 5.28 257.15 5.28 257.15 6.55 258.21 6.55 258.21 9.8 256.53 9.8"/>
        <polygon class="cls-7" points="251.91 9.8 251.91 11.06 256.53 11.06 256.53 9.8 254.85 9.8 254.85 6.55 255.91 6.55 255.91 5.28 252.52 5.28 252.52 6.55 253.58 6.55 253.58 9.8 251.91 9.8"/>
        <polygon class="cls-7" points="247.29 9.8 247.29 11.06 251.91 11.06 251.91 9.8 250.22 9.8 250.22 6.55 251.28 6.55 251.28 5.28 247.9 5.28 247.9 6.55 248.96 6.55 248.96 9.8 247.29 9.8"/>
        <polygon class="cls-7" points="242.66 9.8 242.66 11.06 247.29 11.06 247.29 9.8 245.6 9.8 245.6 6.55 246.66 6.55 246.66 5.28 243.28 5.28 243.28 6.55 244.33 6.55 244.33 9.8 242.66 9.8"/>
        <polygon class="cls-7" points="238.04 9.8 238.04 11.06 242.66 11.06 242.66 9.8 240.97 9.8 240.97 6.55 242.03 6.55 242.03 5.28 238.65 5.28 238.65 6.55 239.71 6.55 239.71 9.8 238.04 9.8"/>
        <polygon class="cls-7" points="233.41 9.8 233.41 11.06 238.04 11.06 238.04 9.8 236.35 9.8 236.35 6.55 237.41 6.55 237.41 5.28 234.03 5.28 234.03 6.55 235.09 6.55 235.09 9.8 233.41 9.8"/>
        <polygon class="cls-7" points="228.79 9.8 228.79 11.06 233.41 11.06 233.41 9.8 231.73 9.8 231.73 6.55 232.79 6.55 232.79 5.28 229.4 5.28 229.4 6.55 230.46 6.55 230.46 9.8 228.79 9.8"/>
        <polygon class="cls-7" points="224.17 9.8 224.17 11.06 228.79 11.06 228.79 9.8 227.1 9.8 227.1 6.55 228.16 6.55 228.16 5.28 224.78 5.28 224.78 6.55 225.84 6.55 225.84 9.8 224.17 9.8"/>
        <polygon class="cls-7" points="219.54 9.8 219.54 11.06 224.17 11.06 224.17 9.8 222.48 9.8 222.48 6.55 223.54 6.55 223.54 5.28 220.16 5.28 220.16 6.55 221.21 6.55 221.21 9.8 219.54 9.8"/>
        <polygon class="cls-7" points="214.92 9.8 214.92 11.06 219.54 11.06 219.54 9.8 217.85 9.8 217.85 6.55 218.91 6.55 218.91 5.28 215.53 5.28 215.53 6.55 216.59 6.55 216.59 9.8 214.92 9.8"/>
        <polygon class="cls-7" points="210.29 9.8 210.29 11.06 214.92 11.06 214.92 9.8 213.23 9.8 213.23 6.55 214.29 6.55 214.29 5.28 210.91 5.28 210.91 6.55 211.97 6.55 211.97 9.8 210.29 9.8"/>
        <polygon class="cls-7" points="205.67 9.8 205.67 11.06 210.29 11.06 210.29 9.8 208.61 9.8 208.61 6.55 209.67 6.55 209.67 5.28 206.28 5.28 206.28 6.55 207.34 6.55 207.34 9.8 205.67 9.8"/>
        <polygon class="cls-7" points="201.05 9.8 201.05 11.06 205.67 11.06 205.67 9.8 203.98 9.8 203.98 6.55 205.04 6.55 205.04 5.28 201.66 5.28 201.66 6.55 202.72 6.55 202.72 9.8 201.05 9.8"/>
        <polygon class="cls-7" points="196.42 9.8 196.42 11.06 201.05 11.06 201.05 9.8 199.36 9.8 199.36 6.55 200.42 6.55 200.42 5.28 197.04 5.28 197.04 6.55 198.09 6.55 198.09 9.8 196.42 9.8"/>
        <polygon class="cls-7" points="191.8 9.8 191.8 11.06 196.42 11.06 196.42 9.8 194.73 9.8 194.73 6.55 195.79 6.55 195.79 5.28 192.41 5.28 192.41 6.55 193.47 6.55 193.47 9.8 191.8 9.8"/>
        <polygon class="cls-7" points="187.17 9.8 187.17 11.06 191.8 11.06 191.8 9.8 190.11 9.8 190.11 6.55 191.17 6.55 191.17 5.28 187.79 5.28 187.79 6.55 188.85 6.55 188.85 9.8 187.17 9.8"/>
        <polygon class="cls-7" points="182.55 9.8 182.55 11.06 187.17 11.06 187.17 9.8 185.49 9.8 185.49 6.55 186.54 6.55 186.54 5.28 183.16 5.28 183.16 6.55 184.22 6.55 184.22 9.8 182.55 9.8"/>
        <polygon class="cls-7" points="177.92 9.8 177.92 11.06 182.55 11.06 182.55 9.8 180.86 9.8 180.86 6.55 181.92 6.55 181.92 5.28 178.54 5.28 178.54 6.55 179.6 6.55 179.6 9.8 177.92 9.8"/>
        <polygon class="cls-7" points="173.3 9.8 173.3 11.06 177.92 11.06 177.92 9.8 176.24 9.8 176.24 6.55 177.3 6.55 177.3 5.28 173.92 5.28 173.92 6.55 174.97 6.55 174.97 9.8 173.3 9.8"/>
        <polygon class="cls-7" points="168.68 9.8 168.68 11.06 173.3 11.06 173.3 9.8 171.61 9.8 171.61 6.55 172.67 6.55 172.67 5.28 169.29 5.28 169.29 6.55 170.35 6.55 170.35 9.8 168.68 9.8"/>
        <polygon class="cls-7" points="164.05 9.8 164.05 11.06 168.68 11.06 168.68 9.8 166.99 9.8 166.99 6.55 168.05 6.55 168.05 5.28 164.67 5.28 164.67 6.55 165.73 6.55 165.73 9.8 164.05 9.8"/>
        <polygon class="cls-7" points="159.43 9.8 159.43 11.06 164.05 11.06 164.05 9.8 162.37 9.8 162.37 6.55 163.42 6.55 163.42 5.28 160.04 5.28 160.04 6.55 161.1 6.55 161.1 9.8 159.43 9.8"/>
        <polygon class="cls-7" points="154.8 9.8 154.8 11.06 159.43 11.06 159.43 9.8 157.74 9.8 157.74 6.55 158.8 6.55 158.8 5.28 155.42 5.28 155.42 6.55 156.48 6.55 156.48 9.8 154.8 9.8"/>
        <polygon class="cls-7" points="150.18 9.8 150.18 11.06 154.8 11.06 154.8 9.8 153.12 9.8 153.12 6.55 154.18 6.55 154.18 5.28 150.8 5.28 150.8 6.55 151.85 6.55 151.85 9.8 150.18 9.8"/>
        <polygon class="cls-7" points="145.56 9.8 145.56 11.06 150.18 11.06 150.18 9.8 148.49 9.8 148.49 6.55 149.55 6.55 149.55 5.28 146.17 5.28 146.17 6.55 147.23 6.55 147.23 9.8 145.56 9.8"/>
        <polygon class="cls-7" points="140.93 9.8 140.93 11.06 145.56 11.06 145.56 9.8 143.87 9.8 143.87 6.55 144.93 6.55 144.93 5.28 141.55 5.28 141.55 6.55 142.61 6.55 142.61 9.8 140.93 9.8"/>
        <polygon class="cls-7" points="136.31 9.8 136.31 11.06 140.93 11.06 140.93 9.8 139.25 9.8 139.25 6.55 140.3 6.55 140.3 5.28 136.92 5.28 136.92 6.55 137.98 6.55 137.98 9.8 136.31 9.8"/>
        <polygon class="cls-7" points="131.68 9.8 131.68 11.06 136.31 11.06 136.31 9.8 134.62 9.8 134.62 6.55 135.68 6.55 135.68 5.28 132.3 5.28 132.3 6.55 133.36 6.55 133.36 9.8 131.68 9.8"/>
        <polygon class="cls-7" points="127.06 9.8 127.06 11.06 131.68 11.06 131.68 9.8 130 9.8 130 6.55 131.06 6.55 131.06 5.28 127.67 5.28 127.67 6.55 128.73 6.55 128.73 9.8 127.06 9.8"/>
        <polygon class="cls-7" points="122.44 9.8 122.44 11.06 127.06 11.06 127.06 9.8 125.37 9.8 125.37 6.55 126.43 6.55 126.43 5.28 123.05 5.28 123.05 6.55 124.11 6.55 124.11 9.8 122.44 9.8"/>
        <polygon class="cls-7" points="117.81 9.8 117.81 11.06 122.44 11.06 122.44 9.8 120.75 9.8 120.75 6.55 121.81 6.55 121.81 5.28 118.43 5.28 118.43 6.55 119.49 6.55 119.49 9.8 117.81 9.8"/>
        <polygon class="cls-7" points="113.19 9.8 113.19 11.06 117.81 11.06 117.81 9.8 116.13 9.8 116.13 6.55 117.18 6.55 117.18 5.28 113.8 5.28 113.8 6.55 114.86 6.55 114.86 9.8 113.19 9.8"/>
        <polygon class="cls-7" points="108.56 9.8 108.56 11.06 113.19 11.06 113.19 9.8 111.5 9.8 111.5 6.55 112.56 6.55 112.56 5.28 109.18 5.28 109.18 6.55 110.24 6.55 110.24 9.8 108.56 9.8"/>
        <polygon class="cls-7" points="103.94 9.8 103.94 11.06 108.56 11.06 108.56 9.8 106.88 9.8 106.88 6.55 107.94 6.55 107.94 5.28 104.55 5.28 104.55 6.55 105.61 6.55 105.61 9.8 103.94 9.8"/>
        <polygon class="cls-7" points="99.32 9.8 99.32 11.06 103.94 11.06 103.94 9.8 102.25 9.8 102.25 6.55 103.31 6.55 103.31 5.28 99.93 5.28 99.93 6.55 100.99 6.55 100.99 9.8 99.32 9.8"/>
        <polygon class="cls-7" points="94.69 9.8 94.69 11.06 99.32 11.06 99.32 9.8 97.63 9.8 97.63 6.55 98.69 6.55 98.69 5.28 95.31 5.28 95.31 6.55 96.36 6.55 96.36 9.8 94.69 9.8"/>
        <polygon class="cls-7" points="90.07 9.8 90.07 11.06 94.69 11.06 94.69 9.8 93.01 9.8 93.01 6.55 94.06 6.55 94.06 5.28 90.68 5.28 90.68 6.55 91.74 6.55 91.74 9.8 90.07 9.8"/>
        <polygon class="cls-7" points="85.44 9.8 85.44 11.06 90.07 11.06 90.07 9.8 88.38 9.8 88.38 6.55 89.44 6.55 89.44 5.28 86.06 5.28 86.06 6.55 87.12 6.55 87.12 9.8 85.44 9.8"/>
        <polygon class="cls-7" points="80.82 9.8 80.82 11.06 85.44 11.06 85.44 9.8 83.76 9.8 83.76 6.55 84.82 6.55 84.82 5.28 81.43 5.28 81.43 6.55 82.49 6.55 82.49 9.8 80.82 9.8"/>
        <polygon class="cls-7" points="76.2 9.8 76.2 11.06 80.82 11.06 80.82 9.8 79.13 9.8 79.13 6.55 80.19 6.55 80.19 5.28 76.81 5.28 76.81 6.55 77.87 6.55 77.87 9.8 76.2 9.8"/>
        <polygon class="cls-7" points="71.57 9.8 71.57 11.06 76.2 11.06 76.2 9.8 74.51 9.8 74.51 6.55 75.57 6.55 75.57 5.28 72.19 5.28 72.19 6.55 73.24 6.55 73.24 9.8 71.57 9.8"/>
        <polygon class="cls-7" points="66.95 9.8 66.95 11.06 71.57 11.06 71.57 9.8 69.89 9.8 69.89 6.55 70.94 6.55 70.94 5.28 67.56 5.28 67.56 6.55 68.62 6.55 68.62 9.8 66.95 9.8"/>
        <polygon class="cls-7" points="62.32 9.8 62.32 11.06 66.95 11.06 66.95 9.8 65.26 9.8 65.26 6.55 66.32 6.55 66.32 5.28 62.94 5.28 62.94 6.55 64 6.55 64 9.8 62.32 9.8"/>
        <polygon class="cls-7" points="57.7 9.8 57.7 11.06 62.32 11.06 62.32 9.8 60.64 9.8 60.64 6.55 61.7 6.55 61.7 5.28 58.31 5.28 58.31 6.55 59.37 6.55 59.37 9.8 57.7 9.8"/>
        <polygon class="cls-7" points="53.08 9.8 53.08 11.06 57.7 11.06 57.7 9.8 56.01 9.8 56.01 6.55 57.07 6.55 57.07 5.28 53.69 5.28 53.69 6.55 54.75 6.55 54.75 9.8 53.08 9.8"/>
        <polygon class="cls-7" points="48.45 9.8 48.45 11.06 53.08 11.06 53.08 9.8 51.39 9.8 51.39 6.55 52.45 6.55 52.45 5.28 49.07 5.28 49.07 6.55 50.12 6.55 50.12 9.8 48.45 9.8"/>
        <polygon class="cls-7" points="43.83 9.8 43.83 11.06 48.45 11.06 48.45 9.8 46.77 9.8 46.77 6.55 47.82 6.55 47.82 5.28 44.44 5.28 44.44 6.55 45.5 6.55 45.5 9.8 43.83 9.8"/>
        <polygon class="cls-7" points="39.2 9.8 39.2 11.06 43.83 11.06 43.83 9.8 42.14 9.8 42.14 6.55 43.2 6.55 43.2 5.28 39.82 5.28 39.82 6.55 40.88 6.55 40.88 9.8 39.2 9.8"/>
        <polygon class="cls-7" points="34.58 9.8 34.58 11.06 39.2 11.06 39.2 9.8 37.52 9.8 37.52 6.55 38.58 6.55 38.58 5.28 35.19 5.28 35.19 6.55 36.25 6.55 36.25 9.8 34.58 9.8"/>
        <polygon class="cls-7" points="29.96 9.8 29.96 11.06 34.58 11.06 34.58 9.8 32.89 9.8 32.89 6.55 33.95 6.55 33.95 5.28 30.57 5.28 30.57 6.55 31.63 6.55 31.63 9.8 29.96 9.8"/>
        <polygon class="cls-7" points="25.33 9.8 25.33 11.06 29.96 11.06 29.96 9.8 28.27 9.8 28.27 6.55 29.33 6.55 29.33 5.28 25.95 5.28 25.95 6.55 27 6.55 27 9.8 25.33 9.8"/>
        <polygon class="cls-7" points="20.71 9.8 20.71 11.06 25.33 11.06 25.33 9.8 23.65 9.8 23.65 6.55 24.7 6.55 24.7 5.28 21.32 5.28 21.32 6.55 22.38 6.55 22.38 9.8 20.71 9.8"/>
        <polygon class="cls-7" points="16.08 9.8 16.08 11.06 20.71 11.06 20.71 9.8 19.02 9.8 19.02 6.55 20.08 6.55 20.08 5.28 16.7 5.28 16.7 6.55 17.76 6.55 17.76 9.8 16.08 9.8"/>
        <polygon class="cls-7" points="11.46 9.8 11.46 11.06 16.08 11.06 16.08 9.8 14.4 9.8 14.4 6.55 15.46 6.55 15.46 5.28 12.07 5.28 12.07 6.55 13.13 6.55 13.13 9.8 11.46 9.8"/>
        <polygon class="cls-7" points="10.2 15.75 11.46 15.75 11.46 11.06 10.2 11.06 10.2 12.77 6.95 12.77 6.95 11.7 5.68 11.7 5.68 15.13 6.95 15.13 6.95 14.06 10.2 14.06 10.2 15.75"/>
        <polygon class="cls-7" points="10.2 20.45 11.46 20.45 11.46 15.75 10.2 15.75 10.2 17.47 6.95 17.47 6.95 16.39 5.68 16.39 5.68 19.82 6.95 19.82 6.95 18.75 10.2 18.75 10.2 20.45"/>
        <polygon class="cls-7" points="10.2 25.14 11.46 25.14 11.46 20.45 10.2 20.45 10.2 22.16 6.95 22.16 6.95 21.09 5.68 21.09 5.68 24.52 6.95 24.52 6.95 23.44 10.2 23.44 10.2 25.14"/>
        <polygon class="cls-7" points="10.2 29.84 11.46 29.84 11.46 25.14 10.2 25.14 10.2 26.85 6.95 26.85 6.95 25.78 5.68 25.78 5.68 29.21 6.95 29.21 6.95 28.14 10.2 28.14 10.2 29.84"/>
        <polygon class="cls-7" points="10.2 34.53 11.46 34.53 11.46 29.84 10.2 29.84 10.2 31.55 6.95 31.55 6.95 30.47 5.68 30.47 5.68 33.91 6.95 33.91 6.95 32.83 10.2 32.83 10.2 34.53"/>
        <polygon class="cls-7" points="10.2 39.22 11.46 39.22 11.46 34.53 10.2 34.53 10.2 36.24 6.95 36.24 6.95 35.17 5.68 35.17 5.68 38.6 6.95 38.6 6.95 37.53 10.2 37.53 10.2 39.22"/>
        <polygon class="cls-7" points="10.2 43.92 11.46 43.92 11.46 39.22 10.2 39.22 10.2 40.94 6.95 40.94 6.95 39.86 5.68 39.86 5.68 43.29 6.95 43.29 6.95 42.22 10.2 42.22 10.2 43.92"/>
        <polygon class="cls-7" points="10.2 48.61 11.46 48.61 11.46 43.92 10.2 43.92 10.2 45.63 6.95 45.63 6.95 44.56 5.68 44.56 5.68 47.99 6.95 47.99 6.95 46.91 10.2 46.91 10.2 48.61"/>
        <polygon class="cls-7" points="10.2 53.31 11.46 53.31 11.46 48.61 10.2 48.61 10.2 50.32 6.95 50.32 6.95 49.25 5.68 49.25 5.68 52.68 6.95 52.68 6.95 51.61 10.2 51.61 10.2 53.31"/>
        <polygon class="cls-7" points="10.2 58 11.46 58 11.46 53.31 10.2 53.31 10.2 55.02 6.95 55.02 6.95 53.94 5.68 53.94 5.68 57.38 6.95 57.38 6.95 56.3 10.2 56.3 10.2 58"/>
        <polygon class="cls-7" points="10.2 62.7 11.46 62.7 11.46 58 10.2 58 10.2 59.71 6.95 59.71 6.95 58.64 5.68 58.64 5.68 62.07 6.95 62.07 6.95 61 10.2 61 10.2 62.7"/>
        <polygon class="cls-7" points="10.2 67.39 11.46 67.39 11.46 62.7 10.2 62.7 10.2 64.41 6.95 64.41 6.95 63.33 5.68 63.33 5.68 66.77 6.95 66.77 6.95 65.69 10.2 65.69 10.2 67.39"/>
        <polygon class="cls-7" points="10.2 72.08 11.46 72.08 11.46 67.39 10.2 67.39 10.2 69.1 6.95 69.1 6.95 68.03 5.68 68.03 5.68 71.46 6.95 71.46 6.95 70.39 10.2 70.39 10.2 72.08"/>
        <polygon class="cls-7" points="10.2 76.78 11.46 76.78 11.46 72.08 10.2 72.08 10.2 73.8 6.95 73.8 6.95 72.72 5.68 72.72 5.68 76.15 6.95 76.15 6.95 75.08 10.2 75.08 10.2 76.78"/>
        <polygon class="cls-7" points="10.2 81.47 11.46 81.47 11.46 76.78 10.2 76.78 10.2 78.49 6.95 78.49 6.95 77.42 5.68 77.42 5.68 80.85 6.95 80.85 6.95 79.77 10.2 79.77 10.2 81.47"/>
        <polygon class="cls-7" points="10.2 86.17 11.46 86.17 11.46 81.47 10.2 81.47 10.2 83.18 6.95 83.18 6.95 82.11 5.68 82.11 5.68 85.54 6.95 85.54 6.95 84.47 10.2 84.47 10.2 86.17"/>
        <polygon class="cls-7" points="10.2 90.86 11.46 90.86 11.46 86.17 10.2 86.17 10.2 87.88 6.95 87.88 6.95 86.8 5.68 86.8 5.68 90.24 6.95 90.24 6.95 89.16 10.2 89.16 10.2 90.86"/>
        <g class="cls-15">
          <polygon class="cls-7" points="411.87 92.12 411.87 90.86 407.82 90.86 407.82 92.12 409.3 92.12 409.3 95.37 408.37 95.37 408.37 96.64 411.33 96.64 411.33 95.37 410.41 95.37 410.41 92.12 411.87 92.12"/>
        </g>
        <g class="cls-12">
          <polygon class="cls-7" points="409.01 91.29 407.82 90.86 406.44 94.66 407.63 95.09 408.13 93.71 411.19 94.82 410.87 95.69 412.06 96.12 413.07 93.34 411.88 92.91 411.57 93.78 408.51 92.67 409.01 91.29"/>
        </g>
        <g class="cls-19">
          <polygon class="cls-7" points="440.88 3.74 439.69 3.31 436.87 11.06 438.06 11.49 439.09 8.66 442.14 9.78 441.5 11.55 442.68 11.98 444.75 6.31 443.56 5.88 442.91 7.66 439.86 6.54 440.88 3.74"/>
        </g>
        <g class="cls-1">
          <polygon class="cls-7" points="436.87 9.8 436.87 11.06 445.12 11.06 445.12 9.8 442.11 9.8 442.11 6.55 444 6.55 444 5.28 437.97 5.28 437.97 6.55 439.86 6.55 439.86 9.8 436.87 9.8"/>
        </g>
        <g class="cls-11">
          <polygon class="cls-7" points="5.68 9.8 5.68 11.06 11.46 11.06 11.46 9.8 9.35 9.8 9.35 6.55 10.67 6.55 10.67 5.28 6.45 5.28 6.45 6.55 7.77 6.55 7.77 9.8 5.68 9.8"/>
        </g>
        <g class="cls-3">
          <polygon class="cls-7" points="10.2 11.06 11.46 11.06 11.46 5.28 10.2 5.28 10.2 7.39 6.95 7.39 6.95 6.07 5.68 6.07 5.68 10.29 6.95 10.29 6.95 8.97 10.2 8.97 10.2 11.06"/>
        </g>
        <g class="cls-16">
          <polygon class="cls-7" points="10.2 96.64 11.46 96.64 11.46 90.86 10.2 90.86 10.2 92.97 6.95 92.97 6.95 91.64 5.68 91.64 5.68 95.87 6.95 95.87 6.95 94.55 10.2 94.55 10.2 96.64"/>
        </g>
        <g class="cls-4">
          <polygon class="cls-7" points="11.46 92.12 11.46 90.86 5.68 90.86 5.68 92.12 7.79 92.12 7.79 95.37 6.47 95.37 6.47 96.64 10.69 96.64 10.69 95.37 9.37 95.37 9.37 92.12 11.46 92.12"/>
        </g>
      </g>
    </g>
  </g>
</svg>