<?xml version="1.0" encoding="UTF-8"?>
<svg id="Layer_1" data-name="Layer 1" xmlns="http://www.w3.org/2000/svg" version="1.1" xmlns:xlink="http://www.w3.org/1999/xlink" viewBox="0 0 515 91">
  <defs>
    <style>
      .cls-1 {
        clip-path: url(#clippath-2);
      }

      .cls-2 {
        clip-path: url(#clippath-6);
      }

      .cls-3 {
        fill: none;
      }

      .cls-3, .cls-4 {
        stroke-width: 0px;
      }

      .cls-5 {
        clip-path: url(#clippath-7);
      }

      .cls-6 {
        clip-path: url(#clippath-1);
      }

      .cls-7 {
        clip-path: url(#clippath-4);
      }

      .cls-8 {
        clip-path: url(#clippath);
      }

      .cls-9 {
        clip-path: url(#clippath-3);
      }

      .cls-10 {
        clip-path: url(#clippath-5);
      }

      .cls-4 {
        fill: #fed700;
      }
    </style>
    <clipPath id="clippath">
      <polygon class="cls-3" points="464.3 80.9 468.7 86.6 464.3 86.6 464.3 80.9"/>
    </clipPath>
    <clipPath id="clippath-1">
      <polygon class="cls-3" points="464.3 80.9 468.7 86.6 470.3 83.1 464.3 80.9"/>
    </clipPath>
    <clipPath id="clippath-2">
      <polygon class="cls-3" points="497 11.3 506.9 5.6 503.1 13.6 497 11.3"/>
    </clipPath>
    <clipPath id="clippath-3">
      <polygon class="cls-3" points="497 11.3 506.9 5.6 497 5.6 497 11.3"/>
    </clipPath>
    <clipPath id="clippath-4">
      <polygon class="cls-3" points="12.3 11.3 5.7 5.6 12.3 5.6 12.3 11.3"/>
    </clipPath>
    <clipPath id="clippath-5">
      <polygon class="cls-3" points="12.3 11.3 5.7 5.6 5.7 11.3 12.3 11.3"/>
    </clipPath>
    <clipPath id="clippath-6">
      <polygon class="cls-3" points="12.3 80.9 5.7 86.6 5.7 80.9 12.3 80.9"/>
    </clipPath>
    <clipPath id="clippath-7">
      <polygon class="cls-3" points="12.3 80.9 5.7 86.6 12.3 86.6 12.3 80.9"/>
    </clipPath>
  </defs>
  <g id="_8_-_top_left_bg_social_media" data-name=" 8 - top left bg social media">
    <polygon class="cls-4" points="9 8.5 9 83.8 466.5 83.8 502 8.5 9 8.5"/>
    <g>
      <polygon class="cls-4" points="17.5 82.1 17.5 80.9 12.3 80.9 12.3 82.1 14.2 82.1 14.2 85.4 13 85.4 13 86.6 16.8 86.6 16.8 85.4 15.6 85.4 15.6 82.1 17.5 82.1"/>
      <polygon class="cls-4" points="22.8 82.1 22.8 80.9 17.5 80.9 17.5 82.1 19.4 82.1 19.4 85.4 18.2 85.4 18.2 86.6 22.1 86.6 22.1 85.4 20.9 85.4 20.9 82.1 22.8 82.1"/>
      <polygon class="cls-4" points="28 82.1 28 80.9 22.8 80.9 22.8 82.1 24.7 82.1 24.7 85.4 23.5 85.4 23.5 86.6 27.3 86.6 27.3 85.4 26.1 85.4 26.1 82.1 28 82.1"/>
      <polygon class="cls-4" points="33.3 82.1 33.3 80.9 28 80.9 28 82.1 30 82.1 30 85.4 28.8 85.4 28.8 86.6 32.6 86.6 32.6 85.4 31.4 85.4 31.4 82.1 33.3 82.1"/>
      <polygon class="cls-4" points="38.5 82.1 38.5 80.9 33.3 80.9 33.3 82.1 35.2 82.1 35.2 85.4 34 85.4 34 86.6 37.9 86.6 37.9 85.4 36.6 85.4 36.6 82.1 38.5 82.1"/>
      <polygon class="cls-4" points="43.8 82.1 43.8 80.9 38.5 80.9 38.5 82.1 40.5 82.1 40.5 85.4 39.3 85.4 39.3 86.6 43.1 86.6 43.1 85.4 41.9 85.4 41.9 82.1 43.8 82.1"/>
      <polygon class="cls-4" points="49.1 82.1 49.1 80.9 43.8 80.9 43.8 82.1 45.7 82.1 45.7 85.4 44.5 85.4 44.5 86.6 48.4 86.6 48.4 85.4 47.2 85.4 47.2 82.1 49.1 82.1"/>
      <polygon class="cls-4" points="54.3 82.1 54.3 80.9 49.1 80.9 49.1 82.1 51 82.1 51 85.4 49.8 85.4 49.8 86.6 53.6 86.6 53.6 85.4 52.4 85.4 52.4 82.1 54.3 82.1"/>
      <polygon class="cls-4" points="59.6 82.1 59.6 80.9 54.3 80.9 54.3 82.1 56.2 82.1 56.2 85.4 55 85.4 55 86.6 58.9 86.6 58.9 85.4 57.7 85.4 57.7 82.1 59.6 82.1"/>
      <polygon class="cls-4" points="64.8 82.1 64.8 80.9 59.6 80.9 59.6 82.1 61.5 82.1 61.5 85.4 60.3 85.4 60.3 86.6 64.1 86.6 64.1 85.4 62.9 85.4 62.9 82.1 64.8 82.1"/>
      <polygon class="cls-4" points="70.1 82.1 70.1 80.9 64.8 80.9 64.8 82.1 66.7 82.1 66.7 85.4 65.5 85.4 65.5 86.6 69.4 86.6 69.4 85.4 68.2 85.4 68.2 82.1 70.1 82.1"/>
      <polygon class="cls-4" points="75.3 82.1 75.3 80.9 70.1 80.9 70.1 82.1 72 82.1 72 85.4 70.8 85.4 70.8 86.6 74.6 86.6 74.6 85.4 73.4 85.4 73.4 82.1 75.3 82.1"/>
      <polygon class="cls-4" points="80.6 82.1 80.6 80.9 75.3 80.9 75.3 82.1 77.3 82.1 77.3 85.4 76.1 85.4 76.1 86.6 79.9 86.6 79.9 85.4 78.7 85.4 78.7 82.1 80.6 82.1"/>
      <polygon class="cls-4" points="85.8 82.1 85.8 80.9 80.6 80.9 80.6 82.1 82.5 82.1 82.5 85.4 81.3 85.4 81.3 86.6 85.2 86.6 85.2 85.4 83.9 85.4 83.9 82.1 85.8 82.1"/>
      <polygon class="cls-4" points="91.1 82.1 91.1 80.9 85.8 80.9 85.8 82.1 87.8 82.1 87.8 85.4 86.6 85.4 86.6 86.6 90.4 86.6 90.4 85.4 89.2 85.4 89.2 82.1 91.1 82.1"/>
      <polygon class="cls-4" points="96.4 82.1 96.4 80.9 91.1 80.9 91.1 82.1 93 82.1 93 85.4 91.8 85.4 91.8 86.6 95.7 86.6 95.7 85.4 94.5 85.4 94.5 82.1 96.4 82.1"/>
      <polygon class="cls-4" points="101.6 82.1 101.6 80.9 96.4 80.9 96.4 82.1 98.3 82.1 98.3 85.4 97.1 85.4 97.1 86.6 100.9 86.6 100.9 85.4 99.7 85.4 99.7 82.1 101.6 82.1"/>
      <polygon class="cls-4" points="106.9 82.1 106.9 80.9 101.6 80.9 101.6 82.1 103.5 82.1 103.5 85.4 102.3 85.4 102.3 86.6 106.2 86.6 106.2 85.4 105 85.4 105 82.1 106.9 82.1"/>
      <polygon class="cls-4" points="112.1 82.1 112.1 80.9 106.9 80.9 106.9 82.1 108.8 82.1 108.8 85.4 107.6 85.4 107.6 86.6 111.4 86.6 111.4 85.4 110.2 85.4 110.2 82.1 112.1 82.1"/>
      <polygon class="cls-4" points="117.4 82.1 117.4 80.9 112.1 80.9 112.1 82.1 114 82.1 114 85.4 112.8 85.4 112.8 86.6 116.7 86.6 116.7 85.4 115.5 85.4 115.5 82.1 117.4 82.1"/>
      <polygon class="cls-4" points="122.6 82.1 122.6 80.9 117.4 80.9 117.4 82.1 119.3 82.1 119.3 85.4 118.1 85.4 118.1 86.6 121.9 86.6 121.9 85.4 120.7 85.4 120.7 82.1 122.6 82.1"/>
      <polygon class="cls-4" points="127.9 82.1 127.9 80.9 122.6 80.9 122.6 82.1 124.6 82.1 124.6 85.4 123.4 85.4 123.4 86.6 127.2 86.6 127.2 85.4 126 85.4 126 82.1 127.9 82.1"/>
      <polygon class="cls-4" points="133.2 82.1 133.2 80.9 127.9 80.9 127.9 82.1 129.8 82.1 129.8 85.4 128.6 85.4 128.6 86.6 132.5 86.6 132.5 85.4 131.2 85.4 131.2 82.1 133.2 82.1"/>
      <polygon class="cls-4" points="138.4 82.1 138.4 80.9 133.2 80.9 133.2 82.1 135.1 82.1 135.1 85.4 133.9 85.4 133.9 86.6 137.7 86.6 137.7 85.4 136.5 85.4 136.5 82.1 138.4 82.1"/>
      <polygon class="cls-4" points="143.7 82.1 143.7 80.9 138.4 80.9 138.4 82.1 140.3 82.1 140.3 85.4 139.1 85.4 139.1 86.6 143 86.6 143 85.4 141.8 85.4 141.8 82.1 143.7 82.1"/>
      <polygon class="cls-4" points="148.9 82.1 148.9 80.9 143.7 80.9 143.7 82.1 145.6 82.1 145.6 85.4 144.4 85.4 144.4 86.6 148.2 86.6 148.2 85.4 147 85.4 147 82.1 148.9 82.1"/>
      <polygon class="cls-4" points="154.2 82.1 154.2 80.9 148.9 80.9 148.9 82.1 150.8 82.1 150.8 85.4 149.6 85.4 149.6 86.6 153.5 86.6 153.5 85.4 152.3 85.4 152.3 82.1 154.2 82.1"/>
      <polygon class="cls-4" points="159.4 82.1 159.4 80.9 154.2 80.9 154.2 82.1 156.1 82.1 156.1 85.4 154.9 85.4 154.9 86.6 158.7 86.6 158.7 85.4 157.5 85.4 157.5 82.1 159.4 82.1"/>
      <polygon class="cls-4" points="164.7 82.1 164.7 80.9 159.4 80.9 159.4 82.1 161.3 82.1 161.3 85.4 160.1 85.4 160.1 86.6 164 86.6 164 85.4 162.8 85.4 162.8 82.1 164.7 82.1"/>
      <polygon class="cls-4" points="169.9 82.1 169.9 80.9 164.7 80.9 164.7 82.1 166.6 82.1 166.6 85.4 165.4 85.4 165.4 86.6 169.2 86.6 169.2 85.4 168 85.4 168 82.1 169.9 82.1"/>
      <polygon class="cls-4" points="175.2 82.1 175.2 80.9 169.9 80.9 169.9 82.1 171.9 82.1 171.9 85.4 170.6 85.4 170.6 86.6 174.5 86.6 174.5 85.4 173.3 85.4 173.3 82.1 175.2 82.1"/>
      <polygon class="cls-4" points="180.5 82.1 180.5 80.9 175.2 80.9 175.2 82.1 177.1 82.1 177.1 85.4 175.9 85.4 175.9 86.6 179.8 86.6 179.8 85.4 178.5 85.4 178.5 82.1 180.5 82.1"/>
      <polygon class="cls-4" points="185.7 82.1 185.7 80.9 180.5 80.9 180.5 82.1 182.4 82.1 182.4 85.4 181.2 85.4 181.2 86.6 185 86.6 185 85.4 183.8 85.4 183.8 82.1 185.7 82.1"/>
      <polygon class="cls-4" points="191 82.1 191 80.9 185.7 80.9 185.7 82.1 187.6 82.1 187.6 85.4 186.4 85.4 186.4 86.6 190.3 86.6 190.3 85.4 189.1 85.4 189.1 82.1 191 82.1"/>
      <polygon class="cls-4" points="196.2 82.1 196.2 80.9 191 80.9 191 82.1 192.9 82.1 192.9 85.4 191.7 85.4 191.7 86.6 195.5 86.6 195.5 85.4 194.3 85.4 194.3 82.1 196.2 82.1"/>
      <polygon class="cls-4" points="201.5 82.1 201.5 80.9 196.2 80.9 196.2 82.1 198.1 82.1 198.1 85.4 196.9 85.4 196.9 86.6 200.8 86.6 200.8 85.4 199.6 85.4 199.6 82.1 201.5 82.1"/>
      <polygon class="cls-4" points="206.7 82.1 206.7 80.9 201.5 80.9 201.5 82.1 203.4 82.1 203.4 85.4 202.2 85.4 202.2 86.6 206 86.6 206 85.4 204.8 85.4 204.8 82.1 206.7 82.1"/>
      <polygon class="cls-4" points="212 82.1 212 80.9 206.7 80.9 206.7 82.1 208.6 82.1 208.6 85.4 207.4 85.4 207.4 86.6 211.3 86.6 211.3 85.4 210.1 85.4 210.1 82.1 212 82.1"/>
      <polygon class="cls-4" points="217.2 82.1 217.2 80.9 212 80.9 212 82.1 213.9 82.1 213.9 85.4 212.7 85.4 212.7 86.6 216.5 86.6 216.5 85.4 215.3 85.4 215.3 82.1 217.2 82.1"/>
      <polygon class="cls-4" points="222.5 82.1 222.5 80.9 217.2 80.9 217.2 82.1 219.2 82.1 219.2 85.4 217.9 85.4 217.9 86.6 221.8 86.6 221.8 85.4 220.6 85.4 220.6 82.1 222.5 82.1"/>
      <polygon class="cls-4" points="227.8 82.1 227.8 80.9 222.5 80.9 222.5 82.1 224.4 82.1 224.4 85.4 223.2 85.4 223.2 86.6 227.1 86.6 227.1 85.4 225.8 85.4 225.8 82.1 227.8 82.1"/>
      <polygon class="cls-4" points="233 82.1 233 80.9 227.8 80.9 227.8 82.1 229.7 82.1 229.7 85.4 228.5 85.4 228.5 86.6 232.3 86.6 232.3 85.4 231.1 85.4 231.1 82.1 233 82.1"/>
      <polygon class="cls-4" points="238.3 82.1 238.3 80.9 233 80.9 233 82.1 234.9 82.1 234.9 85.4 233.7 85.4 233.7 86.6 237.6 86.6 237.6 85.4 236.4 85.4 236.4 82.1 238.3 82.1"/>
      <polygon class="cls-4" points="243.5 82.1 243.5 80.9 238.3 80.9 238.3 82.1 240.2 82.1 240.2 85.4 239 85.4 239 86.6 242.8 86.6 242.8 85.4 241.6 85.4 241.6 82.1 243.5 82.1"/>
      <polygon class="cls-4" points="248.8 82.1 248.8 80.9 243.5 80.9 243.5 82.1 245.4 82.1 245.4 85.4 244.2 85.4 244.2 86.6 248.1 86.6 248.1 85.4 246.9 85.4 246.9 82.1 248.8 82.1"/>
      <polygon class="cls-4" points="254 82.1 254 80.9 248.8 80.9 248.8 82.1 250.7 82.1 250.7 85.4 249.5 85.4 249.5 86.6 253.3 86.6 253.3 85.4 252.1 85.4 252.1 82.1 254 82.1"/>
      <polygon class="cls-4" points="259.3 82.1 259.3 80.9 254 80.9 254 82.1 255.9 82.1 255.9 85.4 254.7 85.4 254.7 86.6 258.6 86.6 258.6 85.4 257.4 85.4 257.4 82.1 259.3 82.1"/>
      <polygon class="cls-4" points="264.5 82.1 264.5 80.9 259.3 80.9 259.3 82.1 261.2 82.1 261.2 85.4 260 85.4 260 86.6 263.8 86.6 263.8 85.4 262.6 85.4 262.6 82.1 264.5 82.1"/>
      <polygon class="cls-4" points="269.8 82.1 269.8 80.9 264.5 80.9 264.5 82.1 266.5 82.1 266.5 85.4 265.2 85.4 265.2 86.6 269.1 86.6 269.1 85.4 267.9 85.4 267.9 82.1 269.8 82.1"/>
      <polygon class="cls-4" points="275.1 82.1 275.1 80.9 269.8 80.9 269.8 82.1 271.7 82.1 271.7 85.4 270.5 85.4 270.5 86.6 274.4 86.6 274.4 85.4 273.1 85.4 273.1 82.1 275.1 82.1"/>
      <polygon class="cls-4" points="280.3 82.1 280.3 80.9 275.1 80.9 275.1 82.1 277 82.1 277 85.4 275.8 85.4 275.8 86.6 279.6 86.6 279.6 85.4 278.4 85.4 278.4 82.1 280.3 82.1"/>
      <polygon class="cls-4" points="285.6 82.1 285.6 80.9 280.3 80.9 280.3 82.1 282.2 82.1 282.2 85.4 281 85.4 281 86.6 284.9 86.6 284.9 85.4 283.7 85.4 283.7 82.1 285.6 82.1"/>
      <polygon class="cls-4" points="290.8 82.1 290.8 80.9 285.6 80.9 285.6 82.1 287.5 82.1 287.5 85.4 286.3 85.4 286.3 86.6 290.1 86.6 290.1 85.4 288.9 85.4 288.9 82.1 290.8 82.1"/>
      <polygon class="cls-4" points="296.1 82.1 296.1 80.9 290.8 80.9 290.8 82.1 292.7 82.1 292.7 85.4 291.5 85.4 291.5 86.6 295.4 86.6 295.4 85.4 294.2 85.4 294.2 82.1 296.1 82.1"/>
      <polygon class="cls-4" points="301.3 82.1 301.3 80.9 296.1 80.9 296.1 82.1 298 82.1 298 85.4 296.8 85.4 296.8 86.6 300.6 86.6 300.6 85.4 299.4 85.4 299.4 82.1 301.3 82.1"/>
      <polygon class="cls-4" points="306.6 82.1 306.6 80.9 301.3 80.9 301.3 82.1 303.2 82.1 303.2 85.4 302 85.4 302 86.6 305.9 86.6 305.9 85.4 304.7 85.4 304.7 82.1 306.6 82.1"/>
      <polygon class="cls-4" points="311.8 82.1 311.8 80.9 306.6 80.9 306.6 82.1 308.5 82.1 308.5 85.4 307.3 85.4 307.3 86.6 311.1 86.6 311.1 85.4 309.9 85.4 309.9 82.1 311.8 82.1"/>
      <polygon class="cls-4" points="317.1 82.1 317.1 80.9 311.8 80.9 311.8 82.1 313.8 82.1 313.8 85.4 312.6 85.4 312.6 86.6 316.4 86.6 316.4 85.4 315.2 85.4 315.2 82.1 317.1 82.1"/>
      <polygon class="cls-4" points="322.4 82.1 322.4 80.9 317.1 80.9 317.1 82.1 319 82.1 319 85.4 317.8 85.4 317.8 86.6 321.6 86.6 321.6 85.4 320.5 85.4 320.5 82.1 322.4 82.1"/>
      <polygon class="cls-4" points="327.6 82.1 327.6 80.9 322.4 80.9 322.4 82.1 324.3 82.1 324.3 85.4 323.1 85.4 323.1 86.6 326.9 86.6 326.9 85.4 325.7 85.4 325.7 82.1 327.6 82.1"/>
      <polygon class="cls-4" points="332.9 82.1 332.9 80.9 327.6 80.9 327.6 82.1 329.5 82.1 329.5 85.4 328.3 85.4 328.3 86.6 332.2 86.6 332.2 85.4 331 85.4 331 82.1 332.9 82.1"/>
      <polygon class="cls-4" points="338.1 82.1 338.1 80.9 332.9 80.9 332.9 82.1 334.8 82.1 334.8 85.4 333.6 85.4 333.6 86.6 337.4 86.6 337.4 85.4 336.2 85.4 336.2 82.1 338.1 82.1"/>
      <polygon class="cls-4" points="343.4 82.1 343.4 80.9 338.1 80.9 338.1 82.1 340 82.1 340 85.4 338.8 85.4 338.8 86.6 342.7 86.6 342.7 85.4 341.5 85.4 341.5 82.1 343.4 82.1"/>
      <polygon class="cls-4" points="348.6 82.1 348.6 80.9 343.4 80.9 343.4 82.1 345.3 82.1 345.3 85.4 344.1 85.4 344.1 86.6 347.9 86.6 347.9 85.4 346.7 85.4 346.7 82.1 348.6 82.1"/>
      <polygon class="cls-4" points="353.9 82.1 353.9 80.9 348.6 80.9 348.6 82.1 350.5 82.1 350.5 85.4 349.3 85.4 349.3 86.6 353.2 86.6 353.2 85.4 352 85.4 352 82.1 353.9 82.1"/>
      <polygon class="cls-4" points="359.1 82.1 359.1 80.9 353.9 80.9 353.9 82.1 355.8 82.1 355.8 85.4 354.6 85.4 354.6 86.6 358.4 86.6 358.4 85.4 357.2 85.4 357.2 82.1 359.1 82.1"/>
      <polygon class="cls-4" points="364.4 82.1 364.4 80.9 359.1 80.9 359.1 82.1 361.1 82.1 361.1 85.4 359.9 85.4 359.9 86.6 363.7 86.6 363.7 85.4 362.5 85.4 362.5 82.1 364.4 82.1"/>
      <polygon class="cls-4" points="369.7 82.1 369.7 80.9 364.4 80.9 364.4 82.1 366.3 82.1 366.3 85.4 365.1 85.4 365.1 86.6 368.9 86.6 368.9 85.4 367.8 85.4 367.8 82.1 369.7 82.1"/>
      <polygon class="cls-4" points="374.9 82.1 374.9 80.9 369.7 80.9 369.7 82.1 371.6 82.1 371.6 85.4 370.4 85.4 370.4 86.6 374.2 86.6 374.2 85.4 373 85.4 373 82.1 374.9 82.1"/>
      <polygon class="cls-4" points="380.2 82.1 380.2 80.9 374.9 80.9 374.9 82.1 376.8 82.1 376.8 85.4 375.6 85.4 375.6 86.6 379.5 86.6 379.5 85.4 378.3 85.4 378.3 82.1 380.2 82.1"/>
      <polygon class="cls-4" points="385.4 82.1 385.4 80.9 380.2 80.9 380.2 82.1 382.1 82.1 382.1 85.4 380.9 85.4 380.9 86.6 384.7 86.6 384.7 85.4 383.5 85.4 383.5 82.1 385.4 82.1"/>
      <polygon class="cls-4" points="390.7 82.1 390.7 80.9 385.4 80.9 385.4 82.1 387.3 82.1 387.3 85.4 386.1 85.4 386.1 86.6 390 86.6 390 85.4 388.8 85.4 388.8 82.1 390.7 82.1"/>
      <polygon class="cls-4" points="395.9 82.1 395.9 80.9 390.7 80.9 390.7 82.1 392.6 82.1 392.6 85.4 391.4 85.4 391.4 86.6 395.2 86.6 395.2 85.4 394 85.4 394 82.1 395.9 82.1"/>
      <polygon class="cls-4" points="401.2 82.1 401.2 80.9 395.9 80.9 395.9 82.1 397.8 82.1 397.8 85.4 396.6 85.4 396.6 86.6 400.5 86.6 400.5 85.4 399.3 85.4 399.3 82.1 401.2 82.1"/>
      <polygon class="cls-4" points="406.4 82.1 406.4 80.9 401.2 80.9 401.2 82.1 403.1 82.1 403.1 85.4 401.9 85.4 401.9 86.6 405.7 86.6 405.7 85.4 404.5 85.4 404.5 82.1 406.4 82.1"/>
      <polygon class="cls-4" points="411.7 82.1 411.7 80.9 406.4 80.9 406.4 82.1 408.4 82.1 408.4 85.4 407.2 85.4 407.2 86.6 411 86.6 411 85.4 409.8 85.4 409.8 82.1 411.7 82.1"/>
      <polygon class="cls-4" points="417 82.1 417 80.9 411.7 80.9 411.7 82.1 413.6 82.1 413.6 85.4 412.4 85.4 412.4 86.6 416.3 86.6 416.3 85.4 415.1 85.4 415.1 82.1 417 82.1"/>
      <polygon class="cls-4" points="422.2 82.1 422.2 80.9 417 80.9 417 82.1 418.9 82.1 418.9 85.4 417.7 85.4 417.7 86.6 421.5 86.6 421.5 85.4 420.3 85.4 420.3 82.1 422.2 82.1"/>
      <polygon class="cls-4" points="427.5 82.1 427.5 80.9 422.2 80.9 422.2 82.1 424.1 82.1 424.1 85.4 422.9 85.4 422.9 86.6 426.8 86.6 426.8 85.4 425.6 85.4 425.6 82.1 427.5 82.1"/>
      <polygon class="cls-4" points="432.7 82.1 432.7 80.9 427.5 80.9 427.5 82.1 429.4 82.1 429.4 85.4 428.2 85.4 428.2 86.6 432 86.6 432 85.4 430.8 85.4 430.8 82.1 432.7 82.1"/>
      <polygon class="cls-4" points="438 82.1 438 80.9 432.7 80.9 432.7 82.1 434.6 82.1 434.6 85.4 433.4 85.4 433.4 86.6 437.3 86.6 437.3 85.4 436.1 85.4 436.1 82.1 438 82.1"/>
      <polygon class="cls-4" points="443.2 82.1 443.2 80.9 438 80.9 438 82.1 439.9 82.1 439.9 85.4 438.7 85.4 438.7 86.6 442.5 86.6 442.5 85.4 441.3 85.4 441.3 82.1 443.2 82.1"/>
      <polygon class="cls-4" points="448.5 82.1 448.5 80.9 443.2 80.9 443.2 82.1 445.2 82.1 445.2 85.4 443.9 85.4 443.9 86.6 447.8 86.6 447.8 85.4 446.6 85.4 446.6 82.1 448.5 82.1"/>
      <polygon class="cls-4" points="453.7 82.1 453.7 80.9 448.5 80.9 448.5 82.1 450.4 82.1 450.4 85.4 449.2 85.4 449.2 86.6 453 86.6 453 85.4 451.8 85.4 451.8 82.1 453.7 82.1"/>
      <polygon class="cls-4" points="459 82.1 459 80.9 453.7 80.9 453.7 82.1 455.7 82.1 455.7 85.4 454.5 85.4 454.5 86.6 458.3 86.6 458.3 85.4 457.1 85.4 457.1 82.1 459 82.1"/>
      <polygon class="cls-4" points="464.3 82.1 464.3 80.9 459 80.9 459 82.1 460.9 82.1 460.9 85.4 459.7 85.4 459.7 86.6 463.6 86.6 463.6 85.4 462.4 85.4 462.4 82.1 464.3 82.1"/>
      <polygon class="cls-4" points="467.6 77 466.3 76.5 464.3 80.9 465.6 81.3 466.3 79.8 469.8 81 469.3 82 470.6 82.5 472.1 79.3 470.8 78.8 470.3 79.8 466.9 78.6 467.6 77"/>
      <polygon class="cls-4" points="469.7 72.7 468.4 72.2 466.3 76.5 467.6 77 468.4 75.4 471.8 76.7 471.3 77.7 472.7 78.1 474.2 75 472.8 74.5 472.4 75.5 468.9 74.2 469.7 72.7"/>
      <polygon class="cls-4" points="471.7 68.3 470.4 67.8 468.4 72.2 469.7 72.7 470.4 71.1 473.9 72.3 473.4 73.3 474.7 73.8 476.2 70.6 474.9 70.1 474.4 71.1 471 69.9 471.7 68.3"/>
      <polygon class="cls-4" points="473.8 64 472.5 63.5 470.4 67.8 471.7 68.3 472.5 66.7 475.9 68 475.4 69 476.8 69.4 478.3 66.3 476.9 65.8 476.5 66.8 473 65.5 473.8 64"/>
      <polygon class="cls-4" points="475.8 59.6 474.5 59.1 472.5 63.5 473.8 64 474.5 62.4 478 63.6 477.5 64.6 478.8 65.1 480.3 61.9 479 61.4 478.5 62.4 475.1 61.2 475.8 59.6"/>
      <polygon class="cls-4" points="477.9 55.3 476.5 54.8 474.5 59.1 475.8 59.6 476.6 58 480 59.3 479.5 60.3 480.9 60.8 482.4 57.6 481 57.1 480.6 58.1 477.1 56.8 477.9 55.3"/>
      <polygon class="cls-4" points="479.9 50.9 478.6 50.5 476.5 54.8 477.9 55.3 478.6 53.7 482.1 54.9 481.6 55.9 482.9 56.4 484.4 53.2 483.1 52.8 482.6 53.8 479.2 52.5 479.9 50.9"/>
      <polygon class="cls-4" points="482 46.6 480.7 46.1 478.6 50.5 479.9 50.9 480.7 49.3 484.1 50.6 483.6 51.6 485 52.1 486.5 48.9 485.1 48.4 484.7 49.4 481.2 48.2 482 46.6"/>
      <polygon class="cls-4" points="484 42.2 482.7 41.8 480.7 46.1 482 46.6 482.7 45 486.1 46.2 485.7 47.2 487 47.7 488.5 44.5 487.2 44.1 486.7 45.1 483.3 43.8 484 42.2"/>
      <polygon class="cls-4" points="486.1 37.9 484.7 37.4 482.7 41.8 484 42.2 484.8 40.7 488.2 41.9 487.7 42.9 489.1 43.4 490.6 40.2 489.2 39.7 488.8 40.7 485.3 39.5 486.1 37.9"/>
      <polygon class="cls-4" points="488.1 33.5 486.8 33.1 484.7 37.4 486.1 37.9 486.8 36.3 490.3 37.6 489.8 38.5 491.1 39 492.6 35.9 491.3 35.4 490.8 36.4 487.4 35.1 488.1 33.5"/>
      <polygon class="cls-4" points="490.2 29.2 488.8 28.7 486.8 33.1 488.1 33.5 488.9 32 492.3 33.2 491.8 34.2 493.2 34.7 494.7 31.5 493.3 31 492.9 32 489.4 30.8 490.2 29.2"/>
      <polygon class="cls-4" points="492.2 24.9 490.9 24.4 488.8 28.7 490.2 29.2 490.9 27.6 494.3 28.9 493.9 29.9 495.2 30.4 496.7 27.2 495.4 26.7 494.9 27.7 491.5 26.4 492.2 24.9"/>
      <polygon class="cls-4" points="494.3 20.5 492.9 20 490.9 24.4 492.2 24.9 493 23.3 496.4 24.5 495.9 25.5 497.3 26 498.8 22.8 497.4 22.3 497 23.3 493.5 22.1 494.3 20.5"/>
      <polygon class="cls-4" points="496.3 16.2 495 15.7 492.9 20 494.3 20.5 495 18.9 498.4 20.2 498 21.2 499.3 21.7 500.8 18.5 499.5 18 499 19 495.6 17.8 496.3 16.2"/>
      <polygon class="cls-4" points="498.4 11.8 497 11.4 495 15.7 496.3 16.2 497.1 14.6 500.5 15.8 500 16.8 501.4 17.3 502.8 14.1 501.5 13.6 501.1 14.6 497.6 13.4 498.4 11.8"/>
      <polygon class="cls-4" points="491.8 10.1 491.8 11.4 497 11.4 497 10.1 495.1 10.1 495.1 6.8 496.3 6.8 496.3 5.6 492.5 5.6 492.5 6.8 493.7 6.8 493.7 10.1 491.8 10.1"/>
      <polygon class="cls-4" points="486.5 10.1 486.5 11.4 491.8 11.4 491.8 10.1 489.9 10.1 489.9 6.8 491.1 6.8 491.1 5.6 487.2 5.6 487.2 6.8 488.4 6.8 488.4 10.1 486.5 10.1"/>
      <polygon class="cls-4" points="481.2 10.1 481.2 11.4 486.5 11.4 486.5 10.1 484.6 10.1 484.6 6.8 485.8 6.8 485.8 5.6 481.9 5.6 481.9 6.8 483.1 6.8 483.1 10.1 481.2 10.1"/>
      <polygon class="cls-4" points="476 10.1 476 11.4 481.2 11.4 481.2 10.1 479.3 10.1 479.3 6.8 480.5 6.8 480.5 5.6 476.7 5.6 476.7 6.8 477.9 6.8 477.9 10.1 476 10.1"/>
      <polygon class="cls-4" points="470.7 10.1 470.7 11.4 476 11.4 476 10.1 474 10.1 474 6.8 475.2 6.8 475.2 5.6 471.4 5.6 471.4 6.8 472.6 6.8 472.6 10.1 470.7 10.1"/>
      <polygon class="cls-4" points="465.4 10.1 465.4 11.4 470.7 11.4 470.7 10.1 468.8 10.1 468.8 6.8 470 6.8 470 5.6 466.1 5.6 466.1 6.8 467.3 6.8 467.3 10.1 465.4 10.1"/>
      <polygon class="cls-4" points="460.2 10.1 460.2 11.4 465.4 11.4 465.4 10.1 463.5 10.1 463.5 6.8 464.7 6.8 464.7 5.6 460.9 5.6 460.9 6.8 462.1 6.8 462.1 10.1 460.2 10.1"/>
      <polygon class="cls-4" points="454.9 10.1 454.9 11.4 460.2 11.4 460.2 10.1 458.2 10.1 458.2 6.8 459.4 6.8 459.4 5.6 455.6 5.6 455.6 6.8 456.8 6.8 456.8 10.1 454.9 10.1"/>
      <polygon class="cls-4" points="449.6 10.1 449.6 11.4 454.9 11.4 454.9 10.1 453 10.1 453 6.8 454.2 6.8 454.2 5.6 450.3 5.6 450.3 6.8 451.5 6.8 451.5 10.1 449.6 10.1"/>
      <polygon class="cls-4" points="444.4 10.1 444.4 11.4 449.6 11.4 449.6 10.1 447.7 10.1 447.7 6.8 448.9 6.8 448.9 5.6 445 5.6 445 6.8 446.3 6.8 446.3 10.1 444.4 10.1"/>
      <polygon class="cls-4" points="439.1 10.1 439.1 11.4 444.4 11.4 444.4 10.1 442.4 10.1 442.4 6.8 443.6 6.8 443.6 5.6 439.8 5.6 439.8 6.8 441 6.8 441 10.1 439.1 10.1"/>
      <polygon class="cls-4" points="433.8 10.1 433.8 11.4 439.1 11.4 439.1 10.1 437.2 10.1 437.2 6.8 438.4 6.8 438.4 5.6 434.5 5.6 434.5 6.8 435.7 6.8 435.7 10.1 433.8 10.1"/>
      <polygon class="cls-4" points="428.5 10.1 428.5 11.4 433.8 11.4 433.8 10.1 431.9 10.1 431.9 6.8 433.1 6.8 433.1 5.6 429.2 5.6 429.2 6.8 430.4 6.8 430.4 10.1 428.5 10.1"/>
      <polygon class="cls-4" points="423.3 10.1 423.3 11.4 428.5 11.4 428.5 10.1 426.6 10.1 426.6 6.8 427.8 6.8 427.8 5.6 424 5.6 424 6.8 425.2 6.8 425.2 10.1 423.3 10.1"/>
      <polygon class="cls-4" points="418 10.1 418 11.4 423.3 11.4 423.3 10.1 421.3 10.1 421.3 6.8 422.6 6.8 422.6 5.6 418.7 5.6 418.7 6.8 419.9 6.8 419.9 10.1 418 10.1"/>
      <polygon class="cls-4" points="412.7 10.1 412.7 11.4 418 11.4 418 10.1 416.1 10.1 416.1 6.8 417.3 6.8 417.3 5.6 413.4 5.6 413.4 6.8 414.6 6.8 414.6 10.1 412.7 10.1"/>
      <polygon class="cls-4" points="407.5 10.1 407.5 11.4 412.7 11.4 412.7 10.1 410.8 10.1 410.8 6.8 412 6.8 412 5.6 408.2 5.6 408.2 6.8 409.4 6.8 409.4 10.1 407.5 10.1"/>
      <polygon class="cls-4" points="402.2 10.1 402.2 11.4 407.5 11.4 407.5 10.1 405.5 10.1 405.5 6.8 406.7 6.8 406.7 5.6 402.9 5.6 402.9 6.8 404.1 6.8 404.1 10.1 402.2 10.1"/>
      <polygon class="cls-4" points="396.9 10.1 396.9 11.4 402.2 11.4 402.2 10.1 400.3 10.1 400.3 6.8 401.5 6.8 401.5 5.6 397.6 5.6 397.6 6.8 398.8 6.8 398.8 10.1 396.9 10.1"/>
      <polygon class="cls-4" points="391.7 10.1 391.7 11.4 396.9 11.4 396.9 10.1 395 10.1 395 6.8 396.2 6.8 396.2 5.6 392.4 5.6 392.4 6.8 393.6 6.8 393.6 10.1 391.7 10.1"/>
      <polygon class="cls-4" points="386.4 10.1 386.4 11.4 391.7 11.4 391.7 10.1 389.7 10.1 389.7 6.8 390.9 6.8 390.9 5.6 387.1 5.6 387.1 6.8 388.3 6.8 388.3 10.1 386.4 10.1"/>
      <polygon class="cls-4" points="381.1 10.1 381.1 11.4 386.4 11.4 386.4 10.1 384.5 10.1 384.5 6.8 385.7 6.8 385.7 5.6 381.8 5.6 381.8 6.8 383 6.8 383 10.1 381.1 10.1"/>
      <polygon class="cls-4" points="375.8 10.1 375.8 11.4 381.1 11.4 381.1 10.1 379.2 10.1 379.2 6.8 380.4 6.8 380.4 5.6 376.6 5.6 376.6 6.8 377.8 6.8 377.8 10.1 375.8 10.1"/>
      <polygon class="cls-4" points="370.6 10.1 370.6 11.4 375.8 11.4 375.8 10.1 373.9 10.1 373.9 6.8 375.1 6.8 375.1 5.6 371.3 5.6 371.3 6.8 372.5 6.8 372.5 10.1 370.6 10.1"/>
      <polygon class="cls-4" points="365.3 10.1 365.3 11.4 370.6 11.4 370.6 10.1 368.7 10.1 368.7 6.8 369.9 6.8 369.9 5.6 366 5.6 366 6.8 367.2 6.8 367.2 10.1 365.3 10.1"/>
      <polygon class="cls-4" points="360 10.1 360 11.4 365.3 11.4 365.3 10.1 363.4 10.1 363.4 6.8 364.6 6.8 364.6 5.6 360.7 5.6 360.7 6.8 361.9 6.8 361.9 10.1 360 10.1"/>
      <polygon class="cls-4" points="354.8 10.1 354.8 11.4 360 11.4 360 10.1 358.1 10.1 358.1 6.8 359.3 6.8 359.3 5.6 355.5 5.6 355.5 6.8 356.7 6.8 356.7 10.1 354.8 10.1"/>
      <polygon class="cls-4" points="349.5 10.1 349.5 11.4 354.8 11.4 354.8 10.1 352.9 10.1 352.9 6.8 354.1 6.8 354.1 5.6 350.2 5.6 350.2 6.8 351.4 6.8 351.4 10.1 349.5 10.1"/>
      <polygon class="cls-4" points="344.2 10.1 344.2 11.4 349.5 11.4 349.5 10.1 347.6 10.1 347.6 6.8 348.8 6.8 348.8 5.6 344.9 5.6 344.9 6.8 346.1 6.8 346.1 10.1 344.2 10.1"/>
      <polygon class="cls-4" points="339 10.1 339 11.4 344.2 11.4 344.2 10.1 342.3 10.1 342.3 6.8 343.5 6.8 343.5 5.6 339.7 5.6 339.7 6.8 340.9 6.8 340.9 10.1 339 10.1"/>
      <polygon class="cls-4" points="333.7 10.1 333.7 11.4 339 11.4 339 10.1 337 10.1 337 6.8 338.2 6.8 338.2 5.6 334.4 5.6 334.4 6.8 335.6 6.8 335.6 10.1 333.7 10.1"/>
      <polygon class="cls-4" points="328.4 10.1 328.4 11.4 333.7 11.4 333.7 10.1 331.8 10.1 331.8 6.8 333 6.8 333 5.6 329.1 5.6 329.1 6.8 330.3 6.8 330.3 10.1 328.4 10.1"/>
      <polygon class="cls-4" points="323.2 10.1 323.2 11.4 328.4 11.4 328.4 10.1 326.5 10.1 326.5 6.8 327.7 6.8 327.7 5.6 323.9 5.6 323.9 6.8 325.1 6.8 325.1 10.1 323.2 10.1"/>
      <polygon class="cls-4" points="317.9 10.1 317.9 11.4 323.2 11.4 323.2 10.1 321.2 10.1 321.2 6.8 322.4 6.8 322.4 5.6 318.6 5.6 318.6 6.8 319.8 6.8 319.8 10.1 317.9 10.1"/>
      <polygon class="cls-4" points="312.6 10.1 312.6 11.4 317.9 11.4 317.9 10.1 316 10.1 316 6.8 317.2 6.8 317.2 5.6 313.3 5.6 313.3 6.8 314.5 6.8 314.5 10.1 312.6 10.1"/>
      <polygon class="cls-4" points="307.4 10.1 307.4 11.4 312.6 11.4 312.6 10.1 310.7 10.1 310.7 6.8 311.9 6.8 311.9 5.6 308 5.6 308 6.8 309.3 6.8 309.3 10.1 307.4 10.1"/>
      <polygon class="cls-4" points="302.1 10.1 302.1 11.4 307.4 11.4 307.4 10.1 305.4 10.1 305.4 6.8 306.6 6.8 306.6 5.6 302.8 5.6 302.8 6.8 304 6.8 304 10.1 302.1 10.1"/>
      <polygon class="cls-4" points="296.8 10.1 296.8 11.4 302.1 11.4 302.1 10.1 300.2 10.1 300.2 6.8 301.4 6.8 301.4 5.6 297.5 5.6 297.5 6.8 298.7 6.8 298.7 10.1 296.8 10.1"/>
      <polygon class="cls-4" points="291.5 10.1 291.5 11.4 296.8 11.4 296.8 10.1 294.9 10.1 294.9 6.8 296.1 6.8 296.1 5.6 292.2 5.6 292.2 6.8 293.4 6.8 293.4 10.1 291.5 10.1"/>
      <polygon class="cls-4" points="286.3 10.1 286.3 11.4 291.5 11.4 291.5 10.1 289.6 10.1 289.6 6.8 290.8 6.8 290.8 5.6 287 5.6 287 6.8 288.2 6.8 288.2 10.1 286.3 10.1"/>
      <polygon class="cls-4" points="281 10.1 281 11.4 286.3 11.4 286.3 10.1 284.3 10.1 284.3 6.8 285.6 6.8 285.6 5.6 281.7 5.6 281.7 6.8 282.9 6.8 282.9 10.1 281 10.1"/>
      <polygon class="cls-4" points="275.7 10.1 275.7 11.4 281 11.4 281 10.1 279.1 10.1 279.1 6.8 280.3 6.8 280.3 5.6 276.4 5.6 276.4 6.8 277.6 6.8 277.6 10.1 275.7 10.1"/>
      <polygon class="cls-4" points="270.5 10.1 270.5 11.4 275.7 11.4 275.7 10.1 273.8 10.1 273.8 6.8 275 6.8 275 5.6 271.2 5.6 271.2 6.8 272.4 6.8 272.4 10.1 270.5 10.1"/>
      <polygon class="cls-4" points="265.2 10.1 265.2 11.4 270.5 11.4 270.5 10.1 268.5 10.1 268.5 6.8 269.8 6.8 269.8 5.6 265.9 5.6 265.9 6.8 267.1 6.8 267.1 10.1 265.2 10.1"/>
      <polygon class="cls-4" points="259.9 10.1 259.9 11.4 265.2 11.4 265.2 10.1 263.3 10.1 263.3 6.8 264.5 6.8 264.5 5.6 260.6 5.6 260.6 6.8 261.8 6.8 261.8 10.1 259.9 10.1"/>
      <polygon class="cls-4" points="254.7 10.1 254.7 11.4 259.9 11.4 259.9 10.1 258 10.1 258 6.8 259.2 6.8 259.2 5.6 255.4 5.6 255.4 6.8 256.6 6.8 256.6 10.1 254.7 10.1"/>
      <polygon class="cls-4" points="249.4 10.1 249.4 11.4 254.7 11.4 254.7 10.1 252.7 10.1 252.7 6.8 253.9 6.8 253.9 5.6 250.1 5.6 250.1 6.8 251.3 6.8 251.3 10.1 249.4 10.1"/>
      <polygon class="cls-4" points="244.1 10.1 244.1 11.4 249.4 11.4 249.4 10.1 247.5 10.1 247.5 6.8 248.7 6.8 248.7 5.6 244.8 5.6 244.8 6.8 246 6.8 246 10.1 244.1 10.1"/>
      <polygon class="cls-4" points="238.8 10.1 238.8 11.4 244.1 11.4 244.1 10.1 242.2 10.1 242.2 6.8 243.4 6.8 243.4 5.6 239.6 5.6 239.6 6.8 240.7 6.8 240.7 10.1 238.8 10.1"/>
      <polygon class="cls-4" points="233.6 10.1 233.6 11.4 238.8 11.4 238.8 10.1 236.9 10.1 236.9 6.8 238.1 6.8 238.1 5.6 234.3 5.6 234.3 6.8 235.5 6.8 235.5 10.1 233.6 10.1"/>
      <polygon class="cls-4" points="228.3 10.1 228.3 11.4 233.6 11.4 233.6 10.1 231.7 10.1 231.7 6.8 232.9 6.8 232.9 5.6 229 5.6 229 6.8 230.2 6.8 230.2 10.1 228.3 10.1"/>
      <polygon class="cls-4" points="223 10.1 223 11.4 228.3 11.4 228.3 10.1 226.4 10.1 226.4 6.8 227.6 6.8 227.6 5.6 223.7 5.6 223.7 6.8 224.9 6.8 224.9 10.1 223 10.1"/>
      <polygon class="cls-4" points="217.8 10.1 217.8 11.4 223 11.4 223 10.1 221.1 10.1 221.1 6.8 222.3 6.8 222.3 5.6 218.5 5.6 218.5 6.8 219.7 6.8 219.7 10.1 217.8 10.1"/>
      <polygon class="cls-4" points="212.5 10.1 212.5 11.4 217.8 11.4 217.8 10.1 215.9 10.1 215.9 6.8 217.1 6.8 217.1 5.6 213.2 5.6 213.2 6.8 214.4 6.8 214.4 10.1 212.5 10.1"/>
      <polygon class="cls-4" points="207.2 10.1 207.2 11.4 212.5 11.4 212.5 10.1 210.6 10.1 210.6 6.8 211.8 6.8 211.8 5.6 207.9 5.6 207.9 6.8 209.1 6.8 209.1 10.1 207.2 10.1"/>
      <polygon class="cls-4" points="202 10.1 202 11.4 207.2 11.4 207.2 10.1 205.3 10.1 205.3 6.8 206.5 6.8 206.5 5.6 202.7 5.6 202.7 6.8 203.9 6.8 203.9 10.1 202 10.1"/>
      <polygon class="cls-4" points="196.7 10.1 196.7 11.4 202 11.4 202 10.1 200 10.1 200 6.8 201.2 6.8 201.2 5.6 197.4 5.6 197.4 6.8 198.6 6.8 198.6 10.1 196.7 10.1"/>
      <polygon class="cls-4" points="191.4 10.1 191.4 11.4 196.7 11.4 196.7 10.1 194.8 10.1 194.8 6.8 196 6.8 196 5.6 192.1 5.6 192.1 6.8 193.3 6.8 193.3 10.1 191.4 10.1"/>
      <polygon class="cls-4" points="186.2 10.1 186.2 11.4 191.4 11.4 191.4 10.1 189.5 10.1 189.5 6.8 190.7 6.8 190.7 5.6 186.9 5.6 186.9 6.8 188.1 6.8 188.1 10.1 186.2 10.1"/>
      <polygon class="cls-4" points="180.9 10.1 180.9 11.4 186.2 11.4 186.2 10.1 184.2 10.1 184.2 6.8 185.4 6.8 185.4 5.6 181.6 5.6 181.6 6.8 182.8 6.8 182.8 10.1 180.9 10.1"/>
      <polygon class="cls-4" points="175.6 10.1 175.6 11.4 180.9 11.4 180.9 10.1 179 10.1 179 6.8 180.2 6.8 180.2 5.6 176.3 5.6 176.3 6.8 177.5 6.8 177.5 10.1 175.6 10.1"/>
      <polygon class="cls-4" points="170.4 10.1 170.4 11.4 175.6 11.4 175.6 10.1 173.7 10.1 173.7 6.8 174.9 6.8 174.9 5.6 171 5.6 171 6.8 172.3 6.8 172.3 10.1 170.4 10.1"/>
      <polygon class="cls-4" points="165.1 10.1 165.1 11.4 170.4 11.4 170.4 10.1 168.4 10.1 168.4 6.8 169.6 6.8 169.6 5.6 165.8 5.6 165.8 6.8 167 6.8 167 10.1 165.1 10.1"/>
      <polygon class="cls-4" points="159.8 10.1 159.8 11.4 165.1 11.4 165.1 10.1 163.2 10.1 163.2 6.8 164.4 6.8 164.4 5.6 160.5 5.6 160.5 6.8 161.7 6.8 161.7 10.1 159.8 10.1"/>
      <polygon class="cls-4" points="154.5 10.1 154.5 11.4 159.8 11.4 159.8 10.1 157.9 10.1 157.9 6.8 159.1 6.8 159.1 5.6 155.2 5.6 155.2 6.8 156.4 6.8 156.4 10.1 154.5 10.1"/>
      <polygon class="cls-4" points="149.3 10.1 149.3 11.4 154.5 11.4 154.5 10.1 152.6 10.1 152.6 6.8 153.8 6.8 153.8 5.6 150 5.6 150 6.8 151.2 6.8 151.2 10.1 149.3 10.1"/>
      <polygon class="cls-4" points="144 10.1 144 11.4 149.3 11.4 149.3 10.1 147.3 10.1 147.3 6.8 148.6 6.8 148.6 5.6 144.7 5.6 144.7 6.8 145.9 6.8 145.9 10.1 144 10.1"/>
      <polygon class="cls-4" points="138.7 10.1 138.7 11.4 144 11.4 144 10.1 142.1 10.1 142.1 6.8 143.3 6.8 143.3 5.6 139.4 5.6 139.4 6.8 140.6 6.8 140.6 10.1 138.7 10.1"/>
      <polygon class="cls-4" points="133.5 10.1 133.5 11.4 138.7 11.4 138.7 10.1 136.8 10.1 136.8 6.8 138 6.8 138 5.6 134.2 5.6 134.2 6.8 135.4 6.8 135.4 10.1 133.5 10.1"/>
      <polygon class="cls-4" points="128.2 10.1 128.2 11.4 133.5 11.4 133.5 10.1 131.5 10.1 131.5 6.8 132.8 6.8 132.8 5.6 128.9 5.6 128.9 6.8 130.1 6.8 130.1 10.1 128.2 10.1"/>
      <polygon class="cls-4" points="122.9 10.1 122.9 11.4 128.2 11.4 128.2 10.1 126.3 10.1 126.3 6.8 127.5 6.8 127.5 5.6 123.6 5.6 123.6 6.8 124.8 6.8 124.8 10.1 122.9 10.1"/>
      <polygon class="cls-4" points="117.7 10.1 117.7 11.4 122.9 11.4 122.9 10.1 121 10.1 121 6.8 122.2 6.8 122.2 5.6 118.4 5.6 118.4 6.8 119.6 6.8 119.6 10.1 117.7 10.1"/>
      <polygon class="cls-4" points="112.4 10.1 112.4 11.4 117.7 11.4 117.7 10.1 115.7 10.1 115.7 6.8 116.9 6.8 116.9 5.6 113.1 5.6 113.1 6.8 114.3 6.8 114.3 10.1 112.4 10.1"/>
      <polygon class="cls-4" points="107.1 10.1 107.1 11.4 112.4 11.4 112.4 10.1 110.5 10.1 110.5 6.8 111.7 6.8 111.7 5.6 107.8 5.6 107.8 6.8 109 6.8 109 10.1 107.1 10.1"/>
      <polygon class="cls-4" points="101.8 10.1 101.8 11.4 107.1 11.4 107.1 10.1 105.2 10.1 105.2 6.8 106.4 6.8 106.4 5.6 102.6 5.6 102.6 6.8 103.7 6.8 103.7 10.1 101.8 10.1"/>
      <polygon class="cls-4" points="96.6 10.1 96.6 11.4 101.8 11.4 101.8 10.1 99.9 10.1 99.9 6.8 101.1 6.8 101.1 5.6 97.3 5.6 97.3 6.8 98.5 6.8 98.5 10.1 96.6 10.1"/>
      <polygon class="cls-4" points="91.3 10.1 91.3 11.4 96.6 11.4 96.6 10.1 94.7 10.1 94.7 6.8 95.9 6.8 95.9 5.6 92 5.6 92 6.8 93.2 6.8 93.2 10.1 91.3 10.1"/>
      <polygon class="cls-4" points="86 10.1 86 11.4 91.3 11.4 91.3 10.1 89.4 10.1 89.4 6.8 90.6 6.8 90.6 5.6 86.7 5.6 86.7 6.8 87.9 6.8 87.9 10.1 86 10.1"/>
      <polygon class="cls-4" points="80.8 10.1 80.8 11.4 86 11.4 86 10.1 84.1 10.1 84.1 6.8 85.3 6.8 85.3 5.6 81.5 5.6 81.5 6.8 82.7 6.8 82.7 10.1 80.8 10.1"/>
      <polygon class="cls-4" points="75.5 10.1 75.5 11.4 80.8 11.4 80.8 10.1 78.8 10.1 78.8 6.8 80.1 6.8 80.1 5.6 76.2 5.6 76.2 6.8 77.4 6.8 77.4 10.1 75.5 10.1"/>
      <polygon class="cls-4" points="70.2 10.1 70.2 11.4 75.5 11.4 75.5 10.1 73.6 10.1 73.6 6.8 74.8 6.8 74.8 5.6 70.9 5.6 70.9 6.8 72.1 6.8 72.1 10.1 70.2 10.1"/>
      <polygon class="cls-4" points="65 10.1 65 11.4 70.2 11.4 70.2 10.1 68.3 10.1 68.3 6.8 69.5 6.8 69.5 5.6 65.7 5.6 65.7 6.8 66.9 6.8 66.9 10.1 65 10.1"/>
      <polygon class="cls-4" points="59.7 10.1 59.7 11.4 65 11.4 65 10.1 63 10.1 63 6.8 64.2 6.8 64.2 5.6 60.4 5.6 60.4 6.8 61.6 6.8 61.6 10.1 59.7 10.1"/>
      <polygon class="cls-4" points="54.4 10.1 54.4 11.4 59.7 11.4 59.7 10.1 57.8 10.1 57.8 6.8 59 6.8 59 5.6 55.1 5.6 55.1 6.8 56.3 6.8 56.3 10.1 54.4 10.1"/>
      <polygon class="cls-4" points="49.2 10.1 49.2 11.4 54.4 11.4 54.4 10.1 52.5 10.1 52.5 6.8 53.7 6.8 53.7 5.6 49.9 5.6 49.9 6.8 51.1 6.8 51.1 10.1 49.2 10.1"/>
      <polygon class="cls-4" points="43.9 10.1 43.9 11.4 49.2 11.4 49.2 10.1 47.2 10.1 47.2 6.8 48.4 6.8 48.4 5.6 44.6 5.6 44.6 6.8 45.8 6.8 45.8 10.1 43.9 10.1"/>
      <polygon class="cls-4" points="38.6 10.1 38.6 11.4 43.9 11.4 43.9 10.1 42 10.1 42 6.8 43.2 6.8 43.2 5.6 39.3 5.6 39.3 6.8 40.5 6.8 40.5 10.1 38.6 10.1"/>
      <polygon class="cls-4" points="33.3 10.1 33.3 11.4 38.6 11.4 38.6 10.1 36.7 10.1 36.7 6.8 37.9 6.8 37.9 5.6 34 5.6 34 6.8 35.3 6.8 35.3 10.1 33.3 10.1"/>
      <polygon class="cls-4" points="28.1 10.1 28.1 11.4 33.3 11.4 33.3 10.1 31.4 10.1 31.4 6.8 32.6 6.8 32.6 5.6 28.8 5.6 28.8 6.8 30 6.8 30 10.1 28.1 10.1"/>
      <polygon class="cls-4" points="22.8 10.1 22.8 11.4 28.1 11.4 28.1 10.1 26.2 10.1 26.2 6.8 27.4 6.8 27.4 5.6 23.5 5.6 23.5 6.8 24.7 6.8 24.7 10.1 22.8 10.1"/>
      <polygon class="cls-4" points="17.5 10.1 17.5 11.4 22.8 11.4 22.8 10.1 20.9 10.1 20.9 6.8 22.1 6.8 22.1 5.6 18.2 5.6 18.2 6.8 19.4 6.8 19.4 10.1 17.5 10.1"/>
      <polygon class="cls-4" points="12.3 10.1 12.3 11.4 17.5 11.4 17.5 10.1 15.6 10.1 15.6 6.8 16.8 6.8 16.8 5.6 13 5.6 13 6.8 14.2 6.8 14.2 10.1 12.3 10.1"/>
      <polygon class="cls-4" points="10.8 16 12.3 16 12.3 11.4 10.8 11.4 10.8 13 7.1 13 7.1 12 5.7 12 5.7 15.4 7.1 15.4 7.1 14.3 10.8 14.3 10.8 16"/>
      <polygon class="cls-4" points="10.8 20.6 12.3 20.6 12.3 16 10.8 16 10.8 17.7 7.1 17.7 7.1 16.6 5.7 16.6 5.7 20 7.1 20 7.1 18.9 10.8 18.9 10.8 20.6"/>
      <polygon class="cls-4" points="10.8 25.2 12.3 25.2 12.3 20.6 10.8 20.6 10.8 22.3 7.1 22.3 7.1 21.2 5.7 21.2 5.7 24.6 7.1 24.6 7.1 23.6 10.8 23.6 10.8 25.2"/>
      <polygon class="cls-4" points="10.8 29.9 12.3 29.9 12.3 25.2 10.8 25.2 10.8 26.9 7.1 26.9 7.1 25.9 5.7 25.9 5.7 29.3 7.1 29.3 7.1 28.2 10.8 28.2 10.8 29.9"/>
      <polygon class="cls-4" points="10.8 34.5 12.3 34.5 12.3 29.9 10.8 29.9 10.8 31.6 7.1 31.6 7.1 30.5 5.7 30.5 5.7 33.9 7.1 33.9 7.1 32.8 10.8 32.8 10.8 34.5"/>
      <polygon class="cls-4" points="10.8 39.2 12.3 39.2 12.3 34.5 10.8 34.5 10.8 36.2 7.1 36.2 7.1 35.2 5.7 35.2 5.7 38.5 7.1 38.5 7.1 37.5 10.8 37.5 10.8 39.2"/>
      <polygon class="cls-4" points="10.8 43.8 12.3 43.8 12.3 39.2 10.8 39.2 10.8 40.8 7.1 40.8 7.1 39.8 5.7 39.8 5.7 43.2 7.1 43.2 7.1 42.1 10.8 42.1 10.8 43.8"/>
      <polygon class="cls-4" points="10.8 48.4 12.3 48.4 12.3 43.8 10.8 43.8 10.8 45.5 7.1 45.5 7.1 44.4 5.7 44.4 5.7 47.8 7.1 47.8 7.1 46.8 10.8 46.8 10.8 48.4"/>
      <polygon class="cls-4" points="10.8 53.1 12.3 53.1 12.3 48.4 10.8 48.4 10.8 50.1 7.1 50.1 7.1 49 5.7 49 5.7 52.4 7.1 52.4 7.1 51.4 10.8 51.4 10.8 53.1"/>
      <polygon class="cls-4" points="10.8 57.7 12.3 57.7 12.3 53.1 10.8 53.1 10.8 54.8 7.1 54.8 7.1 53.7 5.7 53.7 5.7 57.1 7.1 57.1 7.1 56 10.8 56 10.8 57.7"/>
      <polygon class="cls-4" points="10.8 62.3 12.3 62.3 12.3 57.7 10.8 57.7 10.8 59.4 7.1 59.4 7.1 58.3 5.7 58.3 5.7 61.7 7.1 61.7 7.1 60.7 10.8 60.7 10.8 62.3"/>
      <polygon class="cls-4" points="10.8 67 12.3 67 12.3 62.3 10.8 62.3 10.8 64 7.1 64 7.1 63 5.7 63 5.7 66.3 7.1 66.3 7.1 65.3 10.8 65.3 10.8 67"/>
      <polygon class="cls-4" points="10.8 71.6 12.3 71.6 12.3 67 10.8 67 10.8 68.7 7.1 68.7 7.1 67.6 5.7 67.6 5.7 71 7.1 71 7.1 69.9 10.8 69.9 10.8 71.6"/>
      <polygon class="cls-4" points="10.8 76.2 12.3 76.2 12.3 71.6 10.8 71.6 10.8 73.3 7.1 73.3 7.1 72.2 5.7 72.2 5.7 75.6 7.1 75.6 7.1 74.6 10.8 74.6 10.8 76.2"/>
      <polygon class="cls-4" points="10.8 80.9 12.3 80.9 12.3 76.2 10.8 76.2 10.8 77.9 7.1 77.9 7.1 76.9 5.7 76.9 5.7 80.2 7.1 80.2 7.1 79.2 10.8 79.2 10.8 80.9"/>
      <g class="cls-8">
        <polygon class="cls-4" points="468.7 82.1 468.7 80.9 464.3 80.9 464.3 82.1 465.9 82.1 465.9 85.4 464.9 85.4 464.9 86.6 468.1 86.6 468.1 85.4 467.1 85.4 467.1 82.1 468.7 82.1"/>
      </g>
      <g class="cls-6">
        <polygon class="cls-4" points="465.6 81.3 464.3 80.9 462.6 84.4 463.9 84.9 464.5 83.6 467.9 84.8 467.6 85.7 468.9 86.2 470.1 83.5 468.8 83.1 468.4 83.9 465 82.6 465.6 81.3"/>
      </g>
      <g class="cls-1">
        <polygon class="cls-4" points="502.1 3.8 500.8 3.4 497 11.4 498.4 11.8 499.7 8.9 503.2 10.2 502.3 12 503.6 12.5 506.4 6.6 505.1 6.2 504.2 8 500.8 6.7 502.1 3.8"/>
      </g>
      <g class="cls-9">
        <polygon class="cls-4" points="497 10.1 497 11.4 506.9 11.4 506.9 10.1 503.3 10.1 503.3 6.8 505.6 6.8 505.6 5.6 498.3 5.6 498.3 6.8 500.6 6.8 500.6 10.1 497 10.1"/>
      </g>
      <g class="cls-7">
        <polygon class="cls-4" points="5.7 10.1 5.7 11.4 12.3 11.4 12.3 10.1 9.9 10.1 9.9 6.8 11.4 6.8 11.4 5.6 6.6 5.6 6.6 6.8 8.1 6.8 8.1 10.1 5.7 10.1"/>
      </g>
      <g class="cls-10">
        <polygon class="cls-4" points="10.8 11.4 12.3 11.4 12.3 5.6 10.8 5.6 10.8 7.7 7.1 7.7 7.1 6.4 5.7 6.4 5.7 10.6 7.1 10.6 7.1 9.3 10.8 9.3 10.8 11.4"/>
      </g>
      <g class="cls-2">
        <polygon class="cls-4" points="10.8 86.6 12.3 86.6 12.3 80.9 10.8 80.9 10.8 83 7.1 83 7.1 81.6 5.7 81.6 5.7 85.9 7.1 85.9 7.1 84.6 10.8 84.6 10.8 86.6"/>
      </g>
      <g class="cls-5">
        <polygon class="cls-4" points="12.3 82.1 12.3 80.9 5.7 80.9 5.7 82.1 8.1 82.1 8.1 85.4 6.6 85.4 6.6 86.6 11.4 86.6 11.4 85.4 9.9 85.4 9.9 82.1 12.3 82.1"/>
      </g>
    </g>
  </g>
</svg>