<?xml version="1.0" encoding="UTF-8"?>
<svg id="En_laptop_third_divider" data-name="En laptop third divider" xmlns="http://www.w3.org/2000/svg" version="1.1" xmlns:xlink="http://www.w3.org/1999/xlink" viewBox="0 0 460.91 57.68">
  <defs>
    <style>
      .cls-1 {
        clip-path: url(#clippath-2);
      }

      .cls-2 {
        clip-path: url(#clippath-6);
      }

      .cls-3 {
        fill: none;
      }

      .cls-3, .cls-4 {
        stroke-width: 0px;
      }

      .cls-5 {
        clip-path: url(#clippath-7);
      }

      .cls-6 {
        clip-path: url(#clippath-1);
      }

      .cls-7 {
        clip-path: url(#clippath-4);
      }

      .cls-4 {
        fill: #fed700;
      }

      .cls-8 {
        clip-path: url(#clippath);
      }

      .cls-9 {
        clip-path: url(#clippath-3);
      }

      .cls-10 {
        clip-path: url(#clippath-5);
      }
    </style>
    <clipPath id="clippath">
      <polygon class="cls-3" points="455.79 52.33 459.4 56.05 455.68 55.94 455.79 52.33"/>
    </clipPath>
    <clipPath id="clippath-1">
      <polygon class="cls-3" points="455.79 52.33 459.4 56.05 459.4 52.33 455.79 52.33"/>
    </clipPath>
    <clipPath id="clippath-2">
      <polygon class="cls-3" points="455.79 5.4 459.4 1.79 459.4 5.4 455.79 5.4"/>
    </clipPath>
    <clipPath id="clippath-3">
      <polygon class="cls-3" points="455.79 5.4 459.4 1.79 455.79 1.79 455.79 5.4"/>
    </clipPath>
    <clipPath id="clippath-4">
      <polygon class="cls-3" points="5.14 5.4 1.53 1.79 5.14 1.79 5.14 5.4"/>
    </clipPath>
    <clipPath id="clippath-5">
      <polygon class="cls-3" points="5.14 5.4 1.53 1.79 1.53 5.4 5.14 5.4"/>
    </clipPath>
    <clipPath id="clippath-6">
      <polygon class="cls-3" points="5.14 38.68 1.53 42.19 1.53 38.68 5.14 38.68"/>
    </clipPath>
    <clipPath id="clippath-7">
      <polygon class="cls-3" points="5.14 38.68 1.53 42.19 5.03 42.29 5.14 38.68"/>
    </clipPath>
  </defs>
  <polygon class="cls-4" points="3.34 3.6 3.34 40.43 457.6 54.19 457.6 3.6 3.34 3.6"/>
  <g>
    <polygon class="cls-4" points="8.01 39.56 8.03 38.77 5.14 38.68 5.12 39.47 6.17 39.5 6.11 41.54 5.45 41.51 5.43 42.3 7.54 42.37 7.56 41.58 6.9 41.56 6.96 39.53 8.01 39.56"/>
    <polygon class="cls-4" points="10.9 39.65 10.92 38.86 8.03 38.77 8.01 39.56 9.06 39.59 9 41.62 8.34 41.6 8.31 42.39 10.43 42.46 10.45 41.67 9.79 41.65 9.85 39.62 10.9 39.65"/>
    <polygon class="cls-4" points="13.78 39.73 13.81 38.95 10.92 38.86 10.9 39.65 11.95 39.68 11.89 41.71 11.23 41.69 11.2 42.48 13.32 42.54 13.34 41.75 12.68 41.73 12.74 39.7 13.78 39.73"/>
    <polygon class="cls-4" points="16.67 39.82 16.7 39.03 13.81 38.95 13.78 39.73 14.84 39.77 14.78 41.8 14.12 41.78 14.09 42.57 16.2 42.63 16.23 41.84 15.57 41.82 15.63 39.79 16.67 39.82"/>
    <polygon class="cls-4" points="19.56 39.91 19.59 39.12 16.7 39.03 16.67 39.82 17.73 39.85 17.67 41.88 17 41.86 16.98 42.65 19.09 42.72 19.12 41.93 18.46 41.91 18.52 39.88 19.56 39.91"/>
    <polygon class="cls-4" points="22.45 40 22.48 39.21 19.59 39.12 19.56 39.91 20.62 39.94 20.55 41.97 19.89 41.95 19.87 42.74 21.98 42.81 22.01 42.02 21.34 42 21.41 39.97 22.45 40"/>
    <polygon class="cls-4" points="25.34 40.08 25.36 39.3 22.48 39.21 22.45 40 23.5 40.03 23.44 42.06 22.78 42.04 22.76 42.83 24.87 42.89 24.89 42.1 24.23 42.08 24.3 40.05 25.34 40.08"/>
    <polygon class="cls-4" points="28.23 40.17 28.25 39.38 25.36 39.3 25.34 40.08 26.39 40.12 26.33 42.15 25.67 42.13 25.65 42.92 27.76 42.98 27.78 42.19 27.12 42.17 27.18 40.14 28.23 40.17"/>
    <polygon class="cls-4" points="31.12 40.26 31.14 39.47 28.25 39.38 28.23 40.17 29.28 40.2 29.22 42.23 28.56 42.21 28.54 43 30.65 43.07 30.67 42.28 30.01 42.26 30.07 40.23 31.12 40.26"/>
    <polygon class="cls-4" points="34.01 40.35 34.03 39.56 31.14 39.47 31.12 40.26 32.17 40.29 32.11 42.32 31.45 42.3 31.42 43.09 33.54 43.16 33.56 42.37 32.9 42.35 32.96 40.32 34.01 40.35"/>
    <polygon class="cls-4" points="36.9 40.43 36.92 39.65 34.03 39.56 34.01 40.35 35.06 40.38 35 42.41 34.34 42.39 34.31 43.18 36.43 43.24 36.45 42.45 35.79 42.43 35.85 40.4 36.9 40.43"/>
    <polygon class="cls-4" points="39.78 40.52 39.81 39.73 36.92 39.65 36.9 40.43 37.95 40.47 37.89 42.5 37.23 42.48 37.2 43.27 39.31 43.33 39.34 42.54 38.68 42.52 38.74 40.49 39.78 40.52"/>
    <polygon class="cls-4" points="42.67 40.61 42.7 39.82 39.81 39.73 39.78 40.52 40.84 40.55 40.78 42.58 40.11 42.56 40.09 43.35 42.2 43.42 42.23 42.63 41.57 42.61 41.63 40.58 42.67 40.61"/>
    <polygon class="cls-4" points="45.56 40.7 45.59 39.91 42.7 39.82 42.67 40.61 43.73 40.64 43.66 42.67 43 42.65 42.98 43.44 45.09 43.51 45.12 42.72 44.46 42.7 44.52 40.67 45.56 40.7"/>
    <polygon class="cls-4" points="48.45 40.78 48.47 40 45.59 39.91 45.56 40.7 46.62 40.73 46.55 42.76 45.89 42.74 45.87 43.53 47.98 43.59 48 42.8 47.34 42.78 47.41 40.75 48.45 40.78"/>
    <polygon class="cls-4" points="51.34 40.87 51.36 40.08 48.47 40 48.45 40.78 49.5 40.82 49.44 42.85 48.78 42.83 48.76 43.62 50.87 43.68 50.89 42.89 50.23 42.87 50.29 40.84 51.34 40.87"/>
    <polygon class="cls-4" points="54.23 40.96 54.25 40.17 51.36 40.08 51.34 40.87 52.39 40.9 52.33 42.93 51.67 42.91 51.65 43.7 53.76 43.77 53.78 42.98 53.12 42.96 53.18 40.93 54.23 40.96"/>
    <polygon class="cls-4" points="57.12 41.05 57.14 40.26 54.25 40.17 54.23 40.96 55.28 40.99 55.22 43.02 54.56 43 54.53 43.79 56.65 43.86 56.67 43.07 56.01 43.05 56.07 41.02 57.12 41.05"/>
    <polygon class="cls-4" points="60.01 41.13 60.03 40.35 57.14 40.26 57.12 41.05 58.17 41.08 58.11 43.11 57.45 43.09 57.42 43.88 59.54 43.94 59.56 43.15 58.9 43.13 58.96 41.1 60.01 41.13"/>
    <polygon class="cls-4" points="62.89 41.22 62.92 40.43 60.03 40.35 60.01 41.13 61.06 41.17 61 43.2 60.34 43.18 60.31 43.97 62.43 44.03 62.45 43.24 61.79 43.22 61.85 41.19 62.89 41.22"/>
    <polygon class="cls-4" points="65.78 41.31 65.81 40.52 62.92 40.43 62.89 41.22 63.95 41.25 63.89 43.28 63.23 43.26 63.2 44.05 65.31 44.12 65.34 43.33 64.68 43.31 64.74 41.28 65.78 41.31"/>
    <polygon class="cls-4" points="68.67 41.4 68.7 40.61 65.81 40.52 65.78 41.31 66.84 41.34 66.78 43.37 66.11 43.35 66.09 44.14 68.2 44.21 68.23 43.42 67.57 43.4 67.63 41.37 68.67 41.4"/>
    <polygon class="cls-4" points="71.56 41.48 71.58 40.7 68.7 40.61 68.67 41.4 69.73 41.43 69.66 43.46 69 43.44 68.98 44.23 71.09 44.29 71.12 43.5 70.45 43.48 70.52 41.45 71.56 41.48"/>
    <polygon class="cls-4" points="74.45 41.57 74.47 40.78 71.58 40.7 71.56 41.48 72.61 41.52 72.55 43.55 71.89 43.53 71.87 44.32 73.98 44.38 74 43.59 73.34 43.57 73.4 41.54 74.45 41.57"/>
    <polygon class="cls-4" points="77.34 41.66 77.36 40.87 74.47 40.78 74.45 41.57 75.5 41.6 75.44 43.63 74.78 43.61 74.76 44.4 76.87 44.47 76.89 43.68 76.23 43.66 76.29 41.63 77.34 41.66"/>
    <polygon class="cls-4" points="80.23 41.75 80.25 40.96 77.36 40.87 77.34 41.66 78.39 41.69 78.33 43.72 77.67 43.7 77.65 44.49 79.76 44.56 79.78 43.77 79.12 43.75 79.18 41.72 80.23 41.75"/>
    <polygon class="cls-4" points="83.12 41.83 83.14 41.05 80.25 40.96 80.23 41.75 81.28 41.78 81.22 43.81 80.56 43.79 80.53 44.58 82.65 44.64 82.67 43.85 82.01 43.83 82.07 41.8 83.12 41.83"/>
    <polygon class="cls-4" points="86 41.92 86.03 41.13 83.14 41.05 83.12 41.83 84.17 41.87 84.11 43.9 83.45 43.88 83.42 44.67 85.54 44.73 85.56 43.94 84.9 43.92 84.96 41.89 86 41.92"/>
    <polygon class="cls-4" points="88.89 42.01 88.92 41.22 86.03 41.13 86 41.92 87.06 41.95 87 43.98 86.34 43.96 86.31 44.75 88.42 44.82 88.45 44.03 87.79 44.01 87.85 41.98 88.89 42.01"/>
    <polygon class="cls-4" points="91.78 42.1 91.81 41.31 88.92 41.22 88.89 42.01 89.95 42.04 89.89 44.07 89.22 44.05 89.2 44.84 91.31 44.91 91.34 44.12 90.68 44.1 90.74 42.07 91.78 42.1"/>
    <polygon class="cls-4" points="94.67 42.18 94.69 41.4 91.81 41.31 91.78 42.1 92.84 42.13 92.77 44.16 92.11 44.14 92.09 44.93 94.2 44.99 94.23 44.2 93.56 44.18 93.63 42.15 94.67 42.18"/>
    <polygon class="cls-4" points="97.56 42.27 97.58 41.48 94.69 41.4 94.67 42.18 95.72 42.22 95.66 44.25 95 44.23 94.98 45.02 97.09 45.08 97.11 44.29 96.45 44.27 96.51 42.24 97.56 42.27"/>
    <polygon class="cls-4" points="100.45 42.36 100.47 41.57 97.58 41.48 97.56 42.27 98.61 42.3 98.55 44.33 97.89 44.31 97.87 45.1 99.98 45.17 100 44.38 99.34 44.36 99.4 42.33 100.45 42.36"/>
    <polygon class="cls-4" points="103.34 42.45 103.36 41.66 100.47 41.57 100.45 42.36 101.5 42.39 101.44 44.42 100.78 44.4 100.76 45.19 102.87 45.26 102.89 44.47 102.23 44.45 102.29 42.42 103.34 42.45"/>
    <polygon class="cls-4" points="106.23 42.53 106.25 41.75 103.36 41.66 103.34 42.45 104.39 42.48 104.33 44.51 103.67 44.49 103.64 45.28 105.76 45.34 105.78 44.55 105.12 44.53 105.18 42.5 106.23 42.53"/>
    <polygon class="cls-4" points="109.11 42.62 109.14 41.83 106.25 41.75 106.23 42.53 107.28 42.57 107.22 44.6 106.56 44.58 106.53 45.37 108.65 45.43 108.67 44.64 108.01 44.62 108.07 42.59 109.11 42.62"/>
    <polygon class="cls-4" points="112 42.71 112.03 41.92 109.14 41.83 109.11 42.62 110.17 42.65 110.11 44.68 109.45 44.66 109.42 45.45 111.53 45.52 111.56 44.73 110.9 44.71 110.96 42.68 112 42.71"/>
    <polygon class="cls-4" points="114.89 42.8 114.92 42.01 112.03 41.92 112 42.71 113.06 42.74 113 44.77 112.33 44.75 112.31 45.54 114.42 45.61 114.45 44.82 113.79 44.8 113.85 42.77 114.89 42.8"/>
    <polygon class="cls-4" points="117.78 42.88 117.81 42.1 114.92 42.01 114.89 42.8 115.95 42.83 115.88 44.86 115.22 44.84 115.2 45.63 117.31 45.69 117.34 44.9 116.67 44.88 116.74 42.85 117.78 42.88"/>
    <polygon class="cls-4" points="120.67 42.97 120.69 42.18 117.81 42.1 117.78 42.88 118.83 42.92 118.77 44.95 118.11 44.93 118.09 45.72 120.2 45.78 120.22 44.99 119.56 44.97 119.63 42.94 120.67 42.97"/>
    <polygon class="cls-4" points="123.56 43.06 123.58 42.27 120.69 42.18 120.67 42.97 121.72 43 121.66 45.03 121 45.01 120.98 45.8 123.09 45.87 123.11 45.08 122.45 45.06 122.51 43.03 123.56 43.06"/>
    <polygon class="cls-4" points="126.45 43.15 126.47 42.36 123.58 42.27 123.56 43.06 124.61 43.09 124.55 45.12 123.89 45.1 123.87 45.89 125.98 45.96 126 45.17 125.34 45.15 125.4 43.12 126.45 43.15"/>
    <polygon class="cls-4" points="129.34 43.23 129.36 42.45 126.47 42.36 126.45 43.15 127.5 43.18 127.44 45.21 126.78 45.19 126.75 45.98 128.87 46.04 128.89 45.25 128.23 45.23 128.29 43.2 129.34 43.23"/>
    <polygon class="cls-4" points="132.23 43.32 132.25 42.53 129.36 42.45 129.34 43.23 130.39 43.27 130.33 45.3 129.67 45.28 129.64 46.07 131.76 46.13 131.78 45.34 131.12 45.32 131.18 43.29 132.23 43.32"/>
    <polygon class="cls-4" points="135.11 43.41 135.14 42.62 132.25 42.53 132.23 43.32 133.28 43.35 133.22 45.38 132.56 45.36 132.53 46.15 134.64 46.22 134.67 45.43 134.01 45.41 134.07 43.38 135.11 43.41"/>
    <polygon class="cls-4" points="138 43.5 138.03 42.71 135.14 42.62 135.11 43.41 136.17 43.44 136.11 45.47 135.44 45.45 135.42 46.24 137.53 46.31 137.56 45.52 136.9 45.5 136.96 43.47 138 43.5"/>
    <polygon class="cls-4" points="140.89 43.58 140.92 42.8 138.03 42.71 138 43.5 139.06 43.53 138.99 45.56 138.33 45.54 138.31 46.33 140.42 46.39 140.45 45.6 139.79 45.58 139.85 43.55 140.89 43.58"/>
    <polygon class="cls-4" points="143.78 43.67 143.8 42.88 140.92 42.8 140.89 43.58 141.95 43.62 141.88 45.65 141.22 45.63 141.2 46.42 143.31 46.48 143.33 45.69 142.67 45.67 142.74 43.64 143.78 43.67"/>
    <polygon class="cls-4" points="146.67 43.76 146.69 42.97 143.8 42.88 143.78 43.67 144.83 43.7 144.77 45.73 144.11 45.71 144.09 46.5 146.2 46.57 146.22 45.78 145.56 45.76 145.62 43.73 146.67 43.76"/>
    <polygon class="cls-4" points="149.56 43.85 149.58 43.06 146.69 42.97 146.67 43.76 147.72 43.79 147.66 45.82 147 45.8 146.98 46.59 149.09 46.66 149.11 45.87 148.45 45.85 148.51 43.82 149.56 43.85"/>
    <polygon class="cls-4" points="152.45 43.93 152.47 43.15 149.58 43.06 149.56 43.85 150.61 43.88 150.55 45.91 149.89 45.89 149.86 46.68 151.98 46.74 152 45.95 151.34 45.93 151.4 43.9 152.45 43.93"/>
    <polygon class="cls-4" points="155.34 44.02 155.36 43.23 152.47 43.15 152.45 43.93 153.5 43.97 153.44 46 152.78 45.98 152.75 46.77 154.87 46.83 154.89 46.04 154.23 46.02 154.29 43.99 155.34 44.02"/>
    <polygon class="cls-4" points="158.22 44.11 158.25 43.32 155.36 43.23 155.34 44.02 156.39 44.05 156.33 46.08 155.67 46.06 155.64 46.85 157.76 46.92 157.78 46.13 157.12 46.11 157.18 44.08 158.22 44.11"/>
    <polygon class="cls-4" points="161.11 44.2 161.14 43.41 158.25 43.32 158.22 44.11 159.28 44.14 159.22 46.17 158.56 46.15 158.53 46.94 160.64 47.01 160.67 46.22 160.01 46.2 160.07 44.17 161.11 44.2"/>
    <polygon class="cls-4" points="164 44.28 164.03 43.5 161.14 43.41 161.11 44.2 162.17 44.23 162.11 46.26 161.44 46.24 161.42 47.03 163.53 47.09 163.56 46.3 162.9 46.28 162.96 44.25 164 44.28"/>
    <polygon class="cls-4" points="166.89 44.37 166.91 43.58 164.03 43.5 164 44.28 165.06 44.32 164.99 46.35 164.33 46.33 164.31 47.12 166.42 47.18 166.45 46.39 165.78 46.37 165.85 44.34 166.89 44.37"/>
    <polygon class="cls-4" points="169.78 44.46 169.8 43.67 166.91 43.58 166.89 44.37 167.94 44.4 167.88 46.43 167.22 46.41 167.2 47.2 169.31 47.27 169.33 46.48 168.67 46.46 168.73 44.43 169.78 44.46"/>
    <polygon class="cls-4" points="172.67 44.55 172.69 43.76 169.8 43.67 169.78 44.46 170.83 44.49 170.77 46.52 170.11 46.5 170.09 47.29 172.2 47.36 172.22 46.57 171.56 46.55 171.62 44.51 172.67 44.55"/>
    <polygon class="cls-4" points="175.56 44.63 175.58 43.85 172.69 43.76 172.67 44.55 173.72 44.58 173.66 46.61 173 46.59 172.98 47.38 175.09 47.44 175.11 46.65 174.45 46.63 174.51 44.6 175.56 44.63"/>
    <polygon class="cls-4" points="178.45 44.72 178.47 43.93 175.58 43.85 175.56 44.63 176.61 44.67 176.55 46.7 175.89 46.68 175.86 47.47 177.98 47.53 178 46.74 177.34 46.72 177.4 44.69 178.45 44.72"/>
    <polygon class="cls-4" points="181.33 44.81 181.36 44.02 178.47 43.93 178.45 44.72 179.5 44.75 179.44 46.78 178.78 46.76 178.75 47.55 180.87 47.62 180.89 46.83 180.23 46.81 180.29 44.78 181.33 44.81"/>
    <polygon class="cls-4" points="184.22 44.9 184.25 44.11 181.36 44.02 181.33 44.81 182.39 44.84 182.33 46.87 181.67 46.85 181.64 47.64 183.75 47.71 183.78 46.92 183.12 46.9 183.18 44.86 184.22 44.9"/>
    <polygon class="cls-4" points="187.11 44.98 187.14 44.19 184.25 44.11 184.22 44.9 185.28 44.93 185.22 46.96 184.55 46.94 184.53 47.73 186.64 47.79 186.67 47 186.01 46.98 186.07 44.95 187.11 44.98"/>
    <polygon class="cls-4" points="190 45.07 190.02 44.28 187.14 44.19 187.11 44.98 188.17 45.02 188.1 47.05 187.44 47.03 187.42 47.82 189.53 47.88 189.56 47.09 188.89 47.07 188.96 45.04 190 45.07"/>
    <polygon class="cls-4" points="192.89 45.16 192.91 44.37 190.02 44.28 190 45.07 191.05 45.1 190.99 47.13 190.33 47.11 190.31 47.9 192.42 47.97 192.44 47.18 191.78 47.16 191.84 45.13 192.89 45.16"/>
    <polygon class="cls-4" points="195.78 45.25 195.8 44.46 192.91 44.37 192.89 45.16 193.94 45.19 193.88 47.22 193.22 47.2 193.2 47.99 195.31 48.06 195.33 47.27 194.67 47.25 194.73 45.21 195.78 45.25"/>
    <polygon class="cls-4" points="198.67 45.33 198.69 44.54 195.8 44.46 195.78 45.25 196.83 45.28 196.77 47.31 196.11 47.29 196.09 48.08 198.2 48.14 198.22 47.35 197.56 47.33 197.62 45.3 198.67 45.33"/>
    <polygon class="cls-4" points="201.56 45.42 201.58 44.63 198.69 44.54 198.67 45.33 199.72 45.37 199.66 47.4 199 47.38 198.97 48.17 201.09 48.23 201.11 47.44 200.45 47.42 200.51 45.39 201.56 45.42"/>
    <polygon class="cls-4" points="204.44 45.51 204.47 44.72 201.58 44.63 201.56 45.42 202.61 45.45 202.55 47.48 201.89 47.46 201.86 48.25 203.98 48.32 204 47.53 203.34 47.51 203.4 45.48 204.44 45.51"/>
    <polygon class="cls-4" points="207.33 45.6 207.36 44.81 204.47 44.72 204.44 45.51 205.5 45.54 205.44 47.57 204.78 47.55 204.75 48.34 206.86 48.41 206.89 47.62 206.23 47.6 206.29 45.56 207.33 45.6"/>
    <polygon class="cls-4" points="210.22 45.68 210.25 44.89 207.36 44.81 207.33 45.6 208.39 45.63 208.33 47.66 207.66 47.64 207.64 48.43 209.75 48.49 209.78 47.7 209.12 47.68 209.18 45.65 210.22 45.68"/>
    <polygon class="cls-4" points="213.11 45.77 213.14 44.98 210.25 44.89 210.22 45.68 211.28 45.72 211.21 47.75 210.55 47.73 210.53 48.52 212.64 48.58 212.67 47.79 212 47.77 212.07 45.74 213.11 45.77"/>
    <polygon class="cls-4" points="216 45.86 216.02 45.07 213.14 44.98 213.11 45.77 214.16 45.8 214.1 47.83 213.44 47.81 213.42 48.6 215.53 48.67 215.55 47.88 214.89 47.86 214.96 45.83 216 45.86"/>
    <polygon class="cls-4" points="218.89 45.95 218.91 45.16 216.02 45.07 216 45.86 217.05 45.89 216.99 47.92 216.33 47.9 216.31 48.69 218.42 48.76 218.44 47.97 217.78 47.95 217.84 45.91 218.89 45.95"/>
    <polygon class="cls-4" points="221.78 46.03 221.8 45.24 218.91 45.16 218.89 45.95 219.94 45.98 219.88 48.01 219.22 47.99 219.2 48.78 221.31 48.84 221.33 48.05 220.67 48.03 220.73 46 221.78 46.03"/>
    <polygon class="cls-4" points="224.67 46.12 224.69 45.33 221.8 45.24 221.78 46.03 222.83 46.07 222.77 48.1 222.11 48.08 222.08 48.87 224.2 48.93 224.22 48.14 223.56 48.12 223.62 46.09 224.67 46.12"/>
    <polygon class="cls-4" points="227.56 46.21 227.58 45.42 224.69 45.33 224.67 46.12 225.72 46.15 225.66 48.18 225 48.16 224.97 48.95 227.09 49.02 227.11 48.23 226.45 48.21 226.51 46.18 227.56 46.21"/>
    <polygon class="cls-4" points="230.44 46.3 230.47 45.51 227.58 45.42 227.56 46.21 228.61 46.24 228.55 48.27 227.89 48.25 227.86 49.04 229.97 49.11 230 48.32 229.34 48.3 229.4 46.26 230.44 46.3"/>
    <polygon class="cls-4" points="233.33 46.38 233.36 45.59 230.47 45.51 230.44 46.3 231.5 46.33 231.44 48.36 230.77 48.34 230.75 49.13 232.86 49.19 232.89 48.4 232.23 48.38 232.29 46.35 233.33 46.38"/>
    <polygon class="cls-4" points="236.22 46.47 236.25 45.68 233.36 45.59 233.33 46.38 234.39 46.42 234.32 48.45 233.66 48.43 233.64 49.22 235.75 49.28 235.78 48.49 235.12 48.47 235.18 46.44 236.22 46.47"/>
    <polygon class="cls-4" points="239.11 46.56 239.13 45.77 236.25 45.68 236.22 46.47 237.28 46.5 237.21 48.53 236.55 48.51 236.53 49.3 238.64 49.37 238.66 48.58 238 48.56 238.07 46.53 239.11 46.56"/>
    <polygon class="cls-4" points="242 46.65 242.02 45.86 239.13 45.77 239.11 46.56 240.16 46.59 240.1 48.62 239.44 48.6 239.42 49.39 241.53 49.46 241.55 48.67 240.89 48.65 240.95 46.61 242 46.65"/>
    <polygon class="cls-4" points="244.89 46.73 244.91 45.94 242.02 45.86 242 46.65 243.05 46.68 242.99 48.71 242.33 48.69 242.31 49.48 244.42 49.54 244.44 48.75 243.78 48.73 243.84 46.7 244.89 46.73"/>
    <polygon class="cls-4" points="247.78 46.82 247.8 46.03 244.91 45.94 244.89 46.73 245.94 46.77 245.88 48.8 245.22 48.78 245.19 49.57 247.31 49.63 247.33 48.84 246.67 48.82 246.73 46.79 247.78 46.82"/>
    <polygon class="cls-4" points="250.67 46.91 250.69 46.12 247.8 46.03 247.78 46.82 248.83 46.85 248.77 48.88 248.11 48.86 248.08 49.65 250.2 49.72 250.22 48.93 249.56 48.91 249.62 46.88 250.67 46.91"/>
    <polygon class="cls-4" points="253.55 47 253.58 46.21 250.69 46.12 250.67 46.91 251.72 46.94 251.66 48.97 251 48.95 250.97 49.74 253.09 49.81 253.11 49.02 252.45 49 252.51 46.96 253.55 47"/>
    <polygon class="cls-4" points="256.44 47.08 256.47 46.29 253.58 46.21 253.55 47 254.61 47.03 254.55 49.06 253.89 49.04 253.86 49.83 255.97 49.89 256 49.1 255.34 49.08 255.4 47.05 256.44 47.08"/>
    <polygon class="cls-4" points="259.33 47.17 259.36 46.38 256.47 46.29 256.44 47.08 257.5 47.12 257.44 49.15 256.77 49.13 256.75 49.92 258.86 49.98 258.89 49.19 258.23 49.17 258.29 47.14 259.33 47.17"/>
    <polygon class="cls-4" points="262.22 47.26 262.24 46.47 259.36 46.38 259.33 47.17 260.39 47.2 260.32 49.23 259.66 49.21 259.64 50 261.75 50.07 261.78 49.28 261.11 49.26 261.18 47.23 262.22 47.26"/>
    <polygon class="cls-4" points="265.11 47.35 265.13 46.56 262.24 46.47 262.22 47.26 263.27 47.29 263.21 49.32 262.55 49.3 262.53 50.09 264.64 50.16 264.66 49.37 264 49.35 264.06 47.31 265.11 47.35"/>
    <polygon class="cls-4" points="268 47.43 268.02 46.64 265.13 46.56 265.11 47.35 266.16 47.38 266.1 49.41 265.44 49.39 265.42 50.18 267.53 50.24 267.55 49.45 266.89 49.43 266.95 47.4 268 47.43"/>
    <polygon class="cls-4" points="270.89 47.52 270.91 46.73 268.02 46.64 268 47.43 269.05 47.47 268.99 49.5 268.33 49.48 268.31 50.27 270.42 50.33 270.44 49.54 269.78 49.52 269.84 47.49 270.89 47.52"/>
    <polygon class="cls-4" points="273.78 47.61 273.8 46.82 270.91 46.73 270.89 47.52 271.94 47.55 271.88 49.58 271.22 49.56 271.19 50.35 273.31 50.42 273.33 49.63 272.67 49.61 272.73 47.58 273.78 47.61"/>
    <polygon class="cls-4" points="276.66 47.7 276.69 46.91 273.8 46.82 273.78 47.61 274.83 47.64 274.77 49.67 274.11 49.65 274.08 50.44 276.2 50.5 276.22 49.72 275.56 49.7 275.62 47.66 276.66 47.7"/>
    <polygon class="cls-4" points="279.55 47.78 279.58 46.99 276.69 46.91 276.66 47.7 277.72 47.73 277.66 49.76 277 49.74 276.97 50.53 279.08 50.59 279.11 49.8 278.45 49.78 278.51 47.75 279.55 47.78"/>
    <polygon class="cls-4" points="282.44 47.87 282.47 47.08 279.58 46.99 279.55 47.78 280.61 47.82 280.55 49.85 279.88 49.83 279.86 50.62 281.97 50.68 282 49.89 281.34 49.87 281.4 47.84 282.44 47.87"/>
    <polygon class="cls-4" points="285.33 47.96 285.35 47.17 282.47 47.08 282.44 47.87 283.5 47.9 283.43 49.93 282.77 49.91 282.75 50.7 284.86 50.77 284.89 49.98 284.22 49.96 284.29 47.93 285.33 47.96"/>
    <polygon class="cls-4" points="288.22 48.05 288.24 47.26 285.35 47.17 285.33 47.96 286.38 47.99 286.32 50.02 285.66 50 285.64 50.79 287.75 50.85 287.77 50.07 287.11 50.05 287.17 48.01 288.22 48.05"/>
    <polygon class="cls-4" points="291.11 48.13 291.13 47.34 288.24 47.26 288.22 48.05 289.27 48.08 289.21 50.11 288.55 50.09 288.53 50.88 290.64 50.94 290.66 50.15 290 50.13 290.06 48.1 291.11 48.13"/>
    <polygon class="cls-4" points="294 48.22 294.02 47.43 291.13 47.34 291.11 48.13 292.16 48.17 292.1 50.2 291.44 50.18 291.42 50.97 293.53 51.03 293.55 50.24 292.89 50.22 292.95 48.19 294 48.22"/>
    <polygon class="cls-4" points="296.89 48.31 296.91 47.52 294.02 47.43 294 48.22 295.05 48.25 294.99 50.28 294.33 50.26 294.3 51.05 296.42 51.12 296.44 50.33 295.78 50.31 295.84 48.28 296.89 48.31"/>
    <polygon class="cls-4" points="299.77 48.4 299.8 47.61 296.91 47.52 296.89 48.31 297.94 48.34 297.88 50.37 297.22 50.35 297.19 51.14 299.31 51.2 299.33 50.42 298.67 50.4 298.73 48.36 299.77 48.4"/>
    <polygon class="cls-4" points="302.66 48.48 302.69 47.69 299.8 47.61 299.77 48.4 300.83 48.43 300.77 50.46 300.11 50.44 300.08 51.23 302.19 51.29 302.22 50.5 301.56 50.48 301.62 48.45 302.66 48.48"/>
    <polygon class="cls-4" points="305.55 48.57 305.58 47.78 302.69 47.69 302.66 48.48 303.72 48.52 303.66 50.55 302.99 50.53 302.97 51.32 305.08 51.38 305.11 50.59 304.45 50.57 304.51 48.54 305.55 48.57"/>
    <polygon class="cls-4" points="308.44 48.66 308.47 47.87 305.58 47.78 305.55 48.57 306.61 48.6 306.54 50.63 305.88 50.61 305.86 51.4 307.97 51.47 308 50.68 307.33 50.66 307.4 48.63 308.44 48.66"/>
    <polygon class="cls-4" points="311.33 48.75 311.35 47.96 308.47 47.87 308.44 48.66 309.49 48.69 309.43 50.72 308.77 50.7 308.75 51.49 310.86 51.55 310.88 50.77 310.22 50.75 310.29 48.71 311.33 48.75"/>
    <polygon class="cls-4" points="314.22 48.83 314.24 48.04 311.35 47.96 311.33 48.75 312.38 48.78 312.32 50.81 311.66 50.79 311.64 51.58 313.75 51.64 313.77 50.85 313.11 50.83 313.17 48.8 314.22 48.83"/>
    <polygon class="cls-4" points="317.11 48.92 317.13 48.13 314.24 48.04 314.22 48.83 315.27 48.87 315.21 50.9 314.55 50.88 314.53 51.67 316.64 51.73 316.66 50.94 316 50.92 316.06 48.89 317.11 48.92"/>
    <polygon class="cls-4" points="320 49.01 320.02 48.22 317.13 48.13 317.11 48.92 318.16 48.95 318.1 50.98 317.44 50.96 317.41 51.75 319.53 51.82 319.55 51.03 318.89 51.01 318.95 48.98 320 49.01"/>
    <polygon class="cls-4" points="322.89 49.1 322.91 48.31 320.02 48.22 320 49.01 321.05 49.04 320.99 51.07 320.33 51.05 320.3 51.84 322.42 51.9 322.44 51.12 321.78 51.1 321.84 49.06 322.89 49.1"/>
    <polygon class="cls-4" points="325.77 49.18 325.8 48.39 322.91 48.31 322.89 49.1 323.94 49.13 323.88 51.16 323.22 51.14 323.19 51.93 325.3 51.99 325.33 51.2 324.67 51.18 324.73 49.15 325.77 49.18"/>
    <polygon class="cls-4" points="328.66 49.27 328.69 48.48 325.8 48.39 325.77 49.18 326.83 49.22 326.77 51.25 326.1 51.23 326.08 52.02 328.19 52.08 328.22 51.29 327.56 51.27 327.62 49.24 328.66 49.27"/>
    <polygon class="cls-4" points="331.55 49.36 331.58 48.57 328.69 48.48 328.66 49.27 329.72 49.3 329.65 51.33 328.99 51.31 328.97 52.1 331.08 52.17 331.11 51.38 330.45 51.36 330.51 49.33 331.55 49.36"/>
    <polygon class="cls-4" points="334.44 49.45 334.46 48.66 331.58 48.57 331.55 49.36 332.61 49.39 332.54 51.42 331.88 51.4 331.86 52.19 333.97 52.25 333.99 51.47 333.33 51.45 333.4 49.41 334.44 49.45"/>
    <polygon class="cls-4" points="337.33 49.53 337.35 48.74 334.46 48.66 334.44 49.45 335.49 49.48 335.43 51.51 334.77 51.49 334.75 52.28 336.86 52.34 336.88 51.55 336.22 51.53 336.28 49.5 337.33 49.53"/>
    <polygon class="cls-4" points="340.22 49.62 340.24 48.83 337.35 48.74 337.33 49.53 338.38 49.57 338.32 51.6 337.66 51.58 337.64 52.37 339.75 52.43 339.77 51.64 339.11 51.62 339.17 49.59 340.22 49.62"/>
    <polygon class="cls-4" points="343.11 49.71 343.13 48.92 340.24 48.83 340.22 49.62 341.27 49.65 341.21 51.68 340.55 51.66 340.52 52.45 342.64 52.52 342.66 51.73 342 51.71 342.06 49.68 343.11 49.71"/>
    <polygon class="cls-4" points="346 49.8 346.02 49.01 343.13 48.92 343.11 49.71 344.16 49.74 344.1 51.77 343.44 51.75 343.41 52.54 345.53 52.6 345.55 51.82 344.89 51.8 344.95 49.76 346 49.8"/>
    <polygon class="cls-4" points="348.88 49.88 348.91 49.09 346.02 49.01 346 49.8 347.05 49.83 346.99 51.86 346.33 51.84 346.3 52.63 348.42 52.69 348.44 51.9 347.78 51.88 347.84 49.85 348.88 49.88"/>
    <polygon class="cls-4" points="351.77 49.97 351.8 49.18 348.91 49.09 348.88 49.88 349.94 49.92 349.88 51.95 349.22 51.93 349.19 52.72 351.3 52.78 351.33 51.99 350.67 51.97 350.73 49.94 351.77 49.97"/>
    <polygon class="cls-4" points="354.66 50.06 354.69 49.27 351.8 49.18 351.77 49.97 352.83 50 352.77 52.03 352.1 52.01 352.08 52.8 354.19 52.87 354.22 52.08 353.56 52.06 353.62 50.03 354.66 50.06"/>
    <polygon class="cls-4" points="357.55 50.15 357.57 49.36 354.69 49.27 354.66 50.06 355.72 50.09 355.65 52.12 354.99 52.1 354.97 52.89 357.08 52.95 357.11 52.17 356.44 52.15 356.51 50.11 357.55 50.15"/>
    <polygon class="cls-4" points="360.44 50.23 360.46 49.44 357.57 49.36 357.55 50.15 358.6 50.18 358.54 52.21 357.88 52.19 357.86 52.98 359.97 53.04 359.99 52.25 359.33 52.23 359.39 50.2 360.44 50.23"/>
    <polygon class="cls-4" points="363.33 50.32 363.35 49.53 360.46 49.44 360.44 50.23 361.49 50.27 361.43 52.3 360.77 52.28 360.75 53.07 362.86 53.13 362.88 52.34 362.22 52.32 362.28 50.29 363.33 50.32"/>
    <polygon class="cls-4" points="366.22 50.41 366.24 49.62 363.35 49.53 363.33 50.32 364.38 50.35 364.32 52.38 363.66 52.36 363.64 53.15 365.75 53.22 365.77 52.43 365.11 52.41 365.17 50.38 366.22 50.41"/>
    <polygon class="cls-4" points="369.11 50.5 369.13 49.71 366.24 49.62 366.22 50.41 367.27 50.44 367.21 52.47 366.55 52.45 366.52 53.24 368.64 53.3 368.66 52.52 368 52.5 368.06 50.46 369.11 50.5"/>
    <polygon class="cls-4" points="371.99 50.58 372.02 49.79 369.13 49.71 369.11 50.5 370.16 50.53 370.1 52.56 369.44 52.54 369.41 53.33 371.53 53.39 371.55 52.6 370.89 52.58 370.95 50.55 371.99 50.58"/>
    <polygon class="cls-4" points="374.88 50.67 374.91 49.88 372.02 49.79 371.99 50.58 373.05 50.62 372.99 52.65 372.33 52.63 372.3 53.42 374.41 53.48 374.44 52.69 373.78 52.67 373.84 50.64 374.88 50.67"/>
    <polygon class="cls-4" points="377.77 50.76 377.8 49.97 374.91 49.88 374.88 50.67 375.94 50.7 375.88 52.73 375.21 52.71 375.19 53.5 377.3 53.57 377.33 52.78 376.67 52.76 376.73 50.73 377.77 50.76"/>
    <polygon class="cls-4" points="380.66 50.85 380.68 50.06 377.8 49.97 377.77 50.76 378.83 50.79 378.76 52.82 378.1 52.8 378.08 53.59 380.19 53.65 380.22 52.87 379.55 52.85 379.62 50.81 380.66 50.85"/>
    <polygon class="cls-4" points="383.55 50.93 383.57 50.14 380.68 50.06 380.66 50.85 381.71 50.88 381.65 52.91 380.99 52.89 380.97 53.68 383.08 53.74 383.1 52.95 382.44 52.93 382.5 50.9 383.55 50.93"/>
    <polygon class="cls-4" points="386.44 51.02 386.46 50.23 383.57 50.14 383.55 50.93 384.6 50.97 384.54 53 383.88 52.98 383.86 53.77 385.97 53.83 385.99 53.04 385.33 53.02 385.39 50.99 386.44 51.02"/>
    <polygon class="cls-4" points="389.33 51.11 389.35 50.32 386.46 50.23 386.44 51.02 387.49 51.05 387.43 53.08 386.77 53.06 386.75 53.85 388.86 53.92 388.88 53.13 388.22 53.11 388.28 51.08 389.33 51.11"/>
    <polygon class="cls-4" points="392.22 51.2 392.24 50.41 389.35 50.32 389.33 51.11 390.38 51.14 390.32 53.17 389.66 53.15 389.63 53.94 391.75 54 391.77 53.22 391.11 53.2 391.17 51.16 392.22 51.2"/>
    <polygon class="cls-4" points="395.1 51.28 395.13 50.49 392.24 50.41 392.22 51.2 393.27 51.23 393.21 53.26 392.55 53.24 392.52 54.03 394.64 54.09 394.66 53.3 394 53.28 394.06 51.25 395.1 51.28"/>
    <polygon class="cls-4" points="397.99 51.37 398.02 50.58 395.13 50.49 395.1 51.28 396.16 51.32 396.1 53.35 395.44 53.33 395.41 54.12 397.52 54.18 397.55 53.39 396.89 53.37 396.95 51.34 397.99 51.37"/>
    <polygon class="cls-4" points="400.88 51.46 400.91 50.67 398.02 50.58 397.99 51.37 399.05 51.4 398.99 53.43 398.32 53.41 398.3 54.2 400.41 54.27 400.44 53.48 399.78 53.46 399.84 51.43 400.88 51.46"/>
    <polygon class="cls-4" points="403.77 51.55 403.8 50.76 400.91 50.67 400.88 51.46 401.94 51.49 401.87 53.52 401.21 53.5 401.19 54.29 403.3 54.35 403.33 53.57 402.66 53.55 402.73 51.51 403.77 51.55"/>
    <polygon class="cls-4" points="406.66 51.63 406.68 50.84 403.8 50.76 403.77 51.55 404.82 51.58 404.76 53.61 404.1 53.59 404.08 54.38 406.19 54.44 406.21 53.65 405.55 53.63 405.62 51.6 406.66 51.63"/>
    <polygon class="cls-4" points="409.55 51.72 409.57 50.93 406.68 50.84 406.66 51.63 407.71 51.67 407.65 53.7 406.99 53.68 406.97 54.47 409.08 54.53 409.1 53.74 408.44 53.72 408.5 51.69 409.55 51.72"/>
    <polygon class="cls-4" points="412.44 51.81 412.46 51.02 409.57 50.93 409.55 51.72 410.6 51.75 410.54 53.78 409.88 53.76 409.86 54.55 411.97 54.62 411.99 53.83 411.33 53.81 411.39 51.78 412.44 51.81"/>
    <polygon class="cls-4" points="415.33 51.9 415.35 51.11 412.46 51.02 412.44 51.81 413.49 51.84 413.43 53.87 412.77 53.85 412.74 54.64 414.86 54.7 414.88 53.92 414.22 53.9 414.28 51.86 415.33 51.9"/>
    <polygon class="cls-4" points="418.22 51.98 418.24 51.19 415.35 51.11 415.33 51.9 416.38 51.93 416.32 53.96 415.66 53.94 415.63 54.73 417.75 54.79 417.77 54 417.11 53.98 417.17 51.95 418.22 51.98"/>
    <polygon class="cls-4" points="421.1 52.07 421.13 51.28 418.24 51.19 418.22 51.98 419.27 52.02 419.21 54.05 418.55 54.03 418.52 54.82 420.63 54.88 420.66 54.09 420 54.07 420.06 52.04 421.1 52.07"/>
    <polygon class="cls-4" points="423.99 52.16 424.02 51.37 421.13 51.28 421.1 52.07 422.16 52.1 422.1 54.13 421.43 54.11 421.41 54.9 423.52 54.97 423.55 54.18 422.89 54.16 422.95 52.13 423.99 52.16"/>
    <polygon class="cls-4" points="426.88 52.25 426.91 51.46 424.02 51.37 423.99 52.16 425.05 52.19 424.98 54.22 424.32 54.2 424.3 54.99 426.41 55.05 426.44 54.27 425.78 54.25 425.84 52.21 426.88 52.25"/>
    <polygon class="cls-4" points="429.77 52.33 429.79 51.54 426.91 51.46 426.88 52.25 427.94 52.28 427.87 54.31 427.21 54.29 427.19 55.08 429.3 55.14 429.33 54.35 428.66 54.33 428.73 52.3 429.77 52.33"/>
    <polygon class="cls-4" points="432.66 52.42 432.68 51.63 429.79 51.54 429.77 52.33 430.82 52.37 430.76 54.4 430.1 54.38 430.08 55.17 432.19 55.23 432.21 54.44 431.55 54.42 431.61 52.39 432.66 52.42"/>
    <polygon class="cls-4" points="435.55 52.51 435.57 51.72 432.68 51.63 432.66 52.42 433.71 52.45 433.65 54.48 432.99 54.46 432.97 55.25 435.08 55.32 435.1 54.53 434.44 54.51 434.5 52.48 435.55 52.51"/>
    <polygon class="cls-4" points="438.44 52.6 438.46 51.81 435.57 51.72 435.55 52.51 436.6 52.54 436.54 54.57 435.88 54.55 435.85 55.34 437.97 55.4 437.99 54.62 437.33 54.6 437.39 52.56 438.44 52.6"/>
    <polygon class="cls-4" points="441.33 52.68 441.35 51.89 438.46 51.81 438.44 52.6 439.49 52.63 439.43 54.66 438.77 54.64 438.74 55.43 440.86 55.49 440.88 54.7 440.22 54.68 440.28 52.65 441.33 52.68"/>
    <polygon class="cls-4" points="444.21 52.77 444.24 51.98 441.35 51.89 441.33 52.68 442.38 52.72 442.32 54.75 441.66 54.73 441.63 55.52 443.75 55.58 443.77 54.79 443.11 54.77 443.17 52.74 444.21 52.77"/>
    <polygon class="cls-4" points="447.1 52.86 447.13 52.07 444.24 51.98 444.21 52.77 445.27 52.8 445.21 54.83 444.55 54.81 444.52 55.6 446.63 55.67 446.66 54.88 446 54.86 446.06 52.83 447.1 52.86"/>
    <polygon class="cls-4" points="449.99 52.95 450.02 52.16 447.13 52.07 447.1 52.86 448.16 52.89 448.1 54.92 447.43 54.9 447.41 55.69 449.52 55.75 449.55 54.97 448.89 54.95 448.95 52.91 449.99 52.95"/>
    <polygon class="cls-4" points="452.88 53.03 452.9 52.24 450.02 52.16 449.99 52.95 451.05 52.98 450.98 55.01 450.32 54.99 450.3 55.78 452.41 55.84 452.44 55.05 451.77 55.03 451.84 53 452.88 53.03"/>
    <polygon class="cls-4" points="455.77 53.12 455.79 52.33 452.9 52.24 452.88 53.03 453.93 53.07 453.87 55.1 453.21 55.08 453.19 55.87 455.3 55.93 455.32 55.14 454.66 55.12 454.72 53.09 455.77 53.12"/>
    <polygon class="cls-4" points="456.58 49.4 455.79 49.4 455.79 52.33 456.58 52.33 456.58 51.26 458.61 51.26 458.61 51.93 459.4 51.93 459.4 49.79 458.61 49.79 458.61 50.46 456.58 50.46 456.58 49.4"/>
    <polygon class="cls-4" points="456.58 46.47 455.79 46.47 455.79 49.4 456.58 49.4 456.58 48.33 458.61 48.33 458.61 49 459.4 49 459.4 46.86 458.61 46.86 458.61 47.53 456.58 47.53 456.58 46.47"/>
    <polygon class="cls-4" points="456.58 43.53 455.79 43.53 455.79 46.47 456.58 46.47 456.58 45.4 458.61 45.4 458.61 46.07 459.4 46.07 459.4 43.92 458.61 43.92 458.61 44.59 456.58 44.59 456.58 43.53"/>
    <polygon class="cls-4" points="456.58 40.6 455.79 40.6 455.79 43.53 456.58 43.53 456.58 42.46 458.61 42.46 458.61 43.13 459.4 43.13 459.4 40.99 458.61 40.99 458.61 41.66 456.58 41.66 456.58 40.6"/>
    <polygon class="cls-4" points="456.58 37.67 455.79 37.67 455.79 40.6 456.58 40.6 456.58 39.53 458.61 39.53 458.61 40.2 459.4 40.2 459.4 38.06 458.61 38.06 458.61 38.73 456.58 38.73 456.58 37.67"/>
    <polygon class="cls-4" points="456.58 34.73 455.79 34.73 455.79 37.67 456.58 37.67 456.58 36.6 458.61 36.6 458.61 37.27 459.4 37.27 459.4 35.12 458.61 35.12 458.61 35.79 456.58 35.79 456.58 34.73"/>
    <polygon class="cls-4" points="456.58 31.8 455.79 31.8 455.79 34.73 456.58 34.73 456.58 33.66 458.61 33.66 458.61 34.33 459.4 34.33 459.4 32.19 458.61 32.19 458.61 32.86 456.58 32.86 456.58 31.8"/>
    <polygon class="cls-4" points="456.58 28.87 455.79 28.87 455.79 31.8 456.58 31.8 456.58 30.73 458.61 30.73 458.61 31.4 459.4 31.4 459.4 29.26 458.61 29.26 458.61 29.93 456.58 29.93 456.58 28.87"/>
    <polygon class="cls-4" points="456.58 25.93 455.79 25.93 455.79 28.87 456.58 28.87 456.58 27.8 458.61 27.8 458.61 28.47 459.4 28.47 459.4 26.32 458.61 26.32 458.61 27 456.58 27 456.58 25.93"/>
    <polygon class="cls-4" points="456.58 23 455.79 23 455.79 25.93 456.58 25.93 456.58 24.86 458.61 24.86 458.61 25.54 459.4 25.54 459.4 23.39 458.61 23.39 458.61 24.06 456.58 24.06 456.58 23"/>
    <polygon class="cls-4" points="456.58 20.07 455.79 20.07 455.79 23 456.58 23 456.58 21.93 458.61 21.93 458.61 22.6 459.4 22.6 459.4 20.46 458.61 20.46 458.61 21.13 456.58 21.13 456.58 20.07"/>
    <polygon class="cls-4" points="456.58 17.13 455.79 17.13 455.79 20.07 456.58 20.07 456.58 19 458.61 19 458.61 19.67 459.4 19.67 459.4 17.52 458.61 17.52 458.61 18.2 456.58 18.2 456.58 17.13"/>
    <polygon class="cls-4" points="456.58 14.2 455.79 14.2 455.79 17.13 456.58 17.13 456.58 16.07 458.61 16.07 458.61 16.74 459.4 16.74 459.4 14.59 458.61 14.59 458.61 15.26 456.58 15.26 456.58 14.2"/>
    <polygon class="cls-4" points="456.58 11.27 455.79 11.27 455.79 14.2 456.58 14.2 456.58 13.13 458.61 13.13 458.61 13.8 459.4 13.8 459.4 11.66 458.61 11.66 458.61 12.33 456.58 12.33 456.58 11.27"/>
    <polygon class="cls-4" points="456.58 8.34 455.79 8.34 455.79 11.27 456.58 11.27 456.58 10.2 458.61 10.2 458.61 10.87 459.4 10.87 459.4 8.73 458.61 8.73 458.61 9.4 456.58 9.4 456.58 8.34"/>
    <polygon class="cls-4" points="456.58 5.4 455.79 5.4 455.79 8.34 456.58 8.34 456.58 7.27 458.61 7.27 458.61 7.94 459.4 7.94 459.4 5.79 458.61 5.79 458.61 6.46 456.58 6.46 456.58 5.4"/>
    <polygon class="cls-4" points="452.9 4.61 452.9 5.4 455.79 5.4 455.79 4.61 454.74 4.61 454.74 2.58 455.4 2.58 455.4 1.79 453.29 1.79 453.29 2.58 453.95 2.58 453.95 4.61 452.9 4.61"/>
    <polygon class="cls-4" points="450.02 4.61 450.02 5.4 452.9 5.4 452.9 4.61 451.85 4.61 451.85 2.58 452.51 2.58 452.51 1.79 450.4 1.79 450.4 2.58 451.06 2.58 451.06 4.61 450.02 4.61"/>
    <polygon class="cls-4" points="447.13 4.61 447.13 5.4 450.02 5.4 450.02 4.61 448.96 4.61 448.96 2.58 449.62 2.58 449.62 1.79 447.51 1.79 447.51 2.58 448.17 2.58 448.17 4.61 447.13 4.61"/>
    <polygon class="cls-4" points="444.24 4.61 444.24 5.4 447.13 5.4 447.13 4.61 446.07 4.61 446.07 2.58 446.73 2.58 446.73 1.79 444.62 1.79 444.62 2.58 445.28 2.58 445.28 4.61 444.24 4.61"/>
    <polygon class="cls-4" points="441.35 4.61 441.35 5.4 444.24 5.4 444.24 4.61 443.18 4.61 443.18 2.58 443.85 2.58 443.85 1.79 441.73 1.79 441.73 2.58 442.39 2.58 442.39 4.61 441.35 4.61"/>
    <polygon class="cls-4" points="438.46 4.61 438.46 5.4 441.35 5.4 441.35 4.61 440.3 4.61 440.3 2.58 440.96 2.58 440.96 1.79 438.84 1.79 438.84 2.58 439.51 2.58 439.51 4.61 438.46 4.61"/>
    <polygon class="cls-4" points="435.57 4.61 435.57 5.4 438.46 5.4 438.46 4.61 437.41 4.61 437.41 2.58 438.07 2.58 438.07 1.79 435.96 1.79 435.96 2.58 436.62 2.58 436.62 4.61 435.57 4.61"/>
    <polygon class="cls-4" points="432.68 4.61 432.68 5.4 435.57 5.4 435.57 4.61 434.52 4.61 434.52 2.58 435.18 2.58 435.18 1.79 433.07 1.79 433.07 2.58 433.73 2.58 433.73 4.61 432.68 4.61"/>
    <polygon class="cls-4" points="429.79 4.61 429.79 5.4 432.68 5.4 432.68 4.61 431.63 4.61 431.63 2.58 432.29 2.58 432.29 1.79 430.18 1.79 430.18 2.58 430.84 2.58 430.84 4.61 429.79 4.61"/>
    <polygon class="cls-4" points="426.91 4.61 426.91 5.4 429.79 5.4 429.79 4.61 428.74 4.61 428.74 2.58 429.4 2.58 429.4 1.79 427.29 1.79 427.29 2.58 427.95 2.58 427.95 4.61 426.91 4.61"/>
    <polygon class="cls-4" points="424.02 4.61 424.02 5.4 426.91 5.4 426.91 4.61 425.85 4.61 425.85 2.58 426.51 2.58 426.51 1.79 424.4 1.79 424.4 2.58 425.06 2.58 425.06 4.61 424.02 4.61"/>
    <polygon class="cls-4" points="421.13 4.61 421.13 5.4 424.02 5.4 424.02 4.61 422.96 4.61 422.96 2.58 423.62 2.58 423.62 1.79 421.51 1.79 421.51 2.58 422.17 2.58 422.17 4.61 421.13 4.61"/>
    <polygon class="cls-4" points="418.24 4.61 418.24 5.4 421.13 5.4 421.13 4.61 420.07 4.61 420.07 2.58 420.74 2.58 420.74 1.79 418.62 1.79 418.62 2.58 419.28 2.58 419.28 4.61 418.24 4.61"/>
    <polygon class="cls-4" points="415.35 4.61 415.35 5.4 418.24 5.4 418.24 4.61 417.19 4.61 417.19 2.58 417.85 2.58 417.85 1.79 415.73 1.79 415.73 2.58 416.4 2.58 416.4 4.61 415.35 4.61"/>
    <polygon class="cls-4" points="412.46 4.61 412.46 5.4 415.35 5.4 415.35 4.61 414.3 4.61 414.3 2.58 414.96 2.58 414.96 1.79 412.85 1.79 412.85 2.58 413.51 2.58 413.51 4.61 412.46 4.61"/>
    <polygon class="cls-4" points="409.57 4.61 409.57 5.4 412.46 5.4 412.46 4.61 411.41 4.61 411.41 2.58 412.07 2.58 412.07 1.79 409.96 1.79 409.96 2.58 410.62 2.58 410.62 4.61 409.57 4.61"/>
    <polygon class="cls-4" points="406.68 4.61 406.68 5.4 409.57 5.4 409.57 4.61 408.52 4.61 408.52 2.58 409.18 2.58 409.18 1.79 407.07 1.79 407.07 2.58 407.73 2.58 407.73 4.61 406.68 4.61"/>
    <polygon class="cls-4" points="403.8 4.61 403.8 5.4 406.68 5.4 406.68 4.61 405.63 4.61 405.63 2.58 406.29 2.58 406.29 1.79 404.18 1.79 404.18 2.58 404.84 2.58 404.84 4.61 403.8 4.61"/>
    <polygon class="cls-4" points="400.91 4.61 400.91 5.4 403.8 5.4 403.8 4.61 402.74 4.61 402.74 2.58 403.4 2.58 403.4 1.79 401.29 1.79 401.29 2.58 401.95 2.58 401.95 4.61 400.91 4.61"/>
    <polygon class="cls-4" points="398.02 4.61 398.02 5.4 400.91 5.4 400.91 4.61 399.85 4.61 399.85 2.58 400.51 2.58 400.51 1.79 398.4 1.79 398.4 2.58 399.06 2.58 399.06 4.61 398.02 4.61"/>
    <polygon class="cls-4" points="395.13 4.61 395.13 5.4 398.02 5.4 398.02 4.61 396.96 4.61 396.96 2.58 397.63 2.58 397.63 1.79 395.51 1.79 395.51 2.58 396.17 2.58 396.17 4.61 395.13 4.61"/>
    <polygon class="cls-4" points="392.24 4.61 392.24 5.4 395.13 5.4 395.13 4.61 394.08 4.61 394.08 2.58 394.74 2.58 394.74 1.79 392.62 1.79 392.62 2.58 393.29 2.58 393.29 4.61 392.24 4.61"/>
    <polygon class="cls-4" points="389.35 4.61 389.35 5.4 392.24 5.4 392.24 4.61 391.19 4.61 391.19 2.58 391.85 2.58 391.85 1.79 389.74 1.79 389.74 2.58 390.4 2.58 390.4 4.61 389.35 4.61"/>
    <polygon class="cls-4" points="386.46 4.61 386.46 5.4 389.35 5.4 389.35 4.61 388.3 4.61 388.3 2.58 388.96 2.58 388.96 1.79 386.85 1.79 386.85 2.58 387.51 2.58 387.51 4.61 386.46 4.61"/>
    <polygon class="cls-4" points="383.57 4.61 383.57 5.4 386.46 5.4 386.46 4.61 385.41 4.61 385.41 2.58 386.07 2.58 386.07 1.79 383.96 1.79 383.96 2.58 384.62 2.58 384.62 4.61 383.57 4.61"/>
    <polygon class="cls-4" points="380.68 4.61 380.68 5.4 383.57 5.4 383.57 4.61 382.52 4.61 382.52 2.58 383.18 2.58 383.18 1.79 381.07 1.79 381.07 2.58 381.73 2.58 381.73 4.61 380.68 4.61"/>
    <polygon class="cls-4" points="377.8 4.61 377.8 5.4 380.68 5.4 380.68 4.61 379.63 4.61 379.63 2.58 380.29 2.58 380.29 1.79 378.18 1.79 378.18 2.58 378.84 2.58 378.84 4.61 377.8 4.61"/>
    <polygon class="cls-4" points="374.91 4.61 374.91 5.4 377.8 5.4 377.8 4.61 376.74 4.61 376.74 2.58 377.4 2.58 377.4 1.79 375.29 1.79 375.29 2.58 375.95 2.58 375.95 4.61 374.91 4.61"/>
    <polygon class="cls-4" points="372.02 4.61 372.02 5.4 374.91 5.4 374.91 4.61 373.85 4.61 373.85 2.58 374.51 2.58 374.51 1.79 372.4 1.79 372.4 2.58 373.06 2.58 373.06 4.61 372.02 4.61"/>
    <polygon class="cls-4" points="369.13 4.61 369.13 5.4 372.02 5.4 372.02 4.61 370.97 4.61 370.97 2.58 371.63 2.58 371.63 1.79 369.51 1.79 369.51 2.58 370.17 2.58 370.17 4.61 369.13 4.61"/>
    <polygon class="cls-4" points="366.24 4.61 366.24 5.4 369.13 5.4 369.13 4.61 368.08 4.61 368.08 2.58 368.74 2.58 368.74 1.79 366.62 1.79 366.62 2.58 367.29 2.58 367.29 4.61 366.24 4.61"/>
    <polygon class="cls-4" points="363.35 4.61 363.35 5.4 366.24 5.4 366.24 4.61 365.19 4.61 365.19 2.58 365.85 2.58 365.85 1.79 363.74 1.79 363.74 2.58 364.4 2.58 364.4 4.61 363.35 4.61"/>
    <polygon class="cls-4" points="360.46 4.61 360.46 5.4 363.35 5.4 363.35 4.61 362.3 4.61 362.3 2.58 362.96 2.58 362.96 1.79 360.85 1.79 360.85 2.58 361.51 2.58 361.51 4.61 360.46 4.61"/>
    <polygon class="cls-4" points="357.57 4.61 357.57 5.4 360.46 5.4 360.46 4.61 359.41 4.61 359.41 2.58 360.07 2.58 360.07 1.79 357.96 1.79 357.96 2.58 358.62 2.58 358.62 4.61 357.57 4.61"/>
    <polygon class="cls-4" points="354.69 4.61 354.69 5.4 357.57 5.4 357.57 4.61 356.52 4.61 356.52 2.58 357.18 2.58 357.18 1.79 355.07 1.79 355.07 2.58 355.73 2.58 355.73 4.61 354.69 4.61"/>
    <polygon class="cls-4" points="351.8 4.61 351.8 5.4 354.69 5.4 354.69 4.61 353.63 4.61 353.63 2.58 354.29 2.58 354.29 1.79 352.18 1.79 352.18 2.58 352.84 2.58 352.84 4.61 351.8 4.61"/>
    <polygon class="cls-4" points="348.91 4.61 348.91 5.4 351.8 5.4 351.8 4.61 350.74 4.61 350.74 2.58 351.4 2.58 351.4 1.79 349.29 1.79 349.29 2.58 349.95 2.58 349.95 4.61 348.91 4.61"/>
    <polygon class="cls-4" points="346.02 4.61 346.02 5.4 348.91 5.4 348.91 4.61 347.85 4.61 347.85 2.58 348.52 2.58 348.52 1.79 346.4 1.79 346.4 2.58 347.06 2.58 347.06 4.61 346.02 4.61"/>
    <polygon class="cls-4" points="343.13 4.61 343.13 5.4 346.02 5.4 346.02 4.61 344.97 4.61 344.97 2.58 345.63 2.58 345.63 1.79 343.51 1.79 343.51 2.58 344.18 2.58 344.18 4.61 343.13 4.61"/>
    <polygon class="cls-4" points="340.24 4.61 340.24 5.4 343.13 5.4 343.13 4.61 342.08 4.61 342.08 2.58 342.74 2.58 342.74 1.79 340.63 1.79 340.63 2.58 341.29 2.58 341.29 4.61 340.24 4.61"/>
    <polygon class="cls-4" points="337.35 4.61 337.35 5.4 340.24 5.4 340.24 4.61 339.19 4.61 339.19 2.58 339.85 2.58 339.85 1.79 337.74 1.79 337.74 2.58 338.4 2.58 338.4 4.61 337.35 4.61"/>
    <polygon class="cls-4" points="334.46 4.61 334.46 5.4 337.35 5.4 337.35 4.61 336.3 4.61 336.3 2.58 336.96 2.58 336.96 1.79 334.85 1.79 334.85 2.58 335.51 2.58 335.51 4.61 334.46 4.61"/>
    <polygon class="cls-4" points="331.58 4.61 331.58 5.4 334.46 5.4 334.46 4.61 333.41 4.61 333.41 2.58 334.07 2.58 334.07 1.79 331.96 1.79 331.96 2.58 332.62 2.58 332.62 4.61 331.58 4.61"/>
    <polygon class="cls-4" points="328.69 4.61 328.69 5.4 331.58 5.4 331.58 4.61 330.52 4.61 330.52 2.58 331.18 2.58 331.18 1.79 329.07 1.79 329.07 2.58 329.73 2.58 329.73 4.61 328.69 4.61"/>
    <polygon class="cls-4" points="325.8 4.61 325.8 5.4 328.69 5.4 328.69 4.61 327.63 4.61 327.63 2.58 328.29 2.58 328.29 1.79 326.18 1.79 326.18 2.58 326.84 2.58 326.84 4.61 325.8 4.61"/>
    <polygon class="cls-4" points="322.91 4.61 322.91 5.4 325.8 5.4 325.8 4.61 324.74 4.61 324.74 2.58 325.41 2.58 325.41 1.79 323.29 1.79 323.29 2.58 323.95 2.58 323.95 4.61 322.91 4.61"/>
    <polygon class="cls-4" points="320.02 4.61 320.02 5.4 322.91 5.4 322.91 4.61 321.86 4.61 321.86 2.58 322.52 2.58 322.52 1.79 320.4 1.79 320.4 2.58 321.07 2.58 321.07 4.61 320.02 4.61"/>
    <polygon class="cls-4" points="317.13 4.61 317.13 5.4 320.02 5.4 320.02 4.61 318.97 4.61 318.97 2.58 319.63 2.58 319.63 1.79 317.52 1.79 317.52 2.58 318.18 2.58 318.18 4.61 317.13 4.61"/>
    <polygon class="cls-4" points="314.24 4.61 314.24 5.4 317.13 5.4 317.13 4.61 316.08 4.61 316.08 2.58 316.74 2.58 316.74 1.79 314.63 1.79 314.63 2.58 315.29 2.58 315.29 4.61 314.24 4.61"/>
    <polygon class="cls-4" points="311.35 4.61 311.35 5.4 314.24 5.4 314.24 4.61 313.19 4.61 313.19 2.58 313.85 2.58 313.85 1.79 311.74 1.79 311.74 2.58 312.4 2.58 312.4 4.61 311.35 4.61"/>
    <polygon class="cls-4" points="308.47 4.61 308.47 5.4 311.35 5.4 311.35 4.61 310.3 4.61 310.3 2.58 310.96 2.58 310.96 1.79 308.85 1.79 308.85 2.58 309.51 2.58 309.51 4.61 308.47 4.61"/>
    <polygon class="cls-4" points="305.58 4.61 305.58 5.4 308.47 5.4 308.47 4.61 307.41 4.61 307.41 2.58 308.07 2.58 308.07 1.79 305.96 1.79 305.96 2.58 306.62 2.58 306.62 4.61 305.58 4.61"/>
    <polygon class="cls-4" points="302.69 4.61 302.69 5.4 305.58 5.4 305.58 4.61 304.52 4.61 304.52 2.58 305.18 2.58 305.18 1.79 303.07 1.79 303.07 2.58 303.73 2.58 303.73 4.61 302.69 4.61"/>
    <polygon class="cls-4" points="299.8 4.61 299.8 5.4 302.69 5.4 302.69 4.61 301.63 4.61 301.63 2.58 302.3 2.58 302.3 1.79 300.18 1.79 300.18 2.58 300.84 2.58 300.84 4.61 299.8 4.61"/>
    <polygon class="cls-4" points="296.91 4.61 296.91 5.4 299.8 5.4 299.8 4.61 298.75 4.61 298.75 2.58 299.41 2.58 299.41 1.79 297.29 1.79 297.29 2.58 297.96 2.58 297.96 4.61 296.91 4.61"/>
    <polygon class="cls-4" points="294.02 4.61 294.02 5.4 296.91 5.4 296.91 4.61 295.86 4.61 295.86 2.58 296.52 2.58 296.52 1.79 294.41 1.79 294.41 2.58 295.07 2.58 295.07 4.61 294.02 4.61"/>
    <polygon class="cls-4" points="291.13 4.61 291.13 5.4 294.02 5.4 294.02 4.61 292.97 4.61 292.97 2.58 293.63 2.58 293.63 1.79 291.52 1.79 291.52 2.58 292.18 2.58 292.18 4.61 291.13 4.61"/>
    <polygon class="cls-4" points="288.24 4.61 288.24 5.4 291.13 5.4 291.13 4.61 290.08 4.61 290.08 2.58 290.74 2.58 290.74 1.79 288.63 1.79 288.63 2.58 289.29 2.58 289.29 4.61 288.24 4.61"/>
    <polygon class="cls-4" points="285.35 4.61 285.35 5.4 288.24 5.4 288.24 4.61 287.19 4.61 287.19 2.58 287.85 2.58 287.85 1.79 285.74 1.79 285.74 2.58 286.4 2.58 286.4 4.61 285.35 4.61"/>
    <polygon class="cls-4" points="282.47 4.61 282.47 5.4 285.35 5.4 285.35 4.61 284.3 4.61 284.3 2.58 284.96 2.58 284.96 1.79 282.85 1.79 282.85 2.58 283.51 2.58 283.51 4.61 282.47 4.61"/>
    <polygon class="cls-4" points="279.58 4.61 279.58 5.4 282.47 5.4 282.47 4.61 281.41 4.61 281.41 2.58 282.07 2.58 282.07 1.79 279.96 1.79 279.96 2.58 280.62 2.58 280.62 4.61 279.58 4.61"/>
    <polygon class="cls-4" points="276.69 4.61 276.69 5.4 279.58 5.4 279.58 4.61 278.52 4.61 278.52 2.58 279.18 2.58 279.18 1.79 277.07 1.79 277.07 2.58 277.73 2.58 277.73 4.61 276.69 4.61"/>
    <polygon class="cls-4" points="273.8 4.61 273.8 5.4 276.69 5.4 276.69 4.61 275.63 4.61 275.63 2.58 276.3 2.58 276.3 1.79 274.18 1.79 274.18 2.58 274.84 2.58 274.84 4.61 273.8 4.61"/>
    <polygon class="cls-4" points="270.91 4.61 270.91 5.4 273.8 5.4 273.8 4.61 272.75 4.61 272.75 2.58 273.41 2.58 273.41 1.79 271.29 1.79 271.29 2.58 271.96 2.58 271.96 4.61 270.91 4.61"/>
    <polygon class="cls-4" points="268.02 4.61 268.02 5.4 270.91 5.4 270.91 4.61 269.86 4.61 269.86 2.58 270.52 2.58 270.52 1.79 268.41 1.79 268.41 2.58 269.07 2.58 269.07 4.61 268.02 4.61"/>
    <polygon class="cls-4" points="265.13 4.61 265.13 5.4 268.02 5.4 268.02 4.61 266.97 4.61 266.97 2.58 267.63 2.58 267.63 1.79 265.52 1.79 265.52 2.58 266.18 2.58 266.18 4.61 265.13 4.61"/>
    <polygon class="cls-4" points="262.24 4.61 262.24 5.4 265.13 5.4 265.13 4.61 264.08 4.61 264.08 2.58 264.74 2.58 264.74 1.79 262.63 1.79 262.63 2.58 263.29 2.58 263.29 4.61 262.24 4.61"/>
    <polygon class="cls-4" points="259.36 4.61 259.36 5.4 262.24 5.4 262.24 4.61 261.19 4.61 261.19 2.58 261.85 2.58 261.85 1.79 259.74 1.79 259.74 2.58 260.4 2.58 260.4 4.61 259.36 4.61"/>
    <polygon class="cls-4" points="256.47 4.61 256.47 5.4 259.36 5.4 259.36 4.61 258.3 4.61 258.3 2.58 258.96 2.58 258.96 1.79 256.85 1.79 256.85 2.58 257.51 2.58 257.51 4.61 256.47 4.61"/>
    <polygon class="cls-4" points="253.58 4.61 253.58 5.4 256.47 5.4 256.47 4.61 255.41 4.61 255.41 2.58 256.07 2.58 256.07 1.79 253.96 1.79 253.96 2.58 254.62 2.58 254.62 4.61 253.58 4.61"/>
    <polygon class="cls-4" points="250.69 4.61 250.69 5.4 253.58 5.4 253.58 4.61 252.52 4.61 252.52 2.58 253.19 2.58 253.19 1.79 251.07 1.79 251.07 2.58 251.73 2.58 251.73 4.61 250.69 4.61"/>
    <polygon class="cls-4" points="247.8 4.61 247.8 5.4 250.69 5.4 250.69 4.61 249.64 4.61 249.64 2.58 250.3 2.58 250.3 1.79 248.18 1.79 248.18 2.58 248.85 2.58 248.85 4.61 247.8 4.61"/>
    <polygon class="cls-4" points="244.91 4.61 244.91 5.4 247.8 5.4 247.8 4.61 246.75 4.61 246.75 2.58 247.41 2.58 247.41 1.79 245.3 1.79 245.3 2.58 245.96 2.58 245.96 4.61 244.91 4.61"/>
    <polygon class="cls-4" points="242.02 4.61 242.02 5.4 244.91 5.4 244.91 4.61 243.86 4.61 243.86 2.58 244.52 2.58 244.52 1.79 242.41 1.79 242.41 2.58 243.07 2.58 243.07 4.61 242.02 4.61"/>
    <polygon class="cls-4" points="239.13 4.61 239.13 5.4 242.02 5.4 242.02 4.61 240.97 4.61 240.97 2.58 241.63 2.58 241.63 1.79 239.52 1.79 239.52 2.58 240.18 2.58 240.18 4.61 239.13 4.61"/>
    <polygon class="cls-4" points="236.25 4.61 236.25 5.4 239.13 5.4 239.13 4.61 238.08 4.61 238.08 2.58 238.74 2.58 238.74 1.79 236.63 1.79 236.63 2.58 237.29 2.58 237.29 4.61 236.25 4.61"/>
    <polygon class="cls-4" points="233.36 4.61 233.36 5.4 236.25 5.4 236.25 4.61 235.19 4.61 235.19 2.58 235.85 2.58 235.85 1.79 233.74 1.79 233.74 2.58 234.4 2.58 234.4 4.61 233.36 4.61"/>
    <polygon class="cls-4" points="230.47 4.61 230.47 5.4 233.36 5.4 233.36 4.61 232.3 4.61 232.3 2.58 232.96 2.58 232.96 1.79 230.85 1.79 230.85 2.58 231.51 2.58 231.51 4.61 230.47 4.61"/>
    <polygon class="cls-4" points="227.58 4.61 227.58 5.4 230.47 5.4 230.47 4.61 229.41 4.61 229.41 2.58 230.08 2.58 230.08 1.79 227.96 1.79 227.96 2.58 228.62 2.58 228.62 4.61 227.58 4.61"/>
    <polygon class="cls-4" points="224.69 4.61 224.69 5.4 227.58 5.4 227.58 4.61 226.53 4.61 226.53 2.58 227.19 2.58 227.19 1.79 225.07 1.79 225.07 2.58 225.74 2.58 225.74 4.61 224.69 4.61"/>
    <polygon class="cls-4" points="221.8 4.61 221.8 5.4 224.69 5.4 224.69 4.61 223.64 4.61 223.64 2.58 224.3 2.58 224.3 1.79 222.19 1.79 222.19 2.58 222.85 2.58 222.85 4.61 221.8 4.61"/>
    <polygon class="cls-4" points="218.91 4.61 218.91 5.4 221.8 5.4 221.8 4.61 220.75 4.61 220.75 2.58 221.41 2.58 221.41 1.79 219.3 1.79 219.3 2.58 219.96 2.58 219.96 4.61 218.91 4.61"/>
    <polygon class="cls-4" points="216.02 4.61 216.02 5.4 218.91 5.4 218.91 4.61 217.86 4.61 217.86 2.58 218.52 2.58 218.52 1.79 216.41 1.79 216.41 2.58 217.07 2.58 217.07 4.61 216.02 4.61"/>
    <polygon class="cls-4" points="213.14 4.61 213.14 5.4 216.02 5.4 216.02 4.61 214.97 4.61 214.97 2.58 215.63 2.58 215.63 1.79 213.52 1.79 213.52 2.58 214.18 2.58 214.18 4.61 213.14 4.61"/>
    <polygon class="cls-4" points="210.25 4.61 210.25 5.4 213.14 5.4 213.14 4.61 212.08 4.61 212.08 2.58 212.74 2.58 212.74 1.79 210.63 1.79 210.63 2.58 211.29 2.58 211.29 4.61 210.25 4.61"/>
    <polygon class="cls-4" points="207.36 4.61 207.36 5.4 210.25 5.4 210.25 4.61 209.19 4.61 209.19 2.58 209.85 2.58 209.85 1.79 207.74 1.79 207.74 2.58 208.4 2.58 208.4 4.61 207.36 4.61"/>
    <polygon class="cls-4" points="204.47 4.61 204.47 5.4 207.36 5.4 207.36 4.61 206.3 4.61 206.3 2.58 206.97 2.58 206.97 1.79 204.85 1.79 204.85 2.58 205.51 2.58 205.51 4.61 204.47 4.61"/>
    <polygon class="cls-4" points="201.58 4.61 201.58 5.4 204.47 5.4 204.47 4.61 203.42 4.61 203.42 2.58 204.08 2.58 204.08 1.79 201.96 1.79 201.96 2.58 202.63 2.58 202.63 4.61 201.58 4.61"/>
    <polygon class="cls-4" points="198.69 4.61 198.69 5.4 201.58 5.4 201.58 4.61 200.53 4.61 200.53 2.58 201.19 2.58 201.19 1.79 199.08 1.79 199.08 2.58 199.74 2.58 199.74 4.61 198.69 4.61"/>
    <polygon class="cls-4" points="195.8 4.61 195.8 5.4 198.69 5.4 198.69 4.61 197.64 4.61 197.64 2.58 198.3 2.58 198.3 1.79 196.19 1.79 196.19 2.58 196.85 2.58 196.85 4.61 195.8 4.61"/>
    <polygon class="cls-4" points="192.91 4.61 192.91 5.4 195.8 5.4 195.8 4.61 194.75 4.61 194.75 2.58 195.41 2.58 195.41 1.79 193.3 1.79 193.3 2.58 193.96 2.58 193.96 4.61 192.91 4.61"/>
    <polygon class="cls-4" points="190.02 4.61 190.02 5.4 192.91 5.4 192.91 4.61 191.86 4.61 191.86 2.58 192.52 2.58 192.52 1.79 190.41 1.79 190.41 2.58 191.07 2.58 191.07 4.61 190.02 4.61"/>
    <polygon class="cls-4" points="187.14 4.61 187.14 5.4 190.02 5.4 190.02 4.61 188.97 4.61 188.97 2.58 189.63 2.58 189.63 1.79 187.52 1.79 187.52 2.58 188.18 2.58 188.18 4.61 187.14 4.61"/>
    <polygon class="cls-4" points="184.25 4.61 184.25 5.4 187.14 5.4 187.14 4.61 186.08 4.61 186.08 2.58 186.74 2.58 186.74 1.79 184.63 1.79 184.63 2.58 185.29 2.58 185.29 4.61 184.25 4.61"/>
    <polygon class="cls-4" points="181.36 4.61 181.36 5.4 184.25 5.4 184.25 4.61 183.19 4.61 183.19 2.58 183.85 2.58 183.85 1.79 181.74 1.79 181.74 2.58 182.4 2.58 182.4 4.61 181.36 4.61"/>
    <polygon class="cls-4" points="178.47 4.61 178.47 5.4 181.36 5.4 181.36 4.61 180.3 4.61 180.3 2.58 180.97 2.58 180.97 1.79 178.85 1.79 178.85 2.58 179.51 2.58 179.51 4.61 178.47 4.61"/>
    <polygon class="cls-4" points="175.58 4.61 175.58 5.4 178.47 5.4 178.47 4.61 177.42 4.61 177.42 2.58 178.08 2.58 178.08 1.79 175.96 1.79 175.96 2.58 176.63 2.58 176.63 4.61 175.58 4.61"/>
    <polygon class="cls-4" points="172.69 4.61 172.69 5.4 175.58 5.4 175.58 4.61 174.53 4.61 174.53 2.58 175.19 2.58 175.19 1.79 173.08 1.79 173.08 2.58 173.74 2.58 173.74 4.61 172.69 4.61"/>
    <polygon class="cls-4" points="169.8 4.61 169.8 5.4 172.69 5.4 172.69 4.61 171.64 4.61 171.64 2.58 172.3 2.58 172.3 1.79 170.19 1.79 170.19 2.58 170.85 2.58 170.85 4.61 169.8 4.61"/>
    <polygon class="cls-4" points="166.91 4.61 166.91 5.4 169.8 5.4 169.8 4.61 168.75 4.61 168.75 2.58 169.41 2.58 169.41 1.79 167.3 1.79 167.3 2.58 167.96 2.58 167.96 4.61 166.91 4.61"/>
    <polygon class="cls-4" points="164.03 4.61 164.03 5.4 166.91 5.4 166.91 4.61 165.86 4.61 165.86 2.58 166.52 2.58 166.52 1.79 164.41 1.79 164.41 2.58 165.07 2.58 165.07 4.61 164.03 4.61"/>
    <polygon class="cls-4" points="161.14 4.61 161.14 5.4 164.03 5.4 164.03 4.61 162.97 4.61 162.97 2.58 163.63 2.58 163.63 1.79 161.52 1.79 161.52 2.58 162.18 2.58 162.18 4.61 161.14 4.61"/>
    <polygon class="cls-4" points="158.25 4.61 158.25 5.4 161.14 5.4 161.14 4.61 160.08 4.61 160.08 2.58 160.74 2.58 160.74 1.79 158.63 1.79 158.63 2.58 159.29 2.58 159.29 4.61 158.25 4.61"/>
    <polygon class="cls-4" points="155.36 4.61 155.36 5.4 158.25 5.4 158.25 4.61 157.19 4.61 157.19 2.58 157.86 2.58 157.86 1.79 155.74 1.79 155.74 2.58 156.4 2.58 156.4 4.61 155.36 4.61"/>
    <polygon class="cls-4" points="152.47 4.61 152.47 5.4 155.36 5.4 155.36 4.61 154.31 4.61 154.31 2.58 154.97 2.58 154.97 1.79 152.85 1.79 152.85 2.58 153.52 2.58 153.52 4.61 152.47 4.61"/>
    <polygon class="cls-4" points="149.58 4.61 149.58 5.4 152.47 5.4 152.47 4.61 151.42 4.61 151.42 2.58 152.08 2.58 152.08 1.79 149.97 1.79 149.97 2.58 150.63 2.58 150.63 4.61 149.58 4.61"/>
    <polygon class="cls-4" points="146.69 4.61 146.69 5.4 149.58 5.4 149.58 4.61 148.53 4.61 148.53 2.58 149.19 2.58 149.19 1.79 147.08 1.79 147.08 2.58 147.74 2.58 147.74 4.61 146.69 4.61"/>
    <polygon class="cls-4" points="143.8 4.61 143.8 5.4 146.69 5.4 146.69 4.61 145.64 4.61 145.64 2.58 146.3 2.58 146.3 1.79 144.19 1.79 144.19 2.58 144.85 2.58 144.85 4.61 143.8 4.61"/>
    <polygon class="cls-4" points="140.92 4.61 140.92 5.4 143.8 5.4 143.8 4.61 142.75 4.61 142.75 2.58 143.41 2.58 143.41 1.79 141.3 1.79 141.3 2.58 141.96 2.58 141.96 4.61 140.92 4.61"/>
    <polygon class="cls-4" points="138.03 4.61 138.03 5.4 140.92 5.4 140.92 4.61 139.86 4.61 139.86 2.58 140.52 2.58 140.52 1.79 138.41 1.79 138.41 2.58 139.07 2.58 139.07 4.61 138.03 4.61"/>
    <polygon class="cls-4" points="135.14 4.61 135.14 5.4 138.03 5.4 138.03 4.61 136.97 4.61 136.97 2.58 137.63 2.58 137.63 1.79 135.52 1.79 135.52 2.58 136.18 2.58 136.18 4.61 135.14 4.61"/>
    <polygon class="cls-4" points="132.25 4.61 132.25 5.4 135.14 5.4 135.14 4.61 134.08 4.61 134.08 2.58 134.75 2.58 134.75 1.79 132.63 1.79 132.63 2.58 133.29 2.58 133.29 4.61 132.25 4.61"/>
    <polygon class="cls-4" points="129.36 4.61 129.36 5.4 132.25 5.4 132.25 4.61 131.2 4.61 131.2 2.58 131.86 2.58 131.86 1.79 129.74 1.79 129.74 2.58 130.41 2.58 130.41 4.61 129.36 4.61"/>
    <polygon class="cls-4" points="126.47 4.61 126.47 5.4 129.36 5.4 129.36 4.61 128.31 4.61 128.31 2.58 128.97 2.58 128.97 1.79 126.86 1.79 126.86 2.58 127.52 2.58 127.52 4.61 126.47 4.61"/>
    <polygon class="cls-4" points="123.58 4.61 123.58 5.4 126.47 5.4 126.47 4.61 125.42 4.61 125.42 2.58 126.08 2.58 126.08 1.79 123.97 1.79 123.97 2.58 124.63 2.58 124.63 4.61 123.58 4.61"/>
    <polygon class="cls-4" points="120.69 4.61 120.69 5.4 123.58 5.4 123.58 4.61 122.53 4.61 122.53 2.58 123.19 2.58 123.19 1.79 121.08 1.79 121.08 2.58 121.74 2.58 121.74 4.61 120.69 4.61"/>
    <polygon class="cls-4" points="117.81 4.61 117.81 5.4 120.69 5.4 120.69 4.61 119.64 4.61 119.64 2.58 120.3 2.58 120.3 1.79 118.19 1.79 118.19 2.58 118.85 2.58 118.85 4.61 117.81 4.61"/>
    <polygon class="cls-4" points="114.92 4.61 114.92 5.4 117.81 5.4 117.81 4.61 116.75 4.61 116.75 2.58 117.41 2.58 117.41 1.79 115.3 1.79 115.3 2.58 115.96 2.58 115.96 4.61 114.92 4.61"/>
    <polygon class="cls-4" points="112.03 4.61 112.03 5.4 114.92 5.4 114.92 4.61 113.86 4.61 113.86 2.58 114.52 2.58 114.52 1.79 112.41 1.79 112.41 2.58 113.07 2.58 113.07 4.61 112.03 4.61"/>
    <polygon class="cls-4" points="109.14 4.61 109.14 5.4 112.03 5.4 112.03 4.61 110.97 4.61 110.97 2.58 111.64 2.58 111.64 1.79 109.52 1.79 109.52 2.58 110.18 2.58 110.18 4.61 109.14 4.61"/>
    <polygon class="cls-4" points="106.25 4.61 106.25 5.4 109.14 5.4 109.14 4.61 108.09 4.61 108.09 2.58 108.75 2.58 108.75 1.79 106.63 1.79 106.63 2.58 107.3 2.58 107.3 4.61 106.25 4.61"/>
    <polygon class="cls-4" points="103.36 4.61 103.36 5.4 106.25 5.4 106.25 4.61 105.2 4.61 105.2 2.58 105.86 2.58 105.86 1.79 103.75 1.79 103.75 2.58 104.41 2.58 104.41 4.61 103.36 4.61"/>
    <polygon class="cls-4" points="100.47 4.61 100.47 5.4 103.36 5.4 103.36 4.61 102.31 4.61 102.31 2.58 102.97 2.58 102.97 1.79 100.86 1.79 100.86 2.58 101.52 2.58 101.52 4.61 100.47 4.61"/>
    <polygon class="cls-4" points="97.58 4.61 97.58 5.4 100.47 5.4 100.47 4.61 99.42 4.61 99.42 2.58 100.08 2.58 100.08 1.79 97.97 1.79 97.97 2.58 98.63 2.58 98.63 4.61 97.58 4.61"/>
    <polygon class="cls-4" points="94.69 4.61 94.69 5.4 97.58 5.4 97.58 4.61 96.53 4.61 96.53 2.58 97.19 2.58 97.19 1.79 95.08 1.79 95.08 2.58 95.74 2.58 95.74 4.61 94.69 4.61"/>
    <polygon class="cls-4" points="91.81 4.61 91.81 5.4 94.69 5.4 94.69 4.61 93.64 4.61 93.64 2.58 94.3 2.58 94.3 1.79 92.19 1.79 92.19 2.58 92.85 2.58 92.85 4.61 91.81 4.61"/>
    <polygon class="cls-4" points="88.92 4.61 88.92 5.4 91.81 5.4 91.81 4.61 90.75 4.61 90.75 2.58 91.41 2.58 91.41 1.79 89.3 1.79 89.3 2.58 89.96 2.58 89.96 4.61 88.92 4.61"/>
    <polygon class="cls-4" points="86.03 4.61 86.03 5.4 88.92 5.4 88.92 4.61 87.86 4.61 87.86 2.58 88.52 2.58 88.52 1.79 86.41 1.79 86.41 2.58 87.07 2.58 87.07 4.61 86.03 4.61"/>
    <polygon class="cls-4" points="83.14 4.61 83.14 5.4 86.03 5.4 86.03 4.61 84.97 4.61 84.97 2.58 85.64 2.58 85.64 1.79 83.52 1.79 83.52 2.58 84.18 2.58 84.18 4.61 83.14 4.61"/>
    <polygon class="cls-4" points="80.25 4.61 80.25 5.4 83.14 5.4 83.14 4.61 82.09 4.61 82.09 2.58 82.75 2.58 82.75 1.79 80.63 1.79 80.63 2.58 81.3 2.58 81.3 4.61 80.25 4.61"/>
    <polygon class="cls-4" points="77.36 4.61 77.36 5.4 80.25 5.4 80.25 4.61 79.2 4.61 79.2 2.58 79.86 2.58 79.86 1.79 77.75 1.79 77.75 2.58 78.41 2.58 78.41 4.61 77.36 4.61"/>
    <polygon class="cls-4" points="74.47 4.61 74.47 5.4 77.36 5.4 77.36 4.61 76.31 4.61 76.31 2.58 76.97 2.58 76.97 1.79 74.86 1.79 74.86 2.58 75.52 2.58 75.52 4.61 74.47 4.61"/>
    <polygon class="cls-4" points="71.58 4.61 71.58 5.4 74.47 5.4 74.47 4.61 73.42 4.61 73.42 2.58 74.08 2.58 74.08 1.79 71.97 1.79 71.97 2.58 72.63 2.58 72.63 4.61 71.58 4.61"/>
    <polygon class="cls-4" points="68.7 4.61 68.7 5.4 71.58 5.4 71.58 4.61 70.53 4.61 70.53 2.58 71.19 2.58 71.19 1.79 69.08 1.79 69.08 2.58 69.74 2.58 69.74 4.61 68.7 4.61"/>
    <polygon class="cls-4" points="65.81 4.61 65.81 5.4 68.7 5.4 68.7 4.61 67.64 4.61 67.64 2.58 68.3 2.58 68.3 1.79 66.19 1.79 66.19 2.58 66.85 2.58 66.85 4.61 65.81 4.61"/>
    <polygon class="cls-4" points="62.92 4.61 62.92 5.4 65.81 5.4 65.81 4.61 64.75 4.61 64.75 2.58 65.41 2.58 65.41 1.79 63.3 1.79 63.3 2.58 63.96 2.58 63.96 4.61 62.92 4.61"/>
    <polygon class="cls-4" points="60.03 4.61 60.03 5.4 62.92 5.4 62.92 4.61 61.86 4.61 61.86 2.58 62.53 2.58 62.53 1.79 60.41 1.79 60.41 2.58 61.07 2.58 61.07 4.61 60.03 4.61"/>
    <polygon class="cls-4" points="57.14 4.61 57.14 5.4 60.03 5.4 60.03 4.61 58.98 4.61 58.98 2.58 59.64 2.58 59.64 1.79 57.52 1.79 57.52 2.58 58.19 2.58 58.19 4.61 57.14 4.61"/>
    <polygon class="cls-4" points="54.25 4.61 54.25 5.4 57.14 5.4 57.14 4.61 56.09 4.61 56.09 2.58 56.75 2.58 56.75 1.79 54.64 1.79 54.64 2.58 55.3 2.58 55.3 4.61 54.25 4.61"/>
    <polygon class="cls-4" points="51.36 4.61 51.36 5.4 54.25 5.4 54.25 4.61 53.2 4.61 53.2 2.58 53.86 2.58 53.86 1.79 51.75 1.79 51.75 2.58 52.41 2.58 52.41 4.61 51.36 4.61"/>
    <polygon class="cls-4" points="48.47 4.61 48.47 5.4 51.36 5.4 51.36 4.61 50.31 4.61 50.31 2.58 50.97 2.58 50.97 1.79 48.86 1.79 48.86 2.58 49.52 2.58 49.52 4.61 48.47 4.61"/>
    <polygon class="cls-4" points="45.59 4.61 45.59 5.4 48.47 5.4 48.47 4.61 47.42 4.61 47.42 2.58 48.08 2.58 48.08 1.79 45.97 1.79 45.97 2.58 46.63 2.58 46.63 4.61 45.59 4.61"/>
    <polygon class="cls-4" points="42.7 4.61 42.7 5.4 45.59 5.4 45.59 4.61 44.53 4.61 44.53 2.58 45.19 2.58 45.19 1.79 43.08 1.79 43.08 2.58 43.74 2.58 43.74 4.61 42.7 4.61"/>
    <polygon class="cls-4" points="39.81 4.61 39.81 5.4 42.7 5.4 42.7 4.61 41.64 4.61 41.64 2.58 42.3 2.58 42.3 1.79 40.19 1.79 40.19 2.58 40.85 2.58 40.85 4.61 39.81 4.61"/>
    <polygon class="cls-4" points="36.92 4.61 36.92 5.4 39.81 5.4 39.81 4.61 38.75 4.61 38.75 2.58 39.42 2.58 39.42 1.79 37.3 1.79 37.3 2.58 37.96 2.58 37.96 4.61 36.92 4.61"/>
    <polygon class="cls-4" points="34.03 4.61 34.03 5.4 36.92 5.4 36.92 4.61 35.87 4.61 35.87 2.58 36.53 2.58 36.53 1.79 34.41 1.79 34.41 2.58 35.08 2.58 35.08 4.61 34.03 4.61"/>
    <polygon class="cls-4" points="31.14 4.61 31.14 5.4 34.03 5.4 34.03 4.61 32.98 4.61 32.98 2.58 33.64 2.58 33.64 1.79 31.53 1.79 31.53 2.58 32.19 2.58 32.19 4.61 31.14 4.61"/>
    <polygon class="cls-4" points="28.25 4.61 28.25 5.4 31.14 5.4 31.14 4.61 30.09 4.61 30.09 2.58 30.75 2.58 30.75 1.79 28.64 1.79 28.64 2.58 29.3 2.58 29.3 4.61 28.25 4.61"/>
    <polygon class="cls-4" points="25.36 4.61 25.36 5.4 28.25 5.4 28.25 4.61 27.2 4.61 27.2 2.58 27.86 2.58 27.86 1.79 25.75 1.79 25.75 2.58 26.41 2.58 26.41 4.61 25.36 4.61"/>
    <polygon class="cls-4" points="22.48 4.61 22.48 5.4 25.36 5.4 25.36 4.61 24.31 4.61 24.31 2.58 24.97 2.58 24.97 1.79 22.86 1.79 22.86 2.58 23.52 2.58 23.52 4.61 22.48 4.61"/>
    <polygon class="cls-4" points="19.59 4.61 19.59 5.4 22.48 5.4 22.48 4.61 21.42 4.61 21.42 2.58 22.08 2.58 22.08 1.79 19.97 1.79 19.97 2.58 20.63 2.58 20.63 4.61 19.59 4.61"/>
    <polygon class="cls-4" points="16.7 4.61 16.7 5.4 19.59 5.4 19.59 4.61 18.53 4.61 18.53 2.58 19.19 2.58 19.19 1.79 17.08 1.79 17.08 2.58 17.74 2.58 17.74 4.61 16.7 4.61"/>
    <polygon class="cls-4" points="13.81 4.61 13.81 5.4 16.7 5.4 16.7 4.61 15.64 4.61 15.64 2.58 16.31 2.58 16.31 1.79 14.19 1.79 14.19 2.58 14.85 2.58 14.85 4.61 13.81 4.61"/>
    <polygon class="cls-4" points="10.92 4.61 10.92 5.4 13.81 5.4 13.81 4.61 12.76 4.61 12.76 2.58 13.42 2.58 13.42 1.79 11.3 1.79 11.3 2.58 11.97 2.58 11.97 4.61 10.92 4.61"/>
    <polygon class="cls-4" points="8.03 4.61 8.03 5.4 10.92 5.4 10.92 4.61 9.87 4.61 9.87 2.58 10.53 2.58 10.53 1.79 8.42 1.79 8.42 2.58 9.08 2.58 9.08 4.61 8.03 4.61"/>
    <polygon class="cls-4" points="5.14 4.61 5.14 5.4 8.03 5.4 8.03 4.61 6.98 4.61 6.98 2.58 7.64 2.58 7.64 1.79 5.53 1.79 5.53 2.58 6.19 2.58 6.19 4.61 5.14 4.61"/>
    <polygon class="cls-4" points="4.35 8.18 5.14 8.18 5.14 5.4 4.35 5.4 4.35 6.41 2.32 6.41 2.32 5.78 1.53 5.78 1.53 7.81 2.32 7.81 2.32 7.17 4.35 7.17 4.35 8.18"/>
    <polygon class="cls-4" points="4.35 10.95 5.14 10.95 5.14 8.18 4.35 8.18 4.35 9.19 2.32 9.19 2.32 8.55 1.53 8.55 1.53 10.58 2.32 10.58 2.32 9.95 4.35 9.95 4.35 10.95"/>
    <polygon class="cls-4" points="4.35 13.72 5.14 13.72 5.14 10.95 4.35 10.95 4.35 11.96 2.32 11.96 2.32 11.33 1.53 11.33 1.53 13.35 2.32 13.35 2.32 12.72 4.35 12.72 4.35 13.72"/>
    <polygon class="cls-4" points="4.35 16.5 5.14 16.5 5.14 13.72 4.35 13.72 4.35 14.73 2.32 14.73 2.32 14.1 1.53 14.1 1.53 16.13 2.32 16.13 2.32 15.49 4.35 15.49 4.35 16.5"/>
    <polygon class="cls-4" points="4.35 19.27 5.14 19.27 5.14 16.5 4.35 16.5 4.35 17.51 2.32 17.51 2.32 16.87 1.53 16.87 1.53 18.9 2.32 18.9 2.32 18.27 4.35 18.27 4.35 19.27"/>
    <polygon class="cls-4" points="4.35 22.04 5.14 22.04 5.14 19.27 4.35 19.27 4.35 20.28 2.32 20.28 2.32 19.65 1.53 19.65 1.53 21.67 2.32 21.67 2.32 21.04 4.35 21.04 4.35 22.04"/>
    <polygon class="cls-4" points="4.35 24.82 5.14 24.82 5.14 22.04 4.35 22.04 4.35 23.05 2.32 23.05 2.32 22.42 1.53 22.42 1.53 24.45 2.32 24.45 2.32 23.81 4.35 23.81 4.35 24.82"/>
    <polygon class="cls-4" points="4.35 27.59 5.14 27.59 5.14 24.82 4.35 24.82 4.35 25.83 2.32 25.83 2.32 25.19 1.53 25.19 1.53 27.22 2.32 27.22 2.32 26.59 4.35 26.59 4.35 27.59"/>
    <polygon class="cls-4" points="4.35 30.36 5.14 30.36 5.14 27.59 4.35 27.59 4.35 28.6 2.32 28.6 2.32 27.97 1.53 27.97 1.53 29.99 2.32 29.99 2.32 29.36 4.35 29.36 4.35 30.36"/>
    <polygon class="cls-4" points="4.35 33.14 5.14 33.14 5.14 30.36 4.35 30.36 4.35 31.37 2.32 31.37 2.32 30.74 1.53 30.74 1.53 32.77 2.32 32.77 2.32 32.13 4.35 32.13 4.35 33.14"/>
    <polygon class="cls-4" points="4.35 35.91 5.14 35.91 5.14 33.14 4.35 33.14 4.35 34.15 2.32 34.15 2.32 33.51 1.53 33.51 1.53 35.54 2.32 35.54 2.32 34.91 4.35 34.91 4.35 35.91"/>
    <polygon class="cls-4" points="4.35 38.68 5.14 38.68 5.14 35.91 4.35 35.91 4.35 36.92 2.32 36.92 2.32 36.29 1.53 36.29 1.53 38.31 2.32 38.31 2.32 37.68 4.35 37.68 4.35 38.68"/>
    <g class="cls-8">
      <polygon class="cls-4" points="459.49 53.23 459.51 52.44 455.79 52.33 455.77 53.12 457.13 53.16 457.06 55.19 456.21 55.17 456.19 55.96 458.91 56.04 458.93 55.25 458.08 55.22 458.14 53.19 459.49 53.23"/>
    </g>
    <g class="cls-6">
      <polygon class="cls-4" points="456.58 52.33 455.79 52.33 455.79 56.05 456.58 56.05 456.58 54.7 458.61 54.7 458.61 55.55 459.4 55.55 459.4 52.83 458.61 52.83 458.61 53.68 456.58 53.68 456.58 52.33"/>
    </g>
    <g class="cls-1">
      <polygon class="cls-4" points="456.58 1.79 455.79 1.79 455.79 5.4 456.58 5.4 456.58 4.09 458.61 4.09 458.61 4.91 459.4 4.91 459.4 2.27 458.61 2.27 458.61 3.1 456.58 3.1 456.58 1.79"/>
    </g>
    <g class="cls-9">
      <polygon class="cls-4" points="455.79 4.61 455.79 5.4 459.4 5.4 459.4 4.61 458.09 4.61 458.09 2.58 458.91 2.58 458.91 1.79 456.27 1.79 456.27 2.58 457.1 2.58 457.1 4.61 455.79 4.61"/>
    </g>
    <g class="cls-7">
      <polygon class="cls-4" points="1.53 4.61 1.53 5.4 5.14 5.4 5.14 4.61 3.83 4.61 3.83 2.58 4.65 2.58 4.65 1.79 2.01 1.79 2.01 2.58 2.84 2.58 2.84 4.61 1.53 4.61"/>
    </g>
    <g class="cls-10">
      <polygon class="cls-4" points="4.35 5.4 5.14 5.4 5.14 1.79 4.35 1.79 4.35 3.11 2.32 3.11 2.32 2.28 1.53 2.28 1.53 4.92 2.32 4.92 2.32 4.1 4.35 4.1 4.35 5.4"/>
    </g>
    <g class="cls-2">
      <polygon class="cls-4" points="4.35 42.19 5.14 42.19 5.14 38.68 4.35 38.68 4.35 39.96 2.32 39.96 2.32 39.16 1.53 39.16 1.53 41.72 2.32 41.72 2.32 40.92 4.35 40.92 4.35 42.19"/>
    </g>
    <g class="cls-5">
      <polygon class="cls-4" points="5.12 39.47 5.14 38.68 1.64 38.58 1.62 39.37 2.89 39.4 2.83 41.44 2.03 41.41 2.01 42.2 4.57 42.28 4.59 41.49 3.79 41.46 3.85 39.43 5.12 39.47"/>
    </g>
  </g>
</svg>