<?xml version="1.0" encoding="UTF-8"?>
<svg id="En_laptop_second_divider" data-name="En laptop second divider" xmlns="http://www.w3.org/2000/svg" version="1.1" xmlns:xlink="http://www.w3.org/1999/xlink" viewBox="0 0 459.67 134.37">
  <defs>
    <style>
      .cls-1 {
        clip-path: url(#clippath-2);
      }

      .cls-2 {
        clip-path: url(#clippath-6);
      }

      .cls-3 {
        fill: none;
      }

      .cls-3, .cls-4 {
        stroke-width: 0px;
      }

      .cls-5 {
        clip-path: url(#clippath-7);
      }

      .cls-6 {
        clip-path: url(#clippath-1);
      }

      .cls-7 {
        clip-path: url(#clippath-4);
      }

      .cls-4 {
        fill: #fed700;
      }

      .cls-8 {
        clip-path: url(#clippath);
      }

      .cls-9 {
        clip-path: url(#clippath-3);
      }

      .cls-10 {
        clip-path: url(#clippath-5);
      }
    </style>
    <clipPath id="clippath">
      <polygon class="cls-3" points="454.57 130.16 458.18 134.16 454.21 133.75 454.57 130.16"/>
    </clipPath>
    <clipPath id="clippath-1">
      <polygon class="cls-3" points="454.57 130.16 458.18 134.16 458.18 130.16 454.57 130.16"/>
    </clipPath>
    <clipPath id="clippath-2">
      <polygon class="cls-3" points="454.57 3.88 458.18 .27 458.18 3.88 454.57 3.88"/>
    </clipPath>
    <clipPath id="clippath-3">
      <polygon class="cls-3" points="454.57 3.88 458.18 .27 454.57 .27 454.57 3.88"/>
    </clipPath>
    <clipPath id="clippath-4">
      <polygon class="cls-3" points="5.11 3.88 1.5 .27 5.11 .27 5.11 3.88"/>
    </clipPath>
    <clipPath id="clippath-5">
      <polygon class="cls-3" points="5.11 3.88 1.5 .27 1.5 3.88 5.11 3.88"/>
    </clipPath>
    <clipPath id="clippath-6">
      <polygon class="cls-3" points="5.11 84.7 1.5 87.96 1.5 84.7 5.11 84.7"/>
    </clipPath>
    <clipPath id="clippath-7">
      <polygon class="cls-3" points="5.11 84.7 1.5 87.96 4.75 88.29 5.11 84.7"/>
    </clipPath>
  </defs>
  <polygon class="cls-4" points="3.3 2.07 3.3 86.33 456.38 132.16 456.38 2.07 3.3 2.07"/>
  <g>
    <polygon class="cls-4" points="7.89 85.77 7.97 84.99 5.11 84.7 5.03 85.48 6.07 85.59 5.87 87.61 5.22 87.54 5.14 88.33 7.23 88.54 7.31 87.75 6.65 87.69 6.86 85.67 7.89 85.77"/>
    <polygon class="cls-4" points="10.76 86.06 10.84 85.28 7.97 84.99 7.89 85.77 8.94 85.88 8.73 87.9 8.08 87.83 8 88.62 10.09 88.83 10.17 88.04 9.52 87.98 9.72 85.96 10.76 86.06"/>
    <polygon class="cls-4" points="13.62 86.35 13.7 85.56 10.84 85.28 10.76 86.06 11.8 86.17 11.6 88.19 10.94 88.12 10.86 88.91 12.95 89.12 13.03 88.33 12.38 88.27 12.58 86.25 13.62 86.35"/>
    <polygon class="cls-4" points="16.48 86.64 16.56 85.85 13.7 85.56 13.62 86.35 14.66 86.46 14.46 88.48 13.8 88.41 13.72 89.2 15.82 89.41 15.9 88.62 15.24 88.56 15.45 86.54 16.48 86.64"/>
    <polygon class="cls-4" points="19.34 86.93 19.42 86.14 16.56 85.85 16.48 86.64 17.53 86.75 17.32 88.77 16.67 88.7 16.59 89.49 18.68 89.7 18.76 88.91 18.1 88.85 18.31 86.82 19.34 86.93"/>
    <polygon class="cls-4" points="22.21 87.22 22.29 86.43 19.42 86.14 19.34 86.93 20.39 87.04 20.18 89.06 19.53 88.99 19.45 89.78 21.54 89.99 21.62 89.2 20.97 89.14 21.17 87.11 22.21 87.22"/>
    <polygon class="cls-4" points="25.07 87.51 25.15 86.72 22.29 86.43 22.21 87.22 23.25 87.32 23.05 89.35 22.39 89.28 22.31 90.07 24.41 90.28 24.49 89.49 23.83 89.43 24.03 87.4 25.07 87.51"/>
    <polygon class="cls-4" points="27.93 87.8 28.01 87.01 25.15 86.72 25.07 87.51 26.11 87.61 25.91 89.64 25.25 89.57 25.18 90.36 27.27 90.57 27.35 89.78 26.69 89.72 26.9 87.69 27.93 87.8"/>
    <polygon class="cls-4" points="30.8 88.09 30.88 87.3 28.01 87.01 27.93 87.8 28.98 87.9 28.77 89.93 28.12 89.86 28.04 90.64 30.13 90.86 30.21 90.07 29.56 90 29.76 87.98 30.8 88.09"/>
    <polygon class="cls-4" points="33.66 88.38 33.74 87.59 30.88 87.3 30.8 88.09 31.84 88.19 31.64 90.22 30.98 90.15 30.9 90.93 32.99 91.15 33.07 90.36 32.42 90.29 32.62 88.27 33.66 88.38"/>
    <polygon class="cls-4" points="36.52 88.67 36.6 87.88 33.74 87.59 33.66 88.38 34.7 88.48 34.5 90.5 33.84 90.44 33.76 91.22 35.86 91.44 35.94 90.65 35.28 90.58 35.49 88.56 36.52 88.67"/>
    <polygon class="cls-4" points="39.38 88.96 39.46 88.17 36.6 87.88 36.52 88.67 37.57 88.77 37.36 90.79 36.71 90.73 36.63 91.51 38.72 91.73 38.8 90.94 38.14 90.87 38.35 88.85 39.38 88.96"/>
    <polygon class="cls-4" points="42.25 89.25 42.33 88.46 39.46 88.17 39.38 88.96 40.43 89.06 40.22 91.08 39.57 91.02 39.49 91.8 41.58 92.01 41.66 91.23 41.01 91.16 41.21 89.14 42.25 89.25"/>
    <polygon class="cls-4" points="45.11 89.54 45.19 88.75 42.33 88.46 42.25 89.25 43.29 89.35 43.09 91.37 42.43 91.31 42.35 92.09 44.45 92.3 44.53 91.52 43.87 91.45 44.07 89.43 45.11 89.54"/>
    <polygon class="cls-4" points="47.97 89.83 48.05 89.04 45.19 88.75 45.11 89.54 46.15 89.64 45.95 91.66 45.29 91.6 45.21 92.38 47.31 92.59 47.39 91.81 46.73 91.74 46.94 89.72 47.97 89.83"/>
    <polygon class="cls-4" points="50.84 90.11 50.92 89.33 48.05 89.04 47.97 89.83 49.02 89.93 48.81 91.95 48.16 91.89 48.08 92.67 50.17 92.88 50.25 92.1 49.6 92.03 49.8 90.01 50.84 90.11"/>
    <polygon class="cls-4" points="53.7 90.4 53.78 89.62 50.92 89.33 50.84 90.11 51.88 90.22 51.68 92.24 51.02 92.18 50.94 92.96 53.03 93.17 53.11 92.39 52.46 92.32 52.66 90.3 53.7 90.4"/>
    <polygon class="cls-4" points="56.56 90.69 56.64 89.91 53.78 89.62 53.7 90.4 54.74 90.51 54.54 92.53 53.88 92.47 53.8 93.25 55.9 93.46 55.98 92.68 55.32 92.61 55.53 90.59 56.56 90.69"/>
    <polygon class="cls-4" points="59.42 90.98 59.5 90.2 56.64 89.91 56.56 90.69 57.61 90.8 57.4 92.82 56.75 92.75 56.67 93.54 58.76 93.75 58.84 92.97 58.18 92.9 58.39 90.88 59.42 90.98"/>
    <polygon class="cls-4" points="62.29 91.27 62.37 90.49 59.5 90.2 59.42 90.98 60.47 91.09 60.26 93.11 59.61 93.04 59.53 93.83 61.62 94.04 61.7 93.26 61.05 93.19 61.25 91.17 62.29 91.27"/>
    <polygon class="cls-4" points="65.15 91.56 65.23 90.78 62.37 90.49 62.29 91.27 63.33 91.38 63.13 93.4 62.47 93.33 62.39 94.12 64.49 94.33 64.56 93.55 63.91 93.48 64.11 91.46 65.15 91.56"/>
    <polygon class="cls-4" points="68.01 91.85 68.09 91.07 65.23 90.78 65.15 91.56 66.19 91.67 65.99 93.69 65.33 93.62 65.25 94.41 67.35 94.62 67.43 93.84 66.77 93.77 66.98 91.75 68.01 91.85"/>
    <polygon class="cls-4" points="70.88 92.14 70.95 91.36 68.09 91.07 68.01 91.85 69.06 91.96 68.85 93.98 68.2 93.91 68.12 94.7 70.21 94.91 70.29 94.13 69.64 94.06 69.84 92.04 70.88 92.14"/>
    <polygon class="cls-4" points="73.74 92.43 73.82 91.65 70.95 91.36 70.88 92.14 71.92 92.25 71.71 94.27 71.06 94.2 70.98 94.99 73.07 95.2 73.15 94.41 72.5 94.35 72.7 92.33 73.74 92.43"/>
    <polygon class="cls-4" points="76.6 92.72 76.68 91.94 73.82 91.65 73.74 92.43 74.78 92.54 74.58 94.56 73.92 94.49 73.84 95.28 75.94 95.49 76.02 94.7 75.36 94.64 75.57 92.62 76.6 92.72"/>
    <polygon class="cls-4" points="79.46 93.01 79.54 92.23 76.68 91.94 76.6 92.72 77.65 92.83 77.44 94.85 76.79 94.78 76.71 95.57 78.8 95.78 78.88 94.99 78.22 94.93 78.43 92.91 79.46 93.01"/>
    <polygon class="cls-4" points="82.33 93.3 82.41 92.51 79.54 92.23 79.46 93.01 80.51 93.12 80.3 95.14 79.65 95.07 79.57 95.86 81.66 96.07 81.74 95.28 81.09 95.22 81.29 93.2 82.33 93.3"/>
    <polygon class="cls-4" points="85.19 93.59 85.27 92.8 82.41 92.51 82.33 93.3 83.37 93.41 83.17 95.43 82.51 95.36 82.43 96.15 84.53 96.36 84.6 95.57 83.95 95.51 84.15 93.49 85.19 93.59"/>
    <polygon class="cls-4" points="88.05 93.88 88.13 93.09 85.27 92.8 85.19 93.59 86.23 93.7 86.03 95.72 85.37 95.65 85.29 96.44 87.39 96.65 87.47 95.86 86.81 95.8 87.02 93.77 88.05 93.88"/>
    <polygon class="cls-4" points="90.92 94.17 90.99 93.38 88.13 93.09 88.05 93.88 89.1 93.98 88.89 96.01 88.24 95.94 88.16 96.73 90.25 96.94 90.33 96.15 89.67 96.09 89.88 94.06 90.92 94.17"/>
    <polygon class="cls-4" points="93.78 94.46 93.86 93.67 90.99 93.38 90.92 94.17 91.96 94.27 91.75 96.3 91.1 96.23 91.02 97.02 93.11 97.23 93.19 96.44 92.54 96.38 92.74 94.35 93.78 94.46"/>
    <polygon class="cls-4" points="96.64 94.75 96.72 93.96 93.86 93.67 93.78 94.46 94.82 94.56 94.62 96.59 93.96 96.52 93.88 97.31 95.98 97.52 96.06 96.73 95.4 96.67 95.61 94.64 96.64 94.75"/>
    <polygon class="cls-4" points="99.5 95.04 99.58 94.25 96.72 93.96 96.64 94.75 97.68 94.85 97.48 96.88 96.82 96.81 96.75 97.59 98.84 97.81 98.92 97.02 98.26 96.95 98.47 94.93 99.5 95.04"/>
    <polygon class="cls-4" points="102.37 95.33 102.45 94.54 99.58 94.25 99.5 95.04 100.55 95.14 100.34 97.17 99.69 97.1 99.61 97.88 101.7 98.1 101.78 97.31 101.13 97.24 101.33 95.22 102.37 95.33"/>
    <polygon class="cls-4" points="105.23 95.62 105.31 94.83 102.45 94.54 102.37 95.33 103.41 95.43 103.21 97.45 102.55 97.39 102.47 98.17 104.56 98.39 104.64 97.6 103.99 97.53 104.19 95.51 105.23 95.62"/>
    <polygon class="cls-4" points="108.09 95.91 108.17 95.12 105.31 94.83 105.23 95.62 106.27 95.72 106.07 97.74 105.41 97.68 105.33 98.46 107.43 98.68 107.51 97.89 106.85 97.82 107.06 95.8 108.09 95.91"/>
    <polygon class="cls-4" points="110.95 96.2 111.03 95.41 108.17 95.12 108.09 95.91 109.14 96.01 108.93 98.03 108.28 97.97 108.2 98.75 110.29 98.96 110.37 98.18 109.71 98.11 109.92 96.09 110.95 96.2"/>
    <polygon class="cls-4" points="113.82 96.49 113.9 95.7 111.03 95.41 110.95 96.2 112 96.3 111.79 98.32 111.14 98.26 111.06 99.04 113.15 99.25 113.23 98.47 112.58 98.4 112.78 96.38 113.82 96.49"/>
    <polygon class="cls-4" points="116.68 96.78 116.76 95.99 113.9 95.7 113.82 96.49 114.86 96.59 114.66 98.61 114 98.55 113.92 99.33 116.02 99.54 116.1 98.76 115.44 98.69 115.64 96.67 116.68 96.78"/>
    <polygon class="cls-4" points="119.54 97.06 119.62 96.28 116.76 95.99 116.68 96.78 117.72 96.88 117.52 98.9 116.86 98.84 116.79 99.62 118.88 99.83 118.96 99.05 118.3 98.98 118.51 96.96 119.54 97.06"/>
    <polygon class="cls-4" points="122.41 97.35 122.49 96.57 119.62 96.28 119.54 97.06 120.59 97.17 120.38 99.19 119.73 99.13 119.65 99.91 121.74 100.12 121.82 99.34 121.17 99.27 121.37 97.25 122.41 97.35"/>
    <polygon class="cls-4" points="125.27 97.64 125.35 96.86 122.49 96.57 122.41 97.35 123.45 97.46 123.25 99.48 122.59 99.42 122.51 100.2 124.6 100.41 124.68 99.63 124.03 99.56 124.23 97.54 125.27 97.64"/>
    <polygon class="cls-4" points="128.13 97.93 128.21 97.15 125.35 96.86 125.27 97.64 126.31 97.75 126.11 99.77 125.45 99.7 125.37 100.49 127.47 100.7 127.55 99.92 126.89 99.85 127.1 97.83 128.13 97.93"/>
    <polygon class="cls-4" points="130.99 98.22 131.07 97.44 128.21 97.15 128.13 97.93 129.18 98.04 128.97 100.06 128.32 99.99 128.24 100.78 130.33 100.99 130.41 100.21 129.75 100.14 129.96 98.12 130.99 98.22"/>
    <polygon class="cls-4" points="133.86 98.51 133.94 97.73 131.07 97.44 130.99 98.22 132.04 98.33 131.83 100.35 131.18 100.28 131.1 101.07 133.19 101.28 133.27 100.5 132.62 100.43 132.82 98.41 133.86 98.51"/>
    <polygon class="cls-4" points="136.72 98.8 136.8 98.02 133.94 97.73 133.86 98.51 134.9 98.62 134.7 100.64 134.04 100.57 133.96 101.36 136.06 101.57 136.14 100.79 135.48 100.72 135.68 98.7 136.72 98.8"/>
    <polygon class="cls-4" points="139.58 99.09 139.66 98.31 136.8 98.02 136.72 98.8 137.76 98.91 137.56 100.93 136.9 100.86 136.82 101.65 138.92 101.86 139 101.08 138.34 101.01 138.55 98.99 139.58 99.09"/>
    <polygon class="cls-4" points="142.45 99.38 142.53 98.6 139.66 98.31 139.58 99.09 140.63 99.2 140.42 101.22 139.77 101.15 139.69 101.94 141.78 102.15 141.86 101.36 141.21 101.3 141.41 99.28 142.45 99.38"/>
    <polygon class="cls-4" points="145.31 99.67 145.39 98.89 142.53 98.6 142.45 99.38 143.49 99.49 143.29 101.51 142.63 101.44 142.55 102.23 144.64 102.44 144.72 101.65 144.07 101.59 144.27 99.57 145.31 99.67"/>
    <polygon class="cls-4" points="148.17 99.96 148.25 99.18 145.39 98.89 145.31 99.67 146.35 99.78 146.15 101.8 145.49 101.73 145.41 102.52 147.51 102.73 147.59 101.94 146.93 101.88 147.14 99.86 148.17 99.96"/>
    <polygon class="cls-4" points="151.03 100.25 151.11 99.46 148.25 99.18 148.17 99.96 149.22 100.07 149.01 102.09 148.36 102.02 148.28 102.81 150.37 103.02 150.45 102.23 149.79 102.17 150 100.15 151.03 100.25"/>
    <polygon class="cls-4" points="153.9 100.54 153.98 99.75 151.11 99.46 151.03 100.25 152.08 100.36 151.87 102.38 151.22 102.31 151.14 103.1 153.23 103.31 153.31 102.52 152.66 102.46 152.86 100.44 153.9 100.54"/>
    <polygon class="cls-4" points="156.76 100.83 156.84 100.04 153.98 99.75 153.9 100.54 154.94 100.65 154.74 102.67 154.08 102.6 154 103.39 156.1 103.6 156.17 102.81 155.52 102.75 155.72 100.72 156.76 100.83"/>
    <polygon class="cls-4" points="159.62 101.12 159.7 100.33 156.84 100.04 156.76 100.83 157.8 100.93 157.6 102.96 156.94 102.89 156.86 103.68 158.96 103.89 159.04 103.1 158.38 103.04 158.59 101.01 159.62 101.12"/>
    <polygon class="cls-4" points="162.49 101.41 162.56 100.62 159.7 100.33 159.62 101.12 160.67 101.22 160.46 103.25 159.81 103.18 159.73 103.97 161.82 104.18 161.9 103.39 161.25 103.33 161.45 101.3 162.49 101.41"/>
    <polygon class="cls-4" points="165.35 101.7 165.43 100.91 162.56 100.62 162.49 101.41 163.53 101.51 163.32 103.54 162.67 103.47 162.59 104.26 164.68 104.47 164.76 103.68 164.11 103.62 164.31 101.59 165.35 101.7"/>
    <polygon class="cls-4" points="168.21 101.99 168.29 101.2 165.43 100.91 165.35 101.7 166.39 101.8 166.19 103.83 165.53 103.76 165.45 104.54 167.55 104.76 167.63 103.97 166.97 103.9 167.18 101.88 168.21 101.99"/>
    <polygon class="cls-4" points="171.07 102.28 171.15 101.49 168.29 101.2 168.21 101.99 169.25 102.09 169.05 104.11 168.4 104.05 168.32 104.83 170.41 105.05 170.49 104.26 169.83 104.19 170.04 102.17 171.07 102.28"/>
    <polygon class="cls-4" points="173.94 102.57 174.02 101.78 171.15 101.49 171.07 102.28 172.12 102.38 171.91 104.4 171.26 104.34 171.18 105.12 173.27 105.34 173.35 104.55 172.7 104.48 172.9 102.46 173.94 102.57"/>
    <polygon class="cls-4" points="176.8 102.86 176.88 102.07 174.02 101.78 173.94 102.57 174.98 102.67 174.78 104.69 174.12 104.63 174.04 105.41 176.13 105.63 176.21 104.84 175.56 104.77 175.76 102.75 176.8 102.86"/>
    <polygon class="cls-4" points="179.66 103.15 179.74 102.36 176.88 102.07 176.8 102.86 177.84 102.96 177.64 104.98 176.98 104.92 176.9 105.7 179 105.91 179.08 105.13 178.42 105.06 178.63 103.04 179.66 103.15"/>
    <polygon class="cls-4" points="182.53 103.44 182.6 102.65 179.74 102.36 179.66 103.15 180.71 103.25 180.5 105.27 179.85 105.21 179.77 105.99 181.86 106.2 181.94 105.42 181.28 105.35 181.49 103.33 182.53 103.44"/>
    <polygon class="cls-4" points="185.39 103.73 185.47 102.94 182.6 102.65 182.53 103.44 183.57 103.54 183.36 105.56 182.71 105.5 182.63 106.28 184.72 106.49 184.8 105.71 184.15 105.64 184.35 103.62 185.39 103.73"/>
    <polygon class="cls-4" points="188.25 104.01 188.33 103.23 185.47 102.94 185.39 103.73 186.43 103.83 186.23 105.85 185.57 105.79 185.49 106.57 187.59 106.78 187.67 106 187.01 105.93 187.22 103.91 188.25 104.01"/>
    <polygon class="cls-4" points="191.11 104.3 191.19 103.52 188.33 103.23 188.25 104.01 189.29 104.12 189.09 106.14 188.43 106.08 188.36 106.86 190.45 107.07 190.53 106.29 189.87 106.22 190.08 104.2 191.11 104.3"/>
    <polygon class="cls-4" points="193.98 104.59 194.06 103.81 191.19 103.52 191.11 104.3 192.16 104.41 191.95 106.43 191.3 106.37 191.22 107.15 193.31 107.36 193.39 106.58 192.74 106.51 192.94 104.49 193.98 104.59"/>
    <polygon class="cls-4" points="196.84 104.88 196.92 104.1 194.06 103.81 193.98 104.59 195.02 104.7 194.82 106.72 194.16 106.65 194.08 107.44 196.17 107.65 196.25 106.87 195.6 106.8 195.8 104.78 196.84 104.88"/>
    <polygon class="cls-4" points="199.7 105.17 199.78 104.39 196.92 104.1 196.84 104.88 197.88 104.99 197.68 107.01 197.02 106.94 196.94 107.73 199.04 107.94 199.12 107.16 198.46 107.09 198.67 105.07 199.7 105.17"/>
    <polygon class="cls-4" points="202.56 105.46 202.64 104.68 199.78 104.39 199.7 105.17 200.75 105.28 200.54 107.3 199.89 107.23 199.81 108.02 201.9 108.23 201.98 107.45 201.32 107.38 201.53 105.36 202.56 105.46"/>
    <polygon class="cls-4" points="205.43 105.75 205.51 104.97 202.64 104.68 202.56 105.46 203.61 105.57 203.4 107.59 202.75 107.52 202.67 108.31 204.76 108.52 204.84 107.74 204.19 107.67 204.39 105.65 205.43 105.75"/>
    <polygon class="cls-4" points="208.29 106.04 208.37 105.26 205.51 104.97 205.43 105.75 206.47 105.86 206.27 107.88 205.61 107.81 205.53 108.6 207.63 108.81 207.71 108.03 207.05 107.96 207.25 105.94 208.29 106.04"/>
    <polygon class="cls-4" points="211.15 106.33 211.23 105.55 208.37 105.26 208.29 106.04 209.33 106.15 209.13 108.17 208.47 108.1 208.4 108.89 210.49 109.1 210.57 108.31 209.91 108.25 210.12 106.23 211.15 106.33"/>
    <polygon class="cls-4" points="214.02 106.62 214.1 105.84 211.23 105.55 211.15 106.33 212.2 106.44 211.99 108.46 211.34 108.39 211.26 109.18 213.35 109.39 213.43 108.6 212.78 108.54 212.98 106.52 214.02 106.62"/>
    <polygon class="cls-4" points="216.88 106.91 216.96 106.13 214.1 105.84 214.02 106.62 215.06 106.73 214.86 108.75 214.2 108.68 214.12 109.47 216.21 109.68 216.29 108.89 215.64 108.83 215.84 106.81 216.88 106.91"/>
    <polygon class="cls-4" points="219.74 107.2 219.82 106.41 216.96 106.13 216.88 106.91 217.92 107.02 217.72 109.04 217.06 108.97 216.98 109.76 219.08 109.97 219.16 109.18 218.5 109.12 218.71 107.1 219.74 107.2"/>
    <polygon class="cls-4" points="222.6 107.49 222.68 106.7 219.82 106.41 219.74 107.2 220.79 107.31 220.58 109.33 219.93 109.26 219.85 110.05 221.94 110.26 222.02 109.47 221.36 109.41 221.57 107.39 222.6 107.49"/>
    <polygon class="cls-4" points="225.47 107.78 225.55 106.99 222.68 106.7 222.6 107.49 223.65 107.6 223.44 109.62 222.79 109.55 222.71 110.34 224.8 110.55 224.88 109.76 224.23 109.7 224.43 107.67 225.47 107.78"/>
    <polygon class="cls-4" points="228.33 108.07 228.41 107.28 225.55 106.99 225.47 107.78 226.51 107.88 226.31 109.91 225.65 109.84 225.57 110.63 227.67 110.84 227.75 110.05 227.09 109.99 227.29 107.96 228.33 108.07"/>
    <polygon class="cls-4" points="231.19 108.36 231.27 107.57 228.41 107.28 228.33 108.07 229.37 108.17 229.17 110.2 228.51 110.13 228.43 110.92 230.53 111.13 230.61 110.34 229.95 110.28 230.16 108.25 231.19 108.36"/>
    <polygon class="cls-4" points="234.06 108.65 234.14 107.86 231.27 107.57 231.19 108.36 232.24 108.46 232.03 110.49 231.38 110.42 231.3 111.21 233.39 111.42 233.47 110.63 232.82 110.57 233.02 108.54 234.06 108.65"/>
    <polygon class="cls-4" points="236.92 108.94 237 108.15 234.14 107.86 234.06 108.65 235.1 108.75 234.9 110.78 234.24 110.71 234.16 111.49 236.25 111.71 236.33 110.92 235.68 110.85 235.88 108.83 236.92 108.94"/>
    <polygon class="cls-4" points="239.78 109.23 239.86 108.44 237 108.15 236.92 108.94 237.96 109.04 237.76 111.06 237.1 111 237.02 111.78 239.12 112 239.2 111.21 238.54 111.14 238.75 109.12 239.78 109.23"/>
    <polygon class="cls-4" points="242.64 109.52 242.72 108.73 239.86 108.44 239.78 109.23 240.83 109.33 240.62 111.35 239.97 111.29 239.89 112.07 241.98 112.29 242.06 111.5 241.4 111.43 241.61 109.41 242.64 109.52"/>
    <polygon class="cls-4" points="245.51 109.81 245.59 109.02 242.72 108.73 242.64 109.52 243.69 109.62 243.48 111.64 242.83 111.58 242.75 112.36 244.84 112.58 244.92 111.79 244.27 111.72 244.47 109.7 245.51 109.81"/>
    <polygon class="cls-4" points="248.37 110.1 248.45 109.31 245.59 109.02 245.51 109.81 246.55 109.91 246.35 111.93 245.69 111.87 245.61 112.65 247.71 112.86 247.78 112.08 247.13 112.01 247.33 109.99 248.37 110.1"/>
    <polygon class="cls-4" points="251.23 110.39 251.31 109.6 248.45 109.31 248.37 110.1 249.41 110.2 249.21 112.22 248.55 112.16 248.47 112.94 250.57 113.15 250.65 112.37 249.99 112.3 250.2 110.28 251.23 110.39"/>
    <polygon class="cls-4" points="254.1 110.68 254.17 109.89 251.31 109.6 251.23 110.39 252.28 110.49 252.07 112.51 251.42 112.45 251.34 113.23 253.43 113.44 253.51 112.66 252.86 112.59 253.06 110.57 254.1 110.68"/>
    <polygon class="cls-4" points="256.96 110.96 257.04 110.18 254.17 109.89 254.1 110.68 255.14 110.78 254.93 112.8 254.28 112.74 254.2 113.52 256.29 113.73 256.37 112.95 255.72 112.88 255.92 110.86 256.96 110.96"/>
    <polygon class="cls-4" points="259.82 111.25 259.9 110.47 257.04 110.18 256.96 110.96 258 111.07 257.8 113.09 257.14 113.03 257.06 113.81 259.16 114.02 259.24 113.24 258.58 113.17 258.79 111.15 259.82 111.25"/>
    <polygon class="cls-4" points="262.68 111.54 262.76 110.76 259.9 110.47 259.82 111.25 260.86 111.36 260.66 113.38 260.01 113.32 259.93 114.1 262.02 114.31 262.1 113.53 261.44 113.46 261.65 111.44 262.68 111.54"/>
    <polygon class="cls-4" points="265.55 111.83 265.63 111.05 262.76 110.76 262.68 111.54 263.73 111.65 263.52 113.67 262.87 113.6 262.79 114.39 264.88 114.6 264.96 113.82 264.31 113.75 264.51 111.73 265.55 111.83"/>
    <polygon class="cls-4" points="268.41 112.12 268.49 111.34 265.63 111.05 265.55 111.83 266.59 111.94 266.39 113.96 265.73 113.89 265.65 114.68 267.74 114.89 267.82 114.11 267.17 114.04 267.37 112.02 268.41 112.12"/>
    <polygon class="cls-4" points="271.27 112.41 271.35 111.63 268.49 111.34 268.41 112.12 269.45 112.23 269.25 114.25 268.59 114.18 268.51 114.97 270.61 115.18 270.69 114.4 270.03 114.33 270.24 112.31 271.27 112.41"/>
    <polygon class="cls-4" points="274.13 112.7 274.21 111.92 271.35 111.63 271.27 112.41 272.32 112.52 272.11 114.54 271.46 114.47 271.38 115.26 273.47 115.47 273.55 114.69 272.89 114.62 273.1 112.6 274.13 112.7"/>
    <polygon class="cls-4" points="277 112.99 277.08 112.21 274.21 111.92 274.13 112.7 275.18 112.81 274.97 114.83 274.32 114.76 274.24 115.55 276.33 115.76 276.41 114.98 275.76 114.91 275.96 112.89 277 112.99"/>
    <polygon class="cls-4" points="279.86 113.28 279.94 112.5 277.08 112.21 277 112.99 278.04 113.1 277.84 115.12 277.18 115.05 277.1 115.84 279.2 116.05 279.28 115.26 278.62 115.2 278.83 113.18 279.86 113.28"/>
    <polygon class="cls-4" points="282.72 113.57 282.8 112.79 279.94 112.5 279.86 113.28 280.9 113.39 280.7 115.41 280.04 115.34 279.97 116.13 282.06 116.34 282.14 115.55 281.48 115.49 281.69 113.47 282.72 113.57"/>
    <polygon class="cls-4" points="285.59 113.86 285.67 113.08 282.8 112.79 282.72 113.57 283.77 113.68 283.56 115.7 282.91 115.63 282.83 116.42 284.92 116.63 285 115.84 284.35 115.78 284.55 113.76 285.59 113.86"/>
    <polygon class="cls-4" points="288.45 114.15 288.53 113.36 285.67 113.08 285.59 113.86 286.63 113.97 286.43 115.99 285.77 115.92 285.69 116.71 287.78 116.92 287.86 116.13 287.21 116.07 287.41 114.05 288.45 114.15"/>
    <polygon class="cls-4" points="291.31 114.44 291.39 113.65 288.53 113.36 288.45 114.15 289.49 114.26 289.29 116.28 288.63 116.21 288.55 117 290.65 117.21 290.73 116.42 290.07 116.36 290.28 114.34 291.31 114.44"/>
    <polygon class="cls-4" points="294.17 114.73 294.25 113.94 291.39 113.65 291.31 114.44 292.36 114.55 292.15 116.57 291.5 116.5 291.42 117.29 293.51 117.5 293.59 116.71 292.93 116.65 293.14 114.62 294.17 114.73"/>
    <polygon class="cls-4" points="297.04 115.02 297.12 114.23 294.25 113.94 294.17 114.73 295.22 114.83 295.01 116.86 294.36 116.79 294.28 117.58 296.37 117.79 296.45 117 295.8 116.94 296 114.91 297.04 115.02"/>
    <polygon class="cls-4" points="299.9 115.31 299.98 114.52 297.12 114.23 297.04 115.02 298.08 115.12 297.88 117.15 297.22 117.08 297.14 117.87 299.24 118.08 299.32 117.29 298.66 117.23 298.86 115.2 299.9 115.31"/>
    <polygon class="cls-4" points="302.76 115.6 302.84 114.81 299.98 114.52 299.9 115.31 300.94 115.41 300.74 117.44 300.08 117.37 300.01 118.16 302.1 118.37 302.18 117.58 301.52 117.52 301.73 115.49 302.76 115.6"/>
    <polygon class="cls-4" points="305.63 115.89 305.71 115.1 302.84 114.81 302.76 115.6 303.81 115.7 303.6 117.73 302.95 117.66 302.87 118.44 304.96 118.66 305.04 117.87 304.39 117.8 304.59 115.78 305.63 115.89"/>
    <polygon class="cls-4" points="308.49 116.18 308.57 115.39 305.71 115.1 305.63 115.89 306.67 115.99 306.47 118.01 305.81 117.95 305.73 118.73 307.82 118.95 307.9 118.16 307.25 118.09 307.45 116.07 308.49 116.18"/>
    <polygon class="cls-4" points="311.35 116.47 311.43 115.68 308.57 115.39 308.49 116.18 309.53 116.28 309.33 118.3 308.67 118.24 308.59 119.02 310.69 119.24 310.77 118.45 310.11 118.38 310.32 116.36 311.35 116.47"/>
    <polygon class="cls-4" points="314.21 116.76 314.29 115.97 311.43 115.68 311.35 116.47 312.4 116.57 312.19 118.59 311.54 118.53 311.46 119.31 313.55 119.53 313.63 118.74 312.97 118.67 313.18 116.65 314.21 116.76"/>
    <polygon class="cls-4" points="317.08 117.05 317.16 116.26 314.29 115.97 314.21 116.76 315.26 116.86 315.05 118.88 314.4 118.82 314.32 119.6 316.41 119.81 316.49 119.03 315.84 118.96 316.04 116.94 317.08 117.05"/>
    <polygon class="cls-4" points="319.94 117.34 320.02 116.55 317.16 116.26 317.08 117.05 318.12 117.15 317.92 119.17 317.26 119.11 317.18 119.89 319.28 120.1 319.36 119.32 318.7 119.25 318.9 117.23 319.94 117.34"/>
    <polygon class="cls-4" points="322.8 117.63 322.88 116.84 320.02 116.55 319.94 117.34 320.98 117.44 320.78 119.46 320.12 119.4 320.04 120.18 322.14 120.39 322.22 119.61 321.56 119.54 321.77 117.52 322.8 117.63"/>
    <polygon class="cls-4" points="325.67 117.91 325.75 117.13 322.88 116.84 322.8 117.63 323.85 117.73 323.64 119.75 322.99 119.69 322.91 120.47 325 120.68 325.08 119.9 324.43 119.83 324.63 117.81 325.67 117.91"/>
    <polygon class="cls-4" points="328.53 118.2 328.61 117.42 325.75 117.13 325.67 117.91 326.71 118.02 326.51 120.04 325.85 119.98 325.77 120.76 327.86 120.97 327.94 120.19 327.29 120.12 327.49 118.1 328.53 118.2"/>
    <polygon class="cls-4" points="331.39 118.49 331.47 117.71 328.61 117.42 328.53 118.2 329.57 118.31 329.37 120.33 328.71 120.27 328.63 121.05 330.73 121.26 330.81 120.48 330.15 120.41 330.36 118.39 331.39 118.49"/>
    <polygon class="cls-4" points="334.25 118.78 334.33 118 331.47 117.71 331.39 118.49 332.44 118.6 332.23 120.62 331.58 120.55 331.5 121.34 333.59 121.55 333.67 120.77 333.01 120.7 333.22 118.68 334.25 118.78"/>
    <polygon class="cls-4" points="337.12 119.07 337.2 118.29 334.33 118 334.25 118.78 335.3 118.89 335.09 120.91 334.44 120.84 334.36 121.63 336.45 121.84 336.53 121.06 335.88 120.99 336.08 118.97 337.12 119.07"/>
    <polygon class="cls-4" points="339.98 119.36 340.06 118.58 337.2 118.29 337.12 119.07 338.16 119.18 337.96 121.2 337.3 121.13 337.22 121.92 339.32 122.13 339.39 121.35 338.74 121.28 338.94 119.26 339.98 119.36"/>
    <polygon class="cls-4" points="342.84 119.65 342.92 118.87 340.06 118.58 339.98 119.36 341.02 119.47 340.82 121.49 340.16 121.42 340.08 122.21 342.18 122.42 342.26 121.64 341.6 121.57 341.81 119.55 342.84 119.65"/>
    <polygon class="cls-4" points="345.71 119.94 345.78 119.16 342.92 118.87 342.84 119.65 343.89 119.76 343.68 121.78 343.03 121.71 342.95 122.5 345.04 122.71 345.12 121.93 344.47 121.86 344.67 119.84 345.71 119.94"/>
    <polygon class="cls-4" points="348.57 120.23 348.65 119.45 345.78 119.16 345.71 119.94 346.75 120.05 346.54 122.07 345.89 122 345.81 122.79 347.9 123 347.98 122.21 347.33 122.15 347.53 120.13 348.57 120.23"/>
    <polygon class="cls-4" points="351.43 120.52 351.51 119.74 348.65 119.45 348.57 120.23 349.61 120.34 349.41 122.36 348.75 122.29 348.67 123.08 350.77 123.29 350.85 122.5 350.19 122.44 350.4 120.42 351.43 120.52"/>
    <polygon class="cls-4" points="354.29 120.81 354.37 120.03 351.51 119.74 351.43 120.52 352.47 120.63 352.27 122.65 351.62 122.58 351.54 123.37 353.63 123.58 353.71 122.79 353.05 122.73 353.26 120.71 354.29 120.81"/>
    <polygon class="cls-4" points="357.16 121.1 357.24 120.31 354.37 120.03 354.29 120.81 355.34 120.92 355.13 122.94 354.48 122.87 354.4 123.66 356.49 123.87 356.57 123.08 355.92 123.02 356.12 121 357.16 121.1"/>
    <polygon class="cls-4" points="360.02 121.39 360.1 120.6 357.24 120.31 357.16 121.1 358.2 121.21 358 123.23 357.34 123.16 357.26 123.95 359.35 124.16 359.43 123.37 358.78 123.31 358.98 121.29 360.02 121.39"/>
    <polygon class="cls-4" points="362.88 121.68 362.96 120.89 360.1 120.6 360.02 121.39 361.06 121.5 360.86 123.52 360.2 123.45 360.12 124.24 362.22 124.45 362.3 123.66 361.64 123.6 361.85 121.57 362.88 121.68"/>
    <polygon class="cls-4" points="365.74 121.97 365.82 121.18 362.96 120.89 362.88 121.68 363.93 121.78 363.72 123.81 363.07 123.74 362.99 124.53 365.08 124.74 365.16 123.95 364.5 123.89 364.71 121.86 365.74 121.97"/>
    <polygon class="cls-4" points="368.61 122.26 368.69 121.47 365.82 121.18 365.74 121.97 366.79 122.07 366.58 124.1 365.93 124.03 365.85 124.82 367.94 125.03 368.02 124.24 367.37 124.18 367.57 122.15 368.61 122.26"/>
    <polygon class="cls-4" points="371.47 122.55 371.55 121.76 368.69 121.47 368.61 122.26 369.65 122.36 369.45 124.39 368.79 124.32 368.71 125.11 370.81 125.32 370.89 124.53 370.23 124.47 370.43 122.44 371.47 122.55"/>
    <polygon class="cls-4" points="374.33 122.84 374.41 122.05 371.55 121.76 371.47 122.55 372.51 122.65 372.31 124.68 371.65 124.61 371.58 125.39 373.67 125.61 373.75 124.82 373.09 124.75 373.3 122.73 374.33 122.84"/>
    <polygon class="cls-4" points="377.2 123.13 377.28 122.34 374.41 122.05 374.33 122.84 375.38 122.94 375.17 124.96 374.52 124.9 374.44 125.68 376.53 125.9 376.61 125.11 375.96 125.04 376.16 123.02 377.2 123.13"/>
    <polygon class="cls-4" points="380.06 123.42 380.14 122.63 377.28 122.34 377.2 123.13 378.24 123.23 378.04 125.25 377.38 125.19 377.3 125.97 379.39 126.19 379.47 125.4 378.82 125.33 379.02 123.31 380.06 123.42"/>
    <polygon class="cls-4" points="382.92 123.71 383 122.92 380.14 122.63 380.06 123.42 381.1 123.52 380.9 125.54 380.24 125.48 380.16 126.26 382.26 126.48 382.34 125.69 381.68 125.62 381.89 123.6 382.92 123.71"/>
    <polygon class="cls-4" points="385.78 124 385.86 123.21 383 122.92 382.92 123.71 383.97 123.81 383.76 125.83 383.11 125.77 383.03 126.55 385.12 126.76 385.2 125.98 384.54 125.91 384.75 123.89 385.78 124"/>
    <polygon class="cls-4" points="388.65 124.29 388.73 123.5 385.86 123.21 385.78 124 386.83 124.1 386.62 126.12 385.97 126.06 385.89 126.84 387.98 127.05 388.06 126.27 387.41 126.2 387.61 124.18 388.65 124.29"/>
    <polygon class="cls-4" points="391.51 124.58 391.59 123.79 388.73 123.5 388.65 124.29 389.69 124.39 389.49 126.41 388.83 126.35 388.75 127.13 390.85 127.34 390.93 126.56 390.27 126.49 390.47 124.47 391.51 124.58"/>
    <polygon class="cls-4" points="394.37 124.86 394.45 124.08 391.59 123.79 391.51 124.58 392.55 124.68 392.35 126.7 391.69 126.64 391.62 127.42 393.71 127.63 393.79 126.85 393.13 126.78 393.34 124.76 394.37 124.86"/>
    <polygon class="cls-4" points="397.24 125.15 397.32 124.37 394.45 124.08 394.37 124.86 395.42 124.97 395.21 126.99 394.56 126.93 394.48 127.71 396.57 127.92 396.65 127.14 396 127.07 396.2 125.05 397.24 125.15"/>
    <polygon class="cls-4" points="400.1 125.44 400.18 124.66 397.32 124.37 397.24 125.15 398.28 125.26 398.08 127.28 397.42 127.22 397.34 128 399.43 128.21 399.51 127.43 398.86 127.36 399.06 125.34 400.1 125.44"/>
    <polygon class="cls-4" points="402.96 125.73 403.04 124.95 400.18 124.66 400.1 125.44 401.14 125.55 400.94 127.57 400.28 127.5 400.2 128.29 402.3 128.5 402.38 127.72 401.72 127.65 401.93 125.63 402.96 125.73"/>
    <polygon class="cls-4" points="405.82 126.02 405.9 125.24 403.04 124.95 402.96 125.73 404.01 125.84 403.8 127.86 403.15 127.79 403.07 128.58 405.16 128.79 405.24 128.01 404.58 127.94 404.79 125.92 405.82 126.02"/>
    <polygon class="cls-4" points="408.69 126.31 408.77 125.53 405.9 125.24 405.82 126.02 406.87 126.13 406.66 128.15 406.01 128.08 405.93 128.87 408.02 129.08 408.1 128.3 407.45 128.23 407.65 126.21 408.69 126.31"/>
    <polygon class="cls-4" points="411.55 126.6 411.63 125.82 408.77 125.53 408.69 126.31 409.73 126.42 409.53 128.44 408.87 128.37 408.79 129.16 410.89 129.37 410.97 128.59 410.31 128.52 410.51 126.5 411.55 126.6"/>
    <polygon class="cls-4" points="414.41 126.89 414.49 126.11 411.63 125.82 411.55 126.6 412.59 126.71 412.39 128.73 411.73 128.66 411.65 129.45 413.75 129.66 413.83 128.88 413.17 128.81 413.38 126.79 414.41 126.89"/>
    <polygon class="cls-4" points="417.28 127.18 417.36 126.4 414.49 126.11 414.41 126.89 415.46 127 415.25 129.02 414.6 128.95 414.52 129.74 416.61 129.95 416.69 129.16 416.04 129.1 416.24 127.08 417.28 127.18"/>
    <polygon class="cls-4" points="420.14 127.47 420.22 126.69 417.36 126.4 417.28 127.18 418.32 127.29 418.12 129.31 417.46 129.24 417.38 130.03 419.47 130.24 419.55 129.45 418.9 129.39 419.1 127.37 420.14 127.47"/>
    <polygon class="cls-4" points="423 127.76 423.08 126.98 420.22 126.69 420.14 127.47 421.18 127.58 420.98 129.6 420.32 129.53 420.24 130.32 422.34 130.53 422.42 129.74 421.76 129.68 421.97 127.66 423 127.76"/>
    <polygon class="cls-4" points="425.86 128.05 425.94 127.26 423.08 126.98 423 127.76 424.05 127.87 423.84 129.89 423.19 129.82 423.11 130.61 425.2 130.82 425.28 130.03 424.62 129.97 424.83 127.95 425.86 128.05"/>
    <polygon class="cls-4" points="428.73 128.34 428.81 127.55 425.94 127.26 425.86 128.05 426.91 128.16 426.7 130.18 426.05 130.11 425.97 130.9 428.06 131.11 428.14 130.32 427.49 130.26 427.69 128.23 428.73 128.34"/>
    <polygon class="cls-4" points="431.59 128.63 431.67 127.84 428.81 127.55 428.73 128.34 429.77 128.45 429.57 130.47 428.91 130.4 428.83 131.19 430.93 131.4 431 130.61 430.35 130.55 430.55 128.52 431.59 128.63"/>
    <polygon class="cls-4" points="434.45 128.92 434.53 128.13 431.67 127.84 431.59 128.63 432.63 128.73 432.43 130.76 431.77 130.69 431.69 131.48 433.79 131.69 433.87 130.9 433.21 130.84 433.42 128.81 434.45 128.92"/>
    <polygon class="cls-4" points="437.32 129.21 437.39 128.42 434.53 128.13 434.45 128.92 435.5 129.02 435.29 131.05 434.64 130.98 434.56 131.77 436.65 131.98 436.73 131.19 436.08 131.13 436.28 129.1 437.32 129.21"/>
    <polygon class="cls-4" points="440.18 129.5 440.26 128.71 437.39 128.42 437.32 129.21 438.36 129.31 438.15 131.34 437.5 131.27 437.42 132.06 439.51 132.27 439.59 131.48 438.94 131.42 439.14 129.39 440.18 129.5"/>
    <polygon class="cls-4" points="443.04 129.79 443.12 129 440.26 128.71 440.18 129.5 441.22 129.6 441.02 131.63 440.36 131.56 440.28 132.34 442.38 132.56 442.46 131.77 441.8 131.7 442.01 129.68 443.04 129.79"/>
    <polygon class="cls-4" points="445.9 130.08 445.98 129.29 443.12 129 443.04 129.79 444.08 129.89 443.88 131.91 443.23 131.85 443.15 132.63 445.24 132.85 445.32 132.06 444.66 131.99 444.87 129.97 445.9 130.08"/>
    <polygon class="cls-4" points="448.77 130.37 448.85 129.58 445.98 129.29 445.9 130.08 446.95 130.18 446.74 132.2 446.09 132.14 446.01 132.92 448.1 133.14 448.18 132.35 447.53 132.28 447.73 130.26 448.77 130.37"/>
    <polygon class="cls-4" points="451.63 130.66 451.71 129.87 448.85 129.58 448.77 130.37 449.81 130.47 449.61 132.49 448.95 132.43 448.87 133.21 450.96 133.43 451.04 132.64 450.39 132.57 450.59 130.55 451.63 130.66"/>
    <polygon class="cls-4" points="454.49 130.95 454.57 130.16 451.71 129.87 451.63 130.66 452.67 130.76 452.47 132.78 451.81 132.72 451.73 133.5 453.83 133.71 453.91 132.93 453.25 132.86 453.46 130.84 454.49 130.95"/>
    <polygon class="cls-4" points="455.36 127.29 454.57 127.29 454.57 130.16 455.36 130.16 455.36 129.11 457.39 129.11 457.39 129.77 458.18 129.77 458.18 127.67 457.39 127.67 457.39 128.33 455.36 128.33 455.36 127.29"/>
    <polygon class="cls-4" points="455.36 124.42 454.57 124.42 454.57 127.29 455.36 127.29 455.36 126.24 457.39 126.24 457.39 126.9 458.18 126.9 458.18 124.8 457.39 124.8 457.39 125.46 455.36 125.46 455.36 124.42"/>
    <polygon class="cls-4" points="455.36 121.55 454.57 121.55 454.57 124.42 455.36 124.42 455.36 123.37 457.39 123.37 457.39 124.03 458.18 124.03 458.18 121.93 457.39 121.93 457.39 122.59 455.36 122.59 455.36 121.55"/>
    <polygon class="cls-4" points="455.36 118.68 454.57 118.68 454.57 121.55 455.36 121.55 455.36 120.5 457.39 120.5 457.39 121.16 458.18 121.16 458.18 119.06 457.39 119.06 457.39 119.72 455.36 119.72 455.36 118.68"/>
    <polygon class="cls-4" points="455.36 115.81 454.57 115.81 454.57 118.68 455.36 118.68 455.36 117.63 457.39 117.63 457.39 118.29 458.18 118.29 458.18 116.19 457.39 116.19 457.39 116.85 455.36 116.85 455.36 115.81"/>
    <polygon class="cls-4" points="455.36 112.94 454.57 112.94 454.57 115.81 455.36 115.81 455.36 114.76 457.39 114.76 457.39 115.42 458.18 115.42 458.18 113.32 457.39 113.32 457.39 113.98 455.36 113.98 455.36 112.94"/>
    <polygon class="cls-4" points="455.36 110.07 454.57 110.07 454.57 112.94 455.36 112.94 455.36 111.89 457.39 111.89 457.39 112.55 458.18 112.55 458.18 110.45 457.39 110.45 457.39 111.11 455.36 111.11 455.36 110.07"/>
    <polygon class="cls-4" points="455.36 107.2 454.57 107.2 454.57 110.07 455.36 110.07 455.36 109.02 457.39 109.02 457.39 109.68 458.18 109.68 458.18 107.58 457.39 107.58 457.39 108.24 455.36 108.24 455.36 107.2"/>
    <polygon class="cls-4" points="455.36 104.33 454.57 104.33 454.57 107.2 455.36 107.2 455.36 106.15 457.39 106.15 457.39 106.81 458.18 106.81 458.18 104.71 457.39 104.71 457.39 105.37 455.36 105.37 455.36 104.33"/>
    <polygon class="cls-4" points="455.36 101.46 454.57 101.46 454.57 104.33 455.36 104.33 455.36 103.28 457.39 103.28 457.39 103.94 458.18 103.94 458.18 101.84 457.39 101.84 457.39 102.5 455.36 102.5 455.36 101.46"/>
    <polygon class="cls-4" points="455.36 98.59 454.57 98.59 454.57 101.46 455.36 101.46 455.36 100.41 457.39 100.41 457.39 101.07 458.18 101.07 458.18 98.97 457.39 98.97 457.39 99.63 455.36 99.63 455.36 98.59"/>
    <polygon class="cls-4" points="455.36 95.72 454.57 95.72 454.57 98.59 455.36 98.59 455.36 97.54 457.39 97.54 457.39 98.2 458.18 98.2 458.18 96.1 457.39 96.1 457.39 96.76 455.36 96.76 455.36 95.72"/>
    <polygon class="cls-4" points="455.36 92.85 454.57 92.85 454.57 95.72 455.36 95.72 455.36 94.67 457.39 94.67 457.39 95.33 458.18 95.33 458.18 93.23 457.39 93.23 457.39 93.89 455.36 93.89 455.36 92.85"/>
    <polygon class="cls-4" points="455.36 89.98 454.57 89.98 454.57 92.85 455.36 92.85 455.36 91.8 457.39 91.8 457.39 92.46 458.18 92.46 458.18 90.36 457.39 90.36 457.39 91.02 455.36 91.02 455.36 89.98"/>
    <polygon class="cls-4" points="455.36 87.11 454.57 87.11 454.57 89.98 455.36 89.98 455.36 88.93 457.39 88.93 457.39 89.59 458.18 89.59 458.18 87.49 457.39 87.49 457.39 88.15 455.36 88.15 455.36 87.11"/>
    <polygon class="cls-4" points="455.36 84.24 454.57 84.24 454.57 87.11 455.36 87.11 455.36 86.06 457.39 86.06 457.39 86.72 458.18 86.72 458.18 84.62 457.39 84.62 457.39 85.28 455.36 85.28 455.36 84.24"/>
    <polygon class="cls-4" points="455.36 81.37 454.57 81.37 454.57 84.24 455.36 84.24 455.36 83.19 457.39 83.19 457.39 83.85 458.18 83.85 458.18 81.75 457.39 81.75 457.39 82.41 455.36 82.41 455.36 81.37"/>
    <polygon class="cls-4" points="455.36 78.5 454.57 78.5 454.57 81.37 455.36 81.37 455.36 80.32 457.39 80.32 457.39 80.98 458.18 80.98 458.18 78.88 457.39 78.88 457.39 79.54 455.36 79.54 455.36 78.5"/>
    <polygon class="cls-4" points="455.36 75.63 454.57 75.63 454.57 78.5 455.36 78.5 455.36 77.45 457.39 77.45 457.39 78.11 458.18 78.11 458.18 76.01 457.39 76.01 457.39 76.67 455.36 76.67 455.36 75.63"/>
    <polygon class="cls-4" points="455.36 72.76 454.57 72.76 454.57 75.63 455.36 75.63 455.36 74.58 457.39 74.58 457.39 75.24 458.18 75.24 458.18 73.14 457.39 73.14 457.39 73.8 455.36 73.8 455.36 72.76"/>
    <polygon class="cls-4" points="455.36 69.89 454.57 69.89 454.57 72.76 455.36 72.76 455.36 71.71 457.39 71.71 457.39 72.37 458.18 72.37 458.18 70.27 457.39 70.27 457.39 70.93 455.36 70.93 455.36 69.89"/>
    <polygon class="cls-4" points="455.36 67.02 454.57 67.02 454.57 69.89 455.36 69.89 455.36 68.84 457.39 68.84 457.39 69.5 458.18 69.5 458.18 67.4 457.39 67.4 457.39 68.06 455.36 68.06 455.36 67.02"/>
    <polygon class="cls-4" points="455.36 64.15 454.57 64.15 454.57 67.02 455.36 67.02 455.36 65.97 457.39 65.97 457.39 66.63 458.18 66.63 458.18 64.53 457.39 64.53 457.39 65.19 455.36 65.19 455.36 64.15"/>
    <polygon class="cls-4" points="455.36 61.28 454.57 61.28 454.57 64.15 455.36 64.15 455.36 63.1 457.39 63.1 457.39 63.76 458.18 63.76 458.18 61.66 457.39 61.66 457.39 62.32 455.36 62.32 455.36 61.28"/>
    <polygon class="cls-4" points="455.36 58.41 454.57 58.41 454.57 61.28 455.36 61.28 455.36 60.23 457.39 60.23 457.39 60.89 458.18 60.89 458.18 58.79 457.39 58.79 457.39 59.45 455.36 59.45 455.36 58.41"/>
    <polygon class="cls-4" points="455.36 55.54 454.57 55.54 454.57 58.41 455.36 58.41 455.36 57.36 457.39 57.36 457.39 58.02 458.18 58.02 458.18 55.92 457.39 55.92 457.39 56.58 455.36 56.58 455.36 55.54"/>
    <polygon class="cls-4" points="455.36 52.67 454.57 52.67 454.57 55.54 455.36 55.54 455.36 54.49 457.39 54.49 457.39 55.15 458.18 55.15 458.18 53.05 457.39 53.05 457.39 53.71 455.36 53.71 455.36 52.67"/>
    <polygon class="cls-4" points="455.36 49.8 454.57 49.8 454.57 52.67 455.36 52.67 455.36 51.62 457.39 51.62 457.39 52.28 458.18 52.28 458.18 50.18 457.39 50.18 457.39 50.84 455.36 50.84 455.36 49.8"/>
    <polygon class="cls-4" points="455.36 46.93 454.57 46.93 454.57 49.8 455.36 49.8 455.36 48.75 457.39 48.75 457.39 49.41 458.18 49.41 458.18 47.31 457.39 47.31 457.39 47.97 455.36 47.97 455.36 46.93"/>
    <polygon class="cls-4" points="455.36 44.06 454.57 44.06 454.57 46.93 455.36 46.93 455.36 45.88 457.39 45.88 457.39 46.54 458.18 46.54 458.18 44.44 457.39 44.44 457.39 45.1 455.36 45.1 455.36 44.06"/>
    <polygon class="cls-4" points="455.36 41.19 454.57 41.19 454.57 44.06 455.36 44.06 455.36 43.01 457.39 43.01 457.39 43.67 458.18 43.67 458.18 41.57 457.39 41.57 457.39 42.23 455.36 42.23 455.36 41.19"/>
    <polygon class="cls-4" points="455.36 38.32 454.57 38.32 454.57 41.19 455.36 41.19 455.36 40.14 457.39 40.14 457.39 40.8 458.18 40.8 458.18 38.7 457.39 38.7 457.39 39.36 455.36 39.36 455.36 38.32"/>
    <polygon class="cls-4" points="455.36 35.45 454.57 35.45 454.57 38.32 455.36 38.32 455.36 37.27 457.39 37.27 457.39 37.93 458.18 37.93 458.18 35.83 457.39 35.83 457.39 36.49 455.36 36.49 455.36 35.45"/>
    <polygon class="cls-4" points="455.36 32.58 454.57 32.58 454.57 35.45 455.36 35.45 455.36 34.4 457.39 34.4 457.39 35.06 458.18 35.06 458.18 32.96 457.39 32.96 457.39 33.62 455.36 33.62 455.36 32.58"/>
    <polygon class="cls-4" points="455.36 29.71 454.57 29.71 454.57 32.58 455.36 32.58 455.36 31.53 457.39 31.53 457.39 32.19 458.18 32.19 458.18 30.09 457.39 30.09 457.39 30.75 455.36 30.75 455.36 29.71"/>
    <polygon class="cls-4" points="455.36 26.84 454.57 26.84 454.57 29.71 455.36 29.71 455.36 28.66 457.39 28.66 457.39 29.32 458.18 29.32 458.18 27.22 457.39 27.22 457.39 27.88 455.36 27.88 455.36 26.84"/>
    <polygon class="cls-4" points="455.36 23.97 454.57 23.97 454.57 26.84 455.36 26.84 455.36 25.79 457.39 25.79 457.39 26.45 458.18 26.45 458.18 24.35 457.39 24.35 457.39 25.01 455.36 25.01 455.36 23.97"/>
    <polygon class="cls-4" points="455.36 21.1 454.57 21.1 454.57 23.97 455.36 23.97 455.36 22.92 457.39 22.92 457.39 23.58 458.18 23.58 458.18 21.48 457.39 21.48 457.39 22.14 455.36 22.14 455.36 21.1"/>
    <polygon class="cls-4" points="455.36 18.23 454.57 18.23 454.57 21.1 455.36 21.1 455.36 20.05 457.39 20.05 457.39 20.71 458.18 20.71 458.18 18.61 457.39 18.61 457.39 19.27 455.36 19.27 455.36 18.23"/>
    <polygon class="cls-4" points="455.36 15.36 454.57 15.36 454.57 18.23 455.36 18.23 455.36 17.18 457.39 17.18 457.39 17.84 458.18 17.84 458.18 15.74 457.39 15.74 457.39 16.4 455.36 16.4 455.36 15.36"/>
    <polygon class="cls-4" points="455.36 12.49 454.57 12.49 454.57 15.36 455.36 15.36 455.36 14.31 457.39 14.31 457.39 14.97 458.18 14.97 458.18 12.87 457.39 12.87 457.39 13.53 455.36 13.53 455.36 12.49"/>
    <polygon class="cls-4" points="455.36 9.62 454.57 9.62 454.57 12.49 455.36 12.49 455.36 11.44 457.39 11.44 457.39 12.1 458.18 12.1 458.18 10 457.39 10 457.39 10.66 455.36 10.66 455.36 9.62"/>
    <polygon class="cls-4" points="455.36 6.75 454.57 6.75 454.57 9.62 455.36 9.62 455.36 8.57 457.39 8.57 457.39 9.23 458.18 9.23 458.18 7.13 457.39 7.13 457.39 7.79 455.36 7.79 455.36 6.75"/>
    <polygon class="cls-4" points="455.36 3.88 454.57 3.88 454.57 6.75 455.36 6.75 455.36 5.7 457.39 5.7 457.39 6.36 458.18 6.36 458.18 4.26 457.39 4.26 457.39 4.92 455.36 4.92 455.36 3.88"/>
    <polygon class="cls-4" points="451.69 3.09 451.69 3.88 454.57 3.88 454.57 3.09 453.52 3.09 453.52 1.06 454.18 1.06 454.18 .27 452.07 .27 452.07 1.06 452.73 1.06 452.73 3.09 451.69 3.09"/>
    <polygon class="cls-4" points="448.81 3.09 448.81 3.88 451.69 3.88 451.69 3.09 450.64 3.09 450.64 1.06 451.3 1.06 451.3 .27 449.19 .27 449.19 1.06 449.85 1.06 449.85 3.09 448.81 3.09"/>
    <polygon class="cls-4" points="445.93 3.09 445.93 3.88 448.81 3.88 448.81 3.09 447.76 3.09 447.76 1.06 448.42 1.06 448.42 .27 446.31 .27 446.31 1.06 446.97 1.06 446.97 3.09 445.93 3.09"/>
    <polygon class="cls-4" points="443.05 3.09 443.05 3.88 445.93 3.88 445.93 3.09 444.88 3.09 444.88 1.06 445.54 1.06 445.54 .27 443.43 .27 443.43 1.06 444.09 1.06 444.09 3.09 443.05 3.09"/>
    <polygon class="cls-4" points="440.17 3.09 440.17 3.88 443.05 3.88 443.05 3.09 442 3.09 442 1.06 442.66 1.06 442.66 .27 440.55 .27 440.55 1.06 441.21 1.06 441.21 3.09 440.17 3.09"/>
    <polygon class="cls-4" points="437.28 3.09 437.28 3.88 440.17 3.88 440.17 3.09 439.12 3.09 439.12 1.06 439.77 1.06 439.77 .27 437.67 .27 437.67 1.06 438.33 1.06 438.33 3.09 437.28 3.09"/>
    <polygon class="cls-4" points="434.4 3.09 434.4 3.88 437.28 3.88 437.28 3.09 436.23 3.09 436.23 1.06 436.89 1.06 436.89 .27 434.79 .27 434.79 1.06 435.45 1.06 435.45 3.09 434.4 3.09"/>
    <polygon class="cls-4" points="431.52 3.09 431.52 3.88 434.4 3.88 434.4 3.09 433.35 3.09 433.35 1.06 434.01 1.06 434.01 .27 431.91 .27 431.91 1.06 432.56 1.06 432.56 3.09 431.52 3.09"/>
    <polygon class="cls-4" points="428.64 3.09 428.64 3.88 431.52 3.88 431.52 3.09 430.47 3.09 430.47 1.06 431.13 1.06 431.13 .27 429.02 .27 429.02 1.06 429.68 1.06 429.68 3.09 428.64 3.09"/>
    <polygon class="cls-4" points="425.76 3.09 425.76 3.88 428.64 3.88 428.64 3.09 427.59 3.09 427.59 1.06 428.25 1.06 428.25 .27 426.14 .27 426.14 1.06 426.8 1.06 426.8 3.09 425.76 3.09"/>
    <polygon class="cls-4" points="422.88 3.09 422.88 3.88 425.76 3.88 425.76 3.09 424.71 3.09 424.71 1.06 425.37 1.06 425.37 .27 423.26 .27 423.26 1.06 423.92 1.06 423.92 3.09 422.88 3.09"/>
    <polygon class="cls-4" points="420 3.09 420 3.88 422.88 3.88 422.88 3.09 421.83 3.09 421.83 1.06 422.49 1.06 422.49 .27 420.38 .27 420.38 1.06 421.04 1.06 421.04 3.09 420 3.09"/>
    <polygon class="cls-4" points="417.12 3.09 417.12 3.88 420 3.88 420 3.09 418.95 3.09 418.95 1.06 419.61 1.06 419.61 .27 417.5 .27 417.5 1.06 418.16 1.06 418.16 3.09 417.12 3.09"/>
    <polygon class="cls-4" points="414.24 3.09 414.24 3.88 417.12 3.88 417.12 3.09 416.07 3.09 416.07 1.06 416.73 1.06 416.73 .27 414.62 .27 414.62 1.06 415.28 1.06 415.28 3.09 414.24 3.09"/>
    <polygon class="cls-4" points="411.35 3.09 411.35 3.88 414.24 3.88 414.24 3.09 413.18 3.09 413.18 1.06 413.84 1.06 413.84 .27 411.74 .27 411.74 1.06 412.4 1.06 412.4 3.09 411.35 3.09"/>
    <polygon class="cls-4" points="408.47 3.09 408.47 3.88 411.35 3.88 411.35 3.09 410.3 3.09 410.3 1.06 410.96 1.06 410.96 .27 408.86 .27 408.86 1.06 409.52 1.06 409.52 3.09 408.47 3.09"/>
    <polygon class="cls-4" points="405.59 3.09 405.59 3.88 408.47 3.88 408.47 3.09 407.42 3.09 407.42 1.06 408.08 1.06 408.08 .27 405.97 .27 405.97 1.06 406.63 1.06 406.63 3.09 405.59 3.09"/>
    <polygon class="cls-4" points="402.71 3.09 402.71 3.88 405.59 3.88 405.59 3.09 404.54 3.09 404.54 1.06 405.2 1.06 405.2 .27 403.09 .27 403.09 1.06 403.75 1.06 403.75 3.09 402.71 3.09"/>
    <polygon class="cls-4" points="399.83 3.09 399.83 3.88 402.71 3.88 402.71 3.09 401.66 3.09 401.66 1.06 402.32 1.06 402.32 .27 400.21 .27 400.21 1.06 400.87 1.06 400.87 3.09 399.83 3.09"/>
    <polygon class="cls-4" points="396.95 3.09 396.95 3.88 399.83 3.88 399.83 3.09 398.78 3.09 398.78 1.06 399.44 1.06 399.44 .27 397.33 .27 397.33 1.06 397.99 1.06 397.99 3.09 396.95 3.09"/>
    <polygon class="cls-4" points="394.07 3.09 394.07 3.88 396.95 3.88 396.95 3.09 395.9 3.09 395.9 1.06 396.56 1.06 396.56 .27 394.45 .27 394.45 1.06 395.11 1.06 395.11 3.09 394.07 3.09"/>
    <polygon class="cls-4" points="391.19 3.09 391.19 3.88 394.07 3.88 394.07 3.09 393.02 3.09 393.02 1.06 393.68 1.06 393.68 .27 391.57 .27 391.57 1.06 392.23 1.06 392.23 3.09 391.19 3.09"/>
    <polygon class="cls-4" points="388.3 3.09 388.3 3.88 391.19 3.88 391.19 3.09 390.14 3.09 390.14 1.06 390.79 1.06 390.79 .27 388.69 .27 388.69 1.06 389.35 1.06 389.35 3.09 388.3 3.09"/>
    <polygon class="cls-4" points="385.42 3.09 385.42 3.88 388.3 3.88 388.3 3.09 387.25 3.09 387.25 1.06 387.91 1.06 387.91 .27 385.81 .27 385.81 1.06 386.47 1.06 386.47 3.09 385.42 3.09"/>
    <polygon class="cls-4" points="382.54 3.09 382.54 3.88 385.42 3.88 385.42 3.09 384.37 3.09 384.37 1.06 385.03 1.06 385.03 .27 382.93 .27 382.93 1.06 383.58 1.06 383.58 3.09 382.54 3.09"/>
    <polygon class="cls-4" points="379.66 3.09 379.66 3.88 382.54 3.88 382.54 3.09 381.49 3.09 381.49 1.06 382.15 1.06 382.15 .27 380.04 .27 380.04 1.06 380.7 1.06 380.7 3.09 379.66 3.09"/>
    <polygon class="cls-4" points="376.78 3.09 376.78 3.88 379.66 3.88 379.66 3.09 378.61 3.09 378.61 1.06 379.27 1.06 379.27 .27 377.16 .27 377.16 1.06 377.82 1.06 377.82 3.09 376.78 3.09"/>
    <polygon class="cls-4" points="373.9 3.09 373.9 3.88 376.78 3.88 376.78 3.09 375.73 3.09 375.73 1.06 376.39 1.06 376.39 .27 374.28 .27 374.28 1.06 374.94 1.06 374.94 3.09 373.9 3.09"/>
    <polygon class="cls-4" points="371.02 3.09 371.02 3.88 373.9 3.88 373.9 3.09 372.85 3.09 372.85 1.06 373.51 1.06 373.51 .27 371.4 .27 371.4 1.06 372.06 1.06 372.06 3.09 371.02 3.09"/>
    <polygon class="cls-4" points="368.14 3.09 368.14 3.88 371.02 3.88 371.02 3.09 369.97 3.09 369.97 1.06 370.63 1.06 370.63 .27 368.52 .27 368.52 1.06 369.18 1.06 369.18 3.09 368.14 3.09"/>
    <polygon class="cls-4" points="365.26 3.09 365.26 3.88 368.14 3.88 368.14 3.09 367.09 3.09 367.09 1.06 367.75 1.06 367.75 .27 365.64 .27 365.64 1.06 366.3 1.06 366.3 3.09 365.26 3.09"/>
    <polygon class="cls-4" points="362.37 3.09 362.37 3.88 365.26 3.88 365.26 3.09 364.2 3.09 364.2 1.06 364.86 1.06 364.86 .27 362.76 .27 362.76 1.06 363.42 1.06 363.42 3.09 362.37 3.09"/>
    <polygon class="cls-4" points="359.49 3.09 359.49 3.88 362.37 3.88 362.37 3.09 361.32 3.09 361.32 1.06 361.98 1.06 361.98 .27 359.88 .27 359.88 1.06 360.54 1.06 360.54 3.09 359.49 3.09"/>
    <polygon class="cls-4" points="356.61 3.09 356.61 3.88 359.49 3.88 359.49 3.09 358.44 3.09 358.44 1.06 359.1 1.06 359.1 .27 356.99 .27 356.99 1.06 357.65 1.06 357.65 3.09 356.61 3.09"/>
    <polygon class="cls-4" points="353.73 3.09 353.73 3.88 356.61 3.88 356.61 3.09 355.56 3.09 355.56 1.06 356.22 1.06 356.22 .27 354.11 .27 354.11 1.06 354.77 1.06 354.77 3.09 353.73 3.09"/>
    <polygon class="cls-4" points="350.85 3.09 350.85 3.88 353.73 3.88 353.73 3.09 352.68 3.09 352.68 1.06 353.34 1.06 353.34 .27 351.23 .27 351.23 1.06 351.89 1.06 351.89 3.09 350.85 3.09"/>
    <polygon class="cls-4" points="347.97 3.09 347.97 3.88 350.85 3.88 350.85 3.09 349.8 3.09 349.8 1.06 350.46 1.06 350.46 .27 348.35 .27 348.35 1.06 349.01 1.06 349.01 3.09 347.97 3.09"/>
    <polygon class="cls-4" points="345.09 3.09 345.09 3.88 347.97 3.88 347.97 3.09 346.92 3.09 346.92 1.06 347.58 1.06 347.58 .27 345.47 .27 345.47 1.06 346.13 1.06 346.13 3.09 345.09 3.09"/>
    <polygon class="cls-4" points="342.21 3.09 342.21 3.88 345.09 3.88 345.09 3.09 344.04 3.09 344.04 1.06 344.7 1.06 344.7 .27 342.59 .27 342.59 1.06 343.25 1.06 343.25 3.09 342.21 3.09"/>
    <polygon class="cls-4" points="339.33 3.09 339.33 3.88 342.21 3.88 342.21 3.09 341.16 3.09 341.16 1.06 341.81 1.06 341.81 .27 339.71 .27 339.71 1.06 340.37 1.06 340.37 3.09 339.33 3.09"/>
    <polygon class="cls-4" points="336.44 3.09 336.44 3.88 339.33 3.88 339.33 3.09 338.27 3.09 338.27 1.06 338.93 1.06 338.93 .27 336.83 .27 336.83 1.06 337.49 1.06 337.49 3.09 336.44 3.09"/>
    <polygon class="cls-4" points="333.56 3.09 333.56 3.88 336.44 3.88 336.44 3.09 335.39 3.09 335.39 1.06 336.05 1.06 336.05 .27 333.95 .27 333.95 1.06 334.6 1.06 334.6 3.09 333.56 3.09"/>
    <polygon class="cls-4" points="330.68 3.09 330.68 3.88 333.56 3.88 333.56 3.09 332.51 3.09 332.51 1.06 333.17 1.06 333.17 .27 331.06 .27 331.06 1.06 331.72 1.06 331.72 3.09 330.68 3.09"/>
    <polygon class="cls-4" points="327.8 3.09 327.8 3.88 330.68 3.88 330.68 3.09 329.63 3.09 329.63 1.06 330.29 1.06 330.29 .27 328.18 .27 328.18 1.06 328.84 1.06 328.84 3.09 327.8 3.09"/>
    <polygon class="cls-4" points="324.92 3.09 324.92 3.88 327.8 3.88 327.8 3.09 326.75 3.09 326.75 1.06 327.41 1.06 327.41 .27 325.3 .27 325.3 1.06 325.96 1.06 325.96 3.09 324.92 3.09"/>
    <polygon class="cls-4" points="322.04 3.09 322.04 3.88 324.92 3.88 324.92 3.09 323.87 3.09 323.87 1.06 324.53 1.06 324.53 .27 322.42 .27 322.42 1.06 323.08 1.06 323.08 3.09 322.04 3.09"/>
    <polygon class="cls-4" points="319.16 3.09 319.16 3.88 322.04 3.88 322.04 3.09 320.99 3.09 320.99 1.06 321.65 1.06 321.65 .27 319.54 .27 319.54 1.06 320.2 1.06 320.2 3.09 319.16 3.09"/>
    <polygon class="cls-4" points="316.28 3.09 316.28 3.88 319.16 3.88 319.16 3.09 318.11 3.09 318.11 1.06 318.77 1.06 318.77 .27 316.66 .27 316.66 1.06 317.32 1.06 317.32 3.09 316.28 3.09"/>
    <polygon class="cls-4" points="313.39 3.09 313.39 3.88 316.28 3.88 316.28 3.09 315.23 3.09 315.23 1.06 315.88 1.06 315.88 .27 313.78 .27 313.78 1.06 314.44 1.06 314.44 3.09 313.39 3.09"/>
    <polygon class="cls-4" points="310.51 3.09 310.51 3.88 313.39 3.88 313.39 3.09 312.34 3.09 312.34 1.06 313 1.06 313 .27 310.9 .27 310.9 1.06 311.56 1.06 311.56 3.09 310.51 3.09"/>
    <polygon class="cls-4" points="307.63 3.09 307.63 3.88 310.51 3.88 310.51 3.09 309.46 3.09 309.46 1.06 310.12 1.06 310.12 .27 308.02 .27 308.02 1.06 308.67 1.06 308.67 3.09 307.63 3.09"/>
    <polygon class="cls-4" points="304.75 3.09 304.75 3.88 307.63 3.88 307.63 3.09 306.58 3.09 306.58 1.06 307.24 1.06 307.24 .27 305.13 .27 305.13 1.06 305.79 1.06 305.79 3.09 304.75 3.09"/>
    <polygon class="cls-4" points="301.87 3.09 301.87 3.88 304.75 3.88 304.75 3.09 303.7 3.09 303.7 1.06 304.36 1.06 304.36 .27 302.25 .27 302.25 1.06 302.91 1.06 302.91 3.09 301.87 3.09"/>
    <polygon class="cls-4" points="298.99 3.09 298.99 3.88 301.87 3.88 301.87 3.09 300.82 3.09 300.82 1.06 301.48 1.06 301.48 .27 299.37 .27 299.37 1.06 300.03 1.06 300.03 3.09 298.99 3.09"/>
    <polygon class="cls-4" points="296.11 3.09 296.11 3.88 298.99 3.88 298.99 3.09 297.94 3.09 297.94 1.06 298.6 1.06 298.6 .27 296.49 .27 296.49 1.06 297.15 1.06 297.15 3.09 296.11 3.09"/>
    <polygon class="cls-4" points="293.23 3.09 293.23 3.88 296.11 3.88 296.11 3.09 295.06 3.09 295.06 1.06 295.72 1.06 295.72 .27 293.61 .27 293.61 1.06 294.27 1.06 294.27 3.09 293.23 3.09"/>
    <polygon class="cls-4" points="290.35 3.09 290.35 3.88 293.23 3.88 293.23 3.09 292.18 3.09 292.18 1.06 292.84 1.06 292.84 .27 290.73 .27 290.73 1.06 291.39 1.06 291.39 3.09 290.35 3.09"/>
    <polygon class="cls-4" points="287.46 3.09 287.46 3.88 290.35 3.88 290.35 3.09 289.29 3.09 289.29 1.06 289.95 1.06 289.95 .27 287.85 .27 287.85 1.06 288.51 1.06 288.51 3.09 287.46 3.09"/>
    <polygon class="cls-4" points="284.58 3.09 284.58 3.88 287.46 3.88 287.46 3.09 286.41 3.09 286.41 1.06 287.07 1.06 287.07 .27 284.97 .27 284.97 1.06 285.63 1.06 285.63 3.09 284.58 3.09"/>
    <polygon class="cls-4" points="281.7 3.09 281.7 3.88 284.58 3.88 284.58 3.09 283.53 3.09 283.53 1.06 284.19 1.06 284.19 .27 282.08 .27 282.08 1.06 282.74 1.06 282.74 3.09 281.7 3.09"/>
    <polygon class="cls-4" points="278.82 3.09 278.82 3.88 281.7 3.88 281.7 3.09 280.65 3.09 280.65 1.06 281.31 1.06 281.31 .27 279.2 .27 279.2 1.06 279.86 1.06 279.86 3.09 278.82 3.09"/>
    <polygon class="cls-4" points="275.94 3.09 275.94 3.88 278.82 3.88 278.82 3.09 277.77 3.09 277.77 1.06 278.43 1.06 278.43 .27 276.32 .27 276.32 1.06 276.98 1.06 276.98 3.09 275.94 3.09"/>
    <polygon class="cls-4" points="273.06 3.09 273.06 3.88 275.94 3.88 275.94 3.09 274.89 3.09 274.89 1.06 275.55 1.06 275.55 .27 273.44 .27 273.44 1.06 274.1 1.06 274.1 3.09 273.06 3.09"/>
    <polygon class="cls-4" points="270.18 3.09 270.18 3.88 273.06 3.88 273.06 3.09 272.01 3.09 272.01 1.06 272.67 1.06 272.67 .27 270.56 .27 270.56 1.06 271.22 1.06 271.22 3.09 270.18 3.09"/>
    <polygon class="cls-4" points="267.3 3.09 267.3 3.88 270.18 3.88 270.18 3.09 269.13 3.09 269.13 1.06 269.79 1.06 269.79 .27 267.68 .27 267.68 1.06 268.34 1.06 268.34 3.09 267.3 3.09"/>
    <polygon class="cls-4" points="264.41 3.09 264.41 3.88 267.3 3.88 267.3 3.09 266.25 3.09 266.25 1.06 266.9 1.06 266.9 .27 264.8 .27 264.8 1.06 265.46 1.06 265.46 3.09 264.41 3.09"/>
    <polygon class="cls-4" points="261.53 3.09 261.53 3.88 264.41 3.88 264.41 3.09 263.36 3.09 263.36 1.06 264.02 1.06 264.02 .27 261.92 .27 261.92 1.06 262.58 1.06 262.58 3.09 261.53 3.09"/>
    <polygon class="cls-4" points="258.65 3.09 258.65 3.88 261.53 3.88 261.53 3.09 260.48 3.09 260.48 1.06 261.14 1.06 261.14 .27 259.04 .27 259.04 1.06 259.69 1.06 259.69 3.09 258.65 3.09"/>
    <polygon class="cls-4" points="255.77 3.09 255.77 3.88 258.65 3.88 258.65 3.09 257.6 3.09 257.6 1.06 258.26 1.06 258.26 .27 256.15 .27 256.15 1.06 256.81 1.06 256.81 3.09 255.77 3.09"/>
    <polygon class="cls-4" points="252.89 3.09 252.89 3.88 255.77 3.88 255.77 3.09 254.72 3.09 254.72 1.06 255.38 1.06 255.38 .27 253.27 .27 253.27 1.06 253.93 1.06 253.93 3.09 252.89 3.09"/>
    <polygon class="cls-4" points="250.01 3.09 250.01 3.88 252.89 3.88 252.89 3.09 251.84 3.09 251.84 1.06 252.5 1.06 252.5 .27 250.39 .27 250.39 1.06 251.05 1.06 251.05 3.09 250.01 3.09"/>
    <polygon class="cls-4" points="247.13 3.09 247.13 3.88 250.01 3.88 250.01 3.09 248.96 3.09 248.96 1.06 249.62 1.06 249.62 .27 247.51 .27 247.51 1.06 248.17 1.06 248.17 3.09 247.13 3.09"/>
    <polygon class="cls-4" points="244.25 3.09 244.25 3.88 247.13 3.88 247.13 3.09 246.08 3.09 246.08 1.06 246.74 1.06 246.74 .27 244.63 .27 244.63 1.06 245.29 1.06 245.29 3.09 244.25 3.09"/>
    <polygon class="cls-4" points="241.37 3.09 241.37 3.88 244.25 3.88 244.25 3.09 243.2 3.09 243.2 1.06 243.86 1.06 243.86 .27 241.75 .27 241.75 1.06 242.41 1.06 242.41 3.09 241.37 3.09"/>
    <polygon class="cls-4" points="238.48 3.09 238.48 3.88 241.37 3.88 241.37 3.09 240.31 3.09 240.31 1.06 240.97 1.06 240.97 .27 238.87 .27 238.87 1.06 239.53 1.06 239.53 3.09 238.48 3.09"/>
    <polygon class="cls-4" points="235.6 3.09 235.6 3.88 238.48 3.88 238.48 3.09 237.43 3.09 237.43 1.06 238.09 1.06 238.09 .27 235.99 .27 235.99 1.06 236.65 1.06 236.65 3.09 235.6 3.09"/>
    <polygon class="cls-4" points="232.72 3.09 232.72 3.88 235.6 3.88 235.6 3.09 234.55 3.09 234.55 1.06 235.21 1.06 235.21 .27 233.1 .27 233.1 1.06 233.76 1.06 233.76 3.09 232.72 3.09"/>
    <polygon class="cls-4" points="229.84 3.09 229.84 3.88 232.72 3.88 232.72 3.09 231.67 3.09 231.67 1.06 232.33 1.06 232.33 .27 230.22 .27 230.22 1.06 230.88 1.06 230.88 3.09 229.84 3.09"/>
    <polygon class="cls-4" points="226.96 3.09 226.96 3.88 229.84 3.88 229.84 3.09 228.79 3.09 228.79 1.06 229.45 1.06 229.45 .27 227.34 .27 227.34 1.06 228 1.06 228 3.09 226.96 3.09"/>
    <polygon class="cls-4" points="224.08 3.09 224.08 3.88 226.96 3.88 226.96 3.09 225.91 3.09 225.91 1.06 226.57 1.06 226.57 .27 224.46 .27 224.46 1.06 225.12 1.06 225.12 3.09 224.08 3.09"/>
    <polygon class="cls-4" points="221.2 3.09 221.2 3.88 224.08 3.88 224.08 3.09 223.03 3.09 223.03 1.06 223.69 1.06 223.69 .27 221.58 .27 221.58 1.06 222.24 1.06 222.24 3.09 221.2 3.09"/>
    <polygon class="cls-4" points="218.32 3.09 218.32 3.88 221.2 3.88 221.2 3.09 220.15 3.09 220.15 1.06 220.81 1.06 220.81 .27 218.7 .27 218.7 1.06 219.36 1.06 219.36 3.09 218.32 3.09"/>
    <polygon class="cls-4" points="215.44 3.09 215.44 3.88 218.32 3.88 218.32 3.09 217.27 3.09 217.27 1.06 217.92 1.06 217.92 .27 215.82 .27 215.82 1.06 216.48 1.06 216.48 3.09 215.44 3.09"/>
    <polygon class="cls-4" points="212.55 3.09 212.55 3.88 215.44 3.88 215.44 3.09 214.38 3.09 214.38 1.06 215.04 1.06 215.04 .27 212.94 .27 212.94 1.06 213.6 1.06 213.6 3.09 212.55 3.09"/>
    <polygon class="cls-4" points="209.67 3.09 209.67 3.88 212.55 3.88 212.55 3.09 211.5 3.09 211.5 1.06 212.16 1.06 212.16 .27 210.06 .27 210.06 1.06 210.71 1.06 210.71 3.09 209.67 3.09"/>
    <polygon class="cls-4" points="206.79 3.09 206.79 3.88 209.67 3.88 209.67 3.09 208.62 3.09 208.62 1.06 209.28 1.06 209.28 .27 207.17 .27 207.17 1.06 207.83 1.06 207.83 3.09 206.79 3.09"/>
    <polygon class="cls-4" points="203.91 3.09 203.91 3.88 206.79 3.88 206.79 3.09 205.74 3.09 205.74 1.06 206.4 1.06 206.4 .27 204.29 .27 204.29 1.06 204.95 1.06 204.95 3.09 203.91 3.09"/>
    <polygon class="cls-4" points="201.03 3.09 201.03 3.88 203.91 3.88 203.91 3.09 202.86 3.09 202.86 1.06 203.52 1.06 203.52 .27 201.41 .27 201.41 1.06 202.07 1.06 202.07 3.09 201.03 3.09"/>
    <polygon class="cls-4" points="198.15 3.09 198.15 3.88 201.03 3.88 201.03 3.09 199.98 3.09 199.98 1.06 200.64 1.06 200.64 .27 198.53 .27 198.53 1.06 199.19 1.06 199.19 3.09 198.15 3.09"/>
    <polygon class="cls-4" points="195.27 3.09 195.27 3.88 198.15 3.88 198.15 3.09 197.1 3.09 197.1 1.06 197.76 1.06 197.76 .27 195.65 .27 195.65 1.06 196.31 1.06 196.31 3.09 195.27 3.09"/>
    <polygon class="cls-4" points="192.39 3.09 192.39 3.88 195.27 3.88 195.27 3.09 194.22 3.09 194.22 1.06 194.88 1.06 194.88 .27 192.77 .27 192.77 1.06 193.43 1.06 193.43 3.09 192.39 3.09"/>
    <polygon class="cls-4" points="189.5 3.09 189.5 3.88 192.39 3.88 192.39 3.09 191.33 3.09 191.33 1.06 191.99 1.06 191.99 .27 189.89 .27 189.89 1.06 190.55 1.06 190.55 3.09 189.5 3.09"/>
    <polygon class="cls-4" points="186.62 3.09 186.62 3.88 189.5 3.88 189.5 3.09 188.45 3.09 188.45 1.06 189.11 1.06 189.11 .27 187.01 .27 187.01 1.06 187.67 1.06 187.67 3.09 186.62 3.09"/>
    <polygon class="cls-4" points="183.74 3.09 183.74 3.88 186.62 3.88 186.62 3.09 185.57 3.09 185.57 1.06 186.23 1.06 186.23 .27 184.13 .27 184.13 1.06 184.78 1.06 184.78 3.09 183.74 3.09"/>
    <polygon class="cls-4" points="180.86 3.09 180.86 3.88 183.74 3.88 183.74 3.09 182.69 3.09 182.69 1.06 183.35 1.06 183.35 .27 181.24 .27 181.24 1.06 181.9 1.06 181.9 3.09 180.86 3.09"/>
    <polygon class="cls-4" points="177.98 3.09 177.98 3.88 180.86 3.88 180.86 3.09 179.81 3.09 179.81 1.06 180.47 1.06 180.47 .27 178.36 .27 178.36 1.06 179.02 1.06 179.02 3.09 177.98 3.09"/>
    <polygon class="cls-4" points="175.1 3.09 175.1 3.88 177.98 3.88 177.98 3.09 176.93 3.09 176.93 1.06 177.59 1.06 177.59 .27 175.48 .27 175.48 1.06 176.14 1.06 176.14 3.09 175.1 3.09"/>
    <polygon class="cls-4" points="172.22 3.09 172.22 3.88 175.1 3.88 175.1 3.09 174.05 3.09 174.05 1.06 174.71 1.06 174.71 .27 172.6 .27 172.6 1.06 173.26 1.06 173.26 3.09 172.22 3.09"/>
    <polygon class="cls-4" points="169.34 3.09 169.34 3.88 172.22 3.88 172.22 3.09 171.17 3.09 171.17 1.06 171.83 1.06 171.83 .27 169.72 .27 169.72 1.06 170.38 1.06 170.38 3.09 169.34 3.09"/>
    <polygon class="cls-4" points="166.46 3.09 166.46 3.88 169.34 3.88 169.34 3.09 168.29 3.09 168.29 1.06 168.95 1.06 168.95 .27 166.84 .27 166.84 1.06 167.5 1.06 167.5 3.09 166.46 3.09"/>
    <polygon class="cls-4" points="163.57 3.09 163.57 3.88 166.46 3.88 166.46 3.09 165.4 3.09 165.4 1.06 166.06 1.06 166.06 .27 163.96 .27 163.96 1.06 164.62 1.06 164.62 3.09 163.57 3.09"/>
    <polygon class="cls-4" points="160.69 3.09 160.69 3.88 163.57 3.88 163.57 3.09 162.52 3.09 162.52 1.06 163.18 1.06 163.18 .27 161.08 .27 161.08 1.06 161.74 1.06 161.74 3.09 160.69 3.09"/>
    <polygon class="cls-4" points="157.81 3.09 157.81 3.88 160.69 3.88 160.69 3.09 159.64 3.09 159.64 1.06 160.3 1.06 160.3 .27 158.19 .27 158.19 1.06 158.85 1.06 158.85 3.09 157.81 3.09"/>
    <polygon class="cls-4" points="154.93 3.09 154.93 3.88 157.81 3.88 157.81 3.09 156.76 3.09 156.76 1.06 157.42 1.06 157.42 .27 155.31 .27 155.31 1.06 155.97 1.06 155.97 3.09 154.93 3.09"/>
    <polygon class="cls-4" points="152.05 3.09 152.05 3.88 154.93 3.88 154.93 3.09 153.88 3.09 153.88 1.06 154.54 1.06 154.54 .27 152.43 .27 152.43 1.06 153.09 1.06 153.09 3.09 152.05 3.09"/>
    <polygon class="cls-4" points="149.17 3.09 149.17 3.88 152.05 3.88 152.05 3.09 151 3.09 151 1.06 151.66 1.06 151.66 .27 149.55 .27 149.55 1.06 150.21 1.06 150.21 3.09 149.17 3.09"/>
    <polygon class="cls-4" points="146.29 3.09 146.29 3.88 149.17 3.88 149.17 3.09 148.12 3.09 148.12 1.06 148.78 1.06 148.78 .27 146.67 .27 146.67 1.06 147.33 1.06 147.33 3.09 146.29 3.09"/>
    <polygon class="cls-4" points="143.41 3.09 143.41 3.88 146.29 3.88 146.29 3.09 145.24 3.09 145.24 1.06 145.9 1.06 145.9 .27 143.79 .27 143.79 1.06 144.45 1.06 144.45 3.09 143.41 3.09"/>
    <polygon class="cls-4" points="140.52 3.09 140.52 3.88 143.41 3.88 143.41 3.09 142.36 3.09 142.36 1.06 143.01 1.06 143.01 .27 140.91 .27 140.91 1.06 141.57 1.06 141.57 3.09 140.52 3.09"/>
    <polygon class="cls-4" points="137.64 3.09 137.64 3.88 140.52 3.88 140.52 3.09 139.47 3.09 139.47 1.06 140.13 1.06 140.13 .27 138.03 .27 138.03 1.06 138.69 1.06 138.69 3.09 137.64 3.09"/>
    <polygon class="cls-4" points="134.76 3.09 134.76 3.88 137.64 3.88 137.64 3.09 136.59 3.09 136.59 1.06 137.25 1.06 137.25 .27 135.15 .27 135.15 1.06 135.8 1.06 135.8 3.09 134.76 3.09"/>
    <polygon class="cls-4" points="131.88 3.09 131.88 3.88 134.76 3.88 134.76 3.09 133.71 3.09 133.71 1.06 134.37 1.06 134.37 .27 132.26 .27 132.26 1.06 132.92 1.06 132.92 3.09 131.88 3.09"/>
    <polygon class="cls-4" points="129 3.09 129 3.88 131.88 3.88 131.88 3.09 130.83 3.09 130.83 1.06 131.49 1.06 131.49 .27 129.38 .27 129.38 1.06 130.04 1.06 130.04 3.09 129 3.09"/>
    <polygon class="cls-4" points="126.12 3.09 126.12 3.88 129 3.88 129 3.09 127.95 3.09 127.95 1.06 128.61 1.06 128.61 .27 126.5 .27 126.5 1.06 127.16 1.06 127.16 3.09 126.12 3.09"/>
    <polygon class="cls-4" points="123.24 3.09 123.24 3.88 126.12 3.88 126.12 3.09 125.07 3.09 125.07 1.06 125.73 1.06 125.73 .27 123.62 .27 123.62 1.06 124.28 1.06 124.28 3.09 123.24 3.09"/>
    <polygon class="cls-4" points="120.36 3.09 120.36 3.88 123.24 3.88 123.24 3.09 122.19 3.09 122.19 1.06 122.85 1.06 122.85 .27 120.74 .27 120.74 1.06 121.4 1.06 121.4 3.09 120.36 3.09"/>
    <polygon class="cls-4" points="117.48 3.09 117.48 3.88 120.36 3.88 120.36 3.09 119.31 3.09 119.31 1.06 119.97 1.06 119.97 .27 117.86 .27 117.86 1.06 118.52 1.06 118.52 3.09 117.48 3.09"/>
    <polygon class="cls-4" points="114.59 3.09 114.59 3.88 117.48 3.88 117.48 3.09 116.42 3.09 116.42 1.06 117.08 1.06 117.08 .27 114.98 .27 114.98 1.06 115.64 1.06 115.64 3.09 114.59 3.09"/>
    <polygon class="cls-4" points="111.71 3.09 111.71 3.88 114.59 3.88 114.59 3.09 113.54 3.09 113.54 1.06 114.2 1.06 114.2 .27 112.1 .27 112.1 1.06 112.76 1.06 112.76 3.09 111.71 3.09"/>
    <polygon class="cls-4" points="108.83 3.09 108.83 3.88 111.71 3.88 111.71 3.09 110.66 3.09 110.66 1.06 111.32 1.06 111.32 .27 109.21 .27 109.21 1.06 109.87 1.06 109.87 3.09 108.83 3.09"/>
    <polygon class="cls-4" points="105.95 3.09 105.95 3.88 108.83 3.88 108.83 3.09 107.78 3.09 107.78 1.06 108.44 1.06 108.44 .27 106.33 .27 106.33 1.06 106.99 1.06 106.99 3.09 105.95 3.09"/>
    <polygon class="cls-4" points="103.07 3.09 103.07 3.88 105.95 3.88 105.95 3.09 104.9 3.09 104.9 1.06 105.56 1.06 105.56 .27 103.45 .27 103.45 1.06 104.11 1.06 104.11 3.09 103.07 3.09"/>
    <polygon class="cls-4" points="100.19 3.09 100.19 3.88 103.07 3.88 103.07 3.09 102.02 3.09 102.02 1.06 102.68 1.06 102.68 .27 100.57 .27 100.57 1.06 101.23 1.06 101.23 3.09 100.19 3.09"/>
    <polygon class="cls-4" points="97.31 3.09 97.31 3.88 100.19 3.88 100.19 3.09 99.14 3.09 99.14 1.06 99.8 1.06 99.8 .27 97.69 .27 97.69 1.06 98.35 1.06 98.35 3.09 97.31 3.09"/>
    <polygon class="cls-4" points="94.43 3.09 94.43 3.88 97.31 3.88 97.31 3.09 96.26 3.09 96.26 1.06 96.92 1.06 96.92 .27 94.81 .27 94.81 1.06 95.47 1.06 95.47 3.09 94.43 3.09"/>
    <polygon class="cls-4" points="91.55 3.09 91.55 3.88 94.43 3.88 94.43 3.09 93.38 3.09 93.38 1.06 94.03 1.06 94.03 .27 91.93 .27 91.93 1.06 92.59 1.06 92.59 3.09 91.55 3.09"/>
    <polygon class="cls-4" points="88.66 3.09 88.66 3.88 91.55 3.88 91.55 3.09 90.49 3.09 90.49 1.06 91.15 1.06 91.15 .27 89.05 .27 89.05 1.06 89.71 1.06 89.71 3.09 88.66 3.09"/>
    <polygon class="cls-4" points="85.78 3.09 85.78 3.88 88.66 3.88 88.66 3.09 87.61 3.09 87.61 1.06 88.27 1.06 88.27 .27 86.17 .27 86.17 1.06 86.82 1.06 86.82 3.09 85.78 3.09"/>
    <polygon class="cls-4" points="82.9 3.09 82.9 3.88 85.78 3.88 85.78 3.09 84.73 3.09 84.73 1.06 85.39 1.06 85.39 .27 83.28 .27 83.28 1.06 83.94 1.06 83.94 3.09 82.9 3.09"/>
    <polygon class="cls-4" points="80.02 3.09 80.02 3.88 82.9 3.88 82.9 3.09 81.85 3.09 81.85 1.06 82.51 1.06 82.51 .27 80.4 .27 80.4 1.06 81.06 1.06 81.06 3.09 80.02 3.09"/>
    <polygon class="cls-4" points="77.14 3.09 77.14 3.88 80.02 3.88 80.02 3.09 78.97 3.09 78.97 1.06 79.63 1.06 79.63 .27 77.52 .27 77.52 1.06 78.18 1.06 78.18 3.09 77.14 3.09"/>
    <polygon class="cls-4" points="74.26 3.09 74.26 3.88 77.14 3.88 77.14 3.09 76.09 3.09 76.09 1.06 76.75 1.06 76.75 .27 74.64 .27 74.64 1.06 75.3 1.06 75.3 3.09 74.26 3.09"/>
    <polygon class="cls-4" points="71.38 3.09 71.38 3.88 74.26 3.88 74.26 3.09 73.21 3.09 73.21 1.06 73.87 1.06 73.87 .27 71.76 .27 71.76 1.06 72.42 1.06 72.42 3.09 71.38 3.09"/>
    <polygon class="cls-4" points="68.5 3.09 68.5 3.88 71.38 3.88 71.38 3.09 70.33 3.09 70.33 1.06 70.99 1.06 70.99 .27 68.88 .27 68.88 1.06 69.54 1.06 69.54 3.09 68.5 3.09"/>
    <polygon class="cls-4" points="65.61 3.09 65.61 3.88 68.5 3.88 68.5 3.09 67.44 3.09 67.44 1.06 68.1 1.06 68.1 .27 66 .27 66 1.06 66.66 1.06 66.66 3.09 65.61 3.09"/>
    <polygon class="cls-4" points="62.73 3.09 62.73 3.88 65.61 3.88 65.61 3.09 64.56 3.09 64.56 1.06 65.22 1.06 65.22 .27 63.12 .27 63.12 1.06 63.78 1.06 63.78 3.09 62.73 3.09"/>
    <polygon class="cls-4" points="59.85 3.09 59.85 3.88 62.73 3.88 62.73 3.09 61.68 3.09 61.68 1.06 62.34 1.06 62.34 .27 60.24 .27 60.24 1.06 60.89 1.06 60.89 3.09 59.85 3.09"/>
    <polygon class="cls-4" points="56.97 3.09 56.97 3.88 59.85 3.88 59.85 3.09 58.8 3.09 58.8 1.06 59.46 1.06 59.46 .27 57.35 .27 57.35 1.06 58.01 1.06 58.01 3.09 56.97 3.09"/>
    <polygon class="cls-4" points="54.09 3.09 54.09 3.88 56.97 3.88 56.97 3.09 55.92 3.09 55.92 1.06 56.58 1.06 56.58 .27 54.47 .27 54.47 1.06 55.13 1.06 55.13 3.09 54.09 3.09"/>
    <polygon class="cls-4" points="51.21 3.09 51.21 3.88 54.09 3.88 54.09 3.09 53.04 3.09 53.04 1.06 53.7 1.06 53.7 .27 51.59 .27 51.59 1.06 52.25 1.06 52.25 3.09 51.21 3.09"/>
    <polygon class="cls-4" points="48.33 3.09 48.33 3.88 51.21 3.88 51.21 3.09 50.16 3.09 50.16 1.06 50.82 1.06 50.82 .27 48.71 .27 48.71 1.06 49.37 1.06 49.37 3.09 48.33 3.09"/>
    <polygon class="cls-4" points="45.45 3.09 45.45 3.88 48.33 3.88 48.33 3.09 47.28 3.09 47.28 1.06 47.94 1.06 47.94 .27 45.83 .27 45.83 1.06 46.49 1.06 46.49 3.09 45.45 3.09"/>
    <polygon class="cls-4" points="42.57 3.09 42.57 3.88 45.45 3.88 45.45 3.09 44.4 3.09 44.4 1.06 45.06 1.06 45.06 .27 42.95 .27 42.95 1.06 43.61 1.06 43.61 3.09 42.57 3.09"/>
    <polygon class="cls-4" points="39.68 3.09 39.68 3.88 42.57 3.88 42.57 3.09 41.51 3.09 41.51 1.06 42.17 1.06 42.17 .27 40.07 .27 40.07 1.06 40.73 1.06 40.73 3.09 39.68 3.09"/>
    <polygon class="cls-4" points="36.8 3.09 36.8 3.88 39.68 3.88 39.68 3.09 38.63 3.09 38.63 1.06 39.29 1.06 39.29 .27 37.19 .27 37.19 1.06 37.85 1.06 37.85 3.09 36.8 3.09"/>
    <polygon class="cls-4" points="33.92 3.09 33.92 3.88 36.8 3.88 36.8 3.09 35.75 3.09 35.75 1.06 36.41 1.06 36.41 .27 34.3 .27 34.3 1.06 34.96 1.06 34.96 3.09 33.92 3.09"/>
    <polygon class="cls-4" points="31.04 3.09 31.04 3.88 33.92 3.88 33.92 3.09 32.87 3.09 32.87 1.06 33.53 1.06 33.53 .27 31.42 .27 31.42 1.06 32.08 1.06 32.08 3.09 31.04 3.09"/>
    <polygon class="cls-4" points="28.16 3.09 28.16 3.88 31.04 3.88 31.04 3.09 29.99 3.09 29.99 1.06 30.65 1.06 30.65 .27 28.54 .27 28.54 1.06 29.2 1.06 29.2 3.09 28.16 3.09"/>
    <polygon class="cls-4" points="25.28 3.09 25.28 3.88 28.16 3.88 28.16 3.09 27.11 3.09 27.11 1.06 27.77 1.06 27.77 .27 25.66 .27 25.66 1.06 26.32 1.06 26.32 3.09 25.28 3.09"/>
    <polygon class="cls-4" points="22.4 3.09 22.4 3.88 25.28 3.88 25.28 3.09 24.23 3.09 24.23 1.06 24.89 1.06 24.89 .27 22.78 .27 22.78 1.06 23.44 1.06 23.44 3.09 22.4 3.09"/>
    <polygon class="cls-4" points="19.52 3.09 19.52 3.88 22.4 3.88 22.4 3.09 21.35 3.09 21.35 1.06 22.01 1.06 22.01 .27 19.9 .27 19.9 1.06 20.56 1.06 20.56 3.09 19.52 3.09"/>
    <polygon class="cls-4" points="16.63 3.09 16.63 3.88 19.52 3.88 19.52 3.09 18.47 3.09 18.47 1.06 19.12 1.06 19.12 .27 17.02 .27 17.02 1.06 17.68 1.06 17.68 3.09 16.63 3.09"/>
    <polygon class="cls-4" points="13.75 3.09 13.75 3.88 16.63 3.88 16.63 3.09 15.58 3.09 15.58 1.06 16.24 1.06 16.24 .27 14.14 .27 14.14 1.06 14.8 1.06 14.8 3.09 13.75 3.09"/>
    <polygon class="cls-4" points="10.87 3.09 10.87 3.88 13.75 3.88 13.75 3.09 12.7 3.09 12.7 1.06 13.36 1.06 13.36 .27 11.26 .27 11.26 1.06 11.91 1.06 11.91 3.09 10.87 3.09"/>
    <polygon class="cls-4" points="7.99 3.09 7.99 3.88 10.87 3.88 10.87 3.09 9.82 3.09 9.82 1.06 10.48 1.06 10.48 .27 8.37 .27 8.37 1.06 9.03 1.06 9.03 3.09 7.99 3.09"/>
    <polygon class="cls-4" points="5.11 3.09 5.11 3.88 7.99 3.88 7.99 3.09 6.94 3.09 6.94 1.06 7.6 1.06 7.6 .27 5.49 .27 5.49 1.06 6.15 1.06 6.15 3.09 5.11 3.09"/>
    <polygon class="cls-4" points="4.32 6.76 5.11 6.76 5.11 3.88 4.32 3.88 4.32 4.93 2.29 4.93 2.29 4.27 1.5 4.27 1.5 6.38 2.29 6.38 2.29 5.72 4.32 5.72 4.32 6.76"/>
    <polygon class="cls-4" points="4.32 9.65 5.11 9.65 5.11 6.76 4.32 6.76 4.32 7.82 2.29 7.82 2.29 7.16 1.5 7.16 1.5 9.27 2.29 9.27 2.29 8.61 4.32 8.61 4.32 9.65"/>
    <polygon class="cls-4" points="4.32 12.54 5.11 12.54 5.11 9.65 4.32 9.65 4.32 10.7 2.29 10.7 2.29 10.04 1.5 10.04 1.5 12.15 2.29 12.15 2.29 11.49 4.32 11.49 4.32 12.54"/>
    <polygon class="cls-4" points="4.32 15.42 5.11 15.42 5.11 12.54 4.32 12.54 4.32 13.59 2.29 13.59 2.29 12.93 1.5 12.93 1.5 15.04 2.29 15.04 2.29 14.38 4.32 14.38 4.32 15.42"/>
    <polygon class="cls-4" points="4.32 18.31 5.11 18.31 5.11 15.42 4.32 15.42 4.32 16.48 2.29 16.48 2.29 15.82 1.5 15.82 1.5 17.93 2.29 17.93 2.29 17.27 4.32 17.27 4.32 18.31"/>
    <polygon class="cls-4" points="4.32 21.2 5.11 21.2 5.11 18.31 4.32 18.31 4.32 19.36 2.29 19.36 2.29 18.7 1.5 18.7 1.5 20.81 2.29 20.81 2.29 20.15 4.32 20.15 4.32 21.2"/>
    <polygon class="cls-4" points="4.32 24.08 5.11 24.08 5.11 21.2 4.32 21.2 4.32 22.25 2.29 22.25 2.29 21.59 1.5 21.59 1.5 23.7 2.29 23.7 2.29 23.04 4.32 23.04 4.32 24.08"/>
    <polygon class="cls-4" points="4.32 26.97 5.11 26.97 5.11 24.08 4.32 24.08 4.32 25.14 2.29 25.14 2.29 24.47 1.5 24.47 1.5 26.59 2.29 26.59 2.29 25.92 4.32 25.92 4.32 26.97"/>
    <polygon class="cls-4" points="4.32 29.86 5.11 29.86 5.11 26.97 4.32 26.97 4.32 28.02 2.29 28.02 2.29 27.36 1.5 27.36 1.5 29.47 2.29 29.47 2.29 28.81 4.32 28.81 4.32 29.86"/>
    <polygon class="cls-4" points="4.32 32.74 5.11 32.74 5.11 29.86 4.32 29.86 4.32 30.91 2.29 30.91 2.29 30.25 1.5 30.25 1.5 32.36 2.29 32.36 2.29 31.7 4.32 31.7 4.32 32.74"/>
    <polygon class="cls-4" points="4.32 35.63 5.11 35.63 5.11 32.74 4.32 32.74 4.32 33.79 2.29 33.79 2.29 33.13 1.5 33.13 1.5 35.24 2.29 35.24 2.29 34.58 4.32 34.58 4.32 35.63"/>
    <polygon class="cls-4" points="4.32 38.51 5.11 38.51 5.11 35.63 4.32 35.63 4.32 36.68 2.29 36.68 2.29 36.02 1.5 36.02 1.5 38.13 2.29 38.13 2.29 37.47 4.32 37.47 4.32 38.51"/>
    <polygon class="cls-4" points="4.32 41.4 5.11 41.4 5.11 38.51 4.32 38.51 4.32 39.57 2.29 39.57 2.29 38.91 1.5 38.91 1.5 41.02 2.29 41.02 2.29 40.36 4.32 40.36 4.32 41.4"/>
    <polygon class="cls-4" points="4.32 44.29 5.11 44.29 5.11 41.4 4.32 41.4 4.32 42.45 2.29 42.45 2.29 41.79 1.5 41.79 1.5 43.9 2.29 43.9 2.29 43.24 4.32 43.24 4.32 44.29"/>
    <polygon class="cls-4" points="4.32 47.17 5.11 47.17 5.11 44.29 4.32 44.29 4.32 45.34 2.29 45.34 2.29 44.68 1.5 44.68 1.5 46.79 2.29 46.79 2.29 46.13 4.32 46.13 4.32 47.17"/>
    <polygon class="cls-4" points="4.32 50.06 5.11 50.06 5.11 47.17 4.32 47.17 4.32 48.23 2.29 48.23 2.29 47.57 1.5 47.57 1.5 49.68 2.29 49.68 2.29 49.02 4.32 49.02 4.32 50.06"/>
    <polygon class="cls-4" points="4.32 52.95 5.11 52.95 5.11 50.06 4.32 50.06 4.32 51.11 2.29 51.11 2.29 50.45 1.5 50.45 1.5 52.56 2.29 52.56 2.29 51.9 4.32 51.9 4.32 52.95"/>
    <polygon class="cls-4" points="4.32 55.83 5.11 55.83 5.11 52.95 4.32 52.95 4.32 54 2.29 54 2.29 53.34 1.5 53.34 1.5 55.45 2.29 55.45 2.29 54.79 4.32 54.79 4.32 55.83"/>
    <polygon class="cls-4" points="4.32 58.72 5.11 58.72 5.11 55.83 4.32 55.83 4.32 56.89 2.29 56.89 2.29 56.22 1.5 56.22 1.5 58.34 2.29 58.34 2.29 57.67 4.32 57.67 4.32 58.72"/>
    <polygon class="cls-4" points="4.32 61.61 5.11 61.61 5.11 58.72 4.32 58.72 4.32 59.77 2.29 59.77 2.29 59.11 1.5 59.11 1.5 61.22 2.29 61.22 2.29 60.56 4.32 60.56 4.32 61.61"/>
    <polygon class="cls-4" points="4.32 64.49 5.11 64.49 5.11 61.61 4.32 61.61 4.32 62.66 2.29 62.66 2.29 62 1.5 62 1.5 64.11 2.29 64.11 2.29 63.45 4.32 63.45 4.32 64.49"/>
    <polygon class="cls-4" points="4.32 67.38 5.11 67.38 5.11 64.49 4.32 64.49 4.32 65.54 2.29 65.54 2.29 64.88 1.5 64.88 1.5 66.99 2.29 66.99 2.29 66.33 4.32 66.33 4.32 67.38"/>
    <polygon class="cls-4" points="4.32 70.26 5.11 70.26 5.11 67.38 4.32 67.38 4.32 68.43 2.29 68.43 2.29 67.77 1.5 67.77 1.5 69.88 2.29 69.88 2.29 69.22 4.32 69.22 4.32 70.26"/>
    <polygon class="cls-4" points="4.32 73.15 5.11 73.15 5.11 70.26 4.32 70.26 4.32 71.32 2.29 71.32 2.29 70.66 1.5 70.66 1.5 72.77 2.29 72.77 2.29 72.11 4.32 72.11 4.32 73.15"/>
    <polygon class="cls-4" points="4.32 76.04 5.11 76.04 5.11 73.15 4.32 73.15 4.32 74.2 2.29 74.2 2.29 73.54 1.5 73.54 1.5 75.65 2.29 75.65 2.29 74.99 4.32 74.99 4.32 76.04"/>
    <polygon class="cls-4" points="4.32 78.92 5.11 78.92 5.11 76.04 4.32 76.04 4.32 77.09 2.29 77.09 2.29 76.43 1.5 76.43 1.5 78.54 2.29 78.54 2.29 77.88 4.32 77.88 4.32 78.92"/>
    <polygon class="cls-4" points="4.32 81.81 5.11 81.81 5.11 78.92 4.32 78.92 4.32 79.98 2.29 79.98 2.29 79.32 1.5 79.32 1.5 81.43 2.29 81.43 2.29 80.77 4.32 80.77 4.32 81.81"/>
    <polygon class="cls-4" points="4.32 84.7 5.11 84.7 5.11 81.81 4.32 81.81 4.32 82.86 2.29 82.86 2.29 82.2 1.5 82.2 1.5 84.31 2.29 84.31 2.29 83.65 4.32 83.65 4.32 84.7"/>
    <g class="cls-8">
      <polygon class="cls-4" points="458.47 131.35 458.55 130.56 454.57 130.16 454.49 130.95 455.94 131.09 455.74 133.11 454.83 133.02 454.75 133.81 457.65 134.1 457.73 133.32 456.82 133.22 457.03 131.2 458.47 131.35"/>
    </g>
    <g class="cls-6">
      <polygon class="cls-4" points="455.36 130.16 454.57 130.16 454.57 134.16 455.36 134.16 455.36 132.7 457.39 132.7 457.39 133.61 458.18 133.61 458.18 130.69 457.39 130.69 457.39 131.61 455.36 131.61 455.36 130.16"/>
    </g>
    <g class="cls-1">
      <polygon class="cls-4" points="455.36 .27 454.57 .27 454.57 3.88 455.36 3.88 455.36 2.56 457.39 2.56 457.39 3.39 458.18 3.39 458.18 .75 457.39 .75 457.39 1.57 455.36 1.57 455.36 .27"/>
    </g>
    <g class="cls-9">
      <polygon class="cls-4" points="454.57 3.09 454.57 3.88 458.18 3.88 458.18 3.09 456.87 3.09 456.87 1.06 457.69 1.06 457.69 .27 455.05 .27 455.05 1.06 455.88 1.06 455.88 3.09 454.57 3.09"/>
    </g>
    <g class="cls-7">
      <polygon class="cls-4" points="1.5 3.09 1.5 3.88 5.11 3.88 5.11 3.09 3.79 3.09 3.79 1.06 4.62 1.06 4.62 .27 1.98 .27 1.98 1.06 2.81 1.06 2.81 3.09 1.5 3.09"/>
    </g>
    <g class="cls-10">
      <polygon class="cls-4" points="4.32 3.88 5.11 3.88 5.11 .27 4.32 .27 4.32 1.58 2.29 1.58 2.29 .76 1.5 .76 1.5 3.4 2.29 3.4 2.29 2.57 4.32 2.57 4.32 3.88"/>
    </g>
    <g class="cls-2">
      <polygon class="cls-4" points="4.32 87.96 5.11 87.96 5.11 84.7 4.32 84.7 4.32 85.89 2.29 85.89 2.29 85.14 1.5 85.14 1.5 87.53 2.29 87.53 2.29 86.78 4.32 86.78 4.32 87.96"/>
    </g>
    <g class="cls-5">
      <polygon class="cls-4" points="5.03 85.48 5.11 84.7 1.86 84.37 1.78 85.15 2.97 85.27 2.76 87.29 2.02 87.22 1.94 88 4.32 88.25 4.39 87.46 3.65 87.38 3.86 85.36 5.03 85.48"/>
    </g>
  </g>
</svg>