<?xml version="1.0" encoding="UTF-8"?>
<svg id="En_Tablet_-_third_divider" data-name="En Tablet - third divider" xmlns="http://www.w3.org/2000/svg" version="1.1" xmlns:xlink="http://www.w3.org/1999/xlink" viewBox="0 0 184.13 37.15">
  <defs>
    <style>
      .cls-1 {
        clip-path: url(#clippath-2);
      }

      .cls-2 {
        clip-path: url(#clippath-6);
      }

      .cls-3 {
        fill: none;
      }

      .cls-3, .cls-4 {
        stroke-width: 0px;
      }

      .cls-5 {
        clip-path: url(#clippath-7);
      }

      .cls-6 {
        clip-path: url(#clippath-1);
      }

      .cls-7 {
        clip-path: url(#clippath-4);
      }

      .cls-4 {
        fill: #fed700;
      }

      .cls-8 {
        clip-path: url(#clippath);
      }

      .cls-9 {
        clip-path: url(#clippath-3);
      }

      .cls-10 {
        clip-path: url(#clippath-5);
      }
    </style>
    <clipPath id="clippath">
      <polygon class="cls-3" points="181.89 34.68 184.06 37.1 181.65 36.83 181.89 34.68"/>
    </clipPath>
    <clipPath id="clippath-1">
      <polygon class="cls-3" points="181.89 34.68 184.06 37.1 184.06 34.68 181.89 34.68"/>
    </clipPath>
    <clipPath id="clippath-2">
      <polygon class="cls-3" points="181.89 2.34 184.06 .17 184.06 2.34 181.89 2.34"/>
    </clipPath>
    <clipPath id="clippath-3">
      <polygon class="cls-3" points="181.89 2.34 184.06 .17 181.89 .17 181.89 2.34"/>
    </clipPath>
    <clipPath id="clippath-4">
      <polygon class="cls-3" points="2.24 2.34 .07 .17 2.24 .17 2.24 2.34"/>
    </clipPath>
    <clipPath id="clippath-5">
      <polygon class="cls-3" points="2.24 2.34 .07 .17 .07 2.34 2.24 2.34"/>
    </clipPath>
    <clipPath id="clippath-6">
      <polygon class="cls-3" points="2.24 14.49 .07 16.43 .07 14.49 2.24 14.49"/>
    </clipPath>
    <clipPath id="clippath-7">
      <polygon class="cls-3" points="2.24 14.49 .07 16.43 1.99 16.64 2.24 14.49"/>
    </clipPath>
  </defs>
  <polygon class="cls-4" points="1.15 1.26 1.15 15.46 182.97 35.89 182.97 1.26 1.15 1.26"/>
  <g>
    <polygon class="cls-4" points="3.91 15.15 3.96 14.68 2.24 14.49 2.18 14.96 2.81 15.03 2.68 16.24 2.28 16.2 2.23 16.67 3.49 16.81 3.55 16.34 3.15 16.3 3.29 15.08 3.91 15.15"/>
    <polygon class="cls-4" points="5.64 15.35 5.69 14.88 3.96 14.68 3.91 15.15 4.54 15.23 4.4 16.44 4.01 16.39 3.96 16.86 5.22 17.01 5.27 16.53 4.88 16.49 5.01 15.28 5.64 15.35"/>
    <polygon class="cls-4" points="7.37 15.54 7.42 15.07 5.69 14.88 5.64 15.35 6.27 15.42 6.13 16.63 5.74 16.59 5.68 17.06 6.95 17.2 7 16.73 6.6 16.68 6.74 15.47 7.37 15.54"/>
    <polygon class="cls-4" points="9.09 15.74 9.15 15.27 7.42 15.07 7.37 15.54 8 15.61 7.86 16.83 7.46 16.78 7.41 17.25 8.67 17.39 8.73 16.92 8.33 16.88 8.47 15.67 9.09 15.74"/>
    <polygon class="cls-4" points="10.82 15.93 10.87 15.46 9.15 15.27 9.09 15.74 9.72 15.81 9.59 17.02 9.19 16.97 9.14 17.45 10.4 17.59 10.46 17.12 10.06 17.07 10.2 15.86 10.82 15.93"/>
    <polygon class="cls-4" points="12.55 16.13 12.6 15.65 10.87 15.46 10.82 15.93 11.45 16 11.31 17.21 10.92 17.17 10.87 17.64 12.13 17.78 12.18 17.31 11.79 17.27 11.92 16.05 12.55 16.13"/>
    <polygon class="cls-4" points="14.28 16.32 14.33 15.85 12.6 15.65 12.55 16.13 13.18 16.2 13.04 17.41 12.65 17.36 12.59 17.83 13.86 17.98 13.91 17.51 13.51 17.46 13.65 16.25 14.28 16.32"/>
    <polygon class="cls-4" points="16 16.51 16.06 16.04 14.33 15.85 14.28 16.32 14.91 16.39 14.77 17.6 14.37 17.56 14.32 18.03 15.58 18.17 15.64 17.7 15.24 17.65 15.38 16.44 16 16.51"/>
    <polygon class="cls-4" points="17.73 16.71 17.78 16.24 16.06 16.04 16 16.51 16.63 16.58 16.5 17.8 16.1 17.75 16.05 18.22 17.31 18.36 17.36 17.89 16.97 17.85 17.11 16.64 17.73 16.71"/>
    <polygon class="cls-4" points="19.46 16.9 19.51 16.43 17.78 16.24 17.73 16.71 18.36 16.78 18.22 17.99 17.83 17.95 17.78 18.42 19.04 18.56 19.09 18.09 18.7 18.04 18.83 16.83 19.46 16.9"/>
    <polygon class="cls-4" points="21.19 17.1 21.24 16.63 19.51 16.43 19.46 16.9 20.09 16.97 19.95 18.18 19.56 18.14 19.5 18.61 20.77 18.75 20.82 18.28 20.42 18.24 20.56 17.03 21.19 17.1"/>
    <polygon class="cls-4" points="22.91 17.29 22.97 16.82 21.24 16.63 21.19 17.1 21.82 17.17 21.68 18.38 21.28 18.33 21.23 18.8 22.49 18.95 22.55 18.48 22.15 18.43 22.29 17.22 22.91 17.29"/>
    <polygon class="cls-4" points="24.64 17.48 24.69 17.01 22.97 16.82 22.91 17.29 23.54 17.36 23.41 18.57 23.01 18.53 22.96 19 24.22 19.14 24.27 18.67 23.88 18.63 24.02 17.41 24.64 17.48"/>
    <polygon class="cls-4" points="26.37 17.68 26.42 17.21 24.69 17.01 24.64 17.48 25.27 17.55 25.13 18.77 24.74 18.72 24.69 19.19 25.95 19.33 26 18.86 25.61 18.82 25.74 17.61 26.37 17.68"/>
    <polygon class="cls-4" points="28.1 17.87 28.15 17.4 26.42 17.21 26.37 17.68 27 17.75 26.86 18.96 26.47 18.92 26.41 19.39 27.68 19.53 27.73 19.06 27.33 19.01 27.47 17.8 28.1 17.87"/>
    <polygon class="cls-4" points="29.82 18.07 29.88 17.6 28.15 17.4 28.1 17.87 28.73 17.94 28.59 19.15 28.19 19.11 28.14 19.58 29.4 19.72 29.46 19.25 29.06 19.21 29.2 18 29.82 18.07"/>
    <polygon class="cls-4" points="31.55 18.26 31.6 17.79 29.88 17.6 29.82 18.07 30.45 18.14 30.32 19.35 29.92 19.3 29.87 19.78 31.13 19.92 31.18 19.45 30.79 19.4 30.93 18.19 31.55 18.26"/>
    <polygon class="cls-4" points="33.28 18.45 33.33 17.98 31.6 17.79 31.55 18.26 32.18 18.33 32.04 19.54 31.65 19.5 31.6 19.97 32.86 20.11 32.91 19.64 32.52 19.6 32.65 18.38 33.28 18.45"/>
    <polygon class="cls-4" points="35.01 18.65 35.06 18.18 33.33 17.98 33.28 18.45 33.91 18.53 33.77 19.74 33.38 19.69 33.32 20.16 34.59 20.31 34.64 19.83 34.24 19.79 34.38 18.58 35.01 18.65"/>
    <polygon class="cls-4" points="36.73 18.84 36.79 18.37 35.06 18.18 35.01 18.65 35.64 18.72 35.5 19.93 35.1 19.89 35.05 20.36 36.31 20.5 36.37 20.03 35.97 19.98 36.11 18.77 36.73 18.84"/>
    <polygon class="cls-4" points="38.46 19.04 38.51 18.57 36.79 18.37 36.73 18.84 37.36 18.91 37.23 20.13 36.83 20.08 36.78 20.55 38.04 20.69 38.09 20.22 37.7 20.18 37.84 18.97 38.46 19.04"/>
    <polygon class="cls-4" points="40.19 19.23 40.24 18.76 38.51 18.57 38.46 19.04 39.09 19.11 38.95 20.32 38.56 20.28 38.51 20.75 39.77 20.89 39.82 20.42 39.43 20.37 39.56 19.16 40.19 19.23"/>
    <polygon class="cls-4" points="41.91 19.43 41.97 18.95 40.24 18.76 40.19 19.23 40.82 19.3 40.68 20.51 40.29 20.47 40.23 20.94 41.5 21.08 41.55 20.61 41.15 20.57 41.29 19.36 41.91 19.43"/>
    <polygon class="cls-4" points="43.64 19.62 43.7 19.15 41.97 18.95 41.91 19.43 42.54 19.5 42.41 20.71 42.01 20.66 41.96 21.13 43.22 21.28 43.28 20.81 42.88 20.76 43.02 19.55 43.64 19.62"/>
    <polygon class="cls-4" points="45.37 19.81 45.42 19.34 43.7 19.15 43.64 19.62 44.27 19.69 44.14 20.9 43.74 20.86 43.69 21.33 44.95 21.47 45 21 44.61 20.96 44.74 19.74 45.37 19.81"/>
    <polygon class="cls-4" points="47.1 20.01 47.15 19.54 45.42 19.34 45.37 19.81 46 19.88 45.86 21.1 45.47 21.05 45.42 21.52 46.68 21.66 46.73 21.19 46.34 21.15 46.47 19.94 47.1 20.01"/>
    <polygon class="cls-4" points="48.82 20.2 48.88 19.73 47.15 19.54 47.1 20.01 47.73 20.08 47.59 21.29 47.2 21.25 47.14 21.72 48.41 21.86 48.46 21.39 48.06 21.34 48.2 20.13 48.82 20.2"/>
    <polygon class="cls-4" points="50.55 20.4 50.6 19.93 48.88 19.73 48.82 20.2 49.45 20.27 49.32 21.48 48.92 21.44 48.87 21.91 50.13 22.05 50.19 21.58 49.79 21.54 49.93 20.33 50.55 20.4"/>
    <polygon class="cls-4" points="52.28 20.59 52.33 20.12 50.6 19.93 50.55 20.4 51.18 20.47 51.05 21.68 50.65 21.63 50.6 22.11 51.86 22.25 51.91 21.78 51.52 21.73 51.65 20.52 52.28 20.59"/>
    <polygon class="cls-4" points="54.01 20.78 54.06 20.31 52.33 20.12 52.28 20.59 52.91 20.66 52.77 21.87 52.38 21.83 52.33 22.3 53.59 22.44 53.64 21.97 53.25 21.93 53.38 20.71 54.01 20.78"/>
    <polygon class="cls-4" points="55.73 20.98 55.79 20.51 54.06 20.31 54.01 20.78 54.64 20.86 54.5 22.07 54.11 22.02 54.05 22.49 55.32 22.64 55.37 22.16 54.97 22.12 55.11 20.91 55.73 20.98"/>
    <polygon class="cls-4" points="57.46 21.17 57.51 20.7 55.79 20.51 55.73 20.98 56.36 21.05 56.23 22.26 55.83 22.22 55.78 22.69 57.04 22.83 57.1 22.36 56.7 22.31 56.84 21.1 57.46 21.17"/>
    <polygon class="cls-4" points="59.19 21.37 59.24 20.9 57.51 20.7 57.46 21.17 58.09 21.24 57.96 22.46 57.56 22.41 57.51 22.88 58.77 23.02 58.82 22.55 58.43 22.51 58.56 21.3 59.19 21.37"/>
    <polygon class="cls-4" points="60.92 21.56 60.97 21.09 59.24 20.9 59.19 21.37 59.82 21.44 59.68 22.65 59.29 22.61 59.23 23.08 60.5 23.22 60.55 22.75 60.16 22.7 60.29 21.49 60.92 21.56"/>
    <polygon class="cls-4" points="62.64 21.76 62.7 21.28 60.97 21.09 60.92 21.56 61.55 21.63 61.41 22.84 61.02 22.8 60.96 23.27 62.23 23.41 62.28 22.94 61.88 22.9 62.02 21.69 62.64 21.76"/>
    <polygon class="cls-4" points="64.37 21.95 64.42 21.48 62.7 21.28 62.64 21.76 63.27 21.83 63.14 23.04 62.74 22.99 62.69 23.46 63.95 23.61 64.01 23.14 63.61 23.09 63.75 21.88 64.37 21.95"/>
    <polygon class="cls-4" points="66.1 22.14 66.15 21.67 64.42 21.48 64.37 21.95 65 22.02 64.87 23.23 64.47 23.19 64.42 23.66 65.68 23.8 65.73 23.33 65.34 23.29 65.47 22.07 66.1 22.14"/>
    <polygon class="cls-4" points="67.83 22.34 67.88 21.87 66.15 21.67 66.1 22.14 66.73 22.21 66.59 23.43 66.2 23.38 66.14 23.85 67.41 23.99 67.46 23.52 67.07 23.48 67.2 22.27 67.83 22.34"/>
    <polygon class="cls-4" points="69.55 22.53 69.61 22.06 67.88 21.87 67.83 22.34 68.46 22.41 68.32 23.62 67.92 23.58 67.87 24.05 69.14 24.19 69.19 23.72 68.79 23.67 68.93 22.46 69.55 22.53"/>
    <polygon class="cls-4" points="71.28 22.73 71.33 22.26 69.61 22.06 69.55 22.53 70.18 22.6 70.05 23.81 69.65 23.77 69.6 24.24 70.86 24.38 70.92 23.91 70.52 23.87 70.66 22.66 71.28 22.73"/>
    <polygon class="cls-4" points="73.01 22.92 73.06 22.45 71.33 22.26 71.28 22.73 71.91 22.8 71.78 24.01 71.38 23.96 71.33 24.43 72.59 24.58 72.64 24.11 72.25 24.06 72.38 22.85 73.01 22.92"/>
    <polygon class="cls-4" points="74.74 23.11 74.79 22.64 73.06 22.45 73.01 22.92 73.64 22.99 73.5 24.2 73.11 24.16 73.05 24.63 74.32 24.77 74.37 24.3 73.98 24.26 74.11 23.04 74.74 23.11"/>
    <polygon class="cls-4" points="76.46 23.31 76.52 22.84 74.79 22.64 74.74 23.11 75.37 23.19 75.23 24.4 74.83 24.35 74.78 24.82 76.05 24.97 76.1 24.49 75.7 24.45 75.84 23.24 76.46 23.31"/>
    <polygon class="cls-4" points="78.19 23.5 78.24 23.03 76.52 22.84 76.46 23.31 77.09 23.38 76.96 24.59 76.56 24.55 76.51 25.02 77.77 25.16 77.83 24.69 77.43 24.64 77.57 23.43 78.19 23.5"/>
    <polygon class="cls-4" points="79.92 23.7 79.97 23.23 78.24 23.03 78.19 23.5 78.82 23.57 78.68 24.79 78.29 24.74 78.24 25.21 79.5 25.35 79.55 24.88 79.16 24.84 79.29 23.63 79.92 23.7"/>
    <polygon class="cls-4" points="81.65 23.89 81.7 23.42 79.97 23.23 79.92 23.7 80.55 23.77 80.41 24.98 80.02 24.93 79.96 25.41 81.23 25.55 81.28 25.08 80.88 25.03 81.02 23.82 81.65 23.89"/>
    <polygon class="cls-4" points="83.37 24.09 83.43 23.61 81.7 23.42 81.65 23.89 82.28 23.96 82.14 25.17 81.74 25.13 81.69 25.6 82.95 25.74 83.01 25.27 82.61 25.23 82.75 24.01 83.37 24.09"/>
    <polygon class="cls-4" points="85.1 24.28 85.15 23.81 83.43 23.61 83.37 24.09 84 24.16 83.87 25.37 83.47 25.32 83.42 25.79 84.68 25.94 84.74 25.47 84.34 25.42 84.48 24.21 85.1 24.28"/>
    <polygon class="cls-4" points="86.83 24.47 86.88 24 85.15 23.81 85.1 24.28 85.73 24.35 85.59 25.56 85.2 25.52 85.15 25.99 86.41 26.13 86.46 25.66 86.07 25.61 86.2 24.4 86.83 24.47"/>
    <polygon class="cls-4" points="88.56 24.67 88.61 24.2 86.88 24 86.83 24.47 87.46 24.54 87.32 25.76 86.93 25.71 86.87 26.18 88.14 26.32 88.19 25.85 87.79 25.81 87.93 24.6 88.56 24.67"/>
    <polygon class="cls-4" points="90.28 24.86 90.34 24.39 88.61 24.2 88.56 24.67 89.19 24.74 89.05 25.95 88.65 25.91 88.6 26.38 89.86 26.52 89.92 26.05 89.52 26 89.66 24.79 90.28 24.86"/>
    <polygon class="cls-4" points="92.01 25.06 92.06 24.59 90.34 24.39 90.28 24.86 90.91 24.93 90.78 26.14 90.38 26.1 90.33 26.57 91.59 26.71 91.64 26.24 91.25 26.2 91.39 24.99 92.01 25.06"/>
    <polygon class="cls-4" points="93.74 25.25 93.79 24.78 92.06 24.59 92.01 25.06 92.64 25.13 92.5 26.34 92.11 26.29 92.06 26.76 93.32 26.91 93.37 26.44 92.98 26.39 93.11 25.18 93.74 25.25"/>
    <polygon class="cls-4" points="95.47 25.44 95.52 24.97 93.79 24.78 93.74 25.25 94.37 25.32 94.23 26.53 93.84 26.49 93.78 26.96 95.05 27.1 95.1 26.63 94.7 26.59 94.84 25.37 95.47 25.44"/>
    <polygon class="cls-4" points="97.19 25.64 97.25 25.17 95.52 24.97 95.47 25.44 96.1 25.51 95.96 26.73 95.56 26.68 95.51 27.15 96.77 27.29 96.83 26.82 96.43 26.78 96.57 25.57 97.19 25.64"/>
    <polygon class="cls-4" points="98.92 25.83 98.97 25.36 97.25 25.17 97.19 25.64 97.82 25.71 97.69 26.92 97.29 26.88 97.24 27.35 98.5 27.49 98.55 27.02 98.16 26.97 98.3 25.76 98.92 25.83"/>
    <polygon class="cls-4" points="100.65 26.03 100.7 25.56 98.97 25.36 98.92 25.83 99.55 25.9 99.41 27.11 99.02 27.07 98.97 27.54 100.23 27.68 100.28 27.21 99.89 27.17 100.02 25.96 100.65 26.03"/>
    <polygon class="cls-4" points="102.38 26.22 102.43 25.75 100.7 25.56 100.65 26.03 101.28 26.1 101.14 27.31 100.75 27.26 100.69 27.74 101.96 27.88 102.01 27.41 101.61 27.36 101.75 26.15 102.38 26.22"/>
    <polygon class="cls-4" points="104.1 26.41 104.16 25.94 102.43 25.75 102.38 26.22 103.01 26.29 102.87 27.5 102.47 27.46 102.42 27.93 103.68 28.07 103.74 27.6 103.34 27.56 103.48 26.34 104.1 26.41"/>
    <polygon class="cls-4" points="105.83 26.61 105.88 26.14 104.16 25.94 104.1 26.41 104.73 26.49 104.6 27.7 104.2 27.65 104.15 28.12 105.41 28.27 105.46 27.79 105.07 27.75 105.21 26.54 105.83 26.61"/>
    <polygon class="cls-4" points="107.56 26.8 107.61 26.33 105.88 26.14 105.83 26.61 106.46 26.68 106.32 27.89 105.93 27.85 105.88 28.32 107.14 28.46 107.19 27.99 106.8 27.94 106.93 26.73 107.56 26.8"/>
    <polygon class="cls-4" points="109.29 27 109.34 26.53 107.61 26.33 107.56 26.8 108.19 26.87 108.05 28.09 107.66 28.04 107.6 28.51 108.87 28.65 108.92 28.18 108.52 28.14 108.66 26.93 109.29 27"/>
    <polygon class="cls-4" points="111.01 27.19 111.07 26.72 109.34 26.53 109.29 27 109.92 27.07 109.78 28.28 109.38 28.24 109.33 28.71 110.59 28.85 110.65 28.38 110.25 28.33 110.39 27.12 111.01 27.19"/>
    <polygon class="cls-4" points="112.74 27.39 112.79 26.91 111.07 26.72 111.01 27.19 111.64 27.26 111.51 28.47 111.11 28.43 111.06 28.9 112.32 29.04 112.37 28.57 111.98 28.53 112.12 27.32 112.74 27.39"/>
    <polygon class="cls-4" points="114.47 27.58 114.52 27.11 112.79 26.91 112.74 27.39 113.37 27.46 113.23 28.67 112.84 28.62 112.79 29.09 114.05 29.24 114.1 28.77 113.71 28.72 113.84 27.51 114.47 27.58"/>
    <polygon class="cls-4" points="116.19 27.77 116.25 27.3 114.52 27.11 114.47 27.58 115.1 27.65 114.96 28.86 114.57 28.82 114.51 29.29 115.78 29.43 115.83 28.96 115.43 28.92 115.57 27.7 116.19 27.77"/>
    <polygon class="cls-4" points="117.92 27.97 117.98 27.5 116.25 27.3 116.19 27.77 116.82 27.84 116.69 29.06 116.29 29.01 116.24 29.48 117.5 29.62 117.56 29.15 117.16 29.11 117.3 27.9 117.92 27.97"/>
    <polygon class="cls-4" points="119.65 28.16 119.7 27.69 117.98 27.5 117.92 27.97 118.55 28.04 118.42 29.25 118.02 29.21 117.97 29.68 119.23 29.82 119.28 29.35 118.89 29.3 119.02 28.09 119.65 28.16"/>
    <polygon class="cls-4" points="121.38 28.36 121.43 27.89 119.7 27.69 119.65 28.16 120.28 28.23 120.14 29.44 119.75 29.4 119.7 29.87 120.96 30.01 121.01 29.54 120.62 29.5 120.75 28.29 121.38 28.36"/>
    <polygon class="cls-4" points="123.1 28.55 123.16 28.08 121.43 27.89 121.38 28.36 122.01 28.43 121.87 29.64 121.48 29.59 121.42 30.07 122.69 30.21 122.74 29.74 122.34 29.69 122.48 28.48 123.1 28.55"/>
    <polygon class="cls-4" points="124.83 28.74 124.88 28.27 123.16 28.08 123.1 28.55 123.73 28.62 123.6 29.83 123.2 29.79 123.15 30.26 124.41 30.4 124.47 29.93 124.07 29.89 124.21 28.67 124.83 28.74"/>
    <polygon class="cls-4" points="126.56 28.94 126.61 28.47 124.88 28.27 124.83 28.74 125.46 28.82 125.33 30.03 124.93 29.98 124.88 30.45 126.14 30.6 126.19 30.12 125.8 30.08 125.93 28.87 126.56 28.94"/>
    <polygon class="cls-4" points="128.29 29.13 128.34 28.66 126.61 28.47 126.56 28.94 127.19 29.01 127.05 30.22 126.66 30.18 126.61 30.65 127.87 30.79 127.92 30.32 127.53 30.27 127.66 29.06 128.29 29.13"/>
    <polygon class="cls-4" points="130.01 29.33 130.07 28.86 128.34 28.66 128.29 29.13 128.92 29.2 128.78 30.42 128.39 30.37 128.33 30.84 129.6 30.98 129.65 30.51 129.25 30.47 129.39 29.26 130.01 29.33"/>
    <polygon class="cls-4" points="131.74 29.52 131.79 29.05 130.07 28.86 130.01 29.33 130.64 29.4 130.51 30.61 130.11 30.57 130.06 31.04 131.32 31.18 131.38 30.71 130.98 30.66 131.12 29.45 131.74 29.52"/>
    <polygon class="cls-4" points="133.47 29.72 133.52 29.24 131.79 29.05 131.74 29.52 132.37 29.59 132.24 30.8 131.84 30.76 131.79 31.23 133.05 31.37 133.1 30.9 132.71 30.86 132.84 29.65 133.47 29.72"/>
    <polygon class="cls-4" points="135.2 29.91 135.25 29.44 133.52 29.24 133.47 29.72 134.1 29.79 133.96 31 133.57 30.95 133.51 31.42 134.78 31.57 134.83 31.1 134.44 31.05 134.57 29.84 135.2 29.91"/>
    <polygon class="cls-4" points="136.92 30.1 136.98 29.63 135.25 29.44 135.2 29.91 135.83 29.98 135.69 31.19 135.3 31.15 135.24 31.62 136.51 31.76 136.56 31.29 136.16 31.25 136.3 30.03 136.92 30.1"/>
    <polygon class="cls-4" points="138.65 30.3 138.7 29.83 136.98 29.63 136.92 30.1 137.55 30.17 137.42 31.39 137.02 31.34 136.97 31.81 138.23 31.95 138.29 31.48 137.89 31.44 138.03 30.23 138.65 30.3"/>
    <polygon class="cls-4" points="140.38 30.49 140.43 30.02 138.7 29.83 138.65 30.3 139.28 30.37 139.15 31.58 138.75 31.54 138.7 32.01 139.96 32.15 140.01 31.68 139.62 31.63 139.75 30.42 140.38 30.49"/>
    <polygon class="cls-4" points="142.11 30.69 142.16 30.22 140.43 30.02 140.38 30.49 141.01 30.56 140.87 31.77 140.48 31.73 140.42 32.2 141.69 32.34 141.74 31.87 141.35 31.83 141.48 30.62 142.11 30.69"/>
    <polygon class="cls-4" points="143.83 30.88 143.89 30.41 142.16 30.22 142.11 30.69 142.74 30.76 142.6 31.97 142.2 31.92 142.15 32.39 143.42 32.54 143.47 32.07 143.07 32.02 143.21 30.81 143.83 30.88"/>
    <polygon class="cls-4" points="145.56 31.07 145.61 30.6 143.89 30.41 143.83 30.88 144.46 30.95 144.33 32.16 143.93 32.12 143.88 32.59 145.14 32.73 145.2 32.26 144.8 32.22 144.94 31 145.56 31.07"/>
    <polygon class="cls-4" points="147.29 31.27 147.34 30.8 145.61 30.6 145.56 31.07 146.19 31.15 146.06 32.36 145.66 32.31 145.61 32.78 146.87 32.93 146.92 32.45 146.53 32.41 146.66 31.2 147.29 31.27"/>
    <polygon class="cls-4" points="149.02 31.46 149.07 30.99 147.34 30.8 147.29 31.27 147.92 31.34 147.78 32.55 147.39 32.51 147.33 32.98 148.6 33.12 148.65 32.65 148.26 32.6 148.39 31.39 149.02 31.46"/>
    <polygon class="cls-4" points="150.74 31.66 150.8 31.19 149.07 30.99 149.02 31.46 149.65 31.53 149.51 32.75 149.11 32.7 149.06 33.17 150.33 33.31 150.38 32.84 149.98 32.8 150.12 31.59 150.74 31.66"/>
    <polygon class="cls-4" points="152.47 31.85 152.52 31.38 150.8 31.19 150.74 31.66 151.37 31.73 151.24 32.94 150.84 32.89 150.79 33.37 152.05 33.51 152.11 33.04 151.71 32.99 151.85 31.78 152.47 31.85"/>
    <polygon class="cls-4" points="154.2 32.05 154.25 31.57 152.52 31.38 152.47 31.85 153.1 31.92 152.96 33.13 152.57 33.09 152.52 33.56 153.78 33.7 153.83 33.23 153.44 33.19 153.57 31.97 154.2 32.05"/>
    <polygon class="cls-4" points="155.93 32.24 155.98 31.77 154.25 31.57 154.2 32.05 154.83 32.12 154.69 33.33 154.3 33.28 154.24 33.75 155.51 33.9 155.56 33.43 155.16 33.38 155.3 32.17 155.93 32.24"/>
    <polygon class="cls-4" points="157.65 32.43 157.71 31.96 155.98 31.77 155.93 32.24 156.56 32.31 156.42 33.52 156.02 33.48 155.97 33.95 157.23 34.09 157.29 33.62 156.89 33.57 157.03 32.36 157.65 32.43"/>
    <polygon class="cls-4" points="159.38 32.63 159.43 32.16 157.71 31.96 157.65 32.43 158.28 32.5 158.15 33.72 157.75 33.67 157.7 34.14 158.96 34.28 159.02 33.81 158.62 33.77 158.76 32.56 159.38 32.63"/>
    <polygon class="cls-4" points="161.11 32.82 161.16 32.35 159.43 32.16 159.38 32.63 160.01 32.7 159.87 33.91 159.48 33.87 159.43 34.34 160.69 34.48 160.74 34.01 160.35 33.96 160.48 32.75 161.11 32.82"/>
    <polygon class="cls-4" points="162.84 33.02 162.89 32.55 161.16 32.35 161.11 32.82 161.74 32.89 161.6 34.1 161.21 34.06 161.15 34.53 162.42 34.67 162.47 34.2 162.07 34.16 162.21 32.95 162.84 33.02"/>
    <polygon class="cls-4" points="164.56 33.21 164.62 32.74 162.89 32.55 162.84 33.02 163.47 33.09 163.33 34.3 162.93 34.25 162.88 34.72 164.14 34.87 164.2 34.4 163.8 34.35 163.94 33.14 164.56 33.21"/>
    <polygon class="cls-4" points="166.29 33.4 166.34 32.93 164.62 32.74 164.56 33.21 165.19 33.28 165.06 34.49 164.66 34.45 164.61 34.92 165.87 35.06 165.92 34.59 165.53 34.55 165.67 33.33 166.29 33.4"/>
    <polygon class="cls-4" points="168.02 33.6 168.07 33.13 166.34 32.93 166.29 33.4 166.92 33.47 166.78 34.69 166.39 34.64 166.34 35.11 167.6 35.25 167.65 34.78 167.26 34.74 167.39 33.53 168.02 33.6"/>
    <polygon class="cls-4" points="169.75 33.79 169.8 33.32 168.07 33.13 168.02 33.6 168.65 33.67 168.51 34.88 168.12 34.84 168.06 35.31 169.33 35.45 169.38 34.98 168.98 34.93 169.12 33.72 169.75 33.79"/>
    <polygon class="cls-4" points="171.47 33.99 171.53 33.52 169.8 33.32 169.75 33.79 170.38 33.86 170.24 35.07 169.84 35.03 169.79 35.5 171.05 35.64 171.11 35.17 170.71 35.13 170.85 33.92 171.47 33.99"/>
    <polygon class="cls-4" points="173.2 34.18 173.25 33.71 171.53 33.52 171.47 33.99 172.1 34.06 171.97 35.27 171.57 35.22 171.52 35.7 172.78 35.84 172.83 35.37 172.44 35.32 172.58 34.11 173.2 34.18"/>
    <polygon class="cls-4" points="174.93 34.37 174.98 33.9 173.25 33.71 173.2 34.18 173.83 34.25 173.69 35.46 173.3 35.42 173.25 35.89 174.51 36.03 174.56 35.56 174.17 35.52 174.3 34.3 174.93 34.37"/>
    <polygon class="cls-4" points="176.66 34.57 176.71 34.1 174.98 33.9 174.93 34.37 175.56 34.45 175.42 35.66 175.03 35.61 174.97 36.08 176.24 36.23 176.29 35.75 175.89 35.71 176.03 34.5 176.66 34.57"/>
    <polygon class="cls-4" points="178.38 34.76 178.44 34.29 176.71 34.1 176.66 34.57 177.29 34.64 177.15 35.85 176.75 35.81 176.7 36.28 177.96 36.42 178.02 35.95 177.62 35.9 177.76 34.69 178.38 34.76"/>
    <polygon class="cls-4" points="180.11 34.96 180.16 34.49 178.44 34.29 178.38 34.76 179.01 34.83 178.88 36.05 178.48 36 178.43 36.47 179.69 36.61 179.74 36.14 179.35 36.1 179.49 34.89 180.11 34.96"/>
    <polygon class="cls-4" points="181.84 35.15 181.89 34.68 180.16 34.49 180.11 34.96 180.74 35.03 180.6 36.24 180.21 36.2 180.16 36.67 181.42 36.81 181.47 36.34 181.08 36.29 181.21 35.08 181.84 35.15"/>
    <polygon class="cls-4" points="182.36 32.98 181.89 32.98 181.89 34.68 182.36 34.68 182.36 34.06 183.58 34.06 183.58 34.45 184.06 34.45 184.06 33.2 183.58 33.2 183.58 33.59 182.36 33.59 182.36 32.98"/>
    <polygon class="cls-4" points="182.36 31.28 181.89 31.28 181.89 32.98 182.36 32.98 182.36 32.36 183.58 32.36 183.58 32.75 184.06 32.75 184.06 31.5 183.58 31.5 183.58 31.89 182.36 31.89 182.36 31.28"/>
    <polygon class="cls-4" points="182.36 29.57 181.89 29.57 181.89 31.28 182.36 31.28 182.36 30.66 183.58 30.66 183.58 31.05 184.06 31.05 184.06 29.8 183.58 29.8 183.58 30.19 182.36 30.19 182.36 29.57"/>
    <polygon class="cls-4" points="182.36 27.87 181.89 27.87 181.89 29.57 182.36 29.57 182.36 28.95 183.58 28.95 183.58 29.34 184.06 29.34 184.06 28.1 183.58 28.1 183.58 28.49 182.36 28.49 182.36 27.87"/>
    <polygon class="cls-4" points="182.36 26.17 181.89 26.17 181.89 27.87 182.36 27.87 182.36 27.25 183.58 27.25 183.58 27.64 184.06 27.64 184.06 26.4 183.58 26.4 183.58 26.79 182.36 26.79 182.36 26.17"/>
    <polygon class="cls-4" points="182.36 24.47 181.89 24.47 181.89 26.17 182.36 26.17 182.36 25.55 183.58 25.55 183.58 25.94 184.06 25.94 184.06 24.69 183.58 24.69 183.58 25.08 182.36 25.08 182.36 24.47"/>
    <polygon class="cls-4" points="182.36 22.77 181.89 22.77 181.89 24.47 182.36 24.47 182.36 23.85 183.58 23.85 183.58 24.24 184.06 24.24 184.06 22.99 183.58 22.99 183.58 23.38 182.36 23.38 182.36 22.77"/>
    <polygon class="cls-4" points="182.36 21.06 181.89 21.06 181.89 22.77 182.36 22.77 182.36 22.14 183.58 22.14 183.58 22.53 184.06 22.53 184.06 21.29 183.58 21.29 183.58 21.68 182.36 21.68 182.36 21.06"/>
    <polygon class="cls-4" points="182.36 19.36 181.89 19.36 181.89 21.06 182.36 21.06 182.36 20.44 183.58 20.44 183.58 20.83 184.06 20.83 184.06 19.59 183.58 19.59 183.58 19.98 182.36 19.98 182.36 19.36"/>
    <polygon class="cls-4" points="182.36 17.66 181.89 17.66 181.89 19.36 182.36 19.36 182.36 18.74 183.58 18.74 183.58 19.13 184.06 19.13 184.06 17.89 183.58 17.89 183.58 18.27 182.36 18.27 182.36 17.66"/>
    <polygon class="cls-4" points="182.36 15.96 181.89 15.96 181.89 17.66 182.36 17.66 182.36 17.04 183.58 17.04 183.58 17.43 184.06 17.43 184.06 16.18 183.58 16.18 183.58 16.57 182.36 16.57 182.36 15.96"/>
    <polygon class="cls-4" points="182.36 14.25 181.89 14.25 181.89 15.96 182.36 15.96 182.36 15.34 183.58 15.34 183.58 15.73 184.06 15.73 184.06 14.48 183.58 14.48 183.58 14.87 182.36 14.87 182.36 14.25"/>
    <polygon class="cls-4" points="182.36 12.55 181.89 12.55 181.89 14.25 182.36 14.25 182.36 13.63 183.58 13.63 183.58 14.02 184.06 14.02 184.06 12.78 183.58 12.78 183.58 13.17 182.36 13.17 182.36 12.55"/>
    <polygon class="cls-4" points="182.36 10.85 181.89 10.85 181.89 12.55 182.36 12.55 182.36 11.93 183.58 11.93 183.58 12.32 184.06 12.32 184.06 11.08 183.58 11.08 183.58 11.47 182.36 11.47 182.36 10.85"/>
    <polygon class="cls-4" points="182.36 9.15 181.89 9.15 181.89 10.85 182.36 10.85 182.36 10.23 183.58 10.23 183.58 10.62 184.06 10.62 184.06 9.37 183.58 9.37 183.58 9.76 182.36 9.76 182.36 9.15"/>
    <polygon class="cls-4" points="182.36 7.45 181.89 7.45 181.89 9.15 182.36 9.15 182.36 8.53 183.58 8.53 183.58 8.92 184.06 8.92 184.06 7.67 183.58 7.67 183.58 8.06 182.36 8.06 182.36 7.45"/>
    <polygon class="cls-4" points="182.36 5.74 181.89 5.74 181.89 7.45 182.36 7.45 182.36 6.83 183.58 6.83 183.58 7.21 184.06 7.21 184.06 5.97 183.58 5.97 183.58 6.36 182.36 6.36 182.36 5.74"/>
    <polygon class="cls-4" points="182.36 4.04 181.89 4.04 181.89 5.74 182.36 5.74 182.36 5.12 183.58 5.12 183.58 5.51 184.06 5.51 184.06 4.27 183.58 4.27 183.58 4.66 182.36 4.66 182.36 4.04"/>
    <polygon class="cls-4" points="182.36 2.34 181.89 2.34 181.89 4.04 182.36 4.04 182.36 3.42 183.58 3.42 183.58 3.81 184.06 3.81 184.06 2.57 183.58 2.57 183.58 2.96 182.36 2.96 182.36 2.34"/>
    <polygon class="cls-4" points="180.16 1.87 180.16 2.34 181.89 2.34 181.89 1.87 181.26 1.87 181.26 .65 181.66 .65 181.66 .17 180.39 .17 180.39 .65 180.79 .65 180.79 1.87 180.16 1.87"/>
    <polygon class="cls-4" points="178.44 1.87 178.44 2.34 180.16 2.34 180.16 1.87 179.53 1.87 179.53 .65 179.93 .65 179.93 .17 178.67 .17 178.67 .65 179.06 .65 179.06 1.87 178.44 1.87"/>
    <polygon class="cls-4" points="176.71 1.87 176.71 2.34 178.44 2.34 178.44 1.87 177.81 1.87 177.81 .65 178.2 .65 178.2 .17 176.94 .17 176.94 .65 177.33 .65 177.33 1.87 176.71 1.87"/>
    <polygon class="cls-4" points="174.98 1.87 174.98 2.34 176.71 2.34 176.71 1.87 176.08 1.87 176.08 .65 176.47 .65 176.47 .17 175.21 .17 175.21 .65 175.61 .65 175.61 1.87 174.98 1.87"/>
    <polygon class="cls-4" points="173.25 1.87 173.25 2.34 174.98 2.34 174.98 1.87 174.35 1.87 174.35 .65 174.75 .65 174.75 .17 173.48 .17 173.48 .65 173.88 .65 173.88 1.87 173.25 1.87"/>
    <polygon class="cls-4" points="171.53 1.87 171.53 2.34 173.25 2.34 173.25 1.87 172.62 1.87 172.62 .65 173.02 .65 173.02 .17 171.76 .17 171.76 .65 172.15 .65 172.15 1.87 171.53 1.87"/>
    <polygon class="cls-4" points="169.8 1.87 169.8 2.34 171.53 2.34 171.53 1.87 170.9 1.87 170.9 .65 171.29 .65 171.29 .17 170.03 .17 170.03 .65 170.42 .65 170.42 1.87 169.8 1.87"/>
    <polygon class="cls-4" points="168.07 1.87 168.07 2.34 169.8 2.34 169.8 1.87 169.17 1.87 169.17 .65 169.56 .65 169.56 .17 168.3 .17 168.3 .65 168.7 .65 168.7 1.87 168.07 1.87"/>
    <polygon class="cls-4" points="166.34 1.87 166.34 2.34 168.07 2.34 168.07 1.87 167.44 1.87 167.44 .65 167.84 .65 167.84 .17 166.57 .17 166.57 .65 166.97 .65 166.97 1.87 166.34 1.87"/>
    <polygon class="cls-4" points="164.62 1.87 164.62 2.34 166.34 2.34 166.34 1.87 165.71 1.87 165.71 .65 166.11 .65 166.11 .17 164.85 .17 164.85 .65 165.24 .65 165.24 1.87 164.62 1.87"/>
    <polygon class="cls-4" points="162.89 1.87 162.89 2.34 164.62 2.34 164.62 1.87 163.99 1.87 163.99 .65 164.38 .65 164.38 .17 163.12 .17 163.12 .65 163.51 .65 163.51 1.87 162.89 1.87"/>
    <polygon class="cls-4" points="161.16 1.87 161.16 2.34 162.89 2.34 162.89 1.87 162.26 1.87 162.26 .65 162.65 .65 162.65 .17 161.39 .17 161.39 .65 161.79 .65 161.79 1.87 161.16 1.87"/>
    <polygon class="cls-4" points="159.43 1.87 159.43 2.34 161.16 2.34 161.16 1.87 160.53 1.87 160.53 .65 160.93 .65 160.93 .17 159.66 .17 159.66 .65 160.06 .65 160.06 1.87 159.43 1.87"/>
    <polygon class="cls-4" points="157.71 1.87 157.71 2.34 159.43 2.34 159.43 1.87 158.8 1.87 158.8 .65 159.2 .65 159.2 .17 157.94 .17 157.94 .65 158.33 .65 158.33 1.87 157.71 1.87"/>
    <polygon class="cls-4" points="155.98 1.87 155.98 2.34 157.71 2.34 157.71 1.87 157.08 1.87 157.08 .65 157.47 .65 157.47 .17 156.21 .17 156.21 .65 156.6 .65 156.6 1.87 155.98 1.87"/>
    <polygon class="cls-4" points="154.25 1.87 154.25 2.34 155.98 2.34 155.98 1.87 155.35 1.87 155.35 .65 155.74 .65 155.74 .17 154.48 .17 154.48 .65 154.88 .65 154.88 1.87 154.25 1.87"/>
    <polygon class="cls-4" points="152.52 1.87 152.52 2.34 154.25 2.34 154.25 1.87 153.62 1.87 153.62 .65 154.02 .65 154.02 .17 152.75 .17 152.75 .65 153.15 .65 153.15 1.87 152.52 1.87"/>
    <polygon class="cls-4" points="150.8 1.87 150.8 2.34 152.52 2.34 152.52 1.87 151.89 1.87 151.89 .65 152.29 .65 152.29 .17 151.03 .17 151.03 .65 151.42 .65 151.42 1.87 150.8 1.87"/>
    <polygon class="cls-4" points="149.07 1.87 149.07 2.34 150.8 2.34 150.8 1.87 150.17 1.87 150.17 .65 150.56 .65 150.56 .17 149.3 .17 149.3 .65 149.69 .65 149.69 1.87 149.07 1.87"/>
    <polygon class="cls-4" points="147.34 1.87 147.34 2.34 149.07 2.34 149.07 1.87 148.44 1.87 148.44 .65 148.83 .65 148.83 .17 147.57 .17 147.57 .65 147.97 .65 147.97 1.87 147.34 1.87"/>
    <polygon class="cls-4" points="145.61 1.87 145.61 2.34 147.34 2.34 147.34 1.87 146.71 1.87 146.71 .65 147.11 .65 147.11 .17 145.84 .17 145.84 .65 146.24 .65 146.24 1.87 145.61 1.87"/>
    <polygon class="cls-4" points="143.89 1.87 143.89 2.34 145.61 2.34 145.61 1.87 144.98 1.87 144.98 .65 145.38 .65 145.38 .17 144.12 .17 144.12 .65 144.51 .65 144.51 1.87 143.89 1.87"/>
    <polygon class="cls-4" points="142.16 1.87 142.16 2.34 143.89 2.34 143.89 1.87 143.26 1.87 143.26 .65 143.65 .65 143.65 .17 142.39 .17 142.39 .65 142.78 .65 142.78 1.87 142.16 1.87"/>
    <polygon class="cls-4" points="140.43 1.87 140.43 2.34 142.16 2.34 142.16 1.87 141.53 1.87 141.53 .65 141.92 .65 141.92 .17 140.66 .17 140.66 .65 141.06 .65 141.06 1.87 140.43 1.87"/>
    <polygon class="cls-4" points="138.7 1.87 138.7 2.34 140.43 2.34 140.43 1.87 139.8 1.87 139.8 .65 140.2 .65 140.2 .17 138.93 .17 138.93 .65 139.33 .65 139.33 1.87 138.7 1.87"/>
    <polygon class="cls-4" points="136.98 1.87 136.98 2.34 138.7 2.34 138.7 1.87 138.07 1.87 138.07 .65 138.47 .65 138.47 .17 137.21 .17 137.21 .65 137.6 .65 137.6 1.87 136.98 1.87"/>
    <polygon class="cls-4" points="135.25 1.87 135.25 2.34 136.98 2.34 136.98 1.87 136.35 1.87 136.35 .65 136.74 .65 136.74 .17 135.48 .17 135.48 .65 135.87 .65 135.87 1.87 135.25 1.87"/>
    <polygon class="cls-4" points="133.52 1.87 133.52 2.34 135.25 2.34 135.25 1.87 134.62 1.87 134.62 .65 135.02 .65 135.02 .17 133.75 .17 133.75 .65 134.15 .65 134.15 1.87 133.52 1.87"/>
    <polygon class="cls-4" points="131.79 1.87 131.79 2.34 133.52 2.34 133.52 1.87 132.89 1.87 132.89 .65 133.29 .65 133.29 .17 132.02 .17 132.02 .65 132.42 .65 132.42 1.87 131.79 1.87"/>
    <polygon class="cls-4" points="130.07 1.87 130.07 2.34 131.79 2.34 131.79 1.87 131.16 1.87 131.16 .65 131.56 .65 131.56 .17 130.3 .17 130.3 .65 130.69 .65 130.69 1.87 130.07 1.87"/>
    <polygon class="cls-4" points="128.34 1.87 128.34 2.34 130.07 2.34 130.07 1.87 129.44 1.87 129.44 .65 129.83 .65 129.83 .17 128.57 .17 128.57 .65 128.96 .65 128.96 1.87 128.34 1.87"/>
    <polygon class="cls-4" points="126.61 1.87 126.61 2.34 128.34 2.34 128.34 1.87 127.71 1.87 127.71 .65 128.11 .65 128.11 .17 126.84 .17 126.84 .65 127.24 .65 127.24 1.87 126.61 1.87"/>
    <polygon class="cls-4" points="124.88 1.87 124.88 2.34 126.61 2.34 126.61 1.87 125.98 1.87 125.98 .65 126.38 .65 126.38 .17 125.11 .17 125.11 .65 125.51 .65 125.51 1.87 124.88 1.87"/>
    <polygon class="cls-4" points="123.16 1.87 123.16 2.34 124.88 2.34 124.88 1.87 124.25 1.87 124.25 .65 124.65 .65 124.65 .17 123.39 .17 123.39 .65 123.78 .65 123.78 1.87 123.16 1.87"/>
    <polygon class="cls-4" points="121.43 1.87 121.43 2.34 123.16 2.34 123.16 1.87 122.53 1.87 122.53 .65 122.92 .65 122.92 .17 121.66 .17 121.66 .65 122.05 .65 122.05 1.87 121.43 1.87"/>
    <polygon class="cls-4" points="119.7 1.87 119.7 2.34 121.43 2.34 121.43 1.87 120.8 1.87 120.8 .65 121.2 .65 121.2 .17 119.93 .17 119.93 .65 120.33 .65 120.33 1.87 119.7 1.87"/>
    <polygon class="cls-4" points="117.98 1.87 117.98 2.34 119.7 2.34 119.7 1.87 119.07 1.87 119.07 .65 119.47 .65 119.47 .17 118.2 .17 118.2 .65 118.6 .65 118.6 1.87 117.98 1.87"/>
    <polygon class="cls-4" points="116.25 1.87 116.25 2.34 117.98 2.34 117.98 1.87 117.35 1.87 117.35 .65 117.74 .65 117.74 .17 116.48 .17 116.48 .65 116.87 .65 116.87 1.87 116.25 1.87"/>
    <polygon class="cls-4" points="114.52 1.87 114.52 2.34 116.25 2.34 116.25 1.87 115.62 1.87 115.62 .65 116.01 .65 116.01 .17 114.75 .17 114.75 .65 115.15 .65 115.15 1.87 114.52 1.87"/>
    <polygon class="cls-4" points="112.79 1.87 112.79 2.34 114.52 2.34 114.52 1.87 113.89 1.87 113.89 .65 114.29 .65 114.29 .17 113.02 .17 113.02 .65 113.42 .65 113.42 1.87 112.79 1.87"/>
    <polygon class="cls-4" points="111.07 1.87 111.07 2.34 112.79 2.34 112.79 1.87 112.16 1.87 112.16 .65 112.56 .65 112.56 .17 111.3 .17 111.3 .65 111.69 .65 111.69 1.87 111.07 1.87"/>
    <polygon class="cls-4" points="109.34 1.87 109.34 2.34 111.07 2.34 111.07 1.87 110.44 1.87 110.44 .65 110.83 .65 110.83 .17 109.57 .17 109.57 .65 109.96 .65 109.96 1.87 109.34 1.87"/>
    <polygon class="cls-4" points="107.61 1.87 107.61 2.34 109.34 2.34 109.34 1.87 108.71 1.87 108.71 .65 109.1 .65 109.1 .17 107.84 .17 107.84 .65 108.24 .65 108.24 1.87 107.61 1.87"/>
    <polygon class="cls-4" points="105.88 1.87 105.88 2.34 107.61 2.34 107.61 1.87 106.98 1.87 106.98 .65 107.38 .65 107.38 .17 106.11 .17 106.11 .65 106.51 .65 106.51 1.87 105.88 1.87"/>
    <polygon class="cls-4" points="104.16 1.87 104.16 2.34 105.88 2.34 105.88 1.87 105.25 1.87 105.25 .65 105.65 .65 105.65 .17 104.39 .17 104.39 .65 104.78 .65 104.78 1.87 104.16 1.87"/>
    <polygon class="cls-4" points="102.43 1.87 102.43 2.34 104.16 2.34 104.16 1.87 103.53 1.87 103.53 .65 103.92 .65 103.92 .17 102.66 .17 102.66 .65 103.05 .65 103.05 1.87 102.43 1.87"/>
    <polygon class="cls-4" points="100.7 1.87 100.7 2.34 102.43 2.34 102.43 1.87 101.8 1.87 101.8 .65 102.19 .65 102.19 .17 100.93 .17 100.93 .65 101.33 .65 101.33 1.87 100.7 1.87"/>
    <polygon class="cls-4" points="98.97 1.87 98.97 2.34 100.7 2.34 100.7 1.87 100.07 1.87 100.07 .65 100.47 .65 100.47 .17 99.2 .17 99.2 .65 99.6 .65 99.6 1.87 98.97 1.87"/>
    <polygon class="cls-4" points="97.25 1.87 97.25 2.34 98.97 2.34 98.97 1.87 98.34 1.87 98.34 .65 98.74 .65 98.74 .17 97.48 .17 97.48 .65 97.87 .65 97.87 1.87 97.25 1.87"/>
    <polygon class="cls-4" points="95.52 1.87 95.52 2.34 97.25 2.34 97.25 1.87 96.62 1.87 96.62 .65 97.01 .65 97.01 .17 95.75 .17 95.75 .65 96.14 .65 96.14 1.87 95.52 1.87"/>
    <polygon class="cls-4" points="93.79 1.87 93.79 2.34 95.52 2.34 95.52 1.87 94.89 1.87 94.89 .65 95.28 .65 95.28 .17 94.02 .17 94.02 .65 94.42 .65 94.42 1.87 93.79 1.87"/>
    <polygon class="cls-4" points="92.06 1.87 92.06 2.34 93.79 2.34 93.79 1.87 93.16 1.87 93.16 .65 93.56 .65 93.56 .17 92.29 .17 92.29 .65 92.69 .65 92.69 1.87 92.06 1.87"/>
    <polygon class="cls-4" points="90.34 1.87 90.34 2.34 92.06 2.34 92.06 1.87 91.43 1.87 91.43 .65 91.83 .65 91.83 .17 90.57 .17 90.57 .65 90.96 .65 90.96 1.87 90.34 1.87"/>
    <polygon class="cls-4" points="88.61 1.87 88.61 2.34 90.34 2.34 90.34 1.87 89.71 1.87 89.71 .65 90.1 .65 90.1 .17 88.84 .17 88.84 .65 89.23 .65 89.23 1.87 88.61 1.87"/>
    <polygon class="cls-4" points="86.88 1.87 86.88 2.34 88.61 2.34 88.61 1.87 87.98 1.87 87.98 .65 88.37 .65 88.37 .17 87.11 .17 87.11 .65 87.51 .65 87.51 1.87 86.88 1.87"/>
    <polygon class="cls-4" points="85.15 1.87 85.15 2.34 86.88 2.34 86.88 1.87 86.25 1.87 86.25 .65 86.65 .65 86.65 .17 85.38 .17 85.38 .65 85.78 .65 85.78 1.87 85.15 1.87"/>
    <polygon class="cls-4" points="83.43 1.87 83.43 2.34 85.15 2.34 85.15 1.87 84.52 1.87 84.52 .65 84.92 .65 84.92 .17 83.66 .17 83.66 .65 84.05 .65 84.05 1.87 83.43 1.87"/>
    <polygon class="cls-4" points="81.7 1.87 81.7 2.34 83.43 2.34 83.43 1.87 82.8 1.87 82.8 .65 83.19 .65 83.19 .17 81.93 .17 81.93 .65 82.32 .65 82.32 1.87 81.7 1.87"/>
    <polygon class="cls-4" points="79.97 1.87 79.97 2.34 81.7 2.34 81.7 1.87 81.07 1.87 81.07 .65 81.46 .65 81.46 .17 80.2 .17 80.2 .65 80.6 .65 80.6 1.87 79.97 1.87"/>
    <polygon class="cls-4" points="78.24 1.87 78.24 2.34 79.97 2.34 79.97 1.87 79.34 1.87 79.34 .65 79.74 .65 79.74 .17 78.47 .17 78.47 .65 78.87 .65 78.87 1.87 78.24 1.87"/>
    <polygon class="cls-4" points="76.52 1.87 76.52 2.34 78.24 2.34 78.24 1.87 77.61 1.87 77.61 .65 78.01 .65 78.01 .17 76.75 .17 76.75 .65 77.14 .65 77.14 1.87 76.52 1.87"/>
    <polygon class="cls-4" points="74.79 1.87 74.79 2.34 76.52 2.34 76.52 1.87 75.89 1.87 75.89 .65 76.28 .65 76.28 .17 75.02 .17 75.02 .65 75.41 .65 75.41 1.87 74.79 1.87"/>
    <polygon class="cls-4" points="73.06 1.87 73.06 2.34 74.79 2.34 74.79 1.87 74.16 1.87 74.16 .65 74.55 .65 74.55 .17 73.29 .17 73.29 .65 73.69 .65 73.69 1.87 73.06 1.87"/>
    <polygon class="cls-4" points="71.33 1.87 71.33 2.34 73.06 2.34 73.06 1.87 72.43 1.87 72.43 .65 72.83 .65 72.83 .17 71.56 .17 71.56 .65 71.96 .65 71.96 1.87 71.33 1.87"/>
    <polygon class="cls-4" points="69.61 1.87 69.61 2.34 71.33 2.34 71.33 1.87 70.7 1.87 70.7 .65 71.1 .65 71.1 .17 69.84 .17 69.84 .65 70.23 .65 70.23 1.87 69.61 1.87"/>
    <polygon class="cls-4" points="67.88 1.87 67.88 2.34 69.61 2.34 69.61 1.87 68.98 1.87 68.98 .65 69.37 .65 69.37 .17 68.11 .17 68.11 .65 68.5 .65 68.5 1.87 67.88 1.87"/>
    <polygon class="cls-4" points="66.15 1.87 66.15 2.34 67.88 2.34 67.88 1.87 67.25 1.87 67.25 .65 67.64 .65 67.64 .17 66.38 .17 66.38 .65 66.78 .65 66.78 1.87 66.15 1.87"/>
    <polygon class="cls-4" points="64.42 1.87 64.42 2.34 66.15 2.34 66.15 1.87 65.52 1.87 65.52 .65 65.92 .65 65.92 .17 64.65 .17 64.65 .65 65.05 .65 65.05 1.87 64.42 1.87"/>
    <polygon class="cls-4" points="62.7 1.87 62.7 2.34 64.42 2.34 64.42 1.87 63.79 1.87 63.79 .65 64.19 .65 64.19 .17 62.93 .17 62.93 .65 63.32 .65 63.32 1.87 62.7 1.87"/>
    <polygon class="cls-4" points="60.97 1.87 60.97 2.34 62.7 2.34 62.7 1.87 62.07 1.87 62.07 .65 62.46 .65 62.46 .17 61.2 .17 61.2 .65 61.59 .65 61.59 1.87 60.97 1.87"/>
    <polygon class="cls-4" points="59.24 1.87 59.24 2.34 60.97 2.34 60.97 1.87 60.34 1.87 60.34 .65 60.74 .65 60.74 .17 59.47 .17 59.47 .65 59.87 .65 59.87 1.87 59.24 1.87"/>
    <polygon class="cls-4" points="57.51 1.87 57.51 2.34 59.24 2.34 59.24 1.87 58.61 1.87 58.61 .65 59.01 .65 59.01 .17 57.74 .17 57.74 .65 58.14 .65 58.14 1.87 57.51 1.87"/>
    <polygon class="cls-4" points="55.79 1.87 55.79 2.34 57.51 2.34 57.51 1.87 56.88 1.87 56.88 .65 57.28 .65 57.28 .17 56.02 .17 56.02 .65 56.41 .65 56.41 1.87 55.79 1.87"/>
    <polygon class="cls-4" points="54.06 1.87 54.06 2.34 55.79 2.34 55.79 1.87 55.16 1.87 55.16 .65 55.55 .65 55.55 .17 54.29 .17 54.29 .65 54.68 .65 54.68 1.87 54.06 1.87"/>
    <polygon class="cls-4" points="52.33 1.87 52.33 2.34 54.06 2.34 54.06 1.87 53.43 1.87 53.43 .65 53.83 .65 53.83 .17 52.56 .17 52.56 .65 52.96 .65 52.96 1.87 52.33 1.87"/>
    <polygon class="cls-4" points="50.6 1.87 50.6 2.34 52.33 2.34 52.33 1.87 51.7 1.87 51.7 .65 52.1 .65 52.1 .17 50.83 .17 50.83 .65 51.23 .65 51.23 1.87 50.6 1.87"/>
    <polygon class="cls-4" points="48.88 1.87 48.88 2.34 50.6 2.34 50.6 1.87 49.98 1.87 49.98 .65 50.37 .65 50.37 .17 49.11 .17 49.11 .65 49.5 .65 49.5 1.87 48.88 1.87"/>
    <polygon class="cls-4" points="47.15 1.87 47.15 2.34 48.88 2.34 48.88 1.87 48.25 1.87 48.25 .65 48.64 .65 48.64 .17 47.38 .17 47.38 .65 47.77 .65 47.77 1.87 47.15 1.87"/>
    <polygon class="cls-4" points="45.42 1.87 45.42 2.34 47.15 2.34 47.15 1.87 46.52 1.87 46.52 .65 46.92 .65 46.92 .17 45.65 .17 45.65 .65 46.05 .65 46.05 1.87 45.42 1.87"/>
    <polygon class="cls-4" points="43.7 1.87 43.7 2.34 45.42 2.34 45.42 1.87 44.79 1.87 44.79 .65 45.19 .65 45.19 .17 43.92 .17 43.92 .65 44.32 .65 44.32 1.87 43.7 1.87"/>
    <polygon class="cls-4" points="41.97 1.87 41.97 2.34 43.7 2.34 43.7 1.87 43.07 1.87 43.07 .65 43.46 .65 43.46 .17 42.2 .17 42.2 .65 42.59 .65 42.59 1.87 41.97 1.87"/>
    <polygon class="cls-4" points="40.24 1.87 40.24 2.34 41.97 2.34 41.97 1.87 41.34 1.87 41.34 .65 41.73 .65 41.73 .17 40.47 .17 40.47 .65 40.87 .65 40.87 1.87 40.24 1.87"/>
    <polygon class="cls-4" points="38.51 1.87 38.51 2.34 40.24 2.34 40.24 1.87 39.61 1.87 39.61 .65 40.01 .65 40.01 .17 38.74 .17 38.74 .65 39.14 .65 39.14 1.87 38.51 1.87"/>
    <polygon class="cls-4" points="36.79 1.87 36.79 2.34 38.51 2.34 38.51 1.87 37.88 1.87 37.88 .65 38.28 .65 38.28 .17 37.01 .17 37.01 .65 37.41 .65 37.41 1.87 36.79 1.87"/>
    <polygon class="cls-4" points="35.06 1.87 35.06 2.34 36.79 2.34 36.79 1.87 36.16 1.87 36.16 .65 36.55 .65 36.55 .17 35.29 .17 35.29 .65 35.68 .65 35.68 1.87 35.06 1.87"/>
    <polygon class="cls-4" points="33.33 1.87 33.33 2.34 35.06 2.34 35.06 1.87 34.43 1.87 34.43 .65 34.82 .65 34.82 .17 33.56 .17 33.56 .65 33.96 .65 33.96 1.87 33.33 1.87"/>
    <polygon class="cls-4" points="31.6 1.87 31.6 2.34 33.33 2.34 33.33 1.87 32.7 1.87 32.7 .65 33.1 .65 33.1 .17 31.83 .17 31.83 .65 32.23 .65 32.23 1.87 31.6 1.87"/>
    <polygon class="cls-4" points="29.88 1.87 29.88 2.34 31.6 2.34 31.6 1.87 30.97 1.87 30.97 .65 31.37 .65 31.37 .17 30.11 .17 30.11 .65 30.5 .65 30.5 1.87 29.88 1.87"/>
    <polygon class="cls-4" points="28.15 1.87 28.15 2.34 29.88 2.34 29.88 1.87 29.25 1.87 29.25 .65 29.64 .65 29.64 .17 28.38 .17 28.38 .65 28.77 .65 28.77 1.87 28.15 1.87"/>
    <polygon class="cls-4" points="26.42 1.87 26.42 2.34 28.15 2.34 28.15 1.87 27.52 1.87 27.52 .65 27.91 .65 27.91 .17 26.65 .17 26.65 .65 27.05 .65 27.05 1.87 26.42 1.87"/>
    <polygon class="cls-4" points="24.69 1.87 24.69 2.34 26.42 2.34 26.42 1.87 25.79 1.87 25.79 .65 26.19 .65 26.19 .17 24.92 .17 24.92 .65 25.32 .65 25.32 1.87 24.69 1.87"/>
    <polygon class="cls-4" points="22.97 1.87 22.97 2.34 24.69 2.34 24.69 1.87 24.06 1.87 24.06 .65 24.46 .65 24.46 .17 23.2 .17 23.2 .65 23.59 .65 23.59 1.87 22.97 1.87"/>
    <polygon class="cls-4" points="21.24 1.87 21.24 2.34 22.97 2.34 22.97 1.87 22.34 1.87 22.34 .65 22.73 .65 22.73 .17 21.47 .17 21.47 .65 21.86 .65 21.86 1.87 21.24 1.87"/>
    <polygon class="cls-4" points="19.51 1.87 19.51 2.34 21.24 2.34 21.24 1.87 20.61 1.87 20.61 .65 21 .65 21 .17 19.74 .17 19.74 .65 20.14 .65 20.14 1.87 19.51 1.87"/>
    <polygon class="cls-4" points="17.78 1.87 17.78 2.34 19.51 2.34 19.51 1.87 18.88 1.87 18.88 .65 19.28 .65 19.28 .17 18.01 .17 18.01 .65 18.41 .65 18.41 1.87 17.78 1.87"/>
    <polygon class="cls-4" points="16.06 1.87 16.06 2.34 17.78 2.34 17.78 1.87 17.15 1.87 17.15 .65 17.55 .65 17.55 .17 16.29 .17 16.29 .65 16.68 .65 16.68 1.87 16.06 1.87"/>
    <polygon class="cls-4" points="14.33 1.87 14.33 2.34 16.06 2.34 16.06 1.87 15.43 1.87 15.43 .65 15.82 .65 15.82 .17 14.56 .17 14.56 .65 14.95 .65 14.95 1.87 14.33 1.87"/>
    <polygon class="cls-4" points="12.6 1.87 12.6 2.34 14.33 2.34 14.33 1.87 13.7 1.87 13.7 .65 14.09 .65 14.09 .17 12.83 .17 12.83 .65 13.23 .65 13.23 1.87 12.6 1.87"/>
    <polygon class="cls-4" points="10.87 1.87 10.87 2.34 12.6 2.34 12.6 1.87 11.97 1.87 11.97 .65 12.37 .65 12.37 .17 11.1 .17 11.1 .65 11.5 .65 11.5 1.87 10.87 1.87"/>
    <polygon class="cls-4" points="9.15 1.87 9.15 2.34 10.87 2.34 10.87 1.87 10.24 1.87 10.24 .65 10.64 .65 10.64 .17 9.38 .17 9.38 .65 9.77 .65 9.77 1.87 9.15 1.87"/>
    <polygon class="cls-4" points="7.42 1.87 7.42 2.34 9.15 2.34 9.15 1.87 8.52 1.87 8.52 .65 8.91 .65 8.91 .17 7.65 .17 7.65 .65 8.04 .65 8.04 1.87 7.42 1.87"/>
    <polygon class="cls-4" points="5.69 1.87 5.69 2.34 7.42 2.34 7.42 1.87 6.79 1.87 6.79 .65 7.18 .65 7.18 .17 5.92 .17 5.92 .65 6.32 .65 6.32 1.87 5.69 1.87"/>
    <polygon class="cls-4" points="3.96 1.87 3.96 2.34 5.69 2.34 5.69 1.87 5.06 1.87 5.06 .65 5.46 .65 5.46 .17 4.19 .17 4.19 .65 4.59 .65 4.59 1.87 3.96 1.87"/>
    <polygon class="cls-4" points="2.24 1.87 2.24 2.34 3.96 2.34 3.96 1.87 3.33 1.87 3.33 .65 3.73 .65 3.73 .17 2.47 .17 2.47 .65 2.86 .65 2.86 1.87 2.24 1.87"/>
    <polygon class="cls-4" points="1.76 4.08 2.24 4.08 2.24 2.34 1.76 2.34 1.76 2.97 .54 2.97 .54 2.58 .07 2.58 .07 3.84 .54 3.84 .54 3.45 1.76 3.45 1.76 4.08"/>
    <polygon class="cls-4" points="1.76 5.81 2.24 5.81 2.24 4.08 1.76 4.08 1.76 4.71 .54 4.71 .54 4.31 .07 4.31 .07 5.58 .54 5.58 .54 5.18 1.76 5.18 1.76 5.81"/>
    <polygon class="cls-4" points="1.76 7.55 2.24 7.55 2.24 5.81 1.76 5.81 1.76 6.44 .54 6.44 .54 6.05 .07 6.05 .07 7.32 .54 7.32 .54 6.92 1.76 6.92 1.76 7.55"/>
    <polygon class="cls-4" points="1.76 9.28 2.24 9.28 2.24 7.55 1.76 7.55 1.76 8.18 .54 8.18 .54 7.78 .07 7.78 .07 9.05 .54 9.05 .54 8.65 1.76 8.65 1.76 9.28"/>
    <polygon class="cls-4" points="1.76 11.02 2.24 11.02 2.24 9.28 1.76 9.28 1.76 9.92 .54 9.92 .54 9.52 .07 9.52 .07 10.79 .54 10.79 .54 10.39 1.76 10.39 1.76 11.02"/>
    <polygon class="cls-4" points="1.76 12.75 2.24 12.75 2.24 11.02 1.76 11.02 1.76 11.65 .54 11.65 .54 11.25 .07 11.25 .07 12.52 .54 12.52 .54 12.13 1.76 12.13 1.76 12.75"/>
    <polygon class="cls-4" points="1.76 14.49 2.24 14.49 2.24 12.75 1.76 12.75 1.76 13.39 .54 13.39 .54 12.99 .07 12.99 .07 14.26 .54 14.26 .54 13.86 1.76 13.86 1.76 14.49"/>
    <g class="cls-8">
      <polygon class="cls-4" points="184.25 35.42 184.3 34.95 181.89 34.68 181.84 35.15 182.72 35.25 182.58 36.46 182.03 36.4 181.98 36.87 183.74 37.07 183.79 36.6 183.24 36.54 183.37 35.32 184.25 35.42"/>
    </g>
    <g class="cls-6">
      <polygon class="cls-4" points="182.36 34.68 181.89 34.68 181.89 37.1 182.36 37.1 182.36 36.22 183.58 36.22 183.58 36.78 184.06 36.78 184.06 35 183.58 35 183.58 35.56 182.36 35.56 182.36 34.68"/>
    </g>
    <g class="cls-1">
      <polygon class="cls-4" points="182.36 .17 181.89 .17 181.89 2.34 182.36 2.34 182.36 1.55 183.58 1.55 183.58 2.05 184.06 2.05 184.06 .46 183.58 .46 183.58 .96 182.36 .96 182.36 .17"/>
    </g>
    <g class="cls-9">
      <polygon class="cls-4" points="181.89 1.87 181.89 2.34 184.06 2.34 184.06 1.87 183.27 1.87 183.27 .65 183.76 .65 183.76 .17 182.18 .17 182.18 .65 182.67 .65 182.67 1.87 181.89 1.87"/>
    </g>
    <g class="cls-7">
      <polygon class="cls-4" points=".07 1.87 .07 2.34 2.24 2.34 2.24 1.87 1.45 1.87 1.45 .65 1.94 .65 1.94 .17 .36 .17 .36 .65 .85 .65 .85 1.87 .07 1.87"/>
    </g>
    <g class="cls-10">
      <polygon class="cls-4" points="1.76 2.34 2.24 2.34 2.24 .17 1.76 .17 1.76 .96 .54 .96 .54 .47 .07 .47 .07 2.05 .54 2.05 .54 1.56 1.76 1.56 1.76 2.34"/>
    </g>
    <g class="cls-2">
      <polygon class="cls-4" points="1.76 16.43 2.24 16.43 2.24 14.49 1.76 14.49 1.76 15.2 .54 15.2 .54 14.75 .07 14.75 .07 16.17 .54 16.17 .54 15.73 1.76 15.73 1.76 16.43"/>
    </g>
    <g class="cls-5">
      <polygon class="cls-4" points="2.18 14.96 2.24 14.49 .31 14.27 .26 14.74 .96 14.82 .82 16.03 .38 15.98 .33 16.46 1.74 16.61 1.79 16.14 1.35 16.09 1.49 14.88 2.18 14.96"/>
    </g>
  </g>
</svg>