<?xml version="1.0" encoding="UTF-8"?>
<svg id="Layer_1" data-name="Layer 1" xmlns="http://www.w3.org/2000/svg" version="1.1" xmlns:xlink="http://www.w3.org/1999/xlink" viewBox="0 0 658.53 69.53">
  <defs>
    <style>
      .cls-1 {
        clip-path: url(#clippath-2);
      }

      .cls-2 {
        clip-path: url(#clippath-6);
      }

      .cls-3 {
        fill: none;
      }

      .cls-3, .cls-4 {
        stroke-width: 0px;
      }

      .cls-5 {
        clip-path: url(#clippath-7);
      }

      .cls-6 {
        clip-path: url(#clippath-1);
      }

      .cls-7 {
        clip-path: url(#clippath-4);
      }

      .cls-4 {
        fill: #fed700;
      }

      .cls-8 {
        clip-path: url(#clippath);
      }

      .cls-9 {
        clip-path: url(#clippath-3);
      }

      .cls-10 {
        clip-path: url(#clippath-5);
      }
    </style>
    <clipPath id="clippath">
      <polygon class="cls-3" points="8.5 8.46 .56 .52 .56 8.46 8.5 8.46"/>
    </clipPath>
    <clipPath id="clippath-1">
      <polygon class="cls-3" points="8.5 8.46 .56 .52 8.5 .52 8.5 8.46"/>
    </clipPath>
    <clipPath id="clippath-2">
      <polygon class="cls-3" points="649.71 8.46 657.65 .52 649.71 .52 649.71 8.46"/>
    </clipPath>
    <clipPath id="clippath-3">
      <polygon class="cls-3" points="649.71 8.46 657.65 .52 657.65 8.46 649.71 8.46"/>
    </clipPath>
    <clipPath id="clippath-4">
      <polygon class="cls-3" points="649.71 61.28 657.65 69.23 657.65 61.28 649.71 61.28"/>
    </clipPath>
    <clipPath id="clippath-5">
      <polygon class="cls-3" points="649.71 61.28 657.65 69.23 649.71 69.23 649.71 61.28"/>
    </clipPath>
    <clipPath id="clippath-6">
      <polygon class="cls-3" points="8.5 61.28 .56 69.23 8.5 69.23 8.5 61.28"/>
    </clipPath>
    <clipPath id="clippath-7">
      <polygon class="cls-3" points="8.5 61.28 .56 69.23 .56 61.28 8.5 61.28"/>
    </clipPath>
  </defs>
  <g id="En_Tablet_-_top_bg_social_media_and_lang" data-name="En Tablet - top bg social media and lang">
    <rect class="cls-4" x="4.53" y="4.49" width="649.15" height="60.77"/>
    <g>
      <polygon class="cls-4" points="6.76 54.68 8.5 54.68 8.5 61.28 6.76 61.28 6.76 58.87 2.29 58.87 2.29 60.39 .56 60.39 .56 55.56 2.29 55.56 2.29 57.07 6.76 57.07 6.76 54.68"/>
      <polygon class="cls-4" points="6.76 48.08 8.5 48.08 8.5 54.68 6.76 54.68 6.76 52.27 2.29 52.27 2.29 53.78 .56 53.78 .56 48.95 2.29 48.95 2.29 50.47 6.76 50.47 6.76 48.08"/>
      <polygon class="cls-4" points="6.76 41.47 8.5 41.47 8.5 48.08 6.76 48.08 6.76 45.67 2.29 45.67 2.29 47.18 .56 47.18 .56 42.35 2.29 42.35 2.29 43.86 6.76 43.86 6.76 41.47"/>
      <polygon class="cls-4" points="6.76 34.87 8.5 34.87 8.5 41.47 6.76 41.47 6.76 39.07 2.29 39.07 2.29 40.58 .56 40.58 .56 35.75 2.29 35.75 2.29 37.26 6.76 37.26 6.76 34.87"/>
      <polygon class="cls-4" points="6.76 28.27 8.5 28.27 8.5 34.87 6.76 34.87 6.76 32.46 2.29 32.46 2.29 33.97 .56 33.97 .56 29.15 2.29 29.15 2.29 30.66 6.76 30.66 6.76 28.27"/>
      <polygon class="cls-4" points="6.76 21.67 8.5 21.67 8.5 28.27 6.76 28.27 6.76 25.86 2.29 25.86 2.29 27.37 .56 27.37 .56 22.54 2.29 22.54 2.29 24.05 6.76 24.05 6.76 21.67"/>
      <polygon class="cls-4" points="6.76 15.06 8.5 15.06 8.5 21.67 6.76 21.67 6.76 19.26 2.29 19.26 2.29 20.77 .56 20.77 .56 15.94 2.29 15.94 2.29 17.45 6.76 17.45 6.76 15.06"/>
      <polygon class="cls-4" points="6.76 8.46 8.5 8.46 8.5 15.06 6.76 15.06 6.76 12.66 2.29 12.66 2.29 14.17 .56 14.17 .56 9.34 2.29 9.34 2.29 10.85 6.76 10.85 6.76 8.46"/>
      <polygon class="cls-4" points="14.85 6.72 14.85 8.46 8.5 8.46 8.5 6.72 10.82 6.72 10.82 2.25 9.36 2.25 9.36 .52 14.01 .52 14.01 2.25 12.55 2.25 12.55 6.72 14.85 6.72"/>
      <polygon class="cls-4" points="21.2 6.72 21.2 8.46 14.85 8.46 14.85 6.72 17.16 6.72 17.16 2.25 15.71 2.25 15.71 .52 20.35 .52 20.35 2.25 18.9 2.25 18.9 6.72 21.2 6.72"/>
      <polygon class="cls-4" points="27.55 6.72 27.55 8.46 21.2 8.46 21.2 6.72 23.51 6.72 23.51 2.25 22.06 2.25 22.06 .52 26.7 .52 26.7 2.25 25.25 2.25 25.25 6.72 27.55 6.72"/>
      <polygon class="cls-4" points="33.9 6.72 33.9 8.46 27.55 8.46 27.55 6.72 29.86 6.72 29.86 2.25 28.41 2.25 28.41 .52 33.05 .52 33.05 2.25 31.6 2.25 31.6 6.72 33.9 6.72"/>
      <polygon class="cls-4" points="40.24 6.72 40.24 8.46 33.9 8.46 33.9 6.72 36.21 6.72 36.21 2.25 34.76 2.25 34.76 .52 39.4 .52 39.4 2.25 37.95 2.25 37.95 6.72 40.24 6.72"/>
      <polygon class="cls-4" points="46.59 6.72 46.59 8.46 40.24 8.46 40.24 6.72 42.56 6.72 42.56 2.25 41.11 2.25 41.11 .52 45.75 .52 45.75 2.25 44.3 2.25 44.3 6.72 46.59 6.72"/>
      <polygon class="cls-4" points="52.94 6.72 52.94 8.46 46.59 8.46 46.59 6.72 48.91 6.72 48.91 2.25 47.45 2.25 47.45 .52 52.1 .52 52.1 2.25 50.64 2.25 50.64 6.72 52.94 6.72"/>
      <polygon class="cls-4" points="59.29 6.72 59.29 8.46 52.94 8.46 52.94 6.72 55.26 6.72 55.26 2.25 53.8 2.25 53.8 .52 58.45 .52 58.45 2.25 56.99 2.25 56.99 6.72 59.29 6.72"/>
      <polygon class="cls-4" points="65.64 6.72 65.64 8.46 59.29 8.46 59.29 6.72 61.61 6.72 61.61 2.25 60.15 2.25 60.15 .52 64.79 .52 64.79 2.25 63.34 2.25 63.34 6.72 65.64 6.72"/>
      <polygon class="cls-4" points="71.99 6.72 71.99 8.46 65.64 8.46 65.64 6.72 67.95 6.72 67.95 2.25 66.5 2.25 66.5 .52 71.14 .52 71.14 2.25 69.69 2.25 69.69 6.72 71.99 6.72"/>
      <polygon class="cls-4" points="78.34 6.72 78.34 8.46 71.99 8.46 71.99 6.72 74.3 6.72 74.3 2.25 72.85 2.25 72.85 .52 77.49 .52 77.49 2.25 76.04 2.25 76.04 6.72 78.34 6.72"/>
      <polygon class="cls-4" points="84.68 6.72 84.68 8.46 78.34 8.46 78.34 6.72 80.65 6.72 80.65 2.25 79.2 2.25 79.2 .52 83.84 .52 83.84 2.25 82.39 2.25 82.39 6.72 84.68 6.72"/>
      <polygon class="cls-4" points="91.03 6.72 91.03 8.46 84.68 8.46 84.68 6.72 87 6.72 87 2.25 85.55 2.25 85.55 .52 90.19 .52 90.19 2.25 88.74 2.25 88.74 6.72 91.03 6.72"/>
      <polygon class="cls-4" points="97.38 6.72 97.38 8.46 91.03 8.46 91.03 6.72 93.35 6.72 93.35 2.25 91.9 2.25 91.9 .52 96.54 .52 96.54 2.25 95.08 2.25 95.08 6.72 97.38 6.72"/>
      <polygon class="cls-4" points="103.73 6.72 103.73 8.46 97.38 8.46 97.38 6.72 99.7 6.72 99.7 2.25 98.24 2.25 98.24 .52 102.89 .52 102.89 2.25 101.43 2.25 101.43 6.72 103.73 6.72"/>
      <polygon class="cls-4" points="110.08 6.72 110.08 8.46 103.73 8.46 103.73 6.72 106.05 6.72 106.05 2.25 104.59 2.25 104.59 .52 109.23 .52 109.23 2.25 107.78 2.25 107.78 6.72 110.08 6.72"/>
      <polygon class="cls-4" points="116.43 6.72 116.43 8.46 110.08 8.46 110.08 6.72 112.39 6.72 112.39 2.25 110.94 2.25 110.94 .52 115.58 .52 115.58 2.25 114.13 2.25 114.13 6.72 116.43 6.72"/>
      <polygon class="cls-4" points="122.78 6.72 122.78 8.46 116.43 8.46 116.43 6.72 118.74 6.72 118.74 2.25 117.29 2.25 117.29 .52 121.93 .52 121.93 2.25 120.48 2.25 120.48 6.72 122.78 6.72"/>
      <polygon class="cls-4" points="129.12 6.72 129.12 8.46 122.78 8.46 122.78 6.72 125.09 6.72 125.09 2.25 123.64 2.25 123.64 .52 128.28 .52 128.28 2.25 126.83 2.25 126.83 6.72 129.12 6.72"/>
      <polygon class="cls-4" points="135.47 6.72 135.47 8.46 129.12 8.46 129.12 6.72 131.44 6.72 131.44 2.25 129.99 2.25 129.99 .52 134.63 .52 134.63 2.25 133.18 2.25 133.18 6.72 135.47 6.72"/>
      <polygon class="cls-4" points="141.82 6.72 141.82 8.46 135.47 8.46 135.47 6.72 137.79 6.72 137.79 2.25 136.34 2.25 136.34 .52 140.98 .52 140.98 2.25 139.53 2.25 139.53 6.72 141.82 6.72"/>
      <polygon class="cls-4" points="148.17 6.72 148.17 8.46 141.82 8.46 141.82 6.72 144.14 6.72 144.14 2.25 142.68 2.25 142.68 .52 147.33 .52 147.33 2.25 145.87 2.25 145.87 6.72 148.17 6.72"/>
      <polygon class="cls-4" points="154.52 6.72 154.52 8.46 148.17 8.46 148.17 6.72 150.49 6.72 150.49 2.25 149.03 2.25 149.03 .52 153.68 .52 153.68 2.25 152.22 2.25 152.22 6.72 154.52 6.72"/>
      <polygon class="cls-4" points="160.87 6.72 160.87 8.46 154.52 8.46 154.52 6.72 156.83 6.72 156.83 2.25 155.38 2.25 155.38 .52 160.02 .52 160.02 2.25 158.57 2.25 158.57 6.72 160.87 6.72"/>
      <polygon class="cls-4" points="167.22 6.72 167.22 8.46 160.87 8.46 160.87 6.72 163.18 6.72 163.18 2.25 161.73 2.25 161.73 .52 166.37 .52 166.37 2.25 164.92 2.25 164.92 6.72 167.22 6.72"/>
      <polygon class="cls-4" points="173.56 6.72 173.56 8.46 167.22 8.46 167.22 6.72 169.53 6.72 169.53 2.25 168.08 2.25 168.08 .52 172.72 .52 172.72 2.25 171.27 2.25 171.27 6.72 173.56 6.72"/>
      <polygon class="cls-4" points="179.91 6.72 179.91 8.46 173.56 8.46 173.56 6.72 175.88 6.72 175.88 2.25 174.43 2.25 174.43 .52 179.07 .52 179.07 2.25 177.62 2.25 177.62 6.72 179.91 6.72"/>
      <polygon class="cls-4" points="186.26 6.72 186.26 8.46 179.91 8.46 179.91 6.72 182.23 6.72 182.23 2.25 180.78 2.25 180.78 .52 185.42 .52 185.42 2.25 183.97 2.25 183.97 6.72 186.26 6.72"/>
      <polygon class="cls-4" points="192.61 6.72 192.61 8.46 186.26 8.46 186.26 6.72 188.58 6.72 188.58 2.25 187.12 2.25 187.12 .52 191.77 .52 191.77 2.25 190.31 2.25 190.31 6.72 192.61 6.72"/>
      <polygon class="cls-4" points="198.96 6.72 198.96 8.46 192.61 8.46 192.61 6.72 194.93 6.72 194.93 2.25 193.47 2.25 193.47 .52 198.12 .52 198.12 2.25 196.66 2.25 196.66 6.72 198.96 6.72"/>
      <polygon class="cls-4" points="205.31 6.72 205.31 8.46 198.96 8.46 198.96 6.72 201.27 6.72 201.27 2.25 199.82 2.25 199.82 .52 204.46 .52 204.46 2.25 203.01 2.25 203.01 6.72 205.31 6.72"/>
      <polygon class="cls-4" points="211.66 6.72 211.66 8.46 205.31 8.46 205.31 6.72 207.62 6.72 207.62 2.25 206.17 2.25 206.17 .52 210.81 .52 210.81 2.25 209.36 2.25 209.36 6.72 211.66 6.72"/>
      <polygon class="cls-4" points="218 6.72 218 8.46 211.66 8.46 211.66 6.72 213.97 6.72 213.97 2.25 212.52 2.25 212.52 .52 217.16 .52 217.16 2.25 215.71 2.25 215.71 6.72 218 6.72"/>
      <polygon class="cls-4" points="224.35 6.72 224.35 8.46 218 8.46 218 6.72 220.32 6.72 220.32 2.25 218.87 2.25 218.87 .52 223.51 .52 223.51 2.25 222.06 2.25 222.06 6.72 224.35 6.72"/>
      <polygon class="cls-4" points="230.7 6.72 230.7 8.46 224.35 8.46 224.35 6.72 226.67 6.72 226.67 2.25 225.22 2.25 225.22 .52 229.86 .52 229.86 2.25 228.41 2.25 228.41 6.72 230.7 6.72"/>
      <polygon class="cls-4" points="237.05 6.72 237.05 8.46 230.7 8.46 230.7 6.72 233.02 6.72 233.02 2.25 231.56 2.25 231.56 .52 236.21 .52 236.21 2.25 234.75 2.25 234.75 6.72 237.05 6.72"/>
      <polygon class="cls-4" points="243.4 6.72 243.4 8.46 237.05 8.46 237.05 6.72 239.37 6.72 239.37 2.25 237.91 2.25 237.91 .52 242.56 .52 242.56 2.25 241.1 2.25 241.1 6.72 243.4 6.72"/>
      <polygon class="cls-4" points="249.75 6.72 249.75 8.46 243.4 8.46 243.4 6.72 245.71 6.72 245.71 2.25 244.26 2.25 244.26 .52 248.9 .52 248.9 2.25 247.45 2.25 247.45 6.72 249.75 6.72"/>
      <polygon class="cls-4" points="256.1 6.72 256.1 8.46 249.75 8.46 249.75 6.72 252.06 6.72 252.06 2.25 250.61 2.25 250.61 .52 255.25 .52 255.25 2.25 253.8 2.25 253.8 6.72 256.1 6.72"/>
      <polygon class="cls-4" points="262.45 6.72 262.45 8.46 256.1 8.46 256.1 6.72 258.41 6.72 258.41 2.25 256.96 2.25 256.96 .52 261.6 .52 261.6 2.25 260.15 2.25 260.15 6.72 262.45 6.72"/>
      <polygon class="cls-4" points="268.79 6.72 268.79 8.46 262.45 8.46 262.45 6.72 264.76 6.72 264.76 2.25 263.31 2.25 263.31 .52 267.95 .52 267.95 2.25 266.5 2.25 266.5 6.72 268.79 6.72"/>
      <polygon class="cls-4" points="275.14 6.72 275.14 8.46 268.79 8.46 268.79 6.72 271.11 6.72 271.11 2.25 269.66 2.25 269.66 .52 274.3 .52 274.3 2.25 272.85 2.25 272.85 6.72 275.14 6.72"/>
      <polygon class="cls-4" points="281.49 6.72 281.49 8.46 275.14 8.46 275.14 6.72 277.46 6.72 277.46 2.25 276 2.25 276 .52 280.65 .52 280.65 2.25 279.19 2.25 279.19 6.72 281.49 6.72"/>
      <polygon class="cls-4" points="287.84 6.72 287.84 8.46 281.49 8.46 281.49 6.72 283.81 6.72 283.81 2.25 282.35 2.25 282.35 .52 287 .52 287 2.25 285.54 2.25 285.54 6.72 287.84 6.72"/>
      <polygon class="cls-4" points="294.19 6.72 294.19 8.46 287.84 8.46 287.84 6.72 290.15 6.72 290.15 2.25 288.7 2.25 288.7 .52 293.34 .52 293.34 2.25 291.89 2.25 291.89 6.72 294.19 6.72"/>
      <polygon class="cls-4" points="300.54 6.72 300.54 8.46 294.19 8.46 294.19 6.72 296.5 6.72 296.5 2.25 295.05 2.25 295.05 .52 299.69 .52 299.69 2.25 298.24 2.25 298.24 6.72 300.54 6.72"/>
      <polygon class="cls-4" points="306.89 6.72 306.89 8.46 300.54 8.46 300.54 6.72 302.85 6.72 302.85 2.25 301.4 2.25 301.4 .52 306.04 .52 306.04 2.25 304.59 2.25 304.59 6.72 306.89 6.72"/>
      <polygon class="cls-4" points="313.23 6.72 313.23 8.46 306.89 8.46 306.89 6.72 309.2 6.72 309.2 2.25 307.75 2.25 307.75 .52 312.39 .52 312.39 2.25 310.94 2.25 310.94 6.72 313.23 6.72"/>
      <polygon class="cls-4" points="319.58 6.72 319.58 8.46 313.23 8.46 313.23 6.72 315.55 6.72 315.55 2.25 314.1 2.25 314.1 .52 318.74 .52 318.74 2.25 317.29 2.25 317.29 6.72 319.58 6.72"/>
      <polygon class="cls-4" points="325.93 6.72 325.93 8.46 319.58 8.46 319.58 6.72 321.9 6.72 321.9 2.25 320.45 2.25 320.45 .52 325.09 .52 325.09 2.25 323.63 2.25 323.63 6.72 325.93 6.72"/>
      <polygon class="cls-4" points="332.28 6.72 332.28 8.46 325.93 8.46 325.93 6.72 328.25 6.72 328.25 2.25 326.79 2.25 326.79 .52 331.44 .52 331.44 2.25 329.98 2.25 329.98 6.72 332.28 6.72"/>
      <polygon class="cls-4" points="338.63 6.72 338.63 8.46 332.28 8.46 332.28 6.72 334.6 6.72 334.6 2.25 333.14 2.25 333.14 .52 337.78 .52 337.78 2.25 336.33 2.25 336.33 6.72 338.63 6.72"/>
      <polygon class="cls-4" points="344.98 6.72 344.98 8.46 338.63 8.46 338.63 6.72 340.94 6.72 340.94 2.25 339.49 2.25 339.49 .52 344.13 .52 344.13 2.25 342.68 2.25 342.68 6.72 344.98 6.72"/>
      <polygon class="cls-4" points="351.33 6.72 351.33 8.46 344.98 8.46 344.98 6.72 347.29 6.72 347.29 2.25 345.84 2.25 345.84 .52 350.48 .52 350.48 2.25 349.03 2.25 349.03 6.72 351.33 6.72"/>
      <polygon class="cls-4" points="357.67 6.72 357.67 8.46 351.33 8.46 351.33 6.72 353.64 6.72 353.64 2.25 352.19 2.25 352.19 .52 356.83 .52 356.83 2.25 355.38 2.25 355.38 6.72 357.67 6.72"/>
      <polygon class="cls-4" points="364.02 6.72 364.02 8.46 357.67 8.46 357.67 6.72 359.99 6.72 359.99 2.25 358.54 2.25 358.54 .52 363.18 .52 363.18 2.25 361.73 2.25 361.73 6.72 364.02 6.72"/>
      <polygon class="cls-4" points="370.37 6.72 370.37 8.46 364.02 8.46 364.02 6.72 366.34 6.72 366.34 2.25 364.89 2.25 364.89 .52 369.53 .52 369.53 2.25 368.07 2.25 368.07 6.72 370.37 6.72"/>
      <polygon class="cls-4" points="376.72 6.72 376.72 8.46 370.37 8.46 370.37 6.72 372.69 6.72 372.69 2.25 371.23 2.25 371.23 .52 375.88 .52 375.88 2.25 374.42 2.25 374.42 6.72 376.72 6.72"/>
      <polygon class="cls-4" points="383.07 6.72 383.07 8.46 376.72 8.46 376.72 6.72 379.04 6.72 379.04 2.25 377.58 2.25 377.58 .52 382.23 .52 382.23 2.25 380.77 2.25 380.77 6.72 383.07 6.72"/>
      <polygon class="cls-4" points="389.42 6.72 389.42 8.46 383.07 8.46 383.07 6.72 385.38 6.72 385.38 2.25 383.93 2.25 383.93 .52 388.57 .52 388.57 2.25 387.12 2.25 387.12 6.72 389.42 6.72"/>
      <polygon class="cls-4" points="395.77 6.72 395.77 8.46 389.42 8.46 389.42 6.72 391.73 6.72 391.73 2.25 390.28 2.25 390.28 .52 394.92 .52 394.92 2.25 393.47 2.25 393.47 6.72 395.77 6.72"/>
      <polygon class="cls-4" points="402.11 6.72 402.11 8.46 395.77 8.46 395.77 6.72 398.08 6.72 398.08 2.25 396.63 2.25 396.63 .52 401.27 .52 401.27 2.25 399.82 2.25 399.82 6.72 402.11 6.72"/>
      <polygon class="cls-4" points="408.46 6.72 408.46 8.46 402.11 8.46 402.11 6.72 404.43 6.72 404.43 2.25 402.98 2.25 402.98 .52 407.62 .52 407.62 2.25 406.17 2.25 406.17 6.72 408.46 6.72"/>
      <polygon class="cls-4" points="414.81 6.72 414.81 8.46 408.46 8.46 408.46 6.72 410.78 6.72 410.78 2.25 409.33 2.25 409.33 .52 413.97 .52 413.97 2.25 412.52 2.25 412.52 6.72 414.81 6.72"/>
      <polygon class="cls-4" points="421.16 6.72 421.16 8.46 414.81 8.46 414.81 6.72 417.13 6.72 417.13 2.25 415.67 2.25 415.67 .52 420.32 .52 420.32 2.25 418.86 2.25 418.86 6.72 421.16 6.72"/>
      <polygon class="cls-4" points="427.51 6.72 427.51 8.46 421.16 8.46 421.16 6.72 423.48 6.72 423.48 2.25 422.02 2.25 422.02 .52 426.67 .52 426.67 2.25 425.21 2.25 425.21 6.72 427.51 6.72"/>
      <polygon class="cls-4" points="433.86 6.72 433.86 8.46 427.51 8.46 427.51 6.72 429.82 6.72 429.82 2.25 428.37 2.25 428.37 .52 433.01 .52 433.01 2.25 431.56 2.25 431.56 6.72 433.86 6.72"/>
      <polygon class="cls-4" points="440.21 6.72 440.21 8.46 433.86 8.46 433.86 6.72 436.17 6.72 436.17 2.25 434.72 2.25 434.72 .52 439.36 .52 439.36 2.25 437.91 2.25 437.91 6.72 440.21 6.72"/>
      <polygon class="cls-4" points="446.55 6.72 446.55 8.46 440.21 8.46 440.21 6.72 442.52 6.72 442.52 2.25 441.07 2.25 441.07 .52 445.71 .52 445.71 2.25 444.26 2.25 444.26 6.72 446.55 6.72"/>
      <polygon class="cls-4" points="452.9 6.72 452.9 8.46 446.55 8.46 446.55 6.72 448.87 6.72 448.87 2.25 447.42 2.25 447.42 .52 452.06 .52 452.06 2.25 450.61 2.25 450.61 6.72 452.9 6.72"/>
      <polygon class="cls-4" points="459.25 6.72 459.25 8.46 452.9 8.46 452.9 6.72 455.22 6.72 455.22 2.25 453.77 2.25 453.77 .52 458.41 .52 458.41 2.25 456.96 2.25 456.96 6.72 459.25 6.72"/>
      <polygon class="cls-4" points="465.6 6.72 465.6 8.46 459.25 8.46 459.25 6.72 461.57 6.72 461.57 2.25 460.11 2.25 460.11 .52 464.76 .52 464.76 2.25 463.3 2.25 463.3 6.72 465.6 6.72"/>
      <polygon class="cls-4" points="471.95 6.72 471.95 8.46 465.6 8.46 465.6 6.72 467.92 6.72 467.92 2.25 466.46 2.25 466.46 .52 471.11 .52 471.11 2.25 469.65 2.25 469.65 6.72 471.95 6.72"/>
      <polygon class="cls-4" points="478.3 6.72 478.3 8.46 471.95 8.46 471.95 6.72 474.26 6.72 474.26 2.25 472.81 2.25 472.81 .52 477.45 .52 477.45 2.25 476 2.25 476 6.72 478.3 6.72"/>
      <polygon class="cls-4" points="484.65 6.72 484.65 8.46 478.3 8.46 478.3 6.72 480.61 6.72 480.61 2.25 479.16 2.25 479.16 .52 483.8 .52 483.8 2.25 482.35 2.25 482.35 6.72 484.65 6.72"/>
      <polygon class="cls-4" points="491 6.72 491 8.46 484.65 8.46 484.65 6.72 486.96 6.72 486.96 2.25 485.51 2.25 485.51 .52 490.15 .52 490.15 2.25 488.7 2.25 488.7 6.72 491 6.72"/>
      <polygon class="cls-4" points="497.34 6.72 497.34 8.46 491 8.46 491 6.72 493.31 6.72 493.31 2.25 491.86 2.25 491.86 .52 496.5 .52 496.5 2.25 495.05 2.25 495.05 6.72 497.34 6.72"/>
      <polygon class="cls-4" points="503.69 6.72 503.69 8.46 497.34 8.46 497.34 6.72 499.66 6.72 499.66 2.25 498.21 2.25 498.21 .52 502.85 .52 502.85 2.25 501.4 2.25 501.4 6.72 503.69 6.72"/>
      <polygon class="cls-4" points="510.04 6.72 510.04 8.46 503.69 8.46 503.69 6.72 506.01 6.72 506.01 2.25 504.55 2.25 504.55 .52 509.2 .52 509.2 2.25 507.74 2.25 507.74 6.72 510.04 6.72"/>
      <polygon class="cls-4" points="516.39 6.72 516.39 8.46 510.04 8.46 510.04 6.72 512.36 6.72 512.36 2.25 510.9 2.25 510.9 .52 515.55 .52 515.55 2.25 514.09 2.25 514.09 6.72 516.39 6.72"/>
      <polygon class="cls-4" points="522.74 6.72 522.74 8.46 516.39 8.46 516.39 6.72 518.7 6.72 518.7 2.25 517.25 2.25 517.25 .52 521.89 .52 521.89 2.25 520.44 2.25 520.44 6.72 522.74 6.72"/>
      <polygon class="cls-4" points="529.09 6.72 529.09 8.46 522.74 8.46 522.74 6.72 525.05 6.72 525.05 2.25 523.6 2.25 523.6 .52 528.24 .52 528.24 2.25 526.79 2.25 526.79 6.72 529.09 6.72"/>
      <polygon class="cls-4" points="535.44 6.72 535.44 8.46 529.09 8.46 529.09 6.72 531.4 6.72 531.4 2.25 529.95 2.25 529.95 .52 534.59 .52 534.59 2.25 533.14 2.25 533.14 6.72 535.44 6.72"/>
      <polygon class="cls-4" points="541.78 6.72 541.78 8.46 535.44 8.46 535.44 6.72 537.75 6.72 537.75 2.25 536.3 2.25 536.3 .52 540.94 .52 540.94 2.25 539.49 2.25 539.49 6.72 541.78 6.72"/>
      <polygon class="cls-4" points="548.13 6.72 548.13 8.46 541.78 8.46 541.78 6.72 544.1 6.72 544.1 2.25 542.65 2.25 542.65 .52 547.29 .52 547.29 2.25 545.84 2.25 545.84 6.72 548.13 6.72"/>
      <polygon class="cls-4" points="554.48 6.72 554.48 8.46 548.13 8.46 548.13 6.72 550.45 6.72 550.45 2.25 548.99 2.25 548.99 .52 553.64 .52 553.64 2.25 552.18 2.25 552.18 6.72 554.48 6.72"/>
      <polygon class="cls-4" points="560.83 6.72 560.83 8.46 554.48 8.46 554.48 6.72 556.8 6.72 556.8 2.25 555.34 2.25 555.34 .52 559.99 .52 559.99 2.25 558.53 2.25 558.53 6.72 560.83 6.72"/>
      <polygon class="cls-4" points="567.18 6.72 567.18 8.46 560.83 8.46 560.83 6.72 563.15 6.72 563.15 2.25 561.69 2.25 561.69 .52 566.33 .52 566.33 2.25 564.88 2.25 564.88 6.72 567.18 6.72"/>
      <polygon class="cls-4" points="573.53 6.72 573.53 8.46 567.18 8.46 567.18 6.72 569.49 6.72 569.49 2.25 568.04 2.25 568.04 .52 572.68 .52 572.68 2.25 571.23 2.25 571.23 6.72 573.53 6.72"/>
      <polygon class="cls-4" points="579.88 6.72 579.88 8.46 573.53 8.46 573.53 6.72 575.84 6.72 575.84 2.25 574.39 2.25 574.39 .52 579.03 .52 579.03 2.25 577.58 2.25 577.58 6.72 579.88 6.72"/>
      <polygon class="cls-4" points="586.22 6.72 586.22 8.46 579.88 8.46 579.88 6.72 582.19 6.72 582.19 2.25 580.74 2.25 580.74 .52 585.38 .52 585.38 2.25 583.93 2.25 583.93 6.72 586.22 6.72"/>
      <polygon class="cls-4" points="592.57 6.72 592.57 8.46 586.22 8.46 586.22 6.72 588.54 6.72 588.54 2.25 587.09 2.25 587.09 .52 591.73 .52 591.73 2.25 590.28 2.25 590.28 6.72 592.57 6.72"/>
      <polygon class="cls-4" points="598.92 6.72 598.92 8.46 592.57 8.46 592.57 6.72 594.89 6.72 594.89 2.25 593.44 2.25 593.44 .52 598.08 .52 598.08 2.25 596.62 2.25 596.62 6.72 598.92 6.72"/>
      <polygon class="cls-4" points="605.27 6.72 605.27 8.46 598.92 8.46 598.92 6.72 601.24 6.72 601.24 2.25 599.78 2.25 599.78 .52 604.43 .52 604.43 2.25 602.97 2.25 602.97 6.72 605.27 6.72"/>
      <polygon class="cls-4" points="611.62 6.72 611.62 8.46 605.27 8.46 605.27 6.72 607.59 6.72 607.59 2.25 606.13 2.25 606.13 .52 610.78 .52 610.78 2.25 609.32 2.25 609.32 6.72 611.62 6.72"/>
      <polygon class="cls-4" points="617.97 6.72 617.97 8.46 611.62 8.46 611.62 6.72 613.93 6.72 613.93 2.25 612.48 2.25 612.48 .52 617.12 .52 617.12 2.25 615.67 2.25 615.67 6.72 617.97 6.72"/>
      <polygon class="cls-4" points="624.32 6.72 624.32 8.46 617.97 8.46 617.97 6.72 620.28 6.72 620.28 2.25 618.83 2.25 618.83 .52 623.47 .52 623.47 2.25 622.02 2.25 622.02 6.72 624.32 6.72"/>
      <polygon class="cls-4" points="630.66 6.72 630.66 8.46 624.32 8.46 624.32 6.72 626.63 6.72 626.63 2.25 625.18 2.25 625.18 .52 629.82 .52 629.82 2.25 628.37 2.25 628.37 6.72 630.66 6.72"/>
      <polygon class="cls-4" points="637.01 6.72 637.01 8.46 630.66 8.46 630.66 6.72 632.98 6.72 632.98 2.25 631.53 2.25 631.53 .52 636.17 .52 636.17 2.25 634.72 2.25 634.72 6.72 637.01 6.72"/>
      <polygon class="cls-4" points="643.36 6.72 643.36 8.46 637.01 8.46 637.01 6.72 639.33 6.72 639.33 2.25 637.88 2.25 637.88 .52 642.52 .52 642.52 2.25 641.07 2.25 641.07 6.72 643.36 6.72"/>
      <polygon class="cls-4" points="649.71 6.72 649.71 8.46 643.36 8.46 643.36 6.72 645.68 6.72 645.68 2.25 644.22 2.25 644.22 .52 648.87 .52 648.87 2.25 647.41 2.25 647.41 6.72 649.71 6.72"/>
      <polygon class="cls-4" points="651.45 15.06 649.71 15.06 649.71 8.46 651.45 8.46 651.45 10.87 655.92 10.87 655.92 9.36 657.65 9.36 657.65 14.19 655.92 14.19 655.92 12.68 651.45 12.68 651.45 15.06"/>
      <polygon class="cls-4" points="651.45 21.67 649.71 21.67 649.71 15.06 651.45 15.06 651.45 17.47 655.92 17.47 655.92 15.96 657.65 15.96 657.65 20.79 655.92 20.79 655.92 19.28 651.45 19.28 651.45 21.67"/>
      <polygon class="cls-4" points="651.45 28.27 649.71 28.27 649.71 21.67 651.45 21.67 651.45 24.07 655.92 24.07 655.92 22.56 657.65 22.56 657.65 27.39 655.92 27.39 655.92 25.88 651.45 25.88 651.45 28.27"/>
      <polygon class="cls-4" points="651.45 34.87 649.71 34.87 649.71 28.27 651.45 28.27 651.45 30.68 655.92 30.68 655.92 29.17 657.65 29.17 657.65 33.99 655.92 33.99 655.92 32.48 651.45 32.48 651.45 34.87"/>
      <polygon class="cls-4" points="651.45 41.47 649.71 41.47 649.71 34.87 651.45 34.87 651.45 37.28 655.92 37.28 655.92 35.77 657.65 35.77 657.65 40.6 655.92 40.6 655.92 39.09 651.45 39.09 651.45 41.47"/>
      <polygon class="cls-4" points="651.45 48.08 649.71 48.08 649.71 41.47 651.45 41.47 651.45 43.88 655.92 43.88 655.92 42.37 657.65 42.37 657.65 47.2 655.92 47.2 655.92 45.69 651.45 45.69 651.45 48.08"/>
      <polygon class="cls-4" points="651.45 54.68 649.71 54.68 649.71 48.08 651.45 48.08 651.45 50.49 655.92 50.49 655.92 48.97 657.65 48.97 657.65 53.8 655.92 53.8 655.92 52.29 651.45 52.29 651.45 54.68"/>
      <polygon class="cls-4" points="651.45 61.28 649.71 61.28 649.71 54.68 651.45 54.68 651.45 57.09 655.92 57.09 655.92 55.58 657.65 55.58 657.65 60.41 655.92 60.41 655.92 58.89 651.45 58.89 651.45 61.28"/>
      <polygon class="cls-4" points="643.36 63.02 643.36 61.28 649.71 61.28 649.71 63.02 647.4 63.02 647.4 67.49 648.85 67.49 648.85 69.23 644.21 69.23 644.21 67.49 645.66 67.49 645.66 63.02 643.36 63.02"/>
      <polygon class="cls-4" points="637.01 63.02 637.01 61.28 643.36 61.28 643.36 63.02 641.05 63.02 641.05 67.49 642.5 67.49 642.5 69.23 637.86 69.23 637.86 67.49 639.31 67.49 639.31 63.02 637.01 63.02"/>
      <polygon class="cls-4" points="630.66 63.02 630.66 61.28 637.01 61.28 637.01 63.02 634.7 63.02 634.7 67.49 636.15 67.49 636.15 69.23 631.51 69.23 631.51 67.49 632.96 67.49 632.96 63.02 630.66 63.02"/>
      <polygon class="cls-4" points="624.32 63.02 624.32 61.28 630.66 61.28 630.66 63.02 628.35 63.02 628.35 67.49 629.8 67.49 629.8 69.23 625.16 69.23 625.16 67.49 626.61 67.49 626.61 63.02 624.32 63.02"/>
      <polygon class="cls-4" points="617.97 63.02 617.97 61.28 624.32 61.28 624.32 63.02 622 63.02 622 67.49 623.45 67.49 623.45 69.23 618.81 69.23 618.81 67.49 620.26 67.49 620.26 63.02 617.97 63.02"/>
      <polygon class="cls-4" points="611.62 63.02 611.62 61.28 617.97 61.28 617.97 63.02 615.65 63.02 615.65 67.49 617.1 67.49 617.1 69.23 612.46 69.23 612.46 67.49 613.92 67.49 613.92 63.02 611.62 63.02"/>
      <polygon class="cls-4" points="605.27 63.02 605.27 61.28 611.62 61.28 611.62 63.02 609.3 63.02 609.3 67.49 610.76 67.49 610.76 69.23 606.11 69.23 606.11 67.49 607.57 67.49 607.57 63.02 605.27 63.02"/>
      <polygon class="cls-4" points="598.92 63.02 598.92 61.28 605.27 61.28 605.27 63.02 602.95 63.02 602.95 67.49 604.41 67.49 604.41 69.23 599.77 69.23 599.77 67.49 601.22 67.49 601.22 63.02 598.92 63.02"/>
      <polygon class="cls-4" points="592.57 63.02 592.57 61.28 598.92 61.28 598.92 63.02 596.61 63.02 596.61 67.49 598.06 67.49 598.06 69.23 593.42 69.23 593.42 67.49 594.87 67.49 594.87 63.02 592.57 63.02"/>
      <polygon class="cls-4" points="586.22 63.02 586.22 61.28 592.57 61.28 592.57 63.02 590.26 63.02 590.26 67.49 591.71 67.49 591.71 69.23 587.07 69.23 587.07 67.49 588.52 67.49 588.52 63.02 586.22 63.02"/>
      <polygon class="cls-4" points="579.88 63.02 579.88 61.28 586.22 61.28 586.22 63.02 583.91 63.02 583.91 67.49 585.36 67.49 585.36 69.23 580.72 69.23 580.72 67.49 582.17 67.49 582.17 63.02 579.88 63.02"/>
      <polygon class="cls-4" points="573.53 63.02 573.53 61.28 579.88 61.28 579.88 63.02 577.56 63.02 577.56 67.49 579.01 67.49 579.01 69.23 574.37 69.23 574.37 67.49 575.82 67.49 575.82 63.02 573.53 63.02"/>
      <polygon class="cls-4" points="567.18 63.02 567.18 61.28 573.53 61.28 573.53 63.02 571.21 63.02 571.21 67.49 572.66 67.49 572.66 69.23 568.02 69.23 568.02 67.49 569.48 67.49 569.48 63.02 567.18 63.02"/>
      <polygon class="cls-4" points="560.83 63.02 560.83 61.28 567.18 61.28 567.18 63.02 564.86 63.02 564.86 67.49 566.32 67.49 566.32 69.23 561.67 69.23 561.67 67.49 563.13 67.49 563.13 63.02 560.83 63.02"/>
      <polygon class="cls-4" points="554.48 63.02 554.48 61.28 560.83 61.28 560.83 63.02 558.51 63.02 558.51 67.49 559.97 67.49 559.97 69.23 555.32 69.23 555.32 67.49 556.78 67.49 556.78 63.02 554.48 63.02"/>
      <polygon class="cls-4" points="548.13 63.02 548.13 61.28 554.48 61.28 554.48 63.02 552.17 63.02 552.17 67.49 553.62 67.49 553.62 69.23 548.98 69.23 548.98 67.49 550.43 67.49 550.43 63.02 548.13 63.02"/>
      <polygon class="cls-4" points="541.78 63.02 541.78 61.28 548.13 61.28 548.13 63.02 545.82 63.02 545.82 67.49 547.27 67.49 547.27 69.23 542.63 69.23 542.63 67.49 544.08 67.49 544.08 63.02 541.78 63.02"/>
      <polygon class="cls-4" points="535.44 63.02 535.44 61.28 541.78 61.28 541.78 63.02 539.47 63.02 539.47 67.49 540.92 67.49 540.92 69.23 536.28 69.23 536.28 67.49 537.73 67.49 537.73 63.02 535.44 63.02"/>
      <polygon class="cls-4" points="529.09 63.02 529.09 61.28 535.44 61.28 535.44 63.02 533.12 63.02 533.12 67.49 534.57 67.49 534.57 69.23 529.93 69.23 529.93 67.49 531.38 67.49 531.38 63.02 529.09 63.02"/>
      <polygon class="cls-4" points="522.74 63.02 522.74 61.28 529.09 61.28 529.09 63.02 526.77 63.02 526.77 67.49 528.22 67.49 528.22 69.23 523.58 69.23 523.58 67.49 525.03 67.49 525.03 63.02 522.74 63.02"/>
      <polygon class="cls-4" points="516.39 63.02 516.39 61.28 522.74 61.28 522.74 63.02 520.42 63.02 520.42 67.49 521.88 67.49 521.88 69.23 517.23 69.23 517.23 67.49 518.69 67.49 518.69 63.02 516.39 63.02"/>
      <polygon class="cls-4" points="510.04 63.02 510.04 61.28 516.39 61.28 516.39 63.02 514.07 63.02 514.07 67.49 515.53 67.49 515.53 69.23 510.88 69.23 510.88 67.49 512.34 67.49 512.34 63.02 510.04 63.02"/>
      <polygon class="cls-4" points="503.69 63.02 503.69 61.28 510.04 61.28 510.04 63.02 507.73 63.02 507.73 67.49 509.18 67.49 509.18 69.23 504.54 69.23 504.54 67.49 505.99 67.49 505.99 63.02 503.69 63.02"/>
      <polygon class="cls-4" points="497.34 63.02 497.34 61.28 503.69 61.28 503.69 63.02 501.38 63.02 501.38 67.49 502.83 67.49 502.83 69.23 498.19 69.23 498.19 67.49 499.64 67.49 499.64 63.02 497.34 63.02"/>
      <polygon class="cls-4" points="491 63.02 491 61.28 497.34 61.28 497.34 63.02 495.03 63.02 495.03 67.49 496.48 67.49 496.48 69.23 491.84 69.23 491.84 67.49 493.29 67.49 493.29 63.02 491 63.02"/>
      <polygon class="cls-4" points="484.65 63.02 484.65 61.28 491 61.28 491 63.02 488.68 63.02 488.68 67.49 490.13 67.49 490.13 69.23 485.49 69.23 485.49 67.49 486.94 67.49 486.94 63.02 484.65 63.02"/>
      <polygon class="cls-4" points="478.3 63.02 478.3 61.28 484.65 61.28 484.65 63.02 482.33 63.02 482.33 67.49 483.78 67.49 483.78 69.23 479.14 69.23 479.14 67.49 480.59 67.49 480.59 63.02 478.3 63.02"/>
      <polygon class="cls-4" points="471.95 63.02 471.95 61.28 478.3 61.28 478.3 63.02 475.98 63.02 475.98 67.49 477.44 67.49 477.44 69.23 472.79 69.23 472.79 67.49 474.25 67.49 474.25 63.02 471.95 63.02"/>
      <polygon class="cls-4" points="465.6 63.02 465.6 61.28 471.95 61.28 471.95 63.02 469.63 63.02 469.63 67.49 471.09 67.49 471.09 69.23 466.44 69.23 466.44 67.49 467.9 67.49 467.9 63.02 465.6 63.02"/>
      <polygon class="cls-4" points="459.25 63.02 459.25 61.28 465.6 61.28 465.6 63.02 463.29 63.02 463.29 67.49 464.74 67.49 464.74 69.23 460.1 69.23 460.1 67.49 461.55 67.49 461.55 63.02 459.25 63.02"/>
      <polygon class="cls-4" points="452.9 63.02 452.9 61.28 459.25 61.28 459.25 63.02 456.94 63.02 456.94 67.49 458.39 67.49 458.39 69.23 453.75 69.23 453.75 67.49 455.2 67.49 455.2 63.02 452.9 63.02"/>
      <polygon class="cls-4" points="446.55 63.02 446.55 61.28 452.9 61.28 452.9 63.02 450.59 63.02 450.59 67.49 452.04 67.49 452.04 69.23 447.4 69.23 447.4 67.49 448.85 67.49 448.85 63.02 446.55 63.02"/>
      <polygon class="cls-4" points="440.21 63.02 440.21 61.28 446.55 61.28 446.55 63.02 444.24 63.02 444.24 67.49 445.69 67.49 445.69 69.23 441.05 69.23 441.05 67.49 442.5 67.49 442.5 63.02 440.21 63.02"/>
      <polygon class="cls-4" points="433.86 63.02 433.86 61.28 440.21 61.28 440.21 63.02 437.89 63.02 437.89 67.49 439.34 67.49 439.34 69.23 434.7 69.23 434.7 67.49 436.15 67.49 436.15 63.02 433.86 63.02"/>
      <polygon class="cls-4" points="427.51 63.02 427.51 61.28 433.86 61.28 433.86 63.02 431.54 63.02 431.54 67.49 433 67.49 433 69.23 428.35 69.23 428.35 67.49 429.81 67.49 429.81 63.02 427.51 63.02"/>
      <polygon class="cls-4" points="421.16 63.02 421.16 61.28 427.51 61.28 427.51 63.02 425.19 63.02 425.19 67.49 426.65 67.49 426.65 69.23 422 69.23 422 67.49 423.46 67.49 423.46 63.02 421.16 63.02"/>
      <polygon class="cls-4" points="414.81 63.02 414.81 61.28 421.16 61.28 421.16 63.02 418.85 63.02 418.85 67.49 420.3 67.49 420.3 69.23 415.66 69.23 415.66 67.49 417.11 67.49 417.11 63.02 414.81 63.02"/>
      <polygon class="cls-4" points="408.46 63.02 408.46 61.28 414.81 61.28 414.81 63.02 412.5 63.02 412.5 67.49 413.95 67.49 413.95 69.23 409.31 69.23 409.31 67.49 410.76 67.49 410.76 63.02 408.46 63.02"/>
      <polygon class="cls-4" points="402.11 63.02 402.11 61.28 408.46 61.28 408.46 63.02 406.15 63.02 406.15 67.49 407.6 67.49 407.6 69.23 402.96 69.23 402.96 67.49 404.41 67.49 404.41 63.02 402.11 63.02"/>
      <polygon class="cls-4" points="395.77 63.02 395.77 61.28 402.11 61.28 402.11 63.02 399.8 63.02 399.8 67.49 401.25 67.49 401.25 69.23 396.61 69.23 396.61 67.49 398.06 67.49 398.06 63.02 395.77 63.02"/>
      <polygon class="cls-4" points="389.42 63.02 389.42 61.28 395.77 61.28 395.77 63.02 393.45 63.02 393.45 67.49 394.9 67.49 394.9 69.23 390.26 69.23 390.26 67.49 391.71 67.49 391.71 63.02 389.42 63.02"/>
      <polygon class="cls-4" points="383.07 63.02 383.07 61.28 389.42 61.28 389.42 63.02 387.1 63.02 387.1 67.49 388.56 67.49 388.56 69.23 383.91 69.23 383.91 67.49 385.37 67.49 385.37 63.02 383.07 63.02"/>
      <polygon class="cls-4" points="376.72 63.02 376.72 61.28 383.07 61.28 383.07 63.02 380.75 63.02 380.75 67.49 382.21 67.49 382.21 69.23 377.56 69.23 377.56 67.49 379.02 67.49 379.02 63.02 376.72 63.02"/>
      <polygon class="cls-4" points="370.37 63.02 370.37 61.28 376.72 61.28 376.72 63.02 374.4 63.02 374.4 67.49 375.86 67.49 375.86 69.23 371.22 69.23 371.22 67.49 372.67 67.49 372.67 63.02 370.37 63.02"/>
      <polygon class="cls-4" points="364.02 63.02 364.02 61.28 370.37 61.28 370.37 63.02 368.06 63.02 368.06 67.49 369.51 67.49 369.51 69.23 364.87 69.23 364.87 67.49 366.32 67.49 366.32 63.02 364.02 63.02"/>
      <polygon class="cls-4" points="357.67 63.02 357.67 61.28 364.02 61.28 364.02 63.02 361.71 63.02 361.71 67.49 363.16 67.49 363.16 69.23 358.52 69.23 358.52 67.49 359.97 67.49 359.97 63.02 357.67 63.02"/>
      <polygon class="cls-4" points="351.33 63.02 351.33 61.28 357.67 61.28 357.67 63.02 355.36 63.02 355.36 67.49 356.81 67.49 356.81 69.23 352.17 69.23 352.17 67.49 353.62 67.49 353.62 63.02 351.33 63.02"/>
      <polygon class="cls-4" points="344.98 63.02 344.98 61.28 351.33 61.28 351.33 63.02 349.01 63.02 349.01 67.49 350.46 67.49 350.46 69.23 345.82 69.23 345.82 67.49 347.27 67.49 347.27 63.02 344.98 63.02"/>
      <polygon class="cls-4" points="338.63 63.02 338.63 61.28 344.98 61.28 344.98 63.02 342.66 63.02 342.66 67.49 344.11 67.49 344.11 69.23 339.47 69.23 339.47 67.49 340.93 67.49 340.93 63.02 338.63 63.02"/>
      <polygon class="cls-4" points="332.28 63.02 332.28 61.28 338.63 61.28 338.63 63.02 336.31 63.02 336.31 67.49 337.77 67.49 337.77 69.23 333.12 69.23 333.12 67.49 334.58 67.49 334.58 63.02 332.28 63.02"/>
      <polygon class="cls-4" points="325.93 63.02 325.93 61.28 332.28 61.28 332.28 63.02 329.96 63.02 329.96 67.49 331.42 67.49 331.42 69.23 326.77 69.23 326.77 67.49 328.23 67.49 328.23 63.02 325.93 63.02"/>
      <polygon class="cls-4" points="319.58 63.02 319.58 61.28 325.93 61.28 325.93 63.02 323.62 63.02 323.62 67.49 325.07 67.49 325.07 69.23 320.43 69.23 320.43 67.49 321.88 67.49 321.88 63.02 319.58 63.02"/>
      <polygon class="cls-4" points="313.23 63.02 313.23 61.28 319.58 61.28 319.58 63.02 317.27 63.02 317.27 67.49 318.72 67.49 318.72 69.23 314.08 69.23 314.08 67.49 315.53 67.49 315.53 63.02 313.23 63.02"/>
      <polygon class="cls-4" points="306.89 63.02 306.89 61.28 313.23 61.28 313.23 63.02 310.92 63.02 310.92 67.49 312.37 67.49 312.37 69.23 307.73 69.23 307.73 67.49 309.18 67.49 309.18 63.02 306.89 63.02"/>
      <polygon class="cls-4" points="300.54 63.02 300.54 61.28 306.89 61.28 306.89 63.02 304.57 63.02 304.57 67.49 306.02 67.49 306.02 69.23 301.38 69.23 301.38 67.49 302.83 67.49 302.83 63.02 300.54 63.02"/>
      <polygon class="cls-4" points="294.19 63.02 294.19 61.28 300.54 61.28 300.54 63.02 298.22 63.02 298.22 67.49 299.67 67.49 299.67 69.23 295.03 69.23 295.03 67.49 296.48 67.49 296.48 63.02 294.19 63.02"/>
      <polygon class="cls-4" points="287.84 63.02 287.84 61.28 294.19 61.28 294.19 63.02 291.87 63.02 291.87 67.49 293.33 67.49 293.33 69.23 288.68 69.23 288.68 67.49 290.14 67.49 290.14 63.02 287.84 63.02"/>
      <polygon class="cls-4" points="281.49 63.02 281.49 61.28 287.84 61.28 287.84 63.02 285.52 63.02 285.52 67.49 286.98 67.49 286.98 69.23 282.33 69.23 282.33 67.49 283.79 67.49 283.79 63.02 281.49 63.02"/>
      <polygon class="cls-4" points="275.14 63.02 275.14 61.28 281.49 61.28 281.49 63.02 279.18 63.02 279.18 67.49 280.63 67.49 280.63 69.23 275.99 69.23 275.99 67.49 277.44 67.49 277.44 63.02 275.14 63.02"/>
      <polygon class="cls-4" points="268.79 63.02 268.79 61.28 275.14 61.28 275.14 63.02 272.83 63.02 272.83 67.49 274.28 67.49 274.28 69.23 269.64 69.23 269.64 67.49 271.09 67.49 271.09 63.02 268.79 63.02"/>
      <polygon class="cls-4" points="262.45 63.02 262.45 61.28 268.79 61.28 268.79 63.02 266.48 63.02 266.48 67.49 267.93 67.49 267.93 69.23 263.29 69.23 263.29 67.49 264.74 67.49 264.74 63.02 262.45 63.02"/>
      <polygon class="cls-4" points="256.1 63.02 256.1 61.28 262.45 61.28 262.45 63.02 260.13 63.02 260.13 67.49 261.58 67.49 261.58 69.23 256.94 69.23 256.94 67.49 258.39 67.49 258.39 63.02 256.1 63.02"/>
      <polygon class="cls-4" points="249.75 63.02 249.75 61.28 256.1 61.28 256.1 63.02 253.78 63.02 253.78 67.49 255.23 67.49 255.23 69.23 250.59 69.23 250.59 67.49 252.04 67.49 252.04 63.02 249.75 63.02"/>
      <polygon class="cls-4" points="243.4 63.02 243.4 61.28 249.75 61.28 249.75 63.02 247.43 63.02 247.43 67.49 248.89 67.49 248.89 69.23 244.24 69.23 244.24 67.49 245.7 67.49 245.7 63.02 243.4 63.02"/>
      <polygon class="cls-4" points="237.05 63.02 237.05 61.28 243.4 61.28 243.4 63.02 241.08 63.02 241.08 67.49 242.54 67.49 242.54 69.23 237.89 69.23 237.89 67.49 239.35 67.49 239.35 63.02 237.05 63.02"/>
      <polygon class="cls-4" points="230.7 63.02 230.7 61.28 237.05 61.28 237.05 63.02 234.74 63.02 234.74 67.49 236.19 67.49 236.19 69.23 231.55 69.23 231.55 67.49 233 67.49 233 63.02 230.7 63.02"/>
      <polygon class="cls-4" points="224.35 63.02 224.35 61.28 230.7 61.28 230.7 63.02 228.39 63.02 228.39 67.49 229.84 67.49 229.84 69.23 225.2 69.23 225.2 67.49 226.65 67.49 226.65 63.02 224.35 63.02"/>
      <polygon class="cls-4" points="218 63.02 218 61.28 224.35 61.28 224.35 63.02 222.04 63.02 222.04 67.49 223.49 67.49 223.49 69.23 218.85 69.23 218.85 67.49 220.3 67.49 220.3 63.02 218 63.02"/>
      <polygon class="cls-4" points="211.66 63.02 211.66 61.28 218 61.28 218 63.02 215.69 63.02 215.69 67.49 217.14 67.49 217.14 69.23 212.5 69.23 212.5 67.49 213.95 67.49 213.95 63.02 211.66 63.02"/>
      <polygon class="cls-4" points="205.31 63.02 205.31 61.28 211.66 61.28 211.66 63.02 209.34 63.02 209.34 67.49 210.79 67.49 210.79 69.23 206.15 69.23 206.15 67.49 207.6 67.49 207.6 63.02 205.31 63.02"/>
      <polygon class="cls-4" points="198.96 63.02 198.96 61.28 205.31 61.28 205.31 63.02 202.99 63.02 202.99 67.49 204.45 67.49 204.45 69.23 199.8 69.23 199.8 67.49 201.26 67.49 201.26 63.02 198.96 63.02"/>
      <polygon class="cls-4" points="192.61 63.02 192.61 61.28 198.96 61.28 198.96 63.02 196.64 63.02 196.64 67.49 198.1 67.49 198.1 69.23 193.45 69.23 193.45 67.49 194.91 67.49 194.91 63.02 192.61 63.02"/>
      <polygon class="cls-4" points="186.26 63.02 186.26 61.28 192.61 61.28 192.61 63.02 190.3 63.02 190.3 67.49 191.75 67.49 191.75 69.23 187.11 69.23 187.11 67.49 188.56 67.49 188.56 63.02 186.26 63.02"/>
      <polygon class="cls-4" points="179.91 63.02 179.91 61.28 186.26 61.28 186.26 63.02 183.95 63.02 183.95 67.49 185.4 67.49 185.4 69.23 180.76 69.23 180.76 67.49 182.21 67.49 182.21 63.02 179.91 63.02"/>
      <polygon class="cls-4" points="173.56 63.02 173.56 61.28 179.91 61.28 179.91 63.02 177.6 63.02 177.6 67.49 179.05 67.49 179.05 69.23 174.41 69.23 174.41 67.49 175.86 67.49 175.86 63.02 173.56 63.02"/>
      <polygon class="cls-4" points="167.22 63.02 167.22 61.28 173.56 61.28 173.56 63.02 171.25 63.02 171.25 67.49 172.7 67.49 172.7 69.23 168.06 69.23 168.06 67.49 169.51 67.49 169.51 63.02 167.22 63.02"/>
      <polygon class="cls-4" points="160.87 63.02 160.87 61.28 167.22 61.28 167.22 63.02 164.9 63.02 164.9 67.49 166.35 67.49 166.35 69.23 161.71 69.23 161.71 67.49 163.16 67.49 163.16 63.02 160.87 63.02"/>
      <polygon class="cls-4" points="154.52 63.02 154.52 61.28 160.87 61.28 160.87 63.02 158.55 63.02 158.55 67.49 160.01 67.49 160.01 69.23 155.36 69.23 155.36 67.49 156.82 67.49 156.82 63.02 154.52 63.02"/>
      <polygon class="cls-4" points="148.17 63.02 148.17 61.28 154.52 61.28 154.52 63.02 152.2 63.02 152.2 67.49 153.66 67.49 153.66 69.23 149.01 69.23 149.01 67.49 150.47 67.49 150.47 63.02 148.17 63.02"/>
      <polygon class="cls-4" points="141.82 63.02 141.82 61.28 148.17 61.28 148.17 63.02 145.85 63.02 145.85 67.49 147.31 67.49 147.31 69.23 142.67 69.23 142.67 67.49 144.12 67.49 144.12 63.02 141.82 63.02"/>
      <polygon class="cls-4" points="135.47 63.02 135.47 61.28 141.82 61.28 141.82 63.02 139.51 63.02 139.51 67.49 140.96 67.49 140.96 69.23 136.32 69.23 136.32 67.49 137.77 67.49 137.77 63.02 135.47 63.02"/>
      <polygon class="cls-4" points="129.12 63.02 129.12 61.28 135.47 61.28 135.47 63.02 133.16 63.02 133.16 67.49 134.61 67.49 134.61 69.23 129.97 69.23 129.97 67.49 131.42 67.49 131.42 63.02 129.12 63.02"/>
      <polygon class="cls-4" points="122.78 63.02 122.78 61.28 129.12 61.28 129.12 63.02 126.81 63.02 126.81 67.49 128.26 67.49 128.26 69.23 123.62 69.23 123.62 67.49 125.07 67.49 125.07 63.02 122.78 63.02"/>
      <polygon class="cls-4" points="116.43 63.02 116.43 61.28 122.78 61.28 122.78 63.02 120.46 63.02 120.46 67.49 121.91 67.49 121.91 69.23 117.27 69.23 117.27 67.49 118.72 67.49 118.72 63.02 116.43 63.02"/>
      <polygon class="cls-4" points="110.08 63.02 110.08 61.28 116.43 61.28 116.43 63.02 114.11 63.02 114.11 67.49 115.56 67.49 115.56 69.23 110.92 69.23 110.92 67.49 112.38 67.49 112.38 63.02 110.08 63.02"/>
      <polygon class="cls-4" points="103.73 63.02 103.73 61.28 110.08 61.28 110.08 63.02 107.76 63.02 107.76 67.49 109.22 67.49 109.22 69.23 104.57 69.23 104.57 67.49 106.03 67.49 106.03 63.02 103.73 63.02"/>
      <polygon class="cls-4" points="97.38 63.02 97.38 61.28 103.73 61.28 103.73 63.02 101.41 63.02 101.41 67.49 102.87 67.49 102.87 69.23 98.22 69.23 98.22 67.49 99.68 67.49 99.68 63.02 97.38 63.02"/>
      <polygon class="cls-4" points="91.03 63.02 91.03 61.28 97.38 61.28 97.38 63.02 95.07 63.02 95.07 67.49 96.52 67.49 96.52 69.23 91.88 69.23 91.88 67.49 93.33 67.49 93.33 63.02 91.03 63.02"/>
      <polygon class="cls-4" points="84.68 63.02 84.68 61.28 91.03 61.28 91.03 63.02 88.72 63.02 88.72 67.49 90.17 67.49 90.17 69.23 85.53 69.23 85.53 67.49 86.98 67.49 86.98 63.02 84.68 63.02"/>
      <polygon class="cls-4" points="78.34 63.02 78.34 61.28 84.68 61.28 84.68 63.02 82.37 63.02 82.37 67.49 83.82 67.49 83.82 69.23 79.18 69.23 79.18 67.49 80.63 67.49 80.63 63.02 78.34 63.02"/>
      <polygon class="cls-4" points="71.99 63.02 71.99 61.28 78.34 61.28 78.34 63.02 76.02 63.02 76.02 67.49 77.47 67.49 77.47 69.23 72.83 69.23 72.83 67.49 74.28 67.49 74.28 63.02 71.99 63.02"/>
      <polygon class="cls-4" points="65.64 63.02 65.64 61.28 71.99 61.28 71.99 63.02 69.67 63.02 69.67 67.49 71.12 67.49 71.12 69.23 66.48 69.23 66.48 67.49 67.93 67.49 67.93 63.02 65.64 63.02"/>
      <polygon class="cls-4" points="59.29 63.02 59.29 61.28 65.64 61.28 65.64 63.02 63.32 63.02 63.32 67.49 64.78 67.49 64.78 69.23 60.13 69.23 60.13 67.49 61.59 67.49 61.59 63.02 59.29 63.02"/>
      <polygon class="cls-4" points="52.94 63.02 52.94 61.28 59.29 61.28 59.29 63.02 56.97 63.02 56.97 67.49 58.43 67.49 58.43 69.23 53.78 69.23 53.78 67.49 55.24 67.49 55.24 63.02 52.94 63.02"/>
      <polygon class="cls-4" points="46.59 63.02 46.59 61.28 52.94 61.28 52.94 63.02 50.63 63.02 50.63 67.49 52.08 67.49 52.08 69.23 47.44 69.23 47.44 67.49 48.89 67.49 48.89 63.02 46.59 63.02"/>
      <polygon class="cls-4" points="40.24 63.02 40.24 61.28 46.59 61.28 46.59 63.02 44.28 63.02 44.28 67.49 45.73 67.49 45.73 69.23 41.09 69.23 41.09 67.49 42.54 67.49 42.54 63.02 40.24 63.02"/>
      <polygon class="cls-4" points="33.9 63.02 33.9 61.28 40.24 61.28 40.24 63.02 37.93 63.02 37.93 67.49 39.38 67.49 39.38 69.23 34.74 69.23 34.74 67.49 36.19 67.49 36.19 63.02 33.9 63.02"/>
      <polygon class="cls-4" points="27.55 63.02 27.55 61.28 33.9 61.28 33.9 63.02 31.58 63.02 31.58 67.49 33.03 67.49 33.03 69.23 28.39 69.23 28.39 67.49 29.84 67.49 29.84 63.02 27.55 63.02"/>
      <polygon class="cls-4" points="21.2 63.02 21.2 61.28 27.55 61.28 27.55 63.02 25.23 63.02 25.23 67.49 26.68 67.49 26.68 69.23 22.04 69.23 22.04 67.49 23.49 67.49 23.49 63.02 21.2 63.02"/>
      <polygon class="cls-4" points="14.85 63.02 14.85 61.28 21.2 61.28 21.2 63.02 18.88 63.02 18.88 67.49 20.34 67.49 20.34 69.23 15.69 69.23 15.69 67.49 17.15 67.49 17.15 63.02 14.85 63.02"/>
      <polygon class="cls-4" points="8.5 63.02 8.5 61.28 14.85 61.28 14.85 63.02 12.53 63.02 12.53 67.49 13.99 67.49 13.99 69.23 9.34 69.23 9.34 67.49 10.8 67.49 10.8 63.02 8.5 63.02"/>
      <g class="cls-8">
        <polygon class="cls-4" points="6.76 .52 8.5 .52 8.5 8.46 6.76 8.46 6.76 5.56 2.29 5.56 2.29 7.38 .56 7.38 .56 1.57 2.29 1.57 2.29 3.39 6.76 3.39 6.76 .52"/>
      </g>
      <g class="cls-6">
        <polygon class="cls-4" points="8.5 6.72 8.5 8.46 .56 8.46 .56 6.72 3.45 6.72 3.45 2.25 1.64 2.25 1.64 .52 7.45 .52 7.45 2.25 5.63 2.25 5.63 6.72 8.5 6.72"/>
      </g>
      <g class="cls-1">
        <polygon class="cls-4" points="657.65 6.72 657.65 8.46 649.71 8.46 649.71 6.72 652.61 6.72 652.61 2.25 650.79 2.25 650.79 .52 656.6 .52 656.6 2.25 654.78 2.25 654.78 6.72 657.65 6.72"/>
      </g>
      <g class="cls-9">
        <polygon class="cls-4" points="651.45 8.46 649.71 8.46 649.71 .52 651.45 .52 651.45 3.41 655.92 3.41 655.92 1.6 657.65 1.6 657.65 7.41 655.92 7.41 655.92 5.59 651.45 5.59 651.45 8.46"/>
      </g>
      <g class="cls-7">
        <polygon class="cls-4" points="651.45 69.23 649.71 69.23 649.71 61.28 651.45 61.28 651.45 64.18 655.92 64.18 655.92 62.36 657.65 62.36 657.65 68.17 655.92 68.17 655.92 66.35 651.45 66.35 651.45 69.23"/>
      </g>
      <g class="cls-10">
        <polygon class="cls-4" points="649.71 63.02 649.71 61.28 657.65 61.28 657.65 63.02 654.76 63.02 654.76 67.49 656.58 67.49 656.58 69.23 650.77 69.23 650.77 67.49 652.58 67.49 652.58 63.02 649.71 63.02"/>
      </g>
      <g class="cls-2">
        <polygon class="cls-4" points=".56 63.02 .56 61.28 8.5 61.28 8.5 63.02 5.6 63.02 5.6 67.49 7.42 67.49 7.42 69.23 1.61 69.23 1.61 67.49 3.43 67.49 3.43 63.02 .56 63.02"/>
      </g>
      <g class="cls-5">
        <polygon class="cls-4" points="6.76 61.28 8.5 61.28 8.5 69.23 6.76 69.23 6.76 66.33 2.29 66.33 2.29 68.15 .56 68.15 .56 62.34 2.29 62.34 2.29 64.16 6.76 64.16 6.76 61.28"/>
      </g>
    </g>
  </g>
</svg>