<?xml version="1.0" encoding="UTF-8"?>
<svg id="Layer_1" data-name="Layer 1" xmlns="http://www.w3.org/2000/svg" version="1.1" xmlns:xlink="http://www.w3.org/1999/xlink" viewBox="0 0 591.2 142.68">
  <defs>
    <style>
      .cls-1 {
        clip-path: url(#clippath-2);
      }

      .cls-2 {
        clip-path: url(#clippath-6);
      }

      .cls-3 {
        fill: none;
      }

      .cls-3, .cls-4 {
        stroke-width: 0px;
      }

      .cls-5 {
        clip-path: url(#clippath-7);
      }

      .cls-6 {
        clip-path: url(#clippath-1);
      }

      .cls-7 {
        clip-path: url(#clippath-4);
      }

      .cls-4 {
        fill: #fed700;
      }

      .cls-8 {
        clip-path: url(#clippath);
      }

      .cls-9 {
        clip-path: url(#clippath-3);
      }

      .cls-10 {
        clip-path: url(#clippath-5);
      }
    </style>
    <clipPath id="clippath">
      <polygon class="cls-3" points="7.94 7.94 0 0 0 7.94 7.94 7.94"/>
    </clipPath>
    <clipPath id="clippath-1">
      <polygon class="cls-3" points="7.94 7.94 0 0 7.94 0 7.94 7.94"/>
    </clipPath>
    <clipPath id="clippath-2">
      <polygon class="cls-3" points="583.06 7.94 591.01 0 583.06 0 583.06 7.94"/>
    </clipPath>
    <clipPath id="clippath-3">
      <polygon class="cls-3" points="583.06 7.94 591.01 0 591.01 7.94 583.06 7.94"/>
    </clipPath>
    <clipPath id="clippath-4">
      <polygon class="cls-3" points="583.06 134.73 591.01 142.68 591.01 134.73 583.06 134.73"/>
    </clipPath>
    <clipPath id="clippath-5">
      <polygon class="cls-3" points="583.06 134.73 591.01 142.68 583.06 142.68 583.06 134.73"/>
    </clipPath>
    <clipPath id="clippath-6">
      <polygon class="cls-3" points="7.94 134.73 0 142.68 7.94 142.68 7.94 134.73"/>
    </clipPath>
    <clipPath id="clippath-7">
      <polygon class="cls-3" points="7.94 134.73 0 142.68 0 134.73 7.94 134.73"/>
    </clipPath>
  </defs>
  <rect class="cls-4" x="3.97" y="3.97" width="583.06" height="134.73"/>
  <g>
    <polygon class="cls-4" points="6.21 128.39 7.94 128.39 7.94 134.73 6.21 134.73 6.21 132.42 1.74 132.42 1.74 133.87 0 133.87 0 129.24 1.74 129.24 1.74 130.69 6.21 130.69 6.21 128.39"/>
    <polygon class="cls-4" points="6.21 122.05 7.94 122.05 7.94 128.39 6.21 128.39 6.21 126.08 1.74 126.08 1.74 127.53 0 127.53 0 122.9 1.74 122.9 1.74 124.35 6.21 124.35 6.21 122.05"/>
    <polygon class="cls-4" points="6.21 115.71 7.94 115.71 7.94 122.05 6.21 122.05 6.21 119.74 1.74 119.74 1.74 121.19 0 121.19 0 116.56 1.74 116.56 1.74 118.01 6.21 118.01 6.21 115.71"/>
    <polygon class="cls-4" points="6.21 109.37 7.94 109.37 7.94 115.71 6.21 115.71 6.21 113.4 1.74 113.4 1.74 114.85 0 114.85 0 110.22 1.74 110.22 1.74 111.67 6.21 111.67 6.21 109.37"/>
    <polygon class="cls-4" points="6.21 103.04 7.94 103.04 7.94 109.37 6.21 109.37 6.21 107.06 1.74 107.06 1.74 108.51 0 108.51 0 103.88 1.74 103.88 1.74 105.33 6.21 105.33 6.21 103.04"/>
    <polygon class="cls-4" points="6.21 96.7 7.94 96.7 7.94 103.04 6.21 103.04 6.21 100.72 1.74 100.72 1.74 102.17 0 102.17 0 97.54 1.74 97.54 1.74 98.99 6.21 98.99 6.21 96.7"/>
    <polygon class="cls-4" points="6.21 90.36 7.94 90.36 7.94 96.7 6.21 96.7 6.21 94.38 1.74 94.38 1.74 95.83 0 95.83 0 91.2 1.74 91.2 1.74 92.65 6.21 92.65 6.21 90.36"/>
    <polygon class="cls-4" points="6.21 84.02 7.94 84.02 7.94 90.36 6.21 90.36 6.21 88.04 1.74 88.04 1.74 89.5 0 89.5 0 84.86 1.74 84.86 1.74 86.31 6.21 86.31 6.21 84.02"/>
    <polygon class="cls-4" points="6.21 77.68 7.94 77.68 7.94 84.02 6.21 84.02 6.21 81.71 1.74 81.71 1.74 83.16 0 83.16 0 78.52 1.74 78.52 1.74 79.97 6.21 79.97 6.21 77.68"/>
    <polygon class="cls-4" points="6.21 71.34 7.94 71.34 7.94 77.68 6.21 77.68 6.21 75.37 1.74 75.37 1.74 76.82 0 76.82 0 72.18 1.74 72.18 1.74 73.63 6.21 73.63 6.21 71.34"/>
    <polygon class="cls-4" points="6.21 65 7.94 65 7.94 71.34 6.21 71.34 6.21 69.03 1.74 69.03 1.74 70.48 0 70.48 0 65.84 1.74 65.84 1.74 67.29 6.21 67.29 6.21 65"/>
    <polygon class="cls-4" points="6.21 58.66 7.94 58.66 7.94 65 6.21 65 6.21 62.69 1.74 62.69 1.74 64.14 0 64.14 0 59.5 1.74 59.5 1.74 60.95 6.21 60.95 6.21 58.66"/>
    <polygon class="cls-4" points="6.21 52.32 7.94 52.32 7.94 58.66 6.21 58.66 6.21 56.35 1.74 56.35 1.74 57.8 0 57.8 0 53.16 1.74 53.16 1.74 54.61 6.21 54.61 6.21 52.32"/>
    <polygon class="cls-4" points="6.21 45.98 7.94 45.98 7.94 52.32 6.21 52.32 6.21 50.01 1.74 50.01 1.74 51.46 0 51.46 0 46.82 1.74 46.82 1.74 48.27 6.21 48.27 6.21 45.98"/>
    <polygon class="cls-4" points="6.21 39.64 7.94 39.64 7.94 45.98 6.21 45.98 6.21 43.67 1.74 43.67 1.74 45.12 0 45.12 0 40.48 1.74 40.48 1.74 41.93 6.21 41.93 6.21 39.64"/>
    <polygon class="cls-4" points="6.21 33.3 7.94 33.3 7.94 39.64 6.21 39.64 6.21 37.33 1.74 37.33 1.74 38.78 0 38.78 0 34.14 1.74 34.14 1.74 35.6 6.21 35.6 6.21 33.3"/>
    <polygon class="cls-4" points="6.21 26.96 7.94 26.96 7.94 33.3 6.21 33.3 6.21 30.99 1.74 30.99 1.74 32.44 0 32.44 0 27.8 1.74 27.8 1.74 29.26 6.21 29.26 6.21 26.96"/>
    <polygon class="cls-4" points="6.21 20.62 7.94 20.62 7.94 26.96 6.21 26.96 6.21 24.65 1.74 24.65 1.74 26.1 0 26.1 0 21.47 1.74 21.47 1.74 22.92 6.21 22.92 6.21 20.62"/>
    <polygon class="cls-4" points="6.21 14.28 7.94 14.28 7.94 20.62 6.21 20.62 6.21 18.31 1.74 18.31 1.74 19.76 0 19.76 0 15.13 1.74 15.13 1.74 16.58 6.21 16.58 6.21 14.28"/>
    <polygon class="cls-4" points="6.21 7.94 7.94 7.94 7.94 14.28 6.21 14.28 6.21 11.97 1.74 11.97 1.74 13.42 0 13.42 0 8.79 1.74 8.79 1.74 10.24 6.21 10.24 6.21 7.94"/>
    <polygon class="cls-4" points="14.26 6.21 14.26 7.94 7.94 7.94 7.94 6.21 10.25 6.21 10.25 1.74 8.8 1.74 8.8 0 13.42 0 13.42 1.74 11.98 1.74 11.98 6.21 14.26 6.21"/>
    <polygon class="cls-4" points="20.58 6.21 20.58 7.94 14.26 7.94 14.26 6.21 16.57 6.21 16.57 1.74 15.12 1.74 15.12 0 19.74 0 19.74 1.74 18.3 1.74 18.3 6.21 20.58 6.21"/>
    <polygon class="cls-4" points="26.9 6.21 26.9 7.94 20.58 7.94 20.58 6.21 22.89 6.21 22.89 1.74 21.44 1.74 21.44 0 26.06 0 26.06 1.74 24.62 1.74 24.62 6.21 26.9 6.21"/>
    <polygon class="cls-4" points="33.22 6.21 33.22 7.94 26.9 7.94 26.9 6.21 29.21 6.21 29.21 1.74 27.76 1.74 27.76 0 32.38 0 32.38 1.74 30.94 1.74 30.94 6.21 33.22 6.21"/>
    <polygon class="cls-4" points="39.54 6.21 39.54 7.94 33.22 7.94 33.22 6.21 35.53 6.21 35.53 1.74 34.08 1.74 34.08 0 38.7 0 38.7 1.74 37.26 1.74 37.26 6.21 39.54 6.21"/>
    <polygon class="cls-4" points="45.86 6.21 45.86 7.94 39.54 7.94 39.54 6.21 41.85 6.21 41.85 1.74 40.4 1.74 40.4 0 45.02 0 45.02 1.74 43.58 1.74 43.58 6.21 45.86 6.21"/>
    <polygon class="cls-4" points="52.18 6.21 52.18 7.94 45.86 7.94 45.86 6.21 48.17 6.21 48.17 1.74 46.72 1.74 46.72 0 51.34 0 51.34 1.74 49.9 1.74 49.9 6.21 52.18 6.21"/>
    <polygon class="cls-4" points="58.5 6.21 58.5 7.94 52.18 7.94 52.18 6.21 54.49 6.21 54.49 1.74 53.04 1.74 53.04 0 57.66 0 57.66 1.74 56.22 1.74 56.22 6.21 58.5 6.21"/>
    <polygon class="cls-4" points="64.82 6.21 64.82 7.94 58.5 7.94 58.5 6.21 60.81 6.21 60.81 1.74 59.36 1.74 59.36 0 63.98 0 63.98 1.74 62.54 1.74 62.54 6.21 64.82 6.21"/>
    <polygon class="cls-4" points="71.14 6.21 71.14 7.94 64.82 7.94 64.82 6.21 67.13 6.21 67.13 1.74 65.68 1.74 65.68 0 70.3 0 70.3 1.74 68.86 1.74 68.86 6.21 71.14 6.21"/>
    <polygon class="cls-4" points="77.46 6.21 77.46 7.94 71.14 7.94 71.14 6.21 73.45 6.21 73.45 1.74 72 1.74 72 0 76.62 0 76.62 1.74 75.18 1.74 75.18 6.21 77.46 6.21"/>
    <polygon class="cls-4" points="83.78 6.21 83.78 7.94 77.46 7.94 77.46 6.21 79.77 6.21 79.77 1.74 78.32 1.74 78.32 0 82.94 0 82.94 1.74 81.5 1.74 81.5 6.21 83.78 6.21"/>
    <polygon class="cls-4" points="90.1 6.21 90.1 7.94 83.78 7.94 83.78 6.21 86.09 6.21 86.09 1.74 84.64 1.74 84.64 0 89.26 0 89.26 1.74 87.82 1.74 87.82 6.21 90.1 6.21"/>
    <polygon class="cls-4" points="96.42 6.21 96.42 7.94 90.1 7.94 90.1 6.21 92.41 6.21 92.41 1.74 90.96 1.74 90.96 0 95.58 0 95.58 1.74 94.14 1.74 94.14 6.21 96.42 6.21"/>
    <polygon class="cls-4" points="102.74 6.21 102.74 7.94 96.42 7.94 96.42 6.21 98.73 6.21 98.73 1.74 97.28 1.74 97.28 0 101.9 0 101.9 1.74 100.46 1.74 100.46 6.21 102.74 6.21"/>
    <polygon class="cls-4" points="109.06 6.21 109.06 7.94 102.74 7.94 102.74 6.21 105.05 6.21 105.05 1.74 103.6 1.74 103.6 0 108.22 0 108.22 1.74 106.78 1.74 106.78 6.21 109.06 6.21"/>
    <polygon class="cls-4" points="115.38 6.21 115.38 7.94 109.06 7.94 109.06 6.21 111.37 6.21 111.37 1.74 109.92 1.74 109.92 0 114.54 0 114.54 1.74 113.1 1.74 113.1 6.21 115.38 6.21"/>
    <polygon class="cls-4" points="121.7 6.21 121.7 7.94 115.38 7.94 115.38 6.21 117.69 6.21 117.69 1.74 116.24 1.74 116.24 0 120.86 0 120.86 1.74 119.42 1.74 119.42 6.21 121.7 6.21"/>
    <polygon class="cls-4" points="128.02 6.21 128.02 7.94 121.7 7.94 121.7 6.21 124.01 6.21 124.01 1.74 122.56 1.74 122.56 0 127.18 0 127.18 1.74 125.74 1.74 125.74 6.21 128.02 6.21"/>
    <polygon class="cls-4" points="134.34 6.21 134.34 7.94 128.02 7.94 128.02 6.21 130.33 6.21 130.33 1.74 128.88 1.74 128.88 0 133.5 0 133.5 1.74 132.06 1.74 132.06 6.21 134.34 6.21"/>
    <polygon class="cls-4" points="140.66 6.21 140.66 7.94 134.34 7.94 134.34 6.21 136.65 6.21 136.65 1.74 135.2 1.74 135.2 0 139.82 0 139.82 1.74 138.38 1.74 138.38 6.21 140.66 6.21"/>
    <polygon class="cls-4" points="146.98 6.21 146.98 7.94 140.66 7.94 140.66 6.21 142.97 6.21 142.97 1.74 141.52 1.74 141.52 0 146.14 0 146.14 1.74 144.7 1.74 144.7 6.21 146.98 6.21"/>
    <polygon class="cls-4" points="153.3 6.21 153.3 7.94 146.98 7.94 146.98 6.21 149.29 6.21 149.29 1.74 147.84 1.74 147.84 0 152.46 0 152.46 1.74 151.02 1.74 151.02 6.21 153.3 6.21"/>
    <polygon class="cls-4" points="159.62 6.21 159.62 7.94 153.3 7.94 153.3 6.21 155.61 6.21 155.61 1.74 154.16 1.74 154.16 0 158.78 0 158.78 1.74 157.34 1.74 157.34 6.21 159.62 6.21"/>
    <polygon class="cls-4" points="165.94 6.21 165.94 7.94 159.62 7.94 159.62 6.21 161.93 6.21 161.93 1.74 160.48 1.74 160.48 0 165.1 0 165.1 1.74 163.66 1.74 163.66 6.21 165.94 6.21"/>
    <polygon class="cls-4" points="172.26 6.21 172.26 7.94 165.94 7.94 165.94 6.21 168.25 6.21 168.25 1.74 166.8 1.74 166.8 0 171.42 0 171.42 1.74 169.98 1.74 169.98 6.21 172.26 6.21"/>
    <polygon class="cls-4" points="178.58 6.21 178.58 7.94 172.26 7.94 172.26 6.21 174.57 6.21 174.57 1.74 173.12 1.74 173.12 0 177.74 0 177.74 1.74 176.3 1.74 176.3 6.21 178.58 6.21"/>
    <polygon class="cls-4" points="184.9 6.21 184.9 7.94 178.58 7.94 178.58 6.21 180.89 6.21 180.89 1.74 179.44 1.74 179.44 0 184.06 0 184.06 1.74 182.62 1.74 182.62 6.21 184.9 6.21"/>
    <polygon class="cls-4" points="191.22 6.21 191.22 7.94 184.9 7.94 184.9 6.21 187.21 6.21 187.21 1.74 185.76 1.74 185.76 0 190.38 0 190.38 1.74 188.94 1.74 188.94 6.21 191.22 6.21"/>
    <polygon class="cls-4" points="197.54 6.21 197.54 7.94 191.22 7.94 191.22 6.21 193.53 6.21 193.53 1.74 192.08 1.74 192.08 0 196.7 0 196.7 1.74 195.26 1.74 195.26 6.21 197.54 6.21"/>
    <polygon class="cls-4" points="203.86 6.21 203.86 7.94 197.54 7.94 197.54 6.21 199.85 6.21 199.85 1.74 198.4 1.74 198.4 0 203.02 0 203.02 1.74 201.58 1.74 201.58 6.21 203.86 6.21"/>
    <polygon class="cls-4" points="210.18 6.21 210.18 7.94 203.86 7.94 203.86 6.21 206.17 6.21 206.17 1.74 204.72 1.74 204.72 0 209.34 0 209.34 1.74 207.9 1.74 207.9 6.21 210.18 6.21"/>
    <polygon class="cls-4" points="216.5 6.21 216.5 7.94 210.18 7.94 210.18 6.21 212.49 6.21 212.49 1.74 211.04 1.74 211.04 0 215.66 0 215.66 1.74 214.22 1.74 214.22 6.21 216.5 6.21"/>
    <polygon class="cls-4" points="222.82 6.21 222.82 7.94 216.5 7.94 216.5 6.21 218.81 6.21 218.81 1.74 217.36 1.74 217.36 0 221.98 0 221.98 1.74 220.54 1.74 220.54 6.21 222.82 6.21"/>
    <polygon class="cls-4" points="229.14 6.21 229.14 7.94 222.82 7.94 222.82 6.21 225.13 6.21 225.13 1.74 223.68 1.74 223.68 0 228.3 0 228.3 1.74 226.86 1.74 226.86 6.21 229.14 6.21"/>
    <polygon class="cls-4" points="235.46 6.21 235.46 7.94 229.14 7.94 229.14 6.21 231.45 6.21 231.45 1.74 230 1.74 230 0 234.62 0 234.62 1.74 233.18 1.74 233.18 6.21 235.46 6.21"/>
    <polygon class="cls-4" points="241.78 6.21 241.78 7.94 235.46 7.94 235.46 6.21 237.77 6.21 237.77 1.74 236.32 1.74 236.32 0 240.94 0 240.94 1.74 239.5 1.74 239.5 6.21 241.78 6.21"/>
    <polygon class="cls-4" points="248.1 6.21 248.1 7.94 241.78 7.94 241.78 6.21 244.09 6.21 244.09 1.74 242.64 1.74 242.64 0 247.26 0 247.26 1.74 245.82 1.74 245.82 6.21 248.1 6.21"/>
    <polygon class="cls-4" points="254.42 6.21 254.42 7.94 248.1 7.94 248.1 6.21 250.41 6.21 250.41 1.74 248.96 1.74 248.96 0 253.58 0 253.58 1.74 252.14 1.74 252.14 6.21 254.42 6.21"/>
    <polygon class="cls-4" points="260.74 6.21 260.74 7.94 254.42 7.94 254.42 6.21 256.73 6.21 256.73 1.74 255.28 1.74 255.28 0 259.9 0 259.9 1.74 258.46 1.74 258.46 6.21 260.74 6.21"/>
    <polygon class="cls-4" points="267.06 6.21 267.06 7.94 260.74 7.94 260.74 6.21 263.05 6.21 263.05 1.74 261.6 1.74 261.6 0 266.22 0 266.22 1.74 264.78 1.74 264.78 6.21 267.06 6.21"/>
    <polygon class="cls-4" points="273.38 6.21 273.38 7.94 267.06 7.94 267.06 6.21 269.37 6.21 269.37 1.74 267.92 1.74 267.92 0 272.54 0 272.54 1.74 271.1 1.74 271.1 6.21 273.38 6.21"/>
    <polygon class="cls-4" points="279.7 6.21 279.7 7.94 273.38 7.94 273.38 6.21 275.69 6.21 275.69 1.74 274.24 1.74 274.24 0 278.86 0 278.86 1.74 277.42 1.74 277.42 6.21 279.7 6.21"/>
    <polygon class="cls-4" points="286.02 6.21 286.02 7.94 279.7 7.94 279.7 6.21 282.01 6.21 282.01 1.74 280.56 1.74 280.56 0 285.18 0 285.18 1.74 283.74 1.74 283.74 6.21 286.02 6.21"/>
    <polygon class="cls-4" points="292.34 6.21 292.34 7.94 286.02 7.94 286.02 6.21 288.33 6.21 288.33 1.74 286.88 1.74 286.88 0 291.5 0 291.5 1.74 290.06 1.74 290.06 6.21 292.34 6.21"/>
    <polygon class="cls-4" points="298.66 6.21 298.66 7.94 292.34 7.94 292.34 6.21 294.65 6.21 294.65 1.74 293.2 1.74 293.2 0 297.82 0 297.82 1.74 296.38 1.74 296.38 6.21 298.66 6.21"/>
    <polygon class="cls-4" points="304.98 6.21 304.98 7.94 298.66 7.94 298.66 6.21 300.97 6.21 300.97 1.74 299.52 1.74 299.52 0 304.14 0 304.14 1.74 302.7 1.74 302.7 6.21 304.98 6.21"/>
    <polygon class="cls-4" points="311.3 6.21 311.3 7.94 304.98 7.94 304.98 6.21 307.29 6.21 307.29 1.74 305.84 1.74 305.84 0 310.46 0 310.46 1.74 309.02 1.74 309.02 6.21 311.3 6.21"/>
    <polygon class="cls-4" points="317.62 6.21 317.62 7.94 311.3 7.94 311.3 6.21 313.61 6.21 313.61 1.74 312.16 1.74 312.16 0 316.78 0 316.78 1.74 315.34 1.74 315.34 6.21 317.62 6.21"/>
    <polygon class="cls-4" points="323.94 6.21 323.94 7.94 317.62 7.94 317.62 6.21 319.93 6.21 319.93 1.74 318.48 1.74 318.48 0 323.1 0 323.1 1.74 321.66 1.74 321.66 6.21 323.94 6.21"/>
    <polygon class="cls-4" points="330.26 6.21 330.26 7.94 323.94 7.94 323.94 6.21 326.25 6.21 326.25 1.74 324.8 1.74 324.8 0 329.42 0 329.42 1.74 327.98 1.74 327.98 6.21 330.26 6.21"/>
    <polygon class="cls-4" points="336.58 6.21 336.58 7.94 330.26 7.94 330.26 6.21 332.57 6.21 332.57 1.74 331.12 1.74 331.12 0 335.74 0 335.74 1.74 334.3 1.74 334.3 6.21 336.58 6.21"/>
    <polygon class="cls-4" points="342.9 6.21 342.9 7.94 336.58 7.94 336.58 6.21 338.89 6.21 338.89 1.74 337.44 1.74 337.44 0 342.06 0 342.06 1.74 340.62 1.74 340.62 6.21 342.9 6.21"/>
    <polygon class="cls-4" points="349.22 6.21 349.22 7.94 342.9 7.94 342.9 6.21 345.21 6.21 345.21 1.74 343.76 1.74 343.76 0 348.38 0 348.38 1.74 346.94 1.74 346.94 6.21 349.22 6.21"/>
    <polygon class="cls-4" points="355.54 6.21 355.54 7.94 349.22 7.94 349.22 6.21 351.53 6.21 351.53 1.74 350.08 1.74 350.08 0 354.7 0 354.7 1.74 353.26 1.74 353.26 6.21 355.54 6.21"/>
    <polygon class="cls-4" points="361.86 6.21 361.86 7.94 355.54 7.94 355.54 6.21 357.85 6.21 357.85 1.74 356.4 1.74 356.4 0 361.02 0 361.02 1.74 359.58 1.74 359.58 6.21 361.86 6.21"/>
    <polygon class="cls-4" points="368.18 6.21 368.18 7.94 361.86 7.94 361.86 6.21 364.17 6.21 364.17 1.74 362.72 1.74 362.72 0 367.34 0 367.34 1.74 365.9 1.74 365.9 6.21 368.18 6.21"/>
    <polygon class="cls-4" points="374.5 6.21 374.5 7.94 368.18 7.94 368.18 6.21 370.49 6.21 370.49 1.74 369.04 1.74 369.04 0 373.66 0 373.66 1.74 372.22 1.74 372.22 6.21 374.5 6.21"/>
    <polygon class="cls-4" points="380.82 6.21 380.82 7.94 374.5 7.94 374.5 6.21 376.81 6.21 376.81 1.74 375.36 1.74 375.36 0 379.98 0 379.98 1.74 378.54 1.74 378.54 6.21 380.82 6.21"/>
    <polygon class="cls-4" points="387.14 6.21 387.14 7.94 380.82 7.94 380.82 6.21 383.13 6.21 383.13 1.74 381.68 1.74 381.68 0 386.3 0 386.3 1.74 384.86 1.74 384.86 6.21 387.14 6.21"/>
    <polygon class="cls-4" points="393.46 6.21 393.46 7.94 387.14 7.94 387.14 6.21 389.45 6.21 389.45 1.74 388 1.74 388 0 392.62 0 392.62 1.74 391.18 1.74 391.18 6.21 393.46 6.21"/>
    <polygon class="cls-4" points="399.78 6.21 399.78 7.94 393.46 7.94 393.46 6.21 395.77 6.21 395.77 1.74 394.32 1.74 394.32 0 398.94 0 398.94 1.74 397.5 1.74 397.5 6.21 399.78 6.21"/>
    <polygon class="cls-4" points="406.1 6.21 406.1 7.94 399.78 7.94 399.78 6.21 402.09 6.21 402.09 1.74 400.64 1.74 400.64 0 405.26 0 405.26 1.74 403.82 1.74 403.82 6.21 406.1 6.21"/>
    <polygon class="cls-4" points="412.42 6.21 412.42 7.94 406.1 7.94 406.1 6.21 408.41 6.21 408.41 1.74 406.96 1.74 406.96 0 411.58 0 411.58 1.74 410.14 1.74 410.14 6.21 412.42 6.21"/>
    <polygon class="cls-4" points="418.74 6.21 418.74 7.94 412.42 7.94 412.42 6.21 414.73 6.21 414.73 1.74 413.28 1.74 413.28 0 417.9 0 417.9 1.74 416.46 1.74 416.46 6.21 418.74 6.21"/>
    <polygon class="cls-4" points="425.06 6.21 425.06 7.94 418.74 7.94 418.74 6.21 421.05 6.21 421.05 1.74 419.6 1.74 419.6 0 424.22 0 424.22 1.74 422.78 1.74 422.78 6.21 425.06 6.21"/>
    <polygon class="cls-4" points="431.38 6.21 431.38 7.94 425.06 7.94 425.06 6.21 427.37 6.21 427.37 1.74 425.92 1.74 425.92 0 430.54 0 430.54 1.74 429.1 1.74 429.1 6.21 431.38 6.21"/>
    <polygon class="cls-4" points="437.7 6.21 437.7 7.94 431.38 7.94 431.38 6.21 433.69 6.21 433.69 1.74 432.24 1.74 432.24 0 436.86 0 436.86 1.74 435.42 1.74 435.42 6.21 437.7 6.21"/>
    <polygon class="cls-4" points="444.02 6.21 444.02 7.94 437.7 7.94 437.7 6.21 440.01 6.21 440.01 1.74 438.56 1.74 438.56 0 443.18 0 443.18 1.74 441.74 1.74 441.74 6.21 444.02 6.21"/>
    <polygon class="cls-4" points="450.34 6.21 450.34 7.94 444.02 7.94 444.02 6.21 446.33 6.21 446.33 1.74 444.88 1.74 444.88 0 449.5 0 449.5 1.74 448.06 1.74 448.06 6.21 450.34 6.21"/>
    <polygon class="cls-4" points="456.66 6.21 456.66 7.94 450.34 7.94 450.34 6.21 452.65 6.21 452.65 1.74 451.2 1.74 451.2 0 455.82 0 455.82 1.74 454.38 1.74 454.38 6.21 456.66 6.21"/>
    <polygon class="cls-4" points="462.98 6.21 462.98 7.94 456.66 7.94 456.66 6.21 458.97 6.21 458.97 1.74 457.52 1.74 457.52 0 462.14 0 462.14 1.74 460.7 1.74 460.7 6.21 462.98 6.21"/>
    <polygon class="cls-4" points="469.3 6.21 469.3 7.94 462.98 7.94 462.98 6.21 465.29 6.21 465.29 1.74 463.84 1.74 463.84 0 468.46 0 468.46 1.74 467.02 1.74 467.02 6.21 469.3 6.21"/>
    <polygon class="cls-4" points="475.62 6.21 475.62 7.94 469.3 7.94 469.3 6.21 471.61 6.21 471.61 1.74 470.16 1.74 470.16 0 474.78 0 474.78 1.74 473.34 1.74 473.34 6.21 475.62 6.21"/>
    <polygon class="cls-4" points="481.94 6.21 481.94 7.94 475.62 7.94 475.62 6.21 477.93 6.21 477.93 1.74 476.48 1.74 476.48 0 481.1 0 481.1 1.74 479.66 1.74 479.66 6.21 481.94 6.21"/>
    <polygon class="cls-4" points="488.26 6.21 488.26 7.94 481.94 7.94 481.94 6.21 484.25 6.21 484.25 1.74 482.8 1.74 482.8 0 487.42 0 487.42 1.74 485.98 1.74 485.98 6.21 488.26 6.21"/>
    <polygon class="cls-4" points="494.58 6.21 494.58 7.94 488.26 7.94 488.26 6.21 490.57 6.21 490.57 1.74 489.12 1.74 489.12 0 493.74 0 493.74 1.74 492.3 1.74 492.3 6.21 494.58 6.21"/>
    <polygon class="cls-4" points="500.9 6.21 500.9 7.94 494.58 7.94 494.58 6.21 496.89 6.21 496.89 1.74 495.44 1.74 495.44 0 500.06 0 500.06 1.74 498.62 1.74 498.62 6.21 500.9 6.21"/>
    <polygon class="cls-4" points="507.22 6.21 507.22 7.94 500.9 7.94 500.9 6.21 503.21 6.21 503.21 1.74 501.76 1.74 501.76 0 506.38 0 506.38 1.74 504.94 1.74 504.94 6.21 507.22 6.21"/>
    <polygon class="cls-4" points="513.54 6.21 513.54 7.94 507.22 7.94 507.22 6.21 509.53 6.21 509.53 1.74 508.08 1.74 508.08 0 512.7 0 512.7 1.74 511.26 1.74 511.26 6.21 513.54 6.21"/>
    <polygon class="cls-4" points="519.86 6.21 519.86 7.94 513.54 7.94 513.54 6.21 515.85 6.21 515.85 1.74 514.4 1.74 514.4 0 519.02 0 519.02 1.74 517.58 1.74 517.58 6.21 519.86 6.21"/>
    <polygon class="cls-4" points="526.18 6.21 526.18 7.94 519.86 7.94 519.86 6.21 522.17 6.21 522.17 1.74 520.72 1.74 520.72 0 525.34 0 525.34 1.74 523.9 1.74 523.9 6.21 526.18 6.21"/>
    <polygon class="cls-4" points="532.5 6.21 532.5 7.94 526.18 7.94 526.18 6.21 528.49 6.21 528.49 1.74 527.04 1.74 527.04 0 531.66 0 531.66 1.74 530.22 1.74 530.22 6.21 532.5 6.21"/>
    <polygon class="cls-4" points="538.82 6.21 538.82 7.94 532.5 7.94 532.5 6.21 534.81 6.21 534.81 1.74 533.36 1.74 533.36 0 537.98 0 537.98 1.74 536.54 1.74 536.54 6.21 538.82 6.21"/>
    <polygon class="cls-4" points="545.14 6.21 545.14 7.94 538.82 7.94 538.82 6.21 541.13 6.21 541.13 1.74 539.68 1.74 539.68 0 544.3 0 544.3 1.74 542.86 1.74 542.86 6.21 545.14 6.21"/>
    <polygon class="cls-4" points="551.46 6.21 551.46 7.94 545.14 7.94 545.14 6.21 547.45 6.21 547.45 1.74 546 1.74 546 0 550.62 0 550.62 1.74 549.18 1.74 549.18 6.21 551.46 6.21"/>
    <polygon class="cls-4" points="557.78 6.21 557.78 7.94 551.46 7.94 551.46 6.21 553.77 6.21 553.77 1.74 552.32 1.74 552.32 0 556.94 0 556.94 1.74 555.5 1.74 555.5 6.21 557.78 6.21"/>
    <polygon class="cls-4" points="564.1 6.21 564.1 7.94 557.78 7.94 557.78 6.21 560.09 6.21 560.09 1.74 558.64 1.74 558.64 0 563.26 0 563.26 1.74 561.82 1.74 561.82 6.21 564.1 6.21"/>
    <polygon class="cls-4" points="570.42 6.21 570.42 7.94 564.1 7.94 564.1 6.21 566.41 6.21 566.41 1.74 564.96 1.74 564.96 0 569.58 0 569.58 1.74 568.14 1.74 568.14 6.21 570.42 6.21"/>
    <polygon class="cls-4" points="576.74 6.21 576.74 7.94 570.42 7.94 570.42 6.21 572.73 6.21 572.73 1.74 571.28 1.74 571.28 0 575.9 0 575.9 1.74 574.46 1.74 574.46 6.21 576.74 6.21"/>
    <polygon class="cls-4" points="583.06 6.21 583.06 7.94 576.74 7.94 576.74 6.21 579.05 6.21 579.05 1.74 577.6 1.74 577.6 0 582.22 0 582.22 1.74 580.78 1.74 580.78 6.21 583.06 6.21"/>
    <polygon class="cls-4" points="584.8 14.28 583.06 14.28 583.06 7.94 584.8 7.94 584.8 10.26 589.27 10.26 589.27 8.81 591.01 8.81 591.01 13.44 589.27 13.44 589.27 11.99 584.8 11.99 584.8 14.28"/>
    <polygon class="cls-4" points="584.8 20.62 583.06 20.62 583.06 14.28 584.8 14.28 584.8 16.6 589.27 16.6 589.27 15.14 591.01 15.14 591.01 19.78 589.27 19.78 589.27 18.33 584.8 18.33 584.8 20.62"/>
    <polygon class="cls-4" points="584.8 26.96 583.06 26.96 583.06 20.62 584.8 20.62 584.8 22.93 589.27 22.93 589.27 21.48 591.01 21.48 591.01 26.12 589.27 26.12 589.27 24.67 584.8 24.67 584.8 26.96"/>
    <polygon class="cls-4" points="584.8 33.3 583.06 33.3 583.06 26.96 584.8 26.96 584.8 29.27 589.27 29.27 589.27 27.82 591.01 27.82 591.01 32.46 589.27 32.46 589.27 31.01 584.8 31.01 584.8 33.3"/>
    <polygon class="cls-4" points="584.8 39.64 583.06 39.64 583.06 33.3 584.8 33.3 584.8 35.61 589.27 35.61 589.27 34.16 591.01 34.16 591.01 38.8 589.27 38.8 589.27 37.35 584.8 37.35 584.8 39.64"/>
    <polygon class="cls-4" points="584.8 45.98 583.06 45.98 583.06 39.64 584.8 39.64 584.8 41.95 589.27 41.95 589.27 40.5 591.01 40.5 591.01 45.14 589.27 45.14 589.27 43.69 584.8 43.69 584.8 45.98"/>
    <polygon class="cls-4" points="584.8 52.32 583.06 52.32 583.06 45.98 584.8 45.98 584.8 48.29 589.27 48.29 589.27 46.84 591.01 46.84 591.01 51.48 589.27 51.48 589.27 50.03 584.8 50.03 584.8 52.32"/>
    <polygon class="cls-4" points="584.8 58.66 583.06 58.66 583.06 52.32 584.8 52.32 584.8 54.63 589.27 54.63 589.27 53.18 591.01 53.18 591.01 57.82 589.27 57.82 589.27 56.37 584.8 56.37 584.8 58.66"/>
    <polygon class="cls-4" points="584.8 65 583.06 65 583.06 58.66 584.8 58.66 584.8 60.97 589.27 60.97 589.27 59.52 591.01 59.52 591.01 64.16 589.27 64.16 589.27 62.71 584.8 62.71 584.8 65"/>
    <polygon class="cls-4" points="584.8 71.34 583.06 71.34 583.06 65 584.8 65 584.8 67.31 589.27 67.31 589.27 65.86 591.01 65.86 591.01 70.5 589.27 70.5 589.27 69.05 584.8 69.05 584.8 71.34"/>
    <polygon class="cls-4" points="584.8 77.68 583.06 77.68 583.06 71.34 584.8 71.34 584.8 73.65 589.27 73.65 589.27 72.2 591.01 72.2 591.01 76.84 589.27 76.84 589.27 75.38 584.8 75.38 584.8 77.68"/>
    <polygon class="cls-4" points="584.8 84.02 583.06 84.02 583.06 77.68 584.8 77.68 584.8 79.99 589.27 79.99 589.27 78.54 591.01 78.54 591.01 83.17 589.27 83.17 589.27 81.72 584.8 81.72 584.8 84.02"/>
    <polygon class="cls-4" points="584.8 90.36 583.06 90.36 583.06 84.02 584.8 84.02 584.8 86.33 589.27 86.33 589.27 84.88 591.01 84.88 591.01 89.51 589.27 89.51 589.27 88.06 584.8 88.06 584.8 90.36"/>
    <polygon class="cls-4" points="584.8 96.7 583.06 96.7 583.06 90.36 584.8 90.36 584.8 92.67 589.27 92.67 589.27 91.22 591.01 91.22 591.01 95.85 589.27 95.85 589.27 94.4 584.8 94.4 584.8 96.7"/>
    <polygon class="cls-4" points="584.8 103.04 583.06 103.04 583.06 96.7 584.8 96.7 584.8 99.01 589.27 99.01 589.27 97.56 591.01 97.56 591.01 102.19 589.27 102.19 589.27 100.74 584.8 100.74 584.8 103.04"/>
    <polygon class="cls-4" points="584.8 109.37 583.06 109.37 583.06 103.04 584.8 103.04 584.8 105.35 589.27 105.35 589.27 103.9 591.01 103.9 591.01 108.53 589.27 108.53 589.27 107.08 584.8 107.08 584.8 109.37"/>
    <polygon class="cls-4" points="584.8 115.71 583.06 115.71 583.06 109.37 584.8 109.37 584.8 111.69 589.27 111.69 589.27 110.24 591.01 110.24 591.01 114.87 589.27 114.87 589.27 113.42 584.8 113.42 584.8 115.71"/>
    <polygon class="cls-4" points="584.8 122.05 583.06 122.05 583.06 115.71 584.8 115.71 584.8 118.03 589.27 118.03 589.27 116.58 591.01 116.58 591.01 121.21 589.27 121.21 589.27 119.76 584.8 119.76 584.8 122.05"/>
    <polygon class="cls-4" points="584.8 128.39 583.06 128.39 583.06 122.05 584.8 122.05 584.8 124.37 589.27 124.37 589.27 122.91 591.01 122.91 591.01 127.55 589.27 127.55 589.27 126.1 584.8 126.1 584.8 128.39"/>
    <polygon class="cls-4" points="584.8 134.73 583.06 134.73 583.06 128.39 584.8 128.39 584.8 130.7 589.27 130.7 589.27 129.25 591.01 129.25 591.01 133.89 589.27 133.89 589.27 132.44 584.8 132.44 584.8 134.73"/>
    <polygon class="cls-4" points="576.74 136.47 576.74 134.73 583.06 134.73 583.06 136.47 580.76 136.47 580.76 140.94 582.2 140.94 582.2 142.68 577.58 142.68 577.58 140.94 579.03 140.94 579.03 136.47 576.74 136.47"/>
    <polygon class="cls-4" points="570.42 136.47 570.42 134.73 576.74 134.73 576.74 136.47 574.44 136.47 574.44 140.94 575.88 140.94 575.88 142.68 571.26 142.68 571.26 140.94 572.71 140.94 572.71 136.47 570.42 136.47"/>
    <polygon class="cls-4" points="564.1 136.47 564.1 134.73 570.42 134.73 570.42 136.47 568.12 136.47 568.12 140.94 569.56 140.94 569.56 142.68 564.94 142.68 564.94 140.94 566.39 140.94 566.39 136.47 564.1 136.47"/>
    <polygon class="cls-4" points="557.78 136.47 557.78 134.73 564.1 134.73 564.1 136.47 561.8 136.47 561.8 140.94 563.24 140.94 563.24 142.68 558.62 142.68 558.62 140.94 560.07 140.94 560.07 136.47 557.78 136.47"/>
    <polygon class="cls-4" points="551.46 136.47 551.46 134.73 557.78 134.73 557.78 136.47 555.48 136.47 555.48 140.94 556.92 140.94 556.92 142.68 552.3 142.68 552.3 140.94 553.75 140.94 553.75 136.47 551.46 136.47"/>
    <polygon class="cls-4" points="545.14 136.47 545.14 134.73 551.46 134.73 551.46 136.47 549.16 136.47 549.16 140.94 550.6 140.94 550.6 142.68 545.98 142.68 545.98 140.94 547.43 140.94 547.43 136.47 545.14 136.47"/>
    <polygon class="cls-4" points="538.82 136.47 538.82 134.73 545.14 134.73 545.14 136.47 542.84 136.47 542.84 140.94 544.28 140.94 544.28 142.68 539.66 142.68 539.66 140.94 541.11 140.94 541.11 136.47 538.82 136.47"/>
    <polygon class="cls-4" points="532.5 136.47 532.5 134.73 538.82 134.73 538.82 136.47 536.52 136.47 536.52 140.94 537.96 140.94 537.96 142.68 533.34 142.68 533.34 140.94 534.79 140.94 534.79 136.47 532.5 136.47"/>
    <polygon class="cls-4" points="526.18 136.47 526.18 134.73 532.5 134.73 532.5 136.47 530.2 136.47 530.2 140.94 531.64 140.94 531.64 142.68 527.02 142.68 527.02 140.94 528.47 140.94 528.47 136.47 526.18 136.47"/>
    <polygon class="cls-4" points="519.86 136.47 519.86 134.73 526.18 134.73 526.18 136.47 523.88 136.47 523.88 140.94 525.32 140.94 525.32 142.68 520.7 142.68 520.7 140.94 522.15 140.94 522.15 136.47 519.86 136.47"/>
    <polygon class="cls-4" points="513.54 136.47 513.54 134.73 519.86 134.73 519.86 136.47 517.56 136.47 517.56 140.94 519 140.94 519 142.68 514.38 142.68 514.38 140.94 515.83 140.94 515.83 136.47 513.54 136.47"/>
    <polygon class="cls-4" points="507.22 136.47 507.22 134.73 513.54 134.73 513.54 136.47 511.24 136.47 511.24 140.94 512.68 140.94 512.68 142.68 508.06 142.68 508.06 140.94 509.51 140.94 509.51 136.47 507.22 136.47"/>
    <polygon class="cls-4" points="500.9 136.47 500.9 134.73 507.22 134.73 507.22 136.47 504.92 136.47 504.92 140.94 506.36 140.94 506.36 142.68 501.74 142.68 501.74 140.94 503.19 140.94 503.19 136.47 500.9 136.47"/>
    <polygon class="cls-4" points="494.58 136.47 494.58 134.73 500.9 134.73 500.9 136.47 498.6 136.47 498.6 140.94 500.04 140.94 500.04 142.68 495.42 142.68 495.42 140.94 496.87 140.94 496.87 136.47 494.58 136.47"/>
    <polygon class="cls-4" points="488.26 136.47 488.26 134.73 494.58 134.73 494.58 136.47 492.28 136.47 492.28 140.94 493.72 140.94 493.72 142.68 489.1 142.68 489.1 140.94 490.55 140.94 490.55 136.47 488.26 136.47"/>
    <polygon class="cls-4" points="481.94 136.47 481.94 134.73 488.26 134.73 488.26 136.47 485.96 136.47 485.96 140.94 487.4 140.94 487.4 142.68 482.78 142.68 482.78 140.94 484.23 140.94 484.23 136.47 481.94 136.47"/>
    <polygon class="cls-4" points="475.62 136.47 475.62 134.73 481.94 134.73 481.94 136.47 479.64 136.47 479.64 140.94 481.08 140.94 481.08 142.68 476.46 142.68 476.46 140.94 477.91 140.94 477.91 136.47 475.62 136.47"/>
    <polygon class="cls-4" points="469.3 136.47 469.3 134.73 475.62 134.73 475.62 136.47 473.32 136.47 473.32 140.94 474.76 140.94 474.76 142.68 470.14 142.68 470.14 140.94 471.59 140.94 471.59 136.47 469.3 136.47"/>
    <polygon class="cls-4" points="462.98 136.47 462.98 134.73 469.3 134.73 469.3 136.47 467 136.47 467 140.94 468.44 140.94 468.44 142.68 463.82 142.68 463.82 140.94 465.27 140.94 465.27 136.47 462.98 136.47"/>
    <polygon class="cls-4" points="456.66 136.47 456.66 134.73 462.98 134.73 462.98 136.47 460.68 136.47 460.68 140.94 462.12 140.94 462.12 142.68 457.5 142.68 457.5 140.94 458.95 140.94 458.95 136.47 456.66 136.47"/>
    <polygon class="cls-4" points="450.34 136.47 450.34 134.73 456.66 134.73 456.66 136.47 454.36 136.47 454.36 140.94 455.8 140.94 455.8 142.68 451.18 142.68 451.18 140.94 452.63 140.94 452.63 136.47 450.34 136.47"/>
    <polygon class="cls-4" points="444.02 136.47 444.02 134.73 450.34 134.73 450.34 136.47 448.04 136.47 448.04 140.94 449.48 140.94 449.48 142.68 444.86 142.68 444.86 140.94 446.31 140.94 446.31 136.47 444.02 136.47"/>
    <polygon class="cls-4" points="437.7 136.47 437.7 134.73 444.02 134.73 444.02 136.47 441.72 136.47 441.72 140.94 443.16 140.94 443.16 142.68 438.54 142.68 438.54 140.94 439.99 140.94 439.99 136.47 437.7 136.47"/>
    <polygon class="cls-4" points="431.38 136.47 431.38 134.73 437.7 134.73 437.7 136.47 435.4 136.47 435.4 140.94 436.84 140.94 436.84 142.68 432.22 142.68 432.22 140.94 433.67 140.94 433.67 136.47 431.38 136.47"/>
    <polygon class="cls-4" points="425.06 136.47 425.06 134.73 431.38 134.73 431.38 136.47 429.08 136.47 429.08 140.94 430.52 140.94 430.52 142.68 425.9 142.68 425.9 140.94 427.35 140.94 427.35 136.47 425.06 136.47"/>
    <polygon class="cls-4" points="418.74 136.47 418.74 134.73 425.06 134.73 425.06 136.47 422.76 136.47 422.76 140.94 424.21 140.94 424.21 142.68 419.58 142.68 419.58 140.94 421.03 140.94 421.03 136.47 418.74 136.47"/>
    <polygon class="cls-4" points="412.42 136.47 412.42 134.73 418.74 134.73 418.74 136.47 416.44 136.47 416.44 140.94 417.89 140.94 417.89 142.68 413.26 142.68 413.26 140.94 414.71 140.94 414.71 136.47 412.42 136.47"/>
    <polygon class="cls-4" points="406.1 136.47 406.1 134.73 412.42 134.73 412.42 136.47 410.12 136.47 410.12 140.94 411.57 140.94 411.57 142.68 406.94 142.68 406.94 140.94 408.39 140.94 408.39 136.47 406.1 136.47"/>
    <polygon class="cls-4" points="399.78 136.47 399.78 134.73 406.1 134.73 406.1 136.47 403.8 136.47 403.8 140.94 405.25 140.94 405.25 142.68 400.62 142.68 400.62 140.94 402.07 140.94 402.07 136.47 399.78 136.47"/>
    <polygon class="cls-4" points="393.46 136.47 393.46 134.73 399.78 134.73 399.78 136.47 397.48 136.47 397.48 140.94 398.93 140.94 398.93 142.68 394.3 142.68 394.3 140.94 395.75 140.94 395.75 136.47 393.46 136.47"/>
    <polygon class="cls-4" points="387.14 136.47 387.14 134.73 393.46 134.73 393.46 136.47 391.16 136.47 391.16 140.94 392.61 140.94 392.61 142.68 387.98 142.68 387.98 140.94 389.43 140.94 389.43 136.47 387.14 136.47"/>
    <polygon class="cls-4" points="380.82 136.47 380.82 134.73 387.14 134.73 387.14 136.47 384.84 136.47 384.84 140.94 386.29 140.94 386.29 142.68 381.66 142.68 381.66 140.94 383.11 140.94 383.11 136.47 380.82 136.47"/>
    <polygon class="cls-4" points="374.5 136.47 374.5 134.73 380.82 134.73 380.82 136.47 378.52 136.47 378.52 140.94 379.97 140.94 379.97 142.68 375.34 142.68 375.34 140.94 376.79 140.94 376.79 136.47 374.5 136.47"/>
    <polygon class="cls-4" points="368.18 136.47 368.18 134.73 374.5 134.73 374.5 136.47 372.2 136.47 372.2 140.94 373.65 140.94 373.65 142.68 369.02 142.68 369.02 140.94 370.47 140.94 370.47 136.47 368.18 136.47"/>
    <polygon class="cls-4" points="361.86 136.47 361.86 134.73 368.18 134.73 368.18 136.47 365.88 136.47 365.88 140.94 367.33 140.94 367.33 142.68 362.7 142.68 362.7 140.94 364.15 140.94 364.15 136.47 361.86 136.47"/>
    <polygon class="cls-4" points="355.54 136.47 355.54 134.73 361.86 134.73 361.86 136.47 359.56 136.47 359.56 140.94 361.01 140.94 361.01 142.68 356.38 142.68 356.38 140.94 357.83 140.94 357.83 136.47 355.54 136.47"/>
    <polygon class="cls-4" points="349.22 136.47 349.22 134.73 355.54 134.73 355.54 136.47 353.24 136.47 353.24 140.94 354.69 140.94 354.69 142.68 350.06 142.68 350.06 140.94 351.51 140.94 351.51 136.47 349.22 136.47"/>
    <polygon class="cls-4" points="342.9 136.47 342.9 134.73 349.22 134.73 349.22 136.47 346.92 136.47 346.92 140.94 348.37 140.94 348.37 142.68 343.74 142.68 343.74 140.94 345.19 140.94 345.19 136.47 342.9 136.47"/>
    <polygon class="cls-4" points="336.58 136.47 336.58 134.73 342.9 134.73 342.9 136.47 340.6 136.47 340.6 140.94 342.05 140.94 342.05 142.68 337.42 142.68 337.42 140.94 338.87 140.94 338.87 136.47 336.58 136.47"/>
    <polygon class="cls-4" points="330.26 136.47 330.26 134.73 336.58 134.73 336.58 136.47 334.28 136.47 334.28 140.94 335.73 140.94 335.73 142.68 331.1 142.68 331.1 140.94 332.55 140.94 332.55 136.47 330.26 136.47"/>
    <polygon class="cls-4" points="323.94 136.47 323.94 134.73 330.26 134.73 330.26 136.47 327.96 136.47 327.96 140.94 329.41 140.94 329.41 142.68 324.78 142.68 324.78 140.94 326.23 140.94 326.23 136.47 323.94 136.47"/>
    <polygon class="cls-4" points="317.62 136.47 317.62 134.73 323.94 134.73 323.94 136.47 321.64 136.47 321.64 140.94 323.09 140.94 323.09 142.68 318.46 142.68 318.46 140.94 319.91 140.94 319.91 136.47 317.62 136.47"/>
    <polygon class="cls-4" points="311.3 136.47 311.3 134.73 317.62 134.73 317.62 136.47 315.32 136.47 315.32 140.94 316.77 140.94 316.77 142.68 312.14 142.68 312.14 140.94 313.59 140.94 313.59 136.47 311.3 136.47"/>
    <polygon class="cls-4" points="304.98 136.47 304.98 134.73 311.3 134.73 311.3 136.47 309 136.47 309 140.94 310.45 140.94 310.45 142.68 305.82 142.68 305.82 140.94 307.27 140.94 307.27 136.47 304.98 136.47"/>
    <polygon class="cls-4" points="298.66 136.47 298.66 134.73 304.98 134.73 304.98 136.47 302.68 136.47 302.68 140.94 304.13 140.94 304.13 142.68 299.5 142.68 299.5 140.94 300.95 140.94 300.95 136.47 298.66 136.47"/>
    <polygon class="cls-4" points="292.34 136.47 292.34 134.73 298.66 134.73 298.66 136.47 296.36 136.47 296.36 140.94 297.81 140.94 297.81 142.68 293.18 142.68 293.18 140.94 294.63 140.94 294.63 136.47 292.34 136.47"/>
    <polygon class="cls-4" points="286.02 136.47 286.02 134.73 292.34 134.73 292.34 136.47 290.04 136.47 290.04 140.94 291.49 140.94 291.49 142.68 286.86 142.68 286.86 140.94 288.31 140.94 288.31 136.47 286.02 136.47"/>
    <polygon class="cls-4" points="279.7 136.47 279.7 134.73 286.02 134.73 286.02 136.47 283.72 136.47 283.72 140.94 285.17 140.94 285.17 142.68 280.54 142.68 280.54 140.94 281.99 140.94 281.99 136.47 279.7 136.47"/>
    <polygon class="cls-4" points="273.38 136.47 273.38 134.73 279.7 134.73 279.7 136.47 277.4 136.47 277.4 140.94 278.85 140.94 278.85 142.68 274.22 142.68 274.22 140.94 275.67 140.94 275.67 136.47 273.38 136.47"/>
    <polygon class="cls-4" points="267.06 136.47 267.06 134.73 273.38 134.73 273.38 136.47 271.08 136.47 271.08 140.94 272.53 140.94 272.53 142.68 267.9 142.68 267.9 140.94 269.35 140.94 269.35 136.47 267.06 136.47"/>
    <polygon class="cls-4" points="260.74 136.47 260.74 134.73 267.06 134.73 267.06 136.47 264.76 136.47 264.76 140.94 266.21 140.94 266.21 142.68 261.58 142.68 261.58 140.94 263.03 140.94 263.03 136.47 260.74 136.47"/>
    <polygon class="cls-4" points="254.42 136.47 254.42 134.73 260.74 134.73 260.74 136.47 258.44 136.47 258.44 140.94 259.89 140.94 259.89 142.68 255.26 142.68 255.26 140.94 256.71 140.94 256.71 136.47 254.42 136.47"/>
    <polygon class="cls-4" points="248.1 136.47 248.1 134.73 254.42 134.73 254.42 136.47 252.12 136.47 252.12 140.94 253.57 140.94 253.57 142.68 248.94 142.68 248.94 140.94 250.39 140.94 250.39 136.47 248.1 136.47"/>
    <polygon class="cls-4" points="241.78 136.47 241.78 134.73 248.1 134.73 248.1 136.47 245.8 136.47 245.8 140.94 247.25 140.94 247.25 142.68 242.62 142.68 242.62 140.94 244.07 140.94 244.07 136.47 241.78 136.47"/>
    <polygon class="cls-4" points="235.46 136.47 235.46 134.73 241.78 134.73 241.78 136.47 239.48 136.47 239.48 140.94 240.93 140.94 240.93 142.68 236.3 142.68 236.3 140.94 237.75 140.94 237.75 136.47 235.46 136.47"/>
    <polygon class="cls-4" points="229.14 136.47 229.14 134.73 235.46 134.73 235.46 136.47 233.16 136.47 233.16 140.94 234.61 140.94 234.61 142.68 229.98 142.68 229.98 140.94 231.43 140.94 231.43 136.47 229.14 136.47"/>
    <polygon class="cls-4" points="222.82 136.47 222.82 134.73 229.14 134.73 229.14 136.47 226.84 136.47 226.84 140.94 228.29 140.94 228.29 142.68 223.66 142.68 223.66 140.94 225.11 140.94 225.11 136.47 222.82 136.47"/>
    <polygon class="cls-4" points="216.5 136.47 216.5 134.73 222.82 134.73 222.82 136.47 220.52 136.47 220.52 140.94 221.97 140.94 221.97 142.68 217.34 142.68 217.34 140.94 218.79 140.94 218.79 136.47 216.5 136.47"/>
    <polygon class="cls-4" points="210.18 136.47 210.18 134.73 216.5 134.73 216.5 136.47 214.2 136.47 214.2 140.94 215.65 140.94 215.65 142.68 211.02 142.68 211.02 140.94 212.47 140.94 212.47 136.47 210.18 136.47"/>
    <polygon class="cls-4" points="203.86 136.47 203.86 134.73 210.18 134.73 210.18 136.47 207.88 136.47 207.88 140.94 209.33 140.94 209.33 142.68 204.7 142.68 204.7 140.94 206.15 140.94 206.15 136.47 203.86 136.47"/>
    <polygon class="cls-4" points="197.54 136.47 197.54 134.73 203.86 134.73 203.86 136.47 201.56 136.47 201.56 140.94 203.01 140.94 203.01 142.68 198.38 142.68 198.38 140.94 199.83 140.94 199.83 136.47 197.54 136.47"/>
    <polygon class="cls-4" points="191.22 136.47 191.22 134.73 197.54 134.73 197.54 136.47 195.24 136.47 195.24 140.94 196.69 140.94 196.69 142.68 192.06 142.68 192.06 140.94 193.51 140.94 193.51 136.47 191.22 136.47"/>
    <polygon class="cls-4" points="184.9 136.47 184.9 134.73 191.22 134.73 191.22 136.47 188.92 136.47 188.92 140.94 190.37 140.94 190.37 142.68 185.74 142.68 185.74 140.94 187.19 140.94 187.19 136.47 184.9 136.47"/>
    <polygon class="cls-4" points="178.58 136.47 178.58 134.73 184.9 134.73 184.9 136.47 182.6 136.47 182.6 140.94 184.05 140.94 184.05 142.68 179.42 142.68 179.42 140.94 180.87 140.94 180.87 136.47 178.58 136.47"/>
    <polygon class="cls-4" points="172.26 136.47 172.26 134.73 178.58 134.73 178.58 136.47 176.28 136.47 176.28 140.94 177.73 140.94 177.73 142.68 173.1 142.68 173.1 140.94 174.55 140.94 174.55 136.47 172.26 136.47"/>
    <polygon class="cls-4" points="165.94 136.47 165.94 134.73 172.26 134.73 172.26 136.47 169.96 136.47 169.96 140.94 171.41 140.94 171.41 142.68 166.78 142.68 166.78 140.94 168.23 140.94 168.23 136.47 165.94 136.47"/>
    <polygon class="cls-4" points="159.62 136.47 159.62 134.73 165.94 134.73 165.94 136.47 163.64 136.47 163.64 140.94 165.09 140.94 165.09 142.68 160.46 142.68 160.46 140.94 161.91 140.94 161.91 136.47 159.62 136.47"/>
    <polygon class="cls-4" points="153.3 136.47 153.3 134.73 159.62 134.73 159.62 136.47 157.32 136.47 157.32 140.94 158.77 140.94 158.77 142.68 154.14 142.68 154.14 140.94 155.59 140.94 155.59 136.47 153.3 136.47"/>
    <polygon class="cls-4" points="146.98 136.47 146.98 134.73 153.3 134.73 153.3 136.47 151 136.47 151 140.94 152.45 140.94 152.45 142.68 147.82 142.68 147.82 140.94 149.27 140.94 149.27 136.47 146.98 136.47"/>
    <polygon class="cls-4" points="140.66 136.47 140.66 134.73 146.98 134.73 146.98 136.47 144.68 136.47 144.68 140.94 146.13 140.94 146.13 142.68 141.5 142.68 141.5 140.94 142.95 140.94 142.95 136.47 140.66 136.47"/>
    <polygon class="cls-4" points="134.34 136.47 134.34 134.73 140.66 134.73 140.66 136.47 138.36 136.47 138.36 140.94 139.81 140.94 139.81 142.68 135.18 142.68 135.18 140.94 136.63 140.94 136.63 136.47 134.34 136.47"/>
    <polygon class="cls-4" points="128.02 136.47 128.02 134.73 134.34 134.73 134.34 136.47 132.04 136.47 132.04 140.94 133.49 140.94 133.49 142.68 128.86 142.68 128.86 140.94 130.31 140.94 130.31 136.47 128.02 136.47"/>
    <polygon class="cls-4" points="121.7 136.47 121.7 134.73 128.02 134.73 128.02 136.47 125.72 136.47 125.72 140.94 127.17 140.94 127.17 142.68 122.54 142.68 122.54 140.94 123.99 140.94 123.99 136.47 121.7 136.47"/>
    <polygon class="cls-4" points="115.38 136.47 115.38 134.73 121.7 134.73 121.7 136.47 119.4 136.47 119.4 140.94 120.85 140.94 120.85 142.68 116.22 142.68 116.22 140.94 117.67 140.94 117.67 136.47 115.38 136.47"/>
    <polygon class="cls-4" points="109.06 136.47 109.06 134.73 115.38 134.73 115.38 136.47 113.08 136.47 113.08 140.94 114.53 140.94 114.53 142.68 109.9 142.68 109.9 140.94 111.35 140.94 111.35 136.47 109.06 136.47"/>
    <polygon class="cls-4" points="102.74 136.47 102.74 134.73 109.06 134.73 109.06 136.47 106.76 136.47 106.76 140.94 108.21 140.94 108.21 142.68 103.58 142.68 103.58 140.94 105.03 140.94 105.03 136.47 102.74 136.47"/>
    <polygon class="cls-4" points="96.42 136.47 96.42 134.73 102.74 134.73 102.74 136.47 100.44 136.47 100.44 140.94 101.89 140.94 101.89 142.68 97.26 142.68 97.26 140.94 98.71 140.94 98.71 136.47 96.42 136.47"/>
    <polygon class="cls-4" points="90.1 136.47 90.1 134.73 96.42 134.73 96.42 136.47 94.12 136.47 94.12 140.94 95.57 140.94 95.57 142.68 90.94 142.68 90.94 140.94 92.39 140.94 92.39 136.47 90.1 136.47"/>
    <polygon class="cls-4" points="83.78 136.47 83.78 134.73 90.1 134.73 90.1 136.47 87.8 136.47 87.8 140.94 89.25 140.94 89.25 142.68 84.62 142.68 84.62 140.94 86.07 140.94 86.07 136.47 83.78 136.47"/>
    <polygon class="cls-4" points="77.46 136.47 77.46 134.73 83.78 134.73 83.78 136.47 81.48 136.47 81.48 140.94 82.93 140.94 82.93 142.68 78.3 142.68 78.3 140.94 79.75 140.94 79.75 136.47 77.46 136.47"/>
    <polygon class="cls-4" points="71.14 136.47 71.14 134.73 77.46 134.73 77.46 136.47 75.16 136.47 75.16 140.94 76.61 140.94 76.61 142.68 71.98 142.68 71.98 140.94 73.43 140.94 73.43 136.47 71.14 136.47"/>
    <polygon class="cls-4" points="64.82 136.47 64.82 134.73 71.14 134.73 71.14 136.47 68.84 136.47 68.84 140.94 70.29 140.94 70.29 142.68 65.66 142.68 65.66 140.94 67.11 140.94 67.11 136.47 64.82 136.47"/>
    <polygon class="cls-4" points="58.5 136.47 58.5 134.73 64.82 134.73 64.82 136.47 62.52 136.47 62.52 140.94 63.97 140.94 63.97 142.68 59.34 142.68 59.34 140.94 60.79 140.94 60.79 136.47 58.5 136.47"/>
    <polygon class="cls-4" points="52.18 136.47 52.18 134.73 58.5 134.73 58.5 136.47 56.2 136.47 56.2 140.94 57.65 140.94 57.65 142.68 53.02 142.68 53.02 140.94 54.47 140.94 54.47 136.47 52.18 136.47"/>
    <polygon class="cls-4" points="45.86 136.47 45.86 134.73 52.18 134.73 52.18 136.47 49.88 136.47 49.88 140.94 51.33 140.94 51.33 142.68 46.7 142.68 46.7 140.94 48.15 140.94 48.15 136.47 45.86 136.47"/>
    <polygon class="cls-4" points="39.54 136.47 39.54 134.73 45.86 134.73 45.86 136.47 43.56 136.47 43.56 140.94 45.01 140.94 45.01 142.68 40.38 142.68 40.38 140.94 41.83 140.94 41.83 136.47 39.54 136.47"/>
    <polygon class="cls-4" points="33.22 136.47 33.22 134.73 39.54 134.73 39.54 136.47 37.24 136.47 37.24 140.94 38.69 140.94 38.69 142.68 34.06 142.68 34.06 140.94 35.51 140.94 35.51 136.47 33.22 136.47"/>
    <polygon class="cls-4" points="26.9 136.47 26.9 134.73 33.22 134.73 33.22 136.47 30.92 136.47 30.92 140.94 32.37 140.94 32.37 142.68 27.74 142.68 27.74 140.94 29.19 140.94 29.19 136.47 26.9 136.47"/>
    <polygon class="cls-4" points="20.58 136.47 20.58 134.73 26.9 134.73 26.9 136.47 24.6 136.47 24.6 140.94 26.05 140.94 26.05 142.68 21.42 142.68 21.42 140.94 22.87 140.94 22.87 136.47 20.58 136.47"/>
    <polygon class="cls-4" points="14.26 136.47 14.26 134.73 20.58 134.73 20.58 136.47 18.28 136.47 18.28 140.94 19.73 140.94 19.73 142.68 15.1 142.68 15.1 140.94 16.55 140.94 16.55 136.47 14.26 136.47"/>
    <polygon class="cls-4" points="7.94 136.47 7.94 134.73 14.26 134.73 14.26 136.47 11.96 136.47 11.96 140.94 13.41 140.94 13.41 142.68 8.78 142.68 8.78 140.94 10.23 140.94 10.23 136.47 7.94 136.47"/>
    <g class="cls-8">
      <polygon class="cls-4" points="6.21 0 7.94 0 7.94 7.94 6.21 7.94 6.21 5.05 1.74 5.05 1.74 6.87 0 6.87 0 1.06 1.74 1.06 1.74 2.87 6.21 2.87 6.21 0"/>
    </g>
    <g class="cls-6">
      <polygon class="cls-4" points="7.94 6.21 7.94 7.94 0 7.94 0 6.21 2.9 6.21 2.9 1.74 1.08 1.74 1.08 0 6.89 0 6.89 1.74 5.07 1.74 5.07 6.21 7.94 6.21"/>
    </g>
    <g class="cls-1">
      <polygon class="cls-4" points="591.01 6.21 591.01 7.94 583.06 7.94 583.06 6.21 585.96 6.21 585.96 1.74 584.14 1.74 584.14 0 589.95 0 589.95 1.74 588.13 1.74 588.13 6.21 591.01 6.21"/>
    </g>
    <g class="cls-9">
      <polygon class="cls-4" points="584.8 7.94 583.06 7.94 583.06 0 584.8 0 584.8 2.9 589.27 2.9 589.27 1.08 591.01 1.08 591.01 6.89 589.27 6.89 589.27 5.07 584.8 5.07 584.8 7.94"/>
    </g>
    <g class="cls-7">
      <polygon class="cls-4" points="584.8 142.68 583.06 142.68 583.06 134.73 584.8 134.73 584.8 137.63 589.27 137.63 589.27 135.81 591.01 135.81 591.01 141.62 589.27 141.62 589.27 139.8 584.8 139.8 584.8 142.68"/>
    </g>
    <g class="cls-10">
      <polygon class="cls-4" points="583.06 136.47 583.06 134.73 591.01 134.73 591.01 136.47 588.11 136.47 588.11 140.94 589.93 140.94 589.93 142.68 584.12 142.68 584.12 140.94 585.94 140.94 585.94 136.47 583.06 136.47"/>
    </g>
    <g class="cls-2">
      <polygon class="cls-4" points="0 136.47 0 134.73 7.94 134.73 7.94 136.47 5.05 136.47 5.05 140.94 6.87 140.94 6.87 142.68 1.06 142.68 1.06 140.94 2.87 140.94 2.87 136.47 0 136.47"/>
    </g>
    <g class="cls-5">
      <polygon class="cls-4" points="6.21 134.73 7.94 134.73 7.94 142.68 6.21 142.68 6.21 139.78 1.74 139.78 1.74 141.6 0 141.6 0 135.79 1.74 135.79 1.74 137.61 6.21 137.61 6.21 134.73"/>
    </g>
  </g>
</svg>