<?xml version="1.0" encoding="UTF-8"?>
<svg id="En_tablet_second_divider" data-name="En tablet second divider" xmlns="http://www.w3.org/2000/svg" version="1.1" xmlns:xlink="http://www.w3.org/1999/xlink" viewBox="0 0 183.39 149.97">
  <defs>
    <style>
      .cls-1 {
        clip-path: url(#clippath-2);
      }

      .cls-2 {
        clip-path: url(#clippath-6);
      }

      .cls-3 {
        fill: none;
      }

      .cls-3, .cls-4 {
        stroke-width: 0px;
      }

      .cls-5 {
        clip-path: url(#clippath-7);
      }

      .cls-6 {
        clip-path: url(#clippath-1);
      }

      .cls-7 {
        clip-path: url(#clippath-4);
      }

      .cls-4 {
        fill: #fed700;
      }

      .cls-8 {
        clip-path: url(#clippath);
      }

      .cls-9 {
        clip-path: url(#clippath-3);
      }

      .cls-10 {
        clip-path: url(#clippath-5);
      }
    </style>
    <clipPath id="clippath">
      <polygon class="cls-3" points="181.16 147.1 183.32 149.99 180.54 149.17 181.16 147.1"/>
    </clipPath>
    <clipPath id="clippath-1">
      <polygon class="cls-3" points="181.16 147.1 183.32 149.99 183.32 147.1 181.16 147.1"/>
    </clipPath>
    <clipPath id="clippath-2">
      <polygon class="cls-3" points="181.16 2.19 183.32 .03 183.32 2.19 181.16 2.19"/>
    </clipPath>
    <clipPath id="clippath-3">
      <polygon class="cls-3" points="181.16 2.19 183.32 .03 181.16 .03 181.16 2.19"/>
    </clipPath>
    <clipPath id="clippath-4">
      <polygon class="cls-3" points="2.21 2.19 .04 .03 2.21 .03 2.21 2.19"/>
    </clipPath>
    <clipPath id="clippath-5">
      <polygon class="cls-3" points="2.21 2.19 .04 .03 .04 2.19 2.21 2.19"/>
    </clipPath>
    <clipPath id="clippath-6">
      <polygon class="cls-3" points="2.21 94.21 .04 95.83 .04 94.21 2.21 94.21"/>
    </clipPath>
    <clipPath id="clippath-7">
      <polygon class="cls-3" points="2.21 94.21 .04 95.83 1.59 96.29 2.21 94.21"/>
    </clipPath>
  </defs>
  <g id="En_Tablet_second_divider" data-name="En Tablet second divider">
    <polygon class="cls-4" points="1.12 1.11 1.12 95.02 182.24 148.55 182.24 1.11 1.12 1.11"/>
    <g>
      <polygon class="cls-4" points="3.73 95.16 3.86 94.7 2.21 94.21 2.07 94.67 2.68 94.85 2.33 96.01 1.95 95.9 1.82 96.36 3.03 96.71 3.16 96.26 2.79 96.15 3.13 94.98 3.73 95.16"/>
      <polygon class="cls-4" points="5.39 95.65 5.52 95.19 3.86 94.7 3.73 95.16 4.33 95.33 3.99 96.5 3.61 96.39 3.48 96.85 4.69 97.2 4.82 96.75 4.44 96.64 4.79 95.47 5.39 95.65"/>
      <polygon class="cls-4" points="7.04 96.14 7.18 95.68 5.52 95.19 5.39 95.65 5.99 95.82 5.65 96.99 5.27 96.88 5.13 97.34 6.34 97.69 6.48 97.24 6.1 97.13 6.45 95.96 7.04 96.14"/>
      <polygon class="cls-4" points="8.7 96.63 8.84 96.17 7.18 95.68 7.04 96.14 7.65 96.31 7.3 97.48 6.92 97.37 6.79 97.83 8 98.18 8.14 97.73 7.76 97.62 8.1 96.45 8.7 96.63"/>
      <polygon class="cls-4" points="10.36 97.11 10.49 96.66 8.84 96.17 8.7 96.63 9.31 96.8 8.96 97.97 8.58 97.86 8.45 98.32 9.66 98.67 9.79 98.22 9.41 98.11 9.76 96.94 10.36 97.11"/>
      <polygon class="cls-4" points="12.02 97.6 12.15 97.15 10.49 96.66 10.36 97.11 10.96 97.29 10.62 98.46 10.24 98.35 10.1 98.8 11.32 99.16 11.45 98.71 11.07 98.6 11.42 97.43 12.02 97.6"/>
      <polygon class="cls-4" points="13.67 98.09 13.81 97.64 12.15 97.15 12.02 97.6 12.62 97.78 12.27 98.95 11.89 98.84 11.76 99.29 12.97 99.65 13.11 99.2 12.73 99.09 13.07 97.92 13.67 98.09"/>
      <polygon class="cls-4" points="15.33 98.58 15.46 98.13 13.81 97.64 13.67 98.09 14.28 98.27 13.93 99.44 13.55 99.33 13.42 99.78 14.63 100.14 14.76 99.69 14.38 99.58 14.73 98.41 15.33 98.58"/>
      <polygon class="cls-4" points="16.99 99.07 17.12 98.62 15.46 98.13 15.33 98.58 15.93 98.76 15.59 99.93 15.21 99.82 15.07 100.27 16.29 100.63 16.42 100.18 16.04 100.07 16.39 98.9 16.99 99.07"/>
      <polygon class="cls-4" points="18.64 99.56 18.78 99.11 17.12 98.62 16.99 99.07 17.59 99.25 17.24 100.42 16.87 100.31 16.73 100.76 17.94 101.12 18.08 100.67 17.7 100.56 18.04 99.39 18.64 99.56"/>
      <polygon class="cls-4" points="20.3 100.05 20.43 99.6 18.78 99.11 18.64 99.56 19.25 99.74 18.9 100.91 18.52 100.8 18.39 101.25 19.6 101.61 19.73 101.16 19.35 101.05 19.7 99.88 20.3 100.05"/>
      <polygon class="cls-4" points="21.96 100.54 22.09 100.09 20.43 99.6 20.3 100.05 20.9 100.23 20.56 101.4 20.18 101.29 20.05 101.74 21.26 102.1 21.39 101.65 21.01 101.53 21.36 100.37 21.96 100.54"/>
      <polygon class="cls-4" points="23.61 101.03 23.75 100.58 22.09 100.09 21.96 100.54 22.56 100.72 22.22 101.89 21.84 101.78 21.7 102.23 22.91 102.59 23.05 102.14 22.67 102.02 23.01 100.86 23.61 101.03"/>
      <polygon class="cls-4" points="25.27 101.52 25.4 101.07 23.75 100.58 23.61 101.03 24.22 101.21 23.87 102.38 23.49 102.27 23.36 102.72 24.57 103.08 24.7 102.63 24.33 102.51 24.67 101.34 25.27 101.52"/>
      <polygon class="cls-4" points="26.93 102.01 27.06 101.56 25.4 101.07 25.27 101.52 25.87 101.7 25.53 102.87 25.15 102.76 25.02 103.21 26.23 103.57 26.36 103.12 25.98 103 26.33 101.83 26.93 102.01"/>
      <polygon class="cls-4" points="28.58 102.5 28.72 102.05 27.06 101.56 26.93 102.01 27.53 102.19 27.19 103.36 26.81 103.25 26.67 103.7 27.88 104.06 28.02 103.61 27.64 103.49 27.99 102.32 28.58 102.5"/>
      <polygon class="cls-4" points="30.24 102.99 30.38 102.54 28.72 102.05 28.58 102.5 29.19 102.68 28.84 103.85 28.46 103.74 28.33 104.19 29.54 104.55 29.68 104.1 29.3 103.98 29.64 102.81 30.24 102.99"/>
      <polygon class="cls-4" points="31.9 103.48 32.03 103.03 30.38 102.54 30.24 102.99 30.85 103.17 30.5 104.34 30.12 104.23 29.99 104.68 31.2 105.04 31.33 104.58 30.95 104.47 31.3 103.3 31.9 103.48"/>
      <polygon class="cls-4" points="33.56 103.97 33.69 103.52 32.03 103.03 31.9 103.48 32.5 103.66 32.16 104.83 31.78 104.72 31.64 105.17 32.86 105.53 32.99 105.07 32.61 104.96 32.96 103.79 33.56 103.97"/>
      <polygon class="cls-4" points="35.21 104.46 35.35 104.01 33.69 103.52 33.56 103.97 34.16 104.15 33.81 105.32 33.43 105.21 33.3 105.66 34.51 106.02 34.65 105.56 34.27 105.45 34.61 104.28 35.21 104.46"/>
      <polygon class="cls-4" points="36.87 104.95 37 104.5 35.35 104.01 35.21 104.46 35.82 104.64 35.47 105.81 35.09 105.7 34.96 106.15 36.17 106.51 36.3 106.05 35.92 105.94 36.27 104.77 36.87 104.95"/>
      <polygon class="cls-4" points="38.53 105.44 38.66 104.98 37 104.5 36.87 104.95 37.47 105.13 37.13 106.3 36.75 106.19 36.61 106.64 37.83 107 37.96 106.54 37.58 106.43 37.93 105.26 38.53 105.44"/>
      <polygon class="cls-4" points="40.18 105.93 40.32 105.47 38.66 104.98 38.53 105.44 39.13 105.62 38.78 106.79 38.41 106.67 38.27 107.13 39.48 107.49 39.62 107.03 39.24 106.92 39.58 105.75 40.18 105.93"/>
      <polygon class="cls-4" points="41.84 106.42 41.97 105.96 40.32 105.47 40.18 105.93 40.79 106.11 40.44 107.28 40.06 107.16 39.93 107.62 41.14 107.98 41.27 107.52 40.89 107.41 41.24 106.24 41.84 106.42"/>
      <polygon class="cls-4" points="43.5 106.91 43.63 106.45 41.97 105.96 41.84 106.42 42.44 106.6 42.1 107.77 41.72 107.65 41.59 108.11 42.8 108.47 42.93 108.01 42.55 107.9 42.9 106.73 43.5 106.91"/>
      <polygon class="cls-4" points="45.15 107.4 45.29 106.94 43.63 106.45 43.5 106.91 44.1 107.09 43.76 108.26 43.38 108.14 43.24 108.6 44.45 108.96 44.59 108.5 44.21 108.39 44.55 107.22 45.15 107.4"/>
      <polygon class="cls-4" points="46.81 107.89 46.94 107.43 45.29 106.94 45.15 107.4 45.76 107.58 45.41 108.75 45.03 108.63 44.9 109.09 46.11 109.45 46.24 108.99 45.87 108.88 46.21 107.71 46.81 107.89"/>
      <polygon class="cls-4" points="48.47 108.38 48.6 107.92 46.94 107.43 46.81 107.89 47.41 108.07 47.07 109.24 46.69 109.12 46.56 109.58 47.77 109.94 47.9 109.48 47.52 109.37 47.87 108.2 48.47 108.38"/>
      <polygon class="cls-4" points="50.12 108.87 50.26 108.41 48.6 107.92 48.47 108.38 49.07 108.56 48.73 109.72 48.35 109.61 48.21 110.07 49.42 110.43 49.56 109.97 49.18 109.86 49.53 108.69 50.12 108.87"/>
      <polygon class="cls-4" points="51.78 109.36 51.92 108.9 50.26 108.41 50.12 108.87 50.73 109.05 50.38 110.21 50 110.1 49.87 110.56 51.08 110.91 51.22 110.46 50.84 110.35 51.18 109.18 51.78 109.36"/>
      <polygon class="cls-4" points="53.44 109.85 53.57 109.39 51.92 108.9 51.78 109.36 52.39 109.54 52.04 110.7 51.66 110.59 51.53 111.05 52.74 111.4 52.87 110.95 52.49 110.84 52.84 109.67 53.44 109.85"/>
      <polygon class="cls-4" points="55.1 110.34 55.23 109.88 53.57 109.39 53.44 109.85 54.04 110.02 53.7 111.19 53.32 111.08 53.18 111.54 54.4 111.89 54.53 111.44 54.15 111.33 54.5 110.16 55.1 110.34"/>
      <polygon class="cls-4" points="56.75 110.83 56.89 110.37 55.23 109.88 55.1 110.34 55.7 110.51 55.35 111.68 54.97 111.57 54.84 112.03 56.05 112.38 56.19 111.93 55.81 111.82 56.15 110.65 56.75 110.83"/>
      <polygon class="cls-4" points="58.41 111.32 58.54 110.86 56.89 110.37 56.75 110.83 57.36 111 57.01 112.17 56.63 112.06 56.5 112.52 57.71 112.87 57.84 112.42 57.46 112.31 57.81 111.14 58.41 111.32"/>
      <polygon class="cls-4" points="60.07 111.8 60.2 111.35 58.54 110.86 58.41 111.32 59.01 111.49 58.67 112.66 58.29 112.55 58.15 113.01 59.37 113.36 59.5 112.91 59.12 112.8 59.47 111.63 60.07 111.8"/>
      <polygon class="cls-4" points="61.72 112.29 61.86 111.84 60.2 111.35 60.07 111.8 60.67 111.98 60.32 113.15 59.95 113.04 59.81 113.49 61.02 113.85 61.16 113.4 60.78 113.29 61.12 112.12 61.72 112.29"/>
      <polygon class="cls-4" points="63.38 112.78 63.51 112.33 61.86 111.84 61.72 112.29 62.33 112.47 61.98 113.64 61.6 113.53 61.47 113.98 62.68 114.34 62.81 113.89 62.44 113.78 62.78 112.61 63.38 112.78"/>
      <polygon class="cls-4" points="65.04 113.27 65.17 112.82 63.51 112.33 63.38 112.78 63.98 112.96 63.64 114.13 63.26 114.02 63.13 114.47 64.34 114.83 64.47 114.38 64.09 114.27 64.44 113.1 65.04 113.27"/>
      <polygon class="cls-4" points="66.69 113.76 66.83 113.31 65.17 112.82 65.04 113.27 65.64 113.45 65.3 114.62 64.92 114.51 64.78 114.96 65.99 115.32 66.13 114.87 65.75 114.76 66.09 113.59 66.69 113.76"/>
      <polygon class="cls-4" points="68.35 114.25 68.48 113.8 66.83 113.31 66.69 113.76 67.3 113.94 66.95 115.11 66.57 115 66.44 115.45 67.65 115.81 67.78 115.36 67.41 115.25 67.75 114.08 68.35 114.25"/>
      <polygon class="cls-4" points="70.01 114.74 70.14 114.29 68.48 113.8 68.35 114.25 68.95 114.43 68.61 115.6 68.23 115.49 68.1 115.94 69.31 116.3 69.44 115.85 69.06 115.73 69.41 114.57 70.01 114.74"/>
      <polygon class="cls-4" points="71.66 115.23 71.8 114.78 70.14 114.29 70.01 114.74 70.61 114.92 70.27 116.09 69.89 115.98 69.75 116.43 70.96 116.79 71.1 116.34 70.72 116.22 71.07 115.06 71.66 115.23"/>
      <polygon class="cls-4" points="73.32 115.72 73.46 115.27 71.8 114.78 71.66 115.23 72.27 115.41 71.92 116.58 71.54 116.47 71.41 116.92 72.62 117.28 72.76 116.83 72.38 116.71 72.72 115.54 73.32 115.72"/>
      <polygon class="cls-4" points="74.98 116.21 75.11 115.76 73.46 115.27 73.32 115.72 73.93 115.9 73.58 117.07 73.2 116.96 73.07 117.41 74.28 117.77 74.41 117.32 74.03 117.2 74.38 116.03 74.98 116.21"/>
      <polygon class="cls-4" points="76.64 116.7 76.77 116.25 75.11 115.76 74.98 116.21 75.58 116.39 75.24 117.56 74.86 117.45 74.72 117.9 75.94 118.26 76.07 117.81 75.69 117.69 76.04 116.52 76.64 116.7"/>
      <polygon class="cls-4" points="78.29 117.19 78.43 116.74 76.77 116.25 76.64 116.7 77.24 116.88 76.89 118.05 76.51 117.94 76.38 118.39 77.59 118.75 77.73 118.3 77.35 118.18 77.69 117.01 78.29 117.19"/>
      <polygon class="cls-4" points="79.95 117.68 80.08 117.23 78.43 116.74 78.29 117.19 78.9 117.37 78.55 118.54 78.17 118.43 78.04 118.88 79.25 119.24 79.38 118.78 79 118.67 79.35 117.5 79.95 117.68"/>
      <polygon class="cls-4" points="81.61 118.17 81.74 117.72 80.08 117.23 79.95 117.68 80.55 117.86 80.21 119.03 79.83 118.92 79.69 119.37 80.91 119.73 81.04 119.27 80.66 119.16 81.01 117.99 81.61 118.17"/>
      <polygon class="cls-4" points="83.26 118.66 83.4 118.21 81.74 117.72 81.61 118.17 82.21 118.35 81.86 119.52 81.49 119.41 81.35 119.86 82.56 120.22 82.7 119.76 82.32 119.65 82.66 118.48 83.26 118.66"/>
      <polygon class="cls-4" points="84.92 119.15 85.05 118.7 83.4 118.21 83.26 118.66 83.87 118.84 83.52 120.01 83.14 119.9 83.01 120.35 84.22 120.71 84.35 120.25 83.98 120.14 84.32 118.97 84.92 119.15"/>
      <polygon class="cls-4" points="86.58 119.64 86.71 119.18 85.05 118.7 84.92 119.15 85.52 119.33 85.18 120.5 84.8 120.39 84.67 120.84 85.88 121.2 86.01 120.74 85.63 120.63 85.98 119.46 86.58 119.64"/>
      <polygon class="cls-4" points="88.23 120.13 88.37 119.67 86.71 119.18 86.58 119.64 87.18 119.82 86.84 120.99 86.46 120.87 86.32 121.33 87.53 121.69 87.67 121.23 87.29 121.12 87.63 119.95 88.23 120.13"/>
      <polygon class="cls-4" points="89.89 120.62 90.02 120.16 88.37 119.67 88.23 120.13 88.84 120.31 88.49 121.48 88.11 121.36 87.98 121.82 89.19 122.18 89.33 121.72 88.95 121.61 89.29 120.44 89.89 120.62"/>
      <polygon class="cls-4" points="91.55 121.11 91.68 120.65 90.02 120.16 89.89 120.62 90.5 120.8 90.15 121.97 89.77 121.85 89.64 122.31 90.85 122.67 90.98 122.21 90.6 122.1 90.95 120.93 91.55 121.11"/>
      <polygon class="cls-4" points="93.2 121.6 93.34 121.14 91.68 120.65 91.55 121.11 92.15 121.29 91.81 122.46 91.43 122.34 91.29 122.8 92.5 123.16 92.64 122.7 92.26 122.59 92.61 121.42 93.2 121.6"/>
      <polygon class="cls-4" points="94.86 122.09 95 121.63 93.34 121.14 93.2 121.6 93.81 121.78 93.46 122.95 93.08 122.83 92.95 123.29 94.16 123.65 94.3 123.19 93.92 123.08 94.26 121.91 94.86 122.09"/>
      <polygon class="cls-4" points="96.52 122.58 96.65 122.12 95 121.63 94.86 122.09 95.47 122.27 95.12 123.44 94.74 123.32 94.61 123.78 95.82 124.14 95.95 123.68 95.57 123.57 95.92 122.4 96.52 122.58"/>
      <polygon class="cls-4" points="98.18 123.07 98.31 122.61 96.65 122.12 96.52 122.58 97.12 122.76 96.78 123.92 96.4 123.81 96.26 124.27 97.48 124.63 97.61 124.17 97.23 124.06 97.58 122.89 98.18 123.07"/>
      <polygon class="cls-4" points="99.83 123.56 99.97 123.1 98.31 122.61 98.18 123.07 98.78 123.25 98.43 124.41 98.05 124.3 97.92 124.76 99.13 125.11 99.27 124.66 98.89 124.55 99.23 123.38 99.83 123.56"/>
      <polygon class="cls-4" points="101.49 124.05 101.62 123.59 99.97 123.1 99.83 123.56 100.44 123.74 100.09 124.9 99.71 124.79 99.58 125.25 100.79 125.6 100.92 125.15 100.54 125.04 100.89 123.87 101.49 124.05"/>
      <polygon class="cls-4" points="103.15 124.54 103.28 124.08 101.62 123.59 101.49 124.05 102.09 124.22 101.75 125.39 101.37 125.28 101.23 125.74 102.45 126.09 102.58 125.64 102.2 125.53 102.55 124.36 103.15 124.54"/>
      <polygon class="cls-4" points="104.8 125.03 104.94 124.57 103.28 124.08 103.15 124.54 103.75 124.71 103.4 125.88 103.03 125.77 102.89 126.23 104.1 126.58 104.24 126.13 103.86 126.02 104.2 124.85 104.8 125.03"/>
      <polygon class="cls-4" points="106.46 125.52 106.59 125.06 104.94 124.57 104.8 125.03 105.41 125.2 105.06 126.37 104.68 126.26 104.55 126.72 105.76 127.07 105.89 126.62 105.52 126.51 105.86 125.34 106.46 125.52"/>
      <polygon class="cls-4" points="108.12 126 108.25 125.55 106.59 125.06 106.46 125.52 107.06 125.69 106.72 126.86 106.34 126.75 106.21 127.21 107.42 127.56 107.55 127.11 107.17 127 107.52 125.83 108.12 126"/>
      <polygon class="cls-4" points="109.77 126.49 109.91 126.04 108.25 125.55 108.12 126 108.72 126.18 108.38 127.35 108 127.24 107.86 127.69 109.07 128.05 109.21 127.6 108.83 127.49 109.17 126.32 109.77 126.49"/>
      <polygon class="cls-4" points="111.43 126.98 111.57 126.53 109.91 126.04 109.77 126.49 110.38 126.67 110.03 127.84 109.65 127.73 109.52 128.18 110.73 128.54 110.87 128.09 110.49 127.98 110.83 126.81 111.43 126.98"/>
      <polygon class="cls-4" points="113.09 127.47 113.22 127.02 111.57 126.53 111.43 126.98 112.04 127.16 111.69 128.33 111.31 128.22 111.18 128.67 112.39 129.03 112.52 128.58 112.14 128.47 112.49 127.3 113.09 127.47"/>
      <polygon class="cls-4" points="114.74 127.96 114.88 127.51 113.22 127.02 113.09 127.47 113.69 127.65 113.35 128.82 112.97 128.71 112.83 129.16 114.04 129.52 114.18 129.07 113.8 128.96 114.15 127.79 114.74 127.96"/>
      <polygon class="cls-4" points="116.4 128.45 116.54 128 114.88 127.51 114.74 127.96 115.35 128.14 115 129.31 114.62 129.2 114.49 129.65 115.7 130.01 115.84 129.56 115.46 129.45 115.8 128.28 116.4 128.45"/>
      <polygon class="cls-4" points="118.06 128.94 118.19 128.49 116.54 128 116.4 128.45 117.01 128.63 116.66 129.8 116.28 129.69 116.15 130.14 117.36 130.5 117.49 130.05 117.11 129.93 117.46 128.77 118.06 128.94"/>
      <polygon class="cls-4" points="119.72 129.43 119.85 128.98 118.19 128.49 118.06 128.94 118.66 129.12 118.32 130.29 117.94 130.18 117.8 130.63 119.02 130.99 119.15 130.54 118.77 130.42 119.12 129.26 119.72 129.43"/>
      <polygon class="cls-4" points="121.37 129.92 121.51 129.47 119.85 128.98 119.72 129.43 120.32 129.61 119.97 130.78 119.59 130.67 119.46 131.12 120.67 131.48 120.81 131.03 120.43 130.91 120.77 129.74 121.37 129.92"/>
      <polygon class="cls-4" points="123.03 130.41 123.16 129.96 121.51 129.47 121.37 129.92 121.98 130.1 121.63 131.27 121.25 131.16 121.12 131.61 122.33 131.97 122.46 131.52 122.08 131.4 122.43 130.23 123.03 130.41"/>
      <polygon class="cls-4" points="124.69 130.9 124.82 130.45 123.16 129.96 123.03 130.41 123.63 130.59 123.29 131.76 122.91 131.65 122.77 132.1 123.99 132.46 124.12 132.01 123.74 131.89 124.09 130.72 124.69 130.9"/>
      <polygon class="cls-4" points="126.34 131.39 126.48 130.94 124.82 130.45 124.69 130.9 125.29 131.08 124.94 132.25 124.57 132.14 124.43 132.59 125.64 132.95 125.78 132.5 125.4 132.38 125.74 131.21 126.34 131.39"/>
      <polygon class="cls-4" points="128 131.88 128.13 131.43 126.48 130.94 126.34 131.39 126.95 131.57 126.6 132.74 126.22 132.63 126.09 133.08 127.3 133.44 127.43 132.98 127.06 132.87 127.4 131.7 128 131.88"/>
      <polygon class="cls-4" points="129.66 132.37 129.79 131.92 128.13 131.43 128 131.88 128.6 132.06 128.26 133.23 127.88 133.12 127.75 133.57 128.96 133.93 129.09 133.47 128.71 133.36 129.06 132.19 129.66 132.37"/>
      <polygon class="cls-4" points="131.31 132.86 131.45 132.41 129.79 131.92 129.66 132.37 130.26 132.55 129.92 133.72 129.54 133.61 129.4 134.06 130.61 134.42 130.75 133.96 130.37 133.85 130.71 132.68 131.31 132.86"/>
      <polygon class="cls-4" points="132.97 133.35 133.11 132.9 131.45 132.41 131.31 132.86 131.92 133.04 131.57 134.21 131.19 134.1 131.06 134.55 132.27 134.91 132.41 134.45 132.03 134.34 132.37 133.17 132.97 133.35"/>
      <polygon class="cls-4" points="134.63 133.84 134.76 133.39 133.11 132.9 132.97 133.35 133.58 133.53 133.23 134.7 132.85 134.59 132.72 135.04 133.93 135.4 134.06 134.94 133.68 134.83 134.03 133.66 134.63 133.84"/>
      <polygon class="cls-4" points="136.28 134.33 136.42 133.87 134.76 133.39 134.63 133.84 135.23 134.02 134.89 135.19 134.51 135.08 134.37 135.53 135.58 135.89 135.72 135.43 135.34 135.32 135.69 134.15 136.28 134.33"/>
      <polygon class="cls-4" points="137.94 134.82 138.08 134.36 136.42 133.87 136.28 134.33 136.89 134.51 136.54 135.68 136.16 135.56 136.03 136.02 137.24 136.38 137.38 135.92 137 135.81 137.34 134.64 137.94 134.82"/>
      <polygon class="cls-4" points="139.6 135.31 139.73 134.85 138.08 134.36 137.94 134.82 138.55 135 138.2 136.17 137.82 136.05 137.69 136.51 138.9 136.87 139.03 136.41 138.65 136.3 139 135.13 139.6 135.31"/>
      <polygon class="cls-4" points="141.26 135.8 141.39 135.34 139.73 134.85 139.6 135.31 140.2 135.49 139.86 136.66 139.48 136.54 139.34 137 140.56 137.36 140.69 136.9 140.31 136.79 140.66 135.62 141.26 135.8"/>
      <polygon class="cls-4" points="142.91 136.29 143.05 135.83 141.39 135.34 141.26 135.8 141.86 135.98 141.51 137.15 141.13 137.03 141 137.49 142.21 137.85 142.35 137.39 141.97 137.28 142.31 136.11 142.91 136.29"/>
      <polygon class="cls-4" points="144.57 136.78 144.7 136.32 143.05 135.83 142.91 136.29 143.52 136.47 143.17 137.64 142.79 137.52 142.66 137.98 143.87 138.34 144 137.88 143.62 137.77 143.97 136.6 144.57 136.78"/>
      <polygon class="cls-4" points="146.23 137.27 146.36 136.81 144.7 136.32 144.57 136.78 145.17 136.96 144.83 138.13 144.45 138.01 144.31 138.47 145.53 138.83 145.66 138.37 145.28 138.26 145.63 137.09 146.23 137.27"/>
      <polygon class="cls-4" points="147.88 137.76 148.02 137.3 146.36 136.81 146.23 137.27 146.83 137.45 146.48 138.61 146.11 138.5 145.97 138.96 147.18 139.31 147.32 138.86 146.94 138.75 147.28 137.58 147.88 137.76"/>
      <polygon class="cls-4" points="149.54 138.25 149.67 137.79 148.02 137.3 147.88 137.76 148.49 137.94 148.14 139.1 147.76 138.99 147.63 139.45 148.84 139.8 148.97 139.35 148.6 139.24 148.94 138.07 149.54 138.25"/>
      <polygon class="cls-4" points="151.2 138.74 151.33 138.28 149.67 137.79 149.54 138.25 150.14 138.42 149.8 139.59 149.42 139.48 149.29 139.94 150.5 140.29 150.63 139.84 150.25 139.73 150.6 138.56 151.2 138.74"/>
      <polygon class="cls-4" points="152.85 139.23 152.99 138.77 151.33 138.28 151.2 138.74 151.8 138.91 151.46 140.08 151.08 139.97 150.94 140.43 152.15 140.78 152.29 140.33 151.91 140.22 152.25 139.05 152.85 139.23"/>
      <polygon class="cls-4" points="154.51 139.72 154.65 139.26 152.99 138.77 152.85 139.23 153.46 139.4 153.11 140.57 152.73 140.46 152.6 140.92 153.81 141.27 153.95 140.82 153.57 140.71 153.91 139.54 154.51 139.72"/>
      <polygon class="cls-4" points="156.17 140.2 156.3 139.75 154.65 139.26 154.51 139.72 155.12 139.89 154.77 141.06 154.39 140.95 154.26 141.41 155.47 141.76 155.6 141.31 155.22 141.2 155.57 140.03 156.17 140.2"/>
      <polygon class="cls-4" points="157.82 140.69 157.96 140.24 156.3 139.75 156.17 140.2 156.77 140.38 156.43 141.55 156.05 141.44 155.91 141.89 157.12 142.25 157.26 141.8 156.88 141.69 157.23 140.52 157.82 140.69"/>
      <polygon class="cls-4" points="159.48 141.18 159.62 140.73 157.96 140.24 157.82 140.69 158.43 140.87 158.08 142.04 157.7 141.93 157.57 142.38 158.78 142.74 158.92 142.29 158.54 142.18 158.88 141.01 159.48 141.18"/>
      <polygon class="cls-4" points="161.14 141.67 161.27 141.22 159.62 140.73 159.48 141.18 160.09 141.36 159.74 142.53 159.36 142.42 159.23 142.87 160.44 143.23 160.57 142.78 160.19 142.67 160.54 141.5 161.14 141.67"/>
      <polygon class="cls-4" points="162.8 142.16 162.93 141.71 161.27 141.22 161.14 141.67 161.74 141.85 161.4 143.02 161.02 142.91 160.88 143.36 162.1 143.72 162.23 143.27 161.85 143.16 162.2 141.99 162.8 142.16"/>
      <polygon class="cls-4" points="164.45 142.65 164.59 142.2 162.93 141.71 162.8 142.16 163.4 142.34 163.05 143.51 162.67 143.4 162.54 143.85 163.75 144.21 163.89 143.76 163.51 143.65 163.85 142.48 164.45 142.65"/>
      <polygon class="cls-4" points="166.11 143.14 166.24 142.69 164.59 142.2 164.45 142.65 165.06 142.83 164.71 144 164.33 143.89 164.2 144.34 165.41 144.7 165.54 144.25 165.16 144.13 165.51 142.97 166.11 143.14"/>
      <polygon class="cls-4" points="167.77 143.63 167.9 143.18 166.24 142.69 166.11 143.14 166.71 143.32 166.37 144.49 165.99 144.38 165.85 144.83 167.07 145.19 167.2 144.74 166.82 144.62 167.17 143.46 167.77 143.63"/>
      <polygon class="cls-4" points="169.42 144.12 169.56 143.67 167.9 143.18 167.77 143.63 168.37 143.81 168.03 144.98 167.65 144.87 167.51 145.32 168.72 145.68 168.86 145.23 168.48 145.11 168.82 143.94 169.42 144.12"/>
      <polygon class="cls-4" points="171.08 144.61 171.21 144.16 169.56 143.67 169.42 144.12 170.03 144.3 169.68 145.47 169.3 145.36 169.17 145.81 170.38 146.17 170.51 145.72 170.14 145.6 170.48 144.43 171.08 144.61"/>
      <polygon class="cls-4" points="172.74 145.1 172.87 144.65 171.21 144.16 171.08 144.61 171.68 144.79 171.34 145.96 170.96 145.85 170.83 146.3 172.04 146.66 172.17 146.21 171.79 146.09 172.14 144.92 172.74 145.1"/>
      <polygon class="cls-4" points="174.39 145.59 174.53 145.14 172.87 144.65 172.74 145.1 173.34 145.28 173 146.45 172.62 146.34 172.48 146.79 173.69 147.15 173.83 146.7 173.45 146.58 173.79 145.41 174.39 145.59"/>
      <polygon class="cls-4" points="176.05 146.08 176.19 145.63 174.53 145.14 174.39 145.59 175 145.77 174.65 146.94 174.27 146.83 174.14 147.28 175.35 147.64 175.49 147.18 175.11 147.07 175.45 145.9 176.05 146.08"/>
      <polygon class="cls-4" points="177.71 146.57 177.84 146.12 176.19 145.63 176.05 146.08 176.66 146.26 176.31 147.43 175.93 147.32 175.8 147.77 177.01 148.13 177.14 147.67 176.76 147.56 177.11 146.39 177.71 146.57"/>
      <polygon class="cls-4" points="179.36 147.06 179.5 146.61 177.84 146.12 177.71 146.57 178.31 146.75 177.97 147.92 177.59 147.81 177.45 148.26 178.66 148.62 178.8 148.16 178.42 148.05 178.77 146.88 179.36 147.06"/>
      <polygon class="cls-4" points="181.02 147.55 181.16 147.1 179.5 146.61 179.36 147.06 179.97 147.24 179.62 148.41 179.24 148.3 179.11 148.75 180.32 149.11 180.46 148.65 180.08 148.54 180.42 147.37 181.02 147.55"/>
      <polygon class="cls-4" points="181.63 145.37 181.16 145.37 181.16 147.1 181.63 147.1 181.63 146.47 182.85 146.47 182.85 146.86 183.32 146.86 183.32 145.6 182.85 145.6 182.85 145.99 181.63 145.99 181.63 145.37"/>
      <polygon class="cls-4" points="181.63 143.65 181.16 143.65 181.16 145.37 181.63 145.37 181.63 144.74 182.85 144.74 182.85 145.14 183.32 145.14 183.32 143.87 182.85 143.87 182.85 144.27 181.63 144.27 181.63 143.65"/>
      <polygon class="cls-4" points="181.63 141.92 181.16 141.92 181.16 143.65 181.63 143.65 181.63 143.02 182.85 143.02 182.85 143.41 183.32 143.41 183.32 142.15 182.85 142.15 182.85 142.54 181.63 142.54 181.63 141.92"/>
      <polygon class="cls-4" points="181.63 140.2 181.16 140.2 181.16 141.92 181.63 141.92 181.63 141.29 182.85 141.29 182.85 141.69 183.32 141.69 183.32 140.42 182.85 140.42 182.85 140.82 181.63 140.82 181.63 140.2"/>
      <polygon class="cls-4" points="181.63 138.47 181.16 138.47 181.16 140.2 181.63 140.2 181.63 139.57 182.85 139.57 182.85 139.96 183.32 139.96 183.32 138.7 182.85 138.7 182.85 139.09 181.63 139.09 181.63 138.47"/>
      <polygon class="cls-4" points="181.63 136.75 181.16 136.75 181.16 138.47 181.63 138.47 181.63 137.84 182.85 137.84 182.85 138.24 183.32 138.24 183.32 136.97 182.85 136.97 182.85 137.37 181.63 137.37 181.63 136.75"/>
      <polygon class="cls-4" points="181.63 135.02 181.16 135.02 181.16 136.75 181.63 136.75 181.63 136.12 182.85 136.12 182.85 136.51 183.32 136.51 183.32 135.25 182.85 135.25 182.85 135.64 181.63 135.64 181.63 135.02"/>
      <polygon class="cls-4" points="181.63 133.3 181.16 133.3 181.16 135.02 181.63 135.02 181.63 134.39 182.85 134.39 182.85 134.79 183.32 134.79 183.32 133.52 182.85 133.52 182.85 133.92 181.63 133.92 181.63 133.3"/>
      <polygon class="cls-4" points="181.63 131.57 181.16 131.57 181.16 133.3 181.63 133.3 181.63 132.67 182.85 132.67 182.85 133.06 183.32 133.06 183.32 131.8 182.85 131.8 182.85 132.19 181.63 132.19 181.63 131.57"/>
      <polygon class="cls-4" points="181.63 129.85 181.16 129.85 181.16 131.57 181.63 131.57 181.63 130.94 182.85 130.94 182.85 131.34 183.32 131.34 183.32 130.07 182.85 130.07 182.85 130.47 181.63 130.47 181.63 129.85"/>
      <polygon class="cls-4" points="181.63 128.12 181.16 128.12 181.16 129.85 181.63 129.85 181.63 129.22 182.85 129.22 182.85 129.61 183.32 129.61 183.32 128.35 182.85 128.35 182.85 128.74 181.63 128.74 181.63 128.12"/>
      <polygon class="cls-4" points="181.63 126.4 181.16 126.4 181.16 128.12 181.63 128.12 181.63 127.49 182.85 127.49 182.85 127.89 183.32 127.89 183.32 126.62 182.85 126.62 182.85 127.02 181.63 127.02 181.63 126.4"/>
      <polygon class="cls-4" points="181.63 124.67 181.16 124.67 181.16 126.4 181.63 126.4 181.63 125.77 182.85 125.77 182.85 126.16 183.32 126.16 183.32 124.9 182.85 124.9 182.85 125.29 181.63 125.29 181.63 124.67"/>
      <polygon class="cls-4" points="181.63 122.95 181.16 122.95 181.16 124.67 181.63 124.67 181.63 124.04 182.85 124.04 182.85 124.44 183.32 124.44 183.32 123.17 182.85 123.17 182.85 123.57 181.63 123.57 181.63 122.95"/>
      <polygon class="cls-4" points="181.63 121.22 181.16 121.22 181.16 122.95 181.63 122.95 181.63 122.32 182.85 122.32 182.85 122.71 183.32 122.71 183.32 121.45 182.85 121.45 182.85 121.84 181.63 121.84 181.63 121.22"/>
      <polygon class="cls-4" points="181.63 119.5 181.16 119.5 181.16 121.22 181.63 121.22 181.63 120.59 182.85 120.59 182.85 120.99 183.32 120.99 183.32 119.72 182.85 119.72 182.85 120.12 181.63 120.12 181.63 119.5"/>
      <polygon class="cls-4" points="181.63 117.77 181.16 117.77 181.16 119.5 181.63 119.5 181.63 118.87 182.85 118.87 182.85 119.26 183.32 119.26 183.32 118 182.85 118 182.85 118.39 181.63 118.39 181.63 117.77"/>
      <polygon class="cls-4" points="181.63 116.04 181.16 116.04 181.16 117.77 181.63 117.77 181.63 117.14 182.85 117.14 182.85 117.54 183.32 117.54 183.32 116.27 182.85 116.27 182.85 116.67 181.63 116.67 181.63 116.04"/>
      <polygon class="cls-4" points="181.63 114.32 181.16 114.32 181.16 116.04 181.63 116.04 181.63 115.42 182.85 115.42 182.85 115.81 183.32 115.81 183.32 114.55 182.85 114.55 182.85 114.94 181.63 114.94 181.63 114.32"/>
      <polygon class="cls-4" points="181.63 112.59 181.16 112.59 181.16 114.32 181.63 114.32 181.63 113.69 182.85 113.69 182.85 114.09 183.32 114.09 183.32 112.82 182.85 112.82 182.85 113.22 181.63 113.22 181.63 112.59"/>
      <polygon class="cls-4" points="181.63 110.87 181.16 110.87 181.16 112.59 181.63 112.59 181.63 111.97 182.85 111.97 182.85 112.36 183.32 112.36 183.32 111.1 182.85 111.1 182.85 111.49 181.63 111.49 181.63 110.87"/>
      <polygon class="cls-4" points="181.63 109.14 181.16 109.14 181.16 110.87 181.63 110.87 181.63 110.24 182.85 110.24 182.85 110.64 183.32 110.64 183.32 109.37 182.85 109.37 182.85 109.77 181.63 109.77 181.63 109.14"/>
      <polygon class="cls-4" points="181.63 107.42 181.16 107.42 181.16 109.14 181.63 109.14 181.63 108.52 182.85 108.52 182.85 108.91 183.32 108.91 183.32 107.65 182.85 107.65 182.85 108.04 181.63 108.04 181.63 107.42"/>
      <polygon class="cls-4" points="181.63 105.69 181.16 105.69 181.16 107.42 181.63 107.42 181.63 106.79 182.85 106.79 182.85 107.19 183.32 107.19 183.32 105.92 182.85 105.92 182.85 106.32 181.63 106.32 181.63 105.69"/>
      <polygon class="cls-4" points="181.63 103.97 181.16 103.97 181.16 105.69 181.63 105.69 181.63 105.07 182.85 105.07 182.85 105.46 183.32 105.46 183.32 104.2 182.85 104.2 182.85 104.59 181.63 104.59 181.63 103.97"/>
      <polygon class="cls-4" points="181.63 102.24 181.16 102.24 181.16 103.97 181.63 103.97 181.63 103.34 182.85 103.34 182.85 103.74 183.32 103.74 183.32 102.47 182.85 102.47 182.85 102.87 181.63 102.87 181.63 102.24"/>
      <polygon class="cls-4" points="181.63 100.52 181.16 100.52 181.16 102.24 181.63 102.24 181.63 101.62 182.85 101.62 182.85 102.01 183.32 102.01 183.32 100.75 182.85 100.75 182.85 101.14 181.63 101.14 181.63 100.52"/>
      <polygon class="cls-4" points="181.63 98.79 181.16 98.79 181.16 100.52 181.63 100.52 181.63 99.89 182.85 99.89 182.85 100.29 183.32 100.29 183.32 99.02 182.85 99.02 182.85 99.42 181.63 99.42 181.63 98.79"/>
      <polygon class="cls-4" points="181.63 97.07 181.16 97.07 181.16 98.79 181.63 98.79 181.63 98.17 182.85 98.17 182.85 98.56 183.32 98.56 183.32 97.3 182.85 97.3 182.85 97.69 181.63 97.69 181.63 97.07"/>
      <polygon class="cls-4" points="181.63 95.34 181.16 95.34 181.16 97.07 181.63 97.07 181.63 96.44 182.85 96.44 182.85 96.84 183.32 96.84 183.32 95.57 182.85 95.57 182.85 95.97 181.63 95.97 181.63 95.34"/>
      <polygon class="cls-4" points="181.63 93.62 181.16 93.62 181.16 95.34 181.63 95.34 181.63 94.72 182.85 94.72 182.85 95.11 183.32 95.11 183.32 93.85 182.85 93.85 182.85 94.24 181.63 94.24 181.63 93.62"/>
      <polygon class="cls-4" points="181.63 91.89 181.16 91.89 181.16 93.62 181.63 93.62 181.63 92.99 182.85 92.99 182.85 93.39 183.32 93.39 183.32 92.12 182.85 92.12 182.85 92.52 181.63 92.52 181.63 91.89"/>
      <polygon class="cls-4" points="181.63 90.17 181.16 90.17 181.16 91.89 181.63 91.89 181.63 91.27 182.85 91.27 182.85 91.66 183.32 91.66 183.32 90.4 182.85 90.4 182.85 90.79 181.63 90.79 181.63 90.17"/>
      <polygon class="cls-4" points="181.63 88.44 181.16 88.44 181.16 90.17 181.63 90.17 181.63 89.54 182.85 89.54 182.85 89.94 183.32 89.94 183.32 88.67 182.85 88.67 182.85 89.07 181.63 89.07 181.63 88.44"/>
      <polygon class="cls-4" points="181.63 86.72 181.16 86.72 181.16 88.44 181.63 88.44 181.63 87.82 182.85 87.82 182.85 88.21 183.32 88.21 183.32 86.95 182.85 86.95 182.85 87.34 181.63 87.34 181.63 86.72"/>
      <polygon class="cls-4" points="181.63 84.99 181.16 84.99 181.16 86.72 181.63 86.72 181.63 86.09 182.85 86.09 182.85 86.49 183.32 86.49 183.32 85.22 182.85 85.22 182.85 85.62 181.63 85.62 181.63 84.99"/>
      <polygon class="cls-4" points="181.63 83.27 181.16 83.27 181.16 84.99 181.63 84.99 181.63 84.37 182.85 84.37 182.85 84.76 183.32 84.76 183.32 83.5 182.85 83.5 182.85 83.89 181.63 83.89 181.63 83.27"/>
      <polygon class="cls-4" points="181.63 81.54 181.16 81.54 181.16 83.27 181.63 83.27 181.63 82.64 182.85 82.64 182.85 83.04 183.32 83.04 183.32 81.77 182.85 81.77 182.85 82.17 181.63 82.17 181.63 81.54"/>
      <polygon class="cls-4" points="181.63 79.82 181.16 79.82 181.16 81.54 181.63 81.54 181.63 80.92 182.85 80.92 182.85 81.31 183.32 81.31 183.32 80.05 182.85 80.05 182.85 80.44 181.63 80.44 181.63 79.82"/>
      <polygon class="cls-4" points="181.63 78.09 181.16 78.09 181.16 79.82 181.63 79.82 181.63 79.19 182.85 79.19 182.85 79.59 183.32 79.59 183.32 78.32 182.85 78.32 182.85 78.72 181.63 78.72 181.63 78.09"/>
      <polygon class="cls-4" points="181.63 76.37 181.16 76.37 181.16 78.09 181.63 78.09 181.63 77.47 182.85 77.47 182.85 77.86 183.32 77.86 183.32 76.6 182.85 76.6 182.85 76.99 181.63 76.99 181.63 76.37"/>
      <polygon class="cls-4" points="181.63 74.64 181.16 74.64 181.16 76.37 181.63 76.37 181.63 75.74 182.85 75.74 182.85 76.14 183.32 76.14 183.32 74.87 182.85 74.87 182.85 75.27 181.63 75.27 181.63 74.64"/>
      <polygon class="cls-4" points="181.63 72.92 181.16 72.92 181.16 74.64 181.63 74.64 181.63 74.02 182.85 74.02 182.85 74.41 183.32 74.41 183.32 73.15 182.85 73.15 182.85 73.54 181.63 73.54 181.63 72.92"/>
      <polygon class="cls-4" points="181.63 71.19 181.16 71.19 181.16 72.92 181.63 72.92 181.63 72.29 182.85 72.29 182.85 72.69 183.32 72.69 183.32 71.42 182.85 71.42 182.85 71.82 181.63 71.82 181.63 71.19"/>
      <polygon class="cls-4" points="181.63 69.47 181.16 69.47 181.16 71.19 181.63 71.19 181.63 70.57 182.85 70.57 182.85 70.96 183.32 70.96 183.32 69.7 182.85 69.7 182.85 70.09 181.63 70.09 181.63 69.47"/>
      <polygon class="cls-4" points="181.63 67.74 181.16 67.74 181.16 69.47 181.63 69.47 181.63 68.84 182.85 68.84 182.85 69.24 183.32 69.24 183.32 67.97 182.85 67.97 182.85 68.37 181.63 68.37 181.63 67.74"/>
      <polygon class="cls-4" points="181.63 66.02 181.16 66.02 181.16 67.74 181.63 67.74 181.63 67.12 182.85 67.12 182.85 67.51 183.32 67.51 183.32 66.25 182.85 66.25 182.85 66.64 181.63 66.64 181.63 66.02"/>
      <polygon class="cls-4" points="181.63 64.29 181.16 64.29 181.16 66.02 181.63 66.02 181.63 65.39 182.85 65.39 182.85 65.79 183.32 65.79 183.32 64.52 182.85 64.52 182.85 64.92 181.63 64.92 181.63 64.29"/>
      <polygon class="cls-4" points="181.63 62.57 181.16 62.57 181.16 64.29 181.63 64.29 181.63 63.67 182.85 63.67 182.85 64.06 183.32 64.06 183.32 62.8 182.85 62.8 182.85 63.19 181.63 63.19 181.63 62.57"/>
      <polygon class="cls-4" points="181.63 60.84 181.16 60.84 181.16 62.57 181.63 62.57 181.63 61.94 182.85 61.94 182.85 62.33 183.32 62.33 183.32 61.07 182.85 61.07 182.85 61.47 181.63 61.47 181.63 60.84"/>
      <polygon class="cls-4" points="181.63 59.12 181.16 59.12 181.16 60.84 181.63 60.84 181.63 60.22 182.85 60.22 182.85 60.61 183.32 60.61 183.32 59.35 182.85 59.35 182.85 59.74 181.63 59.74 181.63 59.12"/>
      <polygon class="cls-4" points="181.63 57.39 181.16 57.39 181.16 59.12 181.63 59.12 181.63 58.49 182.85 58.49 182.85 58.88 183.32 58.88 183.32 57.62 182.85 57.62 182.85 58.02 181.63 58.02 181.63 57.39"/>
      <polygon class="cls-4" points="181.63 55.67 181.16 55.67 181.16 57.39 181.63 57.39 181.63 56.77 182.85 56.77 182.85 57.16 183.32 57.16 183.32 55.9 182.85 55.9 182.85 56.29 181.63 56.29 181.63 55.67"/>
      <polygon class="cls-4" points="181.63 53.94 181.16 53.94 181.16 55.67 181.63 55.67 181.63 55.04 182.85 55.04 182.85 55.43 183.32 55.43 183.32 54.17 182.85 54.17 182.85 54.57 181.63 54.57 181.63 53.94"/>
      <polygon class="cls-4" points="181.63 52.22 181.16 52.22 181.16 53.94 181.63 53.94 181.63 53.32 182.85 53.32 182.85 53.71 183.32 53.71 183.32 52.45 182.85 52.45 182.85 52.84 181.63 52.84 181.63 52.22"/>
      <polygon class="cls-4" points="181.63 50.49 181.16 50.49 181.16 52.22 181.63 52.22 181.63 51.59 182.85 51.59 182.85 51.98 183.32 51.98 183.32 50.72 182.85 50.72 182.85 51.12 181.63 51.12 181.63 50.49"/>
      <polygon class="cls-4" points="181.63 48.77 181.16 48.77 181.16 50.49 181.63 50.49 181.63 49.86 182.85 49.86 182.85 50.26 183.32 50.26 183.32 49 182.85 49 182.85 49.39 181.63 49.39 181.63 48.77"/>
      <polygon class="cls-4" points="181.63 47.04 181.16 47.04 181.16 48.77 181.63 48.77 181.63 48.14 182.85 48.14 182.85 48.53 183.32 48.53 183.32 47.27 182.85 47.27 182.85 47.67 181.63 47.67 181.63 47.04"/>
      <polygon class="cls-4" points="181.63 45.32 181.16 45.32 181.16 47.04 181.63 47.04 181.63 46.41 182.85 46.41 182.85 46.81 183.32 46.81 183.32 45.55 182.85 45.55 182.85 45.94 181.63 45.94 181.63 45.32"/>
      <polygon class="cls-4" points="181.63 43.59 181.16 43.59 181.16 45.32 181.63 45.32 181.63 44.69 182.85 44.69 182.85 45.08 183.32 45.08 183.32 43.82 182.85 43.82 182.85 44.22 181.63 44.22 181.63 43.59"/>
      <polygon class="cls-4" points="181.63 41.87 181.16 41.87 181.16 43.59 181.63 43.59 181.63 42.96 182.85 42.96 182.85 43.36 183.32 43.36 183.32 42.1 182.85 42.1 182.85 42.49 181.63 42.49 181.63 41.87"/>
      <polygon class="cls-4" points="181.63 40.14 181.16 40.14 181.16 41.87 181.63 41.87 181.63 41.24 182.85 41.24 182.85 41.63 183.32 41.63 183.32 40.37 182.85 40.37 182.85 40.77 181.63 40.77 181.63 40.14"/>
      <polygon class="cls-4" points="181.63 38.42 181.16 38.42 181.16 40.14 181.63 40.14 181.63 39.51 182.85 39.51 182.85 39.91 183.32 39.91 183.32 38.65 182.85 38.65 182.85 39.04 181.63 39.04 181.63 38.42"/>
      <polygon class="cls-4" points="181.63 36.69 181.16 36.69 181.16 38.42 181.63 38.42 181.63 37.79 182.85 37.79 182.85 38.18 183.32 38.18 183.32 36.92 182.85 36.92 182.85 37.32 181.63 37.32 181.63 36.69"/>
      <polygon class="cls-4" points="181.63 34.97 181.16 34.97 181.16 36.69 181.63 36.69 181.63 36.06 182.85 36.06 182.85 36.46 183.32 36.46 183.32 35.2 182.85 35.2 182.85 35.59 181.63 35.59 181.63 34.97"/>
      <polygon class="cls-4" points="181.63 33.24 181.16 33.24 181.16 34.97 181.63 34.97 181.63 34.34 182.85 34.34 182.85 34.73 183.32 34.73 183.32 33.47 182.85 33.47 182.85 33.87 181.63 33.87 181.63 33.24"/>
      <polygon class="cls-4" points="181.63 31.52 181.16 31.52 181.16 33.24 181.63 33.24 181.63 32.61 182.85 32.61 182.85 33.01 183.32 33.01 183.32 31.75 182.85 31.75 182.85 32.14 181.63 32.14 181.63 31.52"/>
      <polygon class="cls-4" points="181.63 29.79 181.16 29.79 181.16 31.52 181.63 31.52 181.63 30.89 182.85 30.89 182.85 31.28 183.32 31.28 183.32 30.02 182.85 30.02 182.85 30.42 181.63 30.42 181.63 29.79"/>
      <polygon class="cls-4" points="181.63 28.07 181.16 28.07 181.16 29.79 181.63 29.79 181.63 29.16 182.85 29.16 182.85 29.56 183.32 29.56 183.32 28.3 182.85 28.3 182.85 28.69 181.63 28.69 181.63 28.07"/>
      <polygon class="cls-4" points="181.63 26.34 181.16 26.34 181.16 28.07 181.63 28.07 181.63 27.44 182.85 27.44 182.85 27.83 183.32 27.83 183.32 26.57 182.85 26.57 182.85 26.97 181.63 26.97 181.63 26.34"/>
      <polygon class="cls-4" points="181.63 24.62 181.16 24.62 181.16 26.34 181.63 26.34 181.63 25.71 182.85 25.71 182.85 26.11 183.32 26.11 183.32 24.85 182.85 24.85 182.85 25.24 181.63 25.24 181.63 24.62"/>
      <polygon class="cls-4" points="181.63 22.89 181.16 22.89 181.16 24.62 181.63 24.62 181.63 23.99 182.85 23.99 182.85 24.38 183.32 24.38 183.32 23.12 182.85 23.12 182.85 23.52 181.63 23.52 181.63 22.89"/>
      <polygon class="cls-4" points="181.63 21.17 181.16 21.17 181.16 22.89 181.63 22.89 181.63 22.26 182.85 22.26 182.85 22.66 183.32 22.66 183.32 21.4 182.85 21.4 182.85 21.79 181.63 21.79 181.63 21.17"/>
      <polygon class="cls-4" points="181.63 19.44 181.16 19.44 181.16 21.17 181.63 21.17 181.63 20.54 182.85 20.54 182.85 20.93 183.32 20.93 183.32 19.67 182.85 19.67 182.85 20.07 181.63 20.07 181.63 19.44"/>
      <polygon class="cls-4" points="181.63 17.72 181.16 17.72 181.16 19.44 181.63 19.44 181.63 18.81 182.85 18.81 182.85 19.21 183.32 19.21 183.32 17.95 182.85 17.95 182.85 18.34 181.63 18.34 181.63 17.72"/>
      <polygon class="cls-4" points="181.63 15.99 181.16 15.99 181.16 17.72 181.63 17.72 181.63 17.09 182.85 17.09 182.85 17.48 183.32 17.48 183.32 16.22 182.85 16.22 182.85 16.62 181.63 16.62 181.63 15.99"/>
      <polygon class="cls-4" points="181.63 14.27 181.16 14.27 181.16 15.99 181.63 15.99 181.63 15.36 182.85 15.36 182.85 15.76 183.32 15.76 183.32 14.5 182.85 14.5 182.85 14.89 181.63 14.89 181.63 14.27"/>
      <polygon class="cls-4" points="181.63 12.54 181.16 12.54 181.16 14.27 181.63 14.27 181.63 13.64 182.85 13.64 182.85 14.03 183.32 14.03 183.32 12.77 182.85 12.77 182.85 13.17 181.63 13.17 181.63 12.54"/>
      <polygon class="cls-4" points="181.63 10.82 181.16 10.82 181.16 12.54 181.63 12.54 181.63 11.91 182.85 11.91 182.85 12.31 183.32 12.31 183.32 11.05 182.85 11.05 182.85 11.44 181.63 11.44 181.63 10.82"/>
      <polygon class="cls-4" points="181.63 9.09 181.16 9.09 181.16 10.82 181.63 10.82 181.63 10.19 182.85 10.19 182.85 10.58 183.32 10.58 183.32 9.32 182.85 9.32 182.85 9.72 181.63 9.72 181.63 9.09"/>
      <polygon class="cls-4" points="181.63 7.37 181.16 7.37 181.16 9.09 181.63 9.09 181.63 8.46 182.85 8.46 182.85 8.86 183.32 8.86 183.32 7.6 182.85 7.6 182.85 7.99 181.63 7.99 181.63 7.37"/>
      <polygon class="cls-4" points="181.63 5.64 181.16 5.64 181.16 7.37 181.63 7.37 181.63 6.74 182.85 6.74 182.85 7.13 183.32 7.13 183.32 5.87 182.85 5.87 182.85 6.27 181.63 6.27 181.63 5.64"/>
      <polygon class="cls-4" points="181.63 3.92 181.16 3.92 181.16 5.64 181.63 5.64 181.63 5.01 182.85 5.01 182.85 5.41 183.32 5.41 183.32 4.15 182.85 4.15 182.85 4.54 181.63 4.54 181.63 3.92"/>
      <polygon class="cls-4" points="181.63 2.19 181.16 2.19 181.16 3.92 181.63 3.92 181.63 3.29 182.85 3.29 182.85 3.68 183.32 3.68 183.32 2.42 182.85 2.42 182.85 2.82 181.63 2.82 181.63 2.19"/>
      <polygon class="cls-4" points="179.42 1.72 179.42 2.19 181.16 2.19 181.16 1.72 180.52 1.72 180.52 .5 180.92 .5 180.92 .03 179.65 .03 179.65 .5 180.05 .5 180.05 1.72 179.42 1.72"/>
      <polygon class="cls-4" points="177.68 1.72 177.68 2.19 179.42 2.19 179.42 1.72 178.78 1.72 178.78 .5 179.18 .5 179.18 .03 177.91 .03 177.91 .5 178.31 .5 178.31 1.72 177.68 1.72"/>
      <polygon class="cls-4" points="175.94 1.72 175.94 2.19 177.68 2.19 177.68 1.72 177.05 1.72 177.05 .5 177.45 .5 177.45 .03 176.17 .03 176.17 .5 176.57 .5 176.57 1.72 175.94 1.72"/>
      <polygon class="cls-4" points="174.21 1.72 174.21 2.19 175.94 2.19 175.94 1.72 175.31 1.72 175.31 .5 175.71 .5 175.71 .03 174.44 .03 174.44 .5 174.83 .5 174.83 1.72 174.21 1.72"/>
      <polygon class="cls-4" points="172.47 1.72 172.47 2.19 174.21 2.19 174.21 1.72 173.57 1.72 173.57 .5 173.97 .5 173.97 .03 172.7 .03 172.7 .5 173.1 .5 173.1 1.72 172.47 1.72"/>
      <polygon class="cls-4" points="170.73 1.72 170.73 2.19 172.47 2.19 172.47 1.72 171.84 1.72 171.84 .5 172.23 .5 172.23 .03 170.96 .03 170.96 .5 171.36 .5 171.36 1.72 170.73 1.72"/>
      <polygon class="cls-4" points="168.99 1.72 168.99 2.19 170.73 2.19 170.73 1.72 170.1 1.72 170.1 .5 170.5 .5 170.5 .03 169.23 .03 169.23 .5 169.62 .5 169.62 1.72 168.99 1.72"/>
      <polygon class="cls-4" points="167.26 1.72 167.26 2.19 168.99 2.19 168.99 1.72 168.36 1.72 168.36 .5 168.76 .5 168.76 .03 167.49 .03 167.49 .5 167.89 .5 167.89 1.72 167.26 1.72"/>
      <polygon class="cls-4" points="165.52 1.72 165.52 2.19 167.26 2.19 167.26 1.72 166.62 1.72 166.62 .5 167.02 .5 167.02 .03 165.75 .03 165.75 .5 166.15 .5 166.15 1.72 165.52 1.72"/>
      <polygon class="cls-4" points="163.78 1.72 163.78 2.19 165.52 2.19 165.52 1.72 164.89 1.72 164.89 .5 165.28 .5 165.28 .03 164.01 .03 164.01 .5 164.41 .5 164.41 1.72 163.78 1.72"/>
      <polygon class="cls-4" points="162.04 1.72 162.04 2.19 163.78 2.19 163.78 1.72 163.15 1.72 163.15 .5 163.55 .5 163.55 .03 162.28 .03 162.28 .5 162.67 .5 162.67 1.72 162.04 1.72"/>
      <polygon class="cls-4" points="160.31 1.72 160.31 2.19 162.04 2.19 162.04 1.72 161.41 1.72 161.41 .5 161.81 .5 161.81 .03 160.54 .03 160.54 .5 160.94 .5 160.94 1.72 160.31 1.72"/>
      <polygon class="cls-4" points="158.57 1.72 158.57 2.19 160.31 2.19 160.31 1.72 159.67 1.72 159.67 .5 160.07 .5 160.07 .03 158.8 .03 158.8 .5 159.2 .5 159.2 1.72 158.57 1.72"/>
      <polygon class="cls-4" points="156.83 1.72 156.83 2.19 158.57 2.19 158.57 1.72 157.94 1.72 157.94 .5 158.33 .5 158.33 .03 157.06 .03 157.06 .5 157.46 .5 157.46 1.72 156.83 1.72"/>
      <polygon class="cls-4" points="155.1 1.72 155.1 2.19 156.83 2.19 156.83 1.72 156.2 1.72 156.2 .5 156.6 .5 156.6 .03 155.33 .03 155.33 .5 155.72 .5 155.72 1.72 155.1 1.72"/>
      <polygon class="cls-4" points="153.36 1.72 153.36 2.19 155.1 2.19 155.1 1.72 154.46 1.72 154.46 .5 154.86 .5 154.86 .03 153.59 .03 153.59 .5 153.99 .5 153.99 1.72 153.36 1.72"/>
      <polygon class="cls-4" points="151.62 1.72 151.62 2.19 153.36 2.19 153.36 1.72 152.72 1.72 152.72 .5 153.12 .5 153.12 .03 151.85 .03 151.85 .5 152.25 .5 152.25 1.72 151.62 1.72"/>
      <polygon class="cls-4" points="149.88 1.72 149.88 2.19 151.62 2.19 151.62 1.72 150.99 1.72 150.99 .5 151.38 .5 151.38 .03 150.11 .03 150.11 .5 150.51 .5 150.51 1.72 149.88 1.72"/>
      <polygon class="cls-4" points="148.15 1.72 148.15 2.19 149.88 2.19 149.88 1.72 149.25 1.72 149.25 .5 149.65 .5 149.65 .03 148.38 .03 148.38 .5 148.77 .5 148.77 1.72 148.15 1.72"/>
      <polygon class="cls-4" points="146.41 1.72 146.41 2.19 148.15 2.19 148.15 1.72 147.51 1.72 147.51 .5 147.91 .5 147.91 .03 146.64 .03 146.64 .5 147.04 .5 147.04 1.72 146.41 1.72"/>
      <polygon class="cls-4" points="144.67 1.72 144.67 2.19 146.41 2.19 146.41 1.72 145.78 1.72 145.78 .5 146.17 .5 146.17 .03 144.9 .03 144.9 .5 145.3 .5 145.3 1.72 144.67 1.72"/>
      <polygon class="cls-4" points="142.93 1.72 142.93 2.19 144.67 2.19 144.67 1.72 144.04 1.72 144.04 .5 144.44 .5 144.44 .03 143.16 .03 143.16 .5 143.56 .5 143.56 1.72 142.93 1.72"/>
      <polygon class="cls-4" points="141.2 1.72 141.2 2.19 142.93 2.19 142.93 1.72 142.3 1.72 142.3 .5 142.7 .5 142.7 .03 141.43 .03 141.43 .5 141.83 .5 141.83 1.72 141.2 1.72"/>
      <polygon class="cls-4" points="139.46 1.72 139.46 2.19 141.2 2.19 141.2 1.72 140.56 1.72 140.56 .5 140.96 .5 140.96 .03 139.69 .03 139.69 .5 140.09 .5 140.09 1.72 139.46 1.72"/>
      <polygon class="cls-4" points="137.72 1.72 137.72 2.19 139.46 2.19 139.46 1.72 138.83 1.72 138.83 .5 139.22 .5 139.22 .03 137.95 .03 137.95 .5 138.35 .5 138.35 1.72 137.72 1.72"/>
      <polygon class="cls-4" points="135.98 1.72 135.98 2.19 137.72 2.19 137.72 1.72 137.09 1.72 137.09 .5 137.49 .5 137.49 .03 136.22 .03 136.22 .5 136.61 .5 136.61 1.72 135.98 1.72"/>
      <polygon class="cls-4" points="134.25 1.72 134.25 2.19 135.98 2.19 135.98 1.72 135.35 1.72 135.35 .5 135.75 .5 135.75 .03 134.48 .03 134.48 .5 134.88 .5 134.88 1.72 134.25 1.72"/>
      <polygon class="cls-4" points="132.51 1.72 132.51 2.19 134.25 2.19 134.25 1.72 133.61 1.72 133.61 .5 134.01 .5 134.01 .03 132.74 .03 132.74 .5 133.14 .5 133.14 1.72 132.51 1.72"/>
      <polygon class="cls-4" points="130.77 1.72 130.77 2.19 132.51 2.19 132.51 1.72 131.88 1.72 131.88 .5 132.27 .5 132.27 .03 131 .03 131 .5 131.4 .5 131.4 1.72 130.77 1.72"/>
      <polygon class="cls-4" points="129.04 1.72 129.04 2.19 130.77 2.19 130.77 1.72 130.14 1.72 130.14 .5 130.54 .5 130.54 .03 129.27 .03 129.27 .5 129.66 .5 129.66 1.72 129.04 1.72"/>
      <polygon class="cls-4" points="127.3 1.72 127.3 2.19 129.04 2.19 129.04 1.72 128.4 1.72 128.4 .5 128.8 .5 128.8 .03 127.53 .03 127.53 .5 127.93 .5 127.93 1.72 127.3 1.72"/>
      <polygon class="cls-4" points="125.56 1.72 125.56 2.19 127.3 2.19 127.3 1.72 126.66 1.72 126.66 .5 127.06 .5 127.06 .03 125.79 .03 125.79 .5 126.19 .5 126.19 1.72 125.56 1.72"/>
      <polygon class="cls-4" points="123.82 1.72 123.82 2.19 125.56 2.19 125.56 1.72 124.93 1.72 124.93 .5 125.32 .5 125.32 .03 124.05 .03 124.05 .5 124.45 .5 124.45 1.72 123.82 1.72"/>
      <polygon class="cls-4" points="122.09 1.72 122.09 2.19 123.82 2.19 123.82 1.72 123.19 1.72 123.19 .5 123.59 .5 123.59 .03 122.32 .03 122.32 .5 122.71 .5 122.71 1.72 122.09 1.72"/>
      <polygon class="cls-4" points="120.35 1.72 120.35 2.19 122.09 2.19 122.09 1.72 121.45 1.72 121.45 .5 121.85 .5 121.85 .03 120.58 .03 120.58 .5 120.98 .5 120.98 1.72 120.35 1.72"/>
      <polygon class="cls-4" points="118.61 1.72 118.61 2.19 120.35 2.19 120.35 1.72 119.71 1.72 119.71 .5 120.11 .5 120.11 .03 118.84 .03 118.84 .5 119.24 .5 119.24 1.72 118.61 1.72"/>
      <polygon class="cls-4" points="116.87 1.72 116.87 2.19 118.61 2.19 118.61 1.72 117.98 1.72 117.98 .5 118.37 .5 118.37 .03 117.1 .03 117.1 .5 117.5 .5 117.5 1.72 116.87 1.72"/>
      <polygon class="cls-4" points="115.14 1.72 115.14 2.19 116.87 2.19 116.87 1.72 116.24 1.72 116.24 .5 116.64 .5 116.64 .03 115.37 .03 115.37 .5 115.76 .5 115.76 1.72 115.14 1.72"/>
      <polygon class="cls-4" points="113.4 1.72 113.4 2.19 115.14 2.19 115.14 1.72 114.5 1.72 114.5 .5 114.9 .5 114.9 .03 113.63 .03 113.63 .5 114.03 .5 114.03 1.72 113.4 1.72"/>
      <polygon class="cls-4" points="111.66 1.72 111.66 2.19 113.4 2.19 113.4 1.72 112.77 1.72 112.77 .5 113.16 .5 113.16 .03 111.89 .03 111.89 .5 112.29 .5 112.29 1.72 111.66 1.72"/>
      <polygon class="cls-4" points="109.92 1.72 109.92 2.19 111.66 2.19 111.66 1.72 111.03 1.72 111.03 .5 111.43 .5 111.43 .03 110.16 .03 110.16 .5 110.55 .5 110.55 1.72 109.92 1.72"/>
      <polygon class="cls-4" points="108.19 1.72 108.19 2.19 109.92 2.19 109.92 1.72 109.29 1.72 109.29 .5 109.69 .5 109.69 .03 108.42 .03 108.42 .5 108.82 .5 108.82 1.72 108.19 1.72"/>
      <polygon class="cls-4" points="106.45 1.72 106.45 2.19 108.19 2.19 108.19 1.72 107.55 1.72 107.55 .5 107.95 .5 107.95 .03 106.68 .03 106.68 .5 107.08 .5 107.08 1.72 106.45 1.72"/>
      <polygon class="cls-4" points="104.71 1.72 104.71 2.19 106.45 2.19 106.45 1.72 105.82 1.72 105.82 .5 106.21 .5 106.21 .03 104.94 .03 104.94 .5 105.34 .5 105.34 1.72 104.71 1.72"/>
      <polygon class="cls-4" points="102.97 1.72 102.97 2.19 104.71 2.19 104.71 1.72 104.08 1.72 104.08 .5 104.48 .5 104.48 .03 103.21 .03 103.21 .5 103.6 .5 103.6 1.72 102.97 1.72"/>
      <polygon class="cls-4" points="101.24 1.72 101.24 2.19 102.97 2.19 102.97 1.72 102.34 1.72 102.34 .5 102.74 .5 102.74 .03 101.47 .03 101.47 .5 101.87 .5 101.87 1.72 101.24 1.72"/>
      <polygon class="cls-4" points="99.5 1.72 99.5 2.19 101.24 2.19 101.24 1.72 100.6 1.72 100.6 .5 101 .5 101 .03 99.73 .03 99.73 .5 100.13 .5 100.13 1.72 99.5 1.72"/>
      <polygon class="cls-4" points="97.76 1.72 97.76 2.19 99.5 2.19 99.5 1.72 98.87 1.72 98.87 .5 99.26 .5 99.26 .03 97.99 .03 97.99 .5 98.39 .5 98.39 1.72 97.76 1.72"/>
      <polygon class="cls-4" points="96.03 1.72 96.03 2.19 97.76 2.19 97.76 1.72 97.13 1.72 97.13 .5 97.53 .5 97.53 .03 96.26 .03 96.26 .5 96.65 .5 96.65 1.72 96.03 1.72"/>
      <polygon class="cls-4" points="94.29 1.72 94.29 2.19 96.03 2.19 96.03 1.72 95.39 1.72 95.39 .5 95.79 .5 95.79 .03 94.52 .03 94.52 .5 94.92 .5 94.92 1.72 94.29 1.72"/>
      <polygon class="cls-4" points="92.55 1.72 92.55 2.19 94.29 2.19 94.29 1.72 93.65 1.72 93.65 .5 94.05 .5 94.05 .03 92.78 .03 92.78 .5 93.18 .5 93.18 1.72 92.55 1.72"/>
      <polygon class="cls-4" points="90.81 1.72 90.81 2.19 92.55 2.19 92.55 1.72 91.92 1.72 91.92 .5 92.31 .5 92.31 .03 91.04 .03 91.04 .5 91.44 .5 91.44 1.72 90.81 1.72"/>
      <polygon class="cls-4" points="89.08 1.72 89.08 2.19 90.81 2.19 90.81 1.72 90.18 1.72 90.18 .5 90.58 .5 90.58 .03 89.31 .03 89.31 .5 89.7 .5 89.7 1.72 89.08 1.72"/>
      <polygon class="cls-4" points="87.34 1.72 87.34 2.19 89.08 2.19 89.08 1.72 88.44 1.72 88.44 .5 88.84 .5 88.84 .03 87.57 .03 87.57 .5 87.97 .5 87.97 1.72 87.34 1.72"/>
      <polygon class="cls-4" points="85.6 1.72 85.6 2.19 87.34 2.19 87.34 1.72 86.7 1.72 86.7 .5 87.1 .5 87.1 .03 85.83 .03 85.83 .5 86.23 .5 86.23 1.72 85.6 1.72"/>
      <polygon class="cls-4" points="83.86 1.72 83.86 2.19 85.6 2.19 85.6 1.72 84.97 1.72 84.97 .5 85.37 .5 85.37 .03 84.09 .03 84.09 .5 84.49 .5 84.49 1.72 83.86 1.72"/>
      <polygon class="cls-4" points="82.13 1.72 82.13 2.19 83.86 2.19 83.86 1.72 83.23 1.72 83.23 .5 83.63 .5 83.63 .03 82.36 .03 82.36 .5 82.75 .5 82.75 1.72 82.13 1.72"/>
      <polygon class="cls-4" points="80.39 1.72 80.39 2.19 82.13 2.19 82.13 1.72 81.49 1.72 81.49 .5 81.89 .5 81.89 .03 80.62 .03 80.62 .5 81.02 .5 81.02 1.72 80.39 1.72"/>
      <polygon class="cls-4" points="78.65 1.72 78.65 2.19 80.39 2.19 80.39 1.72 79.76 1.72 79.76 .5 80.15 .5 80.15 .03 78.88 .03 78.88 .5 79.28 .5 79.28 1.72 78.65 1.72"/>
      <polygon class="cls-4" points="76.91 1.72 76.91 2.19 78.65 2.19 78.65 1.72 78.02 1.72 78.02 .5 78.42 .5 78.42 .03 77.15 .03 77.15 .5 77.54 .5 77.54 1.72 76.91 1.72"/>
      <polygon class="cls-4" points="75.18 1.72 75.18 2.19 76.91 2.19 76.91 1.72 76.28 1.72 76.28 .5 76.68 .5 76.68 .03 75.41 .03 75.41 .5 75.81 .5 75.81 1.72 75.18 1.72"/>
      <polygon class="cls-4" points="73.44 1.72 73.44 2.19 75.18 2.19 75.18 1.72 74.54 1.72 74.54 .5 74.94 .5 74.94 .03 73.67 .03 73.67 .5 74.07 .5 74.07 1.72 73.44 1.72"/>
      <polygon class="cls-4" points="71.7 1.72 71.7 2.19 73.44 2.19 73.44 1.72 72.81 1.72 72.81 .5 73.2 .5 73.2 .03 71.93 .03 71.93 .5 72.33 .5 72.33 1.72 71.7 1.72"/>
      <polygon class="cls-4" points="69.96 1.72 69.96 2.19 71.7 2.19 71.7 1.72 71.07 1.72 71.07 .5 71.47 .5 71.47 .03 70.2 .03 70.2 .5 70.59 .5 70.59 1.72 69.96 1.72"/>
      <polygon class="cls-4" points="68.23 1.72 68.23 2.19 69.96 2.19 69.96 1.72 69.33 1.72 69.33 .5 69.73 .5 69.73 .03 68.46 .03 68.46 .5 68.86 .5 68.86 1.72 68.23 1.72"/>
      <polygon class="cls-4" points="66.49 1.72 66.49 2.19 68.23 2.19 68.23 1.72 67.59 1.72 67.59 .5 67.99 .5 67.99 .03 66.72 .03 66.72 .5 67.12 .5 67.12 1.72 66.49 1.72"/>
      <polygon class="cls-4" points="64.75 1.72 64.75 2.19 66.49 2.19 66.49 1.72 65.86 1.72 65.86 .5 66.25 .5 66.25 .03 64.98 .03 64.98 .5 65.38 .5 65.38 1.72 64.75 1.72"/>
      <polygon class="cls-4" points="63.02 1.72 63.02 2.19 64.75 2.19 64.75 1.72 64.12 1.72 64.12 .5 64.52 .5 64.52 .03 63.25 .03 63.25 .5 63.64 .5 63.64 1.72 63.02 1.72"/>
      <polygon class="cls-4" points="61.28 1.72 61.28 2.19 63.02 2.19 63.02 1.72 62.38 1.72 62.38 .5 62.78 .5 62.78 .03 61.51 .03 61.51 .5 61.91 .5 61.91 1.72 61.28 1.72"/>
      <polygon class="cls-4" points="59.54 1.72 59.54 2.19 61.28 2.19 61.28 1.72 60.64 1.72 60.64 .5 61.04 .5 61.04 .03 59.77 .03 59.77 .5 60.17 .5 60.17 1.72 59.54 1.72"/>
      <polygon class="cls-4" points="57.8 1.72 57.8 2.19 59.54 2.19 59.54 1.72 58.91 1.72 58.91 .5 59.3 .5 59.3 .03 58.03 .03 58.03 .5 58.43 .5 58.43 1.72 57.8 1.72"/>
      <polygon class="cls-4" points="56.07 1.72 56.07 2.19 57.8 2.19 57.8 1.72 57.17 1.72 57.17 .5 57.57 .5 57.57 .03 56.3 .03 56.3 .5 56.69 .5 56.69 1.72 56.07 1.72"/>
      <polygon class="cls-4" points="54.33 1.72 54.33 2.19 56.07 2.19 56.07 1.72 55.43 1.72 55.43 .5 55.83 .5 55.83 .03 54.56 .03 54.56 .5 54.96 .5 54.96 1.72 54.33 1.72"/>
      <polygon class="cls-4" points="52.59 1.72 52.59 2.19 54.33 2.19 54.33 1.72 53.7 1.72 53.7 .5 54.09 .5 54.09 .03 52.82 .03 52.82 .5 53.22 .5 53.22 1.72 52.59 1.72"/>
      <polygon class="cls-4" points="50.85 1.72 50.85 2.19 52.59 2.19 52.59 1.72 51.96 1.72 51.96 .5 52.36 .5 52.36 .03 51.08 .03 51.08 .5 51.48 .5 51.48 1.72 50.85 1.72"/>
      <polygon class="cls-4" points="49.12 1.72 49.12 2.19 50.85 2.19 50.85 1.72 50.22 1.72 50.22 .5 50.62 .5 50.62 .03 49.35 .03 49.35 .5 49.75 .5 49.75 1.72 49.12 1.72"/>
      <polygon class="cls-4" points="47.38 1.72 47.38 2.19 49.12 2.19 49.12 1.72 48.48 1.72 48.48 .5 48.88 .5 48.88 .03 47.61 .03 47.61 .5 48.01 .5 48.01 1.72 47.38 1.72"/>
      <polygon class="cls-4" points="45.64 1.72 45.64 2.19 47.38 2.19 47.38 1.72 46.75 1.72 46.75 .5 47.14 .5 47.14 .03 45.87 .03 45.87 .5 46.27 .5 46.27 1.72 45.64 1.72"/>
      <polygon class="cls-4" points="43.9 1.72 43.9 2.19 45.64 2.19 45.64 1.72 45.01 1.72 45.01 .5 45.41 .5 45.41 .03 44.14 .03 44.14 .5 44.53 .5 44.53 1.72 43.9 1.72"/>
      <polygon class="cls-4" points="42.17 1.72 42.17 2.19 43.9 2.19 43.9 1.72 43.27 1.72 43.27 .5 43.67 .5 43.67 .03 42.4 .03 42.4 .5 42.8 .5 42.8 1.72 42.17 1.72"/>
      <polygon class="cls-4" points="40.43 1.72 40.43 2.19 42.17 2.19 42.17 1.72 41.53 1.72 41.53 .5 41.93 .5 41.93 .03 40.66 .03 40.66 .5 41.06 .5 41.06 1.72 40.43 1.72"/>
      <polygon class="cls-4" points="38.69 1.72 38.69 2.19 40.43 2.19 40.43 1.72 39.8 1.72 39.8 .5 40.19 .5 40.19 .03 38.92 .03 38.92 .5 39.32 .5 39.32 1.72 38.69 1.72"/>
      <polygon class="cls-4" points="36.96 1.72 36.96 2.19 38.69 2.19 38.69 1.72 38.06 1.72 38.06 .5 38.46 .5 38.46 .03 37.19 .03 37.19 .5 37.58 .5 37.58 1.72 36.96 1.72"/>
      <polygon class="cls-4" points="35.22 1.72 35.22 2.19 36.96 2.19 36.96 1.72 36.32 1.72 36.32 .5 36.72 .5 36.72 .03 35.45 .03 35.45 .5 35.85 .5 35.85 1.72 35.22 1.72"/>
      <polygon class="cls-4" points="33.48 1.72 33.48 2.19 35.22 2.19 35.22 1.72 34.58 1.72 34.58 .5 34.98 .5 34.98 .03 33.71 .03 33.71 .5 34.11 .5 34.11 1.72 33.48 1.72"/>
      <polygon class="cls-4" points="31.74 1.72 31.74 2.19 33.48 2.19 33.48 1.72 32.85 1.72 32.85 .5 33.24 .5 33.24 .03 31.97 .03 31.97 .5 32.37 .5 32.37 1.72 31.74 1.72"/>
      <polygon class="cls-4" points="30.01 1.72 30.01 2.19 31.74 2.19 31.74 1.72 31.11 1.72 31.11 .5 31.51 .5 31.51 .03 30.24 .03 30.24 .5 30.63 .5 30.63 1.72 30.01 1.72"/>
      <polygon class="cls-4" points="28.27 1.72 28.27 2.19 30.01 2.19 30.01 1.72 29.37 1.72 29.37 .5 29.77 .5 29.77 .03 28.5 .03 28.5 .5 28.9 .5 28.9 1.72 28.27 1.72"/>
      <polygon class="cls-4" points="26.53 1.72 26.53 2.19 28.27 2.19 28.27 1.72 27.63 1.72 27.63 .5 28.03 .5 28.03 .03 26.76 .03 26.76 .5 27.16 .5 27.16 1.72 26.53 1.72"/>
      <polygon class="cls-4" points="24.79 1.72 24.79 2.19 26.53 2.19 26.53 1.72 25.9 1.72 25.9 .5 26.29 .5 26.29 .03 25.02 .03 25.02 .5 25.42 .5 25.42 1.72 24.79 1.72"/>
      <polygon class="cls-4" points="23.06 1.72 23.06 2.19 24.79 2.19 24.79 1.72 24.16 1.72 24.16 .5 24.56 .5 24.56 .03 23.29 .03 23.29 .5 23.68 .5 23.68 1.72 23.06 1.72"/>
      <polygon class="cls-4" points="21.32 1.72 21.32 2.19 23.06 2.19 23.06 1.72 22.42 1.72 22.42 .5 22.82 .5 22.82 .03 21.55 .03 21.55 .5 21.95 .5 21.95 1.72 21.32 1.72"/>
      <polygon class="cls-4" points="19.58 1.72 19.58 2.19 21.32 2.19 21.32 1.72 20.69 1.72 20.69 .5 21.08 .5 21.08 .03 19.81 .03 19.81 .5 20.21 .5 20.21 1.72 19.58 1.72"/>
      <polygon class="cls-4" points="17.84 1.72 17.84 2.19 19.58 2.19 19.58 1.72 18.95 1.72 18.95 .5 19.35 .5 19.35 .03 18.08 .03 18.08 .5 18.47 .5 18.47 1.72 17.84 1.72"/>
      <polygon class="cls-4" points="16.11 1.72 16.11 2.19 17.84 2.19 17.84 1.72 17.21 1.72 17.21 .5 17.61 .5 17.61 .03 16.34 .03 16.34 .5 16.74 .5 16.74 1.72 16.11 1.72"/>
      <polygon class="cls-4" points="14.37 1.72 14.37 2.19 16.11 2.19 16.11 1.72 15.47 1.72 15.47 .5 15.87 .5 15.87 .03 14.6 .03 14.6 .5 15 .5 15 1.72 14.37 1.72"/>
      <polygon class="cls-4" points="12.63 1.72 12.63 2.19 14.37 2.19 14.37 1.72 13.74 1.72 13.74 .5 14.13 .5 14.13 .03 12.86 .03 12.86 .5 13.26 .5 13.26 1.72 12.63 1.72"/>
      <polygon class="cls-4" points="10.89 1.72 10.89 2.19 12.63 2.19 12.63 1.72 12 1.72 12 .5 12.4 .5 12.4 .03 11.13 .03 11.13 .5 11.52 .5 11.52 1.72 10.89 1.72"/>
      <polygon class="cls-4" points="9.16 1.72 9.16 2.19 10.89 2.19 10.89 1.72 10.26 1.72 10.26 .5 10.66 .5 10.66 .03 9.39 .03 9.39 .5 9.79 .5 9.79 1.72 9.16 1.72"/>
      <polygon class="cls-4" points="7.42 1.72 7.42 2.19 9.16 2.19 9.16 1.72 8.52 1.72 8.52 .5 8.92 .5 8.92 .03 7.65 .03 7.65 .5 8.05 .5 8.05 1.72 7.42 1.72"/>
      <polygon class="cls-4" points="5.68 1.72 5.68 2.19 7.42 2.19 7.42 1.72 6.79 1.72 6.79 .5 7.18 .5 7.18 .03 5.91 .03 5.91 .5 6.31 .5 6.31 1.72 5.68 1.72"/>
      <polygon class="cls-4" points="3.95 1.72 3.95 2.19 5.68 2.19 5.68 1.72 5.05 1.72 5.05 .5 5.45 .5 5.45 .03 4.18 .03 4.18 .5 4.57 .5 4.57 1.72 3.95 1.72"/>
      <polygon class="cls-4" points="2.21 1.72 2.21 2.19 3.95 2.19 3.95 1.72 3.31 1.72 3.31 .5 3.71 .5 3.71 .03 2.44 .03 2.44 .5 2.84 .5 2.84 1.72 2.21 1.72"/>
      <polygon class="cls-4" points="1.73 3.93 2.21 3.93 2.21 2.19 1.73 2.19 1.73 2.83 .52 2.83 .52 2.43 .04 2.43 .04 3.7 .52 3.7 .52 3.3 1.73 3.3 1.73 3.93"/>
      <polygon class="cls-4" points="1.73 5.67 2.21 5.67 2.21 3.93 1.73 3.93 1.73 4.56 .52 4.56 .52 4.17 .04 4.17 .04 5.44 .52 5.44 .52 5.04 1.73 5.04 1.73 5.67"/>
      <polygon class="cls-4" points="1.73 7.4 2.21 7.4 2.21 5.67 1.73 5.67 1.73 6.3 .52 6.3 .52 5.9 .04 5.9 .04 7.17 .52 7.17 .52 6.77 1.73 6.77 1.73 7.4"/>
      <polygon class="cls-4" points="1.73 9.14 2.21 9.14 2.21 7.4 1.73 7.4 1.73 8.04 .52 8.04 .52 7.64 .04 7.64 .04 8.91 .52 8.91 .52 8.51 1.73 8.51 1.73 9.14"/>
      <polygon class="cls-4" points="1.73 10.87 2.21 10.87 2.21 9.14 1.73 9.14 1.73 9.77 .52 9.77 .52 9.37 .04 9.37 .04 10.64 .52 10.64 .52 10.25 1.73 10.25 1.73 10.87"/>
      <polygon class="cls-4" points="1.73 12.61 2.21 12.61 2.21 10.87 1.73 10.87 1.73 11.51 .52 11.51 .52 11.11 .04 11.11 .04 12.38 .52 12.38 .52 11.98 1.73 11.98 1.73 12.61"/>
      <polygon class="cls-4" points="1.73 14.35 2.21 14.35 2.21 12.61 1.73 12.61 1.73 13.24 .52 13.24 .52 12.85 .04 12.85 .04 14.12 .52 14.12 .52 13.72 1.73 13.72 1.73 14.35"/>
      <polygon class="cls-4" points="1.73 16.08 2.21 16.08 2.21 14.35 1.73 14.35 1.73 14.98 .52 14.98 .52 14.58 .04 14.58 .04 15.85 .52 15.85 .52 15.46 1.73 15.46 1.73 16.08"/>
      <polygon class="cls-4" points="1.73 17.82 2.21 17.82 2.21 16.08 1.73 16.08 1.73 16.72 .52 16.72 .52 16.32 .04 16.32 .04 17.59 .52 17.59 .52 17.19 1.73 17.19 1.73 17.82"/>
      <polygon class="cls-4" points="1.73 19.56 2.21 19.56 2.21 17.82 1.73 17.82 1.73 18.45 .52 18.45 .52 18.06 .04 18.06 .04 19.32 .52 19.32 .52 18.93 1.73 18.93 1.73 19.56"/>
      <polygon class="cls-4" points="1.73 21.29 2.21 21.29 2.21 19.56 1.73 19.56 1.73 20.19 .52 20.19 .52 19.79 .04 19.79 .04 21.06 .52 21.06 .52 20.66 1.73 20.66 1.73 21.29"/>
      <polygon class="cls-4" points="1.73 23.03 2.21 23.03 2.21 21.29 1.73 21.29 1.73 21.92 .52 21.92 .52 21.53 .04 21.53 .04 22.8 .52 22.8 .52 22.4 1.73 22.4 1.73 23.03"/>
      <polygon class="cls-4" points="1.73 24.76 2.21 24.76 2.21 23.03 1.73 23.03 1.73 23.66 .52 23.66 .52 23.26 .04 23.26 .04 24.53 .52 24.53 .52 24.14 1.73 24.14 1.73 24.76"/>
      <polygon class="cls-4" points="1.73 26.5 2.21 26.5 2.21 24.76 1.73 24.76 1.73 25.4 .52 25.4 .52 25 .04 25 .04 26.27 .52 26.27 .52 25.87 1.73 25.87 1.73 26.5"/>
      <polygon class="cls-4" points="1.73 28.24 2.21 28.24 2.21 26.5 1.73 26.5 1.73 27.13 .52 27.13 .52 26.74 .04 26.74 .04 28.01 .52 28.01 .52 27.61 1.73 27.61 1.73 28.24"/>
      <polygon class="cls-4" points="1.73 29.97 2.21 29.97 2.21 28.24 1.73 28.24 1.73 28.87 .52 28.87 .52 28.47 .04 28.47 .04 29.74 .52 29.74 .52 29.34 1.73 29.34 1.73 29.97"/>
      <polygon class="cls-4" points="1.73 31.71 2.21 31.71 2.21 29.97 1.73 29.97 1.73 30.61 .52 30.61 .52 30.21 .04 30.21 .04 31.48 .52 31.48 .52 31.08 1.73 31.08 1.73 31.71"/>
      <polygon class="cls-4" points="1.73 33.45 2.21 33.45 2.21 31.71 1.73 31.71 1.73 32.34 .52 32.34 .52 31.94 .04 31.94 .04 33.21 .52 33.21 .52 32.82 1.73 32.82 1.73 33.45"/>
      <polygon class="cls-4" points="1.73 35.18 2.21 35.18 2.21 33.45 1.73 33.45 1.73 34.08 .52 34.08 .52 33.68 .04 33.68 .04 34.95 .52 34.95 .52 34.55 1.73 34.55 1.73 35.18"/>
      <polygon class="cls-4" points="1.73 36.92 2.21 36.92 2.21 35.18 1.73 35.18 1.73 35.81 .52 35.81 .52 35.42 .04 35.42 .04 36.69 .52 36.69 .52 36.29 1.73 36.29 1.73 36.92"/>
      <polygon class="cls-4" points="1.73 38.65 2.21 38.65 2.21 36.92 1.73 36.92 1.73 37.55 .52 37.55 .52 37.15 .04 37.15 .04 38.42 .52 38.42 .52 38.03 1.73 38.03 1.73 38.65"/>
      <polygon class="cls-4" points="1.73 40.39 2.21 40.39 2.21 38.65 1.73 38.65 1.73 39.29 .52 39.29 .52 38.89 .04 38.89 .04 40.16 .52 40.16 .52 39.76 1.73 39.76 1.73 40.39"/>
      <polygon class="cls-4" points="1.73 42.13 2.21 42.13 2.21 40.39 1.73 40.39 1.73 41.02 .52 41.02 .52 40.63 .04 40.63 .04 41.9 .52 41.9 .52 41.5 1.73 41.5 1.73 42.13"/>
      <polygon class="cls-4" points="1.73 43.86 2.21 43.86 2.21 42.13 1.73 42.13 1.73 42.76 .52 42.76 .52 42.36 .04 42.36 .04 43.63 .52 43.63 .52 43.23 1.73 43.23 1.73 43.86"/>
      <polygon class="cls-4" points="1.73 45.6 2.21 45.6 2.21 43.86 1.73 43.86 1.73 44.5 .52 44.5 .52 44.1 .04 44.1 .04 45.37 .52 45.37 .52 44.97 1.73 44.97 1.73 45.6"/>
      <polygon class="cls-4" points="1.73 47.33 2.21 47.33 2.21 45.6 1.73 45.6 1.73 46.23 .52 46.23 .52 45.83 .04 45.83 .04 47.1 .52 47.1 .52 46.71 1.73 46.71 1.73 47.33"/>
      <polygon class="cls-4" points="1.73 49.07 2.21 49.07 2.21 47.33 1.73 47.33 1.73 47.97 .52 47.97 .52 47.57 .04 47.57 .04 48.84 .52 48.84 .52 48.44 1.73 48.44 1.73 49.07"/>
      <polygon class="cls-4" points="1.73 50.81 2.21 50.81 2.21 49.07 1.73 49.07 1.73 49.7 .52 49.7 .52 49.31 .04 49.31 .04 50.58 .52 50.58 .52 50.18 1.73 50.18 1.73 50.81"/>
      <polygon class="cls-4" points="1.73 52.54 2.21 52.54 2.21 50.81 1.73 50.81 1.73 51.44 .52 51.44 .52 51.04 .04 51.04 .04 52.31 .52 52.31 .52 51.92 1.73 51.92 1.73 52.54"/>
      <polygon class="cls-4" points="1.73 54.28 2.21 54.28 2.21 52.54 1.73 52.54 1.73 53.18 .52 53.18 .52 52.78 .04 52.78 .04 54.05 .52 54.05 .52 53.65 1.73 53.65 1.73 54.28"/>
      <polygon class="cls-4" points="1.73 56.02 2.21 56.02 2.21 54.28 1.73 54.28 1.73 54.91 .52 54.91 .52 54.52 .04 54.52 .04 55.79 .52 55.79 .52 55.39 1.73 55.39 1.73 56.02"/>
      <polygon class="cls-4" points="1.73 57.75 2.21 57.75 2.21 56.02 1.73 56.02 1.73 56.65 .52 56.65 .52 56.25 .04 56.25 .04 57.52 .52 57.52 .52 57.12 1.73 57.12 1.73 57.75"/>
      <polygon class="cls-4" points="1.73 59.49 2.21 59.49 2.21 57.75 1.73 57.75 1.73 58.39 .52 58.39 .52 57.99 .04 57.99 .04 59.26 .52 59.26 .52 58.86 1.73 58.86 1.73 59.49"/>
      <polygon class="cls-4" points="1.73 61.22 2.21 61.22 2.21 59.49 1.73 59.49 1.73 60.12 .52 60.12 .52 59.72 .04 59.72 .04 60.99 .52 60.99 .52 60.6 1.73 60.6 1.73 61.22"/>
      <polygon class="cls-4" points="1.73 62.96 2.21 62.96 2.21 61.22 1.73 61.22 1.73 61.86 .52 61.86 .52 61.46 .04 61.46 .04 62.73 .52 62.73 .52 62.33 1.73 62.33 1.73 62.96"/>
      <polygon class="cls-4" points="1.73 64.7 2.21 64.7 2.21 62.96 1.73 62.96 1.73 63.59 .52 63.59 .52 63.2 .04 63.2 .04 64.47 .52 64.47 .52 64.07 1.73 64.07 1.73 64.7"/>
      <polygon class="cls-4" points="1.73 66.43 2.21 66.43 2.21 64.7 1.73 64.7 1.73 65.33 .52 65.33 .52 64.93 .04 64.93 .04 66.2 .52 66.2 .52 65.81 1.73 65.81 1.73 66.43"/>
      <polygon class="cls-4" points="1.73 68.17 2.21 68.17 2.21 66.43 1.73 66.43 1.73 67.07 .52 67.07 .52 66.67 .04 66.67 .04 67.94 .52 67.94 .52 67.54 1.73 67.54 1.73 68.17"/>
      <polygon class="cls-4" points="1.73 69.91 2.21 69.91 2.21 68.17 1.73 68.17 1.73 68.8 .52 68.8 .52 68.41 .04 68.41 .04 69.67 .52 69.67 .52 69.28 1.73 69.28 1.73 69.91"/>
      <polygon class="cls-4" points="1.73 71.64 2.21 71.64 2.21 69.91 1.73 69.91 1.73 70.54 .52 70.54 .52 70.14 .04 70.14 .04 71.41 .52 71.41 .52 71.01 1.73 71.01 1.73 71.64"/>
      <polygon class="cls-4" points="1.73 73.38 2.21 73.38 2.21 71.64 1.73 71.64 1.73 72.27 .52 72.27 .52 71.88 .04 71.88 .04 73.15 .52 73.15 .52 72.75 1.73 72.75 1.73 73.38"/>
      <polygon class="cls-4" points="1.73 75.11 2.21 75.11 2.21 73.38 1.73 73.38 1.73 74.01 .52 74.01 .52 73.61 .04 73.61 .04 74.88 .52 74.88 .52 74.49 1.73 74.49 1.73 75.11"/>
      <polygon class="cls-4" points="1.73 76.85 2.21 76.85 2.21 75.11 1.73 75.11 1.73 75.75 .52 75.75 .52 75.35 .04 75.35 .04 76.62 .52 76.62 .52 76.22 1.73 76.22 1.73 76.85"/>
      <polygon class="cls-4" points="1.73 78.59 2.21 78.59 2.21 76.85 1.73 76.85 1.73 77.48 .52 77.48 .52 77.09 .04 77.09 .04 78.36 .52 78.36 .52 77.96 1.73 77.96 1.73 78.59"/>
      <polygon class="cls-4" points="1.73 80.32 2.21 80.32 2.21 78.59 1.73 78.59 1.73 79.22 .52 79.22 .52 78.82 .04 78.82 .04 80.09 .52 80.09 .52 79.69 1.73 79.69 1.73 80.32"/>
      <polygon class="cls-4" points="1.73 82.06 2.21 82.06 2.21 80.32 1.73 80.32 1.73 80.96 .52 80.96 .52 80.56 .04 80.56 .04 81.83 .52 81.83 .52 81.43 1.73 81.43 1.73 82.06"/>
      <polygon class="cls-4" points="1.73 83.8 2.21 83.8 2.21 82.06 1.73 82.06 1.73 82.69 .52 82.69 .52 82.29 .04 82.29 .04 83.56 .52 83.56 .52 83.17 1.73 83.17 1.73 83.8"/>
      <polygon class="cls-4" points="1.73 85.53 2.21 85.53 2.21 83.8 1.73 83.8 1.73 84.43 .52 84.43 .52 84.03 .04 84.03 .04 85.3 .52 85.3 .52 84.9 1.73 84.9 1.73 85.53"/>
      <polygon class="cls-4" points="1.73 87.27 2.21 87.27 2.21 85.53 1.73 85.53 1.73 86.16 .52 86.16 .52 85.77 .04 85.77 .04 87.04 .52 87.04 .52 86.64 1.73 86.64 1.73 87.27"/>
      <polygon class="cls-4" points="1.73 89 2.21 89 2.21 87.27 1.73 87.27 1.73 87.9 .52 87.9 .52 87.5 .04 87.5 .04 88.77 .52 88.77 .52 88.38 1.73 88.38 1.73 89"/>
      <polygon class="cls-4" points="1.73 90.74 2.21 90.74 2.21 89 1.73 89 1.73 89.64 .52 89.64 .52 89.24 .04 89.24 .04 90.51 .52 90.51 .52 90.11 1.73 90.11 1.73 90.74"/>
      <polygon class="cls-4" points="1.73 92.48 2.21 92.48 2.21 90.74 1.73 90.74 1.73 91.37 .52 91.37 .52 90.98 .04 90.98 .04 92.25 .52 92.25 .52 91.85 1.73 91.85 1.73 92.48"/>
      <polygon class="cls-4" points="1.73 94.21 2.21 94.21 2.21 92.48 1.73 92.48 1.73 93.11 .52 93.11 .52 92.71 .04 92.71 .04 93.98 .52 93.98 .52 93.58 1.73 93.58 1.73 94.21"/>
      <g class="cls-8">
        <polygon class="cls-4" points="183.8 148.37 183.94 147.92 181.16 147.1 181.02 147.55 182.04 147.85 181.69 149.02 181.05 148.83 180.92 149.28 182.95 149.89 183.09 149.43 182.45 149.24 182.8 148.07 183.8 148.37"/>
      </g>
      <g class="cls-6">
        <polygon class="cls-4" points="181.63 147.1 181.16 147.1 181.16 149.99 181.63 149.99 181.63 148.94 182.85 148.94 182.85 149.6 183.32 149.6 183.32 147.48 182.85 147.48 182.85 148.14 181.63 148.14 181.63 147.1"/>
      </g>
      <g class="cls-1">
        <polygon class="cls-4" points="181.63 .03 181.16 .03 181.16 2.19 181.63 2.19 181.63 1.4 182.85 1.4 182.85 1.9 183.32 1.9 183.32 .31 182.85 .31 182.85 .81 181.63 .81 181.63 .03"/>
      </g>
      <g class="cls-9">
        <polygon class="cls-4" points="181.16 1.72 181.16 2.19 183.32 2.19 183.32 1.72 182.53 1.72 182.53 .5 183.03 .5 183.03 .03 181.44 .03 181.44 .5 181.94 .5 181.94 1.72 181.16 1.72"/>
      </g>
      <g class="cls-7">
        <polygon class="cls-4" points=".04 1.72 .04 2.19 2.21 2.19 2.21 1.72 1.42 1.72 1.42 .5 1.91 .5 1.91 .03 .33 .03 .33 .5 .83 .5 .83 1.72 .04 1.72"/>
      </g>
      <g class="cls-10">
        <polygon class="cls-4" points="1.73 2.19 2.21 2.19 2.21 .03 1.73 .03 1.73 .82 .52 .82 .52 .32 .04 .32 .04 1.91 .52 1.91 .52 1.41 1.73 1.41 1.73 2.19"/>
      </g>
      <g class="cls-2">
        <polygon class="cls-4" points="1.73 95.83 2.21 95.83 2.21 94.21 1.73 94.21 1.73 94.8 .52 94.8 .52 94.43 .04 94.43 .04 95.62 .52 95.62 .52 95.25 1.73 95.25 1.73 95.83"/>
      </g>
      <g class="cls-5">
        <polygon class="cls-4" points="2.07 94.67 2.21 94.21 .66 93.75 .52 94.21 1.09 94.38 .74 95.54 .39 95.44 .25 95.89 1.39 96.23 1.52 95.77 1.17 95.67 1.51 94.5 2.07 94.67"/>
      </g>
    </g>
  </g>
</svg>