<?xml version="1.0" encoding="UTF-8"?>
<svg id="En_laptop_first_divider" data-name="En_laptop first divider" xmlns="http://www.w3.org/2000/svg" version="1.1" xmlns:xlink="http://www.w3.org/1999/xlink" viewBox="0 0 464.45 70.34">
  <defs>
    <style>
      .cls-1 {
        clip-path: url(#clippath-2);
      }

      .cls-2 {
        clip-path: url(#clippath-6);
      }

      .cls-3 {
        fill: none;
      }

      .cls-3, .cls-4 {
        stroke-width: 0px;
      }

      .cls-5 {
        clip-path: url(#clippath-7);
      }

      .cls-6 {
        clip-path: url(#clippath-1);
      }

      .cls-7 {
        clip-path: url(#clippath-4);
      }

      .cls-4 {
        fill: #fed700;
      }

      .cls-8 {
        clip-path: url(#clippath);
      }

      .cls-9 {
        clip-path: url(#clippath-3);
      }

      .cls-10 {
        clip-path: url(#clippath-5);
      }
    </style>
    <clipPath id="clippath">
      <polygon class="cls-3" points="459.31 66.42 462.92 70.36 459 70.02 459.31 66.42"/>
    </clipPath>
    <clipPath id="clippath-1">
      <polygon class="cls-3" points="459.31 66.42 462.92 70.36 462.92 66.42 459.31 66.42"/>
    </clipPath>
    <clipPath id="clippath-2">
      <polygon class="cls-3" points="459.31 3.68 462.92 .07 462.92 3.68 459.31 3.68"/>
    </clipPath>
    <clipPath id="clippath-3">
      <polygon class="cls-3" points="459.31 3.68 462.92 .07 459.31 .07 459.31 3.68"/>
    </clipPath>
    <clipPath id="clippath-4">
      <polygon class="cls-3" points="5.11 3.68 1.5 .07 5.11 .07 5.11 3.68"/>
    </clipPath>
    <clipPath id="clippath-5">
      <polygon class="cls-3" points="5.11 3.68 1.5 .07 1.5 3.68 5.11 3.68"/>
    </clipPath>
    <clipPath id="clippath-6">
      <polygon class="cls-3" points="5.11 27.57 1.5 30.89 1.5 27.57 5.11 27.57"/>
    </clipPath>
    <clipPath id="clippath-7">
      <polygon class="cls-3" points="5.11 27.57 1.5 30.89 4.8 31.17 5.11 27.57"/>
    </clipPath>
  </defs>
  <polygon class="cls-4" points="3.3 1.87 3.3 29.23 461.11 68.39 461.11 1.87 3.3 1.87"/>
  <g>
    <polygon class="cls-4" points="7.92 28.61 7.98 27.82 5.11 27.57 5.04 28.36 6.09 28.45 5.92 30.47 5.26 30.42 5.19 31.21 7.29 31.39 7.36 30.6 6.7 30.54 6.88 28.52 7.92 28.61"/>
    <polygon class="cls-4" points="10.79 28.85 10.86 28.07 7.98 27.82 7.92 28.61 8.96 28.7 8.79 30.72 8.13 30.66 8.07 31.45 10.17 31.63 10.24 30.84 9.58 30.79 9.75 28.76 10.79 28.85"/>
    <polygon class="cls-4" points="13.67 29.1 13.73 28.31 10.86 28.07 10.79 28.85 11.84 28.94 11.67 30.97 11.01 30.91 10.94 31.7 13.04 31.88 13.11 31.09 12.45 31.03 12.63 29.01 13.67 29.1"/>
    <polygon class="cls-4" points="16.54 29.34 16.61 28.56 13.73 28.31 13.67 29.1 14.71 29.19 14.54 31.21 13.88 31.16 13.82 31.94 15.92 32.12 15.98 31.34 15.33 31.28 15.5 29.26 16.54 29.34"/>
    <polygon class="cls-4" points="19.41 29.59 19.48 28.8 16.61 28.56 16.54 29.34 17.59 29.43 17.42 31.46 16.76 31.4 16.69 32.19 18.79 32.37 18.86 31.58 18.2 31.53 18.37 29.5 19.41 29.59"/>
    <polygon class="cls-4" points="22.29 29.84 22.36 29.05 19.48 28.8 19.41 29.59 20.46 29.68 20.29 31.7 19.63 31.65 19.56 32.43 21.67 32.61 21.73 31.83 21.08 31.77 21.25 29.75 22.29 29.84"/>
    <polygon class="cls-4" points="25.16 30.08 25.23 29.3 22.36 29.05 22.29 29.84 23.34 29.93 23.16 31.95 22.51 31.89 22.44 32.68 24.54 32.86 24.61 32.07 23.95 32.02 24.12 29.99 25.16 30.08"/>
    <polygon class="cls-4" points="28.04 30.33 28.11 29.54 25.23 29.3 25.16 30.08 26.21 30.17 26.04 32.2 25.38 32.14 25.31 32.93 27.42 33.11 27.48 32.32 26.83 32.26 27 30.24 28.04 30.33"/>
    <polygon class="cls-4" points="30.91 30.57 30.98 29.79 28.11 29.54 28.04 30.33 29.09 30.42 28.91 32.44 28.26 32.39 28.19 33.17 30.29 33.35 30.36 32.57 29.7 32.51 29.87 30.48 30.91 30.57"/>
    <polygon class="cls-4" points="33.79 30.82 33.86 30.03 30.98 29.79 30.91 30.57 31.96 30.66 31.79 32.69 31.13 32.63 31.06 33.42 33.17 33.6 33.23 32.81 32.57 32.76 32.75 30.73 33.79 30.82"/>
    <polygon class="cls-4" points="36.66 31.07 36.73 30.28 33.86 30.03 33.79 30.82 34.84 30.91 34.66 32.93 34.01 32.88 33.94 33.66 36.04 33.84 36.11 33.06 35.45 33 35.62 30.98 36.66 31.07"/>
    <polygon class="cls-4" points="39.54 31.31 39.6 30.52 36.73 30.28 36.66 31.07 37.71 31.16 37.54 33.18 36.88 33.12 36.81 33.91 38.91 34.09 38.98 33.3 38.32 33.25 38.5 31.22 39.54 31.31"/>
    <polygon class="cls-4" points="42.41 31.56 42.48 30.77 39.6 30.52 39.54 31.31 40.59 31.4 40.41 33.43 39.75 33.37 39.69 34.16 41.79 34.34 41.86 33.55 41.2 33.49 41.37 31.47 42.41 31.56"/>
    <polygon class="cls-4" points="45.29 31.8 45.35 31.02 42.48 30.77 42.41 31.56 43.46 31.65 43.29 33.67 42.63 33.62 42.56 34.4 44.66 34.58 44.73 33.79 44.07 33.74 44.25 31.71 45.29 31.8"/>
    <polygon class="cls-4" points="48.16 32.05 48.23 31.26 45.35 31.02 45.29 31.8 46.34 31.89 46.16 33.92 45.5 33.86 45.44 34.65 47.54 34.83 47.61 34.04 46.95 33.98 47.12 31.96 48.16 32.05"/>
    <polygon class="cls-4" points="51.04 32.29 51.1 31.51 48.23 31.26 48.16 32.05 49.21 32.14 49.04 34.16 48.38 34.11 48.31 34.89 50.41 35.07 50.48 34.29 49.82 34.23 50 32.21 51.04 32.29"/>
    <polygon class="cls-4" points="53.91 32.54 53.98 31.75 51.1 31.51 51.04 32.29 52.08 32.38 51.91 34.41 51.25 34.35 51.19 35.14 53.29 35.32 53.36 34.53 52.7 34.48 52.87 32.45 53.91 32.54"/>
    <polygon class="cls-4" points="56.79 32.79 56.85 32 53.98 31.75 53.91 32.54 54.96 32.63 54.79 34.65 54.13 34.6 54.06 35.39 56.16 35.57 56.23 34.78 55.57 34.72 55.75 32.7 56.79 32.79"/>
    <polygon class="cls-4" points="59.66 33.03 59.73 32.25 56.85 32 56.79 32.79 57.83 32.88 57.66 34.9 57 34.84 56.94 35.63 59.04 35.81 59.1 35.02 58.45 34.97 58.62 32.94 59.66 33.03"/>
    <polygon class="cls-4" points="62.53 33.28 62.6 32.49 59.73 32.25 59.66 33.03 60.71 33.12 60.54 35.15 59.88 35.09 59.81 35.88 61.91 36.06 61.98 35.27 61.32 35.21 61.49 33.19 62.53 33.28"/>
    <polygon class="cls-4" points="65.41 33.52 65.48 32.74 62.6 32.49 62.53 33.28 63.58 33.37 63.41 35.39 62.75 35.34 62.68 36.12 64.79 36.3 64.85 35.52 64.2 35.46 64.37 33.44 65.41 33.52"/>
    <polygon class="cls-4" points="68.28 33.77 68.35 32.98 65.48 32.74 65.41 33.52 66.46 33.61 66.28 35.64 65.63 35.58 65.56 36.37 67.66 36.55 67.73 35.76 67.07 35.71 67.24 33.68 68.28 33.77"/>
    <polygon class="cls-4" points="71.16 34.02 71.23 33.23 68.35 32.98 68.28 33.77 69.33 33.86 69.16 35.88 68.5 35.83 68.43 36.61 70.54 36.79 70.6 36.01 69.95 35.95 70.12 33.93 71.16 34.02"/>
    <polygon class="cls-4" points="74.03 34.26 74.1 33.48 71.23 33.23 71.16 34.02 72.21 34.11 72.03 36.13 71.38 36.07 71.31 36.86 73.41 37.04 73.48 36.25 72.82 36.2 72.99 34.17 74.03 34.26"/>
    <polygon class="cls-4" points="76.91 34.51 76.98 33.72 74.1 33.48 74.03 34.26 75.08 34.35 74.91 36.38 74.25 36.32 74.18 37.11 76.29 37.29 76.35 36.5 75.7 36.44 75.87 34.42 76.91 34.51"/>
    <polygon class="cls-4" points="79.78 34.75 79.85 33.97 76.98 33.72 76.91 34.51 77.96 34.6 77.78 36.62 77.13 36.57 77.06 37.35 79.16 37.53 79.23 36.75 78.57 36.69 78.74 34.66 79.78 34.75"/>
    <polygon class="cls-4" points="82.66 35 82.72 34.21 79.85 33.97 79.78 34.75 80.83 34.84 80.66 36.87 80 36.81 79.93 37.6 82.04 37.78 82.1 36.99 81.44 36.94 81.62 34.91 82.66 35"/>
    <polygon class="cls-4" points="85.53 35.25 85.6 34.46 82.72 34.21 82.66 35 83.71 35.09 83.53 37.11 82.87 37.06 82.81 37.84 84.91 38.02 84.98 37.24 84.32 37.18 84.49 35.16 85.53 35.25"/>
    <polygon class="cls-4" points="88.41 35.49 88.47 34.7 85.6 34.46 85.53 35.25 86.58 35.34 86.41 37.36 85.75 37.3 85.68 38.09 87.78 38.27 87.85 37.48 87.19 37.43 87.37 35.4 88.41 35.49"/>
    <polygon class="cls-4" points="91.28 35.74 91.35 34.95 88.47 34.7 88.41 35.49 89.46 35.58 89.28 37.61 88.62 37.55 88.56 38.34 90.66 38.52 90.73 37.73 90.07 37.67 90.24 35.65 91.28 35.74"/>
    <polygon class="cls-4" points="94.16 35.98 94.22 35.2 91.35 34.95 91.28 35.74 92.33 35.83 92.16 37.85 91.5 37.8 91.43 38.58 93.53 38.76 93.6 37.98 92.94 37.92 93.12 35.89 94.16 35.98"/>
    <polygon class="cls-4" points="97.03 36.23 97.1 35.44 94.22 35.2 94.16 35.98 95.2 36.07 95.03 38.1 94.37 38.04 94.31 38.83 96.41 39.01 96.48 38.22 95.82 38.16 95.99 36.14 97.03 36.23"/>
    <polygon class="cls-4" points="99.91 36.47 99.97 35.69 97.1 35.44 97.03 36.23 98.08 36.32 97.91 38.34 97.25 38.29 97.18 39.07 99.28 39.25 99.35 38.47 98.69 38.41 98.87 36.39 99.91 36.47"/>
    <polygon class="cls-4" points="102.78 36.72 102.85 35.93 99.97 35.69 99.91 36.47 100.95 36.56 100.78 38.59 100.12 38.53 100.06 39.32 102.16 39.5 102.23 38.71 101.57 38.66 101.74 36.63 102.78 36.72"/>
    <polygon class="cls-4" points="105.65 36.97 105.72 36.18 102.85 35.93 102.78 36.72 103.83 36.81 103.66 38.84 103 38.78 102.93 39.57 105.03 39.75 105.1 38.96 104.44 38.9 104.61 36.88 105.65 36.97"/>
    <polygon class="cls-4" points="108.53 37.21 108.6 36.43 105.72 36.18 105.65 36.97 106.7 37.06 106.53 39.08 105.87 39.02 105.8 39.81 107.91 39.99 107.97 39.2 107.32 39.15 107.49 37.12 108.53 37.21"/>
    <polygon class="cls-4" points="111.4 37.46 111.47 36.67 108.6 36.43 108.53 37.21 109.58 37.3 109.4 39.33 108.75 39.27 108.68 40.06 110.78 40.24 110.85 39.45 110.19 39.39 110.36 37.37 111.4 37.46"/>
    <polygon class="cls-4" points="114.28 37.7 114.35 36.92 111.47 36.67 111.4 37.46 112.45 37.55 112.28 39.57 111.62 39.52 111.55 40.3 113.66 40.48 113.72 39.7 113.07 39.64 113.24 37.62 114.28 37.7"/>
    <polygon class="cls-4" points="117.15 37.95 117.22 37.16 114.35 36.92 114.28 37.7 115.33 37.79 115.15 39.82 114.5 39.76 114.43 40.55 116.53 40.73 116.6 39.94 115.94 39.89 116.11 37.86 117.15 37.95"/>
    <polygon class="cls-4" points="120.03 38.2 120.1 37.41 117.22 37.16 117.15 37.95 118.2 38.04 118.03 40.06 117.37 40.01 117.3 40.79 119.41 40.97 119.47 40.19 118.82 40.13 118.99 38.11 120.03 38.2"/>
    <polygon class="cls-4" points="122.9 38.44 122.97 37.66 120.1 37.41 120.03 38.2 121.08 38.29 120.9 40.31 120.25 40.25 120.18 41.04 122.28 41.22 122.35 40.43 121.69 40.38 121.86 38.35 122.9 38.44"/>
    <polygon class="cls-4" points="125.78 38.69 125.84 37.9 122.97 37.66 122.9 38.44 123.95 38.53 123.78 40.56 123.12 40.5 123.05 41.29 125.16 41.47 125.22 40.68 124.56 40.62 124.74 38.6 125.78 38.69"/>
    <polygon class="cls-4" points="128.65 38.93 128.72 38.15 125.84 37.9 125.78 38.69 126.83 38.78 126.65 40.8 125.99 40.75 125.93 41.53 128.03 41.71 128.1 40.93 127.44 40.87 127.61 38.84 128.65 38.93"/>
    <polygon class="cls-4" points="131.53 39.18 131.59 38.39 128.72 38.15 128.65 38.93 129.7 39.02 129.53 41.05 128.87 40.99 128.8 41.78 130.9 41.96 130.97 41.17 130.31 41.12 130.49 39.09 131.53 39.18"/>
    <polygon class="cls-4" points="134.4 39.43 134.47 38.64 131.59 38.39 131.53 39.18 132.58 39.27 132.4 41.29 131.74 41.24 131.68 42.02 133.78 42.2 133.85 41.42 133.19 41.36 133.36 39.34 134.4 39.43"/>
    <polygon class="cls-4" points="137.28 39.67 137.34 38.88 134.47 38.64 134.4 39.43 135.45 39.52 135.28 41.54 134.62 41.48 134.55 42.27 136.65 42.45 136.72 41.66 136.06 41.61 136.24 39.58 137.28 39.67"/>
    <polygon class="cls-4" points="140.15 39.92 140.22 39.13 137.34 38.88 137.28 39.67 138.32 39.76 138.15 41.79 137.49 41.73 137.43 42.52 139.53 42.7 139.6 41.91 138.94 41.85 139.11 39.83 140.15 39.92"/>
    <polygon class="cls-4" points="143.03 40.16 143.09 39.38 140.22 39.13 140.15 39.92 141.2 40.01 141.03 42.03 140.37 41.98 140.3 42.76 142.4 42.94 142.47 42.16 141.81 42.1 141.99 40.07 143.03 40.16"/>
    <polygon class="cls-4" points="145.9 40.41 145.97 39.62 143.09 39.38 143.03 40.16 144.07 40.25 143.9 42.28 143.24 42.22 143.18 43.01 145.28 43.19 145.35 42.4 144.69 42.34 144.86 40.32 145.9 40.41"/>
    <polygon class="cls-4" points="148.77 40.65 148.84 39.87 145.97 39.62 145.9 40.41 146.95 40.5 146.78 42.52 146.12 42.47 146.05 43.25 148.15 43.43 148.22 42.65 147.56 42.59 147.74 40.57 148.77 40.65"/>
    <polygon class="cls-4" points="151.65 40.9 151.72 40.11 148.84 39.87 148.77 40.65 149.82 40.74 149.65 42.77 148.99 42.71 148.92 43.5 151.03 43.68 151.09 42.89 150.44 42.84 150.61 40.81 151.65 40.9"/>
    <polygon class="cls-4" points="154.52 41.15 154.59 40.36 151.72 40.11 151.65 40.9 152.7 40.99 152.52 43.02 151.87 42.96 151.8 43.75 153.9 43.93 153.97 43.14 153.31 43.08 153.48 41.06 154.52 41.15"/>
    <polygon class="cls-4" points="157.4 41.39 157.47 40.61 154.59 40.36 154.52 41.15 155.57 41.24 155.4 43.26 154.74 43.2 154.67 43.99 156.78 44.17 156.84 43.38 156.19 43.33 156.36 41.3 157.4 41.39"/>
    <polygon class="cls-4" points="160.27 41.64 160.34 40.85 157.47 40.61 157.4 41.39 158.45 41.48 158.27 43.51 157.62 43.45 157.55 44.24 159.65 44.42 159.72 43.63 159.06 43.57 159.23 41.55 160.27 41.64"/>
    <polygon class="cls-4" points="163.15 41.88 163.22 41.1 160.34 40.85 160.27 41.64 161.32 41.73 161.15 43.75 160.49 43.7 160.42 44.48 162.53 44.66 162.59 43.88 161.94 43.82 162.11 41.8 163.15 41.88"/>
    <polygon class="cls-4" points="166.02 42.13 166.09 41.34 163.22 41.1 163.15 41.88 164.2 41.97 164.02 44 163.37 43.94 163.3 44.73 165.4 44.91 165.47 44.12 164.81 44.07 164.98 42.04 166.02 42.13"/>
    <polygon class="cls-4" points="168.9 42.38 168.96 41.59 166.09 41.34 166.02 42.13 167.07 42.22 166.9 44.24 166.24 44.19 166.17 44.97 168.28 45.15 168.34 44.37 167.68 44.31 167.86 42.29 168.9 42.38"/>
    <polygon class="cls-4" points="171.77 42.62 171.84 41.84 168.96 41.59 168.9 42.38 169.95 42.47 169.77 44.49 169.11 44.43 169.05 45.22 171.15 45.4 171.22 44.61 170.56 44.56 170.73 42.53 171.77 42.62"/>
    <polygon class="cls-4" points="174.65 42.87 174.71 42.08 171.84 41.84 171.77 42.62 172.82 42.71 172.65 44.74 171.99 44.68 171.92 45.47 174.02 45.65 174.09 44.86 173.43 44.8 173.61 42.78 174.65 42.87"/>
    <polygon class="cls-4" points="177.52 43.11 177.59 42.33 174.71 42.08 174.65 42.87 175.7 42.96 175.52 44.98 174.86 44.93 174.8 45.71 176.9 45.89 176.97 45.11 176.31 45.05 176.48 43.02 177.52 43.11"/>
    <polygon class="cls-4" points="180.4 43.36 180.46 42.57 177.59 42.33 177.52 43.11 178.57 43.2 178.4 45.23 177.74 45.17 177.67 45.96 179.77 46.14 179.84 45.35 179.18 45.3 179.36 43.27 180.4 43.36"/>
    <polygon class="cls-4" points="183.27 43.61 183.34 42.82 180.46 42.57 180.4 43.36 181.44 43.45 181.27 45.47 180.61 45.42 180.55 46.2 182.65 46.38 182.72 45.6 182.06 45.54 182.23 43.52 183.27 43.61"/>
    <polygon class="cls-4" points="186.15 43.85 186.21 43.06 183.34 42.82 183.27 43.61 184.32 43.7 184.15 45.72 183.49 45.66 183.42 46.45 185.52 46.63 185.59 45.84 184.93 45.79 185.11 43.76 186.15 43.85"/>
    <polygon class="cls-4" points="189.02 44.1 189.09 43.31 186.21 43.06 186.15 43.85 187.19 43.94 187.02 45.97 186.36 45.91 186.3 46.7 188.4 46.88 188.47 46.09 187.81 46.03 187.98 44.01 189.02 44.1"/>
    <polygon class="cls-4" points="191.9 44.34 191.96 43.56 189.09 43.31 189.02 44.1 190.07 44.19 189.9 46.21 189.24 46.16 189.17 46.94 191.27 47.12 191.34 46.34 190.68 46.28 190.86 44.25 191.9 44.34"/>
    <polygon class="cls-4" points="194.77 44.59 194.84 43.8 191.96 43.56 191.9 44.34 192.94 44.43 192.77 46.46 192.11 46.4 192.05 47.19 194.15 47.37 194.21 46.58 193.56 46.52 193.73 44.5 194.77 44.59"/>
    <polygon class="cls-4" points="197.64 44.84 197.71 44.05 194.84 43.8 194.77 44.59 195.82 44.68 195.64 46.7 194.99 46.65 194.92 47.43 197.02 47.61 197.09 46.83 196.43 46.77 196.6 44.75 197.64 44.84"/>
    <polygon class="cls-4" points="200.52 45.08 200.59 44.29 197.71 44.05 197.64 44.84 198.69 44.92 198.52 46.95 197.86 46.89 197.79 47.68 199.9 47.86 199.96 47.07 199.31 47.02 199.48 44.99 200.52 45.08"/>
    <polygon class="cls-4" points="203.39 45.33 203.46 44.54 200.59 44.29 200.52 45.08 201.57 45.17 201.39 47.2 200.74 47.14 200.67 47.93 202.77 48.11 202.84 47.32 202.18 47.26 202.35 45.24 203.39 45.33"/>
    <polygon class="cls-4" points="206.27 45.57 206.34 44.79 203.46 44.54 203.39 45.33 204.44 45.42 204.27 47.44 203.61 47.38 203.54 48.17 205.65 48.35 205.71 47.56 205.06 47.51 205.23 45.48 206.27 45.57"/>
    <polygon class="cls-4" points="209.14 45.82 209.21 45.03 206.34 44.79 206.27 45.57 207.32 45.66 207.14 47.69 206.49 47.63 206.42 48.42 208.52 48.6 208.59 47.81 207.93 47.75 208.1 45.73 209.14 45.82"/>
    <polygon class="cls-4" points="212.02 46.06 212.09 45.28 209.21 45.03 209.14 45.82 210.19 45.91 210.02 47.93 209.36 47.88 209.29 48.66 211.4 48.84 211.46 48.06 210.8 48 210.98 45.98 212.02 46.06"/>
    <polygon class="cls-4" points="214.89 46.31 214.96 45.52 212.09 45.28 212.02 46.06 213.07 46.15 212.89 48.18 212.24 48.12 212.17 48.91 214.27 49.09 214.34 48.3 213.68 48.25 213.85 46.22 214.89 46.31"/>
    <polygon class="cls-4" points="217.77 46.56 217.83 45.77 214.96 45.52 214.89 46.31 215.94 46.4 215.77 48.42 215.11 48.37 215.04 49.16 217.14 49.33 217.21 48.55 216.55 48.49 216.73 46.47 217.77 46.56"/>
    <polygon class="cls-4" points="220.64 46.8 220.71 46.02 217.83 45.77 217.77 46.56 218.82 46.65 218.64 48.67 217.98 48.61 217.92 49.4 220.02 49.58 220.09 48.79 219.43 48.74 219.6 46.71 220.64 46.8"/>
    <polygon class="cls-4" points="223.52 47.05 223.58 46.26 220.71 46.02 220.64 46.8 221.69 46.89 221.52 48.92 220.86 48.86 220.79 49.65 222.89 49.83 222.96 49.04 222.3 48.98 222.48 46.96 223.52 47.05"/>
    <polygon class="cls-4" points="226.39 47.29 226.46 46.51 223.58 46.26 223.52 47.05 224.56 47.14 224.39 49.16 223.73 49.11 223.67 49.89 225.77 50.07 225.84 49.29 225.18 49.23 225.35 47.21 226.39 47.29"/>
    <polygon class="cls-4" points="229.27 47.54 229.33 46.75 226.46 46.51 226.39 47.29 227.44 47.38 227.27 49.41 226.61 49.35 226.54 50.14 228.64 50.32 228.71 49.53 228.05 49.48 228.23 47.45 229.27 47.54"/>
    <polygon class="cls-4" points="232.14 47.79 232.21 47 229.33 46.75 229.27 47.54 230.31 47.63 230.14 49.65 229.48 49.6 229.42 50.38 231.52 50.56 231.59 49.78 230.93 49.72 231.1 47.7 232.14 47.79"/>
    <polygon class="cls-4" points="235.02 48.03 235.08 47.25 232.21 47 232.14 47.79 233.19 47.88 233.02 49.9 232.36 49.84 232.29 50.63 234.39 50.81 234.46 50.02 233.8 49.97 233.98 47.94 235.02 48.03"/>
    <polygon class="cls-4" points="237.89 48.28 237.96 47.49 235.08 47.25 235.02 48.03 236.06 48.12 235.89 50.15 235.23 50.09 235.17 50.88 237.27 51.06 237.33 50.27 236.68 50.21 236.85 48.19 237.89 48.28"/>
    <polygon class="cls-4" points="240.76 48.52 240.83 47.74 237.96 47.49 237.89 48.28 238.94 48.37 238.77 50.39 238.11 50.34 238.04 51.12 240.14 51.3 240.21 50.52 239.55 50.46 239.72 48.43 240.76 48.52"/>
    <polygon class="cls-4" points="243.64 48.77 243.71 47.98 240.83 47.74 240.76 48.52 241.81 48.61 241.64 50.64 240.98 50.58 240.91 51.37 243.02 51.55 243.08 50.76 242.43 50.7 242.6 48.68 243.64 48.77"/>
    <polygon class="cls-4" points="246.51 49.02 246.58 48.23 243.71 47.98 243.64 48.77 244.69 48.86 244.51 50.88 243.86 50.83 243.79 51.61 245.89 51.79 245.96 51.01 245.3 50.95 245.47 48.93 246.51 49.02"/>
    <polygon class="cls-4" points="249.39 49.26 249.46 48.47 246.58 48.23 246.51 49.02 247.56 49.1 247.39 51.13 246.73 51.07 246.66 51.86 248.77 52.04 248.83 51.25 248.18 51.2 248.35 49.17 249.39 49.26"/>
    <polygon class="cls-4" points="252.26 49.51 252.33 48.72 249.46 48.47 249.39 49.26 250.44 49.35 250.26 51.38 249.61 51.32 249.54 52.11 251.64 52.29 251.71 51.5 251.05 51.44 251.22 49.42 252.26 49.51"/>
    <polygon class="cls-4" points="255.14 49.75 255.21 48.97 252.33 48.72 252.26 49.51 253.31 49.6 253.14 51.62 252.48 51.56 252.41 52.35 254.52 52.53 254.58 51.74 253.92 51.69 254.1 49.66 255.14 49.75"/>
    <polygon class="cls-4" points="258.01 50 258.08 49.21 255.21 48.97 255.14 49.75 256.19 49.84 256.01 51.87 255.36 51.81 255.29 52.6 257.39 52.78 257.46 51.99 256.8 51.93 256.97 49.91 258.01 50"/>
    <polygon class="cls-4" points="260.89 50.24 260.95 49.46 258.08 49.21 258.01 50 259.06 50.09 258.89 52.11 258.23 52.06 258.16 52.84 260.26 53.02 260.33 52.24 259.67 52.18 259.85 50.16 260.89 50.24"/>
    <polygon class="cls-4" points="263.76 50.49 263.83 49.7 260.95 49.46 260.89 50.24 261.94 50.33 261.76 52.36 261.1 52.3 261.04 53.09 263.14 53.27 263.21 52.48 262.55 52.43 262.72 50.4 263.76 50.49"/>
    <polygon class="cls-4" points="266.64 50.74 266.7 49.95 263.83 49.7 263.76 50.49 264.81 50.58 264.64 52.6 263.98 52.55 263.91 53.34 266.01 53.51 266.08 52.73 265.42 52.67 265.6 50.65 266.64 50.74"/>
    <polygon class="cls-4" points="269.51 50.98 269.58 50.2 266.7 49.95 266.64 50.74 267.68 50.83 267.51 52.85 266.85 52.79 266.79 53.58 268.89 53.76 268.96 52.97 268.3 52.92 268.47 50.89 269.51 50.98"/>
    <polygon class="cls-4" points="272.39 51.23 272.45 50.44 269.58 50.2 269.51 50.98 270.56 51.07 270.39 53.1 269.73 53.04 269.66 53.83 271.76 54.01 271.83 53.22 271.17 53.16 271.35 51.14 272.39 51.23"/>
    <polygon class="cls-4" points="275.26 51.47 275.33 50.69 272.45 50.44 272.39 51.23 273.43 51.32 273.26 53.34 272.6 53.29 272.54 54.07 274.64 54.25 274.71 53.47 274.05 53.41 274.22 51.39 275.26 51.47"/>
    <polygon class="cls-4" points="278.14 51.72 278.2 50.93 275.33 50.69 275.26 51.47 276.31 51.56 276.14 53.59 275.48 53.53 275.41 54.32 277.51 54.5 277.58 53.71 276.92 53.66 277.1 51.63 278.14 51.72"/>
    <polygon class="cls-4" points="281.01 51.97 281.08 51.18 278.2 50.93 278.14 51.72 279.18 51.81 279.01 53.83 278.35 53.78 278.29 54.56 280.39 54.74 280.45 53.96 279.8 53.9 279.97 51.88 281.01 51.97"/>
    <polygon class="cls-4" points="283.88 52.21 283.95 51.43 281.08 51.18 281.01 51.97 282.06 52.06 281.89 54.08 281.23 54.02 281.16 54.81 283.26 54.99 283.33 54.2 282.67 54.15 282.84 52.12 283.88 52.21"/>
    <polygon class="cls-4" points="286.76 52.46 286.83 51.67 283.95 51.43 283.88 52.21 284.93 52.3 284.76 54.33 284.1 54.27 284.03 55.06 286.14 55.24 286.2 54.45 285.55 54.39 285.72 52.37 286.76 52.46"/>
    <polygon class="cls-4" points="289.63 52.7 289.7 51.92 286.83 51.67 286.76 52.46 287.81 52.55 287.63 54.57 286.98 54.52 286.91 55.3 289.01 55.48 289.08 54.7 288.42 54.64 288.59 52.61 289.63 52.7"/>
    <polygon class="cls-4" points="292.51 52.95 292.58 52.16 289.7 51.92 289.63 52.7 290.68 52.79 290.51 54.82 289.85 54.76 289.78 55.55 291.89 55.73 291.95 54.94 291.3 54.89 291.47 52.86 292.51 52.95"/>
    <polygon class="cls-4" points="295.38 53.2 295.45 52.41 292.58 52.16 292.51 52.95 293.56 53.04 293.38 55.06 292.73 55.01 292.66 55.79 294.76 55.97 294.83 55.19 294.17 55.13 294.34 53.11 295.38 53.2"/>
    <polygon class="cls-4" points="298.26 53.44 298.33 52.65 295.45 52.41 295.38 53.2 296.43 53.28 296.26 55.31 295.6 55.25 295.53 56.04 297.64 56.22 297.7 55.43 297.04 55.38 297.22 53.35 298.26 53.44"/>
    <polygon class="cls-4" points="301.13 53.69 301.2 52.9 298.33 52.65 298.26 53.44 299.31 53.53 299.13 55.56 298.48 55.5 298.41 56.29 300.51 56.47 300.58 55.68 299.92 55.62 300.09 53.6 301.13 53.69"/>
    <polygon class="cls-4" points="304.01 53.93 304.07 53.15 301.2 52.9 301.13 53.69 302.18 53.78 302.01 55.8 301.35 55.75 301.28 56.53 303.38 56.71 303.45 55.92 302.79 55.87 302.97 53.84 304.01 53.93"/>
    <polygon class="cls-4" points="306.88 54.18 306.95 53.39 304.07 53.15 304.01 53.93 305.06 54.02 304.88 56.05 304.22 55.99 304.16 56.78 306.26 56.96 306.33 56.17 305.67 56.11 305.84 54.09 306.88 54.18"/>
    <polygon class="cls-4" points="309.76 54.42 309.82 53.64 306.95 53.39 306.88 54.18 307.93 54.27 307.76 56.29 307.1 56.24 307.03 57.02 309.13 57.2 309.2 56.42 308.54 56.36 308.72 54.34 309.76 54.42"/>
    <polygon class="cls-4" points="312.63 54.67 312.7 53.88 309.82 53.64 309.76 54.42 310.81 54.51 310.63 56.54 309.97 56.48 309.91 57.27 312.01 57.45 312.08 56.66 311.42 56.61 311.59 54.58 312.63 54.67"/>
    <polygon class="cls-4" points="315.51 54.92 315.57 54.13 312.7 53.88 312.63 54.67 313.68 54.76 313.51 56.78 312.85 56.73 312.78 57.52 314.88 57.7 314.95 56.91 314.29 56.85 314.47 54.83 315.51 54.92"/>
    <polygon class="cls-4" points="318.38 55.16 318.45 54.38 315.57 54.13 315.51 54.92 316.55 55.01 316.38 57.03 315.72 56.97 315.66 57.76 317.76 57.94 317.83 57.15 317.17 57.1 317.34 55.07 318.38 55.16"/>
    <polygon class="cls-4" points="321.26 55.41 321.32 54.62 318.45 54.38 318.38 55.16 319.43 55.25 319.26 57.28 318.6 57.22 318.53 58.01 320.63 58.19 320.7 57.4 320.04 57.34 320.22 55.32 321.26 55.41"/>
    <polygon class="cls-4" points="324.13 55.65 324.2 54.87 321.32 54.62 321.26 55.41 322.3 55.5 322.13 57.52 321.47 57.47 321.41 58.25 323.51 58.43 323.57 57.65 322.92 57.59 323.09 55.57 324.13 55.65"/>
    <polygon class="cls-4" points="327 55.9 327.07 55.11 324.2 54.87 324.13 55.65 325.18 55.74 325.01 57.77 324.35 57.71 324.28 58.5 326.38 58.68 326.45 57.89 325.79 57.84 325.96 55.81 327 55.9"/>
    <polygon class="cls-4" points="329.88 56.15 329.95 55.36 327.07 55.11 327 55.9 328.05 55.99 327.88 58.01 327.22 57.96 327.15 58.74 329.26 58.92 329.32 58.14 328.67 58.08 328.84 56.06 329.88 56.15"/>
    <polygon class="cls-4" points="332.75 56.39 332.82 55.61 329.95 55.36 329.88 56.15 330.93 56.24 330.75 58.26 330.1 58.2 330.03 58.99 332.13 59.17 332.2 58.38 331.54 58.33 331.71 56.3 332.75 56.39"/>
    <polygon class="cls-4" points="335.63 56.64 335.7 55.85 332.82 55.61 332.75 56.39 333.8 56.48 333.63 58.51 332.97 58.45 332.9 59.24 335.01 59.42 335.07 58.63 334.42 58.57 334.59 56.55 335.63 56.64"/>
    <polygon class="cls-4" points="338.5 56.88 338.57 56.1 335.7 55.85 335.63 56.64 336.68 56.73 336.5 58.75 335.85 58.7 335.78 59.48 337.88 59.66 337.95 58.88 337.29 58.82 337.46 56.79 338.5 56.88"/>
    <polygon class="cls-4" points="341.38 57.13 341.45 56.34 338.57 56.1 338.5 56.88 339.55 56.97 339.38 59 338.72 58.94 338.65 59.73 340.76 59.91 340.82 59.12 340.17 59.07 340.34 57.04 341.38 57.13"/>
    <polygon class="cls-4" points="344.25 57.38 344.32 56.59 341.45 56.34 341.38 57.13 342.43 57.22 342.25 59.24 341.6 59.19 341.53 59.97 343.63 60.15 343.7 59.37 343.04 59.31 343.21 57.29 344.25 57.38"/>
    <polygon class="cls-4" points="347.13 57.62 347.19 56.83 344.32 56.59 344.25 57.38 345.3 57.47 345.13 59.49 344.47 59.43 344.4 60.22 346.51 60.4 346.57 59.61 345.91 59.56 346.09 57.53 347.13 57.62"/>
    <polygon class="cls-4" points="350 57.87 350.07 57.08 347.19 56.83 347.13 57.62 348.18 57.71 348 59.74 347.34 59.68 347.28 60.47 349.38 60.65 349.45 59.86 348.79 59.8 348.96 57.78 350 57.87"/>
    <polygon class="cls-4" points="352.88 58.11 352.94 57.33 350.07 57.08 350 57.87 351.05 57.96 350.88 59.98 350.22 59.93 350.15 60.71 352.25 60.89 352.32 60.1 351.66 60.05 351.84 58.02 352.88 58.11"/>
    <polygon class="cls-4" points="355.75 58.36 355.82 57.57 352.94 57.33 352.88 58.11 353.93 58.2 353.75 60.23 353.09 60.17 353.03 60.96 355.13 61.14 355.2 60.35 354.54 60.29 354.71 58.27 355.75 58.36"/>
    <polygon class="cls-4" points="358.63 58.6 358.69 57.82 355.82 57.57 355.75 58.36 356.8 58.45 356.63 60.47 355.97 60.42 355.9 61.2 358 61.38 358.07 60.6 357.41 60.54 357.59 58.52 358.63 58.6"/>
    <polygon class="cls-4" points="361.5 58.85 361.57 58.06 358.69 57.82 358.63 58.6 359.67 58.69 359.5 60.72 358.84 60.66 358.78 61.45 360.88 61.63 360.95 60.84 360.29 60.79 360.46 58.76 361.5 58.85"/>
    <polygon class="cls-4" points="364.38 59.1 364.44 58.31 361.57 58.06 361.5 58.85 362.55 58.94 362.38 60.96 361.72 60.91 361.65 61.7 363.75 61.88 363.82 61.09 363.16 61.03 363.34 59.01 364.38 59.1"/>
    <polygon class="cls-4" points="367.25 59.34 367.32 58.56 364.44 58.31 364.38 59.1 365.42 59.19 365.25 61.21 364.59 61.15 364.53 61.94 366.63 62.12 366.7 61.33 366.04 61.28 366.21 59.25 367.25 59.34"/>
    <polygon class="cls-4" points="370.12 59.59 370.19 58.8 367.32 58.56 367.25 59.34 368.3 59.43 368.13 61.46 367.47 61.4 367.4 62.19 369.5 62.37 369.57 61.58 368.91 61.52 369.08 59.5 370.12 59.59"/>
    <polygon class="cls-4" points="373 59.83 373.07 59.05 370.19 58.8 370.12 59.59 371.17 59.68 371 61.7 370.34 61.65 370.27 62.43 372.38 62.61 372.44 61.83 371.79 61.77 371.96 59.75 373 59.83"/>
    <polygon class="cls-4" points="375.87 60.08 375.94 59.29 373.07 59.05 373 59.83 374.05 59.92 373.87 61.95 373.22 61.89 373.15 62.68 375.25 62.86 375.32 62.07 374.66 62.02 374.83 59.99 375.87 60.08"/>
    <polygon class="cls-4" points="378.75 60.33 378.82 59.54 375.94 59.29 375.87 60.08 376.92 60.17 376.75 62.19 376.09 62.14 376.02 62.92 378.13 63.1 378.19 62.32 377.54 62.26 377.71 60.24 378.75 60.33"/>
    <polygon class="cls-4" points="381.62 60.57 381.69 59.79 378.82 59.54 378.75 60.33 379.8 60.42 379.62 62.44 378.97 62.38 378.9 63.17 381 63.35 381.07 62.56 380.41 62.51 380.58 60.48 381.62 60.57"/>
    <polygon class="cls-4" points="384.5 60.82 384.57 60.03 381.69 59.79 381.62 60.57 382.67 60.66 382.5 62.69 381.84 62.63 381.77 63.42 383.88 63.6 383.94 62.81 383.29 62.75 383.46 60.73 384.5 60.82"/>
    <polygon class="cls-4" points="387.37 61.06 387.44 60.28 384.57 60.03 384.5 60.82 385.55 60.91 385.37 62.93 384.72 62.88 384.65 63.66 386.75 63.84 386.82 63.06 386.16 63 386.33 60.97 387.37 61.06"/>
    <polygon class="cls-4" points="390.25 61.31 390.31 60.52 387.44 60.28 387.37 61.06 388.42 61.15 388.25 63.18 387.59 63.12 387.52 63.91 389.63 64.09 389.69 63.3 389.03 63.25 389.21 61.22 390.25 61.31"/>
    <polygon class="cls-4" points="393.12 61.56 393.19 60.77 390.31 60.52 390.25 61.31 391.3 61.4 391.12 63.42 390.46 63.37 390.4 64.15 392.5 64.33 392.57 63.55 391.91 63.49 392.08 61.47 393.12 61.56"/>
    <polygon class="cls-4" points="396 61.8 396.06 61.01 393.19 60.77 393.12 61.56 394.17 61.65 394 63.67 393.34 63.61 393.27 64.4 395.37 64.58 395.44 63.79 394.78 63.74 394.96 61.71 396 61.8"/>
    <polygon class="cls-4" points="398.87 62.05 398.94 61.26 396.06 61.01 396 61.8 397.05 61.89 396.87 63.92 396.21 63.86 396.15 64.65 398.25 64.83 398.32 64.04 397.66 63.98 397.83 61.96 398.87 62.05"/>
    <polygon class="cls-4" points="401.75 62.29 401.81 61.51 398.94 61.26 398.87 62.05 399.92 62.14 399.75 64.16 399.09 64.11 399.02 64.89 401.12 65.07 401.19 64.29 400.53 64.23 400.71 62.2 401.75 62.29"/>
    <polygon class="cls-4" points="404.62 62.54 404.69 61.75 401.81 61.51 401.75 62.29 402.79 62.38 402.62 64.41 401.96 64.35 401.9 65.14 404 65.32 404.07 64.53 403.41 64.47 403.58 62.45 404.62 62.54"/>
    <polygon class="cls-4" points="407.5 62.78 407.56 62 404.69 61.75 404.62 62.54 405.67 62.63 405.5 64.65 404.84 64.6 404.77 65.38 406.87 65.56 406.94 64.78 406.28 64.72 406.46 62.7 407.5 62.78"/>
    <polygon class="cls-4" points="410.37 63.03 410.44 62.24 407.56 62 407.5 62.78 408.54 62.87 408.37 64.9 407.71 64.84 407.65 65.63 409.75 65.81 409.82 65.02 409.16 64.97 409.33 62.94 410.37 63.03"/>
    <polygon class="cls-4" points="413.24 63.28 413.31 62.49 410.44 62.24 410.37 63.03 411.42 63.12 411.25 65.15 410.59 65.09 410.52 65.88 412.62 66.06 412.69 65.27 412.03 65.21 412.21 63.19 413.24 63.28"/>
    <polygon class="cls-4" points="416.12 63.52 416.19 62.74 413.31 62.49 413.24 63.28 414.29 63.37 414.12 65.39 413.46 65.33 413.39 66.12 415.5 66.3 415.56 65.51 414.91 65.46 415.08 63.43 416.12 63.52"/>
    <polygon class="cls-4" points="418.99 63.77 419.06 62.98 416.19 62.74 416.12 63.52 417.17 63.61 416.99 65.64 416.34 65.58 416.27 66.37 418.37 66.55 418.44 65.76 417.78 65.7 417.95 63.68 418.99 63.77"/>
    <polygon class="cls-4" points="421.87 64.01 421.94 63.23 419.06 62.98 418.99 63.77 420.04 63.86 419.87 65.88 419.21 65.83 419.14 66.61 421.25 66.79 421.31 66.01 420.66 65.95 420.83 63.93 421.87 64.01"/>
    <polygon class="cls-4" points="424.74 64.26 424.81 63.47 421.94 63.23 421.87 64.01 422.92 64.1 422.74 66.13 422.09 66.07 422.02 66.86 424.12 67.04 424.19 66.25 423.53 66.2 423.7 64.17 424.74 64.26"/>
    <polygon class="cls-4" points="427.62 64.51 427.69 63.72 424.81 63.47 424.74 64.26 425.79 64.35 425.62 66.37 424.96 66.32 424.89 67.1 427 67.28 427.06 66.5 426.41 66.44 426.58 64.42 427.62 64.51"/>
    <polygon class="cls-4" points="430.49 64.75 430.56 63.97 427.69 63.72 427.62 64.51 428.67 64.6 428.49 66.62 427.84 66.56 427.77 67.35 429.87 67.53 429.94 66.74 429.28 66.69 429.45 64.66 430.49 64.75"/>
    <polygon class="cls-4" points="433.37 65 433.43 64.21 430.56 63.97 430.49 64.75 431.54 64.84 431.37 66.87 430.71 66.81 430.64 67.6 432.75 67.78 432.81 66.99 432.15 66.93 432.33 64.91 433.37 65"/>
    <polygon class="cls-4" points="436.24 65.24 436.31 64.46 433.43 64.21 433.37 65 434.42 65.09 434.24 67.11 433.58 67.06 433.52 67.84 435.62 68.02 435.69 67.24 435.03 67.18 435.2 65.15 436.24 65.24"/>
    <polygon class="cls-4" points="439.12 65.49 439.18 64.7 436.31 64.46 436.24 65.24 437.29 65.33 437.12 67.36 436.46 67.3 436.39 68.09 438.49 68.27 438.56 67.48 437.9 67.43 438.08 65.4 439.12 65.49"/>
    <polygon class="cls-4" points="441.99 65.74 442.06 64.95 439.18 64.7 439.12 65.49 440.17 65.58 439.99 67.6 439.33 67.55 439.27 68.33 441.37 68.51 441.44 67.73 440.78 67.67 440.95 65.65 441.99 65.74"/>
    <polygon class="cls-4" points="444.87 65.98 444.93 65.19 442.06 64.95 441.99 65.74 443.04 65.83 442.87 67.85 442.21 67.79 442.14 68.58 444.24 68.76 444.31 67.97 443.65 67.92 443.83 65.89 444.87 65.98"/>
    <polygon class="cls-4" points="447.74 66.23 447.81 65.44 444.93 65.19 444.87 65.98 445.91 66.07 445.74 68.1 445.08 68.04 445.02 68.83 447.12 69.01 447.19 68.22 446.53 68.16 446.7 66.14 447.74 66.23"/>
    <polygon class="cls-4" points="450.62 66.47 450.68 65.69 447.81 65.44 447.74 66.23 448.79 66.32 448.62 68.34 447.96 68.29 447.89 69.07 449.99 69.25 450.06 68.47 449.4 68.41 449.58 66.38 450.62 66.47"/>
    <polygon class="cls-4" points="453.49 66.72 453.56 65.93 450.68 65.69 450.62 66.47 451.66 66.56 451.49 68.59 450.83 68.53 450.77 69.32 452.87 69.5 452.94 68.71 452.28 68.65 452.45 66.63 453.49 66.72"/>
    <polygon class="cls-4" points="456.37 66.96 456.43 66.18 453.56 65.93 453.49 66.72 454.54 66.81 454.37 68.83 453.71 68.78 453.64 69.56 455.74 69.74 455.81 68.96 455.15 68.9 455.33 66.88 456.37 66.96"/>
    <polygon class="cls-4" points="459.24 67.21 459.31 66.42 456.43 66.18 456.37 66.96 457.41 67.05 457.24 69.08 456.58 69.02 456.52 69.81 458.62 69.99 458.68 69.2 458.03 69.15 458.2 67.12 459.24 67.21"/>
    <polygon class="cls-4" points="460.1 63.57 459.31 63.57 459.31 66.42 460.1 66.42 460.1 65.38 462.13 65.38 462.13 66.04 462.92 66.04 462.92 63.95 462.13 63.95 462.13 64.6 460.1 64.6 460.1 63.57"/>
    <polygon class="cls-4" points="460.1 60.72 459.31 60.72 459.31 63.57 460.1 63.57 460.1 62.53 462.13 62.53 462.13 63.18 462.92 63.18 462.92 61.1 462.13 61.1 462.13 61.75 460.1 61.75 460.1 60.72"/>
    <polygon class="cls-4" points="460.1 57.87 459.31 57.87 459.31 60.72 460.1 60.72 460.1 59.68 462.13 59.68 462.13 60.33 462.92 60.33 462.92 58.25 462.13 58.25 462.13 58.9 460.1 58.9 460.1 57.87"/>
    <polygon class="cls-4" points="460.1 55.02 459.31 55.02 459.31 57.87 460.1 57.87 460.1 56.83 462.13 56.83 462.13 57.48 462.92 57.48 462.92 55.4 462.13 55.4 462.13 56.05 460.1 56.05 460.1 55.02"/>
    <polygon class="cls-4" points="460.1 52.16 459.31 52.16 459.31 55.02 460.1 55.02 460.1 53.98 462.13 53.98 462.13 54.63 462.92 54.63 462.92 52.54 462.13 52.54 462.13 53.2 460.1 53.2 460.1 52.16"/>
    <polygon class="cls-4" points="460.1 49.31 459.31 49.31 459.31 52.16 460.1 52.16 460.1 51.12 462.13 51.12 462.13 51.78 462.92 51.78 462.92 49.69 462.13 49.69 462.13 50.34 460.1 50.34 460.1 49.31"/>
    <polygon class="cls-4" points="460.1 46.46 459.31 46.46 459.31 49.31 460.1 49.31 460.1 48.27 462.13 48.27 462.13 48.92 462.92 48.92 462.92 46.84 462.13 46.84 462.13 47.49 460.1 47.49 460.1 46.46"/>
    <polygon class="cls-4" points="460.1 43.61 459.31 43.61 459.31 46.46 460.1 46.46 460.1 45.42 462.13 45.42 462.13 46.07 462.92 46.07 462.92 43.99 462.13 43.99 462.13 44.64 460.1 44.64 460.1 43.61"/>
    <polygon class="cls-4" points="460.1 40.76 459.31 40.76 459.31 43.61 460.1 43.61 460.1 42.57 462.13 42.57 462.13 43.22 462.92 43.22 462.92 41.13 462.13 41.13 462.13 41.79 460.1 41.79 460.1 40.76"/>
    <polygon class="cls-4" points="460.1 37.9 459.31 37.9 459.31 40.76 460.1 40.76 460.1 39.72 462.13 39.72 462.13 40.37 462.92 40.37 462.92 38.28 462.13 38.28 462.13 38.94 460.1 38.94 460.1 37.9"/>
    <polygon class="cls-4" points="460.1 35.05 459.31 35.05 459.31 37.9 460.1 37.9 460.1 36.86 462.13 36.86 462.13 37.52 462.92 37.52 462.92 35.43 462.13 35.43 462.13 36.08 460.1 36.08 460.1 35.05"/>
    <polygon class="cls-4" points="460.1 32.2 459.31 32.2 459.31 35.05 460.1 35.05 460.1 34.01 462.13 34.01 462.13 34.66 462.92 34.66 462.92 32.58 462.13 32.58 462.13 33.23 460.1 33.23 460.1 32.2"/>
    <polygon class="cls-4" points="460.1 29.35 459.31 29.35 459.31 32.2 460.1 32.2 460.1 31.16 462.13 31.16 462.13 31.81 462.92 31.81 462.92 29.73 462.13 29.73 462.13 30.38 460.1 30.38 460.1 29.35"/>
    <polygon class="cls-4" points="460.1 26.5 459.31 26.5 459.31 29.35 460.1 29.35 460.1 28.31 462.13 28.31 462.13 28.96 462.92 28.96 462.92 26.87 462.13 26.87 462.13 27.53 460.1 27.53 460.1 26.5"/>
    <polygon class="cls-4" points="460.1 23.64 459.31 23.64 459.31 26.5 460.1 26.5 460.1 25.46 462.13 25.46 462.13 26.11 462.92 26.11 462.92 24.02 462.13 24.02 462.13 24.68 460.1 24.68 460.1 23.64"/>
    <polygon class="cls-4" points="460.1 20.79 459.31 20.79 459.31 23.64 460.1 23.64 460.1 22.6 462.13 22.6 462.13 23.26 462.92 23.26 462.92 21.17 462.13 21.17 462.13 21.82 460.1 21.82 460.1 20.79"/>
    <polygon class="cls-4" points="460.1 17.94 459.31 17.94 459.31 20.79 460.1 20.79 460.1 19.75 462.13 19.75 462.13 20.4 462.92 20.4 462.92 18.32 462.13 18.32 462.13 18.97 460.1 18.97 460.1 17.94"/>
    <polygon class="cls-4" points="460.1 15.09 459.31 15.09 459.31 17.94 460.1 17.94 460.1 16.9 462.13 16.9 462.13 17.55 462.92 17.55 462.92 15.47 462.13 15.47 462.13 16.12 460.1 16.12 460.1 15.09"/>
    <polygon class="cls-4" points="460.1 12.24 459.31 12.24 459.31 15.09 460.1 15.09 460.1 14.05 462.13 14.05 462.13 14.7 462.92 14.7 462.92 12.61 462.13 12.61 462.13 13.27 460.1 13.27 460.1 12.24"/>
    <polygon class="cls-4" points="460.1 9.38 459.31 9.38 459.31 12.24 460.1 12.24 460.1 11.2 462.13 11.2 462.13 11.85 462.92 11.85 462.92 9.76 462.13 9.76 462.13 10.42 460.1 10.42 460.1 9.38"/>
    <polygon class="cls-4" points="460.1 6.53 459.31 6.53 459.31 9.38 460.1 9.38 460.1 8.34 462.13 8.34 462.13 9 462.92 9 462.92 6.91 462.13 6.91 462.13 7.56 460.1 7.56 460.1 6.53"/>
    <polygon class="cls-4" points="460.1 3.68 459.31 3.68 459.31 6.53 460.1 6.53 460.1 5.49 462.13 5.49 462.13 6.14 462.92 6.14 462.92 4.06 462.13 4.06 462.13 4.71 460.1 4.71 460.1 3.68"/>
    <polygon class="cls-4" points="456.41 2.89 456.41 3.68 459.31 3.68 459.31 2.89 458.25 2.89 458.25 .86 458.91 .86 458.91 .07 456.8 .07 456.8 .86 457.46 .86 457.46 2.89 456.41 2.89"/>
    <polygon class="cls-4" points="453.52 2.89 453.52 3.68 456.41 3.68 456.41 2.89 455.36 2.89 455.36 .86 456.02 .86 456.02 .07 453.91 .07 453.91 .86 454.57 .86 454.57 2.89 453.52 2.89"/>
    <polygon class="cls-4" points="450.63 2.89 450.63 3.68 453.52 3.68 453.52 2.89 452.47 2.89 452.47 .86 453.13 .86 453.13 .07 451.01 .07 451.01 .86 451.67 .86 451.67 2.89 450.63 2.89"/>
    <polygon class="cls-4" points="447.74 2.89 447.74 3.68 450.63 3.68 450.63 2.89 449.57 2.89 449.57 .86 450.24 .86 450.24 .07 448.12 .07 448.12 .86 448.78 .86 448.78 2.89 447.74 2.89"/>
    <polygon class="cls-4" points="444.84 2.89 444.84 3.68 447.74 3.68 447.74 2.89 446.68 2.89 446.68 .86 447.34 .86 447.34 .07 445.23 .07 445.23 .86 445.89 .86 445.89 2.89 444.84 2.89"/>
    <polygon class="cls-4" points="441.95 2.89 441.95 3.68 444.84 3.68 444.84 2.89 443.79 2.89 443.79 .86 444.45 .86 444.45 .07 442.33 .07 442.33 .86 443 .86 443 2.89 441.95 2.89"/>
    <polygon class="cls-4" points="439.06 2.89 439.06 3.68 441.95 3.68 441.95 2.89 440.89 2.89 440.89 .86 441.56 .86 441.56 .07 439.44 .07 439.44 .86 440.1 .86 440.1 2.89 439.06 2.89"/>
    <polygon class="cls-4" points="436.16 2.89 436.16 3.68 439.06 3.68 439.06 2.89 438 2.89 438 .86 438.66 .86 438.66 .07 436.55 .07 436.55 .86 437.21 .86 437.21 2.89 436.16 2.89"/>
    <polygon class="cls-4" points="433.27 2.89 433.27 3.68 436.16 3.68 436.16 2.89 435.11 2.89 435.11 .86 435.77 .86 435.77 .07 433.65 .07 433.65 .86 434.32 .86 434.32 2.89 433.27 2.89"/>
    <polygon class="cls-4" points="430.38 2.89 430.38 3.68 433.27 3.68 433.27 2.89 432.22 2.89 432.22 .86 432.88 .86 432.88 .07 430.76 .07 430.76 .86 431.42 .86 431.42 2.89 430.38 2.89"/>
    <polygon class="cls-4" points="427.48 2.89 427.48 3.68 430.38 3.68 430.38 2.89 429.32 2.89 429.32 .86 429.98 .86 429.98 .07 427.87 .07 427.87 .86 428.53 .86 428.53 2.89 427.48 2.89"/>
    <polygon class="cls-4" points="424.59 2.89 424.59 3.68 427.48 3.68 427.48 2.89 426.43 2.89 426.43 .86 427.09 .86 427.09 .07 424.98 .07 424.98 .86 425.64 .86 425.64 2.89 424.59 2.89"/>
    <polygon class="cls-4" points="421.7 2.89 421.7 3.68 424.59 3.68 424.59 2.89 423.54 2.89 423.54 .86 424.2 .86 424.2 .07 422.08 .07 422.08 .86 422.74 .86 422.74 2.89 421.7 2.89"/>
    <polygon class="cls-4" points="418.81 2.89 418.81 3.68 421.7 3.68 421.7 2.89 420.64 2.89 420.64 .86 421.31 .86 421.31 .07 419.19 .07 419.19 .86 419.85 .86 419.85 2.89 418.81 2.89"/>
    <polygon class="cls-4" points="415.91 2.89 415.91 3.68 418.81 3.68 418.81 2.89 417.75 2.89 417.75 .86 418.41 .86 418.41 .07 416.3 .07 416.3 .86 416.96 .86 416.96 2.89 415.91 2.89"/>
    <polygon class="cls-4" points="413.02 2.89 413.02 3.68 415.91 3.68 415.91 2.89 414.86 2.89 414.86 .86 415.52 .86 415.52 .07 413.4 .07 413.4 .86 414.07 .86 414.07 2.89 413.02 2.89"/>
    <polygon class="cls-4" points="410.13 2.89 410.13 3.68 413.02 3.68 413.02 2.89 411.96 2.89 411.96 .86 412.63 .86 412.63 .07 410.51 .07 410.51 .86 411.17 .86 411.17 2.89 410.13 2.89"/>
    <polygon class="cls-4" points="407.23 2.89 407.23 3.68 410.13 3.68 410.13 2.89 409.07 2.89 409.07 .86 409.73 .86 409.73 .07 407.62 .07 407.62 .86 408.28 .86 408.28 2.89 407.23 2.89"/>
    <polygon class="cls-4" points="404.34 2.89 404.34 3.68 407.23 3.68 407.23 2.89 406.18 2.89 406.18 .86 406.84 .86 406.84 .07 404.72 .07 404.72 .86 405.39 .86 405.39 2.89 404.34 2.89"/>
    <polygon class="cls-4" points="401.45 2.89 401.45 3.68 404.34 3.68 404.34 2.89 403.29 2.89 403.29 .86 403.95 .86 403.95 .07 401.83 .07 401.83 .86 402.49 .86 402.49 2.89 401.45 2.89"/>
    <polygon class="cls-4" points="398.55 2.89 398.55 3.68 401.45 3.68 401.45 2.89 400.39 2.89 400.39 .86 401.05 .86 401.05 .07 398.94 .07 398.94 .86 399.6 .86 399.6 2.89 398.55 2.89"/>
    <polygon class="cls-4" points="395.66 2.89 395.66 3.68 398.55 3.68 398.55 2.89 397.5 2.89 397.5 .86 398.16 .86 398.16 .07 396.05 .07 396.05 .86 396.71 .86 396.71 2.89 395.66 2.89"/>
    <polygon class="cls-4" points="392.77 2.89 392.77 3.68 395.66 3.68 395.66 2.89 394.61 2.89 394.61 .86 395.27 .86 395.27 .07 393.15 .07 393.15 .86 393.81 .86 393.81 2.89 392.77 2.89"/>
    <polygon class="cls-4" points="389.88 2.89 389.88 3.68 392.77 3.68 392.77 2.89 391.71 2.89 391.71 .86 392.38 .86 392.38 .07 390.26 .07 390.26 .86 390.92 .86 390.92 2.89 389.88 2.89"/>
    <polygon class="cls-4" points="386.98 2.89 386.98 3.68 389.88 3.68 389.88 2.89 388.82 2.89 388.82 .86 389.48 .86 389.48 .07 387.37 .07 387.37 .86 388.03 .86 388.03 2.89 386.98 2.89"/>
    <polygon class="cls-4" points="384.09 2.89 384.09 3.68 386.98 3.68 386.98 2.89 385.93 2.89 385.93 .86 386.59 .86 386.59 .07 384.47 .07 384.47 .86 385.14 .86 385.14 2.89 384.09 2.89"/>
    <polygon class="cls-4" points="381.2 2.89 381.2 3.68 384.09 3.68 384.09 2.89 383.03 2.89 383.03 .86 383.7 .86 383.7 .07 381.58 .07 381.58 .86 382.24 .86 382.24 2.89 381.2 2.89"/>
    <polygon class="cls-4" points="378.3 2.89 378.3 3.68 381.2 3.68 381.2 2.89 380.14 2.89 380.14 .86 380.8 .86 380.8 .07 378.69 .07 378.69 .86 379.35 .86 379.35 2.89 378.3 2.89"/>
    <polygon class="cls-4" points="375.41 2.89 375.41 3.68 378.3 3.68 378.3 2.89 377.25 2.89 377.25 .86 377.91 .86 377.91 .07 375.79 .07 375.79 .86 376.46 .86 376.46 2.89 375.41 2.89"/>
    <polygon class="cls-4" points="372.52 2.89 372.52 3.68 375.41 3.68 375.41 2.89 374.36 2.89 374.36 .86 375.02 .86 375.02 .07 372.9 .07 372.9 .86 373.56 .86 373.56 2.89 372.52 2.89"/>
    <polygon class="cls-4" points="369.62 2.89 369.62 3.68 372.52 3.68 372.52 2.89 371.46 2.89 371.46 .86 372.12 .86 372.12 .07 370.01 .07 370.01 .86 370.67 .86 370.67 2.89 369.62 2.89"/>
    <polygon class="cls-4" points="366.73 2.89 366.73 3.68 369.62 3.68 369.62 2.89 368.57 2.89 368.57 .86 369.23 .86 369.23 .07 367.12 .07 367.12 .86 367.78 .86 367.78 2.89 366.73 2.89"/>
    <polygon class="cls-4" points="363.84 2.89 363.84 3.68 366.73 3.68 366.73 2.89 365.68 2.89 365.68 .86 366.34 .86 366.34 .07 364.22 .07 364.22 .86 364.89 .86 364.89 2.89 363.84 2.89"/>
    <polygon class="cls-4" points="360.95 2.89 360.95 3.68 363.84 3.68 363.84 2.89 362.78 2.89 362.78 .86 363.45 .86 363.45 .07 361.33 .07 361.33 .86 361.99 .86 361.99 2.89 360.95 2.89"/>
    <polygon class="cls-4" points="358.05 2.89 358.05 3.68 360.95 3.68 360.95 2.89 359.89 2.89 359.89 .86 360.55 .86 360.55 .07 358.44 .07 358.44 .86 359.1 .86 359.1 2.89 358.05 2.89"/>
    <polygon class="cls-4" points="355.16 2.89 355.16 3.68 358.05 3.68 358.05 2.89 357 2.89 357 .86 357.66 .86 357.66 .07 355.54 .07 355.54 .86 356.21 .86 356.21 2.89 355.16 2.89"/>
    <polygon class="cls-4" points="352.27 2.89 352.27 3.68 355.16 3.68 355.16 2.89 354.1 2.89 354.1 .86 354.77 .86 354.77 .07 352.65 .07 352.65 .86 353.31 .86 353.31 2.89 352.27 2.89"/>
    <polygon class="cls-4" points="349.37 2.89 349.37 3.68 352.27 3.68 352.27 2.89 351.21 2.89 351.21 .86 351.87 .86 351.87 .07 349.76 .07 349.76 .86 350.42 .86 350.42 2.89 349.37 2.89"/>
    <polygon class="cls-4" points="346.48 2.89 346.48 3.68 349.37 3.68 349.37 2.89 348.32 2.89 348.32 .86 348.98 .86 348.98 .07 346.87 .07 346.87 .86 347.53 .86 347.53 2.89 346.48 2.89"/>
    <polygon class="cls-4" points="343.59 2.89 343.59 3.68 346.48 3.68 346.48 2.89 345.43 2.89 345.43 .86 346.09 .86 346.09 .07 343.97 .07 343.97 .86 344.63 .86 344.63 2.89 343.59 2.89"/>
    <polygon class="cls-4" points="340.69 2.89 340.69 3.68 343.59 3.68 343.59 2.89 342.53 2.89 342.53 .86 343.19 .86 343.19 .07 341.08 .07 341.08 .86 341.74 .86 341.74 2.89 340.69 2.89"/>
    <polygon class="cls-4" points="337.8 2.89 337.8 3.68 340.69 3.68 340.69 2.89 339.64 2.89 339.64 .86 340.3 .86 340.3 .07 338.19 .07 338.19 .86 338.85 .86 338.85 2.89 337.8 2.89"/>
    <polygon class="cls-4" points="334.91 2.89 334.91 3.68 337.8 3.68 337.8 2.89 336.75 2.89 336.75 .86 337.41 .86 337.41 .07 335.29 .07 335.29 .86 335.96 .86 335.96 2.89 334.91 2.89"/>
    <polygon class="cls-4" points="332.02 2.89 332.02 3.68 334.91 3.68 334.91 2.89 333.85 2.89 333.85 .86 334.52 .86 334.52 .07 332.4 .07 332.4 .86 333.06 .86 333.06 2.89 332.02 2.89"/>
    <polygon class="cls-4" points="329.12 2.89 329.12 3.68 332.02 3.68 332.02 2.89 330.96 2.89 330.96 .86 331.62 .86 331.62 .07 329.51 .07 329.51 .86 330.17 .86 330.17 2.89 329.12 2.89"/>
    <polygon class="cls-4" points="326.23 2.89 326.23 3.68 329.12 3.68 329.12 2.89 328.07 2.89 328.07 .86 328.73 .86 328.73 .07 326.61 .07 326.61 .86 327.28 .86 327.28 2.89 326.23 2.89"/>
    <polygon class="cls-4" points="323.34 2.89 323.34 3.68 326.23 3.68 326.23 2.89 325.17 2.89 325.17 .86 325.84 .86 325.84 .07 323.72 .07 323.72 .86 324.38 .86 324.38 2.89 323.34 2.89"/>
    <polygon class="cls-4" points="320.44 2.89 320.44 3.68 323.34 3.68 323.34 2.89 322.28 2.89 322.28 .86 322.94 .86 322.94 .07 320.83 .07 320.83 .86 321.49 .86 321.49 2.89 320.44 2.89"/>
    <polygon class="cls-4" points="317.55 2.89 317.55 3.68 320.44 3.68 320.44 2.89 319.39 2.89 319.39 .86 320.05 .86 320.05 .07 317.94 .07 317.94 .86 318.6 .86 318.6 2.89 317.55 2.89"/>
    <polygon class="cls-4" points="314.66 2.89 314.66 3.68 317.55 3.68 317.55 2.89 316.5 2.89 316.5 .86 317.16 .86 317.16 .07 315.04 .07 315.04 .86 315.7 .86 315.7 2.89 314.66 2.89"/>
    <polygon class="cls-4" points="311.76 2.89 311.76 3.68 314.66 3.68 314.66 2.89 313.6 2.89 313.6 .86 314.26 .86 314.26 .07 312.15 .07 312.15 .86 312.81 .86 312.81 2.89 311.76 2.89"/>
    <polygon class="cls-4" points="308.87 2.89 308.87 3.68 311.76 3.68 311.76 2.89 310.71 2.89 310.71 .86 311.37 .86 311.37 .07 309.26 .07 309.26 .86 309.92 .86 309.92 2.89 308.87 2.89"/>
    <polygon class="cls-4" points="305.98 2.89 305.98 3.68 308.87 3.68 308.87 2.89 307.82 2.89 307.82 .86 308.48 .86 308.48 .07 306.36 .07 306.36 .86 307.03 .86 307.03 2.89 305.98 2.89"/>
    <polygon class="cls-4" points="303.09 2.89 303.09 3.68 305.98 3.68 305.98 2.89 304.92 2.89 304.92 .86 305.59 .86 305.59 .07 303.47 .07 303.47 .86 304.13 .86 304.13 2.89 303.09 2.89"/>
    <polygon class="cls-4" points="300.19 2.89 300.19 3.68 303.09 3.68 303.09 2.89 302.03 2.89 302.03 .86 302.69 .86 302.69 .07 300.58 .07 300.58 .86 301.24 .86 301.24 2.89 300.19 2.89"/>
    <polygon class="cls-4" points="297.3 2.89 297.3 3.68 300.19 3.68 300.19 2.89 299.14 2.89 299.14 .86 299.8 .86 299.8 .07 297.68 .07 297.68 .86 298.35 .86 298.35 2.89 297.3 2.89"/>
    <polygon class="cls-4" points="294.41 2.89 294.41 3.68 297.3 3.68 297.3 2.89 296.24 2.89 296.24 .86 296.91 .86 296.91 .07 294.79 .07 294.79 .86 295.45 .86 295.45 2.89 294.41 2.89"/>
    <polygon class="cls-4" points="291.51 2.89 291.51 3.68 294.41 3.68 294.41 2.89 293.35 2.89 293.35 .86 294.01 .86 294.01 .07 291.9 .07 291.9 .86 292.56 .86 292.56 2.89 291.51 2.89"/>
    <polygon class="cls-4" points="288.62 2.89 288.62 3.68 291.51 3.68 291.51 2.89 290.46 2.89 290.46 .86 291.12 .86 291.12 .07 289.01 .07 289.01 .86 289.67 .86 289.67 2.89 288.62 2.89"/>
    <polygon class="cls-4" points="285.73 2.89 285.73 3.68 288.62 3.68 288.62 2.89 287.57 2.89 287.57 .86 288.23 .86 288.23 .07 286.11 .07 286.11 .86 286.77 .86 286.77 2.89 285.73 2.89"/>
    <polygon class="cls-4" points="282.84 2.89 282.84 3.68 285.73 3.68 285.73 2.89 284.67 2.89 284.67 .86 285.34 .86 285.34 .07 283.22 .07 283.22 .86 283.88 .86 283.88 2.89 282.84 2.89"/>
    <polygon class="cls-4" points="279.94 2.89 279.94 3.68 282.84 3.68 282.84 2.89 281.78 2.89 281.78 .86 282.44 .86 282.44 .07 280.33 .07 280.33 .86 280.99 .86 280.99 2.89 279.94 2.89"/>
    <polygon class="cls-4" points="277.05 2.89 277.05 3.68 279.94 3.68 279.94 2.89 278.89 2.89 278.89 .86 279.55 .86 279.55 .07 277.43 .07 277.43 .86 278.1 .86 278.1 2.89 277.05 2.89"/>
    <polygon class="cls-4" points="274.16 2.89 274.16 3.68 277.05 3.68 277.05 2.89 275.99 2.89 275.99 .86 276.66 .86 276.66 .07 274.54 .07 274.54 .86 275.2 .86 275.2 2.89 274.16 2.89"/>
    <polygon class="cls-4" points="271.26 2.89 271.26 3.68 274.16 3.68 274.16 2.89 273.1 2.89 273.1 .86 273.76 .86 273.76 .07 271.65 .07 271.65 .86 272.31 .86 272.31 2.89 271.26 2.89"/>
    <polygon class="cls-4" points="268.37 2.89 268.37 3.68 271.26 3.68 271.26 2.89 270.21 2.89 270.21 .86 270.87 .86 270.87 .07 268.75 .07 268.75 .86 269.42 .86 269.42 2.89 268.37 2.89"/>
    <polygon class="cls-4" points="265.48 2.89 265.48 3.68 268.37 3.68 268.37 2.89 267.32 2.89 267.32 .86 267.98 .86 267.98 .07 265.86 .07 265.86 .86 266.52 .86 266.52 2.89 265.48 2.89"/>
    <polygon class="cls-4" points="262.58 2.89 262.58 3.68 265.48 3.68 265.48 2.89 264.42 2.89 264.42 .86 265.08 .86 265.08 .07 262.97 .07 262.97 .86 263.63 .86 263.63 2.89 262.58 2.89"/>
    <polygon class="cls-4" points="259.69 2.89 259.69 3.68 262.58 3.68 262.58 2.89 261.53 2.89 261.53 .86 262.19 .86 262.19 .07 260.08 .07 260.08 .86 260.74 .86 260.74 2.89 259.69 2.89"/>
    <polygon class="cls-4" points="256.8 2.89 256.8 3.68 259.69 3.68 259.69 2.89 258.64 2.89 258.64 .86 259.3 .86 259.3 .07 257.18 .07 257.18 .86 257.84 .86 257.84 2.89 256.8 2.89"/>
    <polygon class="cls-4" points="253.91 2.89 253.91 3.68 256.8 3.68 256.8 2.89 255.74 2.89 255.74 .86 256.41 .86 256.41 .07 254.29 .07 254.29 .86 254.95 .86 254.95 2.89 253.91 2.89"/>
    <polygon class="cls-4" points="251.01 2.89 251.01 3.68 253.91 3.68 253.91 2.89 252.85 2.89 252.85 .86 253.51 .86 253.51 .07 251.4 .07 251.4 .86 252.06 .86 252.06 2.89 251.01 2.89"/>
    <polygon class="cls-4" points="248.12 2.89 248.12 3.68 251.01 3.68 251.01 2.89 249.96 2.89 249.96 .86 250.62 .86 250.62 .07 248.5 .07 248.5 .86 249.17 .86 249.17 2.89 248.12 2.89"/>
    <polygon class="cls-4" points="245.23 2.89 245.23 3.68 248.12 3.68 248.12 2.89 247.06 2.89 247.06 .86 247.73 .86 247.73 .07 245.61 .07 245.61 .86 246.27 .86 246.27 2.89 245.23 2.89"/>
    <polygon class="cls-4" points="242.33 2.89 242.33 3.68 245.23 3.68 245.23 2.89 244.17 2.89 244.17 .86 244.83 .86 244.83 .07 242.72 .07 242.72 .86 243.38 .86 243.38 2.89 242.33 2.89"/>
    <polygon class="cls-4" points="239.44 2.89 239.44 3.68 242.33 3.68 242.33 2.89 241.28 2.89 241.28 .86 241.94 .86 241.94 .07 239.82 .07 239.82 .86 240.49 .86 240.49 2.89 239.44 2.89"/>
    <polygon class="cls-4" points="236.55 2.89 236.55 3.68 239.44 3.68 239.44 2.89 238.39 2.89 238.39 .86 239.05 .86 239.05 .07 236.93 .07 236.93 .86 237.59 .86 237.59 2.89 236.55 2.89"/>
    <polygon class="cls-4" points="233.65 2.89 233.65 3.68 236.55 3.68 236.55 2.89 235.49 2.89 235.49 .86 236.15 .86 236.15 .07 234.04 .07 234.04 .86 234.7 .86 234.7 2.89 233.65 2.89"/>
    <polygon class="cls-4" points="230.76 2.89 230.76 3.68 233.65 3.68 233.65 2.89 232.6 2.89 232.6 .86 233.26 .86 233.26 .07 231.15 .07 231.15 .86 231.81 .86 231.81 2.89 230.76 2.89"/>
    <polygon class="cls-4" points="227.87 2.89 227.87 3.68 230.76 3.68 230.76 2.89 229.71 2.89 229.71 .86 230.37 .86 230.37 .07 228.25 .07 228.25 .86 228.91 .86 228.91 2.89 227.87 2.89"/>
    <polygon class="cls-4" points="224.98 2.89 224.98 3.68 227.87 3.68 227.87 2.89 226.81 2.89 226.81 .86 227.48 .86 227.48 .07 225.36 .07 225.36 .86 226.02 .86 226.02 2.89 224.98 2.89"/>
    <polygon class="cls-4" points="222.08 2.89 222.08 3.68 224.98 3.68 224.98 2.89 223.92 2.89 223.92 .86 224.58 .86 224.58 .07 222.47 .07 222.47 .86 223.13 .86 223.13 2.89 222.08 2.89"/>
    <polygon class="cls-4" points="219.19 2.89 219.19 3.68 222.08 3.68 222.08 2.89 221.03 2.89 221.03 .86 221.69 .86 221.69 .07 219.57 .07 219.57 .86 220.24 .86 220.24 2.89 219.19 2.89"/>
    <polygon class="cls-4" points="216.3 2.89 216.3 3.68 219.19 3.68 219.19 2.89 218.13 2.89 218.13 .86 218.8 .86 218.8 .07 216.68 .07 216.68 .86 217.34 .86 217.34 2.89 216.3 2.89"/>
    <polygon class="cls-4" points="213.4 2.89 213.4 3.68 216.3 3.68 216.3 2.89 215.24 2.89 215.24 .86 215.9 .86 215.9 .07 213.79 .07 213.79 .86 214.45 .86 214.45 2.89 213.4 2.89"/>
    <polygon class="cls-4" points="210.51 2.89 210.51 3.68 213.4 3.68 213.4 2.89 212.35 2.89 212.35 .86 213.01 .86 213.01 .07 210.89 .07 210.89 .86 211.56 .86 211.56 2.89 210.51 2.89"/>
    <polygon class="cls-4" points="207.62 2.89 207.62 3.68 210.51 3.68 210.51 2.89 209.46 2.89 209.46 .86 210.12 .86 210.12 .07 208 .07 208 .86 208.66 .86 208.66 2.89 207.62 2.89"/>
    <polygon class="cls-4" points="204.72 2.89 204.72 3.68 207.62 3.68 207.62 2.89 206.56 2.89 206.56 .86 207.22 .86 207.22 .07 205.11 .07 205.11 .86 205.77 .86 205.77 2.89 204.72 2.89"/>
    <polygon class="cls-4" points="201.83 2.89 201.83 3.68 204.72 3.68 204.72 2.89 203.67 2.89 203.67 .86 204.33 .86 204.33 .07 202.22 .07 202.22 .86 202.88 .86 202.88 2.89 201.83 2.89"/>
    <polygon class="cls-4" points="198.94 2.89 198.94 3.68 201.83 3.68 201.83 2.89 200.78 2.89 200.78 .86 201.44 .86 201.44 .07 199.32 .07 199.32 .86 199.99 .86 199.99 2.89 198.94 2.89"/>
    <polygon class="cls-4" points="196.05 2.89 196.05 3.68 198.94 3.68 198.94 2.89 197.88 2.89 197.88 .86 198.55 .86 198.55 .07 196.43 .07 196.43 .86 197.09 .86 197.09 2.89 196.05 2.89"/>
    <polygon class="cls-4" points="193.15 2.89 193.15 3.68 196.05 3.68 196.05 2.89 194.99 2.89 194.99 .86 195.65 .86 195.65 .07 193.54 .07 193.54 .86 194.2 .86 194.2 2.89 193.15 2.89"/>
    <polygon class="cls-4" points="190.26 2.89 190.26 3.68 193.15 3.68 193.15 2.89 192.1 2.89 192.1 .86 192.76 .86 192.76 .07 190.64 .07 190.64 .86 191.31 .86 191.31 2.89 190.26 2.89"/>
    <polygon class="cls-4" points="187.37 2.89 187.37 3.68 190.26 3.68 190.26 2.89 189.2 2.89 189.2 .86 189.87 .86 189.87 .07 187.75 .07 187.75 .86 188.41 .86 188.41 2.89 187.37 2.89"/>
    <polygon class="cls-4" points="184.47 2.89 184.47 3.68 187.37 3.68 187.37 2.89 186.31 2.89 186.31 .86 186.97 .86 186.97 .07 184.86 .07 184.86 .86 185.52 .86 185.52 2.89 184.47 2.89"/>
    <polygon class="cls-4" points="181.58 2.89 181.58 3.68 184.47 3.68 184.47 2.89 183.42 2.89 183.42 .86 184.08 .86 184.08 .07 181.97 .07 181.97 .86 182.63 .86 182.63 2.89 181.58 2.89"/>
    <polygon class="cls-4" points="178.69 2.89 178.69 3.68 181.58 3.68 181.58 2.89 180.53 2.89 180.53 .86 181.19 .86 181.19 .07 179.07 .07 179.07 .86 179.73 .86 179.73 2.89 178.69 2.89"/>
    <polygon class="cls-4" points="175.79 2.89 175.79 3.68 178.69 3.68 178.69 2.89 177.63 2.89 177.63 .86 178.29 .86 178.29 .07 176.18 .07 176.18 .86 176.84 .86 176.84 2.89 175.79 2.89"/>
    <polygon class="cls-4" points="172.9 2.89 172.9 3.68 175.79 3.68 175.79 2.89 174.74 2.89 174.74 .86 175.4 .86 175.4 .07 173.29 .07 173.29 .86 173.95 .86 173.95 2.89 172.9 2.89"/>
    <polygon class="cls-4" points="170.01 2.89 170.01 3.68 172.9 3.68 172.9 2.89 171.85 2.89 171.85 .86 172.51 .86 172.51 .07 170.39 .07 170.39 .86 171.06 .86 171.06 2.89 170.01 2.89"/>
    <polygon class="cls-4" points="167.12 2.89 167.12 3.68 170.01 3.68 170.01 2.89 168.95 2.89 168.95 .86 169.62 .86 169.62 .07 167.5 .07 167.5 .86 168.16 .86 168.16 2.89 167.12 2.89"/>
    <polygon class="cls-4" points="164.22 2.89 164.22 3.68 167.12 3.68 167.12 2.89 166.06 2.89 166.06 .86 166.72 .86 166.72 .07 164.61 .07 164.61 .86 165.27 .86 165.27 2.89 164.22 2.89"/>
    <polygon class="cls-4" points="161.33 2.89 161.33 3.68 164.22 3.68 164.22 2.89 163.17 2.89 163.17 .86 163.83 .86 163.83 .07 161.71 .07 161.71 .86 162.38 .86 162.38 2.89 161.33 2.89"/>
    <polygon class="cls-4" points="158.44 2.89 158.44 3.68 161.33 3.68 161.33 2.89 160.27 2.89 160.27 .86 160.94 .86 160.94 .07 158.82 .07 158.82 .86 159.48 .86 159.48 2.89 158.44 2.89"/>
    <polygon class="cls-4" points="155.54 2.89 155.54 3.68 158.44 3.68 158.44 2.89 157.38 2.89 157.38 .86 158.04 .86 158.04 .07 155.93 .07 155.93 .86 156.59 .86 156.59 2.89 155.54 2.89"/>
    <polygon class="cls-4" points="152.65 2.89 152.65 3.68 155.54 3.68 155.54 2.89 154.49 2.89 154.49 .86 155.15 .86 155.15 .07 153.04 .07 153.04 .86 153.7 .86 153.7 2.89 152.65 2.89"/>
    <polygon class="cls-4" points="149.76 2.89 149.76 3.68 152.65 3.68 152.65 2.89 151.6 2.89 151.6 .86 152.26 .86 152.26 .07 150.14 .07 150.14 .86 150.8 .86 150.8 2.89 149.76 2.89"/>
    <polygon class="cls-4" points="146.86 2.89 146.86 3.68 149.76 3.68 149.76 2.89 148.7 2.89 148.7 .86 149.36 .86 149.36 .07 147.25 .07 147.25 .86 147.91 .86 147.91 2.89 146.86 2.89"/>
    <polygon class="cls-4" points="143.97 2.89 143.97 3.68 146.86 3.68 146.86 2.89 145.81 2.89 145.81 .86 146.47 .86 146.47 .07 144.36 .07 144.36 .86 145.02 .86 145.02 2.89 143.97 2.89"/>
    <polygon class="cls-4" points="141.08 2.89 141.08 3.68 143.97 3.68 143.97 2.89 142.92 2.89 142.92 .86 143.58 .86 143.58 .07 141.46 .07 141.46 .86 142.13 .86 142.13 2.89 141.08 2.89"/>
    <polygon class="cls-4" points="138.19 2.89 138.19 3.68 141.08 3.68 141.08 2.89 140.02 2.89 140.02 .86 140.69 .86 140.69 .07 138.57 .07 138.57 .86 139.23 .86 139.23 2.89 138.19 2.89"/>
    <polygon class="cls-4" points="135.29 2.89 135.29 3.68 138.19 3.68 138.19 2.89 137.13 2.89 137.13 .86 137.79 .86 137.79 .07 135.68 .07 135.68 .86 136.34 .86 136.34 2.89 135.29 2.89"/>
    <polygon class="cls-4" points="132.4 2.89 132.4 3.68 135.29 3.68 135.29 2.89 134.24 2.89 134.24 .86 134.9 .86 134.9 .07 132.78 .07 132.78 .86 133.45 .86 133.45 2.89 132.4 2.89"/>
    <polygon class="cls-4" points="129.51 2.89 129.51 3.68 132.4 3.68 132.4 2.89 131.34 2.89 131.34 .86 132.01 .86 132.01 .07 129.89 .07 129.89 .86 130.55 .86 130.55 2.89 129.51 2.89"/>
    <polygon class="cls-4" points="126.61 2.89 126.61 3.68 129.51 3.68 129.51 2.89 128.45 2.89 128.45 .86 129.11 .86 129.11 .07 127 .07 127 .86 127.66 .86 127.66 2.89 126.61 2.89"/>
    <polygon class="cls-4" points="123.72 2.89 123.72 3.68 126.61 3.68 126.61 2.89 125.56 2.89 125.56 .86 126.22 .86 126.22 .07 124.11 .07 124.11 .86 124.77 .86 124.77 2.89 123.72 2.89"/>
    <polygon class="cls-4" points="120.83 2.89 120.83 3.68 123.72 3.68 123.72 2.89 122.67 2.89 122.67 .86 123.33 .86 123.33 .07 121.21 .07 121.21 .86 121.87 .86 121.87 2.89 120.83 2.89"/>
    <polygon class="cls-4" points="117.93 2.89 117.93 3.68 120.83 3.68 120.83 2.89 119.77 2.89 119.77 .86 120.43 .86 120.43 .07 118.32 .07 118.32 .86 118.98 .86 118.98 2.89 117.93 2.89"/>
    <polygon class="cls-4" points="115.04 2.89 115.04 3.68 117.93 3.68 117.93 2.89 116.88 2.89 116.88 .86 117.54 .86 117.54 .07 115.43 .07 115.43 .86 116.09 .86 116.09 2.89 115.04 2.89"/>
    <polygon class="cls-4" points="112.15 2.89 112.15 3.68 115.04 3.68 115.04 2.89 113.99 2.89 113.99 .86 114.65 .86 114.65 .07 112.53 .07 112.53 .86 113.2 .86 113.2 2.89 112.15 2.89"/>
    <polygon class="cls-4" points="109.26 2.89 109.26 3.68 112.15 3.68 112.15 2.89 111.09 2.89 111.09 .86 111.76 .86 111.76 .07 109.64 .07 109.64 .86 110.3 .86 110.3 2.89 109.26 2.89"/>
    <polygon class="cls-4" points="106.36 2.89 106.36 3.68 109.26 3.68 109.26 2.89 108.2 2.89 108.2 .86 108.86 .86 108.86 .07 106.75 .07 106.75 .86 107.41 .86 107.41 2.89 106.36 2.89"/>
    <polygon class="cls-4" points="103.47 2.89 103.47 3.68 106.36 3.68 106.36 2.89 105.31 2.89 105.31 .86 105.97 .86 105.97 .07 103.85 .07 103.85 .86 104.52 .86 104.52 2.89 103.47 2.89"/>
    <polygon class="cls-4" points="100.58 2.89 100.58 3.68 103.47 3.68 103.47 2.89 102.41 2.89 102.41 .86 103.08 .86 103.08 .07 100.96 .07 100.96 .86 101.62 .86 101.62 2.89 100.58 2.89"/>
    <polygon class="cls-4" points="97.68 2.89 97.68 3.68 100.58 3.68 100.58 2.89 99.52 2.89 99.52 .86 100.18 .86 100.18 .07 98.07 .07 98.07 .86 98.73 .86 98.73 2.89 97.68 2.89"/>
    <polygon class="cls-4" points="94.79 2.89 94.79 3.68 97.68 3.68 97.68 2.89 96.63 2.89 96.63 .86 97.29 .86 97.29 .07 95.18 .07 95.18 .86 95.84 .86 95.84 2.89 94.79 2.89"/>
    <polygon class="cls-4" points="91.9 2.89 91.9 3.68 94.79 3.68 94.79 2.89 93.74 2.89 93.74 .86 94.4 .86 94.4 .07 92.28 .07 92.28 .86 92.94 .86 92.94 2.89 91.9 2.89"/>
    <polygon class="cls-4" points="89.01 2.89 89.01 3.68 91.9 3.68 91.9 2.89 90.84 2.89 90.84 .86 91.51 .86 91.51 .07 89.39 .07 89.39 .86 90.05 .86 90.05 2.89 89.01 2.89"/>
    <polygon class="cls-4" points="86.11 2.89 86.11 3.68 89.01 3.68 89.01 2.89 87.95 2.89 87.95 .86 88.61 .86 88.61 .07 86.5 .07 86.5 .86 87.16 .86 87.16 2.89 86.11 2.89"/>
    <polygon class="cls-4" points="83.22 2.89 83.22 3.68 86.11 3.68 86.11 2.89 85.06 2.89 85.06 .86 85.72 .86 85.72 .07 83.6 .07 83.6 .86 84.27 .86 84.27 2.89 83.22 2.89"/>
    <polygon class="cls-4" points="80.33 2.89 80.33 3.68 83.22 3.68 83.22 2.89 82.16 2.89 82.16 .86 82.83 .86 82.83 .07 80.71 .07 80.71 .86 81.37 .86 81.37 2.89 80.33 2.89"/>
    <polygon class="cls-4" points="77.43 2.89 77.43 3.68 80.33 3.68 80.33 2.89 79.27 2.89 79.27 .86 79.93 .86 79.93 .07 77.82 .07 77.82 .86 78.48 .86 78.48 2.89 77.43 2.89"/>
    <polygon class="cls-4" points="74.54 2.89 74.54 3.68 77.43 3.68 77.43 2.89 76.38 2.89 76.38 .86 77.04 .86 77.04 .07 74.92 .07 74.92 .86 75.59 .86 75.59 2.89 74.54 2.89"/>
    <polygon class="cls-4" points="71.65 2.89 71.65 3.68 74.54 3.68 74.54 2.89 73.49 2.89 73.49 .86 74.15 .86 74.15 .07 72.03 .07 72.03 .86 72.69 .86 72.69 2.89 71.65 2.89"/>
    <polygon class="cls-4" points="68.75 2.89 68.75 3.68 71.65 3.68 71.65 2.89 70.59 2.89 70.59 .86 71.25 .86 71.25 .07 69.14 .07 69.14 .86 69.8 .86 69.8 2.89 68.75 2.89"/>
    <polygon class="cls-4" points="65.86 2.89 65.86 3.68 68.75 3.68 68.75 2.89 67.7 2.89 67.7 .86 68.36 .86 68.36 .07 66.25 .07 66.25 .86 66.91 .86 66.91 2.89 65.86 2.89"/>
    <polygon class="cls-4" points="62.97 2.89 62.97 3.68 65.86 3.68 65.86 2.89 64.81 2.89 64.81 .86 65.47 .86 65.47 .07 63.35 .07 63.35 .86 64.01 .86 64.01 2.89 62.97 2.89"/>
    <polygon class="cls-4" points="60.08 2.89 60.08 3.68 62.97 3.68 62.97 2.89 61.91 2.89 61.91 .86 62.58 .86 62.58 .07 60.46 .07 60.46 .86 61.12 .86 61.12 2.89 60.08 2.89"/>
    <polygon class="cls-4" points="57.18 2.89 57.18 3.68 60.08 3.68 60.08 2.89 59.02 2.89 59.02 .86 59.68 .86 59.68 .07 57.57 .07 57.57 .86 58.23 .86 58.23 2.89 57.18 2.89"/>
    <polygon class="cls-4" points="54.29 2.89 54.29 3.68 57.18 3.68 57.18 2.89 56.13 2.89 56.13 .86 56.79 .86 56.79 .07 54.67 .07 54.67 .86 55.34 .86 55.34 2.89 54.29 2.89"/>
    <polygon class="cls-4" points="51.4 2.89 51.4 3.68 54.29 3.68 54.29 2.89 53.23 2.89 53.23 .86 53.9 .86 53.9 .07 51.78 .07 51.78 .86 52.44 .86 52.44 2.89 51.4 2.89"/>
    <polygon class="cls-4" points="48.5 2.89 48.5 3.68 51.4 3.68 51.4 2.89 50.34 2.89 50.34 .86 51 .86 51 .07 48.89 .07 48.89 .86 49.55 .86 49.55 2.89 48.5 2.89"/>
    <polygon class="cls-4" points="45.61 2.89 45.61 3.68 48.5 3.68 48.5 2.89 47.45 2.89 47.45 .86 48.11 .86 48.11 .07 45.99 .07 45.99 .86 46.66 .86 46.66 2.89 45.61 2.89"/>
    <polygon class="cls-4" points="42.72 2.89 42.72 3.68 45.61 3.68 45.61 2.89 44.56 2.89 44.56 .86 45.22 .86 45.22 .07 43.1 .07 43.1 .86 43.76 .86 43.76 2.89 42.72 2.89"/>
    <polygon class="cls-4" points="39.82 2.89 39.82 3.68 42.72 3.68 42.72 2.89 41.66 2.89 41.66 .86 42.32 .86 42.32 .07 40.21 .07 40.21 .86 40.87 .86 40.87 2.89 39.82 2.89"/>
    <polygon class="cls-4" points="36.93 2.89 36.93 3.68 39.82 3.68 39.82 2.89 38.77 2.89 38.77 .86 39.43 .86 39.43 .07 37.32 .07 37.32 .86 37.98 .86 37.98 2.89 36.93 2.89"/>
    <polygon class="cls-4" points="34.04 2.89 34.04 3.68 36.93 3.68 36.93 2.89 35.88 2.89 35.88 .86 36.54 .86 36.54 .07 34.42 .07 34.42 .86 35.08 .86 35.08 2.89 34.04 2.89"/>
    <polygon class="cls-4" points="31.15 2.89 31.15 3.68 34.04 3.68 34.04 2.89 32.98 2.89 32.98 .86 33.65 .86 33.65 .07 31.53 .07 31.53 .86 32.19 .86 32.19 2.89 31.15 2.89"/>
    <polygon class="cls-4" points="28.25 2.89 28.25 3.68 31.15 3.68 31.15 2.89 30.09 2.89 30.09 .86 30.75 .86 30.75 .07 28.64 .07 28.64 .86 29.3 .86 29.3 2.89 28.25 2.89"/>
    <polygon class="cls-4" points="25.36 2.89 25.36 3.68 28.25 3.68 28.25 2.89 27.2 2.89 27.2 .86 27.86 .86 27.86 .07 25.74 .07 25.74 .86 26.41 .86 26.41 2.89 25.36 2.89"/>
    <polygon class="cls-4" points="22.47 2.89 22.47 3.68 25.36 3.68 25.36 2.89 24.3 2.89 24.3 .86 24.97 .86 24.97 .07 22.85 .07 22.85 .86 23.51 .86 23.51 2.89 22.47 2.89"/>
    <polygon class="cls-4" points="19.57 2.89 19.57 3.68 22.47 3.68 22.47 2.89 21.41 2.89 21.41 .86 22.07 .86 22.07 .07 19.96 .07 19.96 .86 20.62 .86 20.62 2.89 19.57 2.89"/>
    <polygon class="cls-4" points="16.68 2.89 16.68 3.68 19.57 3.68 19.57 2.89 18.52 2.89 18.52 .86 19.18 .86 19.18 .07 17.06 .07 17.06 .86 17.73 .86 17.73 2.89 16.68 2.89"/>
    <polygon class="cls-4" points="13.79 2.89 13.79 3.68 16.68 3.68 16.68 2.89 15.63 2.89 15.63 .86 16.29 .86 16.29 .07 14.17 .07 14.17 .86 14.83 .86 14.83 2.89 13.79 2.89"/>
    <polygon class="cls-4" points="10.89 2.89 10.89 3.68 13.79 3.68 13.79 2.89 12.73 2.89 12.73 .86 13.39 .86 13.39 .07 11.28 .07 11.28 .86 11.94 .86 11.94 2.89 10.89 2.89"/>
    <polygon class="cls-4" points="8 2.89 8 3.68 10.89 3.68 10.89 2.89 9.84 2.89 9.84 .86 10.5 .86 10.5 .07 8.39 .07 8.39 .86 9.05 .86 9.05 2.89 8 2.89"/>
    <polygon class="cls-4" points="5.11 2.89 5.11 3.68 8 3.68 8 2.89 6.95 2.89 6.95 .86 7.61 .86 7.61 .07 5.49 .07 5.49 .86 6.16 .86 6.16 2.89 5.11 2.89"/>
    <polygon class="cls-4" points="4.32 6.67 5.11 6.67 5.11 3.68 4.32 3.68 4.32 4.77 2.29 4.77 2.29 4.08 1.5 4.08 1.5 6.27 2.29 6.27 2.29 5.59 4.32 5.59 4.32 6.67"/>
    <polygon class="cls-4" points="4.32 9.65 5.11 9.65 5.11 6.67 4.32 6.67 4.32 7.76 2.29 7.76 2.29 7.07 1.5 7.07 1.5 9.26 2.29 9.26 2.29 8.57 4.32 8.57 4.32 9.65"/>
    <polygon class="cls-4" points="4.32 12.64 5.11 12.64 5.11 9.65 4.32 9.65 4.32 10.74 2.29 10.74 2.29 10.06 1.5 10.06 1.5 12.24 2.29 12.24 2.29 11.56 4.32 11.56 4.32 12.64"/>
    <polygon class="cls-4" points="4.32 15.63 5.11 15.63 5.11 12.64 4.32 12.64 4.32 13.73 2.29 13.73 2.29 13.05 1.5 13.05 1.5 15.23 2.29 15.23 2.29 14.55 4.32 14.55 4.32 15.63"/>
    <polygon class="cls-4" points="4.32 18.61 5.11 18.61 5.11 15.63 4.32 15.63 4.32 16.72 2.29 16.72 2.29 16.03 1.5 16.03 1.5 18.22 2.29 18.22 2.29 17.53 4.32 17.53 4.32 18.61"/>
    <polygon class="cls-4" points="4.32 21.6 5.11 21.6 5.11 18.61 4.32 18.61 4.32 19.7 2.29 19.7 2.29 19.02 1.5 19.02 1.5 21.2 2.29 21.2 2.29 20.52 4.32 20.52 4.32 21.6"/>
    <polygon class="cls-4" points="4.32 24.59 5.11 24.59 5.11 21.6 4.32 21.6 4.32 22.69 2.29 22.69 2.29 22.01 1.5 22.01 1.5 24.19 2.29 24.19 2.29 23.51 4.32 23.51 4.32 24.59"/>
    <polygon class="cls-4" points="4.32 27.57 5.11 27.57 5.11 24.59 4.32 24.59 4.32 25.68 2.29 25.68 2.29 24.99 1.5 24.99 1.5 27.18 2.29 27.18 2.29 26.49 4.32 26.49 4.32 27.57"/>
    <g class="cls-8">
      <polygon class="cls-4" points="463.16 67.55 463.23 66.76 459.31 66.42 459.24 67.21 460.67 67.33 460.5 69.36 459.6 69.28 459.53 70.07 462.4 70.31 462.46 69.53 461.57 69.45 461.74 67.42 463.16 67.55"/>
    </g>
    <g class="cls-6">
      <polygon class="cls-4" points="460.1 66.42 459.31 66.42 459.31 70.36 460.1 70.36 460.1 68.92 462.13 68.92 462.13 69.82 462.92 69.82 462.92 66.95 462.13 66.95 462.13 67.85 460.1 67.85 460.1 66.42"/>
    </g>
    <g class="cls-1">
      <polygon class="cls-4" points="460.1 .07 459.31 .07 459.31 3.68 460.1 3.68 460.1 2.36 462.13 2.36 462.13 3.19 462.92 3.19 462.92 .55 462.13 .55 462.13 1.37 460.1 1.37 460.1 .07"/>
    </g>
    <g class="cls-9">
      <polygon class="cls-4" points="459.31 2.89 459.31 3.68 462.92 3.68 462.92 2.89 461.6 2.89 461.6 .86 462.43 .86 462.43 .07 459.79 .07 459.79 .86 460.61 .86 460.61 2.89 459.31 2.89"/>
    </g>
    <g class="cls-7">
      <polygon class="cls-4" points="1.5 2.89 1.5 3.68 5.11 3.68 5.11 2.89 3.79 2.89 3.79 .86 4.62 .86 4.62 .07 1.98 .07 1.98 .86 2.8 .86 2.8 2.89 1.5 2.89"/>
    </g>
    <g class="cls-10">
      <polygon class="cls-4" points="4.32 3.68 5.11 3.68 5.11 .07 4.32 .07 4.32 1.39 2.29 1.39 2.29 .56 1.5 .56 1.5 3.2 2.29 3.2 2.29 2.37 4.32 2.37 4.32 3.68"/>
    </g>
    <g class="cls-2">
      <polygon class="cls-4" points="4.32 30.89 5.11 30.89 5.11 27.57 4.32 27.57 4.32 28.78 2.29 28.78 2.29 28.02 1.5 28.02 1.5 30.45 2.29 30.45 2.29 29.69 4.32 29.69 4.32 30.89"/>
    </g>
    <g class="cls-5">
      <polygon class="cls-4" points="5.04 28.36 5.11 27.57 1.81 27.29 1.74 28.08 2.94 28.18 2.77 30.21 2.01 30.14 1.95 30.93 4.36 31.13 4.43 30.35 3.67 30.28 3.85 28.26 5.04 28.36"/>
    </g>
  </g>
</svg>