<?xml version="1.0" encoding="UTF-8"?>
<svg id="Layer_1" data-name="Layer 1" xmlns="http://www.w3.org/2000/svg" version="1.1" xmlns:xlink="http://www.w3.org/1999/xlink" viewBox="0 0 72.64 70.38">
  <defs>
    <style>
      .cls-1 {
        clip-path: url(#clippath-2);
      }

      .cls-2 {
        clip-path: url(#clippath-6);
      }

      .cls-3 {
        fill: #4e4545;
      }

      .cls-3, .cls-4, .cls-5 {
        stroke-width: 0px;
      }

      .cls-4 {
        fill: none;
      }

      .cls-6 {
        clip-path: url(#clippath-7);
      }

      .cls-7 {
        clip-path: url(#clippath-1);
      }

      .cls-8 {
        clip-path: url(#clippath-4);
      }

      .cls-9 {
        clip-path: url(#clippath);
      }

      .cls-10 {
        clip-path: url(#clippath-3);
      }

      .cls-5 {
        fill: #fff;
      }

      .cls-11 {
        clip-path: url(#clippath-5);
      }
    </style>
    <clipPath id="clippath">
      <polygon class="cls-4" points="5.3 5.15 .25 .09 .25 5.15 5.3 5.15"/>
    </clipPath>
    <clipPath id="clippath-1">
      <polygon class="cls-4" points="5.3 5.15 .25 .09 5.3 .09 5.3 5.15"/>
    </clipPath>
    <clipPath id="clippath-2">
      <polygon class="cls-4" points="67.5 5.15 72.55 .09 67.5 .09 67.5 5.15"/>
    </clipPath>
    <clipPath id="clippath-3">
      <polygon class="cls-4" points="67.5 5.15 72.55 .09 72.55 5.15 67.5 5.15"/>
    </clipPath>
    <clipPath id="clippath-4">
      <polygon class="cls-4" points="67.5 65.23 72.55 70.28 72.55 65.23 67.5 65.23"/>
    </clipPath>
    <clipPath id="clippath-5">
      <polygon class="cls-4" points="67.5 65.23 72.55 70.28 67.5 70.28 67.5 65.23"/>
    </clipPath>
    <clipPath id="clippath-6">
      <polygon class="cls-4" points="5.3 65.23 .25 70.28 5.3 70.28 5.3 65.23"/>
    </clipPath>
    <clipPath id="clippath-7">
      <polygon class="cls-4" points="5.3 65.23 .25 70.28 .25 65.23 5.3 65.23"/>
    </clipPath>
  </defs>
  <g>
    <rect class="cls-3" x="2.78" y="2.62" width="67.24" height="65.13"/>
    <g>
      <polygon class="cls-3" points="4.36 61.69 5.3 61.69 5.3 65.23 4.36 65.23 4.36 63.94 1.2 63.94 1.2 64.75 .25 64.75 .25 62.16 1.2 62.16 1.2 62.97 4.36 62.97 4.36 61.69"/>
      <polygon class="cls-3" points="4.36 58.16 5.3 58.16 5.3 61.69 4.36 61.69 4.36 60.4 1.2 60.4 1.2 61.21 .25 61.21 .25 58.63 1.2 58.63 1.2 59.44 4.36 59.44 4.36 58.16"/>
      <polygon class="cls-3" points="4.36 54.62 5.3 54.62 5.3 58.16 4.36 58.16 4.36 56.87 1.2 56.87 1.2 57.68 .25 57.68 .25 55.09 1.2 55.09 1.2 55.9 4.36 55.9 4.36 54.62"/>
      <polygon class="cls-3" points="4.36 51.09 5.3 51.09 5.3 54.62 4.36 54.62 4.36 53.33 1.2 53.33 1.2 54.14 .25 54.14 .25 51.56 1.2 51.56 1.2 52.37 4.36 52.37 4.36 51.09"/>
      <polygon class="cls-3" points="4.36 47.56 5.3 47.56 5.3 51.09 4.36 51.09 4.36 49.8 1.2 49.8 1.2 50.61 .25 50.61 .25 48.03 1.2 48.03 1.2 48.83 4.36 48.83 4.36 47.56"/>
      <polygon class="cls-3" points="4.36 44.02 5.3 44.02 5.3 47.56 4.36 47.56 4.36 46.27 1.2 46.27 1.2 47.08 .25 47.08 .25 44.49 1.2 44.49 1.2 45.3 4.36 45.3 4.36 44.02"/>
      <polygon class="cls-3" points="4.36 40.49 5.3 40.49 5.3 44.02 4.36 44.02 4.36 42.73 1.2 42.73 1.2 43.54 .25 43.54 .25 40.96 1.2 40.96 1.2 41.77 4.36 41.77 4.36 40.49"/>
      <polygon class="cls-3" points="4.36 36.95 5.3 36.95 5.3 40.49 4.36 40.49 4.36 39.2 1.2 39.2 1.2 40.01 .25 40.01 .25 37.42 1.2 37.42 1.2 38.23 4.36 38.23 4.36 36.95"/>
      <polygon class="cls-3" points="4.36 33.42 5.3 33.42 5.3 36.95 4.36 36.95 4.36 35.67 1.2 35.67 1.2 36.47 .25 36.47 .25 33.89 1.2 33.89 1.2 34.7 4.36 34.7 4.36 33.42"/>
      <polygon class="cls-3" points="4.36 29.89 5.3 29.89 5.3 33.42 4.36 33.42 4.36 32.13 1.2 32.13 1.2 32.94 .25 32.94 .25 30.36 1.2 30.36 1.2 31.16 4.36 31.16 4.36 29.89"/>
      <polygon class="cls-3" points="4.36 26.35 5.3 26.35 5.3 29.89 4.36 29.89 4.36 28.6 1.2 28.6 1.2 29.41 .25 29.41 .25 26.82 1.2 26.82 1.2 27.63 4.36 27.63 4.36 26.35"/>
      <polygon class="cls-3" points="4.36 22.82 5.3 22.82 5.3 26.35 4.36 26.35 4.36 25.06 1.2 25.06 1.2 25.87 .25 25.87 .25 23.29 1.2 23.29 1.2 24.1 4.36 24.1 4.36 22.82"/>
      <polygon class="cls-3" points="4.36 19.28 5.3 19.28 5.3 22.82 4.36 22.82 4.36 21.53 1.2 21.53 1.2 22.34 .25 22.34 .25 19.75 1.2 19.75 1.2 20.56 4.36 20.56 4.36 19.28"/>
      <polygon class="cls-3" points="4.36 15.75 5.3 15.75 5.3 19.28 4.36 19.28 4.36 18 1.2 18 1.2 18.8 .25 18.8 .25 16.22 1.2 16.22 1.2 17.03 4.36 17.03 4.36 15.75"/>
      <polygon class="cls-3" points="4.36 12.22 5.3 12.22 5.3 15.75 4.36 15.75 4.36 14.46 1.2 14.46 1.2 15.27 .25 15.27 .25 12.69 1.2 12.69 1.2 13.49 4.36 13.49 4.36 12.22"/>
      <polygon class="cls-3" points="4.36 8.68 5.3 8.68 5.3 12.22 4.36 12.22 4.36 10.93 1.2 10.93 1.2 11.74 .25 11.74 .25 9.15 1.2 9.15 1.2 9.96 4.36 9.96 4.36 8.68"/>
      <polygon class="cls-3" points="4.36 5.15 5.3 5.15 5.3 8.68 4.36 8.68 4.36 7.39 1.2 7.39 1.2 8.2 .25 8.2 .25 5.62 1.2 5.62 1.2 6.43 4.36 6.43 4.36 5.15"/>
      <polygon class="cls-3" points="8.76 4.2 8.76 5.15 5.3 5.15 5.3 4.2 6.56 4.2 6.56 1.04 5.77 1.04 5.77 .09 8.3 .09 8.3 1.04 7.51 1.04 7.51 4.2 8.76 4.2"/>
      <polygon class="cls-3" points="12.21 4.2 12.21 5.15 8.76 5.15 8.76 4.2 10.02 4.2 10.02 1.04 9.23 1.04 9.23 .09 11.75 .09 11.75 1.04 10.96 1.04 10.96 4.2 12.21 4.2"/>
      <polygon class="cls-3" points="15.67 4.2 15.67 5.15 12.21 5.15 12.21 4.2 13.47 4.2 13.47 1.04 12.68 1.04 12.68 .09 15.21 .09 15.21 1.04 14.42 1.04 14.42 4.2 15.67 4.2"/>
      <polygon class="cls-3" points="19.12 4.2 19.12 5.15 15.67 5.15 15.67 4.2 16.93 4.2 16.93 1.04 16.14 1.04 16.14 .09 18.66 .09 18.66 1.04 17.87 1.04 17.87 4.2 19.12 4.2"/>
      <polygon class="cls-3" points="22.58 4.2 22.58 5.15 19.12 5.15 19.12 4.2 20.38 4.2 20.38 1.04 19.59 1.04 19.59 .09 22.12 .09 22.12 1.04 21.33 1.04 21.33 4.2 22.58 4.2"/>
      <polygon class="cls-3" points="26.03 4.2 26.03 5.15 22.58 5.15 22.58 4.2 23.84 4.2 23.84 1.04 23.05 1.04 23.05 .09 25.58 .09 25.58 1.04 24.78 1.04 24.78 4.2 26.03 4.2"/>
      <polygon class="cls-3" points="29.49 4.2 29.49 5.15 26.03 5.15 26.03 4.2 27.29 4.2 27.29 1.04 26.5 1.04 26.5 .09 29.03 .09 29.03 1.04 28.24 1.04 28.24 4.2 29.49 4.2"/>
      <polygon class="cls-3" points="32.94 4.2 32.94 5.15 29.49 5.15 29.49 4.2 30.75 4.2 30.75 1.04 29.96 1.04 29.96 .09 32.49 .09 32.49 1.04 31.7 1.04 31.7 4.2 32.94 4.2"/>
      <polygon class="cls-3" points="36.4 4.2 36.4 5.15 32.94 5.15 32.94 4.2 34.2 4.2 34.2 1.04 33.41 1.04 33.41 .09 35.94 .09 35.94 1.04 35.15 1.04 35.15 4.2 36.4 4.2"/>
      <polygon class="cls-3" points="39.85 4.2 39.85 5.15 36.4 5.15 36.4 4.2 37.66 4.2 37.66 1.04 36.87 1.04 36.87 .09 39.4 .09 39.4 1.04 38.61 1.04 38.61 4.2 39.85 4.2"/>
      <polygon class="cls-3" points="43.31 4.2 43.31 5.15 39.85 5.15 39.85 4.2 41.11 4.2 41.11 1.04 40.32 1.04 40.32 .09 42.85 .09 42.85 1.04 42.06 1.04 42.06 4.2 43.31 4.2"/>
      <polygon class="cls-3" points="46.76 4.2 46.76 5.15 43.31 5.15 43.31 4.2 44.57 4.2 44.57 1.04 43.78 1.04 43.78 .09 46.31 .09 46.31 1.04 45.52 1.04 45.52 4.2 46.76 4.2"/>
      <polygon class="cls-3" points="50.22 4.2 50.22 5.15 46.76 5.15 46.76 4.2 48.02 4.2 48.02 1.04 47.23 1.04 47.23 .09 49.76 .09 49.76 1.04 48.97 1.04 48.97 4.2 50.22 4.2"/>
      <polygon class="cls-3" points="53.67 4.2 53.67 5.15 50.22 5.15 50.22 4.2 51.48 4.2 51.48 1.04 50.69 1.04 50.69 .09 53.22 .09 53.22 1.04 52.43 1.04 52.43 4.2 53.67 4.2"/>
      <polygon class="cls-3" points="57.13 4.2 57.13 5.15 53.67 5.15 53.67 4.2 54.93 4.2 54.93 1.04 54.14 1.04 54.14 .09 56.67 .09 56.67 1.04 55.88 1.04 55.88 4.2 57.13 4.2"/>
      <polygon class="cls-3" points="60.58 4.2 60.58 5.15 57.13 5.15 57.13 4.2 58.39 4.2 58.39 1.04 57.6 1.04 57.6 .09 60.13 .09 60.13 1.04 59.34 1.04 59.34 4.2 60.58 4.2"/>
      <polygon class="cls-3" points="64.04 4.2 64.04 5.15 60.58 5.15 60.58 4.2 61.84 4.2 61.84 1.04 61.05 1.04 61.05 .09 63.58 .09 63.58 1.04 62.79 1.04 62.79 4.2 64.04 4.2"/>
      <polygon class="cls-3" points="67.5 4.2 67.5 5.15 64.04 5.15 64.04 4.2 65.3 4.2 65.3 1.04 64.51 1.04 64.51 .09 67.04 .09 67.04 1.04 66.25 1.04 66.25 4.2 67.5 4.2"/>
      <polygon class="cls-3" points="68.44 8.68 67.5 8.68 67.5 5.15 68.44 5.15 68.44 6.44 71.6 6.44 71.6 5.63 72.55 5.63 72.55 8.21 71.6 8.21 71.6 7.4 68.44 7.4 68.44 8.68"/>
      <polygon class="cls-3" points="68.44 12.22 67.5 12.22 67.5 8.68 68.44 8.68 68.44 9.97 71.6 9.97 71.6 9.16 72.55 9.16 72.55 11.75 71.6 11.75 71.6 10.94 68.44 10.94 68.44 12.22"/>
      <polygon class="cls-3" points="68.44 15.75 67.5 15.75 67.5 12.22 68.44 12.22 68.44 13.5 71.6 13.5 71.6 12.7 72.55 12.7 72.55 15.28 71.6 15.28 71.6 14.47 68.44 14.47 68.44 15.75"/>
      <polygon class="cls-3" points="68.44 19.28 67.5 19.28 67.5 15.75 68.44 15.75 68.44 17.04 71.6 17.04 71.6 16.23 72.55 16.23 72.55 18.81 71.6 18.81 71.6 18.01 68.44 18.01 68.44 19.28"/>
      <polygon class="cls-3" points="68.44 22.82 67.5 22.82 67.5 19.28 68.44 19.28 68.44 20.57 71.6 20.57 71.6 19.76 72.55 19.76 72.55 22.35 71.6 22.35 71.6 21.54 68.44 21.54 68.44 22.82"/>
      <polygon class="cls-3" points="68.44 26.35 67.5 26.35 67.5 22.82 68.44 22.82 68.44 24.11 71.6 24.11 71.6 23.3 72.55 23.3 72.55 25.88 71.6 25.88 71.6 25.07 68.44 25.07 68.44 26.35"/>
      <polygon class="cls-3" points="68.44 29.89 67.5 29.89 67.5 26.35 68.44 26.35 68.44 27.64 71.6 27.64 71.6 26.83 72.55 26.83 72.55 29.42 71.6 29.42 71.6 28.61 68.44 28.61 68.44 29.89"/>
      <polygon class="cls-3" points="68.44 33.42 67.5 33.42 67.5 29.89 68.44 29.89 68.44 31.17 71.6 31.17 71.6 30.37 72.55 30.37 72.55 32.95 71.6 32.95 71.6 32.14 68.44 32.14 68.44 33.42"/>
      <polygon class="cls-3" points="68.44 36.95 67.5 36.95 67.5 33.42 68.44 33.42 68.44 34.71 71.6 34.71 71.6 33.9 72.55 33.9 72.55 36.48 71.6 36.48 71.6 35.68 68.44 35.68 68.44 36.95"/>
      <polygon class="cls-3" points="68.44 40.49 67.5 40.49 67.5 36.95 68.44 36.95 68.44 38.24 71.6 38.24 71.6 37.43 72.55 37.43 72.55 40.02 71.6 40.02 71.6 39.21 68.44 39.21 68.44 40.49"/>
      <polygon class="cls-3" points="68.44 44.02 67.5 44.02 67.5 40.49 68.44 40.49 68.44 41.78 71.6 41.78 71.6 40.97 72.55 40.97 72.55 43.55 71.6 43.55 71.6 42.74 68.44 42.74 68.44 44.02"/>
      <polygon class="cls-3" points="68.44 47.56 67.5 47.56 67.5 44.02 68.44 44.02 68.44 45.31 71.6 45.31 71.6 44.5 72.55 44.5 72.55 47.09 71.6 47.09 71.6 46.28 68.44 46.28 68.44 47.56"/>
      <polygon class="cls-3" points="68.44 51.09 67.5 51.09 67.5 47.56 68.44 47.56 68.44 48.84 71.6 48.84 71.6 48.04 72.55 48.04 72.55 50.62 71.6 50.62 71.6 49.81 68.44 49.81 68.44 51.09"/>
      <polygon class="cls-3" points="68.44 54.62 67.5 54.62 67.5 51.09 68.44 51.09 68.44 52.38 71.6 52.38 71.6 51.57 72.55 51.57 72.55 54.15 71.6 54.15 71.6 53.35 68.44 53.35 68.44 54.62"/>
      <polygon class="cls-3" points="68.44 58.16 67.5 58.16 67.5 54.62 68.44 54.62 68.44 55.91 71.6 55.91 71.6 55.1 72.55 55.1 72.55 57.69 71.6 57.69 71.6 56.88 68.44 56.88 68.44 58.16"/>
      <polygon class="cls-3" points="68.44 61.69 67.5 61.69 67.5 58.16 68.44 58.16 68.44 59.45 71.6 59.45 71.6 58.64 72.55 58.64 72.55 61.22 71.6 61.22 71.6 60.41 68.44 60.41 68.44 61.69"/>
      <polygon class="cls-3" points="68.44 65.23 67.5 65.23 67.5 61.69 68.44 61.69 68.44 62.98 71.6 62.98 71.6 62.17 72.55 62.17 72.55 64.76 71.6 64.76 71.6 63.95 68.44 63.95 68.44 65.23"/>
      <polygon class="cls-3" points="64.04 66.17 64.04 65.23 67.5 65.23 67.5 66.17 66.24 66.17 66.24 69.33 67.03 69.33 67.03 70.28 64.5 70.28 64.5 69.33 65.29 69.33 65.29 66.17 64.04 66.17"/>
      <polygon class="cls-3" points="60.58 66.17 60.58 65.23 64.04 65.23 64.04 66.17 62.78 66.17 62.78 69.33 63.57 69.33 63.57 70.28 61.04 70.28 61.04 69.33 61.83 69.33 61.83 66.17 60.58 66.17"/>
      <polygon class="cls-3" points="57.13 66.17 57.13 65.23 60.58 65.23 60.58 66.17 59.32 66.17 59.32 69.33 60.12 69.33 60.12 70.28 57.59 70.28 57.59 69.33 58.38 69.33 58.38 66.17 57.13 66.17"/>
      <polygon class="cls-3" points="53.67 66.17 53.67 65.23 57.13 65.23 57.13 66.17 55.87 66.17 55.87 69.33 56.66 69.33 56.66 70.28 54.13 70.28 54.13 69.33 54.92 69.33 54.92 66.17 53.67 66.17"/>
      <polygon class="cls-3" points="50.22 66.17 50.22 65.23 53.67 65.23 53.67 66.17 52.41 66.17 52.41 69.33 53.21 69.33 53.21 70.28 50.68 70.28 50.68 69.33 51.47 69.33 51.47 66.17 50.22 66.17"/>
      <polygon class="cls-3" points="46.76 66.17 46.76 65.23 50.22 65.23 50.22 66.17 48.96 66.17 48.96 69.33 49.75 69.33 49.75 70.28 47.22 70.28 47.22 69.33 48.01 69.33 48.01 66.17 46.76 66.17"/>
      <polygon class="cls-3" points="43.31 66.17 43.31 65.23 46.76 65.23 46.76 66.17 45.5 66.17 45.5 69.33 46.3 69.33 46.3 70.28 43.77 70.28 43.77 69.33 44.56 69.33 44.56 66.17 43.31 66.17"/>
      <polygon class="cls-3" points="39.85 66.17 39.85 65.23 43.31 65.23 43.31 66.17 42.05 66.17 42.05 69.33 42.84 69.33 42.84 70.28 40.31 70.28 40.31 69.33 41.1 69.33 41.1 66.17 39.85 66.17"/>
      <polygon class="cls-3" points="36.4 66.17 36.4 65.23 39.85 65.23 39.85 66.17 38.59 66.17 38.59 69.33 39.39 69.33 39.39 70.28 36.86 70.28 36.86 69.33 37.65 69.33 37.65 66.17 36.4 66.17"/>
      <polygon class="cls-3" points="32.94 66.17 32.94 65.23 36.4 65.23 36.4 66.17 35.14 66.17 35.14 69.33 35.93 69.33 35.93 70.28 33.4 70.28 33.4 69.33 34.19 69.33 34.19 66.17 32.94 66.17"/>
      <polygon class="cls-3" points="29.49 66.17 29.49 65.23 32.94 65.23 32.94 66.17 31.68 66.17 31.68 69.33 32.48 69.33 32.48 70.28 29.95 70.28 29.95 69.33 30.74 69.33 30.74 66.17 29.49 66.17"/>
      <polygon class="cls-3" points="26.03 66.17 26.03 65.23 29.49 65.23 29.49 66.17 28.23 66.17 28.23 69.33 29.02 69.33 29.02 70.28 26.49 70.28 26.49 69.33 27.28 69.33 27.28 66.17 26.03 66.17"/>
      <polygon class="cls-3" points="22.58 66.17 22.58 65.23 26.03 65.23 26.03 66.17 24.77 66.17 24.77 69.33 25.56 69.33 25.56 70.28 23.04 70.28 23.04 69.33 23.83 69.33 23.83 66.17 22.58 66.17"/>
      <polygon class="cls-3" points="19.12 66.17 19.12 65.23 22.58 65.23 22.58 66.17 21.32 66.17 21.32 69.33 22.11 69.33 22.11 70.28 19.58 70.28 19.58 69.33 20.37 69.33 20.37 66.17 19.12 66.17"/>
      <polygon class="cls-3" points="15.67 66.17 15.67 65.23 19.12 65.23 19.12 66.17 17.86 66.17 17.86 69.33 18.65 69.33 18.65 70.28 16.13 70.28 16.13 69.33 16.92 69.33 16.92 66.17 15.67 66.17"/>
      <polygon class="cls-3" points="12.21 66.17 12.21 65.23 15.67 65.23 15.67 66.17 14.41 66.17 14.41 69.33 15.2 69.33 15.2 70.28 12.67 70.28 12.67 69.33 13.46 69.33 13.46 66.17 12.21 66.17"/>
      <polygon class="cls-3" points="8.76 66.17 8.76 65.23 12.21 65.23 12.21 66.17 10.95 66.17 10.95 69.33 11.74 69.33 11.74 70.28 9.22 70.28 9.22 69.33 10.01 69.33 10.01 66.17 8.76 66.17"/>
      <polygon class="cls-3" points="5.3 66.17 5.3 65.23 8.76 65.23 8.76 66.17 7.5 66.17 7.5 69.33 8.29 69.33 8.29 70.28 5.76 70.28 5.76 69.33 6.55 69.33 6.55 66.17 5.3 66.17"/>
      <g class="cls-9">
        <polygon class="cls-3" points="4.36 .09 5.3 .09 5.3 5.15 4.36 5.15 4.36 3.31 1.2 3.31 1.2 4.46 .25 4.46 .25 .77 1.2 .77 1.2 1.92 4.36 1.92 4.36 .09"/>
      </g>
      <g class="cls-7">
        <polygon class="cls-3" points="5.3 4.2 5.3 5.15 .25 5.15 .25 4.2 2.09 4.2 2.09 1.04 .94 1.04 .94 .09 4.63 .09 4.63 1.04 3.48 1.04 3.48 4.2 5.3 4.2"/>
      </g>
      <g class="cls-1">
        <polygon class="cls-3" points="72.55 4.2 72.55 5.15 67.5 5.15 67.5 4.2 69.34 4.2 69.34 1.04 68.18 1.04 68.18 .09 71.88 .09 71.88 1.04 70.72 1.04 70.72 4.2 72.55 4.2"/>
      </g>
      <g class="cls-10">
        <polygon class="cls-3" points="68.44 5.15 67.5 5.15 67.5 .09 68.44 .09 68.44 1.94 71.6 1.94 71.6 .78 72.55 .78 72.55 4.48 71.6 4.48 71.6 3.32 68.44 3.32 68.44 5.15"/>
      </g>
      <g class="cls-8">
        <polygon class="cls-3" points="68.44 70.28 67.5 70.28 67.5 65.23 68.44 65.23 68.44 67.07 71.6 67.07 71.6 65.91 72.55 65.91 72.55 69.61 71.6 69.61 71.6 68.45 68.44 68.45 68.44 70.28"/>
      </g>
      <g class="cls-11">
        <polygon class="cls-3" points="67.5 66.17 67.5 65.23 72.55 65.23 72.55 66.17 70.71 66.17 70.71 69.33 71.86 69.33 71.86 70.28 68.17 70.28 68.17 69.33 69.32 69.33 69.32 66.17 67.5 66.17"/>
      </g>
      <g class="cls-2">
        <polygon class="cls-3" points=".25 66.17 .25 65.23 5.3 65.23 5.3 66.17 3.46 66.17 3.46 69.33 4.62 69.33 4.62 70.28 .92 70.28 .92 69.33 2.08 69.33 2.08 66.17 .25 66.17"/>
      </g>
      <g class="cls-6">
        <polygon class="cls-3" points="4.36 65.23 5.3 65.23 5.3 70.28 4.36 70.28 4.36 68.44 1.2 68.44 1.2 69.59 .25 69.59 .25 65.9 1.2 65.9 1.2 67.05 4.36 67.05 4.36 65.23"/>
      </g>
    </g>
  </g>
  <rect class="cls-5" x="18.77" y="24.77" width="35.49" height="3.83" rx="1.91" ry="1.91"/>
  <rect class="cls-5" x="18.77" y="32.48" width="35.49" height="3.83" rx="1.91" ry="1.91"/>
  <rect class="cls-5" x="18.77" y="40.46" width="35.49" height="3.83" rx="1.91" ry="1.91"/>
</svg>