<?xml version="1.0" encoding="UTF-8"?>
<svg xmlns="http://www.w3.org/2000/svg" version="1.1" viewBox="0 0 522 440">
  <defs>
    <style>
      .cls-1, .cls-2 {
        stroke: #231f20;
        stroke-miterlimit: 10;
      }

      .cls-1, .cls-3 {
        fill: #000;
      }

      .cls-2 {
        fill: none;
      }

      .cls-3, .cls-4 {
        stroke-width: 0px;
      }

      .cls-4 {
        fill: #fff;
      }

      .cls-5 {
        display: none;
      }
    </style>
  </defs>
  <g id="Black" class="cls-5">
    <g id="instagram" class="cls-5">
      <path class="cls-3" d="M54.2,218.07c0-32.88-1.19-65.81.27-98.62,2.46-55.56,36.74-100.18,95.22-111.31,10.07-1.92,20.48-2.78,30.74-2.83,57.98-.26,115.95-.18,173.93-.11,29.29.04,56.7,6.62,80.25,24.93,25.53,19.85,40.13,46.23,44.51,78.14,1.31,9.56,1.75,19.29,1.78,28.95.16,56.07.11,112.14.06,168.21-.02,22.82-3.72,44.9-14.57,65.26-17.08,32.08-44.32,50.7-79.34,58.25-9.24,1.99-18.86,3.04-28.3,3.07-62.74.22-125.51,1.13-188.21-.31-59.45-1.37-105.39-41.48-114.44-99.44-1.49-9.52-2.07-19.26-2.16-28.9-.28-28.43-.1-56.86-.1-85.3.12,0,.25,0,.37,0ZM93.47,218.2c0,27.96-.11,55.91.07,83.87.05,7.91.38,15.92,1.63,23.71,4.73,29.41,20.21,50.47,48.76,60.95,12.08,4.44,24.63,5.84,37.4,5.84,56.71,0,113.41.05,170.12-.07,7.44-.02,14.97-.29,22.29-1.5,28.96-4.77,50.4-19.79,62.2-47.25,5.35-12.45,6.97-25.63,6.97-39.06.01-56.87.07-113.73-.07-170.6-.02-7.43-.42-14.98-1.79-22.26-4.69-24.75-16.67-44.73-39.59-56.84-13.16-6.95-27.44-9.88-42.21-9.91-60.04-.12-120.08-.12-180.13.02-6.94.02-13.98.67-20.81,1.91-28.38,5.17-48.67,20.54-58.98,47.99-4.53,12.05-5.83,24.65-5.84,37.41-.04,28.59-.01,57.18-.01,85.77Z"/>
      <path class="cls-3" d="M377.46,217.99c0,60.81-49.33,110.13-110.18,110.13-61.3,0-110.21-49.05-110.15-110.49.06-60.49,49.35-109.69,110.03-109.82,60.47-.13,110.3,49.65,110.3,110.18ZM337.8,217.81c-.16-38.68-31.75-70.24-70.39-70.31-39.03-.08-70.63,31.8-70.44,71.08.18,38.61,31.89,69.86,70.73,69.72,38.65-.14,70.26-31.92,70.1-70.49Z"/>
      <path class="cls-3" d="M381.93,130.14c-13.91.07-25.19-11.08-25.22-24.92-.03-13.65,11.04-24.81,24.7-24.91,14.07-.11,25.28,10.78,25.36,24.63.08,13.98-10.91,25.13-24.84,25.2Z"/>
    </g>
    <g id="telegram">
      <path class="cls-3" d="M441.7,90.16c-.18,1.16-.31,2.33-.54,3.48-2.01,9.71-4.02,19.43-6.05,29.13-3.56,16.99-7.13,33.97-10.7,50.96-3.68,17.48-7.37,34.96-11.04,52.44-3.78,17.98-7.54,35.96-11.31,53.94-3.54,16.88-7.09,33.75-10.64,50.63-1.51,7.17-3.01,14.34-4.57,21.5-.72,3.31-1.81,6.52-3.41,9.52-.55,1.04-1.17,2.06-1.86,3.02-3.75,5.24-8.89,7.11-15.11,5.95-4.89-.92-9.36-2.93-13.34-5.92-26.03-19.56-52.03-39.14-78.04-58.71-.4-.3-.82-.6-1.38-1.01-.44.39-.89.78-1.32,1.2-15.05,14.31-30.1,28.61-45.14,42.93-2.06,1.96-4.39,3.31-7.23,3.78-3.13.52-5.92-.24-8.46-2.08-1.96-1.42-3.41-3.29-4.48-5.43-.3-.61-.38-1.41-.34-2.11.33-4.61.72-9.22,1.1-13.83.41-5,.83-10,1.24-15.01.52-6.3,1.05-12.59,1.56-18.89.39-4.83.82-9.67,1.13-14.51.09-1.44.52-2.5,1.63-3.5,30.66-27.85,61.29-55.73,91.92-83.61,25.63-23.32,51.25-46.64,76.86-69.97,1.04-.94,1.97-2.01,2.87-3.09.39-.46.64-1.06.84-1.64.42-1.27-.02-2.34-1.3-2.66-1.12-.28-2.35-.39-3.49-.26-3.36.39-6.39,1.78-9.24,3.55-20.74,12.9-41.46,25.82-62.2,38.71-45.27,28.13-90.55,56.25-135.8,84.42-1.58.98-2.89,1.14-4.68.56-26.17-8.43-52.38-16.78-78.57-25.14-2.46-.79-4.61-2.09-6.54-3.78-1.81-1.58-2.86-3.6-3.39-5.92-.32-1.4.21-2.68.63-3.95.65-1.97,1.86-3.6,3.31-5.05,2.55-2.55,5.56-4.41,8.91-5.71,56.49-21.9,112.98-43.79,169.47-65.69,50.13-19.43,100.26-38.87,150.39-58.3,4.17-1.62,8.42-2.93,12.93-3.09,1.51-.06,3.06-.02,4.55.24,5.62.99,9.52,5.01,10.5,11.31.06.37.22.73.33,1.09v10.5Z"/>
    </g>
    <g id="pinterest" class="cls-5">
      <path class="cls-3" d="M163.56,239.73c-32.17-16.27-46.61-41.92-50.41-73.7C104.14,90.74,153.19,22.78,239.1,8.37c45.16-7.58,89.22-4.93,130.4,17.42,49.56,26.91,77.7,85.81,68.91,141.8-9.07,57.77-39.46,99.39-94.01,120.54-38.69,15-75.78,9.28-108.5-18.96-10.25,28.32-20.09,57.12-31.09,85.47-11.13,28.67-25.3,55.77-48.73,80.82-1.15-16.19-4.69-30.75-2.63-44.47,4.53-30.15,11.14-60.05,18.31-89.71,7.93-32.8,17.89-65.1,25.91-97.88,1.93-7.9,1.06-17.14-.86-25.21-5.63-23.54-4.31-45.73,10.04-65.88,8.26-11.6,19.97-17.67,34.39-17.63,18.35.05,33,13.33,30.72,31.43-2.69,21.34-8.88,42.26-13.82,63.3-2.18,9.29-5.86,18.28-7.39,27.65-2.29,14.05,4.26,25.02,17,31.09,31.74,15.13,61.29,8.76,82.63-19.4,22.44-29.62,31.46-63.68,25.01-100.25-6.62-37.49-31.61-59.77-67.25-69.67-32.61-9.06-65.28-7.49-96.53,6.27-46.55,20.49-57.19,53.1-54.97,95.36.93,17.78,8.3,35.14,10.88,52.96,1.15,7.93-2.32,16.53-3.95,26.32Z"/>
    </g>
    <g id="whatsapp" class="cls-5">
      <path class="cls-3" d="M52.21,434.3c3.33-9.98,6.44-19.35,9.58-28.69,8.89-26.4,17.8-52.79,26.69-79.19.82-2.43,1.49-4.56-.14-7.31-11.86-20.13-20.08-41.69-24.63-64.63-3.97-20.02-5.18-40.25-3.17-60.53,4.65-46.91,22.63-88.04,54.53-122.92,24.59-26.88,54.23-46.03,88.77-57.54,17.32-5.77,35.12-9.04,53.38-10.15,36.82-2.24,71.78,4.77,104.88,20.81,26.05,12.62,48.4,30.18,67.26,52.15,20.77,24.2,35.29,51.72,43.53,82.5,7.59,28.35,8.99,57.08,4.7,86.11-4.17,28.15-13.71,54.38-28.73,78.49-22.86,36.7-54,64.08-93.52,81.82-24.07,10.8-49.29,16.55-75.63,17.87-24.41,1.22-48.22-1.93-71.57-8.94-12.95-3.89-25.38-9.09-37.24-15.58-2.02-1.11-3.79-1.17-5.95-.47-28.23,9.08-56.5,18.07-84.74,27.11-9.12,2.92-18.22,5.92-28.01,9.1ZM446.11,213.29c-.43-5.87-.79-11.74-1.31-17.6-2.25-25.49-10.11-49.26-23.1-71.2-21.89-36.97-53.21-62.9-93.63-77.42-25.67-9.22-52.23-12.12-79.37-8.7-27.61,3.48-53.05,12.83-76.21,28.36-19.41,13.01-35.82,29.04-48.66,48.56-26.48,40.25-35.56,84.14-26.65,131.55,4.55,24.17,14,46.38,28.23,66.48,1.33,1.87,1.7,3.44.9,5.75-6.79,19.73-13.42,39.51-20.05,59.29-.25.76-.22,1.79.12,2.48.14.29,1.47.2,2.17-.02,4.01-1.22,8-2.52,11.99-3.79,16.46-5.24,32.93-10.43,49.36-15.77,2.43-.79,4.28-.55,6.41.84,10.6,6.87,21.86,12.48,33.77,16.65,21.11,7.38,42.79,11.08,65.26,10.37,22.05-.7,43.2-5.38,63.38-13.99,34.77-14.85,61.97-38.79,81.65-70.97,17-27.79,25.34-58.22,25.72-90.87Z"/>
      <path class="cls-3" d="M325.86,318.06c-9.48-.16-17.91-3.48-26.31-6.59-14.13-5.25-28.22-10.61-41.28-18.35-16.32-9.68-30.35-22.03-43.12-35.93-14.26-15.52-26.18-32.77-36.69-50.96-8.04-13.91-13.56-28.69-13.25-45.13.36-18.84,8.05-34.13,22.35-46.19,3.65-3.07,7.97-4.48,12.79-4.17,3.99.26,7.97.52,11.96.71,3.26.15,5.47,1.92,6.85,4.64,1.44,2.84,2.66,5.81,3.78,8.8,4.59,12.25,9.08,24.53,13.67,36.78,1.24,3.31.94,6.34-.65,9.5-3.35,6.66-8.73,11.63-13.73,16.9-4.58,4.82-5.12,6.88-1.93,12.71,15.79,28.83,38.13,50.76,68.17,64.59,9.62,4.43,10.34,4.48,17.46-3.31,4.91-5.38,9.59-10.98,14.22-16.6,3.63-4.41,6.14-5.32,11.44-2.88,6.07,2.79,12.05,5.82,17.96,8.94,8.56,4.53,17.02,9.26,25.55,13.85,2.44,1.32,3.83,3.28,3.73,6.02-.33,8.79-1.99,17.33-6.59,24.92-3.38,5.58-8.75,9.18-14.22,12.61-9.95,6.24-20.88,8.77-32.17,9.15Z"/>
    </g>
  </g>
  <g id="White">
    <g id="Layer_12" data-name="Layer 12" class="cls-5">
      <rect class="cls-1" x="1" y="1" width="521" height="439"/>
    </g>
    <g id="instagram_copy" data-name="instagram copy">
      <path class="cls-4" d="M54.2,218.07c0-32.88-1.19-65.81.27-98.62,2.46-55.56,36.74-100.18,95.22-111.31,10.07-1.92,20.48-2.78,30.74-2.83,57.98-.26,115.95-.18,173.93-.11,29.29.04,56.7,6.62,80.25,24.93,25.53,19.85,40.13,46.23,44.51,78.14,1.31,9.56,1.75,19.29,1.78,28.95.16,56.07.11,112.14.06,168.21-.02,22.82-3.72,44.9-14.57,65.26-17.08,32.08-44.32,50.7-79.34,58.25-9.24,1.99-18.86,3.04-28.3,3.07-62.74.22-125.51,1.13-188.21-.31-59.45-1.37-105.39-41.48-114.44-99.44-1.49-9.52-2.07-19.26-2.16-28.9-.28-28.43-.1-56.86-.1-85.3.12,0,.25,0,.37,0ZM93.47,218.2c0,27.96-.11,55.91.07,83.87.05,7.91.38,15.92,1.63,23.71,4.73,29.41,20.21,50.47,48.76,60.95,12.08,4.44,24.63,5.84,37.4,5.84,56.71,0,113.41.05,170.12-.07,7.44-.02,14.97-.29,22.29-1.5,28.96-4.77,50.4-19.79,62.2-47.25,5.35-12.45,6.97-25.63,6.97-39.06.01-56.87.07-113.73-.07-170.6-.02-7.43-.42-14.98-1.79-22.26-4.69-24.75-16.67-44.73-39.59-56.84-13.16-6.95-27.44-9.88-42.21-9.91-60.04-.12-120.08-.12-180.13.02-6.94.02-13.98.67-20.81,1.91-28.38,5.17-48.67,20.54-58.98,47.99-4.53,12.05-5.83,24.65-5.84,37.41-.04,28.59-.01,57.18-.01,85.77Z"/>
      <path class="cls-4" d="M377.46,217.99c0,60.81-49.33,110.13-110.18,110.13-61.3,0-110.21-49.05-110.15-110.49.06-60.49,49.35-109.69,110.03-109.82,60.47-.13,110.3,49.65,110.3,110.18ZM337.8,217.81c-.16-38.68-31.75-70.24-70.39-70.31-39.03-.08-70.63,31.8-70.44,71.08.18,38.61,31.89,69.86,70.73,69.72,38.65-.14,70.26-31.92,70.1-70.49Z"/>
      <path class="cls-4" d="M381.93,130.14c-13.91.07-25.19-11.08-25.22-24.92-.03-13.65,11.04-24.81,24.7-24.91,14.07-.11,25.28,10.78,25.36,24.63.08,13.98-10.91,25.13-24.84,25.2Z"/>
    </g>
    <g id="telegram_copy" data-name="telegram copy" class="cls-5">
      <path class="cls-4" d="M441.7,90.16c-.18,1.16-.31,2.33-.54,3.48-2.01,9.71-4.02,19.43-6.05,29.13-3.56,16.99-7.13,33.97-10.7,50.96-3.68,17.48-7.37,34.96-11.04,52.44-3.78,17.98-7.54,35.96-11.31,53.94-3.54,16.88-7.09,33.75-10.64,50.63-1.51,7.17-3.01,14.34-4.57,21.5-.72,3.31-1.81,6.52-3.41,9.52-.55,1.04-1.17,2.06-1.86,3.02-3.75,5.24-8.89,7.11-15.11,5.95-4.89-.92-9.36-2.93-13.34-5.92-26.03-19.56-52.03-39.14-78.04-58.71-.4-.3-.82-.6-1.38-1.01-.44.39-.89.78-1.32,1.2-15.05,14.31-30.1,28.61-45.14,42.93-2.06,1.96-4.39,3.31-7.23,3.78-3.13.52-5.92-.24-8.46-2.08-1.96-1.42-3.41-3.29-4.48-5.43-.3-.61-.38-1.41-.34-2.11.33-4.61.72-9.22,1.1-13.83.41-5,.83-10,1.24-15.01.52-6.3,1.05-12.59,1.56-18.89.39-4.83.82-9.67,1.13-14.51.09-1.44.52-2.5,1.63-3.5,30.66-27.85,61.29-55.73,91.92-83.61,25.63-23.32,51.25-46.64,76.86-69.97,1.04-.94,1.97-2.01,2.87-3.09.39-.46.64-1.06.84-1.64.42-1.27-.02-2.34-1.3-2.66-1.12-.28-2.35-.39-3.49-.26-3.36.39-6.39,1.78-9.24,3.55-20.74,12.9-41.46,25.82-62.2,38.71-45.27,28.13-90.55,56.25-135.8,84.42-1.58.98-2.89,1.14-4.68.56-26.17-8.43-52.38-16.78-78.57-25.14-2.46-.79-4.61-2.09-6.54-3.78-1.81-1.58-2.86-3.6-3.39-5.92-.32-1.4.21-2.68.63-3.95.65-1.97,1.86-3.6,3.31-5.05,2.55-2.55,5.56-4.41,8.91-5.71,56.49-21.9,112.98-43.79,169.47-65.69,50.13-19.43,100.26-38.87,150.39-58.3,4.17-1.62,8.42-2.93,12.93-3.09,1.51-.06,3.06-.02,4.55.24,5.62.99,9.52,5.01,10.5,11.31.06.37.22.73.33,1.09v10.5Z"/>
    </g>
    <g id="pinterest_copy" data-name="pinterest copy" class="cls-5">
      <path class="cls-4" d="M163.56,239.73c-32.17-16.27-46.61-41.92-50.41-73.7C104.14,90.74,153.19,22.78,239.1,8.37c45.16-7.58,89.22-4.93,130.4,17.42,49.56,26.91,77.7,85.81,68.91,141.8-9.07,57.77-39.46,99.39-94.01,120.54-38.69,15-75.78,9.28-108.5-18.96-10.25,28.32-20.09,57.12-31.09,85.47-11.13,28.67-25.3,55.77-48.73,80.82-1.15-16.19-4.69-30.75-2.63-44.47,4.53-30.15,11.14-60.05,18.31-89.71,7.93-32.8,17.89-65.1,25.91-97.88,1.93-7.9,1.06-17.14-.86-25.21-5.63-23.54-4.31-45.73,10.04-65.88,8.26-11.6,19.97-17.67,34.39-17.63,18.35.05,33,13.33,30.72,31.43-2.69,21.34-8.88,42.26-13.82,63.3-2.18,9.29-5.86,18.28-7.39,27.65-2.29,14.05,4.26,25.02,17,31.09,31.74,15.13,61.29,8.76,82.63-19.4,22.44-29.62,31.46-63.68,25.01-100.25-6.62-37.49-31.61-59.77-67.25-69.67-32.61-9.06-65.28-7.49-96.53,6.27-46.55,20.49-57.19,53.1-54.97,95.36.93,17.78,8.3,35.14,10.88,52.96,1.15,7.93-2.32,16.53-3.95,26.32Z"/>
    </g>
    <g id="whatsapp_copy" data-name="whatsapp copy" class="cls-5">
      <path class="cls-4" d="M52.21,434.3c3.33-9.98,6.44-19.35,9.58-28.69,8.89-26.4,17.8-52.79,26.69-79.19.82-2.43,1.49-4.56-.14-7.31-11.86-20.13-20.08-41.69-24.63-64.63-3.97-20.02-5.18-40.25-3.17-60.53,4.65-46.91,22.63-88.04,54.53-122.92,24.59-26.88,54.23-46.03,88.77-57.54,17.32-5.77,35.12-9.04,53.38-10.15,36.82-2.24,71.78,4.77,104.88,20.81,26.05,12.62,48.4,30.18,67.26,52.15,20.77,24.2,35.29,51.72,43.53,82.5,7.59,28.35,8.99,57.08,4.7,86.11-4.17,28.15-13.71,54.38-28.73,78.49-22.86,36.7-54,64.08-93.52,81.82-24.07,10.8-49.29,16.55-75.63,17.87-24.41,1.22-48.22-1.93-71.57-8.94-12.95-3.89-25.38-9.09-37.24-15.58-2.02-1.11-3.79-1.17-5.95-.47-28.23,9.08-56.5,18.07-84.74,27.11-9.12,2.92-18.22,5.92-28.01,9.1ZM446.11,213.29c-.43-5.87-.79-11.74-1.31-17.6-2.25-25.49-10.11-49.26-23.1-71.2-21.89-36.97-53.21-62.9-93.63-77.42-25.67-9.22-52.23-12.12-79.37-8.7-27.61,3.48-53.05,12.83-76.21,28.36-19.41,13.01-35.82,29.04-48.66,48.56-26.48,40.25-35.56,84.14-26.65,131.55,4.55,24.17,14,46.38,28.23,66.48,1.33,1.87,1.7,3.44.9,5.75-6.79,19.73-13.42,39.51-20.05,59.29-.25.76-.22,1.79.12,2.48.14.29,1.47.2,2.17-.02,4.01-1.22,8-2.52,11.99-3.79,16.46-5.24,32.93-10.43,49.36-15.77,2.43-.79,4.28-.55,6.41.84,10.6,6.87,21.86,12.48,33.77,16.65,21.11,7.38,42.79,11.08,65.26,10.37,22.05-.7,43.2-5.38,63.38-13.99,34.77-14.85,61.97-38.79,81.65-70.97,17-27.79,25.34-58.22,25.72-90.87Z"/>
      <path class="cls-4" d="M325.86,318.06c-9.48-.16-17.91-3.48-26.31-6.59-14.13-5.25-28.22-10.61-41.28-18.35-16.32-9.68-30.35-22.03-43.12-35.93-14.26-15.52-26.18-32.77-36.69-50.96-8.04-13.91-13.56-28.69-13.25-45.13.36-18.84,8.05-34.13,22.35-46.19,3.65-3.07,7.97-4.48,12.79-4.17,3.99.26,7.97.52,11.96.71,3.26.15,5.47,1.92,6.85,4.64,1.44,2.84,2.66,5.81,3.78,8.8,4.59,12.25,9.08,24.53,13.67,36.78,1.24,3.31.94,6.34-.65,9.5-3.35,6.66-8.73,11.63-13.73,16.9-4.58,4.82-5.12,6.88-1.93,12.71,15.79,28.83,38.13,50.76,68.17,64.59,9.62,4.43,10.34,4.48,17.46-3.31,4.91-5.38,9.59-10.98,14.22-16.6,3.63-4.41,6.14-5.32,11.44-2.88,6.07,2.79,12.05,5.82,17.96,8.94,8.56,4.53,17.02,9.26,25.55,13.85,2.44,1.32,3.83,3.28,3.73,6.02-.33,8.79-1.99,17.33-6.59,24.92-3.38,5.58-8.75,9.18-14.22,12.61-9.95,6.24-20.88,8.77-32.17,9.15Z"/>
    </g>
  </g>
  <g id="Layer_5" data-name="Layer 5" class="cls-5">
    <rect class="cls-2" width="522" height="440"/>
  </g>
</svg>