<?xml version="1.0" encoding="UTF-8"?>
<svg id="instagram" xmlns="http://www.w3.org/2000/svg" viewBox="0 0 523 441">
  <path d="M54.7,218.57c0-32.88-1.19-65.81.27-98.62,2.46-55.56,36.74-100.18,95.22-111.31,10.07-1.92,20.48-2.78,30.74-2.83,57.98-.26,115.95-.18,173.93-.11,29.29.04,56.7,6.62,80.25,24.93,25.53,19.85,40.13,46.23,44.51,78.14,1.31,9.56,1.75,19.29,1.78,28.95.16,56.07.11,112.14.06,168.21-.02,22.82-3.72,44.9-14.57,65.26-17.08,32.08-44.32,50.7-79.34,58.25-9.24,1.99-18.86,3.04-28.3,3.07-62.74.22-125.51,1.13-188.21-.31-59.45-1.37-105.39-41.48-114.44-99.44-1.49-9.52-2.07-19.26-2.16-28.9-.28-28.43-.1-56.86-.1-85.3.12,0,.25,0,.37,0ZM93.97,218.7c0,27.96-.11,55.91.07,83.87.05,7.91.38,15.92,1.63,23.71,4.73,29.41,20.21,50.47,48.76,60.95,12.08,4.44,24.63,5.84,37.4,5.84,56.71,0,113.41.05,170.12-.07,7.44-.02,14.97-.29,22.29-1.5,28.96-4.77,50.4-19.79,62.2-47.25,5.35-12.45,6.97-25.63,6.97-39.06.01-56.87.07-113.73-.07-170.6-.02-7.43-.42-14.98-1.79-22.26-4.69-24.75-16.67-44.73-39.59-56.84-13.16-6.95-27.44-9.88-42.21-9.91-60.04-.12-120.08-.12-180.13.02-6.94.02-13.98.67-20.81,1.91-28.38,5.17-48.67,20.54-58.98,47.99-4.53,12.05-5.83,24.65-5.84,37.41-.04,28.59-.01,57.18-.01,85.77Z" style="fill: #000; stroke-width: 0px;"/>
  <path d="M377.96,218.49c0,60.81-49.33,110.13-110.18,110.13-61.3,0-110.21-49.05-110.15-110.49.06-60.49,49.35-109.69,110.03-109.82,60.47-.13,110.3,49.65,110.3,110.18ZM338.3,218.31c-.16-38.68-31.75-70.24-70.39-70.31-39.03-.08-70.63,31.8-70.44,71.08.18,38.61,31.89,69.86,70.73,69.72,38.65-.14,70.26-31.92,70.1-70.49Z" style="fill: #000; stroke-width: 0px;"/>
  <path d="M382.43,130.64c-13.91.07-25.19-11.08-25.22-24.92-.03-13.65,11.04-24.81,24.7-24.91,14.07-.11,25.28,10.78,25.36,24.63.08,13.98-10.91,25.13-24.84,25.2Z" style="fill: #000; stroke-width: 0px;"/>
</svg>