<?xml version="1.0" encoding="UTF-8"?>
<svg xmlns="http://www.w3.org/2000/svg" version="1.1" xmlns:xlink="http://www.w3.org/1999/xlink" viewBox="0 0 927.3 931.4">
  <defs>
    <style>
      .cls-1 {
        fill: #302c2d;
      }

      .cls-1, .cls-2, .cls-3, .cls-4, .cls-5, .cls-6, .cls-7, .cls-8, .cls-9, .cls-10, .cls-11, .cls-12, .cls-13, .cls-14, .cls-15, .cls-16, .cls-17, .cls-18, .cls-19, .cls-20, .cls-21, .cls-22, .cls-23, .cls-24, .cls-25, .cls-26 {
        stroke-width: 0px;
      }

      .cls-2 {
        fill: url(#linear-gradient-12);
      }

      .cls-3 {
        fill: url(#linear-gradient-4);
      }

      .cls-3, .cls-27, .cls-28, .cls-29, .cls-30, .cls-12, .cls-31, .cls-18, .cls-32, .cls-19, .cls-33, .cls-34, .cls-35, .cls-36, .cls-37 {
        display: none;
      }

      .cls-4 {
        fill: url(#linear-gradient-17);
      }

      .cls-38 {
        font-size: 109px;
      }

      .cls-5 {
        fill: url(#linear-gradient-19);
      }

      .cls-39, .cls-40, .cls-27, .cls-28, .cls-30, .cls-32, .cls-33, .cls-34, .cls-41, .cls-42, .cls-43 {
        fill: #544d4f;
      }

      .cls-39, .cls-30, .cls-42 {
        font-family: AntonSC-Regular, 'Anton SC';
      }

      .cls-6 {
        fill: url(#linear-gradient);
      }

      .cls-7 {
        fill: #000;
      }

      .cls-40, .cls-32 {
        font-family: OrdealEroded, 'Ordeal Eroded';
      }

      .cls-27 {
        font-size: 92px;
      }

      .cls-27, .cls-41 {
        font-family: DDayStencil, 'D Day Stencil';
      }

      .cls-28 {
        font-size: 66px;
      }

      .cls-28, .cls-33, .cls-34, .cls-43 {
        font-family: Impacted20-Regular, 'Impacted 2.0';
      }

      .cls-8 {
        fill: url(#linear-gradient-6);
      }

      .cls-44 {
        font-size: 105px;
      }

      .cls-45 {
        font-size: 36px;
      }

      .cls-29 {
        opacity: .4;
      }

      .cls-46 {
        font-size: 36.7px;
      }

      .cls-47 {
        font-size: 54px;
      }

      .cls-47, .cls-31 {
        font-family: DamagedSerif, 'Damaged Serif';
      }

      .cls-47, .cls-31, .cls-19 {
        fill: #818181;
      }

      .cls-9 {
        fill: url(#linear-gradient-15);
      }

      .cls-10 {
        fill: url(#linear-gradient-11);
      }

      .cls-48 {
        font-size: 40px;
      }

      .cls-11 {
        fill: url(#linear-gradient-5);
      }

      .cls-12 {
        fill: #171717;
      }

      .cls-13 {
        fill: url(#linear-gradient-13);
      }

      .cls-14 {
        fill: url(#linear-gradient-16);
      }

      .cls-49 {
        font-size: 76px;
      }

      .cls-15 {
        fill: url(#linear-gradient-20);
      }

      .cls-16 {
        fill: url(#linear-gradient-14);
      }

      .cls-17 {
        fill: url(#linear-gradient-2);
      }

      .cls-18 {
        fill: #848484;
      }

      .cls-32 {
        font-size: 62px;
      }

      .cls-20 {
        fill: url(#linear-gradient-7);
      }

      .cls-21 {
        fill: url(#linear-gradient-3);
      }

      .cls-34 {
        font-size: 64.8px;
      }

      .cls-50 {
        font-size: 137px;
      }

      .cls-22 {
        fill: url(#linear-gradient-9);
      }

      .cls-42 {
        font-size: 72.7px;
      }

      .cls-23 {
        fill: url(#linear-gradient-8);
      }

      .cls-24 {
        fill: url(#linear-gradient-18);
      }

      .cls-51, .cls-36, .cls-52, .cls-37 {
        fill: none;
        stroke-miterlimit: 10;
      }

      .cls-51, .cls-52, .cls-37 {
        stroke-width: .2px;
      }

      .cls-51, .cls-37 {
        stroke: #f21454;
      }

      .cls-25 {
        fill: url(#linear-gradient-10);
      }

      .cls-53 {
        font-size: 20px;
      }

      .cls-36 {
        stroke: #000;
        stroke-width: .8px;
      }

      .cls-26 {
        fill: #fed700;
      }

      .cls-54 {
        font-size: 122.8px;
      }

      .cls-52 {
        stroke: #f40b58;
      }

      .cls-43 {
        font-size: 71px;
      }

      .cls-55 {
        font-size: 96px;
      }
    </style>
    <path id="path" d="M-483.4,535.8c45.6,118.5,132.6,190.2,239.1,237.7,114.3-49.6,204.9-130.7,239.8-239"/>
    <path id="path-2" d="M-483.4,535.8c45.6,118.5,132.6,190.2,239.1,237.7,114.3-49.6,204.9-130.7,239.8-239"/>
    <path id="path-3" d="M-477.9,547.2c44.3,114.3,128.9,183.5,232.4,229.3,111.1-47.9,207.3-140.6,241.2-245.1"/>
    <path id="path-4" d="M-489.2,526.9c46.7,123.4,135.9,198.1,245,247.6,117.2-51.7,216.8-149.1,252.6-262"/>
    <path id="path-5" d="M-469,523.8c42.8,118.5,124.4,191.5,224.9,234.4,106.3-51.6,192.6-127.3,225.5-235.7"/>
    <path id="path-6" d="M-483.4,523.8c45.4,118.5,131.9,191.5,238.5,234.4,112.8-51.6,204.4-127.3,239.2-235.7"/>
    <path id="path-7" d="M-493.3,548.3c47.6,118.8,138.5,190.8,249.7,238.5,119.4-49.8,219.4-139.5,254.2-254.9"/>
    <path id="path-8" d="M-500.5,553.9c48.2,123.4,140.4,198.1,253.2,247.6C-126.3,749.9-21.5,649.8,15.5,536.9"/>
    <path id="path-9" d="M-505.8,543.9c27.3,111.3,156.2,226.8,261.9,257.8C-120.1,756.2-15.7,660.9,20.9,537.6"/>
    <path id="path-10" d="M-488.8,547c46.7,116.7,136,187.4,245.2,234.2,117.2-48.9,215.4-137,249.6-250.3"/>
    <path id="path-11" d="M-479.4,533.5c26.4,96,139.1,197.7,235.4,235.2,105.2-45.3,209.5-140,235.6-238.2"/>
    <path id="path-12" d="M-485,536.1s98,236.4,241.3,236.4C-102.6,755.7-.3,537-.3,537"/>
    <path id="path-13" d="M-487.1,530.6c45.8,121.6,137.2,195.2,244.3,244C-127.9,723.6-36.8,640.5-1.6,529.3"/>
    <linearGradient id="linear-gradient" x1="-922.5" y1="154" x2="-932" y2="726.2" gradientUnits="userSpaceOnUse">
      <stop offset="0" stop-color="#fff"/>
      <stop offset=".6" stop-color="#231f20"/>
    </linearGradient>
    <linearGradient id="linear-gradient-2" x1="175.2" y1="546.8" x2="175.2" y2="521" gradientUnits="userSpaceOnUse">
      <stop offset="0" stop-color="#000"/>
      <stop offset=".4" stop-color="#020202"/>
      <stop offset=".6" stop-color="#0c0b0b"/>
      <stop offset=".8" stop-color="#1c1a1a"/>
      <stop offset="1" stop-color="#302c2d"/>
    </linearGradient>
    <linearGradient id="linear-gradient-3" x1="751.4" y1="546.8" x2="751.4" y2="521" gradientUnits="userSpaceOnUse">
      <stop offset="0" stop-color="#000"/>
      <stop offset=".4" stop-color="#020202"/>
      <stop offset=".6" stop-color="#0c0b0b"/>
      <stop offset=".8" stop-color="#1c1a1a"/>
      <stop offset="1" stop-color="#302c2d"/>
    </linearGradient>
    <linearGradient id="linear-gradient-4" x1="-1884.8" y1="459.3" x2="-1310.6" y2="459.3" gradientUnits="userSpaceOnUse">
      <stop offset="0" stop-color="#fff"/>
      <stop offset="0" stop-color="#e5e4e5"/>
      <stop offset="0" stop-color="#bcbbbc"/>
      <stop offset="0" stop-color="#979696"/>
      <stop offset="0" stop-color="#787576"/>
      <stop offset=".1" stop-color="#5d5a5b"/>
      <stop offset=".2" stop-color="#474445"/>
      <stop offset=".2" stop-color="#373334"/>
      <stop offset=".3" stop-color="#2b2728"/>
      <stop offset=".3" stop-color="#242021"/>
      <stop offset=".5" stop-color="#231f20"/>
      <stop offset=".7" stop-color="#242021"/>
      <stop offset=".8" stop-color="#2b2728"/>
      <stop offset=".8" stop-color="#373334"/>
      <stop offset=".9" stop-color="#474445"/>
      <stop offset=".9" stop-color="#5d5a5b"/>
      <stop offset=".9" stop-color="#787576"/>
      <stop offset=".9" stop-color="#979696"/>
      <stop offset="1" stop-color="#bcbbbc"/>
      <stop offset="1" stop-color="#e5e4e5"/>
      <stop offset="1" stop-color="#fff"/>
    </linearGradient>
    <linearGradient id="linear-gradient-5" x1="668.5" y1="546.7" x2="668.5" y2="469.6" gradientUnits="userSpaceOnUse">
      <stop offset=".1" stop-color="#302c2d"/>
      <stop offset=".1" stop-color="#262324"/>
      <stop offset=".3" stop-color="#110f10"/>
      <stop offset=".4" stop-color="#040304"/>
      <stop offset=".5" stop-color="#000"/>
      <stop offset=".6" stop-color="#000"/>
      <stop offset="1" stop-color="#000"/>
    </linearGradient>
    <linearGradient id="linear-gradient-6" x1="655" y1="469.5" x2="655" y2="510.6" gradientUnits="userSpaceOnUse">
      <stop offset="0" stop-color="#1a1a1a"/>
      <stop offset="0" stop-color="#262425"/>
      <stop offset="0" stop-color="#373334"/>
      <stop offset="0" stop-color="#433d3f"/>
      <stop offset="0" stop-color="#4a4345"/>
      <stop offset=".1" stop-color="#4c4547"/>
      <stop offset=".1" stop-color="#443e3f"/>
      <stop offset=".2" stop-color="#383335"/>
      <stop offset=".4" stop-color="#312d2e"/>
      <stop offset=".7" stop-color="#302c2d"/>
      <stop offset=".7" stop-color="#2a2627"/>
      <stop offset=".8" stop-color="#191718"/>
      <stop offset=".8" stop-color="#000"/>
    </linearGradient>
    <linearGradient id="linear-gradient-7" x1="621.3" y1="489.5" x2="621.3" y2="526.1" gradientUnits="userSpaceOnUse">
      <stop offset=".2" stop-color="#302c2d"/>
      <stop offset=".3" stop-color="#141212"/>
      <stop offset=".4" stop-color="#000"/>
    </linearGradient>
    <linearGradient id="linear-gradient-8" x1="601.5" y1="456.4" x2="601.5" y2="552.8" gradientUnits="userSpaceOnUse">
      <stop offset="0" stop-color="#000"/>
      <stop offset="0" stop-color="#0a090a"/>
      <stop offset="0" stop-color="#1b1919"/>
      <stop offset="0" stop-color="#272424"/>
      <stop offset="0" stop-color="#2e2a2b"/>
      <stop offset="0" stop-color="#302c2d"/>
      <stop offset=".2" stop-color="#302c2d"/>
      <stop offset=".3" stop-color="#302c2d"/>
      <stop offset=".3" stop-color="#2d292a"/>
      <stop offset=".4" stop-color="#242121"/>
      <stop offset=".4" stop-color="#151313"/>
      <stop offset=".4" stop-color="#000"/>
    </linearGradient>
    <linearGradient id="linear-gradient-9" x1="587.8" y1="400.6" x2="587.8" y2="605.8" gradientUnits="userSpaceOnUse">
      <stop offset="0" stop-color="#000"/>
      <stop offset="0" stop-color="#0a090a"/>
      <stop offset="0" stop-color="#1b1919"/>
      <stop offset="0" stop-color="#272424"/>
      <stop offset="0" stop-color="#2e2a2b"/>
      <stop offset="0" stop-color="#302c2d"/>
      <stop offset=".3" stop-color="#302c2d"/>
      <stop offset=".4" stop-color="#302c2d"/>
      <stop offset=".4" stop-color="#2d292a"/>
      <stop offset=".5" stop-color="#242121"/>
      <stop offset=".5" stop-color="#151313"/>
      <stop offset=".5" stop-color="#000"/>
    </linearGradient>
    <linearGradient id="linear-gradient-10" x1="555.6" y1="381.6" x2="555.6" y2="608.9" gradientUnits="userSpaceOnUse">
      <stop offset="0" stop-color="#000"/>
      <stop offset="0" stop-color="#030303"/>
      <stop offset="0" stop-color="#232021"/>
      <stop offset="0" stop-color="#302c2d"/>
      <stop offset=".1" stop-color="#302c2d"/>
      <stop offset=".5" stop-color="#302c2d"/>
      <stop offset=".5" stop-color="#2c2929"/>
      <stop offset=".5" stop-color="#221f20"/>
      <stop offset=".5" stop-color="#111010"/>
      <stop offset=".5" stop-color="#000"/>
    </linearGradient>
    <linearGradient id="linear-gradient-11" x1="471.1" y1="403.2" x2="471.1" y2="378.5" gradientUnits="userSpaceOnUse">
      <stop offset=".9" stop-color="#302c2d"/>
      <stop offset=".9" stop-color="#282526"/>
      <stop offset="1" stop-color="#141213"/>
      <stop offset="1" stop-color="#000"/>
    </linearGradient>
    <linearGradient id="linear-gradient-12" x1="458.5" y1="422.8" x2="458.4" y2="437.8" gradientUnits="userSpaceOnUse">
      <stop offset=".9" stop-color="#302c2d"/>
      <stop offset=".9" stop-color="#111010"/>
      <stop offset=".9" stop-color="#000"/>
    </linearGradient>
    <linearGradient id="linear-gradient-13" x1="455.6" y1="458" x2="455.6" y2="473.7" gradientUnits="userSpaceOnUse">
      <stop offset=".8" stop-color="#302c2d"/>
      <stop offset=".9" stop-color="#131112"/>
      <stop offset="1" stop-color="#000"/>
    </linearGradient>
    <linearGradient id="linear-gradient-14" x1="450.5" y1="495.4" x2="450.5" y2="511.2" gradientUnits="userSpaceOnUse">
      <stop offset=".3" stop-color="#302c2d"/>
      <stop offset=".6" stop-color="#131112"/>
      <stop offset=".8" stop-color="#000"/>
    </linearGradient>
    <linearGradient id="linear-gradient-15" x1="455.8" y1="532.3" x2="455.8" y2="549.2" gradientUnits="userSpaceOnUse">
      <stop offset=".1" stop-color="#818181"/>
      <stop offset=".3" stop-color="#000"/>
    </linearGradient>
    <linearGradient id="linear-gradient-16" x1="458.9" y1="569" x2="458.9" y2="583.3" gradientUnits="userSpaceOnUse">
      <stop offset=".1" stop-color="#818181"/>
      <stop offset=".3" stop-color="#000"/>
    </linearGradient>
    <linearGradient id="linear-gradient-17" x1="471.4" y1="598.2" x2="471.4" y2="638.3" gradientUnits="userSpaceOnUse">
      <stop offset="0" stop-color="#818181"/>
      <stop offset=".1" stop-color="#000"/>
    </linearGradient>
    <linearGradient id="linear-gradient-18" x1="274.9" y1="489.6" x2="274.9" y2="523" gradientUnits="userSpaceOnUse">
      <stop offset=".3" stop-color="#302c2d"/>
      <stop offset=".3" stop-color="#2f2b2c"/>
      <stop offset=".4" stop-color="#222121"/>
      <stop offset=".6" stop-color="#1b1b1b"/>
      <stop offset="1" stop-color="#1a1a1a"/>
    </linearGradient>
    <linearGradient id="linear-gradient-19" x1="343.9" y1="374.2" x2="343.9" y2="620.4" gradientUnits="userSpaceOnUse">
      <stop offset="0" stop-color="#000"/>
      <stop offset="0" stop-color="#030303"/>
      <stop offset="0" stop-color="#232021"/>
      <stop offset="0" stop-color="#302c2d"/>
      <stop offset="0" stop-color="#302c2d"/>
      <stop offset=".5" stop-color="#302c2d"/>
      <stop offset=".5" stop-color="#2c2929"/>
      <stop offset=".5" stop-color="#221f20"/>
      <stop offset=".5" stop-color="#111010"/>
      <stop offset=".5" stop-color="#000"/>
    </linearGradient>
    <linearGradient id="linear-gradient-20" x1="330.9" y1="513.3" x2="330.9" y2="483.4" gradientUnits="userSpaceOnUse">
      <stop offset="0" stop-color="#1a1a1a"/>
      <stop offset="0" stop-color="#1f1f1f"/>
      <stop offset="0" stop-color="#545454"/>
      <stop offset="0" stop-color="#747474"/>
      <stop offset="0" stop-color="#818181"/>
      <stop offset="0" stop-color="#818181"/>
      <stop offset=".2" stop-color="#818181"/>
      <stop offset=".3" stop-color="#7d7d7d"/>
      <stop offset=".3" stop-color="#737373"/>
      <stop offset=".4" stop-color="#626262"/>
      <stop offset=".4" stop-color="#4a4a4a"/>
      <stop offset=".5" stop-color="#2b2b2b"/>
      <stop offset=".5" stop-color="#1a1a1a"/>
    </linearGradient>
  </defs>
  <g id="Layer_27" data-name="Layer 27">
    <circle class="cls-26" cx="463.5" cy="465.8" r="453.3"/>
    <g>
      <path class="cls-7" d="M885,521.2l13.2,1.6.8-6.6c.2-1.1.2-2.2.3-3.3l.3-3.3,1-13.2.2-3.3c0-1.1,0-2.2.1-3.3l.2-6.6.3-13.3h-13.3l-.5,18.8-44.2-1.9.3-10.6-13.3-.2-.2,8.2v4.1c-.1,1.4-.3,2.7-.4,4.1-.4,5.4-.8,10.9-1.3,16.3l13.2,1.4c.4-3.5.6-7,.8-10.5l44.1,3.4-.7,9.3c0,1.6-.3,3.1-.5,4.6l-.6,4.6Z"/>
      <path class="cls-7" d="M875.8,571.9l12.9,3.2,3-13,.7-3.2c.2-1.1.4-2.2.6-3.3l1.2-6.5c.8-4.4,1.6-8.7,2.3-13.1l1.7-13.2-13.2-1.6-1.2,9.3c-.2,1.6-.4,3.1-.6,4.7l-.8,4.6-43.6-7.2c.3-1.7.7-3.5.9-5.2l.7-5.2-13.1-1.8c-.6,5.4-1.6,10.7-2.6,16.1l-1.4,8-1.8,7.9,12.9,3,1.2-5.1c.4-1.7.8-3.4,1.1-5.2l43.4,8.6c-.1.8-.3,1.5-.4,2.3l-.5,2.3-1,4.5-2.1,9.1Z"/>
      <path class="cls-7" d="M860.4,621l12.4,4.7,1.2-3.1c.4-1,.8-2.1,1.1-3.1l2.1-6.3,4.3-12.6,3.6-12.8c1.2-4.3,2.5-8.5,3.4-12.8l-12.9-3.2-1.1,4.6-1.3,4.5-2.6,9-42.4-12.4,2.9-10.2-12.8-3.4-4.5,15.7-5.2,15.4,12.5,4.5,3.4-10,42,13.8-3,8.8c-.5,1.5-1,2.9-1.5,4.4l-1.7,4.3Z"/>
      <path class="cls-7" d="M839.3,668l11.7,6.2,6.1-11.8c1-2,1.9-4,2.8-6l2.7-6.1,2.7-6.1,1.4-3c.4-1,.8-2.1,1.2-3.1l4.9-12.4-12.4-4.7-3.4,8.7c-1.2,2.9-2.2,5.9-3.6,8.7l-40.6-17.5,1.1-2.4,1-2.5,1.9-4.9-12.3-4.9c-1,2.5-2,5.1-3,7.6l-3.4,7.4-3.3,7.4c-.5,1.3-1.2,2.4-1.8,3.7l-1.9,3.6,11.8,6c1.6-3.1,3.3-6.2,4.7-9.5l40,18.8c-.7,1.4-1.2,2.8-2,4.2l-2.1,4.1-4.2,8.3Z"/>
      <path class="cls-7" d="M812.6,712.1l10.9,7.5c2.6-3.6,5-7.3,7.4-11.1,2.4-3.7,4.8-7.4,7.1-11.2l6.6-11.5,3.3-5.8c1.1-1.9,2-3.9,3.1-5.9l-11.7-6.2-2.1,4.2c-.7,1.4-1.5,2.7-2.3,4.1l-4.7,8.1-38.2-22.3,5.3-9.2-11.6-6.4-8.1,14.1-8.8,13.7,11,7.4,5.7-8.9,37.4,23.5-5,7.8-2.5,3.9-2.7,3.8Z"/>
      <path class="cls-7" d="M780.8,752.6l9.9,8.8,8.7-10c1.5-1.6,2.8-3.4,4.2-5.1l4.1-5.2,4.1-5.2,2-2.6c.7-.9,1.3-1.8,1.9-2.7l7.7-10.8-10.9-7.5-5.4,7.7c-1.8,2.5-3.6,5.1-5.6,7.6l-35.2-26.7,1.6-2.1,1.5-2.2,3.1-4.3-10.8-7.7c-1.6,2.2-3.1,4.4-4.7,6.6l-5,6.4-5,6.4c-1.7,2.1-3.5,4.1-5.3,6.2l10.1,8.6,3.5-4c.6-.7,1.2-1.3,1.7-2l1.6-2.1,34.3,27.9c-1.9,2.5-3.9,4.8-6,7.1l-6.1,7Z"/>
      <path class="cls-7" d="M744.4,789l8.8,9.9c1.7-1.5,3.4-2.9,5-4.4l4.8-4.6,9.6-9.2,9.2-9.6,4.6-4.8c1.5-1.6,2.9-3.3,4.4-5l-9.9-8.8-3.1,3.5c-1,1.2-2.1,2.3-3.2,3.4l-6.5,6.8-31.8-30.7,7.3-7.7-9.8-9-11.3,11.8-11.8,11.3,9,9.8,7.6-7.3,30.7,31.8-6.7,6.4c-1.1,1.1-2.2,2.2-3.4,3.2l-3.5,3.1Z"/>
      <path class="cls-7" d="M703.9,820.8l7.5,10.9,10.8-7.7c.9-.6,1.8-1.3,2.7-1.9l2.6-2,5.2-4.1,5.2-4.1c1.7-1.4,3.5-2.7,5.1-4.2l10-8.7-8.8-9.9-7.1,6.2-3.6,3.1c-1.2,1-2.4,2-3.7,2.9l-27.9-34.3c2.8-2.1,5.4-4.5,8.1-6.8l-8.6-10.1c-2.1,1.8-4.1,3.6-6.2,5.3l-6.4,5-6.4,5-6.6,4.7,7.7,10.8,4.3-3.1,2.2-1.5,2.1-1.6,26.7,35.2c-2.4,2-5,3.7-7.5,5.5l-7.6,5.4Z"/>
      <path class="cls-7" d="M659.8,847.4l6.2,11.7c2-1,4-2,5.9-3.1l5.8-3.3,11.5-6.6c3.8-2.3,7.5-4.8,11.2-7.1,3.7-2.4,7.5-4.7,11.1-7.4l-7.5-10.9-3.8,2.7-4,2.5-7.9,5.1-23.5-37.4,8.9-5.7-7.4-11-13.7,8.8-14.1,8.1,6.4,11.6,9.2-5.3,22.3,38.2-8.1,4.6c-1.4.8-2.7,1.6-4.1,2.3l-4.1,2.1Z"/>
      <path class="cls-7" d="M612.9,868.6l4.7,12.4,12.4-4.9c1-.4,2.1-.8,3.1-1.2l3-1.4,6.1-2.7,6.1-2.7c2-.9,4.1-1.8,6-2.8l11.8-6.1-6.2-11.7-8.4,4.3-4.2,2.1c-1.4.7-2.8,1.3-4.3,2l-18.8-40c3.2-1.4,6.3-3.1,9.5-4.7l-6-11.8-3.6,1.9c-1.2.6-2.4,1.3-3.7,1.8l-7.4,3.3-7.4,3.4-7.6,3,4.9,12.3,4.9-1.9,2.5-1,2.4-1.1,17.5,40.6c-2.8,1.3-5.7,2.4-8.6,3.5l-8.7,3.4Z"/>
      <path class="cls-7" d="M563.7,883.9l3.2,12.9c4.3-.9,8.6-2.2,12.8-3.4l12.8-3.6,12.6-4.3,6.3-2.1c1.1-.3,2.1-.7,3.1-1.1l3.1-1.2-4.7-12.4-4.4,1.7-4.4,1.5-8.9,3-13.8-42,10-3.4-4.5-12.5-15.4,5.2-15.7,4.4,3.4,12.8,10.2-2.9,12.4,42.4-9,2.5-4.5,1.3-4.5,1.1Z"/>
      <path class="cls-7" d="M513,893.1l1.6,13.2,13.2-1.7c4.4-.7,8.7-1.5,13.1-2.3l6.5-1.2c1.1-.2,2.2-.4,3.3-.6l3.2-.7,13-3-3.2-12.9-9.2,2.1-4.6,1.1-2.3.5-2.3.4-8.6-43.4c1.7-.3,3.5-.7,5.2-1.1l5.1-1.2-3-12.9-7.9,1.8-8,1.4-8,1.4-2,.4c-.7.1-1.3.2-2,.3l-4,.5,1.8,13.1,5.2-.7c1.7-.2,3.5-.6,5.2-.9l7.2,43.6-4.6.8c-1.5.2-3.1.4-4.6.6l-9.2,1.2Z"/>
      <path class="cls-7" d="M461.6,896.3v13.3l13.3-.3,6.6-.2c1.1,0,2.2,0,3.3-.1l3.3-.2,13.2-1,3.3-.3c1.1,0,2.2-.2,3.3-.3l6.6-.8-1.6-13.2-4.7.6c-1.6.2-3.1.4-4.7.5l-9.4.7-3.3-44.1c3.5-.3,7-.5,10.5-.8l-1.4-13.2c-5.4.5-10.8.8-16.3,1.3-1.4,0-2.7.3-4.1.3h-4.1c0,0-8.2.3-8.2.3l.2,13.3,10.6-.3,1.9,44.2-18.6.5Z"/>
      <path class="cls-7" d="M410.2,893.1l-1.6,13.2,6.6.8c1.1.2,2.2.2,3.3.3l3.3.3,13.2,1,3.3.2c1.1,0,2.2,0,3.3.1l6.6.2,13.3.3v-13.3l-18.8-.5,1.9-44.2,10.6.3.2-13.3-8.2-.2h-4.1c-1.4-.1-2.7-.3-4.1-.4-5.4-.4-10.9-.8-16.3-1.3l-1.4,13.2c3.5.4,7,.6,10.5.8l-3.4,44.1-9.3-.7c-1.6,0-3.1-.3-4.6-.5l-4.6-.6Z"/>
      <path class="cls-7" d="M359.6,883.9l-3.2,12.9,13,3,3.2.7c1.1.2,2.2.4,3.3.6l6.5,1.2c4.4.8,8.7,1.6,13.1,2.3l13.2,1.7,1.6-13.2-9.3-1.2c-1.6-.2-3.1-.4-4.7-.6l-4.6-.8,7.2-43.6c1.7.3,3.5.7,5.2.9l5.2.7,1.8-13.1c-5.4-.6-10.7-1.6-16.1-2.6l-8-1.4-7.9-1.8-3,12.9,5.1,1.2c1.7.4,3.4.8,5.2,1.1l-8.6,43.4c-.8-.1-1.5-.3-2.3-.4l-2.3-.5-4.5-1-9.1-2.1Z"/>
      <path class="cls-7" d="M310.4,868.6l-4.7,12.4,3.1,1.2c1,.4,2.1.8,3.1,1.1l6.3,2.1,12.6,4.3,12.8,3.6c4.3,1.2,8.5,2.5,12.8,3.4l3.2-12.9-4.6-1.1-4.5-1.3-9-2.6,12.4-42.4,10.2,2.9,3.4-12.8-15.7-4.5-15.4-5.2-4.5,12.5,10,3.4-13.8,42-8.8-3c-1.5-.5-2.9-1-4.4-1.5l-4.3-1.7Z"/>
      <path class="cls-7" d="M263.4,847.4l-6.2,11.7,11.8,6.1c2,1,4,1.9,6,2.8l6.1,2.7,6.1,2.7,3,1.4c1,.4,2.1.8,3.1,1.2l12.4,4.9,4.7-12.4-8.7-3.4c-2.9-1.2-5.9-2.2-8.7-3.6l17.5-40.6,2.4,1.1,2.5,1,4.9,1.9,4.9-12.3c-2.5-1-5.1-2-7.6-3l-7.4-3.4-7.4-3.3c-1.3-.5-2.4-1.2-3.7-1.8l-3.6-1.9-6,11.8c3.1,1.6,6.2,3.3,9.5,4.7l-18.8,40c-1.4-.7-2.8-1.2-4.2-2l-4.1-2.1-8.3-4.2Z"/>
      <path class="cls-7" d="M219.3,820.8l-7.5,10.9c3.6,2.6,7.3,5,11.1,7.4,3.7,2.4,7.4,4.8,11.2,7.1l11.5,6.6,5.8,3.3c1.9,1.1,3.9,2,5.9,3.1l6.2-11.7-4.2-2.1c-1.4-.7-2.7-1.5-4.1-2.3l-8.1-4.7,22.3-38.2,9.2,5.3,6.4-11.6-14.1-8.1-13.7-8.8-7.4,11,8.9,5.7-23.5,37.4-7.8-5-3.9-2.5-3.8-2.7Z"/>
      <path class="cls-7" d="M178.8,789l-8.8,9.9,10,8.7c1.6,1.5,3.4,2.8,5.1,4.2l5.2,4.1,5.2,4.1,2.6,2c.9.7,1.8,1.3,2.7,1.9l10.8,7.7,7.5-10.9-7.7-5.4c-2.5-1.8-5.1-3.6-7.6-5.6l26.7-35.2,2.1,1.6,2.2,1.5,4.3,3.1,7.7-10.8c-2.2-1.6-4.4-3.1-6.6-4.7l-6.4-5-6.4-5c-2.1-1.7-4.1-3.5-6.2-5.3l-8.6,10.1,4,3.5c.7.6,1.3,1.2,2,1.7l2.1,1.6-27.9,34.3c-2.5-1.9-4.8-3.9-7.1-6l-7-6.1Z"/>
      <path class="cls-7" d="M142.4,752.6l-9.9,8.8c1.5,1.7,2.9,3.4,4.4,5l4.6,4.8,9.2,9.6,9.6,9.2,4.8,4.6c1.6,1.5,3.3,2.9,5,4.4l8.8-9.9-3.5-3.1c-1.2-1-2.3-2.1-3.4-3.2l-6.8-6.5,30.7-31.8,7.7,7.3,9-9.8-11.8-11.3-11.3-11.8-9.8,9,7.3,7.6-31.8,30.7-6.4-6.7c-1.1-1.1-2.2-2.2-3.2-3.4l-3.1-3.5Z"/>
      <path class="cls-7" d="M110.6,712.1l-10.9,7.5,7.7,10.8c.6.9,1.3,1.8,1.9,2.7l2,2.6,4.1,5.2,4.1,5.2c1.4,1.7,2.7,3.5,4.2,5.1l8.7,10,9.9-8.8-6.2-7.1-3.1-3.6c-1-1.2-2-2.4-2.9-3.7l34.3-27.9c2.1,2.8,4.5,5.4,6.8,8.1l10.1-8.6c-1.8-2.1-3.6-4.1-5.3-6.2l-5-6.4-5-6.4-4.7-6.6-10.8,7.7,3.1,4.3,1.5,2.2,1.6,2.1-35.2,26.7c-2-2.4-3.7-5-5.5-7.5l-5.4-7.6Z"/>
      <path class="cls-7" d="M84,668l-11.7,6.2c1,2,2,4,3.1,5.9l3.3,5.8,6.6,11.5c2.3,3.8,4.8,7.5,7.1,11.2,2.4,3.7,4.7,7.5,7.4,11.1l10.9-7.5-2.7-3.8-2.5-4-5.1-7.9,37.4-23.5,5.7,8.9,11-7.4-8.8-13.7-8.1-14.1-11.6,6.4,5.3,9.2-38.2,22.3-4.6-8.1c-.8-1.4-1.6-2.7-2.3-4.1l-2.1-4.1Z"/>
      <path class="cls-7" d="M62.8,621l-12.4,4.7,4.9,12.4c.4,1,.8,2.1,1.2,3.1l1.4,3,2.7,6.1,2.7,6.1c.9,2,1.8,4.1,2.8,6l6.1,11.8,11.7-6.2-4.3-8.4-2.1-4.2c-.7-1.4-1.3-2.8-2-4.3l40-18.8c1.4,3.2,3.1,6.3,4.7,9.5l11.8-6-1.9-3.6c-.6-1.2-1.3-2.4-1.8-3.7l-3.3-7.4-3.4-7.4-3-7.6-12.3,4.9,1.9,4.9,1,2.5,1.1,2.4-40.6,17.5c-1.3-2.8-2.4-5.7-3.5-8.6l-3.4-8.7Z"/>
      <path class="cls-7" d="M47.5,571.9l-12.9,3.2c.9,4.3,2.2,8.6,3.4,12.8l3.6,12.8,4.3,12.6,2.1,6.3c.3,1.1.7,2.1,1.1,3.1l1.2,3.1,12.4-4.7-1.7-4.4-1.5-4.4-3-8.9,42-13.8,3.4,10,12.5-4.5-5.2-15.4-4.4-15.7-12.8,3.4,2.9,10.2-42.4,12.4-2.5-9-1.3-4.5-1.1-4.5Z"/>
      <path class="cls-7" d="M38.3,521.2l-13.2,1.6,1.7,13.2c.7,4.4,1.5,8.7,2.3,13.1l1.2,6.5c.2,1.1.4,2.2.6,3.3l.7,3.2,3,13,12.9-3.2-2.1-9.2-1.1-4.6-.5-2.3-.4-2.3,43.4-8.6c.3,1.7.7,3.5,1.1,5.2l1.2,5.1,12.9-3-1.8-7.9-1.4-8-1.4-8-.4-2c-.1-.7-.2-1.3-.3-2l-.5-4-13.1,1.8.7,5.2c.2,1.7.6,3.5.9,5.2l-43.6,7.2-.8-4.6c-.2-1.5-.4-3.1-.6-4.6l-1.2-9.2Z"/>
      <path class="cls-7" d="M35.1,469.8h-13.3l.3,13.3.2,6.6c0,1.1,0,2.2.1,3.3l.2,3.3,1,13.2.3,3.3c0,1.1.2,2.2.3,3.3l.8,6.6,13.2-1.6-.6-4.7c-.2-1.6-.4-3.1-.5-4.7l-.7-9.4,44.1-3.3c.3,3.5.5,7,.8,10.5l13.2-1.4c-.5-5.4-.8-10.8-1.3-16.3,0-1.4-.3-2.7-.3-4.1v-4.1c0,0-.3-8.2-.3-8.2l-13.3.2.3,10.6-44.2,1.9-.5-18.6Z"/>
      <path class="cls-7" d="M38.3,418.4l-13.2-1.6-.8,6.6c-.2,1.1-.2,2.2-.3,3.3l-.3,3.3-1,13.2-.2,3.3c0,1.1,0,2.2-.1,3.3l-.2,6.6-.3,13.3h13.3l.5-18.8,44.2,1.9-.3,10.6,13.3.2.2-8.2v-4.1c.1-1.4.3-2.7.4-4.1.4-5.4.8-10.9,1.3-16.3l-13.2-1.4c-.4,3.5-.6,7-.8,10.5l-44.1-3.4.7-9.3c0-1.6.3-3.1.5-4.6l.6-4.6Z"/>
      <path class="cls-7" d="M47.5,367.7l-12.9-3.2-3,13-.7,3.2c-.2,1.1-.4,2.2-.6,3.3l-1.2,6.5c-.8,4.4-1.6,8.7-2.3,13.1l-1.7,13.2,13.2,1.6,1.2-9.3c.2-1.6.4-3.1.6-4.7l.8-4.6,43.6,7.2c-.3,1.7-.7,3.5-.9,5.2l-.7,5.2,13.1,1.8c.6-5.4,1.6-10.7,2.6-16.1l1.4-8,1.8-7.9-12.9-3-1.2,5.1c-.4,1.7-.8,3.4-1.1,5.2l-43.4-8.6c.1-.8.3-1.5.4-2.3l.5-2.3,1-4.5,2.1-9.1Z"/>
      <path class="cls-7" d="M62.8,318.5l-12.4-4.7-1.2,3.1c-.4,1-.8,2.1-1.1,3.1l-2.1,6.3-4.3,12.6-3.6,12.8c-1.2,4.3-2.5,8.5-3.4,12.8l12.9,3.2,1.1-4.6,1.3-4.5,2.6-9,42.4,12.4-2.9,10.2,12.8,3.4,4.5-15.7,5.2-15.4-12.5-4.5-3.4,10-42-13.8,3-8.8c.5-1.5,1-2.9,1.5-4.4l1.7-4.3Z"/>
      <path class="cls-7" d="M84,271.6l-11.7-6.2-6.1,11.8c-1,2-1.9,4-2.8,6l-2.7,6.1-2.7,6.1-1.4,3c-.4,1-.8,2.1-1.2,3.1l-4.9,12.4,12.4,4.7,3.4-8.7c1.2-2.9,2.2-5.9,3.6-8.7l40.6,17.5-1.1,2.4-1,2.5-1.9,4.9,12.3,4.9c1-2.5,2-5.1,3-7.6l3.4-7.4,3.3-7.4c.5-1.3,1.2-2.4,1.8-3.7l1.9-3.6-11.8-6c-1.6,3.1-3.3,6.2-4.7,9.5l-40-18.8c.7-1.4,1.2-2.8,2-4.2l2.1-4.1,4.2-8.3Z"/>
      <path class="cls-7" d="M110.6,227.5l-10.9-7.5c-2.6,3.6-5,7.3-7.4,11.1-2.4,3.7-4.8,7.4-7.1,11.2l-6.6,11.5-3.3,5.8c-1.1,1.9-2,3.9-3.1,5.9l11.7,6.2,2.1-4.2c.7-1.4,1.5-2.7,2.3-4.1l4.7-8.1,38.2,22.3-5.3,9.2,11.6,6.4,8.1-14.1,8.8-13.7-11-7.4-5.7,8.9-37.4-23.5,5-7.8,2.5-3.9,2.7-3.8Z"/>
      <path class="cls-7" d="M142.4,187l-9.9-8.8-8.7,10c-1.5,1.6-2.8,3.4-4.2,5.1l-4.1,5.2-4.1,5.2-2,2.6c-.7.9-1.3,1.8-1.9,2.7l-7.7,10.8,10.9,7.5,5.4-7.7c1.8-2.5,3.6-5.1,5.6-7.6l35.2,26.7-1.6,2.1-1.5,2.2-3.1,4.3,10.8,7.7c1.6-2.2,3.1-4.4,4.7-6.6l5-6.4,5-6.4c1.7-2.1,3.5-4.1,5.3-6.2l-10.1-8.6-3.5,4c-.6.7-1.2,1.3-1.7,2l-1.6,2.1-34.3-27.9c1.9-2.5,3.9-4.8,6-7.1l6.1-7Z"/>
      <path class="cls-7" d="M178.8,150.6l-8.8-9.9c-1.7,1.5-3.4,2.9-5,4.4l-4.8,4.6-9.6,9.2-9.2,9.6-4.6,4.8c-1.5,1.6-2.9,3.3-4.4,5l9.9,8.8,3.1-3.5c1-1.2,2.1-2.3,3.2-3.4l6.5-6.8,31.8,30.7-7.3,7.7,9.8,9,11.3-11.8,11.8-11.3-9-9.8-7.6,7.3-30.7-31.8,6.7-6.4c1.1-1.1,2.2-2.2,3.4-3.2l3.5-3.1Z"/>
      <path class="cls-7" d="M219.3,118.8l-7.5-10.9-10.8,7.7c-.9.6-1.8,1.3-2.7,1.9l-2.6,2-5.2,4.1-5.2,4.1c-1.7,1.4-3.5,2.7-5.1,4.2l-10,8.7,8.8,9.9,7.1-6.2,3.6-3.1c1.2-1,2.4-2,3.7-2.9l27.9,34.3c-2.8,2.1-5.4,4.5-8.1,6.8l8.6,10.1c2.1-1.8,4.1-3.6,6.2-5.3l6.4-5,6.4-5,6.6-4.7-7.7-10.8-4.3,3.1-2.2,1.5-2.1,1.6-26.7-35.2c2.4-2,5-3.7,7.5-5.5l7.6-5.4Z"/>
      <path class="cls-7" d="M263.4,92.1l-6.2-11.7c-2,1-4,2-5.9,3.1l-5.8,3.3-11.5,6.6c-3.8,2.3-7.5,4.8-11.2,7.1-3.7,2.4-7.5,4.7-11.1,7.4l7.5,10.9,3.8-2.7,4-2.5,7.9-5.1,23.5,37.4-8.9,5.7,7.4,11,13.7-8.8,14.1-8.1-6.4-11.6-9.2,5.3-22.3-38.2,8.1-4.6c1.4-.8,2.7-1.6,4.1-2.3l4.1-2.1Z"/>
      <path class="cls-7" d="M310.4,71l-4.7-12.4-12.4,4.9c-1,.4-2.1.8-3.1,1.2l-3,1.4-6.1,2.7-6.1,2.7c-2,.9-4.1,1.8-6,2.8l-11.8,6.1,6.2,11.7,8.4-4.3,4.2-2.1c1.4-.7,2.8-1.3,4.3-2l18.8,40c-3.2,1.4-6.3,3.1-9.5,4.7l6,11.8,3.6-1.9c1.2-.6,2.4-1.3,3.7-1.8l7.4-3.3,7.4-3.4,7.6-3-4.9-12.3-4.9,1.9-2.5,1-2.4,1.1-17.5-40.6c2.8-1.3,5.7-2.4,8.6-3.5l8.7-3.4Z"/>
      <path class="cls-7" d="M359.6,55.6l-3.2-12.9c-4.3.9-8.6,2.2-12.8,3.4l-12.8,3.6-12.6,4.3-6.3,2.1c-1.1.3-2.1.7-3.1,1.1l-3.1,1.2,4.7,12.4,4.4-1.7,4.4-1.5,8.9-3,13.8,42-10,3.4,4.5,12.5,15.4-5.2,15.7-4.4-3.4-12.8-10.2,2.9-12.4-42.4,9-2.5,4.5-1.3,4.5-1.1Z"/>
      <path class="cls-7" d="M410.2,46.4l-1.6-13.2-13.2,1.7c-4.4.7-8.7,1.5-13.1,2.3l-6.5,1.2c-1.1.2-2.2.4-3.3.6l-3.2.7-13,3,3.2,12.9,9.2-2.1,4.6-1.1,2.3-.5,2.3-.4,8.6,43.4c-1.7.3-3.5.7-5.2,1.1l-5.1,1.2,3,12.9,7.9-1.8,8-1.4,8-1.4,2-.4c.7-.1,1.3-.2,2-.3l4-.5-1.8-13.1-5.2.7c-1.7.2-3.5.6-5.2.9l-7.2-43.6,4.6-.8c1.5-.2,3.1-.4,4.6-.6l9.2-1.2Z"/>
      <path class="cls-7" d="M461.6,43.3v-13.3l-13.3.3-6.6.2c-1.1,0-2.2,0-3.3.1l-3.3.2-13.2,1-3.3.3c-1.1,0-2.2.2-3.3.3l-6.6.8,1.6,13.2,4.7-.6c1.6-.2,3.1-.4,4.7-.5l9.4-.7,3.3,44.1c-3.5.3-7,.5-10.5.8l1.4,13.2c5.4-.5,10.8-.8,16.3-1.3,1.4,0,2.7-.3,4.1-.3h4.1c0,0,8.2-.3,8.2-.3l-.2-13.3-10.6.3-1.9-44.2,18.6-.5Z"/>
      <path class="cls-7" d="M513,46.4l1.6-13.2-6.6-.8c-1.1-.2-2.2-.2-3.3-.3l-3.3-.3-13.2-1-3.3-.2c-1.1,0-2.2,0-3.3-.1l-6.6-.2-13.3-.3v13.3l18.8.5-1.9,44.2-10.6-.3-.2,13.3,8.2.2h4.1c1.4.1,2.7.3,4.1.4,5.4.4,10.9.8,16.3,1.3l1.4-13.2c-3.5-.4-7-.6-10.5-.8l3.4-44.1,9.3.7c1.6,0,3.1.3,4.6.5l4.6.6Z"/>
      <path class="cls-7" d="M563.7,55.6l3.2-12.9-13-3-3.2-.7c-1.1-.2-2.2-.4-3.3-.6l-6.5-1.2c-4.4-.8-8.7-1.6-13.1-2.3l-13.2-1.7-1.6,13.2,9.3,1.2c1.6.2,3.1.4,4.7.6l4.6.8-7.2,43.6c-1.7-.3-3.5-.7-5.2-.9l-5.2-.7-1.8,13.1c5.4.6,10.7,1.6,16.1,2.6l8,1.4,7.9,1.8,3-12.9-5.1-1.2c-1.7-.4-3.4-.8-5.2-1.1l8.6-43.4c.8.1,1.5.3,2.3.4l2.3.5,4.5,1,9.1,2.1Z"/>
      <path class="cls-7" d="M612.9,71l4.7-12.4-3.1-1.2c-1-.4-2.1-.8-3.1-1.1l-6.3-2.1-12.6-4.3-12.8-3.6c-4.3-1.2-8.5-2.5-12.8-3.4l-3.2,12.9,4.6,1.1,4.5,1.3,9,2.6-12.4,42.4-10.2-2.9-3.4,12.8,15.7,4.5,15.4,5.2,4.5-12.5-10-3.4,13.8-42,8.8,3c1.5.5,2.9,1,4.4,1.5l4.3,1.7Z"/>
      <path class="cls-7" d="M659.8,92.1l6.2-11.7-11.8-6.1c-2-1-4-1.9-6-2.8l-6.1-2.7-6.1-2.7-3-1.4c-1-.4-2.1-.8-3.1-1.2l-12.4-4.9-4.7,12.4,8.7,3.4c2.9,1.2,5.9,2.2,8.7,3.6l-17.5,40.6-2.4-1.1-2.5-1-4.9-1.9-4.9,12.3c2.5,1,5.1,2,7.6,3l7.4,3.4,7.4,3.3c1.3.5,2.4,1.2,3.7,1.8l3.6,1.9,6-11.8c-3.1-1.6-6.2-3.3-9.5-4.7l18.8-40c1.4.7,2.8,1.2,4.2,2l4.1,2.1,8.3,4.2Z"/>
      <path class="cls-7" d="M703.9,118.8l7.5-10.9c-3.6-2.6-7.3-5-11.1-7.4-3.7-2.4-7.4-4.8-11.2-7.1l-11.5-6.6-5.8-3.3c-1.9-1.1-3.9-2-5.9-3.1l-6.2,11.7,4.2,2.1c1.4.7,2.7,1.5,4.1,2.3l8.1,4.7-22.3,38.2-9.2-5.3-6.4,11.6,14.1,8.1,13.7,8.8,7.4-11-8.9-5.7,23.5-37.4,7.8,5,3.9,2.5,3.8,2.7Z"/>
      <path class="cls-7" d="M744.4,150.6l8.8-9.9-10-8.7c-1.6-1.5-3.4-2.8-5.1-4.2l-5.2-4.1-5.2-4.1-2.6-2c-.9-.7-1.8-1.3-2.7-1.9l-10.8-7.7-7.5,10.9,7.7,5.4c2.5,1.8,5.1,3.6,7.6,5.6l-26.7,35.2-2.1-1.6-2.2-1.5-4.3-3.1-7.7,10.8c2.2,1.6,4.4,3.1,6.6,4.7l6.4,5,6.4,5c2.1,1.7,4.1,3.5,6.2,5.3l8.6-10.1-4-3.5c-.7-.6-1.3-1.2-2-1.7l-2.1-1.6,27.9-34.3c2.5,1.9,4.8,3.9,7.1,6l7,6.1Z"/>
      <path class="cls-7" d="M780.8,187l9.9-8.8c-1.5-1.7-2.9-3.4-4.4-5l-4.6-4.8-9.2-9.6-9.6-9.2-4.8-4.6c-1.6-1.5-3.3-2.9-5-4.4l-8.8,9.9,3.5,3.1c1.2,1,2.3,2.1,3.4,3.2l6.8,6.5-30.7,31.8-7.7-7.3-9,9.8,11.8,11.3,11.3,11.8,9.8-9-7.3-7.6,31.8-30.7,6.4,6.7c1.1,1.1,2.2,2.2,3.2,3.4l3.1,3.5Z"/>
      <path class="cls-7" d="M812.6,227.5l10.9-7.5-7.7-10.8c-.6-.9-1.3-1.8-1.9-2.7l-2-2.6-4.1-5.2-4.1-5.2c-1.4-1.7-2.7-3.5-4.2-5.1l-8.7-10-9.9,8.8,6.2,7.1,3.1,3.6c1,1.2,2,2.4,2.9,3.7l-34.3,27.9c-2.1-2.8-4.5-5.4-6.8-8.1l-10.1,8.6c1.8,2.1,3.6,4.1,5.3,6.2l5,6.4,5,6.4,4.7,6.6,10.8-7.7-3.1-4.3-1.5-2.2-1.6-2.1,35.2-26.7c2,2.4,3.7,5,5.5,7.5l5.4,7.6Z"/>
      <path class="cls-7" d="M839.3,271.6l11.7-6.2c-1-2-2-4-3.1-5.9l-3.3-5.8-6.6-11.5c-2.3-3.8-4.8-7.5-7.1-11.2-2.4-3.7-4.7-7.5-7.4-11.1l-10.9,7.5,2.7,3.8,2.5,4,5.1,7.9-37.4,23.5-5.7-8.9-11,7.4,8.8,13.7,8.1,14.1,11.6-6.4-5.3-9.2,38.2-22.3,4.6,8.1c.8,1.4,1.6,2.7,2.3,4.1l2.1,4.1Z"/>
      <path class="cls-7" d="M860.4,318.5l12.4-4.7-4.9-12.4c-.4-1-.8-2.1-1.2-3.1l-1.4-3-2.7-6.1-2.7-6.1c-.9-2-1.8-4.1-2.8-6l-6.1-11.8-11.7,6.2,4.3,8.4,2.1,4.2c.7,1.4,1.3,2.8,2,4.3l-40,18.8c-1.4-3.2-3.1-6.3-4.7-9.5l-11.8,6,1.9,3.6c.6,1.2,1.3,2.4,1.8,3.7l3.3,7.4,3.4,7.4,3,7.6,12.3-4.9-1.9-4.9-1-2.5-1.1-2.4,40.6-17.5c1.3,2.8,2.4,5.7,3.5,8.6l3.4,8.7Z"/>
      <path class="cls-7" d="M875.8,367.7l12.9-3.2c-.9-4.3-2.2-8.6-3.4-12.8l-3.6-12.8-4.3-12.6-2.1-6.3c-.3-1.1-.7-2.1-1.1-3.1l-1.2-3.1-12.4,4.7,1.7,4.4,1.5,4.4,3,8.9-42,13.8-3.4-10-12.5,4.5,5.2,15.4,4.4,15.7,12.8-3.4-2.9-10.2,42.4-12.4,2.5,9,1.3,4.5,1.1,4.5Z"/>
      <path class="cls-7" d="M885,418.4l13.2-1.6-1.7-13.2c-.7-4.4-1.5-8.7-2.3-13.1l-1.2-6.5c-.2-1.1-.4-2.2-.6-3.3l-.7-3.2-3-13-12.9,3.2,2.1,9.2,1.1,4.6.5,2.3.4,2.3-43.4,8.6c-.3-1.7-.7-3.5-1.1-5.2l-1.2-5.1-12.9,3,1.8,7.9,1.4,8,1.4,8,.4,2c.1.7.2,1.3.3,2l.5,4,13.1-1.8-.7-5.2c-.2-1.7-.6-3.5-.9-5.2l43.6-7.2.8,4.6c.2,1.5.4,3.1.6,4.6l1.2,9.2Z"/>
      <path class="cls-7" d="M888.1,469.8h13.3l-.3-13.3-.2-6.6c0-1.1,0-2.2-.1-3.3l-.2-3.3-1-13.2-.3-3.3c0-1.1-.2-2.2-.3-3.3l-.8-6.6-13.2,1.6.6,4.7c.2,1.6.4,3.1.5,4.7l.7,9.4-44.1,3.3c-.3-3.5-.5-7-.8-10.5l-13.2,1.4c.5,5.4.8,10.8,1.3,16.3,0,1.4.3,2.7.3,4.1v4.1c0,0,.3,8.2.3,8.2l13.3-.2-.3-10.6,44.2-1.9.5,18.6Z"/>
    </g>
  </g>
  <g id="image" class="cls-29">
    <image width="206" height="206" transform="translate(13.3 14.7) scale(4.4)" xlink:href="C:\Users\TikTak\Desktop\Untitled-1.png"/>
  </g>
  <g id="artboard_4_-_black" data-name="artboard 4 - black">
    <g id="Layer_34_copy_2" data-name="Layer 34 copy 2" class="cls-35">
      <rect class="cls-7" x="-1228.6" y="95.6" width="606.6" height="792"/>
    </g>
    <g id="text_-_DavudTech_copy" data-name="text - DavudTech copy" class="cls-35">
      <path id="down_mane" data-name="down mane" class="cls-19" d="M-483.4,535.8c10.2.2,20.4-.8,30.6-.6,35.5,90.6,103.7,155.8,208.7,204.6,91.1-36.7,181.4-125.2,209-204.9,10.2-.1,30.6-.3,30.6-.3-14.4,50.2-73,166.9-239.8,239.5-124.8-54.4-207.8-147.1-239.2-238.2Z"/>
      <g id="path_for_text_copy" data-name="path for text copy">
        <path class="cls-36" d="M-483.4,535.8c45.6,118.5,132.6,190.2,239.1,237.7,114.3-49.6,204.9-130.7,239.8-239"/>
        <path class="cls-36" d="M-483.4,535.8c45.6,118.5,132.6,190.2,239.1,237.7,114.3-49.6,204.9-130.7,239.8-239"/>
      </g>
      <g id="other_copy" data-name="other copy" class="cls-35">
        <g id="Damaged_Serif_-_DavudTech_copy" data-name="Damaged Serif - DavudTech copy" class="cls-35">
          <text>
            <textPath startOffset="2.1%" xlink:href="#path"><tspan class="cls-47"><tspan x="0" y="0">www.DavudTech.com</tspan></tspan>
            </textPath></text>
          <text>
            <textPath startOffset=".8%" xlink:href="#path-2"><tspan class="cls-31"><tspan class="cls-53" x="0" y="0">www.</tspan><tspan class="cls-55" x="0" y="0">DavudTech</tspan><tspan class="cls-53" x="0" y="0">.com</tspan></tspan>
            </textPath></text>
        </g>
        <g id="Ordeal_Eroded_copy" data-name="Ordeal Eroded copy" class="cls-35">
          <text>
            <textPath xlink:href="#path-3"><tspan class="cls-32"><tspan x="0" y="0">www.DavudTech.com</tspan></tspan>
            </textPath></text>
          <text id="wm">
            <textPath startOffset="1.8%" xlink:href="#path-4"><tspan class="cls-40"><tspan class="cls-48" x="0" y="0">www.</tspan><tspan class="cls-49" x="0" y="0">DavudTech</tspan><tspan class="cls-48" x="0" y="0">.com</tspan></tspan>
            </textPath></text>
        </g>
        <g id="D_Day_Stencil_copy" data-name="D Day Stencil copy" class="cls-35">
          <text>
            <textPath startOffset="1.6%" xlink:href="#path-5"><tspan class="cls-27"><tspan x="0" y="0">www.DavudTech.com</tspan></tspan>
            </textPath></text>
          <text id="wm-2" data-name="wm">
            <textPath startOffset="2.1%" xlink:href="#path-6"><tspan class="cls-41"><tspan class="cls-48" x="0" y="0">www.</tspan><tspan class="cls-50" x="0" y="0">Davud Tech</tspan><tspan class="cls-48" x="0" y="0">.com</tspan></tspan>
            </textPath></text>
        </g>
        <g id="Impacted2.0_copy" data-name="Impacted2.0 copy" class="cls-35">
          <text>
            <textPath xlink:href="#path-7"><tspan class="cls-28"><tspan x="0" y="0">www.Davud Tech.com</tspan></tspan>
            </textPath></text>
          <text id="with_distance" data-name="with distance">
            <textPath xlink:href="#path-8"><tspan class="cls-43"><tspan x="0" y="0">www.Davud Tech.com</tspan></tspan>
            </textPath></text>
          <text id="wm-3" data-name="wm">
            <textPath xlink:href="#path-9"><tspan class="cls-33"><tspan class="cls-48" x="0" y="0">www.</tspan><tspan class="cls-44" x="0" y="0">Davud Tech</tspan><tspan class="cls-48" x="0" y="0">.com</tspan></tspan>
            </textPath></text>
        </g>
      </g>
      <g id="Anton_SC_-_google_copy" data-name="Anton SC - google copy">
        <text>
          <textPath xlink:href="#path-10"><tspan class="cls-34"><tspan x="0" y="0">www.Davud Tech.com</tspan></tspan>
          </textPath></text>
        <text id="with_distance-2" data-name="with distance">
          <textPath startOffset=".2%" xlink:href="#path-11"><tspan class="cls-42"><tspan x="0" y="0">www.DavudTech.com</tspan></tspan>
          </textPath></text>
        <text id="wm-4" data-name="wm">
          <textPath startOffset=".3%" xlink:href="#path-12"><tspan class="cls-30"><tspan class="cls-46" x="0" y="0">www.</tspan><tspan class="cls-54" x="0" y="0">DavudTech</tspan><tspan class="cls-46" x="0" y="0">.com</tspan></tspan>
          </textPath></text>
        <g class="cls-35">
          <text>
            <textPath startOffset="1%" xlink:href="#path-13"><tspan class="cls-39"><tspan class="cls-45" x="0" y="0">wwww.</tspan><tspan class="cls-38" x="0" y="0">davudtech</tspan><tspan class="cls-45" x="0" y="0">.com</tspan></tspan>
            </textPath></text>
        </g>
      </g>
    </g>
    <g id="shield_copy_4" data-name="shield copy 4">
      <g id="shield_bg_copy_3" data-name="shield bg copy 3" class="cls-35">
        <path id="out_whole_shielf_path" data-name="out whole shielf path" class="cls-6" d="M-923.4,164.8c-92.3,36.6-182,73.7-288.9,83.1-.5,87.8,1.1,174.7.6,262.5,9.1.1,42.7.8,42.7.8,0,0,1,17.6,4.6,28.9,51.3,118,133.3,187.4,239,232.3,53.8-21.5,177.7-88.9,242-236.9,5.6-8.7,11.2-17.4,16.9-26,8.2-.5,18.1.8,26.3.3.5-86.8-.8-175.4-.3-262.2-77.6-2-247-64.5-282.9-82.7Z"/>
        <path id="inside_whole_shield" data-name="inside whole shield" class="cls-12" d="M-926.2,196c-92.3,36.6-150.8,61.3-259.1,78.1-.5,87.8,0,237.2,0,237.2h16.6c.2,9.5,1.4,17.8,4.3,24.5l29.6-1.5c-1.7,2,31.7,73.5,74.6,112.7,54.7,52.7,100.5,78.6,134.7,93.1,38.7-15.4,89.8-46.1,152.7-112.3,34.5-36.3,56.7-92.7,56.7-92.7l29.6.5s5.9-9.9,7.2-15.1c1.3-5.2,2.3-9.4,2.3-9.4l10.5-.3c.5-28.1.7-57.1.3-86.4-.7-47.8-.1-106.4.1-149.8-72.2-8.7-216.7-58.5-260.1-78.6Z"/>
      </g>
      <g id="inside_shield_copy_4" data-name="inside shield copy 4">
        <path id="left" class="cls-1" d="M603.4,323.7c-.1,9.6-.2,19.2-.4,28.9,27.6,0,55.2-.1,82.8-.2.2,33.8.4,68.7.5,102.5h28.2c0-43.3.1-87.6.2-130.9-37.1-.1-74.2-.2-111.4-.4Z"/>
        <path id="right" class="cls-1" d="M323.4,324c.2,9.6.4,19.2.6,28.9-27.6.2-55.2.4-82.8.6.1,33.8.3,68.7.4,102.5-9.4,0-18.8.2-28.2.3-.5-43.3-.9-87.6-1.4-130.9,37.1-.5,74.2-.9,111.3-1.4Z"/>
      </g>
      <g id="outsite_shield_copy_5" data-name="outsite shield copy 5">
        <path id="down_mane-2" data-name="down mane" class="cls-1" d="M211.2,573.7c10.8.2,21.5-.9,32.3-.6,37.4,95.4,109.2,164.2,219.8,215.5,96-38.6,191.1-131.9,220.2-215.9,10.8-.1,32.3-.4,32.3-.4-15.2,52.9-76.9,175.9-252.6,252.3-131.5-57.3-218.9-154.9-252-250.9Z"/>
        <path id="upper_mane" data-name="upper mane" class="cls-1" d="M189.2,545.2c.5-82.3,1.1-164.6,1.6-246.9,93.2-15.5,184-43.5,272.7-82.3,109.2,46.5,238,80.2,272.5,82.3.3,82.3.5,164.6.8,246.9,9.4.5,19.9,1.1,29.3,1.6-.3-91.7-.5-184.5-.8-276.2-103.3-9.5-265.2-73.1-301.2-88.9-142.4,57.4-229.1,80.1-302.9,89v275.3c8.9-.3,19.1-.5,28-.8Z"/>
        <rect id="left_square" data-name="left square" class="cls-17" x="161.2" y="521" width="28" height="25.8"/>
        <rect id="right_square" data-name="right square" class="cls-21" x="736.8" y="521" width="29.3" height="25.8"/>
      </g>
      <g id="outsite_shield_copy_5-2" data-name="outsite shield copy 5" class="cls-35">
        <path class="cls-3" d="M-1837.3,526.2c10.2.2,20.4-.8,30.6-.6,35.5,90.6,103.7,155.8,208.7,204.6,91.1-36.7,181.4-125.2,209-204.9,10.2-.1,30.6-.3,30.6-.3-14.4,50.2-73,166.9-239.8,239.5-124.8-54.4-207.8-147.1-239.2-238.2ZM-1858.2,499.1c.5-78.1,1-156.3,1.5-234.4,88.5-14.8,174.7-41.3,258.9-78.1,103.7,44.2,225.9,76.2,258.7,78.1.3,78.1.5,156.3.8,234.4,8.9.5,18.9,1,27.8,1.5-.3-87.1-.5-175.1-.8-262.2-98-9-251.8-69.4-286-84.4-135.2,54.5-217.4,76-287.5,84.5v261.3c8.4-.3,18.1-.5,26.6-.8ZM-1857.2,476.2h-27.6v24.5h27.6v-24.5ZM-1311.2,476.2h-27.6v24.5h27.6v-24.5Z"/>
      </g>
    </g>
    <g id="test_distance_copy" data-name="test distance copy" class="cls-35">
      <path class="cls-37" d="M-311.7,753.8c-8.7-5.6-16.7-10.6-24-15.6-7.6-5.2-14.6-10.6-22.7-16.9l7.5-9.9c12.1,9.9,39.5,28.7,46.4,32.2l-7.2,10.3Z"/>
      <path id="second_path_for_first_capital_left" data-name="second path for first capital left" class="cls-51" d="M-425.9,664.9c-6.7-7.8-13.1-14.8-18.7-21.8-5.8-7.2-17.3-22.3-17.3-22.3l15-11.3c8.3,13.3,29,39.3,35,44.4l-14,11Z"/>
      <path id="second_path_for_first_capital_right" data-name="second path for first capital right" class="cls-51" d="M-238.4,790.1c9.5-4.1,18.2-7.6,26.3-11.5,8.3-4,25.3-12.6,25.3-12.6l-8.6-16.7c-13.3,8.4-43.2,22.8-50.8,24.8l7.8,15.9Z"/>
      <path id="second_path_for_first_normal_left" data-name="second path for first normal left" class="cls-51" d="M-384.4,722.6c-14.3-10.4-14.8-12.8-21.3-18.8-6.8-6.3-20.4-20-20.4-20l20.7-21.6c9.3,11.4,33.9,33.9,41.3,38.6l-20.3,21.8Z"/>
      <path id="second_path_for_first_normal_left-2" data-name="second path for first normal left" class="cls-51" d="M-115.5,732.9c14.7-9.8,15.3-12.2,22.1-18s21.2-19.1,21.2-19.1l-19.9-22.4c-9.8,11-35.2,32.5-42.8,36.9l19.4,22.6Z"/>
      <path class="cls-51" d="M-78.7,678c6.8-7.7,13.2-14.6,19-21.5,5.9-7.1,11.2-14.1,17.4-22.4l-9.9-7.5c-9,12.8-30.4,38.2-36.1,43.4l9.7,8Z"/>
      <path class="cls-51" d="M-15.6,593.1c4.4-9.3,8.6-17.7,12.2-25.9,3.7-8.5,6.8-16.7,10.4-26.4l-11.6-4.5c-5.1,14.8-18.5,45.2-22.6,51.8l11.5,5Z"/>
    </g>
    <g id="test_main_copy" data-name="test main copy" class="cls-35">
      <path id="right-2" data-name="right" class="cls-52" d="M-241.7,778.7c0-.1,19.3-9.2,19.4-9.1l-2-4.6c-7.9,4-18.3,8.6-19.7,9l2.4,4.7Z"/>
      <path id="left-2" data-name="left" class="cls-52" d="M-372.9,700.2c0,0-15.7-14.5-15.8-14.4l3.3-3.8c6.4,6.1,14.9,13.6,16.2,14.4l-3.7,3.8Z"/>
    </g>
    <g id="Thunder_copy_4" data-name="Thunder copy 4">
      <g id="downer_thunder_copy_4" data-name="downer thunder copy 4">
        <path id="left_thunder" data-name="left thunder" class="cls-1" d="M502.5,645.1c4.7,0,9.8-.8,14.4-.7,7.4,13.9,13.8,27.6,21.2,41.5-5.7-1.5-10.6-2.9-16.3-4.4,3.7,16.6,6.6,32.8,10.2,49-11.1-20.1-24.5-41.2-35.6-61.3,5.1.6,12.4,1.4,17.6,2.1-3.9-9.1-7.4-17.1-11.4-26.1Z"/>
        <path id="middle_thunder" data-name="middle thunder" class="cls-1" d="M459.9,645.3c-3.2,12.6-2,17.4-3.9,29.9-1.7,0-6,.3-7.7.3-.8,6.9-2.6,14.7-3.5,21.6,4.5,0,7.9-1,12.4-1,1.5,19.1,4.9,40.3,6.5,59.4,3.2-19.3,7.4-38.7,10.6-58,3.6-.4,4.1-.6,7.7-.9,0-5.7-2.6-11.2-1.9-18.3-5.6,0-2.8-.4-13.1.3-.6-2.1.4-26.7-.9-33.1-4.1-.3-6,.9-6.2-.3Z"/>
        <path id="right_thunder" data-name="right thunder" class="cls-1" d="M411.3,644.3s9.7-.3,14.8-.1c-4.3,8.9-7.4,17.6-11.7,26.5,6.1-.6,10.3,0,16.3-.6-11.5,20.6-23.5,40-35,60.6,3-16.7,7.3-32.9,10.4-49.6-5.8,1.1-11.6,3-17.3,4.2,7.4-13.5,22.6-41,22.6-41Z"/>
      </g>
      <g id="upper_thunder_copy_4" data-name="upper thunder copy 4">
        <path id="left_thunder-2" data-name="left thunder" class="cls-1" d="M424.4,355.3c-4.7,0-8.9,0-13.6,0-7.5-13.8-15-26.6-22.4-40.4,5.8,1.5,11.5,1.9,17.2,3.4-3.9-16.5-7.7-32.8-11.5-48.8,11.3,20,23.7,41,35,61-5.1-.6-11.3-2.2-16.4-2.8,4,9,7.7,18.7,11.7,27.7Z"/>
        <path id="middle_thunder-2" data-name="middle thunder" class="cls-1" d="M463.9,359.4c3.1-12.6,7.3-24.1,10.4-36.7,1.7,0,2.3-1.1,4-1.1.7-6.9,1.5-11.7,2.2-18.6h-12.4c-1.7-19-3.4-40.2-5.1-59.2-3,19.3-6.1,39.7-9.1,59-3.6.4-7.2-.3-10.8.1,1,5.7,3.1,12.5,4.2,18.2,5.6,0,5.5.4,9.2.5,2.1,12.6,5.2,25.2,7.3,37.9Z"/>
        <path id="right_thunder-2" data-name="right thunder" class="cls-1" d="M516.4,356s-9.7.3-14.8.1c4.3-8.9,8.6-18.8,12.9-27.7-6.1.6-11.4,1.2-17.5,1.7,11.5-20.6,22.3-41.2,33.8-61.9-3,16.7-6.1,34.2-9.1,50.8,5.8-1.1,11.6-3,17.3-4.2-7.4,13.5-22.6,41-22.6,41Z"/>
      </g>
    </g>
    <g id="electromotor_copy_4" data-name="electromotor copy 4">
      <path id="top_of_it" data-name="top of it" class="cls-18" d="M669.9,469.6c-7.8,0-15.8-.4-23.7.2-3,7.5-5.7,19.1-6.1,33.7-.6,19.8,3.9,35.1,7.6,43.4,7.5.1,15.1.2,22.6.4,4.9-8.5,5.9-3.8,9.3-37.6-.5-16.8-6.4-39.3-9.7-40ZM661.5,532.2c-5.5-2.3-5.5-18.4-6.6-23.7,0-10.2,2.4-21.4,5.7-24.7,8.6-1.4,9.6,14.4,10.6,23.1-.6,6.7.3,22.4-9.7,25.3Z"/>
      <path id="top_of_it_middle" data-name="top of it middle" class="cls-11" d="M673.6,507.9c0,13.4-4.5,24.2-9.9,24.2s-9.9-10.8-9.9-24.2,4.5-24.2,9.9-24.2,9.9,10.8,9.9,24.2ZM668.5,469.6c-8.1,0-14.8,17.2-14.8,38.5s6.6,38.5,14.8,38.5,14.8-17.2,14.8-38.5-6.6-38.5-14.8-38.5Z"/>
      <path id="downer_of_top" data-name="downer of top" class="cls-7" d="M655.3,501.1l-15.2.2c-.5,12.9,3.1,42.1,5.7,44.9,0,.6,24.3.8,24.3.1-12.2-10.5-15.4-30.9-14.8-45.3Z"/>
      <path id="upper_of_top" data-name="upper of top" class="cls-8" d="M655.3,510.6l-15.2-.2c-.5-11.6,3.1-37.8,5.7-40.4,0-.6,24.3-.7,24.3-.1-12.2,9.4-15.4,27.8-14.8,40.7Z"/>
      <path id="first_small_v-h" data-name="first small v-h" class="cls-20" d="M611.2,525.8c7.7,0,14.4.2,22.1.3-2.9,0-3.5-36.5-.5-36.6-7.7,0-14.4,1.1-22.1,1.1-2,13.8-1.6,24.7.5,35.3Z"/>
      <path id="_1-2_vertical" data-name="1-2 vertical" class="cls-1" d="M600.7,568c3.4,13.4,9.8,20.8,15.1,18.7,9.6-3.8,17.5-22.7,18.2-48.3-3.7,0-7.4,0-11.2,0-2.3,20.4-9,31.7-22.2,29.7Z"/>
      <path id="_1-1-_vertical" data-name="1-1- vertical" class="cls-1" d="M600.4,441.1c3.7-15.3,8.8-20.5,14.3-18.1,9.9,4.4,16,13.1,19.4,55.2-3.9,0-5.7,0-9.5,0-2-23.3-8.9-39.3-24.1-37Z"/>
      <path id="first_vertical_left" data-name="first vertical left" class="cls-23" d="M605.2,537.2c-.2-.1-.4-.3-.6-.6-1.3-1.8-1.5-3.8-2.4-5.9-1.7-3.9-1.7-8-1.8-12.2-.3-8.9.1-17.8,1.3-26.6.2-1.2.3-2.4.4-3.5.4-3.5,1.1-7.3,2.9-10.2,1.8-3,2.9-4.3,8-4.3,0-4.4-5.9-20.7-10.5-17-1.9,0-3.9,1.8-4.8,4-12.4,27.8-6.2,68-5.9,69.4,1.7,9.4,12.9,40.4,20,8.1-1.4-.2-2.1.1-3.5,0-.9-.2-2.4-.7-3.1-1.1Z"/>
      <path id="_2nd_vertical_left" data-name="2nd vertical left" class="cls-22" d="M615.1,601.4c-52.3,4.1-39.4-209.8-.7-196.5,1.4.5.2-2.9.4-4.3-9.6-.1-17.4.5-26.9.3-1.9,0-6.3,6.4-7.4,7.8-2.3,3-4.3,6.2-6,9.6-3.6,7.2-6,14.9-7.7,22.7-3.9,17.7-4.6,36-5.7,54-2.4,36.4,3.8,78.8,25.1,109.3.1.2.8,1.4,1,1.4,9.2-.2,18.8.2,28,0v-4.3Z"/>
      <path id="_3rd_vertical_left" data-name="3rd vertical left" class="cls-25" d="M579.9,615.9c-7.5.2-14.9.4-22.4.5-24.6-36.9-26.5-84-26.7-113.9-.4-61.3,16.7-106.8,26-113.5,6.1.7,15.2,0,23.6,0-24.8,8.4-38.4,53.8-38.4,113.9,0,59.4,12.9,107.4,37.8,113Z"/>
      <path id="_1st_horizental" data-name="1st horizental" class="cls-10" d="M393.3,402.7c2.1-9,5.1-15.8,9.4-24,21.5,0,81.8-.6,146,.3-6.6,8.6-10.6,16-13.2,24.2-47.4-.2-94.9-.4-142.3-.5Z"/>
      <path id="_2nd_horizental" data-name="2nd horizental" class="cls-2" d="M389.6,437.6c-1.4-2.3,117.6.7,136.3.1,1.4,0,3.8-8.4,3.6-14.6-46.1,0-92.2-.2-138.2-.3-4.7,1.2-4.4,14.4-1.6,14.8Z"/>
      <path id="_3rd_horizental" data-name="3rd horizental" class="cls-13" d="M391.3,458c13.2.2,83.8,0,128.4,0,4.3,2.5,3.1,12.8.7,15.8h-130.5c-1.4-4.4-2-9.1,1.4-15.8Z"/>
      <path id="_4th_horizental" data-name="4th horizental" class="cls-16" d="M382.7,495.4c-4-.2-4.2,15.3.1,14,34.4,2,118.1,2.4,138.2.8.2,0,.4-14.8.3-14.8-16.1.7-126.7.6-138.7,0Z"/>
      <path id="_5th_horizental" data-name="5th horizental" class="cls-9" d="M391.7,532.3c-4.9,5.6-3.6,16,1.7,16.3,10.1.7,60.9.7,128.6.3,1.6-7.9.8-14.4-1.1-16.5-43.4,0-85.8,0-129.2-.1Z"/>
      <path id="_6th_horizental" data-name="6th horizental" class="cls-14" d="M388.9,569.3c-2,5.9-1.2,10.6,2,13.7,55.8,0,99.8.3,139.2.3-.4,0-2.8-14.2-2.4-14.3-46.3,0-92.5.2-138.8.3Z"/>
      <path id="_7th_horizental" data-name="7th horizental" class="cls-4" d="M393.7,599.8c1.7,8.8,5.2,19.6,9.5,23.8,30.4.6,142.9-.5,145.8-.2-3.2-3.5-8-13.2-12.7-23.3-48-.1-94.6-.2-142.6-.4Z"/>
      <path id="last_small_part_v-h" data-name="last small part v-h" class="cls-24" d="M288.2,523c0-9.8-.1-26.4,0-33.5-6.9,0-21.1.7-24.6.3-3.2,3.9-2.3,29.3-.1,32.8,8.2.1,16.5.2,24.7.3Z"/>
      <g id="Layer_9_copy_5" data-name="Layer 9 copy 5">
        <path id="_4th_vertical_left" data-name="4th vertical left" class="cls-5" d="M390.2,378c-31.1,0-33.4.5-49.7,1.4-39.9,12.6-41.4,66.9-42.8,123.1,3.2,51.6,7.8,100.7,32.3,114.4,14,9.2,36.8,7.8,59.9,6.1-14.9-28.6-18.3-70.5-20.4-120.1-2.6-59.8,15.8-114.5,20.8-124.8ZM357.6,414.8h-26.9c.7-3.5,1.3-7,2-10.6,8.3,0,16.6.1,24.9.2v10.4ZM350.7,498.3c0,8.3-6.1,15-13.7,15s-13.7-6.7-13.7-15,6.2-14.9,13.8-14.9,13.6,6.7,13.6,14.9ZM359.6,590c0,8.3-6.9,15-15.3,15s-15.3-6.7-15.3-15,6.9-15,15.3-15,15.3,6.7,15.3,15Z"/>
        <path id="belongs_4th_vertical_left" data-name="belongs 4th vertical left" class="cls-15" d="M339.4,513.1c-.8.1-1.6.2-2.4.2-8.3,0-15-6.7-15-15s6.7-15,15-15,1.9.1,2.7.3c-7.2,1.1-12.7,7.3-12.7,14.7s5.3,13.4,12.3,14.7Z"/>
      </g>
    </g>
    <g id="Star_copy_4" data-name="Star copy 4">
      <polygon id="right_star" data-name="right star" class="cls-1" points="443.5 265.5 434.6 265.2 431.6 273.6 429.1 265 420.2 264.8 427.5 259.7 425 251.2 432.1 256.6 439.5 251.6 436.5 260 443.5 265.5"/>
      <polygon id="left_star" data-name="left star" class="cls-1" points="495 272.4 489.6 265.2 481.1 268.2 486.2 260.8 480.9 253.7 489.4 256.3 494.5 249 494.7 257.9 503.2 260.5 494.8 263.4 495 272.4"/>
    </g>
    <image id="mane_photo" data-name="mane photo" class="cls-35" width="1024" height="1024" transform="translate(-533.7 -17.2) scale(.1)" xlink:href="../../../logo/9 - Mid-20th Century Modernism - 61 Minimalism-new~27_bW.png"/>
  </g>
</svg>