<?xml version="1.0" encoding="UTF-8"?>
<svg xmlns="http://www.w3.org/2000/svg" version="1.1" viewBox="0 0 593.16 599.23">
  <defs>
    <style>
      .cls-1, .cls-2 {
        fill: #000;
      }

      .cls-1, .cls-2, .cls-3 {
        stroke-width: 0px;
      }

      .cls-2, .cls-4 {
        display: none;
      }

      .cls-5 {
        fill: #e6e648;
      }

      .cls-5, .cls-6 {
        stroke: #cbcbcb;
        stroke-miterlimit: 10;
      }

      .cls-3 {
        fill: #fff;
      }

      .cls-6 {
        fill: #fed700;
      }
    </style>
  </defs>
  <g id="Layer_4" data-name="Layer 4" class="cls-4">
    <g>
      <path class="cls-2" d="M-205.14,772.04V-250.96c341,0,681.99,0,1022.99,0-.03,2.16-.1,4.33-.1,6.49,0,335.95.02,671.89.03,1007.84v8.59h-7.1c-258.87,0-517.73,0-776.6,0-79.74,0-159.48.05-239.22.08ZM576.55,261.4c-1.61-15.02-2.16-30.24-5-45.02-12.09-63.05-43.33-115.21-93.18-155.42C419.86,13.74,352.88-5.4,277.96,4.62c-37.12,4.96-71.51,17.55-103.25,37.25-34.44,21.37-62.35,49.4-84.07,83.68-14.3,22.57-25.36,46.63-31.72,72.49-8.58,34.86-10.27,70.33-4.12,105.8,9.19,53.05,32.38,99.31,70.49,137.45,44.02,44.05,97.07,70,159.19,77.28,29.39,3.45,58.55,2.09,87.13-4.75,60.83-14.56,111.42-45.84,150.05-95.55,35.82-46.1,53.63-98.43,54.9-156.88Z"/>
      <path class="cls-3" d="M-205.14,772.04c79.74-.03,159.48-.08,239.22-.08,258.87,0,517.73,0,776.6,0h7.1v-8.59c0-335.95-.02-671.89-.03-1007.84,0-2.16.06-4.33.1-6.49.33.17.94.32.95.5.08,1.33.04,2.66.04,3.99v1019.5c-339.83,0-679.66,0-1019.49-.04-1.5,0-3-.62-4.5-.96Z"/>
      <path class="cls-3" d="M576.55,261.4c-1.28,58.44-19.09,110.78-54.9,156.88-38.62,49.71-89.21,80.99-150.05,95.55-28.58,6.84-57.74,8.19-87.13,4.75-62.12-7.28-115.17-33.24-159.19-77.28-38.11-38.14-61.3-84.4-70.49-137.45-6.14-35.46-4.45-70.93,4.12-105.8,6.36-25.86,17.42-49.93,31.72-72.49,21.71-34.27,49.62-62.3,84.07-83.68,31.74-19.7,66.13-32.28,103.25-37.25,74.91-10.02,141.9,9.12,200.42,56.33,49.84,40.21,81.08,92.37,93.18,155.42,2.83,14.78,3.39,30,5,45.02ZM480.82,365.41c-3.74-3.35-7.22-6.67-10.91-9.73-4.3-3.57-6.36-7.32-2.78-12.67,1.15-1.72,1.53-4.01,2.1-6.08,4.67-17,4.97-34.42,4.99-51.87,0-2.78,0-5.55,0-8.92h56.57v-30.21h-56.68c0-7.68.36-14.98-.07-22.24-.94-15.87-1.23-31.89-8.16-46.77-.5-1.07.42-3.44,1.44-4.45,4.31-4.32,8.91-8.35,13.49-12.57-7.49-8.18-14.08-15.37-20.73-22.63-5.38,4.73-10.36,9.13-15.37,13.49-2.07,1.8-18.35-2.29-18.33-4.85.04-5.86-.16-12.11,1.79-17.46,2.26-6.19,6.71-11.57,10.55-17.86-9.34-6.62-18.74-13.28-28.15-19.95-7.52,10.25-14.64,19.87-21.66,29.55-2.29,3.15-4.9,4.69-9.11,4.61-14.48-.3-28.97-.11-43.45-.1-2.26,0-4.52,0-7.31,0v-54.83h-32.28v54.84c-16.16,0-31.81-.3-47.43.16-5.69.17-9.08-1.76-12.16-6.25-6.46-9.43-13.36-18.56-20.18-27.94-9.7,6.76-19.16,13.35-28.88,20.11,8.48,11.28,16.93,21.72,12.64,36.14-4.46,1.58-8.92,3.34-13.5,4.67-1.37.39-3.51.05-4.59-.83-5.25-4.27-10.26-8.83-15.52-13.43-6.78,7.32-13.39,14.45-20.9,22.56,5.03,4.56,9.74,8.53,14.02,12.93,1.09,1.12,1.46,3.72,1.06,5.37-1.33,5.45-4.07,10.68-4.62,16.16-1.57,15.52-2.51,31.12-3.27,46.71-.21,4.24-1.54,5.22-5.54,5.16-15.98-.27-31.96-.21-47.94-.23-1.26,0-2.52.27-3.61.4v30.19h57.21c0,7.79-.33,15.1.07,22.38.86,15.75,1.34,31.64,7.85,46.41,1.57,3.56.83,5.79-1.75,8.25-4.27,4.07-8.33,8.36-12.69,12.76,6.82,7.33,13.14,14.14,19.58,21.06,5.4-4.94,10.35-9.61,15.48-14.06,1.03-.9,2.96-1.67,4.15-1.33,5.05,1.44,9.97,3.32,14.48,4.89,4.39,14.57-4.81,24.31-12.38,34.71,9.66,7.13,18.97,14,28.46,21.01,7.11-9.77,13.96-19.14,20.76-28.54,2.2-3.04,4.44-5.22,8.86-4.87,6.79.53,13.64.16,20.47.17,9.79,0,19.58,0,30.34,0v54.35h32.31v-54.4c18.56,0,36.53-.08,54.49.13,1.56.02,3.51,1.61,4.57,3.01,7.4,9.82,14.6,19.77,21.91,29.74,9.59-7,19.03-13.9,28.69-20.95-8.31-10.42-16.49-20.48-12.29-34.77,3.85-1.19,8-2,11.69-3.77,3.22-1.54,5.03-.67,7.27,1.56,4.65,4.64,9.56,9.01,14.68,13.79,6.85-7.66,13.15-14.7,20.28-22.68Z"/>
      <path class="cls-1" d="M480.82,365.41c-7.13,7.97-13.43,15.02-20.28,22.68-5.12-4.77-10.03-9.15-14.68-13.79-2.24-2.23-4.05-3.09-7.27-1.56-3.7,1.77-7.85,2.57-11.69,3.77-4.2,14.3,3.98,24.35,12.29,34.77-9.66,7.05-19.1,13.95-28.69,20.95-7.31-9.96-14.51-19.92-21.91-29.74-1.06-1.4-3.01-2.99-4.57-3.01-17.96-.21-35.93-.13-54.49-.13v54.4h-32.31v-54.35c-10.76,0-20.55,0-30.34,0-6.83,0-13.68.36-20.47-.17-4.42-.34-6.66,1.83-8.86,4.87-6.8,9.4-13.65,18.77-20.76,28.54-9.49-7.01-18.8-13.88-28.46-21.01,7.57-10.4,16.77-20.14,12.38-34.71-4.51-1.56-9.43-3.44-14.48-4.89-1.18-.34-3.11.43-4.15,1.33-5.14,4.45-10.09,9.12-15.48,14.06-6.44-6.92-12.76-13.73-19.58-21.06,4.36-4.4,8.42-8.69,12.69-12.76,2.58-2.46,3.32-4.69,1.75-8.25-6.51-14.77-6.99-30.66-7.85-46.41-.4-7.27-.07-14.58-.07-22.38h-57.21v-30.19c1.09-.13,2.35-.4,3.61-.4,15.98.03,31.96-.03,47.94.23,4.01.07,5.34-.92,5.54-5.16.76-15.59,1.7-31.19,3.27-46.71.55-5.48,3.3-10.71,4.62-16.16.4-1.65.03-4.25-1.06-5.37-4.28-4.39-9-8.37-14.02-12.93,7.51-8.11,14.12-15.24,20.9-22.56,5.26,4.6,10.27,9.16,15.52,13.43,1.08.88,3.22,1.23,4.59.83,4.59-1.32,9.04-3.09,13.5-4.67,4.29-14.42-4.16-24.86-12.64-36.14,9.72-6.77,19.18-13.36,28.88-20.11,6.82,9.38,13.72,18.51,20.18,27.94,3.08,4.5,6.47,6.42,12.16,6.25,15.62-.46,31.27-.16,47.43-.16v-54.84h32.28v54.83c2.79,0,5.05,0,7.31,0,14.48,0,28.97-.2,43.45.1,4.21.09,6.82-1.45,9.11-4.61,7.03-9.68,14.14-19.3,21.66-29.55,9.41,6.67,18.81,13.33,28.15,19.95-3.84,6.28-8.3,11.67-10.55,17.86-1.95,5.34-1.74,11.6-1.79,17.46-.02,2.56,16.26,6.65,18.33,4.85,5.01-4.37,9.99-8.76,15.37-13.49,6.65,7.26,13.24,14.45,20.73,22.63-4.58,4.22-9.17,8.25-13.49,12.57-1.01,1.01-1.93,3.39-1.44,4.45,6.93,14.88,7.22,30.9,8.16,46.77.43,7.26.07,14.56.07,22.24h56.68v30.21h-56.57c0,3.36,0,6.14,0,8.92-.02,17.45-.32,34.87-4.99,51.87-.57,2.07-.95,4.35-2.1,6.08-3.58,5.35-1.52,9.11,2.78,12.67,3.69,3.06,7.17,6.38,10.91,9.73ZM222.19,173.17h183.52v-28.32h-183.52v28.32ZM313.87,232.58s0,.08,0,.13c-17.3,0-34.6,0-51.9,0-10.15,0-20.3-.1-30.44.02-4.41.05-7.75,1.94-8.45,6.75-.7,4.76,1.71,8.06,6.82,9.37,1.42.36,2.93.51,4.41.51,52.9.02,105.8.01,158.7-.04,1.97,0,4.03-.21,5.88-.82,4.63-1.54,6.62-7.25,4.17-11.46-2.09-3.59-5.37-4.51-9.32-4.5-26.62.07-53.23.04-79.85.04ZM313.68,194.68s0,.05,0,.08c-2.49,0-4.99,0-7.48,0-24.45-.06-48.9-.14-73.34-.17-6.73-.01-9.95,3.12-9.59,9.17.3,5.16,4.08,7.71,11.28,7.7,52.56-.04,105.11-.06,157.67-.12,1.81,0,3.64-.2,5.43-.5,3.97-.66,6.25-3.27,6.53-7.08.27-3.8-1.66-6.84-5.31-8.18-1.96-.72-4.22-.85-6.34-.86-26.28-.05-52.56-.04-78.83-.04ZM312.96,270.93v.37c-.5,0-1,0-1.5,0-26.46.01-52.92,0-79.38.05-7.14.01-10.79,4.65-8.62,11,1.6,4.68,5.64,5.85,10,5.86,36.77.06,73.55.06,110.32.06,16.14,0,32.28.07,48.42-.16,3.01-.04,6.41-.68,8.91-2.21,2.96-1.82,3.92-5.23,2.56-8.85-1.91-5.1-6.04-6.13-10.85-6.12-26.62.02-53.25.01-79.87.01ZM313.34,309.3v.08c-3.5,0-6.99,0-10.49,0-23.8-.02-47.61-.02-71.41-.08-3.93,0-6.93,1.45-7.99,5.33-.98,3.6-.44,7.32,3.1,9.19,2.21,1.16,5.11,1.41,7.7,1.41,49.94.05,99.87,0,149.81-.02,4.16,0,8.34.34,12.48.06,4.77-.32,7.75-3.5,7.72-7.53-.03-4.87-3.01-7.99-8.02-8.37-1.16-.09-2.33-.07-3.49-.07-26.47,0-52.94,0-79.4,0ZM429.7,165.9v120.76c4.82,0,9.12,0,13.41,0q9.16.03,10.28-8.81c.15-1.15.55-2.28.55-3.42.01-30.44.02-60.88-.13-91.32,0-1.55-.91-3.78-2.12-4.52-7.02-4.32-14.26-8.28-22-12.69ZM198.48,165.61c-7.32,4.13-13.7,7.87-20.22,11.33-3.08,1.63-3.92,3.83-3.91,7.2.07,23.11-.08,46.22-.14,69.33-.03,11.09,0,22.17,0,33.31,6.83,0,12.8-.24,18.74.08,4.27.23,5.29-1.4,5.28-5.45-.03-36.4.14-72.81.25-109.21,0-1.77,0-3.54,0-6.58ZM404.88,367.9c1.3-8.24,1.2-8.4-6.17-8.41-57.24-.05-114.48-.08-171.72-.1-1.43,0-2.86.18-4.22.28v8.22h182.12ZM175.07,293.25c-.07.55-.13,1.1-.2,1.65,6.98.82,13.99.37,21-.09.01-.52.02-1.04.03-1.55h-20.84ZM430.48,293.24c-.03.52-.06,1.04-.09,1.56h17.71c0-.11.02-.21.03-.32-5.88-.41-11.77-.83-17.65-1.24Z"/>
      <path class="cls-3" d="M222.19,173.17v-28.32h183.52v28.32h-183.52Z"/>
      <path class="cls-3" d="M313.87,232.58c26.62,0,53.23.03,79.85-.04,3.95-.01,7.23.91,9.32,4.5,2.45,4.21.46,9.92-4.17,11.46-1.85.61-3.92.82-5.88.82-52.9.05-105.8.05-158.7.04-1.47,0-2.98-.15-4.41-.51-5.11-1.31-7.52-4.6-6.82-9.37.7-4.81,4.04-6.7,8.45-6.75,10.15-.12,20.3-.02,30.44-.02,17.3,0,34.6,0,51.9,0,0-.04,0-.08,0-.13Z"/>
      <path class="cls-3" d="M313.68,194.68c26.28,0,52.56-.02,78.83.04,2.12,0,4.38.14,6.34.86,3.64,1.34,5.58,4.39,5.31,8.18-.27,3.81-2.56,6.42-6.53,7.08-1.79.3-3.62.49-5.43.5-52.56.06-105.11.08-157.67.12-7.2,0-10.98-2.54-11.28-7.7-.36-6.05,2.86-9.18,9.59-9.17,24.45.04,48.9.11,73.34.17,2.49,0,4.99,0,7.48,0,0-.03,0-.05,0-.08Z"/>
      <path class="cls-3" d="M312.96,270.93c26.62,0,53.25.01,79.87-.01,4.81,0,8.94,1.03,10.85,6.12,1.36,3.62.39,7.03-2.56,8.85-2.49,1.54-5.89,2.17-8.91,2.21-16.14.22-32.28.16-48.42.16-36.77,0-73.55,0-110.32-.06-4.36,0-8.4-1.18-10-5.86-2.17-6.35,1.47-10.99,8.62-11,26.46-.06,52.92-.04,79.38-.05.5,0,1,0,1.5,0v-.37Z"/>
      <path class="cls-3" d="M313.34,309.3c26.47,0,52.94,0,79.4,0,1.16,0,2.33-.01,3.49.07,5.01.37,7.99,3.5,8.02,8.37.03,4.03-2.95,7.21-7.72,7.53-4.14.28-8.32-.06-12.48-.06-49.94.02-99.87.07-149.81.02-2.59,0-5.49-.25-7.7-1.41-3.55-1.87-4.09-5.58-3.1-9.19,1.06-3.89,4.06-5.34,7.99-5.33,23.8.05,47.61.06,71.41.08,3.5,0,6.99,0,10.49,0v-.08Z"/>
      <path class="cls-3" d="M429.7,165.9c7.74,4.41,14.98,8.37,22,12.69,1.21.74,2.11,2.97,2.12,4.52.14,30.44.14,60.88.13,91.32,0,1.14-.41,2.28-.55,3.42q-1.12,8.84-10.28,8.81c-4.3-.01-8.59,0-13.41,0v-120.76Z"/>
      <path class="cls-3" d="M198.48,165.61c0,3.04,0,4.81,0,6.58-.11,36.4-.28,72.81-.25,109.21,0,4.04-1.01,5.68-5.28,5.45-5.94-.32-11.92-.08-18.74-.08,0-11.13-.02-22.22,0-33.31.06-23.11.21-46.22.14-69.33,0-3.37.83-5.57,3.91-7.2,6.53-3.46,12.9-7.2,20.22-11.33Z"/>
      <path class="cls-3" d="M404.88,367.9h-182.12v-8.22c1.36-.09,2.79-.28,4.22-.28,57.24.02,114.48.05,171.72.1,7.37,0,7.47.16,6.17,8.41Z"/>
      <path class="cls-3" d="M175.07,293.25h20.84c-.01.52-.02,1.04-.03,1.55-7.01.46-14.02.91-21,.09.07-.55.13-1.1.2-1.65Z"/>
      <path class="cls-3" d="M430.48,293.24c5.88.41,11.77.83,17.65,1.24,0,.11-.02.21-.03.32h-17.71c.03-.52.06-1.04.09-1.56Z"/>
    </g>
  </g>
  <g id="Layer_2_copy" data-name="Layer 2 copy" class="cls-4">
    <rect class="cls-5" x="62.2" y="75.98" width="471.83" height="471.83" rx="97.59" ry="97.59"/>
  </g>
  <g id="Layer_5" data-name="Layer 5" class="cls-4">
    <path class="cls-1" d="M476.98,362.52c-7.13,7.97-13.43,15.02-20.28,22.68-5.12-4.77-10.03-9.15-14.68-13.79-2.24-2.23-4.05-3.09-7.27-1.56-3.7,1.77-7.85,2.57-11.69,3.77-4.2,14.3,3.98,24.35,12.29,34.77-9.66,7.05-19.1,13.95-28.69,20.95-7.31-9.96-14.51-19.92-21.91-29.74-1.06-1.4-3.01-2.99-4.57-3.01-13.27-.16-22.03-.84-44.98-.14-3.84.12-7.09.08-9.51,0v54.4h-32.31v-54.35c-10.76,0-20.55,0-30.34,0-6.83,0-13.68.36-20.47-.17-4.42-.34-6.66,1.83-8.86,4.87-6.8,9.4-13.65,18.77-20.76,28.54-9.49-7.01-18.8-13.88-28.46-21.01,7.57-10.4,16.77-20.14,12.38-34.71-4.51-1.56-9.43-3.44-14.48-4.89-1.18-.34-3.11.43-4.15,1.33-5.14,4.45-10.09,9.12-15.48,14.06-6.44-6.92-12.76-13.73-19.58-21.06,4.36-4.4,8.42-8.69,12.69-12.76,2.58-2.46,3.32-4.69,1.75-8.25-6.51-14.77-6.99-30.66-7.85-46.41-.4-7.27-.07-14.58-.07-22.38h-57.21v-30.19c1.09-.13,2.35-.4,3.61-.4,15.98.03,31.96-.03,47.94.23,4.01.07,5.34-.92,5.54-5.16.76-15.59,1.7-31.19,3.27-46.71.55-5.48,3.3-10.71,4.62-16.16.4-1.65.03-4.25-1.06-5.37-4.28-4.39-9-8.37-14.02-12.93,7.51-8.11,14.12-15.24,20.9-22.56,5.26,4.6,10.27,9.16,15.52,13.43,1.08.88,3.22,1.23,4.59.83,4.59-1.32,9.04-3.09,13.5-4.67,4.29-14.42-4.16-24.86-12.64-36.14,9.72-6.77,19.18-13.36,28.88-20.11,6.82,9.38,13.72,18.51,20.18,27.94,3.08,4.5,6.47,6.42,12.16,6.25,15.62-.46,31.27-.16,47.43-.16v-54.84h32.28v54.83c2.79,0,5.05,0,7.31,0,14.48,0,28.97-.2,43.45.1,4.21.09,6.82-1.45,9.11-4.61,7.03-9.68,14.14-19.3,21.66-29.55,9.41,6.67,18.81,13.33,28.15,19.95-3.84,6.28-8.3,11.67-10.55,17.86-1.95,5.34-1.74,11.6-1.79,17.46-.02,2.56,16.26,6.65,18.33,4.85,5.01-4.37,9.99-8.76,15.37-13.49,6.65,7.26,13.24,14.45,20.73,22.63-4.58,4.22-9.17,8.25-13.49,12.57-1.01,1.01-1.93,3.39-1.44,4.45,6.93,14.88,7.22,30.9,8.16,46.77.43,7.26.07,14.56.07,22.24h56.68v30.21h-56.57c0,3.36,0,6.14,0,8.92-.02,17.45-.32,34.87-4.99,51.87-.57,2.07-.95,4.35-2.1,6.08-3.58,5.35-1.52,9.11,2.78,12.67,3.69,3.06,7.17,6.38,10.91,9.73ZM218.34,170.28h183.52v-28.32h-183.52v28.32ZM310.03,229.7s0,.08,0,.13c-17.3,0-34.6,0-51.9,0-10.15,0-20.3-.1-30.44.02-4.41.05-7.75,1.94-8.45,6.75-.7,4.76,1.71,8.06,6.82,9.37,1.42.36,2.93.51,4.41.51,52.9.02,105.8.01,158.7-.04,1.97,0,4.03-.21,5.88-.82,4.63-1.54,6.62-7.25,4.17-11.46-2.09-3.59-5.37-4.51-9.32-4.5-26.62.07-53.23.04-79.85.04ZM309.84,191.79s0,.05,0,.08c-2.49,0-4.99,0-7.48,0-24.45-.06-48.9-.14-73.34-.17-6.73-.01-9.95,3.12-9.59,9.17.3,5.16,4.08,7.71,11.28,7.7,52.56-.04,105.11-.06,157.67-.12,1.81,0,3.64-.2,5.43-.5,3.97-.66,6.25-3.27,6.53-7.08.27-3.8-1.66-6.84-5.31-8.18-1.96-.72-4.22-.85-6.34-.86-26.28-.05-52.56-.04-78.83-.04ZM309.12,268.04v.37c-.5,0-1,0-1.5,0-26.46.01-52.92,0-79.38.05-7.14.01-10.79,4.65-8.62,11,1.6,4.68,5.64,5.85,10,5.86,36.77.06,73.55.06,110.32.06,16.14,0,32.28.07,48.42-.16,3.01-.04,6.41-.68,8.91-2.21,2.96-1.82,3.92-5.23,2.56-8.85-1.91-5.1-6.04-6.13-10.85-6.12-26.62.02-53.25.01-79.87.01ZM309.5,306.41v.08c-3.5,0-6.99,0-10.49,0-23.8-.02-47.61-.02-71.41-.08-3.93,0-6.93,1.45-7.99,5.33-.98,3.6-.44,7.32,3.1,9.19,2.21,1.16,5.11,1.41,7.7,1.41,49.94.05,99.87,0,149.81-.02,4.16,0,8.34.34,12.48.06,4.77-.32,7.75-3.5,7.72-7.53-.03-4.87-3.01-7.99-8.02-8.37-1.16-.09-2.33-.07-3.49-.07-26.47,0-52.94,0-79.4,0ZM425.86,163.02v120.76c4.82,0,9.12,0,13.41,0q9.16.03,10.28-8.81c.15-1.15.55-2.28.55-3.42.01-30.44.02-60.88-.13-91.32,0-1.55-.91-3.78-2.12-4.52-7.02-4.32-14.26-8.28-22-12.69ZM194.64,162.72c-7.32,4.13-13.7,7.87-20.22,11.33-3.08,1.63-3.92,3.83-3.91,7.2.07,23.11-.08,46.22-.14,69.33-.03,11.09,0,22.17,0,33.31,6.83,0,12.8-.24,18.74.08,4.27.23,5.29-1.4,5.28-5.45-.03-36.4.14-72.81.25-109.21,0-1.77,0-3.54,0-6.58ZM401.03,365.02c1.3-8.24,1.2-8.4-6.17-8.41-57.24-.05-114.48-.08-171.72-.1-1.43,0-2.86.18-4.22.28v8.22h182.12ZM171.23,290.36c-.07.55-.13,1.1-.2,1.65,6.98.82,13.99.37,21-.09.01-.52.02-1.04.03-1.55h-20.84ZM426.64,290.36c-.03.52-.06,1.04-.09,1.56h17.71c0-.11.02-.21.03-.32-5.88-.41-11.77-.83-17.65-1.24Z"/>
  </g>
  <g id="Layer_7" data-name="Layer 7" class="cls-4">
    <g>
      <g class="cls-4">
        <path class="cls-3" d="M54.44,551.94V219.98h489.94v331.96H54.44ZM461.2,227.12h-251.67c0,8.64-.18,16.77.08,24.88.13,3.95-1.1,5.24-5.11,5.11-8.6-.28-17.22-.09-26.52-.09v56.97h-34.34c0,2.53,0,4.5,0,6.46,0,13.51-.27,27.02.14,40.52.16,5.3-1.61,6.33-6.51,6.27-22.16-.26-44.33-.03-66.5-.2-4.45-.03-7.71,1.68-10.45,4.8-4.61,5.26-5.85,11.33-2.93,17.66,2.99,6.46,8.08,10.59,15.59,10.62,21.67.08,43.34.22,65-.04,4.81-.06,5.8,1.56,5.75,5.96-.19,15.34-.01,30.68.06,46.02.01,2.25.22,4.49.35,6.92,10.09,0,19.59.18,29.07-.08,4.04-.11,5.08,1.27,5.03,5.18-.21,16.5-.12,33-.11,49.51,0,2.1.18,4.19.3,6.91h30.13v30.26h252.83c0-9.17-.16-17.66.12-26.15.07-1.98,1.65-3.9,2.54-5.85.45.15.89.29,1.34.44,0-7.66,0-15.32,0-22.99,0-7.53-.04-7.78,7.44-8.97,29.94-4.78,54.97-37.31,53.98-64.04-.25-6.66.22-13.34,0-20-.11-3.38,1.1-4.47,4.29-4.33,3.78.16,7.57.04,11.76.04v-28.95h-16.22c3.9-45.34-14.56-73.94-60.38-82.45v-29.94c-1.77-.45-3.26-.84-5.08-1.3v-29.15Z"/>
        <path class="cls-1" d="M461.2,227.12v29.15c1.82.47,3.31.85,5.08,1.3v29.94c45.82,8.51,64.28,37.1,60.38,82.45h16.22v28.95c-4.19,0-7.98.13-11.76-.04-3.2-.14-4.41.95-4.29,4.33.23,6.66-.24,13.35,0,20,.98,26.72-24.04,59.25-53.98,64.04-7.48,1.2-7.44,1.45-7.44,8.97,0,7.66,0,15.32,0,22.99-.45-.15-.89-.29-1.34-.44-.89,1.95-2.48,3.87-2.54,5.85-.28,8.48-.12,16.98-.12,26.15h-252.83v-30.26h-30.13c-.12-2.72-.3-4.82-.3-6.91,0-16.5-.1-33.01.11-49.51.05-3.9-.99-5.29-5.03-5.18-9.48.26-18.98.08-29.07.08-.13-2.43-.34-4.68-.35-6.92-.07-15.34-.25-30.68-.06-46.02.05-4.4-.94-6.02-5.75-5.96-21.66.26-43.33.12-65,.04-7.51-.03-12.6-4.16-15.59-10.62-2.93-6.32-1.68-12.4,2.93-17.66,2.74-3.13,6-4.84,10.45-4.8,22.17.17,44.33-.05,66.5.2,4.89.06,6.67-.97,6.51-6.27-.41-13.49-.14-27.01-.14-40.52,0-1.97,0-3.93,0-6.46h34.34v-56.97c9.3,0,17.92-.2,26.52.09,4,.13,5.23-1.16,5.11-5.11-.26-8.11-.08-16.24-.08-24.88h251.67ZM196.39,272.86c0,2.01,0,3.33,0,4.64.05,62.69.09,125.38.17,188.08,0,5.33.03,10.68.51,15.99.14,1.52,1.72,3.95,2.92,4.13,3.67.54,7.46.2,11.96.2-3.47-5.96-3.62-11.64.06-16.07,1.53-1.84,6.66-2.54,9.07-1.42,7.3,3.37,6.28,10.22,4.62,17.36,3.67,0,6.83.28,9.89-.15,1.06-.15,2.56-1.99,2.67-3.17.54-5.62.86-11.28.9-16.93.11-15.67.01-31.33.04-47,.08-46.68.17-93.37.26-140.05,0-1.77,0-3.54,0-5.6h-43.08ZM466.42,444.04c2.79-.83,4.7-1.3,6.55-1.97,1.56-.57,3.13-1.2,4.53-2.08,18.28-11.53,28.7-27.97,29.75-49.68.6-12.31.57-24.69.16-37.01-.58-17.62-8.48-31.38-23.92-40.11-5.14-2.9-11.14-4.27-17.07-6.45v137.31ZM444.05,243.16h-218.21v12.87h218.21v-12.87ZM226.33,533.84h216.87v-11.38h-217.17c0,2.44-.04,4.57.01,6.7.03,1.46.18,2.92.3,4.68ZM260.01,430.91h183.61v-13.03h-183.61v13.03ZM260.19,400.73h183.52v-12.49h-183.52v12.49ZM444.1,329.81h-184.56c0,2.47-.03,4.29,0,6.11.04,1.75.15,3.51.24,5.38h184.32v-11.49ZM444.16,358.84h-184.42v12.17h184.42v-12.17ZM443.42,447.73h-183.68c.23,4.36.43,8.24.62,11.88h183.06v-11.88ZM259.95,312.67h183.96v-11.56h-183.96v11.56ZM260.07,478.4c.16,2.38.55,4.36.37,6.28-.37,3.95,1.57,4.68,5.04,4.68,23.8,0,47.61.27,71.41.27,32.12,0,64.24-.13,96.36-.26,11.75-.04,9.81,1.07,10.2-10.09,0-.14-.12-.29-.38-.89h-183ZM443.92,287.17q1.08-9.2-6.97-9.2c-56.95,0-113.9,0-170.84-.01-2.08,0-4.16,0-6.08,0v9.21h183.9ZM162.94,334.24v82.79c3.14,0,5.79-.19,8.41.04,4.35.38,6.06-.92,6.03-5.76-.14-18.8.23-37.61.37-56.42.05-6.91,0-13.81,0-20.65h-14.82ZM143.25,375.53h-66.56v7.18h66.56v-7.18Z"/>
        <path class="cls-3" d="M196.39,272.86h43.08c0,2.06,0,3.83,0,5.6-.09,46.68-.18,93.37-.26,140.05-.03,15.67.07,31.34-.04,47-.04,5.65-.36,11.3-.9,16.93-.11,1.18-1.62,3.02-2.67,3.17-3.06.43-6.22.15-9.89.15,1.66-7.15,2.68-13.99-4.62-17.36-2.42-1.12-7.55-.41-9.07,1.42-3.68,4.43-3.53,10.1-.06,16.07-4.5,0-8.3.35-11.96-.2-1.2-.18-2.78-2.61-2.92-4.13-.48-5.3-.5-10.65-.51-15.99-.08-62.69-.12-125.38-.17-188.08,0-1.32,0-2.63,0-4.64ZM218.3,432.91c-4.76.01-8.51,3.77-8.51,8.53,0,4,4.33,8.41,8.32,8.46,3.94.05,8.76-4.69,8.84-8.7.09-4.69-3.68-8.31-8.65-8.29ZM226.56,386.49c.03-4.53-3.53-8.25-8.07-8.42-4.6-.17-8.77,3.76-8.81,8.3-.04,4.89,3.52,8.6,8.34,8.65,4.56.06,8.51-3.89,8.55-8.53Z"/>
        <path class="cls-3" d="M466.42,444.04v-137.31c5.93,2.18,11.93,3.55,17.07,6.45,15.44,8.73,23.34,22.49,23.92,40.11.41,12.32.44,24.7-.16,37.01-1.05,21.72-11.47,38.15-29.75,49.68-1.39.88-2.97,1.52-4.53,2.08-1.85.67-3.77,1.15-6.55,1.97Z"/>
        <path class="cls-3" d="M444.05,243.16v12.87h-218.21v-12.87h218.21Z"/>
        <path class="cls-3" d="M226.33,533.84c-.12-1.75-.26-3.21-.3-4.68-.05-2.13-.01-4.26-.01-6.7h217.17v11.38h-216.87Z"/>
        <path class="cls-3" d="M260.01,430.91v-13.03h183.61v13.03h-183.61Z"/>
        <path class="cls-3" d="M260.19,400.73v-12.49h183.52v12.49h-183.52Z"/>
        <path class="cls-3" d="M444.1,329.81v11.49h-184.32c-.09-1.87-.2-3.62-.24-5.38-.04-1.81,0-3.63,0-6.11h184.56Z"/>
        <path class="cls-3" d="M444.16,358.84v12.17h-184.42v-12.17h184.42Z"/>
        <path class="cls-3" d="M443.42,447.73v11.88h-183.06c-.19-3.65-.39-7.52-.62-11.88h183.68Z"/>
        <path class="cls-3" d="M259.95,312.67v-11.56h183.96v11.56h-183.96Z"/>
        <path class="cls-3" d="M260.07,478.4h183c.26.59.38.74.38.89-.39,11.16,1.54,10.04-10.2,10.09-32.12.12-64.24.26-96.36.26-23.8,0-47.6-.26-71.41-.27-3.47,0-5.41-.73-5.04-4.68.18-1.92-.21-3.9-.37-6.28Z"/>
        <path class="cls-3" d="M443.92,287.17h-183.9v-9.21c1.91,0,4,0,6.08,0,56.95,0,113.9,0,170.84.01q8.06,0,6.97,9.2Z"/>
        <path class="cls-3" d="M162.94,334.24h14.82c0,6.83.04,13.74,0,20.65-.14,18.81-.51,37.62-.37,56.42.04,4.84-1.68,6.15-6.03,5.76-2.62-.23-5.27-.04-8.41-.04v-82.79Z"/>
        <path class="cls-3" d="M143.25,375.53v7.18h-66.56v-7.18h66.56Z"/>
        <path class="cls-1" d="M218.3,432.91c4.97-.01,8.75,3.61,8.65,8.29-.08,4.01-4.9,8.76-8.84,8.7-3.98-.06-8.32-4.47-8.32-8.46,0-4.76,3.74-8.52,8.51-8.53Z"/>
        <path class="cls-1" d="M226.56,386.49c-.03,4.65-3.98,8.59-8.55,8.53-4.81-.06-8.38-3.76-8.34-8.65.04-4.53,4.22-8.47,8.81-8.3,4.54.17,8.1,3.89,8.07,8.42Z"/>
      </g>
      <path class="cls-1" d="M437.49,172.55v25.1c1.57.4,2.85.73,4.37,1.12v25.78c39.46,7.33,55.36,31.95,52,71h13.97v24.93c-3.61,0-6.87.11-10.13-.03-2.75-.12-3.8.82-3.7,3.73.19,5.74-.21,11.49,0,17.23.85,23.01-20.7,51.02-46.49,55.14-6.44,1.03-6.41,1.25-6.41,7.73,0,6.6,0,13.2,0,19.79-.39-.13-.77-.25-1.16-.38-.76,1.68-2.13,3.33-2.19,5.04-.24,7.31-.1,14.62-.1,22.52h-217.72v-26.06h-25.95c-.11-2.34-.26-4.15-.26-5.95,0-14.21-.08-28.42.1-42.63.04-3.36-.86-4.55-4.33-4.46-8.17.22-16.34.07-25.03.07-.11-2.09-.3-4.03-.31-5.96-.06-13.21-.21-26.42-.05-39.63.05-3.79-.81-5.18-4.95-5.13-18.65.22-37.31.1-55.97.03-6.46-.02-10.85-3.58-13.42-9.14-2.52-5.45-1.45-10.68,2.52-15.21,2.36-2.69,5.17-4.17,9-4.14,19.09.15,38.18-.05,57.26.17,4.21.05,5.74-.84,5.6-5.4-.35-11.62-.12-23.26-.12-34.89,0-1.69,0-3.39,0-5.57h29.57v-49.06c8.01,0,15.43-.17,22.83.08,3.45.11,4.51-1,4.4-4.4-.23-6.99-.07-13.98-.07-21.42h216.72ZM209.45,211.94c0,1.73,0,2.86,0,4,.04,53.99.08,107.97.15,161.96,0,4.59.03,9.2.44,13.77.12,1.31,1.48,3.4,2.51,3.56,3.16.47,6.43.17,10.3.17-2.99-5.13-3.12-10.02.05-13.83,1.31-1.58,5.73-2.19,7.81-1.23,6.28,2.9,5.4,8.8,3.98,14.95,3.16,0,5.88.24,8.52-.13.91-.13,2.2-1.71,2.3-2.73.46-4.84.74-9.71.78-14.57.09-13.49.01-26.98.03-40.47.06-40.2.15-80.4.22-120.6,0-1.53,0-3.05,0-4.82h-37.1ZM441.99,359.34c2.4-.71,4.05-1.12,5.64-1.7,1.34-.49,2.7-1.04,3.9-1.79,15.75-9.93,24.71-24.08,25.62-42.78.51-10.6.49-21.26.14-31.87-.5-15.18-7.3-27.03-20.6-34.54-4.42-2.5-9.6-3.67-14.7-5.55v118.24ZM422.72,186.36h-187.9v11.08h187.9v-11.08ZM235.23,436.67h186.75v-9.8h-187.01c0,2.1-.03,3.94.01,5.77.03,1.26.15,2.52.25,4.03ZM264.24,348.04h158.12v-11.22h-158.12v11.22ZM264.39,322.05h158.04v-10.75h-158.04v10.75ZM422.76,260.98h-158.93c0,2.13-.03,3.7,0,5.26.03,1.51.13,3.02.21,4.63h158.72v-9.89ZM422.81,285.97h-158.81v10.48h158.81v-10.48ZM422.17,362.52h-158.17c.19,3.76.37,7.09.53,10.23h157.64v-10.23ZM264.18,246.22h158.41v-9.96h-158.41v9.96ZM264.29,388.93c.14,2.05.48,3.75.32,5.41-.32,3.4,1.35,4.03,4.34,4.03,20.5,0,40.99.23,61.49.23,27.66,0,55.32-.12,82.98-.22,10.12-.04,8.45.92,8.79-8.69,0-.12-.1-.25-.33-.76h-157.59ZM422.61,224.26q.93-7.92-6.01-7.92c-49.04,0-98.08,0-147.12-.01-1.79,0-3.59,0-5.24,0v7.93h158.36ZM180.65,264.79v71.29c2.71,0,4.99-.16,7.24.04,3.74.33,5.22-.8,5.19-4.96-.12-16.19.2-32.39.32-48.58.05-5.95,0-11.89,0-17.78h-12.76ZM163.69,300.35h-57.32v6.18h57.32v-6.18Z"/>
    </g>
  </g>
  <g id="Layer_3" data-name="Layer 3" class="cls-4">
    <path class="cls-1" d="M86.67,106.66c.04-10.1,6.97-17.01,16.95-16.9,9.63.1,17.22,8.02,17.05,17.79-.14,8.53-8.22,16.27-17.04,16.33-9.31.06-16.99-7.75-16.96-17.22Z"/>
    <path class="cls-1" d="M480.23,89.81c9.46-.09,16.74,7.24,16.96,17.09.21,9.07-7.76,16.94-17.19,16.97-8.97.03-16.33-7.31-16.47-16.42-.16-10.4,6.6-17.55,16.7-17.64Z"/>
    <path class="cls-1" d="M86.51,494.81c.09-10.06,7.87-18.08,17.46-18.01,9.17.07,17.06,8.53,16.89,18.11-.17,9.29-8.47,17.14-18.01,17.02-9.3-.11-16.43-7.58-16.34-17.12Z"/>
    <path class="cls-1" d="M497.59,494.67c-.08,9.19-8.35,17.09-18,17.18-9.22.08-16.76-7.81-16.77-17.56-.01-9.54,7.99-17.53,17.53-17.5,9.29.03,17.32,8.35,17.23,17.89Z"/>
    <path class="cls-1" d="M565.74,301.2c-.07,4.73-4.94,9.43-9.84,9.48-5.09.05-10.13-4.99-9.95-9.94.18-5.08,5.12-9.43,10.52-9.26,5.29.16,9.35,4.43,9.27,9.73Z"/>
    <path class="cls-1" d="M26.9,310.28c-5.2-.11-9.19-4.19-9.07-9.27.12-5.09,5.01-9.84,10.11-9.82,4.96.02,9.71,4.69,9.72,9.57.01,5.27-4.92,9.64-10.76,9.52Z"/>
    <path class="cls-1" d="M282.47,34.21c0-5.07,3.79-8.34,9.65-8.3,4.86.03,8.64,3.71,8.58,8.37-.08,5.68-3.96,9.97-8.98,9.93-5.77-.04-9.24-3.79-9.25-9.99Z"/>
    <path class="cls-1" d="M301.21,565.68c.03,5.68-4.1,9.96-9.57,9.94-5.46-.02-9.42-3.95-9.52-9.44-.12-6.07,3.81-10.36,9.57-10.46,5.39-.09,9.49,4.2,9.52,9.95Z"/>
    <path class="cls-1" d="M158.63,169.9c3.15.38,5.87,1.89,6.04,6.01.14,3.41-3.73,7.66-6.59,6.52-2.48-.99-5.57-3.75-5.88-6.07-.4-3,1.44-6.56,6.43-6.45Z"/>
    <path class="cls-1" d="M423.75,169.95c5.03-.05,8.75,3.1,7.68,6.44-.8,2.49-3.49,5.1-5.97,6.14-2.78,1.16-6.98-3.17-6.76-6.32.26-3.83,2.31-6.09,5.05-6.26Z"/>
    <path class="cls-1" d="M152.57,429.33c.26-3.05,2.1-5.58,6.16-5.45,3.86.13,6.34,2.53,6.29,6.34-.05,3.83-2.81,5.98-6.46,6.39-3.39.39-6.04-2.71-5.99-7.29Z"/>
    <path class="cls-1" d="M423.53,423.71c4.57-.05,8.33,3.1,7.94,6.25-.45,3.64-2.48,6.18-6.49,6.18-3.91,0-6.25-2.03-6.4-6.01-.14-3.95,1.91-6.14,4.94-6.41Z"/>
    <path class="cls-1" d="M298.38,124.57c-2.25,1.44-4.39,3.85-6.76,4.08-3.62.36-5.83-2.6-5.69-6.12.14-3.45,2.89-5.73,6.09-5.02,2.38.53,4.3,3.08,6.43,4.73-.03.78-.05,1.56-.08,2.33Z"/>
    <path class="cls-1" d="M290.9,477.58c4.94-.17,6.45,2.29,6.81,5.53.34,3.04-3.22,6.76-6.04,5.72-2.35-.87-4.9-3.32-5.73-5.66-1.02-2.84,2.44-5.58,4.95-5.6Z"/>
  </g>
  <g id="Layer_2" data-name="Layer 2" class="cls-4">
    <rect class="cls-5" x="56.72" y="66.43" width="471.83" height="471.83" rx="12" ry="12"/>
  </g>
  <g id="main">
    <rect class="cls-2" x="55.21" y="64.38" width="473.6" height="473.6"/>
    <rect class="cls-6" x="1.3" y="1.53" width="590.3" height="596.43" rx="125.25" ry="125.25"/>
    <g>
      <g id="white" class="cls-4">
        <path class="cls-2" d="M807.18,811.59H-216.82V-212.41c341.33,0,682.67,0,1024,0V811.59ZM52.2,250.29h23.06v-103.72c16.15,0,31.64.07,47.12-.02,11.84-.07,19.26-7.29,19.81-19.12.14-2.99.03-6,.03-9,0-10.45,0-20.9,0-32h99.71v-21.63c-1.06-.1-1.86-.24-2.66-.24-44.15,0-88.32-.61-132.46.31-20.67.43-36.17,11.46-46.66,29.63-6.35,11-7.8,22.85-7.9,35.02-.2,24.49-.05,48.99-.05,73.48,0,15.64,0,31.28,0,47.29ZM526.04,250.33c.18-1.21.45-2.17.45-3.12-.09-41.47.53-82.95-.55-124.39-.89-34.26-29.24-59.22-61.49-58.54-41.12.87-82.27.22-123.41.23-1.78,0-3.56,0-5.34,0v22.21h100.34c.08,1.47.17,2.44.17,3.42,0,11.66-.15,23.32,0,34.97.16,11.54,6.28,22.35,21.63,21.61,13.46-.65,26.97-.15,40.47-.16,1.75,0,3.5,0,5.96,0v103.77h21.76ZM141.86,516.82c0-2.59.03-4.56,0-6.52-.22-13.31.14-26.67-.86-39.93-.79-10.37-7.77-15.96-18.11-16.06-13.66-.13-27.33.04-41,.07-2.12,0-4.24,0-7.09,0v-102.41h-22.44c0,4.12-.02,7.92,0,11.71.26,38.16-.22,76.34,1.02,114.46.96,29.47,25.93,59.69,62.75,59.48,40-.22,80-.04,119.99-.06,1.77,0,3.54-.23,5.38-.36v-20.39h-99.65ZM336.03,516.65c0,5.45.29,10.27-.08,15.03-.35,4.47.93,6.02,5.69,5.99,41.3-.22,82.61-.03,123.91-.33,13.02-.09,24.83-4.84,35.01-12.88,16.56-13.08,25.05-30.6,25.31-51.52.49-38.97.31-77.95.39-116.92,0-1.42-.26-2.83-.38-4.1h-21.78v101.97c-2.29.1-4.08.25-5.87.26-14.16.1-28.32.07-42.47.28-10.84.16-17.59,5.59-18.36,16.3-.95,13.09-.62,26.27-.86,39.41-.04,2.07-.21,4.15-.34,6.51h-100.15ZM381.41,196.64c-35.29-47.2-149.81-47.04-184.56.43,5.37,4.67,10.86,9.44,16.57,14.41,20.94-18.63,46.37-28.16,75.37-28.17,29.18-.01,54.55,10.18,76.14,28.33,5.59-5.08,11.08-10.08,16.49-14.99ZM178.64,213.43c-24.63,28.68-33.51,61.92-31.21,98.46,1.87,29.62,11.93,56.19,30.99,78.33,5.24-4.82,9.84-9.16,14.58-13.34,2.57-2.27,2.33-4,.27-6.68-14.1-18.42-21.3-39.41-22.09-62.52-.95-27.65,5.71-53.08,22.64-75.43.68-.9.94-3.22.33-3.84-4.86-4.97-9.97-9.68-15.53-14.98ZM382.05,229.02c1.92,2.72,2.56,3.69,3.25,4.61,21.89,29.35,26.37,62.18,18.83,97.13-3.15,14.61-9.52,27.97-18.75,39.88-.98,1.27-1.78,4.26-1.1,4.98,4.77,5.03,9.94,9.68,15.62,15.05,3.61-5.06,7.71-10.07,11.01-15.55,22.8-37.81,26.25-77.85,12.91-119.53-4.55-14.22-11.87-27.1-21.38-38.68-1.31-1.59-2.51-3.94-5.14-1.55-5.05,4.57-10.14,9.08-15.25,13.65ZM365.34,394.32c-51.07,38.34-101.8,36.68-153.61-.94-3.16,3.44-6.55,7.32-10.15,10.99-4.29,4.38-4.37,4.57.19,8.37,44.08,36.76,105.88,42.3,155.66,13.81,8.34-4.77,16.48-9.96,22.88-18.12-5.14-4.85-10.07-9.5-14.97-14.12ZM326.73,307.59c-5.33,0-10.61.14-15.88-.06-2.78-.1-4.41.78-6.05,3.15-5.16,7.44-15.03,10.17-22.56,6.68-9.14-4.24-13.16-15.13-9.05-24.52,4.14-9.43,13.83-13.1,23.69-9.17,1.42.57,3.87.84,4.77.04,4.18-3.71,7.97-7.85,11.89-11.82-11.56-11.81-30.76-13.25-46.02-3.9-14.3,8.76-20.81,28.39-15.01,45.23,6.1,17.71,22.98,29.14,40.26,27.25,17.17-1.88,31.85-15.87,33.95-32.89ZM506.22,315.43c.88.26,1.35.52,1.81.52,6.83,0,13.67.22,20.48-.14,4.25-.22,7.37,1.26,10.96,3.43,4.34,2.63,9.68,4.84,14.65,4.98,10.25.3,19.29-7.56,21.87-17.3,2.62-9.92-1.82-20.76-10.78-26.32-8.51-5.28-20.05-4.15-27.96,2.32-1.84,1.5-4.6,2.52-6.98,2.61-7.93.32-15.88.12-24.05.12v29.78ZM72.11,285.73c-7.54,0-14.34-.18-21.12.06-4.5.16-8.3-.47-11.68-3.97-1.84-1.91-4.76-3.12-7.41-3.84-11.01-3.01-22.41,2.2-27.37,12.21-4.99,10.07-2.55,22.12,5.87,28.93,8.98,7.27,21.08,7.04,30.41-.21,1.92-1.49,4.66-2.51,7.1-2.67,6.8-.43,13.64-.31,20.47-.38,2.24-.02,3.8-.49,3.77-3.32-.11-8.64-.04-17.27-.04-26.81ZM303.24,83.56c0-7.62.25-14.76-.08-21.87-.23-5.05.93-9.01,4.28-13.09,7.78-9.49,5.93-23.56-3.42-31.33-9.48-7.88-23.82-7.07-32.05,1.81-8.15,8.81-7.93,21.46.16,31.89,1.51,1.95,2.26,4.92,2.35,7.46.29,8.25.11,16.52.11,25.13h28.64ZM274.88,522.06c0,3.05-.13,5.83.02,8.6.5,8.75.81,16.89-5.2,24.87-5.68,7.54-3.66,16.59,1.72,24.24,4.93,7.01,12.05,9.81,20.47,8.68,8.37-1.12,14.62-5.69,17.78-13.51,3.38-8.36,1.84-16.49-3.8-23.4-2.44-2.99-3.17-5.86-3.05-9.51.23-6.59.06-13.19.06-19.97h-28.01ZM321.67,253.75c2.76-2.51,5.38-5.06,8.17-7.41,3.16-2.67,2.87-4.69-.6-6.86-21.83-13.66-44.77-15.9-68.65-6.41-5.11,2.03-9.68,5.44-15.2,8.62,4.7,4.23,8.43,7.59,12.17,10.95,21.08-13.29,42.6-12.79,64.1,1.11ZM244.38,361.48c2.48,1.37,3.6,1.8,4.51,2.52,20.79,16.38,57.05,17.13,78.38,1.6,4.93-3.59,4.95-3.95.6-8.52-1.38-1.44-2.55-3.25-4.21-4.2-1.37-.78-3.57-1.16-4.96-.61-3.52,1.39-6.65,3.8-10.2,5.09-16.82,6.09-32.93,4.63-48.23-4.97-1.25-.78-3.88-.82-5.05-.01-3.39,2.33-6.35,5.26-10.82,9.11ZM229.3,340.85c2.96-3.12,6.07-6.07,8.73-9.4.76-.95.72-3.24.12-4.46-8.21-16.64-8.3-33.18-.06-49.84.67-1.36.82-3.97-.01-4.9-2.93-3.28-6.4-6.08-9.67-9.06-16.45,19.08-15.93,59.45.89,77.66ZM349.41,341.23c18.35-20.19,15.52-62.98.95-77.42-2.81,2.54-5.89,4.88-8.34,7.76-1.08,1.27-1.72,4.01-1.1,5.46,7.3,17.21,7.58,34.19-.63,51.19-.56,1.16-.43,3.42.36,4.33,2.58,3.01,5.61,5.63,8.77,8.69ZM99.96,345.11c2.46,18.38,8.21,35.19,16.75,51.54,5.77-3.41,11.02-6.57,16.35-9.61,2.74-1.56,2.15-3.32,1.25-5.83-4.24-11.83-8.39-23.7-12.14-35.7-1.03-3.29-2.41-4.4-5.57-3.75-5.34,1.09-10.68,2.15-16.64,3.35ZM442.76,385.37c4.68,2.9,9.43,5.61,13.92,8.7,3.44,2.37,5.71,2.12,7.16-1.98,4.42-12.5,8.95-24.96,13.2-37.52.97-2.86.95-6.05,1.41-9.19-6.29-1.33-11.81-2.44-17.29-3.69-2.95-.67-4.14.44-4.83,3.3-1.71,7.09-3.44,14.2-5.76,21.11-2.15,6.43-5.07,12.6-7.8,19.26ZM236.31,116.7c-17.51,5.16-34.18,10.84-49.32,21.58,4.84,6.04,9.36,11.69,13.06,16.31,13.9-5.55,26.95-10.85,40.08-15.93,2.63-1.02,2.71-2.47,1.99-4.63-1.85-5.49-3.68-10.99-5.81-17.33ZM378.22,154.86c3.85-5.21,8.06-10.91,12.58-17.03-15.13-9.03-30.64-15.58-47.05-20.05-.94-.25-2.9.18-3.09.73-2.16,6.31-4.06,12.71-5.74,18.13,14.97,6.3,28.69,12.07,43.29,18.21ZM116.46,208.05c-8.48,14.81-13.29,30.25-16.13,46.36-.14.81,1.7,2.58,2.89,2.89,4.34,1.13,8.85,1.64,13.19,2.77,4.03,1.05,5.43-.51,6.58-4.28,2.61-8.57,5.77-16.97,8.85-25.39,1.24-3.38,2.86-6.62,4.37-10.09-6.71-4.16-13.02-8.07-19.75-12.25ZM462.22,208.01c-6.51,3.99-11.97,7.14-17.16,10.69-1,.68-1.66,3.18-1.24,4.41,3.99,11.57,8.18,23.08,12.56,34.52.45,1.17,2.6,2.55,3.79,2.41,4.76-.57,9.44-1.81,14.19-2.58,3.48-.56,4.47-2.48,3.58-5.62-2.37-8.29-4.47-16.69-7.32-24.81-2.22-6.34-5.41-12.35-8.4-19.02ZM335.36,468.58c1.7,5.25,3.47,10.26,4.93,15.35.89,3.11,2.56,4.13,5.49,2.89,13.62-5.72,27.23-11.45,40.83-17.22,3.19-1.35,3.11-3.34,1.1-5.85-2.71-3.37-5.44-6.76-7.79-10.38-1.89-2.9-3.54-2.74-6.52-1.4-11.49,5.2-23.16,9.97-34.76,14.93-1.03.44-1.99,1.02-3.28,1.68ZM188.66,466.74c.56.68.8,1.16,1.18,1.43,13.23,9.35,28.52,14.01,43.63,19.04,1,.33,3.3-.53,3.63-1.37,2.27-5.79,4.18-11.72,5.81-16.47-13.69-6.24-26.73-12.25-39.87-18.05-.9-.4-2.96.34-3.66,1.21-3.73,4.63-7.19,9.47-10.72,14.21ZM136.08,175.42c0,11.04,8.29,19.57,19.01,19.58,11.15,0,20.17-8.62,20.1-19.22-.08-11.01-8.6-19.21-19.96-19.21-10.61,0-19.16,8.41-19.15,18.85ZM403.16,175.37c.02,11.21,8.81,19.76,20.16,19.59,10.3-.15,18.87-8.79,18.7-18.86-.17-10.35-9.71-19.57-20.19-19.51-10.35.05-18.68,8.44-18.66,18.78ZM236.08,233.89c11.15-9.38,23.99-14.87,38.18-17.33.76-.13,1.83-1.54,1.86-2.38.16-5.74.09-11.5.09-17.88-20.54,3.04-38.46,9.13-53,23.85,4.53,4.83,8.47,9.04,12.88,13.75ZM355.59,220.29c-15.79-13.54-33.19-21.43-53.42-23.56v19.5c15.1,2.78,28.52,8.18,38.6,16.41,5.29-4.42,9.88-8.24,14.82-12.36ZM355.99,383.31c-3.75-3.28-7.5-6.09-10.65-9.45-2.36-2.51-4.26-2.69-6.77-.65-9.67,7.84-20.92,12.11-32.94,14.76-1.27.28-3.13,1.85-3.19,2.91-.32,5.59-.15,11.2-.15,17.6,20.49-3.02,38.18-9.94,53.7-25.16ZM155.96,411.49c-10.87.03-19.43,8.16-19.49,18.51-.06,9.84,9.55,18.9,20.08,18.93,9.85.03,18.37-8.56,18.4-18.54.03-10.52-8.41-18.93-18.99-18.89ZM422.62,411.51c-10.49-.18-18.93,7.76-19.26,18.11-.32,10.34,7.92,18.93,18.28,19.04,10.82.11,19.37-7.96,19.5-18.42.13-10.37-7.96-18.55-18.53-18.73ZM275.98,397.99c0-1-.14-2.02.02-2.99.82-4.95-1.33-6.47-6.16-7.8-8.06-2.22-15.74-5.92-23.45-9.31-3.66-1.61-7.32-5.9-10.42-5.42-3.36.52-5.94,5.35-9.1,8.02-3.37,2.85-2.81,4.75.47,7.34,11.28,8.88,23.92,14.85,37.76,18.39q10.84,2.77,10.88-8.22ZM289.72,140.84c10.36-.12,18.26-8.18,18.14-18.51-.11-9.63-9.42-17.98-19.79-17.76-9.74.2-17.86,8.33-17.84,17.84.02,10.38,8.67,18.56,19.49,18.43ZM374.28,363.78c10.91-13.47,17.77-29.25,18.96-47.87h-17.89c-4.94,11.39-9.58,21.93-14.01,32.55-.49,1.17-.34,3.41.45,4.19,3.78,3.72,7.89,7.1,12.49,11.13ZM204.53,238.95c-11.39,14.43-17.44,30.22-19.68,48.64,5.97,0,10.93-.14,15.88.05,3.08.12,4.61-1.11,5.06-4.08,1.57-10.4,6.11-19.56,11.69-28.33.62-.97.76-3.21.12-3.87-4.02-4.14-8.34-7.99-13.05-12.41ZM203.88,316h-18.76c.14,2.25.03,4.11.41,5.87,2.86,12.91,7.09,25.26,14.71,36.27,4.7,6.79,4.61,6.85,10.39.71,2.5-2.66,6.66-5.13,7.03-8.07.38-3.03-3.22-6.41-4.57-9.84-3.2-8.15-6.09-16.42-9.21-24.94ZM360.64,252.61c3.66,8.02,7.05,15.04,10.07,22.21,1.69,4.03,1.59,10.15,4.45,11.99,3.32,2.14,8.99.51,13.64.72,3.73.17,5.09-1.22,4.45-5.02-2.32-13.84-7.48-26.49-15.49-37.98-1.18-1.7-2.66-3.19-3.61-4.32-4.87,4.47-9.38,8.61-13.5,12.4ZM307.06,483.49c.02-9.38-8.07-17.6-17.39-17.66-9.97-.07-18.26,7.4-18.35,16.52-.1,10.52,7.65,18.35,18.14,18.34,9.79-.01,17.58-7.63,17.61-17.2ZM469.68,285.52c-8.6.04-15.28,6.84-15.34,15.63-.06,8.78,7.29,16.2,16.12,16.26,8.63.06,15.87-7.21,15.81-15.87-.07-9.4-6.98-16.07-16.58-16.03ZM107.97,285.57c-8.94-.06-15.74,6.39-15.83,15.02-.1,9.32,6.64,16.73,15.36,16.88,8.4.14,15.6-7.25,15.68-16.1.08-8.58-6.82-15.74-15.21-15.8Z"/>
        <path class="cls-3" d="M52.2,250.29c0-16.02,0-31.66,0-47.29,0-24.49-.16-48.99.05-73.48.1-12.17,1.55-24.02,7.9-35.02,10.49-18.17,25.99-29.2,46.66-29.63,44.14-.91,88.3-.3,132.46-.31.8,0,1.6.14,2.66.24v21.63h-99.71c0,11.1,0,21.55,0,32,0,3,.11,6-.03,9-.55,11.83-7.97,19.05-19.81,19.12-15.48.09-30.97.02-47.12.02v103.72h-23.06ZM84.12,106.35c-.04,9.48,7.65,17.29,16.96,17.22,8.82-.06,16.9-7.8,17.04-16.33.17-9.77-7.42-17.69-17.05-17.79-9.98-.11-16.91,6.8-16.95,16.9Z"/>
        <path class="cls-3" d="M526.04,250.33h-21.76v-103.77c-2.46,0-4.21,0-5.96,0-13.49,0-27.01-.49-40.47.16-15.34.74-21.47-10.06-21.63-21.61-.16-11.66-.01-23.32,0-34.97,0-.98-.1-1.95-.17-3.42h-100.34v-22.21c1.77,0,3.55,0,5.34,0,41.14,0,82.29.65,123.41-.23,32.25-.69,60.6,24.27,61.49,58.54,1.08,41.44.46,82.93.55,124.39,0,.95-.27,1.91-.45,3.12ZM477.69,89.5c-10.1.1-16.86,7.24-16.7,17.64.14,9.11,7.5,16.45,16.47,16.42,9.43-.03,17.4-7.9,17.19-16.97-.23-9.85-7.51-17.18-16.96-17.09Z"/>
        <path class="cls-3" d="M141.86,516.82h99.65v20.39c-1.84.13-3.61.35-5.38.36-40,.02-80-.16-119.99.06-36.83.2-61.79-30.02-62.75-59.48-1.24-38.12-.76-76.3-1.02-114.46-.03-3.79,0-7.59,0-11.71h22.44v102.41c2.85,0,4.97,0,7.09,0,13.67-.04,27.33-.2,41-.07,10.34.1,17.32,5.68,18.11,16.06,1,13.26.65,26.61.86,39.93.03,1.96,0,3.93,0,6.52ZM83.97,494.51c-.09,9.54,7.04,17.01,16.34,17.12,9.54.12,17.84-7.73,18.01-17.02.18-9.57-7.72-18.04-16.89-18.11-9.59-.07-17.37,7.95-17.46,18.01Z"/>
        <path class="cls-3" d="M336.03,516.65h100.15c.13-2.36.3-4.43.34-6.51.25-13.14-.08-26.32.86-39.41.77-10.7,7.52-16.14,18.36-16.3,14.15-.21,28.31-.18,42.47-.28,1.79-.01,3.58-.15,5.87-.26v-101.97h21.78c.12,1.27.38,2.69.38,4.1-.08,38.97.1,77.95-.39,116.92-.26,20.92-8.75,38.44-25.31,51.52-10.18,8.04-21.99,12.79-35.01,12.88-41.3.29-82.61.1-123.91.33-4.76.03-6.04-1.52-5.69-5.99.37-4.76.08-9.58.08-15.03ZM495.04,494.36c.08-9.54-7.94-17.86-17.23-17.89-9.54-.03-17.54,7.96-17.53,17.5.01,9.75,7.55,17.64,16.77,17.56,9.64-.09,17.92-7.98,18-17.18Z"/>
        <path class="cls-3" d="M381.41,196.64c-5.41,4.92-10.9,9.91-16.49,14.99-21.59-18.15-46.96-28.34-76.14-28.33-28.99.01-54.43,9.55-75.37,28.17-5.71-4.97-11.2-9.74-16.57-14.41,34.76-47.47,149.27-47.63,184.56-.43Z"/>
        <path class="cls-3" d="M178.64,213.43c5.56,5.3,10.67,10.01,15.53,14.98.61.62.35,2.93-.33,3.84-16.93,22.35-23.59,47.78-22.64,75.43.79,23.12,7.99,44.1,22.09,62.52,2.05,2.68,2.3,4.42-.27,6.68-4.74,4.18-9.34,8.53-14.58,13.34-19.06-22.14-29.12-48.71-30.99-78.33-2.31-36.55,6.57-69.78,31.21-98.46Z"/>
        <path class="cls-3" d="M382.05,229.02c5.1-4.56,10.2-9.08,15.25-13.65,2.63-2.38,3.84-.04,5.14,1.55,9.5,11.57,16.82,24.46,21.38,38.68,13.35,41.68,9.89,81.72-12.91,119.53-3.31,5.48-7.4,10.49-11.01,15.55-5.68-5.37-10.85-10.02-15.62-15.05-.68-.72.12-3.71,1.1-4.98,9.24-11.92,15.6-25.28,18.75-39.88,7.55-34.95,3.07-67.78-18.83-97.13-.69-.93-1.34-1.89-3.25-4.61Z"/>
        <path class="cls-3" d="M365.34,394.32c4.9,4.62,9.83,9.27,14.97,14.12-6.41,8.16-14.55,13.35-22.88,18.12-49.78,28.49-111.57,22.95-155.66-13.81-4.56-3.8-4.49-3.99-.19-8.37,3.6-3.67,6.99-7.56,10.15-10.99,51.81,37.62,102.55,39.27,153.61.94Z"/>
        <path class="cls-3" d="M271.68,336.16c-6.77-2.9-12.6-7.63-16.4-13.83-8.38-13.68-8.09-30.54.58-42.21-5.63,9.62-7.18,21.97-3.34,33.11,3.5,10.15,10.53,18.24,19.16,22.93Z"/>
        <path class="cls-3" d="M327.76,297.07c-1.32-12.02-8.57-22.82-18.64-28.92-11.64-8.25-28.15-8.39-41.59-.15-4.84,2.97-8.79,7.19-11.67,12.12-5.63,9.62-7.18,21.97-3.34,33.11,3.5,10.15,10.53,18.24,19.16,22.93,8.84,3.8,19.28,4.46,28.83,1.17,11.29-3.89,20.02-12.15,24.38-22.11.01,0,.01-.01.01-.02,2.48-5.66,3.54-11.87,2.86-18.13ZM304.65,307.61c-3.86,8.33-13.23,12.4-21.96,9.96-.15-.06-.3-.13-.45-.2-9.14-4.24-13.16-15.13-9.05-24.52,4.03-9.18,13.32-12.9,22.91-9.45.48.58,1.09,1.12,1.87,1.66,7.44,5.16,10.17,15.02,6.68,22.55Z"/>
        <path class="cls-3" d="M324.89,315.22c-4.85,13.42-17.59,23.67-32.11,25.26-7.38.81-14.68-.81-21.1-4.32,8.84,3.8,19.28,4.46,28.83,1.17,11.29-3.89,20.02-12.15,24.38-22.11Z"/>
        <path class="cls-3" d="M506.22,315.43v-29.78c8.17,0,16.12.2,24.05-.12,2.38-.1,5.14-1.11,6.98-2.61,7.92-6.47,19.45-7.61,27.96-2.32,8.96,5.56,13.4,16.41,10.78,26.32-2.58,9.75-11.62,17.61-21.87,17.3-4.97-.15-10.31-2.35-14.65-4.98-3.59-2.18-6.7-3.65-10.96-3.43-6.81.36-13.65.14-20.48.14-.46,0-.92-.26-1.81-.52ZM563.19,300.9c.08-5.3-3.98-9.57-9.27-9.73-5.4-.17-10.34,4.18-10.52,9.26-.18,4.95,4.87,10,9.95,9.94,4.89-.05,9.76-4.74,9.84-9.48Z"/>
        <path class="cls-3" d="M72.11,285.73c0,9.54-.07,18.17.04,26.81.04,2.83-1.53,3.3-3.77,3.32-6.83.07-13.66-.06-20.47.38-2.43.15-5.17,1.17-7.1,2.67-9.33,7.26-21.44,7.48-30.41.21-8.42-6.82-10.86-18.86-5.87-28.93,4.95-10,16.36-15.21,27.37-12.21,2.65.72,5.57,1.93,7.41,3.84,3.37,3.5,7.18,4.13,11.68,3.97,6.79-.24,13.59-.06,21.12-.06ZM24.35,309.97c5.83.12,10.77-4.24,10.76-9.52-.01-4.88-4.76-9.56-9.72-9.57-5.1-.02-9.99,4.73-10.11,9.82-.12,5.08,3.87,9.16,9.07,9.27Z"/>
        <path class="cls-3" d="M303.24,83.56h-28.64c0-8.62.18-16.88-.11-25.13-.09-2.54-.84-5.51-2.35-7.46-8.09-10.43-8.32-23.09-.16-31.89,8.23-8.89,22.57-9.7,32.05-1.81,9.34,7.77,11.2,21.84,3.42,31.33-3.35,4.09-4.52,8.04-4.28,13.09.33,7.11.08,14.25.08,21.87ZM279.93,33.9c.01,6.2,3.48,9.95,9.25,9.99,5.02.04,8.9-4.25,8.98-9.93.06-4.65-3.72-8.34-8.58-8.37-5.86-.03-9.66,3.24-9.65,8.3Z"/>
        <path class="cls-3" d="M274.88,522.06h28.01c0,6.78.16,13.38-.06,19.97-.13,3.65.6,6.52,3.05,9.51,5.64,6.91,7.18,15.03,3.8,23.4-3.16,7.82-9.41,12.38-17.78,13.51-8.42,1.13-15.54-1.67-20.47-8.68-5.38-7.64-7.4-16.7-1.72-24.24,6.01-7.98,5.7-16.12,5.2-24.87-.16-2.77-.02-5.55-.02-8.6ZM298.67,565.37c-.03-5.75-4.13-10.04-9.52-9.95-5.76.09-9.69,4.38-9.57,10.46.1,5.49,4.07,9.42,9.52,9.44,5.47.02,9.6-4.27,9.57-9.94Z"/>
        <path class="cls-3" d="M321.67,253.75c-21.51-13.9-43.02-14.39-64.1-1.11-3.74-3.36-7.47-6.72-12.17-10.95,5.52-3.18,10.08-6.58,15.2-8.62,23.88-9.49,46.82-7.25,68.65,6.41,3.46,2.17,3.75,4.19.6,6.86-2.78,2.35-5.41,4.89-8.17,7.41Z"/>
        <path class="cls-3" d="M244.38,361.48c4.47-3.85,7.44-6.78,10.82-9.11,1.17-.81,3.8-.77,5.05.01,15.3,9.6,31.41,11.06,48.23,4.97,3.55-1.28,6.68-3.7,10.2-5.09,1.4-.55,3.6-.17,4.96.61,1.66.95,2.83,2.76,4.21,4.2,4.35,4.57,4.33,4.93-.6,8.52-21.32,15.54-57.59,14.78-78.38-1.6-.91-.71-2.03-1.15-4.51-2.52Z"/>
        <path class="cls-3" d="M229.3,340.85c-16.82-18.21-17.34-58.58-.89-77.66,3.27,2.98,6.73,5.78,9.67,9.06.83.93.68,3.54.01,4.9-8.25,16.66-8.15,33.2.06,49.84.6,1.22.64,3.51-.12,4.46-2.65,3.33-5.77,6.28-8.73,9.4Z"/>
        <path class="cls-3" d="M349.41,341.23c-3.15-3.06-6.18-5.68-8.77-8.69-.78-.91-.92-3.17-.36-4.33,8.21-17,7.93-33.98.63-51.19-.62-1.45.02-4.19,1.1-5.46,2.44-2.88,5.53-5.21,8.34-7.76,14.57,14.44,17.4,57.23-.95,77.42Z"/>
        <path class="cls-3" d="M99.96,345.11c5.97-1.2,11.31-2.27,16.64-3.35,3.16-.64,4.54.46,5.57,3.75,3.75,11.99,7.89,23.87,12.14,35.7.9,2.51,1.49,4.27-1.25,5.83-5.32,3.04-10.57,6.21-16.35,9.61-8.55-16.35-14.29-33.16-16.75-51.54Z"/>
        <path class="cls-3" d="M442.76,385.37c2.73-6.66,5.65-12.84,7.8-19.26,2.31-6.91,4.05-14.02,5.76-21.11.69-2.87,1.88-3.98,4.83-3.3,5.48,1.25,11,2.36,17.29,3.69-.45,3.14-.44,6.33-1.41,9.19-4.25,12.56-8.78,25.02-13.2,37.52-1.45,4.1-3.71,4.35-7.16,1.98-4.49-3.09-9.24-5.8-13.92-8.7Z"/>
        <path class="cls-3" d="M236.31,116.7c2.12,6.34,3.95,11.84,5.81,17.33.72,2.15.65,3.61-1.99,4.63-13.13,5.08-26.18,10.38-40.08,15.93-3.7-4.62-8.22-10.27-13.06-16.31,15.14-10.74,31.81-16.42,49.32-21.58Z"/>
        <path class="cls-3" d="M378.22,154.86c-14.6-6.14-28.33-11.92-43.29-18.21,1.68-5.41,3.58-11.81,5.74-18.13.19-.56,2.15-.99,3.09-.73,16.41,4.46,31.92,11.01,47.05,20.05-4.52,6.12-8.73,11.82-12.58,17.03Z"/>
        <path class="cls-3" d="M116.46,208.05c6.73,4.18,13.04,8.09,19.75,12.25-1.52,3.47-3.14,6.71-4.37,10.09-3.08,8.42-6.24,16.82-8.85,25.39-1.15,3.77-2.55,5.33-6.58,4.28-4.34-1.13-8.85-1.63-13.19-2.77-1.18-.31-3.03-2.09-2.89-2.89,2.84-16.1,7.65-31.54,16.13-46.36Z"/>
        <path class="cls-3" d="M462.22,208.01c2.99,6.67,6.18,12.67,8.4,19.02,2.85,8.13,4.95,16.52,7.32,24.81.9,3.14-.1,5.05-3.58,5.62-4.75.77-9.43,2.01-14.19,2.58-1.19.14-3.34-1.25-3.79-2.41-4.38-11.43-8.57-22.94-12.56-34.52-.42-1.23.24-3.73,1.24-4.41,5.19-3.55,10.65-6.7,17.16-10.69Z"/>
        <path class="cls-3" d="M335.36,468.58c1.29-.67,2.26-1.25,3.28-1.68,11.6-4.95,23.27-9.73,34.76-14.93,2.97-1.34,4.63-1.5,6.52,1.4,2.35,3.62,5.08,7.01,7.79,10.38,2.01,2.51,2.09,4.49-1.1,5.85-13.6,5.77-27.21,11.5-40.83,17.22-2.93,1.23-4.6.21-5.49-2.89-1.46-5.09-3.22-10.1-4.93-15.35Z"/>
        <path class="cls-3" d="M188.66,466.74c3.53-4.74,7-9.58,10.72-14.21.7-.87,2.76-1.6,3.66-1.21,13.13,5.8,26.18,11.81,39.87,18.05-1.63,4.75-3.54,10.68-5.81,16.47-.33.84-2.63,1.7-3.63,1.37-15.11-5.03-30.4-9.69-43.63-19.04-.38-.27-.63-.74-1.18-1.43Z"/>
        <path class="cls-3" d="M136.08,175.42c0-10.44,8.54-18.85,19.15-18.85,11.35,0,19.88,8.2,19.96,19.21.08,10.6-8.95,19.23-20.1,19.22-10.73,0-19.01-8.54-19.01-19.58ZM156.09,169.59c-5-.11-6.84,3.46-6.43,6.45.31,2.32,3.4,5.08,5.88,6.07,2.86,1.14,6.73-3.1,6.59-6.52-.17-4.12-2.9-5.63-6.04-6.01Z"/>
        <path class="cls-3" d="M403.16,175.37c-.02-10.34,8.32-18.73,18.66-18.78,10.48-.05,20.02,9.17,20.19,19.51.17,10.08-8.4,18.71-18.7,18.86-11.35.16-20.14-8.38-20.16-19.59ZM421.21,169.64c-2.74.17-4.79,2.43-5.05,6.26-.22,3.15,3.98,7.48,6.76,6.32,2.48-1.04,5.17-3.65,5.97-6.14,1.07-3.34-2.65-6.49-7.68-6.44Z"/>
        <path class="cls-3" d="M236.08,233.89c-4.41-4.7-8.35-8.92-12.88-13.75,14.54-14.72,32.46-20.81,53-23.85,0,6.38.08,12.13-.09,17.88-.02.84-1.09,2.25-1.86,2.38-14.19,2.46-27.02,7.96-38.18,17.33Z"/>
        <path class="cls-3" d="M355.59,220.29c-4.94,4.12-9.52,7.94-14.82,12.36-10.09-8.22-23.5-13.63-38.6-16.41v-19.5c20.23,2.12,37.62,10.02,53.42,23.56Z"/>
        <path class="cls-3" d="M355.99,383.31c-15.52,15.22-33.21,22.14-53.7,25.16,0-6.39-.17-12.01.15-17.6.06-1.06,1.93-2.63,3.19-2.91,12.02-2.65,23.27-6.93,32.94-14.76,2.51-2.03,4.41-1.86,6.77.65,3.16,3.36,6.9,6.18,10.65,9.45Z"/>
        <path class="cls-3" d="M155.96,411.49c10.57-.03,19.02,8.37,18.99,18.89-.03,9.99-8.55,18.57-18.4,18.54-10.53-.03-20.14-9.09-20.08-18.93.06-10.35,8.62-18.47,19.49-18.51ZM150.03,429.02c-.05,4.58,2.6,7.67,5.99,7.29,3.64-.41,6.4-2.56,6.46-6.39.05-3.82-2.42-6.22-6.29-6.34-4.06-.13-5.91,2.4-6.16,5.45Z"/>
        <path class="cls-3" d="M422.62,411.51c10.57.18,18.66,8.36,18.53,18.73-.13,10.46-8.68,18.53-19.5,18.42-10.36-.11-18.61-8.7-18.28-19.04.32-10.35,8.77-18.29,19.26-18.11ZM420.99,423.4c-3.04.27-5.09,2.46-4.94,6.41.15,3.99,2.48,6.02,6.4,6.01,4.01,0,6.04-2.55,6.49-6.18.39-3.15-3.37-6.3-7.94-6.25Z"/>
        <path class="cls-3" d="M275.99,397.99q-.03,10.97-10.89,8.22c-13.85-3.54-26.48-9.51-37.76-18.39-3.28-2.58-3.85-4.49-.47-7.34,3.16-2.67,5.74-7.5,9.1-8.02,3.1-.48,6.76,3.8,10.42,5.42,7.7,3.39,15.39,7.1,23.45,9.31,4.83,1.33,6.99,2.86,6.16,7.8-.16.97-.02,1.99-.02,2.99Z"/>
        <path class="cls-3" d="M289.72,140.84c-10.82.13-19.47-8.05-19.49-18.43-.02-9.51,8.1-17.64,17.84-17.84,10.37-.22,19.68,8.14,19.79,17.76.12,10.33-7.78,18.39-18.14,18.51ZM295.83,124.26c.03-.78.05-1.56.08-2.33-2.13-1.65-4.05-4.2-6.43-4.73-3.2-.71-5.95,1.57-6.09,5.02-.14,3.52,2.07,6.48,5.69,6.12,2.37-.24,4.51-2.65,6.76-4.08Z"/>
        <path class="cls-3" d="M374.28,363.78c-4.6-4.03-8.71-7.41-12.49-11.13-.79-.78-.94-3.01-.45-4.19,4.43-10.62,9.07-21.16,14.01-32.55h17.89c-1.19,18.62-8.04,34.4-18.96,47.87Z"/>
        <path class="cls-3" d="M204.53,238.95c4.72,4.42,9.03,8.27,13.05,12.41.65.66.5,2.9-.12,3.87-5.57,8.77-10.12,17.93-11.69,28.33-.45,2.97-1.98,4.2-5.06,4.08-4.95-.19-9.9-.05-15.88-.05,2.25-18.42,8.29-34.21,19.68-48.64Z"/>
        <path class="cls-3" d="M203.88,316c3.12,8.52,6.02,16.79,9.21,24.94,1.34,3.43,4.95,6.81,4.57,9.84-.37,2.94-4.52,5.41-7.03,8.07-5.78,6.14-5.69,6.08-10.39-.71-7.62-11-11.85-23.36-14.71-36.27-.39-1.75-.27-3.62-.41-5.87h18.76Z"/>
        <path class="cls-3" d="M360.64,252.61c4.12-3.78,8.63-7.92,13.5-12.4.95,1.12,2.43,2.62,3.61,4.32,8.01,11.49,13.17,24.14,15.49,37.98.64,3.81-.72,5.19-4.45,5.02-4.64-.21-10.32,1.42-13.64-.72-2.86-1.84-2.75-7.97-4.45-11.99-3.02-7.17-6.41-14.19-10.07-22.21Z"/>
        <path class="cls-3" d="M307.06,483.49c-.02,9.57-7.82,17.19-17.61,17.2-10.49.01-18.24-7.82-18.14-18.34.09-9.12,8.38-16.59,18.35-16.52,9.32.06,17.41,8.28,17.39,17.66ZM288.35,477.27c-2.51.02-5.97,2.76-4.95,5.6.84,2.33,3.38,4.79,5.73,5.66,2.82,1.04,6.38-2.68,6.04-5.72-.36-3.24-1.87-5.71-6.81-5.53Z"/>
        <path class="cls-3" d="M469.68,285.52c9.61-.04,16.51,6.63,16.58,16.03.07,8.66-7.17,15.93-15.81,15.87-8.83-.06-16.18-7.48-16.12-16.26.06-8.79,6.74-15.6,15.34-15.63Z"/>
        <path class="cls-3" d="M107.97,285.57c8.39.06,15.28,7.22,15.21,15.8-.08,8.85-7.28,16.25-15.68,16.1-8.72-.15-15.46-7.56-15.36-16.88.1-8.63,6.89-15.08,15.83-15.02Z"/>
      </g>
      <g id="black">
        <path class="cls-2" d="M808.45,811.74H-215.55V-212.26c341.33,0,682.67,0,1024,0V811.74ZM53.48,250.44h23.06v-103.72c16.15,0,31.64.07,47.12-.02,11.84-.07,19.26-7.29,19.81-19.12.14-2.99.03-6,.03-9,0-10.45,0-20.9,0-32h99.71v-21.63c-1.06-.1-1.86-.24-2.66-.24-44.15,0-88.32-.61-132.46.31-20.67.43-36.17,11.46-46.66,29.63-6.35,11-7.8,22.85-7.9,35.02-.2,24.49-.05,48.99-.05,73.48,0,15.64,0,31.28,0,47.29ZM527.31,250.49c.18-1.21.45-2.17.45-3.12-.09-41.47.53-82.95-.55-124.39-.89-34.26-29.24-59.22-61.49-58.54-41.12.87-82.27.22-123.41.23-1.78,0-3.56,0-5.34,0v22.21h100.34c.08,1.47.17,2.44.17,3.42,0,11.66-.15,23.32,0,34.97.16,11.54,6.28,22.35,21.63,21.61,13.46-.65,26.97-.15,40.47-.16,1.75,0,3.5,0,5.96,0v103.77h21.76ZM143.13,516.97c0-2.59.03-4.56,0-6.52-.22-13.31.14-26.67-.86-39.93-.79-10.37-7.77-15.96-18.11-16.06-13.66-.13-27.33.04-41,.07-2.12,0-4.24,0-7.09,0v-102.41h-22.44c0,4.12-.02,7.92,0,11.71.26,38.16-.22,76.34,1.02,114.46.96,29.47,25.93,59.69,62.75,59.48,40-.22,80-.04,119.99-.06,1.77,0,3.54-.23,5.38-.36v-20.39h-99.65ZM337.3,516.81c0,5.45.29,10.27-.08,15.03-.35,4.47.93,6.02,5.69,5.99,41.3-.22,82.61-.03,123.91-.33,13.02-.09,24.83-4.84,35.01-12.88,16.56-13.08,25.05-30.6,25.31-51.52.49-38.97.31-77.95.39-116.92,0-1.42-.26-2.83-.38-4.1h-21.78v101.97c-2.29.1-4.08.25-5.87.26-14.16.1-28.32.07-42.47.28-10.84.16-17.59,5.59-18.36,16.3-.95,13.09-.62,26.27-.86,39.41-.04,2.07-.21,4.15-.34,6.51h-100.15ZM382.69,196.8c-35.29-47.2-149.81-47.04-184.56.43,5.37,4.67,10.86,9.44,16.57,14.41,20.94-18.63,46.37-28.16,75.37-28.17,29.18-.01,54.55,10.18,76.14,28.33,5.59-5.08,11.08-10.08,16.49-14.99ZM179.91,213.58c-24.63,28.68-33.51,61.92-31.21,98.46,1.87,29.62,11.93,56.19,30.99,78.33,5.24-4.82,9.84-9.16,14.58-13.34,2.57-2.27,2.33-4,.27-6.68-14.1-18.42-21.3-39.41-22.09-62.52-.95-27.65,5.71-53.08,22.64-75.43.68-.9.94-3.22.33-3.84-4.86-4.97-9.97-9.68-15.53-14.98ZM383.32,229.17c1.92,2.72,2.56,3.69,3.25,4.61,21.89,29.35,26.37,62.18,18.83,97.13-3.15,14.61-9.52,27.97-18.75,39.88-.98,1.27-1.78,4.26-1.1,4.98,4.77,5.03,9.94,9.68,15.62,15.05,3.61-5.06,7.71-10.07,11.01-15.55,22.8-37.81,26.25-77.85,12.91-119.53-4.55-14.22-11.87-27.1-21.38-38.68-1.31-1.59-2.51-3.94-5.14-1.55-5.05,4.57-10.14,9.08-15.25,13.65ZM366.62,394.48c-51.07,38.34-101.8,36.68-153.61-.94-3.16,3.44-6.55,7.32-10.15,10.99-4.29,4.38-4.37,4.57.19,8.37,44.08,36.76,105.88,42.3,155.66,13.81,8.34-4.77,16.48-9.96,22.88-18.12-5.14-4.85-10.07-9.5-14.97-14.12ZM328,307.74c-5.33,0-10.61.14-15.88-.06-2.78-.1-4.41.78-6.05,3.15-5.16,7.44-15.03,10.17-22.56,6.68-9.14-4.24-13.16-15.13-9.05-24.52,4.14-9.43,13.83-13.1,23.69-9.17,1.42.57,3.87.84,4.77.04,4.18-3.71,7.97-7.85,11.89-11.82-11.56-11.81-30.76-13.25-46.02-3.9-14.3,8.76-20.81,28.39-15.01,45.23,6.1,17.71,22.98,29.14,40.26,27.25,17.17-1.88,31.85-15.87,33.95-32.89ZM507.49,315.58c.88.26,1.35.52,1.81.52,6.83,0,13.67.22,20.48-.14,4.25-.22,7.37,1.26,10.96,3.43,4.34,2.63,9.68,4.84,14.65,4.98,10.25.3,19.29-7.56,21.87-17.3,2.62-9.92-1.82-20.76-10.78-26.32-8.51-5.28-20.05-4.15-27.96,2.32-1.84,1.5-4.6,2.52-6.98,2.61-7.93.32-15.88.12-24.05.12v29.78ZM73.38,285.89c-7.54,0-14.34-.18-21.12.06-4.5.16-8.3-.47-11.68-3.97-1.84-1.91-4.76-3.12-7.41-3.84-11.01-3.01-22.41,2.2-27.37,12.21-4.99,10.07-2.55,22.12,5.87,28.93,8.98,7.27,21.08,7.04,30.41-.21,1.92-1.49,4.66-2.51,7.1-2.67,6.8-.43,13.64-.31,20.47-.38,2.24-.02,3.8-.49,3.77-3.32-.11-8.64-.04-17.27-.04-26.81ZM304.51,83.72c0-7.62.25-14.76-.08-21.87-.23-5.05.93-9.01,4.28-13.09,7.78-9.49,5.93-23.56-3.42-31.33-9.48-7.88-23.82-7.07-32.05,1.81-8.15,8.81-7.93,21.46.16,31.89,1.51,1.95,2.26,4.92,2.35,7.46.29,8.25.11,16.52.11,25.13h28.64ZM276.16,522.22c0,3.05-.13,5.83.02,8.6.5,8.75.81,16.89-5.2,24.87-5.68,7.54-3.66,16.59,1.72,24.24,4.93,7.01,12.05,9.81,20.47,8.68,8.37-1.12,14.62-5.69,17.78-13.51,3.38-8.36,1.84-16.49-3.8-23.4-2.44-2.99-3.17-5.86-3.05-9.51.23-6.59.06-13.19.06-19.97h-28.01ZM322.94,253.91c2.76-2.51,5.38-5.06,8.17-7.41,3.16-2.67,2.87-4.69-.6-6.86-21.83-13.66-44.77-15.9-68.65-6.41-5.11,2.03-9.68,5.44-15.2,8.62,4.7,4.23,8.43,7.59,12.17,10.95,21.08-13.29,42.6-12.79,64.1,1.11ZM245.65,361.64c2.48,1.37,3.6,1.8,4.51,2.52,20.79,16.38,57.05,17.13,78.38,1.6,4.93-3.59,4.95-3.95.6-8.52-1.38-1.44-2.55-3.25-4.21-4.2-1.37-.78-3.57-1.16-4.96-.61-3.52,1.39-6.65,3.8-10.2,5.09-16.82,6.09-32.93,4.63-48.23-4.97-1.25-.78-3.88-.82-5.05-.01-3.39,2.33-6.35,5.26-10.82,9.11ZM230.57,341.01c2.96-3.12,6.07-6.07,8.73-9.4.76-.95.72-3.24.12-4.46-8.21-16.64-8.3-33.18-.06-49.84.67-1.36.82-3.97-.01-4.9-2.93-3.28-6.4-6.08-9.67-9.06-16.45,19.08-15.93,59.45.89,77.66ZM350.68,341.38c18.35-20.19,15.52-62.98.95-77.42-2.81,2.54-5.89,4.88-8.34,7.76-1.08,1.27-1.72,4.01-1.1,5.46,7.3,17.21,7.58,34.19-.63,51.19-.56,1.16-.43,3.42.36,4.33,2.58,3.01,5.61,5.63,8.77,8.69ZM101.23,345.27c2.46,18.38,8.21,35.19,16.75,51.54,5.77-3.41,11.02-6.57,16.35-9.61,2.74-1.56,2.15-3.32,1.25-5.83-4.24-11.83-8.39-23.7-12.14-35.7-1.03-3.29-2.41-4.4-5.57-3.75-5.34,1.09-10.68,2.15-16.64,3.35ZM444.03,385.52c4.68,2.9,9.43,5.61,13.92,8.7,3.44,2.37,5.71,2.12,7.16-1.98,4.42-12.5,8.95-24.96,13.2-37.52.97-2.86.95-6.05,1.41-9.19-6.29-1.33-11.81-2.44-17.29-3.69-2.95-.67-4.14.44-4.83,3.3-1.71,7.09-3.44,14.2-5.76,21.11-2.15,6.43-5.07,12.6-7.8,19.26ZM237.59,116.85c-17.51,5.16-34.18,10.84-49.32,21.58,4.84,6.04,9.36,11.69,13.06,16.31,13.9-5.55,26.95-10.85,40.08-15.93,2.63-1.02,2.71-2.47,1.99-4.63-1.85-5.49-3.68-10.99-5.81-17.33ZM379.49,155.01c3.85-5.21,8.06-10.91,12.58-17.03-15.13-9.03-30.64-15.58-47.05-20.05-.94-.25-2.9.18-3.09.73-2.16,6.31-4.06,12.71-5.74,18.13,14.97,6.3,28.69,12.07,43.29,18.21ZM117.73,208.21c-8.48,14.81-13.29,30.25-16.13,46.36-.14.81,1.7,2.58,2.89,2.89,4.34,1.13,8.85,1.64,13.19,2.77,4.03,1.05,5.43-.51,6.58-4.28,2.61-8.57,5.77-16.97,8.85-25.39,1.24-3.38,2.86-6.62,4.37-10.09-6.71-4.16-13.02-8.07-19.75-12.25ZM463.49,208.17c-6.51,3.99-11.97,7.14-17.16,10.69-1,.68-1.66,3.18-1.24,4.41,3.99,11.57,8.18,23.08,12.56,34.52.45,1.17,2.6,2.55,3.79,2.41,4.76-.57,9.44-1.81,14.19-2.58,3.48-.56,4.47-2.48,3.58-5.62-2.37-8.29-4.47-16.69-7.32-24.81-2.22-6.34-5.41-12.35-8.4-19.02ZM336.63,468.73c1.7,5.25,3.47,10.26,4.93,15.35.89,3.11,2.56,4.13,5.49,2.89,13.62-5.72,27.23-11.45,40.83-17.22,3.19-1.35,3.11-3.34,1.1-5.85-2.71-3.37-5.44-6.76-7.79-10.38-1.89-2.9-3.54-2.74-6.52-1.4-11.49,5.2-23.16,9.97-34.76,14.93-1.03.44-1.99,1.02-3.28,1.68ZM189.93,466.9c.56.68.8,1.16,1.18,1.43,13.23,9.35,28.52,14.01,43.63,19.04,1,.33,3.3-.53,3.63-1.37,2.27-5.79,4.18-11.72,5.81-16.47-13.69-6.24-26.73-12.25-39.87-18.05-.9-.4-2.96.34-3.66,1.21-3.73,4.63-7.19,9.47-10.72,14.21ZM137.35,175.58c0,11.04,8.29,19.57,19.01,19.58,11.15,0,20.17-8.62,20.1-19.22-.08-11.01-8.6-19.21-19.96-19.21-10.61,0-19.16,8.41-19.15,18.85ZM404.43,175.53c.02,11.21,8.81,19.76,20.16,19.59,10.3-.15,18.87-8.79,18.7-18.86-.17-10.35-9.71-19.57-20.19-19.51-10.35.05-18.68,8.44-18.66,18.78ZM237.35,234.05c11.15-9.38,23.99-14.87,38.18-17.33.76-.13,1.83-1.54,1.86-2.38.16-5.74.09-11.5.09-17.88-20.54,3.04-38.46,9.13-53,23.85,4.53,4.83,8.47,9.04,12.88,13.75ZM356.86,220.44c-15.79-13.54-33.19-21.43-53.42-23.56v19.5c15.1,2.78,28.52,8.18,38.6,16.41,5.29-4.42,9.88-8.24,14.82-12.36ZM357.26,383.47c-3.75-3.28-7.5-6.09-10.65-9.45-2.36-2.51-4.26-2.69-6.77-.65-9.67,7.84-20.92,12.11-32.94,14.76-1.27.28-3.13,1.85-3.19,2.91-.32,5.59-.15,11.2-.15,17.6,20.49-3.02,38.18-9.94,53.7-25.16ZM157.23,411.65c-10.87.03-19.43,8.16-19.49,18.51-.06,9.84,9.55,18.9,20.08,18.93,9.85.03,18.37-8.56,18.4-18.54.03-10.52-8.41-18.93-18.99-18.89ZM423.89,411.67c-10.49-.18-18.93,7.76-19.26,18.11-.32,10.34,7.92,18.93,18.28,19.04,10.82.11,19.37-7.96,19.5-18.42.13-10.37-7.96-18.55-18.53-18.73ZM277.25,398.14c0-1-.14-2.02.02-2.99.82-4.95-1.33-6.47-6.16-7.8-8.06-2.22-15.74-5.92-23.45-9.31-3.66-1.61-7.32-5.9-10.42-5.42-3.36.52-5.94,5.35-9.1,8.02-3.37,2.85-2.81,4.75.47,7.34,11.28,8.88,23.92,14.85,37.76,18.39q10.84,2.77,10.88-8.22ZM290.99,141c10.36-.12,18.26-8.18,18.14-18.51-.11-9.63-9.42-17.98-19.79-17.76-9.74.2-17.86,8.33-17.84,17.84.02,10.38,8.67,18.56,19.49,18.43ZM375.55,363.94c10.91-13.47,17.77-29.25,18.96-47.87h-17.89c-4.94,11.39-9.58,21.93-14.01,32.55-.49,1.17-.34,3.41.45,4.19,3.78,3.72,7.89,7.1,12.49,11.13ZM205.8,239.1c-11.39,14.43-17.44,30.22-19.68,48.64,5.97,0,10.93-.14,15.88.05,3.08.12,4.61-1.11,5.06-4.08,1.57-10.4,6.11-19.56,11.69-28.33.62-.97.76-3.21.12-3.87-4.02-4.14-8.34-7.99-13.05-12.41ZM205.15,316.15h-18.76c.14,2.25.03,4.11.41,5.87,2.86,12.91,7.09,25.26,14.71,36.27,4.7,6.79,4.61,6.85,10.39.71,2.5-2.66,6.66-5.13,7.03-8.07.38-3.03-3.22-6.41-4.57-9.84-3.2-8.15-6.09-16.42-9.21-24.94ZM361.92,252.77c3.66,8.02,7.05,15.04,10.07,22.21,1.69,4.03,1.59,10.15,4.45,11.99,3.32,2.14,8.99.51,13.64.72,3.73.17,5.09-1.22,4.45-5.02-2.32-13.84-7.48-26.49-15.49-37.98-1.18-1.7-2.66-3.19-3.61-4.32-4.87,4.47-9.38,8.61-13.5,12.4ZM308.33,483.64c.02-9.38-8.07-17.6-17.39-17.66-9.97-.07-18.26,7.4-18.35,16.52-.1,10.52,7.65,18.35,18.14,18.34,9.79-.01,17.58-7.63,17.61-17.2ZM470.95,285.67c-8.6.04-15.28,6.84-15.34,15.63-.06,8.78,7.29,16.2,16.12,16.26,8.63.06,15.87-7.21,15.81-15.87-.07-9.4-6.98-16.07-16.58-16.03ZM109.24,285.72c-8.94-.06-15.74,6.39-15.83,15.02-.1,9.32,6.64,16.73,15.36,16.88,8.4.14,15.6-7.25,15.68-16.1.08-8.58-6.82-15.74-15.21-15.8Z"/>
        <path class="cls-1" d="M53.48,250.44c0-16.02,0-31.66,0-47.29,0-24.49-.16-48.99.05-73.48.1-12.17,1.55-24.02,7.9-35.02,10.49-18.17,25.99-29.2,46.66-29.63,44.14-.91,88.3-.3,132.46-.31.8,0,1.6.14,2.66.24v21.63h-99.71c0,11.1,0,21.55,0,32,0,3,.11,6-.03,9-.55,11.83-7.97,19.05-19.81,19.12-15.48.09-30.97.02-47.12.02v103.72h-23.06ZM85.39,106.51c-.04,9.48,7.65,17.29,16.96,17.22,8.82-.06,16.9-7.8,17.04-16.33.17-9.77-7.42-17.69-17.05-17.79-9.98-.11-16.91,6.8-16.95,16.9Z"/>
        <path class="cls-1" d="M527.31,250.49h-21.76v-103.77c-2.46,0-4.21,0-5.96,0-13.49,0-27.01-.49-40.47.16-15.34.74-21.47-10.06-21.63-21.61-.16-11.66-.01-23.32,0-34.97,0-.98-.1-1.95-.17-3.42h-100.34v-22.21c1.77,0,3.55,0,5.34,0,41.14,0,82.29.65,123.41-.23,32.25-.69,60.6,24.27,61.49,58.54,1.08,41.44.46,82.93.55,124.39,0,.95-.27,1.91-.45,3.12ZM478.96,89.65c-10.1.1-16.86,7.24-16.7,17.64.14,9.11,7.5,16.45,16.47,16.42,9.43-.03,17.4-7.9,17.19-16.97-.23-9.85-7.51-17.18-16.96-17.09Z"/>
        <path class="cls-1" d="M143.13,516.97h99.65v20.39c-1.84.13-3.61.35-5.38.36-40,.02-80-.16-119.99.06-36.83.2-61.79-30.02-62.75-59.48-1.24-38.12-.76-76.3-1.02-114.46-.03-3.79,0-7.59,0-11.71h22.44v102.41c2.85,0,4.97,0,7.09,0,13.67-.04,27.33-.2,41-.07,10.34.1,17.32,5.68,18.11,16.06,1,13.26.65,26.61.86,39.93.03,1.96,0,3.93,0,6.52ZM85.24,494.66c-.09,9.54,7.04,17.01,16.34,17.12,9.54.12,17.84-7.73,18.01-17.02.18-9.57-7.72-18.04-16.89-18.11-9.59-.07-17.37,7.95-17.46,18.01Z"/>
        <path class="cls-1" d="M337.3,516.81h100.15c.13-2.36.3-4.43.34-6.51.25-13.14-.08-26.32.86-39.41.77-10.7,7.52-16.14,18.36-16.3,14.15-.21,28.31-.18,42.47-.28,1.79-.01,3.58-.15,5.87-.26v-101.97h21.78c.12,1.27.38,2.69.38,4.1-.08,38.97.1,77.95-.39,116.92-.26,20.92-8.75,38.44-25.31,51.52-10.18,8.04-21.99,12.79-35.01,12.88-41.3.29-82.61.1-123.91.33-4.76.03-6.04-1.52-5.69-5.99.37-4.76.08-9.58.08-15.03ZM496.31,494.51c.08-9.54-7.94-17.86-17.23-17.89-9.54-.03-17.54,7.96-17.53,17.5.01,9.75,7.55,17.64,16.77,17.56,9.64-.09,17.92-7.98,18-17.18Z"/>
        <path class="cls-1" d="M382.69,196.8c-5.41,4.92-10.9,9.91-16.49,14.99-21.59-18.15-46.96-28.34-76.14-28.33-28.99.01-54.43,9.55-75.37,28.17-5.71-4.97-11.2-9.74-16.57-14.41,34.76-47.47,149.27-47.63,184.56-.43Z"/>
        <path class="cls-1" d="M179.91,213.58c5.56,5.3,10.67,10.01,15.53,14.98.61.62.35,2.93-.33,3.84-16.93,22.35-23.59,47.78-22.64,75.43.79,23.12,7.99,44.1,22.09,62.52,2.05,2.68,2.3,4.42-.27,6.68-4.74,4.18-9.34,8.53-14.58,13.34-19.06-22.14-29.12-48.71-30.99-78.33-2.31-36.55,6.57-69.78,31.21-98.46Z"/>
        <path class="cls-1" d="M383.32,229.17c5.1-4.56,10.2-9.08,15.25-13.65,2.63-2.38,3.84-.04,5.14,1.55,9.5,11.57,16.82,24.46,21.38,38.68,13.35,41.68,9.89,81.72-12.91,119.53-3.31,5.48-7.4,10.49-11.01,15.55-5.68-5.37-10.85-10.02-15.62-15.05-.68-.72.12-3.71,1.1-4.98,9.24-11.92,15.6-25.28,18.75-39.88,7.55-34.95,3.07-67.78-18.83-97.13-.69-.93-1.34-1.89-3.25-4.61Z"/>
        <path class="cls-1" d="M366.62,394.48c4.9,4.62,9.83,9.27,14.97,14.12-6.41,8.16-14.55,13.35-22.88,18.12-49.78,28.49-111.57,22.95-155.66-13.81-4.56-3.8-4.49-3.99-.19-8.37,3.6-3.67,6.99-7.56,10.15-10.99,51.81,37.62,102.55,39.27,153.61.94Z"/>
        <path class="cls-1" d="M310.91,268.67c-9.61-5.58-21.92-7.1-33.02-3.27-10.13,3.49-18.21,10.51-22.91,19.12,2.91-6.75,7.64-12.57,13.82-16.36,13.64-8.37,30.44-8.1,42.11.51Z"/>
        <path class="cls-1" d="M323.12,280.4c-2.98-4.87-7.23-8.84-12.19-11.72t-.02-.01c-9.61-5.58-21.92-7.1-33.02-3.27-10.13,3.49-18.21,10.51-22.91,19.12-3.81,8.85-4.48,19.31-1.19,28.87,3.89,11.29,12.15,20.02,22.11,24.38,0,0,.01.01.02.01,5.66,2.47,11.87,3.53,18.13,2.85,12.07-1.31,22.89-8.61,28.99-18.73,8.18-11.63,8.3-28.09.08-41.5ZM283.51,317.53c-8.31-3.85-12.39-13.21-9.97-21.93.06-.17.14-.33.21-.49,4.24-9.14,15.14-13.16,24.52-9.04,9.18,4.02,12.91,13.33,9.45,22.91-.58.47-1.11,1.09-1.65,1.87-5.17,7.44-15.03,10.17-22.56,6.68Z"/>
        <path class="cls-1" d="M275.9,337.77c-13.41-4.85-23.67-17.59-25.26-32.11-.8-7.39.83-14.71,4.34-21.14-3.81,8.85-4.48,19.31-1.19,28.87,3.89,11.29,12.15,20.02,22.11,24.38Z"/>
        <path class="cls-1" d="M507.49,315.58v-29.78c8.17,0,16.12.2,24.05-.12,2.38-.1,5.14-1.11,6.98-2.61,7.92-6.47,19.45-7.61,27.96-2.32,8.96,5.56,13.4,16.41,10.78,26.32-2.58,9.75-11.62,17.61-21.87,17.3-4.97-.15-10.31-2.35-14.65-4.98-3.59-2.18-6.7-3.65-10.96-3.43-6.81.36-13.65.14-20.48.14-.46,0-.92-.26-1.81-.52ZM564.46,301.05c.08-5.3-3.98-9.57-9.27-9.73-5.4-.17-10.34,4.18-10.52,9.26-.18,4.95,4.87,10,9.95,9.94,4.89-.05,9.76-4.74,9.84-9.48Z"/>
        <path class="cls-1" d="M73.38,285.89c0,9.54-.07,18.17.04,26.81.04,2.83-1.53,3.3-3.77,3.32-6.83.07-13.66-.06-20.47.38-2.43.15-5.17,1.17-7.1,2.67-9.33,7.26-21.44,7.48-30.41.21-8.42-6.82-10.86-18.86-5.87-28.93,4.95-10,16.36-15.21,27.37-12.21,2.65.72,5.57,1.93,7.41,3.84,3.37,3.5,7.18,4.13,11.68,3.97,6.79-.24,13.59-.06,21.12-.06ZM25.62,310.12c5.83.12,10.77-4.24,10.76-9.52-.01-4.88-4.76-9.56-9.72-9.57-5.1-.02-9.99,4.73-10.11,9.82-.12,5.08,3.87,9.16,9.07,9.27Z"/>
        <path class="cls-1" d="M304.51,83.72h-28.64c0-8.62.18-16.88-.11-25.13-.09-2.54-.84-5.51-2.35-7.46-8.09-10.43-8.32-23.09-.16-31.89,8.23-8.89,22.57-9.7,32.05-1.81,9.34,7.77,11.2,21.84,3.42,31.33-3.35,4.09-4.52,8.04-4.28,13.09.33,7.11.08,14.25.08,21.87ZM281.2,34.06c.01,6.2,3.48,9.95,9.25,9.99,5.02.04,8.9-4.25,8.98-9.93.06-4.65-3.72-8.34-8.58-8.37-5.86-.03-9.66,3.24-9.65,8.3Z"/>
        <path class="cls-1" d="M276.16,522.22h28.01c0,6.78.16,13.38-.06,19.97-.13,3.65.6,6.52,3.05,9.51,5.64,6.91,7.18,15.03,3.8,23.4-3.16,7.82-9.41,12.38-17.78,13.51-8.42,1.13-15.54-1.67-20.47-8.68-5.38-7.64-7.4-16.7-1.72-24.24,6.01-7.98,5.7-16.12,5.2-24.87-.16-2.77-.02-5.55-.02-8.6ZM299.94,565.53c-.03-5.75-4.13-10.04-9.52-9.95-5.76.09-9.69,4.38-9.57,10.46.1,5.49,4.07,9.42,9.52,9.44,5.47.02,9.6-4.27,9.57-9.94Z"/>
        <path class="cls-1" d="M322.94,253.91c-21.51-13.9-43.02-14.39-64.1-1.11-3.74-3.36-7.47-6.72-12.17-10.95,5.52-3.18,10.08-6.58,15.2-8.62,23.88-9.49,46.82-7.25,68.65,6.41,3.46,2.17,3.75,4.19.6,6.86-2.78,2.35-5.41,4.89-8.17,7.41Z"/>
        <path class="cls-1" d="M245.65,361.64c4.47-3.85,7.44-6.78,10.82-9.11,1.17-.81,3.8-.77,5.05.01,15.3,9.6,31.41,11.06,48.23,4.97,3.55-1.28,6.68-3.7,10.2-5.09,1.4-.55,3.6-.17,4.96.61,1.66.95,2.83,2.76,4.21,4.2,4.35,4.57,4.33,4.93-.6,8.52-21.32,15.54-57.59,14.78-78.38-1.6-.91-.71-2.03-1.15-4.51-2.52Z"/>
        <path class="cls-1" d="M230.57,341.01c-16.82-18.21-17.34-58.58-.89-77.66,3.27,2.98,6.73,5.78,9.67,9.06.83.93.68,3.54.01,4.9-8.25,16.66-8.15,33.2.06,49.84.6,1.22.64,3.51-.12,4.46-2.65,3.33-5.77,6.28-8.73,9.4Z"/>
        <path class="cls-1" d="M350.68,341.38c-3.15-3.06-6.18-5.68-8.77-8.69-.78-.91-.92-3.17-.36-4.33,8.21-17,7.93-33.98.63-51.19-.62-1.45.02-4.19,1.1-5.46,2.44-2.88,5.53-5.21,8.34-7.76,14.57,14.44,17.4,57.23-.95,77.42Z"/>
        <path class="cls-1" d="M101.23,345.27c5.97-1.2,11.31-2.27,16.64-3.35,3.16-.64,4.54.46,5.57,3.75,3.75,11.99,7.89,23.87,12.14,35.7.9,2.51,1.49,4.27-1.25,5.83-5.32,3.04-10.57,6.21-16.35,9.61-8.55-16.35-14.29-33.16-16.75-51.54Z"/>
        <path class="cls-1" d="M444.03,385.52c2.73-6.66,5.65-12.84,7.8-19.26,2.31-6.91,4.05-14.02,5.76-21.11.69-2.87,1.88-3.98,4.83-3.3,5.48,1.25,11,2.36,17.29,3.69-.45,3.14-.44,6.33-1.41,9.19-4.25,12.56-8.78,25.02-13.2,37.52-1.45,4.1-3.71,4.35-7.16,1.98-4.49-3.09-9.24-5.8-13.92-8.7Z"/>
        <path class="cls-1" d="M237.59,116.85c2.12,6.34,3.95,11.84,5.81,17.33.72,2.15.65,3.61-1.99,4.63-13.13,5.08-26.18,10.38-40.08,15.93-3.7-4.62-8.22-10.27-13.06-16.31,15.14-10.74,31.81-16.42,49.32-21.58Z"/>
        <path class="cls-1" d="M379.49,155.01c-14.6-6.14-28.33-11.92-43.29-18.21,1.68-5.41,3.58-11.81,5.74-18.13.19-.56,2.15-.99,3.09-.73,16.41,4.46,31.92,11.01,47.05,20.05-4.52,6.12-8.73,11.82-12.58,17.03Z"/>
        <path class="cls-1" d="M117.73,208.21c6.73,4.18,13.04,8.09,19.75,12.25-1.52,3.47-3.14,6.71-4.37,10.09-3.08,8.42-6.24,16.82-8.85,25.39-1.15,3.77-2.55,5.33-6.58,4.28-4.34-1.13-8.85-1.63-13.19-2.77-1.18-.31-3.03-2.09-2.89-2.89,2.84-16.1,7.65-31.54,16.13-46.36Z"/>
        <path class="cls-1" d="M463.49,208.17c2.99,6.67,6.18,12.67,8.4,19.02,2.85,8.13,4.95,16.52,7.32,24.81.9,3.14-.1,5.05-3.58,5.62-4.75.77-9.43,2.01-14.19,2.58-1.19.14-3.34-1.25-3.79-2.41-4.38-11.43-8.57-22.94-12.56-34.52-.42-1.23.24-3.73,1.24-4.41,5.19-3.55,10.65-6.7,17.16-10.69Z"/>
        <path class="cls-1" d="M336.63,468.73c1.29-.67,2.26-1.25,3.28-1.68,11.6-4.95,23.27-9.73,34.76-14.93,2.97-1.34,4.63-1.5,6.52,1.4,2.35,3.62,5.08,7.01,7.79,10.38,2.01,2.51,2.09,4.49-1.1,5.85-13.6,5.77-27.21,11.5-40.83,17.22-2.93,1.23-4.6.21-5.49-2.89-1.46-5.09-3.22-10.1-4.93-15.35Z"/>
        <path class="cls-1" d="M189.93,466.9c3.53-4.74,7-9.58,10.72-14.21.7-.87,2.76-1.6,3.66-1.21,13.13,5.8,26.18,11.81,39.87,18.05-1.63,4.75-3.54,10.68-5.81,16.47-.33.84-2.63,1.7-3.63,1.37-15.11-5.03-30.4-9.69-43.63-19.04-.38-.27-.63-.74-1.18-1.43Z"/>
        <path class="cls-1" d="M137.35,175.58c0-10.44,8.54-18.85,19.15-18.85,11.35,0,19.88,8.2,19.96,19.21.08,10.6-8.95,19.23-20.1,19.22-10.73,0-19.01-8.54-19.01-19.58ZM157.36,169.75c-5-.11-6.84,3.46-6.43,6.45.31,2.32,3.4,5.08,5.88,6.07,2.86,1.14,6.73-3.1,6.59-6.52-.17-4.12-2.9-5.63-6.04-6.01Z"/>
        <path class="cls-1" d="M404.43,175.53c-.02-10.34,8.32-18.73,18.66-18.78,10.48-.05,20.02,9.17,20.19,19.51.17,10.08-8.4,18.71-18.7,18.86-11.35.16-20.14-8.38-20.16-19.59ZM422.48,169.79c-2.74.17-4.79,2.43-5.05,6.26-.22,3.15,3.98,7.48,6.76,6.32,2.48-1.04,5.17-3.65,5.97-6.14,1.07-3.34-2.65-6.49-7.68-6.44Z"/>
        <path class="cls-1" d="M237.35,234.05c-4.41-4.7-8.35-8.92-12.88-13.75,14.54-14.72,32.46-20.81,53-23.85,0,6.38.08,12.13-.09,17.88-.02.84-1.09,2.25-1.86,2.38-14.19,2.46-27.02,7.96-38.18,17.33Z"/>
        <path class="cls-1" d="M356.86,220.44c-4.94,4.12-9.52,7.94-14.82,12.36-10.09-8.22-23.5-13.63-38.6-16.41v-19.5c20.23,2.12,37.62,10.02,53.42,23.56Z"/>
        <path class="cls-1" d="M357.26,383.47c-15.52,15.22-33.21,22.14-53.7,25.16,0-6.39-.17-12.01.15-17.6.06-1.06,1.93-2.63,3.19-2.91,12.02-2.65,23.27-6.93,32.94-14.76,2.51-2.03,4.41-1.86,6.77.65,3.16,3.36,6.9,6.18,10.65,9.45Z"/>
        <path class="cls-1" d="M157.23,411.65c10.57-.03,19.02,8.37,18.99,18.89-.03,9.99-8.55,18.57-18.4,18.54-10.53-.03-20.14-9.09-20.08-18.93.06-10.35,8.62-18.47,19.49-18.51ZM151.3,429.18c-.05,4.58,2.6,7.67,5.99,7.29,3.64-.41,6.4-2.56,6.46-6.39.05-3.82-2.42-6.22-6.29-6.34-4.06-.13-5.91,2.4-6.16,5.45Z"/>
        <path class="cls-1" d="M423.89,411.67c10.57.18,18.66,8.36,18.53,18.73-.13,10.46-8.68,18.53-19.5,18.42-10.36-.11-18.61-8.7-18.28-19.04.32-10.35,8.77-18.29,19.26-18.11ZM422.26,423.56c-3.04.27-5.09,2.46-4.94,6.41.15,3.99,2.48,6.02,6.4,6.01,4.01,0,6.04-2.55,6.49-6.18.39-3.15-3.37-6.3-7.94-6.25Z"/>
        <path class="cls-1" d="M277.26,398.14q-.03,10.97-10.89,8.22c-13.85-3.54-26.48-9.51-37.76-18.39-3.28-2.58-3.85-4.49-.47-7.34,3.16-2.67,5.74-7.5,9.1-8.02,3.1-.48,6.76,3.8,10.42,5.42,7.7,3.39,15.39,7.1,23.45,9.31,4.83,1.33,6.99,2.86,6.16,7.8-.16.97-.02,1.99-.02,2.99Z"/>
        <path class="cls-1" d="M290.99,141c-10.82.13-19.47-8.05-19.49-18.43-.02-9.51,8.1-17.64,17.84-17.84,10.37-.22,19.68,8.14,19.79,17.76.12,10.33-7.78,18.39-18.14,18.51ZM297.11,124.41c.03-.78.05-1.56.08-2.33-2.13-1.65-4.05-4.2-6.43-4.73-3.2-.71-5.95,1.57-6.09,5.02-.14,3.52,2.07,6.48,5.69,6.12,2.37-.24,4.51-2.65,6.76-4.08Z"/>
        <path class="cls-1" d="M375.55,363.94c-4.6-4.03-8.71-7.41-12.49-11.13-.79-.78-.94-3.01-.45-4.19,4.43-10.62,9.07-21.16,14.01-32.55h17.89c-1.19,18.62-8.04,34.4-18.96,47.87Z"/>
        <path class="cls-1" d="M205.8,239.1c4.72,4.42,9.03,8.27,13.05,12.41.65.66.5,2.9-.12,3.87-5.57,8.77-10.12,17.93-11.69,28.33-.45,2.97-1.98,4.2-5.06,4.08-4.95-.19-9.9-.05-15.88-.05,2.25-18.42,8.29-34.21,19.68-48.64Z"/>
        <path class="cls-1" d="M205.15,316.15c3.12,8.52,6.02,16.79,9.21,24.94,1.34,3.43,4.95,6.81,4.57,9.84-.37,2.94-4.52,5.41-7.03,8.07-5.78,6.14-5.69,6.08-10.39-.71-7.62-11-11.85-23.36-14.71-36.27-.39-1.75-.27-3.62-.41-5.87h18.76Z"/>
        <path class="cls-1" d="M361.92,252.77c4.12-3.78,8.63-7.92,13.5-12.4.95,1.12,2.43,2.62,3.61,4.32,8.01,11.49,13.17,24.14,15.49,37.98.64,3.81-.72,5.19-4.45,5.02-4.64-.21-10.32,1.42-13.64-.72-2.86-1.84-2.75-7.97-4.45-11.99-3.02-7.17-6.41-14.19-10.07-22.21Z"/>
        <path class="cls-1" d="M308.33,483.64c-.02,9.57-7.82,17.19-17.61,17.2-10.49.01-18.24-7.82-18.14-18.34.09-9.12,8.38-16.59,18.35-16.52,9.32.06,17.41,8.28,17.39,17.66ZM289.63,477.43c-2.51.02-5.97,2.76-4.95,5.6.84,2.33,3.38,4.79,5.73,5.66,2.82,1.04,6.38-2.68,6.04-5.72-.36-3.24-1.87-5.71-6.81-5.53Z"/>
        <path class="cls-1" d="M470.95,285.67c9.61-.04,16.51,6.63,16.58,16.03.07,8.66-7.17,15.93-15.81,15.87-8.83-.06-16.18-7.48-16.12-16.26.06-8.79,6.74-15.6,15.34-15.63Z"/>
        <path class="cls-1" d="M109.24,285.72c8.39.06,15.28,7.22,15.21,15.8-.08,8.85-7.28,16.25-15.68,16.1-8.72-.15-15.46-7.56-15.36-16.88.1-8.63,6.89-15.08,15.83-15.02Z"/>
      </g>
    </g>
  </g>
</svg>