<?xml version="1.0" encoding="UTF-8"?>
<svg id="Layer_1" data-name="Layer 1" xmlns="http://www.w3.org/2000/svg" version="1.1" xmlns:xlink="http://www.w3.org/1999/xlink" viewBox="0 0 115.37 351.31">
  <defs>
    <style>
      .cls-1 {
        clip-path: url(#clippath-2);
      }

      .cls-2 {
        clip-path: url(#clippath-6);
      }

      .cls-3 {
        fill: #4e4545;
      }

      .cls-3, .cls-4 {
        stroke-width: 0px;
      }

      .cls-4 {
        fill: none;
      }

      .cls-5 {
        clip-path: url(#clippath-7);
      }

      .cls-6 {
        clip-path: url(#clippath-1);
      }

      .cls-7 {
        clip-path: url(#clippath-4);
      }

      .cls-8 {
        clip-path: url(#clippath);
      }

      .cls-9 {
        clip-path: url(#clippath-3);
      }

      .cls-10 {
        clip-path: url(#clippath-5);
      }
    </style>
    <clipPath id="clippath">
      <polygon class="cls-4" points="5.17 5.13 .11 .08 .11 5.13 5.17 5.13"/>
    </clipPath>
    <clipPath id="clippath-1">
      <polygon class="cls-4" points="5.17 5.13 .11 .08 5.17 .08 5.17 5.13"/>
    </clipPath>
    <clipPath id="clippath-2">
      <polygon class="cls-4" points="110.11 5.13 115.16 .08 110.11 .08 110.11 5.13"/>
    </clipPath>
    <clipPath id="clippath-3">
      <polygon class="cls-4" points="110.11 5.13 115.16 .08 115.16 5.13 110.11 5.13"/>
    </clipPath>
    <clipPath id="clippath-4">
      <polygon class="cls-4" points="110.11 346.16 115.16 351.21 115.16 346.16 110.11 346.16"/>
    </clipPath>
    <clipPath id="clippath-5">
      <polygon class="cls-4" points="110.11 346.16 115.16 351.21 110.11 351.21 110.11 346.16"/>
    </clipPath>
    <clipPath id="clippath-6">
      <polygon class="cls-4" points="5.17 346.16 .11 351.21 5.17 351.21 5.17 346.16"/>
    </clipPath>
    <clipPath id="clippath-7">
      <polygon class="cls-4" points="5.17 346.16 .11 351.21 .11 346.16 5.17 346.16"/>
    </clipPath>
  </defs>
  <rect class="cls-3" x="2.64" y="2.6" width="110" height="346.08"/>
  <g>
    <polygon class="cls-3" points="4.22 342.68 5.17 342.68 5.17 346.16 4.22 346.16 4.22 344.89 1.06 344.89 1.06 345.69 .11 345.69 .11 343.14 1.06 343.14 1.06 343.94 4.22 343.94 4.22 342.68"/>
    <polygon class="cls-3" points="4.22 339.2 5.17 339.2 5.17 342.68 4.22 342.68 4.22 341.41 1.06 341.41 1.06 342.21 .11 342.21 .11 339.66 1.06 339.66 1.06 340.46 4.22 340.46 4.22 339.2"/>
    <polygon class="cls-3" points="4.22 335.72 5.17 335.72 5.17 339.2 4.22 339.2 4.22 337.93 1.06 337.93 1.06 338.73 .11 338.73 .11 336.18 1.06 336.18 1.06 336.98 4.22 336.98 4.22 335.72"/>
    <polygon class="cls-3" points="4.22 332.24 5.17 332.24 5.17 335.72 4.22 335.72 4.22 334.45 1.06 334.45 1.06 335.25 .11 335.25 .11 332.7 1.06 332.7 1.06 333.5 4.22 333.5 4.22 332.24"/>
    <polygon class="cls-3" points="4.22 328.76 5.17 328.76 5.17 332.24 4.22 332.24 4.22 330.97 1.06 330.97 1.06 331.77 .11 331.77 .11 329.22 1.06 329.22 1.06 330.02 4.22 330.02 4.22 328.76"/>
    <polygon class="cls-3" points="4.22 325.28 5.17 325.28 5.17 328.76 4.22 328.76 4.22 327.49 1.06 327.49 1.06 328.29 .11 328.29 .11 325.74 1.06 325.74 1.06 326.54 4.22 326.54 4.22 325.28"/>
    <polygon class="cls-3" points="4.22 321.8 5.17 321.8 5.17 325.28 4.22 325.28 4.22 324.01 1.06 324.01 1.06 324.81 .11 324.81 .11 322.26 1.06 322.26 1.06 323.06 4.22 323.06 4.22 321.8"/>
    <polygon class="cls-3" points="4.22 318.32 5.17 318.32 5.17 321.8 4.22 321.8 4.22 320.53 1.06 320.53 1.06 321.33 .11 321.33 .11 318.78 1.06 318.78 1.06 319.58 4.22 319.58 4.22 318.32"/>
    <polygon class="cls-3" points="4.22 314.84 5.17 314.84 5.17 318.32 4.22 318.32 4.22 317.05 1.06 317.05 1.06 317.85 .11 317.85 .11 315.3 1.06 315.3 1.06 316.1 4.22 316.1 4.22 314.84"/>
    <polygon class="cls-3" points="4.22 311.36 5.17 311.36 5.17 314.84 4.22 314.84 4.22 313.57 1.06 313.57 1.06 314.37 .11 314.37 .11 311.82 1.06 311.82 1.06 312.62 4.22 312.62 4.22 311.36"/>
    <polygon class="cls-3" points="4.22 307.88 5.17 307.88 5.17 311.36 4.22 311.36 4.22 310.09 1.06 310.09 1.06 310.89 .11 310.89 .11 308.35 1.06 308.35 1.06 309.14 4.22 309.14 4.22 307.88"/>
    <polygon class="cls-3" points="4.22 304.4 5.17 304.4 5.17 307.88 4.22 307.88 4.22 306.61 1.06 306.61 1.06 307.41 .11 307.41 .11 304.87 1.06 304.87 1.06 305.66 4.22 305.66 4.22 304.4"/>
    <polygon class="cls-3" points="4.22 300.92 5.17 300.92 5.17 304.4 4.22 304.4 4.22 303.13 1.06 303.13 1.06 303.93 .11 303.93 .11 301.39 1.06 301.39 1.06 302.18 4.22 302.18 4.22 300.92"/>
    <polygon class="cls-3" points="4.22 297.44 5.17 297.44 5.17 300.92 4.22 300.92 4.22 299.65 1.06 299.65 1.06 300.45 .11 300.45 .11 297.91 1.06 297.91 1.06 298.7 4.22 298.7 4.22 297.44"/>
    <polygon class="cls-3" points="4.22 293.96 5.17 293.96 5.17 297.44 4.22 297.44 4.22 296.17 1.06 296.17 1.06 296.97 .11 296.97 .11 294.43 1.06 294.43 1.06 295.22 4.22 295.22 4.22 293.96"/>
    <polygon class="cls-3" points="4.22 290.48 5.17 290.48 5.17 293.96 4.22 293.96 4.22 292.69 1.06 292.69 1.06 293.49 .11 293.49 .11 290.95 1.06 290.95 1.06 291.74 4.22 291.74 4.22 290.48"/>
    <polygon class="cls-3" points="4.22 287 5.17 287 5.17 290.48 4.22 290.48 4.22 289.21 1.06 289.21 1.06 290.01 .11 290.01 .11 287.47 1.06 287.47 1.06 288.26 4.22 288.26 4.22 287"/>
    <polygon class="cls-3" points="4.22 283.52 5.17 283.52 5.17 287 4.22 287 4.22 285.73 1.06 285.73 1.06 286.53 .11 286.53 .11 283.99 1.06 283.99 1.06 284.78 4.22 284.78 4.22 283.52"/>
    <polygon class="cls-3" points="4.22 280.04 5.17 280.04 5.17 283.52 4.22 283.52 4.22 282.25 1.06 282.25 1.06 283.05 .11 283.05 .11 280.51 1.06 280.51 1.06 281.3 4.22 281.3 4.22 280.04"/>
    <polygon class="cls-3" points="4.22 276.56 5.17 276.56 5.17 280.04 4.22 280.04 4.22 278.77 1.06 278.77 1.06 279.57 .11 279.57 .11 277.03 1.06 277.03 1.06 277.82 4.22 277.82 4.22 276.56"/>
    <polygon class="cls-3" points="4.22 273.08 5.17 273.08 5.17 276.56 4.22 276.56 4.22 275.29 1.06 275.29 1.06 276.09 .11 276.09 .11 273.55 1.06 273.55 1.06 274.34 4.22 274.34 4.22 273.08"/>
    <polygon class="cls-3" points="4.22 269.6 5.17 269.6 5.17 273.08 4.22 273.08 4.22 271.81 1.06 271.81 1.06 272.61 .11 272.61 .11 270.07 1.06 270.07 1.06 270.86 4.22 270.86 4.22 269.6"/>
    <polygon class="cls-3" points="4.22 266.12 5.17 266.12 5.17 269.6 4.22 269.6 4.22 268.33 1.06 268.33 1.06 269.13 .11 269.13 .11 266.59 1.06 266.59 1.06 267.38 4.22 267.38 4.22 266.12"/>
    <polygon class="cls-3" points="4.22 262.64 5.17 262.64 5.17 266.12 4.22 266.12 4.22 264.85 1.06 264.85 1.06 265.65 .11 265.65 .11 263.11 1.06 263.11 1.06 263.9 4.22 263.9 4.22 262.64"/>
    <polygon class="cls-3" points="4.22 259.16 5.17 259.16 5.17 262.64 4.22 262.64 4.22 261.37 1.06 261.37 1.06 262.17 .11 262.17 .11 259.63 1.06 259.63 1.06 260.42 4.22 260.42 4.22 259.16"/>
    <polygon class="cls-3" points="4.22 255.68 5.17 255.68 5.17 259.16 4.22 259.16 4.22 257.89 1.06 257.89 1.06 258.69 .11 258.69 .11 256.15 1.06 256.15 1.06 256.94 4.22 256.94 4.22 255.68"/>
    <polygon class="cls-3" points="4.22 252.2 5.17 252.2 5.17 255.68 4.22 255.68 4.22 254.41 1.06 254.41 1.06 255.21 .11 255.21 .11 252.67 1.06 252.67 1.06 253.46 4.22 253.46 4.22 252.2"/>
    <polygon class="cls-3" points="4.22 248.72 5.17 248.72 5.17 252.2 4.22 252.2 4.22 250.93 1.06 250.93 1.06 251.73 .11 251.73 .11 249.19 1.06 249.19 1.06 249.98 4.22 249.98 4.22 248.72"/>
    <polygon class="cls-3" points="4.22 245.24 5.17 245.24 5.17 248.72 4.22 248.72 4.22 247.46 1.06 247.46 1.06 248.25 .11 248.25 .11 245.71 1.06 245.71 1.06 246.5 4.22 246.5 4.22 245.24"/>
    <polygon class="cls-3" points="4.22 241.76 5.17 241.76 5.17 245.24 4.22 245.24 4.22 243.98 1.06 243.98 1.06 244.77 .11 244.77 .11 242.23 1.06 242.23 1.06 243.02 4.22 243.02 4.22 241.76"/>
    <polygon class="cls-3" points="4.22 238.28 5.17 238.28 5.17 241.76 4.22 241.76 4.22 240.5 1.06 240.5 1.06 241.29 .11 241.29 .11 238.75 1.06 238.75 1.06 239.54 4.22 239.54 4.22 238.28"/>
    <polygon class="cls-3" points="4.22 234.8 5.17 234.8 5.17 238.28 4.22 238.28 4.22 237.02 1.06 237.02 1.06 237.81 .11 237.81 .11 235.27 1.06 235.27 1.06 236.06 4.22 236.06 4.22 234.8"/>
    <polygon class="cls-3" points="4.22 231.32 5.17 231.32 5.17 234.8 4.22 234.8 4.22 233.54 1.06 233.54 1.06 234.33 .11 234.33 .11 231.79 1.06 231.79 1.06 232.58 4.22 232.58 4.22 231.32"/>
    <polygon class="cls-3" points="4.22 227.84 5.17 227.84 5.17 231.32 4.22 231.32 4.22 230.06 1.06 230.06 1.06 230.85 .11 230.85 .11 228.31 1.06 228.31 1.06 229.1 4.22 229.1 4.22 227.84"/>
    <polygon class="cls-3" points="4.22 224.36 5.17 224.36 5.17 227.84 4.22 227.84 4.22 226.58 1.06 226.58 1.06 227.37 .11 227.37 .11 224.83 1.06 224.83 1.06 225.62 4.22 225.62 4.22 224.36"/>
    <polygon class="cls-3" points="4.22 220.88 5.17 220.88 5.17 224.36 4.22 224.36 4.22 223.1 1.06 223.1 1.06 223.89 .11 223.89 .11 221.35 1.06 221.35 1.06 222.14 4.22 222.14 4.22 220.88"/>
    <polygon class="cls-3" points="4.22 217.4 5.17 217.4 5.17 220.88 4.22 220.88 4.22 219.62 1.06 219.62 1.06 220.41 .11 220.41 .11 217.87 1.06 217.87 1.06 218.66 4.22 218.66 4.22 217.4"/>
    <polygon class="cls-3" points="4.22 213.92 5.17 213.92 5.17 217.4 4.22 217.4 4.22 216.14 1.06 216.14 1.06 216.93 .11 216.93 .11 214.39 1.06 214.39 1.06 215.18 4.22 215.18 4.22 213.92"/>
    <polygon class="cls-3" points="4.22 210.45 5.17 210.45 5.17 213.92 4.22 213.92 4.22 212.66 1.06 212.66 1.06 213.45 .11 213.45 .11 210.91 1.06 210.91 1.06 211.7 4.22 211.7 4.22 210.45"/>
    <polygon class="cls-3" points="4.22 206.97 5.17 206.97 5.17 210.45 4.22 210.45 4.22 209.18 1.06 209.18 1.06 209.97 .11 209.97 .11 207.43 1.06 207.43 1.06 208.22 4.22 208.22 4.22 206.97"/>
    <polygon class="cls-3" points="4.22 203.49 5.17 203.49 5.17 206.97 4.22 206.97 4.22 205.7 1.06 205.7 1.06 206.49 .11 206.49 .11 203.95 1.06 203.95 1.06 204.74 4.22 204.74 4.22 203.49"/>
    <polygon class="cls-3" points="4.22 200.01 5.17 200.01 5.17 203.49 4.22 203.49 4.22 202.22 1.06 202.22 1.06 203.01 .11 203.01 .11 200.47 1.06 200.47 1.06 201.26 4.22 201.26 4.22 200.01"/>
    <polygon class="cls-3" points="4.22 196.53 5.17 196.53 5.17 200.01 4.22 200.01 4.22 198.74 1.06 198.74 1.06 199.53 .11 199.53 .11 196.99 1.06 196.99 1.06 197.78 4.22 197.78 4.22 196.53"/>
    <polygon class="cls-3" points="4.22 193.05 5.17 193.05 5.17 196.53 4.22 196.53 4.22 195.26 1.06 195.26 1.06 196.05 .11 196.05 .11 193.51 1.06 193.51 1.06 194.3 4.22 194.3 4.22 193.05"/>
    <polygon class="cls-3" points="4.22 189.57 5.17 189.57 5.17 193.05 4.22 193.05 4.22 191.78 1.06 191.78 1.06 192.57 .11 192.57 .11 190.03 1.06 190.03 1.06 190.82 4.22 190.82 4.22 189.57"/>
    <polygon class="cls-3" points="4.22 186.09 5.17 186.09 5.17 189.57 4.22 189.57 4.22 188.3 1.06 188.3 1.06 189.09 .11 189.09 .11 186.55 1.06 186.55 1.06 187.34 4.22 187.34 4.22 186.09"/>
    <polygon class="cls-3" points="4.22 182.61 5.17 182.61 5.17 186.09 4.22 186.09 4.22 184.82 1.06 184.82 1.06 185.61 .11 185.61 .11 183.07 1.06 183.07 1.06 183.86 4.22 183.86 4.22 182.61"/>
    <polygon class="cls-3" points="4.22 179.13 5.17 179.13 5.17 182.61 4.22 182.61 4.22 181.34 1.06 181.34 1.06 182.13 .11 182.13 .11 179.59 1.06 179.59 1.06 180.38 4.22 180.38 4.22 179.13"/>
    <polygon class="cls-3" points="4.22 175.65 5.17 175.65 5.17 179.13 4.22 179.13 4.22 177.86 1.06 177.86 1.06 178.65 .11 178.65 .11 176.11 1.06 176.11 1.06 176.9 4.22 176.9 4.22 175.65"/>
    <polygon class="cls-3" points="4.22 172.17 5.17 172.17 5.17 175.65 4.22 175.65 4.22 174.38 1.06 174.38 1.06 175.17 .11 175.17 .11 172.63 1.06 172.63 1.06 173.42 4.22 173.42 4.22 172.17"/>
    <polygon class="cls-3" points="4.22 168.69 5.17 168.69 5.17 172.17 4.22 172.17 4.22 170.9 1.06 170.9 1.06 171.69 .11 171.69 .11 169.15 1.06 169.15 1.06 169.94 4.22 169.94 4.22 168.69"/>
    <polygon class="cls-3" points="4.22 165.21 5.17 165.21 5.17 168.69 4.22 168.69 4.22 167.42 1.06 167.42 1.06 168.21 .11 168.21 .11 165.67 1.06 165.67 1.06 166.46 4.22 166.46 4.22 165.21"/>
    <polygon class="cls-3" points="4.22 161.73 5.17 161.73 5.17 165.21 4.22 165.21 4.22 163.94 1.06 163.94 1.06 164.73 .11 164.73 .11 162.19 1.06 162.19 1.06 162.98 4.22 162.98 4.22 161.73"/>
    <polygon class="cls-3" points="4.22 158.25 5.17 158.25 5.17 161.73 4.22 161.73 4.22 160.46 1.06 160.46 1.06 161.25 .11 161.25 .11 158.71 1.06 158.71 1.06 159.5 4.22 159.5 4.22 158.25"/>
    <polygon class="cls-3" points="4.22 154.77 5.17 154.77 5.17 158.25 4.22 158.25 4.22 156.98 1.06 156.98 1.06 157.77 .11 157.77 .11 155.23 1.06 155.23 1.06 156.02 4.22 156.02 4.22 154.77"/>
    <polygon class="cls-3" points="4.22 151.29 5.17 151.29 5.17 154.77 4.22 154.77 4.22 153.5 1.06 153.5 1.06 154.29 .11 154.29 .11 151.75 1.06 151.75 1.06 152.54 4.22 152.54 4.22 151.29"/>
    <polygon class="cls-3" points="4.22 147.81 5.17 147.81 5.17 151.29 4.22 151.29 4.22 150.02 1.06 150.02 1.06 150.81 .11 150.81 .11 148.27 1.06 148.27 1.06 149.06 4.22 149.06 4.22 147.81"/>
    <polygon class="cls-3" points="4.22 144.33 5.17 144.33 5.17 147.81 4.22 147.81 4.22 146.54 1.06 146.54 1.06 147.33 .11 147.33 .11 144.79 1.06 144.79 1.06 145.58 4.22 145.58 4.22 144.33"/>
    <polygon class="cls-3" points="4.22 140.85 5.17 140.85 5.17 144.33 4.22 144.33 4.22 143.06 1.06 143.06 1.06 143.85 .11 143.85 .11 141.31 1.06 141.31 1.06 142.11 4.22 142.11 4.22 140.85"/>
    <polygon class="cls-3" points="4.22 137.37 5.17 137.37 5.17 140.85 4.22 140.85 4.22 139.58 1.06 139.58 1.06 140.37 .11 140.37 .11 137.83 1.06 137.83 1.06 138.63 4.22 138.63 4.22 137.37"/>
    <polygon class="cls-3" points="4.22 133.89 5.17 133.89 5.17 137.37 4.22 137.37 4.22 136.1 1.06 136.1 1.06 136.89 .11 136.89 .11 134.35 1.06 134.35 1.06 135.15 4.22 135.15 4.22 133.89"/>
    <polygon class="cls-3" points="4.22 130.41 5.17 130.41 5.17 133.89 4.22 133.89 4.22 132.62 1.06 132.62 1.06 133.41 .11 133.41 .11 130.87 1.06 130.87 1.06 131.67 4.22 131.67 4.22 130.41"/>
    <polygon class="cls-3" points="4.22 126.93 5.17 126.93 5.17 130.41 4.22 130.41 4.22 129.14 1.06 129.14 1.06 129.93 .11 129.93 .11 127.39 1.06 127.39 1.06 128.19 4.22 128.19 4.22 126.93"/>
    <polygon class="cls-3" points="4.22 123.45 5.17 123.45 5.17 126.93 4.22 126.93 4.22 125.66 1.06 125.66 1.06 126.45 .11 126.45 .11 123.91 1.06 123.91 1.06 124.71 4.22 124.71 4.22 123.45"/>
    <polygon class="cls-3" points="4.22 119.97 5.17 119.97 5.17 123.45 4.22 123.45 4.22 122.18 1.06 122.18 1.06 122.97 .11 122.97 .11 120.43 1.06 120.43 1.06 121.23 4.22 121.23 4.22 119.97"/>
    <polygon class="cls-3" points="4.22 116.49 5.17 116.49 5.17 119.97 4.22 119.97 4.22 118.7 1.06 118.7 1.06 119.49 .11 119.49 .11 116.95 1.06 116.95 1.06 117.75 4.22 117.75 4.22 116.49"/>
    <polygon class="cls-3" points="4.22 113.01 5.17 113.01 5.17 116.49 4.22 116.49 4.22 115.22 1.06 115.22 1.06 116.01 .11 116.01 .11 113.47 1.06 113.47 1.06 114.27 4.22 114.27 4.22 113.01"/>
    <polygon class="cls-3" points="4.22 109.53 5.17 109.53 5.17 113.01 4.22 113.01 4.22 111.74 1.06 111.74 1.06 112.53 .11 112.53 .11 109.99 1.06 109.99 1.06 110.79 4.22 110.79 4.22 109.53"/>
    <polygon class="cls-3" points="4.22 106.05 5.17 106.05 5.17 109.53 4.22 109.53 4.22 108.26 1.06 108.26 1.06 109.05 .11 109.05 .11 106.51 1.06 106.51 1.06 107.31 4.22 107.31 4.22 106.05"/>
    <polygon class="cls-3" points="4.22 102.57 5.17 102.57 5.17 106.05 4.22 106.05 4.22 104.78 1.06 104.78 1.06 105.58 .11 105.58 .11 103.03 1.06 103.03 1.06 103.83 4.22 103.83 4.22 102.57"/>
    <polygon class="cls-3" points="4.22 99.09 5.17 99.09 5.17 102.57 4.22 102.57 4.22 101.3 1.06 101.3 1.06 102.1 .11 102.1 .11 99.55 1.06 99.55 1.06 100.35 4.22 100.35 4.22 99.09"/>
    <polygon class="cls-3" points="4.22 95.61 5.17 95.61 5.17 99.09 4.22 99.09 4.22 97.82 1.06 97.82 1.06 98.62 .11 98.62 .11 96.07 1.06 96.07 1.06 96.87 4.22 96.87 4.22 95.61"/>
    <polygon class="cls-3" points="4.22 92.13 5.17 92.13 5.17 95.61 4.22 95.61 4.22 94.34 1.06 94.34 1.06 95.14 .11 95.14 .11 92.59 1.06 92.59 1.06 93.39 4.22 93.39 4.22 92.13"/>
    <polygon class="cls-3" points="4.22 88.65 5.17 88.65 5.17 92.13 4.22 92.13 4.22 90.86 1.06 90.86 1.06 91.66 .11 91.66 .11 89.11 1.06 89.11 1.06 89.91 4.22 89.91 4.22 88.65"/>
    <polygon class="cls-3" points="4.22 85.17 5.17 85.17 5.17 88.65 4.22 88.65 4.22 87.38 1.06 87.38 1.06 88.18 .11 88.18 .11 85.63 1.06 85.63 1.06 86.43 4.22 86.43 4.22 85.17"/>
    <polygon class="cls-3" points="4.22 81.69 5.17 81.69 5.17 85.17 4.22 85.17 4.22 83.9 1.06 83.9 1.06 84.7 .11 84.7 .11 82.15 1.06 82.15 1.06 82.95 4.22 82.95 4.22 81.69"/>
    <polygon class="cls-3" points="4.22 78.21 5.17 78.21 5.17 81.69 4.22 81.69 4.22 80.42 1.06 80.42 1.06 81.22 .11 81.22 .11 78.67 1.06 78.67 1.06 79.47 4.22 79.47 4.22 78.21"/>
    <polygon class="cls-3" points="4.22 74.73 5.17 74.73 5.17 78.21 4.22 78.21 4.22 76.94 1.06 76.94 1.06 77.74 .11 77.74 .11 75.19 1.06 75.19 1.06 75.99 4.22 75.99 4.22 74.73"/>
    <polygon class="cls-3" points="4.22 71.25 5.17 71.25 5.17 74.73 4.22 74.73 4.22 73.46 1.06 73.46 1.06 74.26 .11 74.26 .11 71.71 1.06 71.71 1.06 72.51 4.22 72.51 4.22 71.25"/>
    <polygon class="cls-3" points="4.22 67.77 5.17 67.77 5.17 71.25 4.22 71.25 4.22 69.98 1.06 69.98 1.06 70.78 .11 70.78 .11 68.23 1.06 68.23 1.06 69.03 4.22 69.03 4.22 67.77"/>
    <polygon class="cls-3" points="4.22 64.29 5.17 64.29 5.17 67.77 4.22 67.77 4.22 66.5 1.06 66.5 1.06 67.3 .11 67.3 .11 64.75 1.06 64.75 1.06 65.55 4.22 65.55 4.22 64.29"/>
    <polygon class="cls-3" points="4.22 60.81 5.17 60.81 5.17 64.29 4.22 64.29 4.22 63.02 1.06 63.02 1.06 63.82 .11 63.82 .11 61.27 1.06 61.27 1.06 62.07 4.22 62.07 4.22 60.81"/>
    <polygon class="cls-3" points="4.22 57.33 5.17 57.33 5.17 60.81 4.22 60.81 4.22 59.54 1.06 59.54 1.06 60.34 .11 60.34 .11 57.79 1.06 57.79 1.06 58.59 4.22 58.59 4.22 57.33"/>
    <polygon class="cls-3" points="4.22 53.85 5.17 53.85 5.17 57.33 4.22 57.33 4.22 56.06 1.06 56.06 1.06 56.86 .11 56.86 .11 54.31 1.06 54.31 1.06 55.11 4.22 55.11 4.22 53.85"/>
    <polygon class="cls-3" points="4.22 50.37 5.17 50.37 5.17 53.85 4.22 53.85 4.22 52.58 1.06 52.58 1.06 53.38 .11 53.38 .11 50.83 1.06 50.83 1.06 51.63 4.22 51.63 4.22 50.37"/>
    <polygon class="cls-3" points="4.22 46.89 5.17 46.89 5.17 50.37 4.22 50.37 4.22 49.1 1.06 49.1 1.06 49.9 .11 49.9 .11 47.35 1.06 47.35 1.06 48.15 4.22 48.15 4.22 46.89"/>
    <polygon class="cls-3" points="4.22 43.41 5.17 43.41 5.17 46.89 4.22 46.89 4.22 45.62 1.06 45.62 1.06 46.42 .11 46.42 .11 43.87 1.06 43.87 1.06 44.67 4.22 44.67 4.22 43.41"/>
    <polygon class="cls-3" points="4.22 39.93 5.17 39.93 5.17 43.41 4.22 43.41 4.22 42.14 1.06 42.14 1.06 42.94 .11 42.94 .11 40.39 1.06 40.39 1.06 41.19 4.22 41.19 4.22 39.93"/>
    <polygon class="cls-3" points="4.22 36.45 5.17 36.45 5.17 39.93 4.22 39.93 4.22 38.66 1.06 38.66 1.06 39.46 .11 39.46 .11 36.91 1.06 36.91 1.06 37.71 4.22 37.71 4.22 36.45"/>
    <polygon class="cls-3" points="4.22 32.97 5.17 32.97 5.17 36.45 4.22 36.45 4.22 35.18 1.06 35.18 1.06 35.98 .11 35.98 .11 33.43 1.06 33.43 1.06 34.23 4.22 34.23 4.22 32.97"/>
    <polygon class="cls-3" points="4.22 29.49 5.17 29.49 5.17 32.97 4.22 32.97 4.22 31.7 1.06 31.7 1.06 32.5 .11 32.5 .11 29.95 1.06 29.95 1.06 30.75 4.22 30.75 4.22 29.49"/>
    <polygon class="cls-3" points="4.22 26.01 5.17 26.01 5.17 29.49 4.22 29.49 4.22 28.22 1.06 28.22 1.06 29.02 .11 29.02 .11 26.47 1.06 26.47 1.06 27.27 4.22 27.27 4.22 26.01"/>
    <polygon class="cls-3" points="4.22 22.53 5.17 22.53 5.17 26.01 4.22 26.01 4.22 24.74 1.06 24.74 1.06 25.54 .11 25.54 .11 22.99 1.06 22.99 1.06 23.79 4.22 23.79 4.22 22.53"/>
    <polygon class="cls-3" points="4.22 19.05 5.17 19.05 5.17 22.53 4.22 22.53 4.22 21.26 1.06 21.26 1.06 22.06 .11 22.06 .11 19.51 1.06 19.51 1.06 20.31 4.22 20.31 4.22 19.05"/>
    <polygon class="cls-3" points="4.22 15.57 5.17 15.57 5.17 19.05 4.22 19.05 4.22 17.78 1.06 17.78 1.06 18.58 .11 18.58 .11 16.03 1.06 16.03 1.06 16.83 4.22 16.83 4.22 15.57"/>
    <polygon class="cls-3" points="4.22 12.09 5.17 12.09 5.17 15.57 4.22 15.57 4.22 14.3 1.06 14.3 1.06 15.1 .11 15.1 .11 12.55 1.06 12.55 1.06 13.35 4.22 13.35 4.22 12.09"/>
    <polygon class="cls-3" points="4.22 8.61 5.17 8.61 5.17 12.09 4.22 12.09 4.22 10.82 1.06 10.82 1.06 11.62 .11 11.62 .11 9.07 1.06 9.07 1.06 9.87 4.22 9.87 4.22 8.61"/>
    <polygon class="cls-3" points="4.22 5.13 5.17 5.13 5.17 8.61 4.22 8.61 4.22 7.34 1.06 7.34 1.06 8.14 .11 8.14 .11 5.59 1.06 5.59 1.06 6.39 4.22 6.39 4.22 5.13"/>
    <polygon class="cls-3" points="8.67 4.18 8.67 5.13 5.17 5.13 5.17 4.18 6.44 4.18 6.44 1.02 5.64 1.02 5.64 .08 8.2 .08 8.2 1.02 7.4 1.02 7.4 4.18 8.67 4.18"/>
    <polygon class="cls-3" points="12.16 4.18 12.16 5.13 8.67 5.13 8.67 4.18 9.94 4.18 9.94 1.02 9.14 1.02 9.14 .08 11.7 .08 11.7 1.02 10.9 1.02 10.9 4.18 12.16 4.18"/>
    <polygon class="cls-3" points="15.66 4.18 15.66 5.13 12.16 5.13 12.16 4.18 13.44 4.18 13.44 1.02 12.64 1.02 12.64 .08 15.2 .08 15.2 1.02 14.4 1.02 14.4 4.18 15.66 4.18"/>
    <polygon class="cls-3" points="19.16 4.18 19.16 5.13 15.66 5.13 15.66 4.18 16.94 4.18 16.94 1.02 16.14 1.02 16.14 .08 18.69 .08 18.69 1.02 17.89 1.02 17.89 4.18 19.16 4.18"/>
    <polygon class="cls-3" points="22.66 4.18 22.66 5.13 19.16 5.13 19.16 4.18 20.44 4.18 20.44 1.02 19.63 1.02 19.63 .08 22.19 .08 22.19 1.02 21.39 1.02 21.39 4.18 22.66 4.18"/>
    <polygon class="cls-3" points="26.16 4.18 26.16 5.13 22.66 5.13 22.66 4.18 23.93 4.18 23.93 1.02 23.13 1.02 23.13 .08 25.69 .08 25.69 1.02 24.89 1.02 24.89 4.18 26.16 4.18"/>
    <polygon class="cls-3" points="29.65 4.18 29.65 5.13 26.16 5.13 26.16 4.18 27.43 4.18 27.43 1.02 26.63 1.02 26.63 .08 29.19 .08 29.19 1.02 28.39 1.02 28.39 4.18 29.65 4.18"/>
    <polygon class="cls-3" points="33.15 4.18 33.15 5.13 29.65 5.13 29.65 4.18 30.93 4.18 30.93 1.02 30.13 1.02 30.13 .08 32.69 .08 32.69 1.02 31.89 1.02 31.89 4.18 33.15 4.18"/>
    <polygon class="cls-3" points="36.65 4.18 36.65 5.13 33.15 5.13 33.15 4.18 34.43 4.18 34.43 1.02 33.63 1.02 33.63 .08 36.19 .08 36.19 1.02 35.39 1.02 35.39 4.18 36.65 4.18"/>
    <polygon class="cls-3" points="40.15 4.18 40.15 5.13 36.65 5.13 36.65 4.18 37.93 4.18 37.93 1.02 37.13 1.02 37.13 .08 39.68 .08 39.68 1.02 38.88 1.02 38.88 4.18 40.15 4.18"/>
    <polygon class="cls-3" points="43.65 4.18 43.65 5.13 40.15 5.13 40.15 4.18 41.42 4.18 41.42 1.02 40.62 1.02 40.62 .08 43.18 .08 43.18 1.02 42.38 1.02 42.38 4.18 43.65 4.18"/>
    <polygon class="cls-3" points="47.14 4.18 47.14 5.13 43.65 5.13 43.65 4.18 44.92 4.18 44.92 1.02 44.12 1.02 44.12 .08 46.68 .08 46.68 1.02 45.88 1.02 45.88 4.18 47.14 4.18"/>
    <polygon class="cls-3" points="50.64 4.18 50.64 5.13 47.14 5.13 47.14 4.18 48.42 4.18 48.42 1.02 47.62 1.02 47.62 .08 50.18 .08 50.18 1.02 49.38 1.02 49.38 4.18 50.64 4.18"/>
    <polygon class="cls-3" points="54.14 4.18 54.14 5.13 50.64 5.13 50.64 4.18 51.92 4.18 51.92 1.02 51.12 1.02 51.12 .08 53.68 .08 53.68 1.02 52.88 1.02 52.88 4.18 54.14 4.18"/>
    <polygon class="cls-3" points="57.64 4.18 57.64 5.13 54.14 5.13 54.14 4.18 55.42 4.18 55.42 1.02 54.62 1.02 54.62 .08 57.17 .08 57.17 1.02 56.37 1.02 56.37 4.18 57.64 4.18"/>
    <polygon class="cls-3" points="61.14 4.18 61.14 5.13 57.64 5.13 57.64 4.18 58.91 4.18 58.91 1.02 58.11 1.02 58.11 .08 60.67 .08 60.67 1.02 59.87 1.02 59.87 4.18 61.14 4.18"/>
    <polygon class="cls-3" points="64.63 4.18 64.63 5.13 61.14 5.13 61.14 4.18 62.41 4.18 62.41 1.02 61.61 1.02 61.61 .08 64.17 .08 64.17 1.02 63.37 1.02 63.37 4.18 64.63 4.18"/>
    <polygon class="cls-3" points="68.13 4.18 68.13 5.13 64.63 5.13 64.63 4.18 65.91 4.18 65.91 1.02 65.11 1.02 65.11 .08 67.67 .08 67.67 1.02 66.87 1.02 66.87 4.18 68.13 4.18"/>
    <polygon class="cls-3" points="71.63 4.18 71.63 5.13 68.13 5.13 68.13 4.18 69.41 4.18 69.41 1.02 68.61 1.02 68.61 .08 71.17 .08 71.17 1.02 70.37 1.02 70.37 4.18 71.63 4.18"/>
    <polygon class="cls-3" points="75.13 4.18 75.13 5.13 71.63 5.13 71.63 4.18 72.91 4.18 72.91 1.02 72.11 1.02 72.11 .08 74.66 .08 74.66 1.02 73.86 1.02 73.86 4.18 75.13 4.18"/>
    <polygon class="cls-3" points="78.63 4.18 78.63 5.13 75.13 5.13 75.13 4.18 76.4 4.18 76.4 1.02 75.6 1.02 75.6 .08 78.16 .08 78.16 1.02 77.36 1.02 77.36 4.18 78.63 4.18"/>
    <polygon class="cls-3" points="82.13 4.18 82.13 5.13 78.63 5.13 78.63 4.18 79.9 4.18 79.9 1.02 79.1 1.02 79.1 .08 81.66 .08 81.66 1.02 80.86 1.02 80.86 4.18 82.13 4.18"/>
    <polygon class="cls-3" points="85.62 4.18 85.62 5.13 82.13 5.13 82.13 4.18 83.4 4.18 83.4 1.02 82.6 1.02 82.6 .08 85.16 .08 85.16 1.02 84.36 1.02 84.36 4.18 85.62 4.18"/>
    <polygon class="cls-3" points="89.12 4.18 89.12 5.13 85.62 5.13 85.62 4.18 86.9 4.18 86.9 1.02 86.1 1.02 86.1 .08 88.66 .08 88.66 1.02 87.86 1.02 87.86 4.18 89.12 4.18"/>
    <polygon class="cls-3" points="92.62 4.18 92.62 5.13 89.12 5.13 89.12 4.18 90.4 4.18 90.4 1.02 89.6 1.02 89.6 .08 92.15 .08 92.15 1.02 91.35 1.02 91.35 4.18 92.62 4.18"/>
    <polygon class="cls-3" points="96.12 4.18 96.12 5.13 92.62 5.13 92.62 4.18 93.9 4.18 93.9 1.02 93.09 1.02 93.09 .08 95.65 .08 95.65 1.02 94.85 1.02 94.85 4.18 96.12 4.18"/>
    <polygon class="cls-3" points="99.62 4.18 99.62 5.13 96.12 5.13 96.12 4.18 97.39 4.18 97.39 1.02 96.59 1.02 96.59 .08 99.15 .08 99.15 1.02 98.35 1.02 98.35 4.18 99.62 4.18"/>
    <polygon class="cls-3" points="103.11 4.18 103.11 5.13 99.62 5.13 99.62 4.18 100.89 4.18 100.89 1.02 100.09 1.02 100.09 .08 102.65 .08 102.65 1.02 101.85 1.02 101.85 4.18 103.11 4.18"/>
    <polygon class="cls-3" points="106.61 4.18 106.61 5.13 103.11 5.13 103.11 4.18 104.39 4.18 104.39 1.02 103.59 1.02 103.59 .08 106.15 .08 106.15 1.02 105.35 1.02 105.35 4.18 106.61 4.18"/>
    <polygon class="cls-3" points="110.11 4.18 110.11 5.13 106.61 5.13 106.61 4.18 107.89 4.18 107.89 1.02 107.09 1.02 107.09 .08 109.65 .08 109.65 1.02 108.85 1.02 108.85 4.18 110.11 4.18"/>
    <polygon class="cls-3" points="111.06 8.61 110.11 8.61 110.11 5.13 111.06 5.13 111.06 6.4 114.22 6.4 114.22 5.6 115.16 5.6 115.16 8.15 114.22 8.15 114.22 7.35 111.06 7.35 111.06 8.61"/>
    <polygon class="cls-3" points="111.06 12.09 110.11 12.09 110.11 8.61 111.06 8.61 111.06 9.88 114.22 9.88 114.22 9.08 115.16 9.08 115.16 11.63 114.22 11.63 114.22 10.83 111.06 10.83 111.06 12.09"/>
    <polygon class="cls-3" points="111.06 15.57 110.11 15.57 110.11 12.09 111.06 12.09 111.06 13.36 114.22 13.36 114.22 12.56 115.16 12.56 115.16 15.11 114.22 15.11 114.22 14.31 111.06 14.31 111.06 15.57"/>
    <polygon class="cls-3" points="111.06 19.05 110.11 19.05 110.11 15.57 111.06 15.57 111.06 16.84 114.22 16.84 114.22 16.04 115.16 16.04 115.16 18.59 114.22 18.59 114.22 17.79 111.06 17.79 111.06 19.05"/>
    <polygon class="cls-3" points="111.06 22.53 110.11 22.53 110.11 19.05 111.06 19.05 111.06 20.32 114.22 20.32 114.22 19.52 115.16 19.52 115.16 22.07 114.22 22.07 114.22 21.27 111.06 21.27 111.06 22.53"/>
    <polygon class="cls-3" points="111.06 26.01 110.11 26.01 110.11 22.53 111.06 22.53 111.06 23.8 114.22 23.8 114.22 23 115.16 23 115.16 25.55 114.22 25.55 114.22 24.75 111.06 24.75 111.06 26.01"/>
    <polygon class="cls-3" points="111.06 29.49 110.11 29.49 110.11 26.01 111.06 26.01 111.06 27.28 114.22 27.28 114.22 26.48 115.16 26.48 115.16 29.03 114.22 29.03 114.22 28.23 111.06 28.23 111.06 29.49"/>
    <polygon class="cls-3" points="111.06 32.97 110.11 32.97 110.11 29.49 111.06 29.49 111.06 30.76 114.22 30.76 114.22 29.96 115.16 29.96 115.16 32.51 114.22 32.51 114.22 31.71 111.06 31.71 111.06 32.97"/>
    <polygon class="cls-3" points="111.06 36.45 110.11 36.45 110.11 32.97 111.06 32.97 111.06 34.24 114.22 34.24 114.22 33.44 115.16 33.44 115.16 35.99 114.22 35.99 114.22 35.19 111.06 35.19 111.06 36.45"/>
    <polygon class="cls-3" points="111.06 39.93 110.11 39.93 110.11 36.45 111.06 36.45 111.06 37.72 114.22 37.72 114.22 36.92 115.16 36.92 115.16 39.47 114.22 39.47 114.22 38.67 111.06 38.67 111.06 39.93"/>
    <polygon class="cls-3" points="111.06 43.41 110.11 43.41 110.11 39.93 111.06 39.93 111.06 41.2 114.22 41.2 114.22 40.4 115.16 40.4 115.16 42.95 114.22 42.95 114.22 42.15 111.06 42.15 111.06 43.41"/>
    <polygon class="cls-3" points="111.06 46.89 110.11 46.89 110.11 43.41 111.06 43.41 111.06 44.68 114.22 44.68 114.22 43.88 115.16 43.88 115.16 46.43 114.22 46.43 114.22 45.63 111.06 45.63 111.06 46.89"/>
    <polygon class="cls-3" points="111.06 50.37 110.11 50.37 110.11 46.89 111.06 46.89 111.06 48.16 114.22 48.16 114.22 47.36 115.16 47.36 115.16 49.91 114.22 49.91 114.22 49.11 111.06 49.11 111.06 50.37"/>
    <polygon class="cls-3" points="111.06 53.85 110.11 53.85 110.11 50.37 111.06 50.37 111.06 51.64 114.22 51.64 114.22 50.84 115.16 50.84 115.16 53.39 114.22 53.39 114.22 52.59 111.06 52.59 111.06 53.85"/>
    <polygon class="cls-3" points="111.06 57.33 110.11 57.33 110.11 53.85 111.06 53.85 111.06 55.12 114.22 55.12 114.22 54.32 115.16 54.32 115.16 56.87 114.22 56.87 114.22 56.07 111.06 56.07 111.06 57.33"/>
    <polygon class="cls-3" points="111.06 60.81 110.11 60.81 110.11 57.33 111.06 57.33 111.06 58.6 114.22 58.6 114.22 57.8 115.16 57.8 115.16 60.35 114.22 60.35 114.22 59.55 111.06 59.55 111.06 60.81"/>
    <polygon class="cls-3" points="111.06 64.29 110.11 64.29 110.11 60.81 111.06 60.81 111.06 62.08 114.22 62.08 114.22 61.28 115.16 61.28 115.16 63.83 114.22 63.83 114.22 63.03 111.06 63.03 111.06 64.29"/>
    <polygon class="cls-3" points="111.06 67.77 110.11 67.77 110.11 64.29 111.06 64.29 111.06 65.56 114.22 65.56 114.22 64.76 115.16 64.76 115.16 67.31 114.22 67.31 114.22 66.51 111.06 66.51 111.06 67.77"/>
    <polygon class="cls-3" points="111.06 71.25 110.11 71.25 110.11 67.77 111.06 67.77 111.06 69.04 114.22 69.04 114.22 68.24 115.16 68.24 115.16 70.79 114.22 70.79 114.22 69.99 111.06 69.99 111.06 71.25"/>
    <polygon class="cls-3" points="111.06 74.73 110.11 74.73 110.11 71.25 111.06 71.25 111.06 72.52 114.22 72.52 114.22 71.72 115.16 71.72 115.16 74.27 114.22 74.27 114.22 73.47 111.06 73.47 111.06 74.73"/>
    <polygon class="cls-3" points="111.06 78.21 110.11 78.21 110.11 74.73 111.06 74.73 111.06 76 114.22 76 114.22 75.2 115.16 75.2 115.16 77.75 114.22 77.75 114.22 76.95 111.06 76.95 111.06 78.21"/>
    <polygon class="cls-3" points="111.06 81.69 110.11 81.69 110.11 78.21 111.06 78.21 111.06 79.48 114.22 79.48 114.22 78.68 115.16 78.68 115.16 81.23 114.22 81.23 114.22 80.43 111.06 80.43 111.06 81.69"/>
    <polygon class="cls-3" points="111.06 85.17 110.11 85.17 110.11 81.69 111.06 81.69 111.06 82.96 114.22 82.96 114.22 82.16 115.16 82.16 115.16 84.71 114.22 84.71 114.22 83.91 111.06 83.91 111.06 85.17"/>
    <polygon class="cls-3" points="111.06 88.65 110.11 88.65 110.11 85.17 111.06 85.17 111.06 86.44 114.22 86.44 114.22 85.64 115.16 85.64 115.16 88.19 114.22 88.19 114.22 87.39 111.06 87.39 111.06 88.65"/>
    <polygon class="cls-3" points="111.06 92.13 110.11 92.13 110.11 88.65 111.06 88.65 111.06 89.92 114.22 89.92 114.22 89.12 115.16 89.12 115.16 91.67 114.22 91.67 114.22 90.87 111.06 90.87 111.06 92.13"/>
    <polygon class="cls-3" points="111.06 95.61 110.11 95.61 110.11 92.13 111.06 92.13 111.06 93.4 114.22 93.4 114.22 92.6 115.16 92.6 115.16 95.15 114.22 95.15 114.22 94.35 111.06 94.35 111.06 95.61"/>
    <polygon class="cls-3" points="111.06 99.09 110.11 99.09 110.11 95.61 111.06 95.61 111.06 96.88 114.22 96.88 114.22 96.08 115.16 96.08 115.16 98.63 114.22 98.63 114.22 97.83 111.06 97.83 111.06 99.09"/>
    <polygon class="cls-3" points="111.06 102.57 110.11 102.57 110.11 99.09 111.06 99.09 111.06 100.36 114.22 100.36 114.22 99.56 115.16 99.56 115.16 102.11 114.22 102.11 114.22 101.31 111.06 101.31 111.06 102.57"/>
    <polygon class="cls-3" points="111.06 106.05 110.11 106.05 110.11 102.57 111.06 102.57 111.06 103.84 114.22 103.84 114.22 103.04 115.16 103.04 115.16 105.59 114.22 105.59 114.22 104.79 111.06 104.79 111.06 106.05"/>
    <polygon class="cls-3" points="111.06 109.53 110.11 109.53 110.11 106.05 111.06 106.05 111.06 107.32 114.22 107.32 114.22 106.52 115.16 106.52 115.16 109.07 114.22 109.07 114.22 108.27 111.06 108.27 111.06 109.53"/>
    <polygon class="cls-3" points="111.06 113.01 110.11 113.01 110.11 109.53 111.06 109.53 111.06 110.8 114.22 110.8 114.22 110 115.16 110 115.16 112.55 114.22 112.55 114.22 111.75 111.06 111.75 111.06 113.01"/>
    <polygon class="cls-3" points="111.06 116.49 110.11 116.49 110.11 113.01 111.06 113.01 111.06 114.28 114.22 114.28 114.22 113.48 115.16 113.48 115.16 116.02 114.22 116.02 114.22 115.23 111.06 115.23 111.06 116.49"/>
    <polygon class="cls-3" points="111.06 119.97 110.11 119.97 110.11 116.49 111.06 116.49 111.06 117.76 114.22 117.76 114.22 116.96 115.16 116.96 115.16 119.5 114.22 119.5 114.22 118.71 111.06 118.71 111.06 119.97"/>
    <polygon class="cls-3" points="111.06 123.45 110.11 123.45 110.11 119.97 111.06 119.97 111.06 121.24 114.22 121.24 114.22 120.44 115.16 120.44 115.16 122.98 114.22 122.98 114.22 122.19 111.06 122.19 111.06 123.45"/>
    <polygon class="cls-3" points="111.06 126.93 110.11 126.93 110.11 123.45 111.06 123.45 111.06 124.72 114.22 124.72 114.22 123.92 115.16 123.92 115.16 126.46 114.22 126.46 114.22 125.67 111.06 125.67 111.06 126.93"/>
    <polygon class="cls-3" points="111.06 130.41 110.11 130.41 110.11 126.93 111.06 126.93 111.06 128.2 114.22 128.2 114.22 127.4 115.16 127.4 115.16 129.94 114.22 129.94 114.22 129.15 111.06 129.15 111.06 130.41"/>
    <polygon class="cls-3" points="111.06 133.89 110.11 133.89 110.11 130.41 111.06 130.41 111.06 131.68 114.22 131.68 114.22 130.88 115.16 130.88 115.16 133.42 114.22 133.42 114.22 132.63 111.06 132.63 111.06 133.89"/>
    <polygon class="cls-3" points="111.06 137.37 110.11 137.37 110.11 133.89 111.06 133.89 111.06 135.16 114.22 135.16 114.22 134.36 115.16 134.36 115.16 136.9 114.22 136.9 114.22 136.11 111.06 136.11 111.06 137.37"/>
    <polygon class="cls-3" points="111.06 140.85 110.11 140.85 110.11 137.37 111.06 137.37 111.06 138.64 114.22 138.64 114.22 137.84 115.16 137.84 115.16 140.38 114.22 140.38 114.22 139.59 111.06 139.59 111.06 140.85"/>
    <polygon class="cls-3" points="111.06 144.33 110.11 144.33 110.11 140.85 111.06 140.85 111.06 142.12 114.22 142.12 114.22 141.32 115.16 141.32 115.16 143.86 114.22 143.86 114.22 143.07 111.06 143.07 111.06 144.33"/>
    <polygon class="cls-3" points="111.06 147.81 110.11 147.81 110.11 144.33 111.06 144.33 111.06 145.6 114.22 145.6 114.22 144.8 115.16 144.8 115.16 147.34 114.22 147.34 114.22 146.55 111.06 146.55 111.06 147.81"/>
    <polygon class="cls-3" points="111.06 151.29 110.11 151.29 110.11 147.81 111.06 147.81 111.06 149.08 114.22 149.08 114.22 148.28 115.16 148.28 115.16 150.82 114.22 150.82 114.22 150.03 111.06 150.03 111.06 151.29"/>
    <polygon class="cls-3" points="111.06 154.77 110.11 154.77 110.11 151.29 111.06 151.29 111.06 152.56 114.22 152.56 114.22 151.76 115.16 151.76 115.16 154.3 114.22 154.3 114.22 153.51 111.06 153.51 111.06 154.77"/>
    <polygon class="cls-3" points="111.06 158.25 110.11 158.25 110.11 154.77 111.06 154.77 111.06 156.04 114.22 156.04 114.22 155.24 115.16 155.24 115.16 157.78 114.22 157.78 114.22 156.99 111.06 156.99 111.06 158.25"/>
    <polygon class="cls-3" points="111.06 161.73 110.11 161.73 110.11 158.25 111.06 158.25 111.06 159.52 114.22 159.52 114.22 158.72 115.16 158.72 115.16 161.26 114.22 161.26 114.22 160.47 111.06 160.47 111.06 161.73"/>
    <polygon class="cls-3" points="111.06 165.21 110.11 165.21 110.11 161.73 111.06 161.73 111.06 163 114.22 163 114.22 162.2 115.16 162.2 115.16 164.74 114.22 164.74 114.22 163.95 111.06 163.95 111.06 165.21"/>
    <polygon class="cls-3" points="111.06 168.69 110.11 168.69 110.11 165.21 111.06 165.21 111.06 166.48 114.22 166.48 114.22 165.68 115.16 165.68 115.16 168.22 114.22 168.22 114.22 167.43 111.06 167.43 111.06 168.69"/>
    <polygon class="cls-3" points="111.06 172.17 110.11 172.17 110.11 168.69 111.06 168.69 111.06 169.96 114.22 169.96 114.22 169.16 115.16 169.16 115.16 171.7 114.22 171.7 114.22 170.91 111.06 170.91 111.06 172.17"/>
    <polygon class="cls-3" points="111.06 175.65 110.11 175.65 110.11 172.17 111.06 172.17 111.06 173.44 114.22 173.44 114.22 172.64 115.16 172.64 115.16 175.18 114.22 175.18 114.22 174.39 111.06 174.39 111.06 175.65"/>
    <polygon class="cls-3" points="111.06 179.13 110.11 179.13 110.11 175.65 111.06 175.65 111.06 176.92 114.22 176.92 114.22 176.12 115.16 176.12 115.16 178.66 114.22 178.66 114.22 177.87 111.06 177.87 111.06 179.13"/>
    <polygon class="cls-3" points="111.06 182.61 110.11 182.61 110.11 179.13 111.06 179.13 111.06 180.39 114.22 180.39 114.22 179.6 115.16 179.6 115.16 182.14 114.22 182.14 114.22 181.35 111.06 181.35 111.06 182.61"/>
    <polygon class="cls-3" points="111.06 186.09 110.11 186.09 110.11 182.61 111.06 182.61 111.06 183.87 114.22 183.87 114.22 183.08 115.16 183.08 115.16 185.62 114.22 185.62 114.22 184.83 111.06 184.83 111.06 186.09"/>
    <polygon class="cls-3" points="111.06 189.57 110.11 189.57 110.11 186.09 111.06 186.09 111.06 187.35 114.22 187.35 114.22 186.56 115.16 186.56 115.16 189.1 114.22 189.1 114.22 188.31 111.06 188.31 111.06 189.57"/>
    <polygon class="cls-3" points="111.06 193.05 110.11 193.05 110.11 189.57 111.06 189.57 111.06 190.83 114.22 190.83 114.22 190.04 115.16 190.04 115.16 192.58 114.22 192.58 114.22 191.79 111.06 191.79 111.06 193.05"/>
    <polygon class="cls-3" points="111.06 196.53 110.11 196.53 110.11 193.05 111.06 193.05 111.06 194.31 114.22 194.31 114.22 193.52 115.16 193.52 115.16 196.06 114.22 196.06 114.22 195.27 111.06 195.27 111.06 196.53"/>
    <polygon class="cls-3" points="111.06 200.01 110.11 200.01 110.11 196.53 111.06 196.53 111.06 197.79 114.22 197.79 114.22 197 115.16 197 115.16 199.54 114.22 199.54 114.22 198.75 111.06 198.75 111.06 200.01"/>
    <polygon class="cls-3" points="111.06 203.49 110.11 203.49 110.11 200.01 111.06 200.01 111.06 201.27 114.22 201.27 114.22 200.48 115.16 200.48 115.16 203.02 114.22 203.02 114.22 202.23 111.06 202.23 111.06 203.49"/>
    <polygon class="cls-3" points="111.06 206.97 110.11 206.97 110.11 203.49 111.06 203.49 111.06 204.75 114.22 204.75 114.22 203.96 115.16 203.96 115.16 206.5 114.22 206.5 114.22 205.71 111.06 205.71 111.06 206.97"/>
    <polygon class="cls-3" points="111.06 210.45 110.11 210.45 110.11 206.97 111.06 206.97 111.06 208.23 114.22 208.23 114.22 207.44 115.16 207.44 115.16 209.98 114.22 209.98 114.22 209.19 111.06 209.19 111.06 210.45"/>
    <polygon class="cls-3" points="111.06 213.92 110.11 213.92 110.11 210.45 111.06 210.45 111.06 211.71 114.22 211.71 114.22 210.92 115.16 210.92 115.16 213.46 114.22 213.46 114.22 212.67 111.06 212.67 111.06 213.92"/>
    <polygon class="cls-3" points="111.06 217.4 110.11 217.4 110.11 213.92 111.06 213.92 111.06 215.19 114.22 215.19 114.22 214.4 115.16 214.4 115.16 216.94 114.22 216.94 114.22 216.15 111.06 216.15 111.06 217.4"/>
    <polygon class="cls-3" points="111.06 220.88 110.11 220.88 110.11 217.4 111.06 217.4 111.06 218.67 114.22 218.67 114.22 217.88 115.16 217.88 115.16 220.42 114.22 220.42 114.22 219.63 111.06 219.63 111.06 220.88"/>
    <polygon class="cls-3" points="111.06 224.36 110.11 224.36 110.11 220.88 111.06 220.88 111.06 222.15 114.22 222.15 114.22 221.36 115.16 221.36 115.16 223.9 114.22 223.9 114.22 223.11 111.06 223.11 111.06 224.36"/>
    <polygon class="cls-3" points="111.06 227.84 110.11 227.84 110.11 224.36 111.06 224.36 111.06 225.63 114.22 225.63 114.22 224.84 115.16 224.84 115.16 227.38 114.22 227.38 114.22 226.59 111.06 226.59 111.06 227.84"/>
    <polygon class="cls-3" points="111.06 231.32 110.11 231.32 110.11 227.84 111.06 227.84 111.06 229.11 114.22 229.11 114.22 228.32 115.16 228.32 115.16 230.86 114.22 230.86 114.22 230.07 111.06 230.07 111.06 231.32"/>
    <polygon class="cls-3" points="111.06 234.8 110.11 234.8 110.11 231.32 111.06 231.32 111.06 232.59 114.22 232.59 114.22 231.8 115.16 231.8 115.16 234.34 114.22 234.34 114.22 233.55 111.06 233.55 111.06 234.8"/>
    <polygon class="cls-3" points="111.06 238.28 110.11 238.28 110.11 234.8 111.06 234.8 111.06 236.07 114.22 236.07 114.22 235.28 115.16 235.28 115.16 237.82 114.22 237.82 114.22 237.03 111.06 237.03 111.06 238.28"/>
    <polygon class="cls-3" points="111.06 241.76 110.11 241.76 110.11 238.28 111.06 238.28 111.06 239.55 114.22 239.55 114.22 238.76 115.16 238.76 115.16 241.3 114.22 241.3 114.22 240.51 111.06 240.51 111.06 241.76"/>
    <polygon class="cls-3" points="111.06 245.24 110.11 245.24 110.11 241.76 111.06 241.76 111.06 243.03 114.22 243.03 114.22 242.24 115.16 242.24 115.16 244.78 114.22 244.78 114.22 243.99 111.06 243.99 111.06 245.24"/>
    <polygon class="cls-3" points="111.06 248.72 110.11 248.72 110.11 245.24 111.06 245.24 111.06 246.51 114.22 246.51 114.22 245.72 115.16 245.72 115.16 248.26 114.22 248.26 114.22 247.47 111.06 247.47 111.06 248.72"/>
    <polygon class="cls-3" points="111.06 252.2 110.11 252.2 110.11 248.72 111.06 248.72 111.06 249.99 114.22 249.99 114.22 249.2 115.16 249.2 115.16 251.74 114.22 251.74 114.22 250.95 111.06 250.95 111.06 252.2"/>
    <polygon class="cls-3" points="111.06 255.68 110.11 255.68 110.11 252.2 111.06 252.2 111.06 253.47 114.22 253.47 114.22 252.68 115.16 252.68 115.16 255.22 114.22 255.22 114.22 254.43 111.06 254.43 111.06 255.68"/>
    <polygon class="cls-3" points="111.06 259.16 110.11 259.16 110.11 255.68 111.06 255.68 111.06 256.95 114.22 256.95 114.22 256.16 115.16 256.16 115.16 258.7 114.22 258.7 114.22 257.91 111.06 257.91 111.06 259.16"/>
    <polygon class="cls-3" points="111.06 262.64 110.11 262.64 110.11 259.16 111.06 259.16 111.06 260.43 114.22 260.43 114.22 259.64 115.16 259.64 115.16 262.18 114.22 262.18 114.22 261.39 111.06 261.39 111.06 262.64"/>
    <polygon class="cls-3" points="111.06 266.12 110.11 266.12 110.11 262.64 111.06 262.64 111.06 263.91 114.22 263.91 114.22 263.12 115.16 263.12 115.16 265.66 114.22 265.66 114.22 264.87 111.06 264.87 111.06 266.12"/>
    <polygon class="cls-3" points="111.06 269.6 110.11 269.6 110.11 266.12 111.06 266.12 111.06 267.39 114.22 267.39 114.22 266.6 115.16 266.6 115.16 269.14 114.22 269.14 114.22 268.35 111.06 268.35 111.06 269.6"/>
    <polygon class="cls-3" points="111.06 273.08 110.11 273.08 110.11 269.6 111.06 269.6 111.06 270.87 114.22 270.87 114.22 270.08 115.16 270.08 115.16 272.62 114.22 272.62 114.22 271.83 111.06 271.83 111.06 273.08"/>
    <polygon class="cls-3" points="111.06 276.56 110.11 276.56 110.11 273.08 111.06 273.08 111.06 274.35 114.22 274.35 114.22 273.56 115.16 273.56 115.16 276.1 114.22 276.1 114.22 275.31 111.06 275.31 111.06 276.56"/>
    <polygon class="cls-3" points="111.06 280.04 110.11 280.04 110.11 276.56 111.06 276.56 111.06 277.83 114.22 277.83 114.22 277.04 115.16 277.04 115.16 279.58 114.22 279.58 114.22 278.79 111.06 278.79 111.06 280.04"/>
    <polygon class="cls-3" points="111.06 283.52 110.11 283.52 110.11 280.04 111.06 280.04 111.06 281.31 114.22 281.31 114.22 280.52 115.16 280.52 115.16 283.06 114.22 283.06 114.22 282.27 111.06 282.27 111.06 283.52"/>
    <polygon class="cls-3" points="111.06 287 110.11 287 110.11 283.52 111.06 283.52 111.06 284.79 114.22 284.79 114.22 284 115.16 284 115.16 286.54 114.22 286.54 114.22 285.74 111.06 285.74 111.06 287"/>
    <polygon class="cls-3" points="111.06 290.48 110.11 290.48 110.11 287 111.06 287 111.06 288.27 114.22 288.27 114.22 287.48 115.16 287.48 115.16 290.02 114.22 290.02 114.22 289.22 111.06 289.22 111.06 290.48"/>
    <polygon class="cls-3" points="111.06 293.96 110.11 293.96 110.11 290.48 111.06 290.48 111.06 291.75 114.22 291.75 114.22 290.96 115.16 290.96 115.16 293.5 114.22 293.5 114.22 292.7 111.06 292.7 111.06 293.96"/>
    <polygon class="cls-3" points="111.06 297.44 110.11 297.44 110.11 293.96 111.06 293.96 111.06 295.23 114.22 295.23 114.22 294.44 115.16 294.44 115.16 296.98 114.22 296.98 114.22 296.18 111.06 296.18 111.06 297.44"/>
    <polygon class="cls-3" points="111.06 300.92 110.11 300.92 110.11 297.44 111.06 297.44 111.06 298.71 114.22 298.71 114.22 297.92 115.16 297.92 115.16 300.46 114.22 300.46 114.22 299.66 111.06 299.66 111.06 300.92"/>
    <polygon class="cls-3" points="111.06 304.4 110.11 304.4 110.11 300.92 111.06 300.92 111.06 302.19 114.22 302.19 114.22 301.4 115.16 301.4 115.16 303.94 114.22 303.94 114.22 303.14 111.06 303.14 111.06 304.4"/>
    <polygon class="cls-3" points="111.06 307.88 110.11 307.88 110.11 304.4 111.06 304.4 111.06 305.67 114.22 305.67 114.22 304.88 115.16 304.88 115.16 307.42 114.22 307.42 114.22 306.62 111.06 306.62 111.06 307.88"/>
    <polygon class="cls-3" points="111.06 311.36 110.11 311.36 110.11 307.88 111.06 307.88 111.06 309.15 114.22 309.15 114.22 308.36 115.16 308.36 115.16 310.9 114.22 310.9 114.22 310.1 111.06 310.1 111.06 311.36"/>
    <polygon class="cls-3" points="111.06 314.84 110.11 314.84 110.11 311.36 111.06 311.36 111.06 312.63 114.22 312.63 114.22 311.84 115.16 311.84 115.16 314.38 114.22 314.38 114.22 313.58 111.06 313.58 111.06 314.84"/>
    <polygon class="cls-3" points="111.06 318.32 110.11 318.32 110.11 314.84 111.06 314.84 111.06 316.11 114.22 316.11 114.22 315.32 115.16 315.32 115.16 317.86 114.22 317.86 114.22 317.06 111.06 317.06 111.06 318.32"/>
    <polygon class="cls-3" points="111.06 321.8 110.11 321.8 110.11 318.32 111.06 318.32 111.06 319.59 114.22 319.59 114.22 318.8 115.16 318.8 115.16 321.34 114.22 321.34 114.22 320.54 111.06 320.54 111.06 321.8"/>
    <polygon class="cls-3" points="111.06 325.28 110.11 325.28 110.11 321.8 111.06 321.8 111.06 323.07 114.22 323.07 114.22 322.27 115.16 322.27 115.16 324.82 114.22 324.82 114.22 324.02 111.06 324.02 111.06 325.28"/>
    <polygon class="cls-3" points="111.06 328.76 110.11 328.76 110.11 325.28 111.06 325.28 111.06 326.55 114.22 326.55 114.22 325.75 115.16 325.75 115.16 328.3 114.22 328.3 114.22 327.5 111.06 327.5 111.06 328.76"/>
    <polygon class="cls-3" points="111.06 332.24 110.11 332.24 110.11 328.76 111.06 328.76 111.06 330.03 114.22 330.03 114.22 329.23 115.16 329.23 115.16 331.78 114.22 331.78 114.22 330.98 111.06 330.98 111.06 332.24"/>
    <polygon class="cls-3" points="111.06 335.72 110.11 335.72 110.11 332.24 111.06 332.24 111.06 333.51 114.22 333.51 114.22 332.71 115.16 332.71 115.16 335.26 114.22 335.26 114.22 334.46 111.06 334.46 111.06 335.72"/>
    <polygon class="cls-3" points="111.06 339.2 110.11 339.2 110.11 335.72 111.06 335.72 111.06 336.99 114.22 336.99 114.22 336.19 115.16 336.19 115.16 338.74 114.22 338.74 114.22 337.94 111.06 337.94 111.06 339.2"/>
    <polygon class="cls-3" points="111.06 342.68 110.11 342.68 110.11 339.2 111.06 339.2 111.06 340.47 114.22 340.47 114.22 339.67 115.16 339.67 115.16 342.22 114.22 342.22 114.22 341.42 111.06 341.42 111.06 342.68"/>
    <polygon class="cls-3" points="111.06 346.16 110.11 346.16 110.11 342.68 111.06 342.68 111.06 343.95 114.22 343.95 114.22 343.15 115.16 343.15 115.16 345.7 114.22 345.7 114.22 344.9 111.06 344.9 111.06 346.16"/>
    <polygon class="cls-3" points="106.61 347.11 106.61 346.16 110.11 346.16 110.11 347.11 108.83 347.11 108.83 350.27 109.63 350.27 109.63 351.21 107.08 351.21 107.08 350.27 107.88 350.27 107.88 347.11 106.61 347.11"/>
    <polygon class="cls-3" points="103.11 347.11 103.11 346.16 106.61 346.16 106.61 347.11 105.34 347.11 105.34 350.27 106.14 350.27 106.14 351.21 103.58 351.21 103.58 350.27 104.38 350.27 104.38 347.11 103.11 347.11"/>
    <polygon class="cls-3" points="99.62 347.11 99.62 346.16 103.11 346.16 103.11 347.11 101.84 347.11 101.84 350.27 102.64 350.27 102.64 351.21 100.08 351.21 100.08 350.27 100.88 350.27 100.88 347.11 99.62 347.11"/>
    <polygon class="cls-3" points="96.12 347.11 96.12 346.16 99.62 346.16 99.62 347.11 98.34 347.11 98.34 350.27 99.14 350.27 99.14 351.21 96.58 351.21 96.58 350.27 97.38 350.27 97.38 347.11 96.12 347.11"/>
    <polygon class="cls-3" points="92.62 347.11 92.62 346.16 96.12 346.16 96.12 347.11 94.84 347.11 94.84 350.27 95.64 350.27 95.64 351.21 93.08 351.21 93.08 350.27 93.88 350.27 93.88 347.11 92.62 347.11"/>
    <polygon class="cls-3" points="89.12 347.11 89.12 346.16 92.62 346.16 92.62 347.11 91.34 347.11 91.34 350.27 92.14 350.27 92.14 351.21 89.59 351.21 89.59 350.27 90.39 350.27 90.39 347.11 89.12 347.11"/>
    <polygon class="cls-3" points="85.62 347.11 85.62 346.16 89.12 346.16 89.12 347.11 87.85 347.11 87.85 350.27 88.65 350.27 88.65 351.21 86.09 351.21 86.09 350.27 86.89 350.27 86.89 347.11 85.62 347.11"/>
    <polygon class="cls-3" points="82.13 347.11 82.13 346.16 85.62 346.16 85.62 347.11 84.35 347.11 84.35 350.27 85.15 350.27 85.15 351.21 82.59 351.21 82.59 350.27 83.39 350.27 83.39 347.11 82.13 347.11"/>
    <polygon class="cls-3" points="78.63 347.11 78.63 346.16 82.13 346.16 82.13 347.11 80.85 347.11 80.85 350.27 81.65 350.27 81.65 351.21 79.09 351.21 79.09 350.27 79.89 350.27 79.89 347.11 78.63 347.11"/>
    <polygon class="cls-3" points="75.13 347.11 75.13 346.16 78.63 346.16 78.63 347.11 77.35 347.11 77.35 350.27 78.15 350.27 78.15 351.21 75.59 351.21 75.59 350.27 76.39 350.27 76.39 347.11 75.13 347.11"/>
    <polygon class="cls-3" points="71.63 347.11 71.63 346.16 75.13 346.16 75.13 347.11 73.85 347.11 73.85 350.27 74.65 350.27 74.65 351.21 72.1 351.21 72.1 350.27 72.9 350.27 72.9 347.11 71.63 347.11"/>
    <polygon class="cls-3" points="68.13 347.11 68.13 346.16 71.63 346.16 71.63 347.11 70.36 347.11 70.36 350.27 71.16 350.27 71.16 351.21 68.6 351.21 68.6 350.27 69.4 350.27 69.4 347.11 68.13 347.11"/>
    <polygon class="cls-3" points="64.63 347.11 64.63 346.16 68.13 346.16 68.13 347.11 66.86 347.11 66.86 350.27 67.66 350.27 67.66 351.21 65.1 351.21 65.1 350.27 65.9 350.27 65.9 347.11 64.63 347.11"/>
    <polygon class="cls-3" points="61.14 347.11 61.14 346.16 64.63 346.16 64.63 347.11 63.36 347.11 63.36 350.27 64.16 350.27 64.16 351.21 61.6 351.21 61.6 350.27 62.4 350.27 62.4 347.11 61.14 347.11"/>
    <polygon class="cls-3" points="57.64 347.11 57.64 346.16 61.14 346.16 61.14 347.11 59.86 347.11 59.86 350.27 60.66 350.27 60.66 351.21 58.1 351.21 58.1 350.27 58.9 350.27 58.9 347.11 57.64 347.11"/>
    <polygon class="cls-3" points="54.14 347.11 54.14 346.16 57.64 346.16 57.64 347.11 56.36 347.11 56.36 350.27 57.16 350.27 57.16 351.21 54.61 351.21 54.61 350.27 55.41 350.27 55.41 347.11 54.14 347.11"/>
    <polygon class="cls-3" points="50.64 347.11 50.64 346.16 54.14 346.16 54.14 347.11 52.86 347.11 52.86 350.27 53.67 350.27 53.67 351.21 51.11 351.21 51.11 350.27 51.91 350.27 51.91 347.11 50.64 347.11"/>
    <polygon class="cls-3" points="47.14 347.11 47.14 346.16 50.64 346.16 50.64 347.11 49.37 347.11 49.37 350.27 50.17 350.27 50.17 351.21 47.61 351.21 47.61 350.27 48.41 350.27 48.41 347.11 47.14 347.11"/>
    <polygon class="cls-3" points="43.65 347.11 43.65 346.16 47.14 346.16 47.14 347.11 45.87 347.11 45.87 350.27 46.67 350.27 46.67 351.21 44.11 351.21 44.11 350.27 44.91 350.27 44.91 347.11 43.65 347.11"/>
    <polygon class="cls-3" points="40.15 347.11 40.15 346.16 43.65 346.16 43.65 347.11 42.37 347.11 42.37 350.27 43.17 350.27 43.17 351.21 40.61 351.21 40.61 350.27 41.41 350.27 41.41 347.11 40.15 347.11"/>
    <polygon class="cls-3" points="36.65 347.11 36.65 346.16 40.15 346.16 40.15 347.11 38.87 347.11 38.87 350.27 39.67 350.27 39.67 351.21 37.11 351.21 37.11 350.27 37.91 350.27 37.91 347.11 36.65 347.11"/>
    <polygon class="cls-3" points="33.15 347.11 33.15 346.16 36.65 346.16 36.65 347.11 35.37 347.11 35.37 350.27 36.17 350.27 36.17 351.21 33.62 351.21 33.62 350.27 34.42 350.27 34.42 347.11 33.15 347.11"/>
    <polygon class="cls-3" points="29.65 347.11 29.65 346.16 33.15 346.16 33.15 347.11 31.88 347.11 31.88 350.27 32.68 350.27 32.68 351.21 30.12 351.21 30.12 350.27 30.92 350.27 30.92 347.11 29.65 347.11"/>
    <polygon class="cls-3" points="26.16 347.11 26.16 346.16 29.65 346.16 29.65 347.11 28.38 347.11 28.38 350.27 29.18 350.27 29.18 351.21 26.62 351.21 26.62 350.27 27.42 350.27 27.42 347.11 26.16 347.11"/>
    <polygon class="cls-3" points="22.66 347.11 22.66 346.16 26.16 346.16 26.16 347.11 24.88 347.11 24.88 350.27 25.68 350.27 25.68 351.21 23.12 351.21 23.12 350.27 23.92 350.27 23.92 347.11 22.66 347.11"/>
    <polygon class="cls-3" points="19.16 347.11 19.16 346.16 22.66 346.16 22.66 347.11 21.38 347.11 21.38 350.27 22.18 350.27 22.18 351.21 19.62 351.21 19.62 350.27 20.42 350.27 20.42 347.11 19.16 347.11"/>
    <polygon class="cls-3" points="15.66 347.11 15.66 346.16 19.16 346.16 19.16 347.11 17.88 347.11 17.88 350.27 18.68 350.27 18.68 351.21 16.13 351.21 16.13 350.27 16.93 350.27 16.93 347.11 15.66 347.11"/>
    <polygon class="cls-3" points="12.16 347.11 12.16 346.16 15.66 346.16 15.66 347.11 14.39 347.11 14.39 350.27 15.19 350.27 15.19 351.21 12.63 351.21 12.63 350.27 13.43 350.27 13.43 347.11 12.16 347.11"/>
    <polygon class="cls-3" points="8.67 347.11 8.67 346.16 12.16 346.16 12.16 347.11 10.89 347.11 10.89 350.27 11.69 350.27 11.69 351.21 9.13 351.21 9.13 350.27 9.93 350.27 9.93 347.11 8.67 347.11"/>
    <polygon class="cls-3" points="5.17 347.11 5.17 346.16 8.67 346.16 8.67 347.11 7.39 347.11 7.39 350.27 8.19 350.27 8.19 351.21 5.63 351.21 5.63 350.27 6.43 350.27 6.43 347.11 5.17 347.11"/>
    <g class="cls-8">
      <polygon class="cls-3" points="4.22 .08 5.17 .08 5.17 5.13 4.22 5.13 4.22 3.29 1.06 3.29 1.06 4.44 .11 4.44 .11 .75 1.06 .75 1.06 1.9 4.22 1.9 4.22 .08"/>
    </g>
    <g class="cls-6">
      <polygon class="cls-3" points="5.17 4.18 5.17 5.13 .11 5.13 .11 4.18 1.96 4.18 1.96 1.02 .8 1.02 .8 .08 4.5 .08 4.5 1.02 3.34 1.02 3.34 4.18 5.17 4.18"/>
    </g>
    <g class="cls-1">
      <polygon class="cls-3" points="115.16 4.18 115.16 5.13 110.11 5.13 110.11 4.18 111.95 4.18 111.95 1.02 110.8 1.02 110.8 .08 114.49 .08 114.49 1.02 113.34 1.02 113.34 4.18 115.16 4.18"/>
    </g>
    <g class="cls-9">
      <polygon class="cls-3" points="111.06 5.13 110.11 5.13 110.11 .08 111.06 .08 111.06 1.92 114.22 1.92 114.22 .76 115.16 .76 115.16 4.46 114.22 4.46 114.22 3.3 111.06 3.3 111.06 5.13"/>
    </g>
    <g class="cls-7">
      <polygon class="cls-3" points="111.06 351.21 110.11 351.21 110.11 346.16 111.06 346.16 111.06 348 114.22 348 114.22 346.85 115.16 346.85 115.16 350.54 114.22 350.54 114.22 349.39 111.06 349.39 111.06 351.21"/>
    </g>
    <g class="cls-10">
      <polygon class="cls-3" points="110.11 347.11 110.11 346.16 115.16 346.16 115.16 347.11 113.32 347.11 113.32 350.27 114.48 350.27 114.48 351.21 110.78 351.21 110.78 350.27 111.94 350.27 111.94 347.11 110.11 347.11"/>
    </g>
    <g class="cls-2">
      <polygon class="cls-3" points=".11 347.11 .11 346.16 5.17 346.16 5.17 347.11 3.32 347.11 3.32 350.27 4.48 350.27 4.48 351.21 .79 351.21 .79 350.27 1.94 350.27 1.94 347.11 .11 347.11"/>
    </g>
    <g class="cls-5">
      <polygon class="cls-3" points="4.22 346.16 5.17 346.16 5.17 351.21 4.22 351.21 4.22 349.37 1.06 349.37 1.06 350.53 .11 350.53 .11 346.83 1.06 346.83 1.06 347.99 4.22 347.99 4.22 346.16"/>
    </g>
  </g>
</svg>