<?xml version="1.0" encoding="UTF-8"?>
<svg id="icons" xmlns="http://www.w3.org/2000/svg" version="1.1" viewBox="0 0 191 230">
  <defs>
    <style>
      .cls-1 {
        fill: #000;
      }

      .cls-1, .cls-2 {
        stroke-width: 0px;
      }

      .cls-3 {
        fill: none;
        stroke: #fdd700;
        stroke-linecap: round;
        stroke-miterlimit: 10;
        stroke-width: 9px;
      }

      .cls-4 {
        display: none;
      }

      .cls-2 {
        fill: #fdd700;
      }
    </style>
  </defs>
  <g id="Layer_5" data-name="Layer 5" class="cls-4">
    <rect class="cls-1" x="-54" y="-9" width="290" height="247"/>
  </g>
  <g id="location" class="cls-4">
    <path class="cls-2" d="M97.89,234.01c-4.16-5.68-8.16-11.05-12.06-16.51-19.25-26.93-37.69-54.39-52.72-83.95-5.05-9.93-9.4-20.26-13.4-30.67-8.04-20.88-5.81-41.46,4.6-60.77C40.91,11.31,67.35-4.01,102.32-2.79c39.35,1.38,71.89,31.6,77.81,70.53,2.21,14.5-.74,28.02-5.97,41.34-8.09,20.61-19,39.75-30.57,58.53-13.72,22.28-28.62,43.75-44.28,64.7-.36.48-.77.93-1.42,1.7ZM97.93,103.63c13.15.04,23.71-10.45,23.74-23.59.03-13.14-10.5-23.75-23.6-23.77-13.12-.03-23.72,10.52-23.74,23.63-.02,13.17,10.44,23.7,23.6,23.74Z"/>
  </g>
  <g id="phone_number" data-name="phone number">
    <path class="cls-2" d="M111.42,227.23c-4.39-1.18-8.9-2.05-13.16-3.59-11.91-4.28-21.81-11.77-30.85-20.39-17.17-16.38-31.03-35.41-43.17-55.68-6.69-11.18-10.6-23.6-13.23-36.29-2.34-11.31-4.21-22.75-5.57-34.21-1.17-9.89-1.73-19.89-1.87-29.85C3.31,28.04,13.94,13.25,32.21,7.29c5.83-1.9,12.03-2.66,18.07-3.93.43-.09.89-.01,1.52-.01.06,1,.15,1.89.17,2.79.53,19.2,1.04,38.4,1.56,57.6,0,.23-.05.48.02.69.82,2.7-.51,3.95-2.77,5.3-8.23,4.94-9.85,12.18-8.72,20.58.78,5.85,4.06,10.71,6.71,15.77,9.29,17.71,18.74,35.34,28.2,52.95,1.52,2.83,3.42,5.45,5.14,8.16,5.27,8.27,13.42,9.61,21.69,6.16,3.05-1.27,4.86-1.1,7.4.94,15.38,12.32,30.93,24.44,46.41,36.63.4.32.76.68,1.26,1.14-7.09,4.65-14.63,7.96-22.48,10.56-5.05,1.68-10.19,3.08-15.3,4.61h-9.68Z"/>
    <path class="cls-2" d="M169.51,194.47c-1.56,4.66-3.12,9.33-4.76,14.22-17.59-13.97-34.98-27.79-52.65-41.84,3.53-1.89,6.99-3.39,10.05-5.47,4.32-2.95,8.28-2.19,12.06.58,7.41,5.44,14.69,11.06,22,16.63,2.26,1.72,4.41,3.56,6.69,5.25,2.72,2.02,5.19,4.23,6.62,7.39v3.23Z"/>
    <path class="cls-2" d="M57.57,33.06c0-9.44.03-18.88-.03-28.32,0-1.48.55-1.97,1.88-1.78,6.04.83,11.37,3.12,15.05,8.17.8,1.1.85,2.91.88,4.4.17,9.44.21,18.88.33,28.32.05,3.68.1,7.37.31,11.04.09,1.67-.48,2.89-1.5,4.13-3.19,3.92-7.02,6.77-12.06,7.81-1.95.4-3.11-.02-3.19-2.28-.31-8.66-.68-17.32-1.02-25.98-.07-1.84-.16-3.68-.24-5.52-.13,0-.27,0-.4,0Z"/>
    <path class="cls-3" d="M123.28,22.73c45.2,15.28,69.41,64.21,54.13,109.41"/>
    <path class="cls-3" d="M114.75,61.84c23.9,8.08,36.71,33.96,28.63,57.87"/>
  </g>
  <g id="Email" class="cls-4">
    <path class="cls-2" d="M-33.08,38.32h255.1c-44.05,32.95-86.27,64.53-129.04,96.51C50.61,103.16,8.36,71.57-33.9,39.98l.81-1.66Z"/>
    <path class="cls-2" d="M218.24,205.68H-32.48c-.51-.7-1.03-1.41-1.54-2.11C-1.97,177.26,30.07,150.96,62.48,124.37c10.14,7.49,20.12,14.87,30.52,22.56,10.15-7.53,20.1-14.92,30.4-22.56,32.22,26.41,64.23,52.65,96.24,78.89-.46.81-.93,1.62-1.39,2.43Z"/>
    <path class="cls-2" d="M131.37,118.32c32.8-24.5,65.13-48.65,99.01-73.96v154.88c-33.85-27.67-66.12-54.04-99.01-80.92Z"/>
    <path class="cls-2" d="M-44.37,199.24V44.44C-10.71,69.57,21.54,93.65,54.55,118.3c-32.83,26.86-64.9,53.1-98.92,80.94Z"/>
  </g>
</svg>