<?xml version="1.0" encoding="UTF-8"?>
<svg id="pinterest" xmlns="http://www.w3.org/2000/svg" viewBox="0 0 523 441">
  <path d="M164.06,240.23c-32.17-16.27-46.61-41.92-50.41-73.7C104.64,91.24,153.69,23.28,239.6,8.87c45.16-7.58,89.22-4.93,130.4,17.42,49.56,26.91,77.7,85.81,68.91,141.8-9.07,57.77-39.46,99.39-94.01,120.54-38.69,15-75.78,9.28-108.5-18.96-10.25,28.32-20.09,57.12-31.09,85.47-11.13,28.67-25.3,55.77-48.73,80.82-1.15-16.19-4.69-30.75-2.63-44.47,4.53-30.15,11.14-60.05,18.31-89.71,7.93-32.8,17.89-65.1,25.91-97.88,1.93-7.9,1.06-17.14-.86-25.21-5.63-23.54-4.31-45.73,10.04-65.88,8.26-11.6,19.97-17.67,34.39-17.63,18.35.05,33,13.33,30.72,31.43-2.69,21.34-8.88,42.26-13.82,63.3-2.18,9.29-5.86,18.28-7.39,27.65-2.29,14.05,4.26,25.02,17,31.09,31.74,15.13,61.29,8.76,82.63-19.4,22.44-29.62,31.46-63.68,25.01-100.25-6.62-37.49-31.61-59.77-67.25-69.67-32.61-9.06-65.28-7.49-96.53,6.27-46.55,20.49-57.19,53.1-54.97,95.36.93,17.78,8.3,35.14,10.88,52.96,1.15,7.93-2.32,16.53-3.95,26.32Z" style="fill: #000; stroke-width: 0px;"/>
</svg>