<?xml version="1.0" encoding="UTF-8"?>
<svg id="telegram" xmlns="http://www.w3.org/2000/svg" viewBox="0 0 523 441">
  <path d="M442.2,90.66c-.18,1.16-.31,2.33-.54,3.48-2.01,9.71-4.02,19.43-6.05,29.13-3.56,16.99-7.13,33.97-10.7,50.96-3.68,17.48-7.37,34.96-11.04,52.44-3.78,17.98-7.54,35.96-11.31,53.94-3.54,16.88-7.09,33.75-10.64,50.63-1.51,7.17-3.01,14.34-4.57,21.5-.72,3.31-1.81,6.52-3.41,9.52-.55,1.04-1.17,2.06-1.86,3.02-3.75,5.24-8.89,7.11-15.11,5.95-4.89-.92-9.36-2.93-13.34-5.92-26.03-19.56-52.03-39.14-78.04-58.71-.4-.3-.82-.6-1.38-1.01-.44.39-.89.78-1.32,1.2-15.05,14.31-30.1,28.61-45.14,42.93-2.06,1.96-4.39,3.31-7.23,3.78-3.13.52-5.92-.24-8.46-2.08-1.96-1.42-3.41-3.29-4.48-5.43-.3-.61-.38-1.41-.34-2.11.33-4.61.72-9.22,1.1-13.83.41-5,.83-10,1.24-15.01.52-6.3,1.05-12.59,1.56-18.89.39-4.83.82-9.67,1.13-14.51.09-1.44.52-2.5,1.63-3.5,30.66-27.85,61.29-55.73,91.92-83.61,25.63-23.32,51.25-46.64,76.86-69.97,1.04-.94,1.97-2.01,2.87-3.09.39-.46.64-1.06.84-1.64.42-1.27-.02-2.34-1.3-2.66-1.12-.28-2.35-.39-3.49-.26-3.36.39-6.39,1.78-9.24,3.55-20.74,12.9-41.46,25.82-62.2,38.71-45.27,28.13-90.55,56.25-135.8,84.42-1.58.98-2.89,1.14-4.68.56-26.17-8.43-52.38-16.78-78.57-25.14-2.46-.79-4.61-2.09-6.54-3.78-1.81-1.58-2.86-3.6-3.39-5.92-.32-1.4.21-2.68.63-3.95.65-1.97,1.86-3.6,3.31-5.05,2.55-2.55,5.56-4.41,8.91-5.71,56.49-21.9,112.98-43.79,169.47-65.69,50.13-19.43,100.26-38.87,150.39-58.3,4.17-1.62,8.42-2.93,12.93-3.09,1.51-.06,3.06-.02,4.55.24,5.62.99,9.52,5.01,10.5,11.31.06.37.22.73.33,1.09v10.5Z" style="fill: #000; stroke-width: 0px;"/>
</svg>