<?xml version="1.0" encoding="UTF-8"?>
<svg id="whatsapp" xmlns="http://www.w3.org/2000/svg" viewBox="0 0 523 441">
  <path d="M52.71,434.8c3.33-9.98,6.44-19.35,9.58-28.69,8.89-26.4,17.8-52.79,26.69-79.19.82-2.43,1.49-4.56-.14-7.31-11.86-20.13-20.08-41.69-24.63-64.63-3.97-20.02-5.18-40.25-3.17-60.53,4.65-46.91,22.63-88.04,54.53-122.92,24.59-26.88,54.23-46.03,88.77-57.54,17.32-5.77,35.12-9.04,53.38-10.15,36.82-2.24,71.78,4.77,104.88,20.81,26.05,12.62,48.4,30.18,67.26,52.15,20.77,24.2,35.29,51.72,43.53,82.5,7.59,28.35,8.99,57.08,4.7,86.11-4.17,28.15-13.71,54.38-28.73,78.49-22.86,36.7-54,64.08-93.52,81.82-24.07,10.8-49.29,16.55-75.63,17.87-24.41,1.22-48.22-1.93-71.57-8.94-12.95-3.89-25.38-9.09-37.24-15.58-2.02-1.11-3.79-1.17-5.95-.47-28.23,9.08-56.5,18.07-84.74,27.11-9.12,2.92-18.22,5.92-28.01,9.1ZM446.61,213.79c-.43-5.87-.79-11.74-1.31-17.6-2.25-25.49-10.11-49.26-23.1-71.2-21.89-36.97-53.21-62.9-93.63-77.42-25.67-9.22-52.23-12.12-79.37-8.7-27.61,3.48-53.05,12.83-76.21,28.36-19.41,13.01-35.82,29.04-48.66,48.56-26.48,40.25-35.56,84.14-26.65,131.55,4.55,24.17,14,46.38,28.23,66.48,1.33,1.87,1.7,3.44.9,5.75-6.79,19.73-13.42,39.51-20.05,59.29-.25.76-.22,1.79.12,2.48.14.29,1.47.2,2.17-.02,4.01-1.22,8-2.52,11.99-3.79,16.46-5.24,32.93-10.43,49.36-15.77,2.43-.79,4.28-.55,6.41.84,10.6,6.87,21.86,12.48,33.77,16.65,21.11,7.38,42.79,11.08,65.26,10.37,22.05-.7,43.2-5.38,63.38-13.99,34.77-14.85,61.97-38.79,81.65-70.97,17-27.79,25.34-58.22,25.72-90.87Z" style="fill: #000; stroke-width: 0px;"/>
  <path d="M326.36,318.56c-9.48-.16-17.91-3.48-26.31-6.59-14.13-5.25-28.22-10.61-41.28-18.35-16.32-9.68-30.35-22.03-43.12-35.93-14.26-15.52-26.18-32.77-36.69-50.96-8.04-13.91-13.56-28.69-13.25-45.13.36-18.84,8.05-34.13,22.35-46.19,3.65-3.07,7.97-4.48,12.79-4.17,3.99.26,7.97.52,11.96.71,3.26.15,5.47,1.92,6.85,4.64,1.44,2.84,2.66,5.81,3.78,8.8,4.59,12.25,9.08,24.53,13.67,36.78,1.24,3.31.94,6.34-.65,9.5-3.35,6.66-8.73,11.63-13.73,16.9-4.58,4.82-5.12,6.88-1.93,12.71,15.79,28.83,38.13,50.76,68.17,64.59,9.62,4.43,10.34,4.48,17.46-3.31,4.91-5.38,9.59-10.98,14.22-16.6,3.63-4.41,6.14-5.32,11.44-2.88,6.07,2.79,12.05,5.82,17.96,8.94,8.56,4.53,17.02,9.26,25.55,13.85,2.44,1.32,3.83,3.28,3.73,6.02-.33,8.79-1.99,17.33-6.59,24.92-3.38,5.58-8.75,9.18-14.22,12.61-9.95,6.24-20.88,8.77-32.17,9.15Z" style="fill: #000; stroke-width: 0px;"/>
</svg>