<?xml version="1.0" encoding="UTF-8"?>
<svg xmlns="http://www.w3.org/2000/svg" version="1.1" xmlns:xlink="http://www.w3.org/1999/xlink" viewBox="0 0 504.94 86.96">
  <defs>
    <style>
      .cls-1 {
        clip-path: url(#clippath-2);
      }

      .cls-2 {
        clip-path: url(#clippath-6);
      }

      .cls-3 {
        fill: none;
      }

      .cls-3, .cls-4 {
        stroke-width: 0px;
      }

      .cls-5 {
        clip-path: url(#clippath-7);
      }

      .cls-6 {
        clip-path: url(#clippath-1);
      }

      .cls-7 {
        clip-path: url(#clippath-4);
      }

      .cls-8 {
        clip-path: url(#clippath);
      }

      .cls-9 {
        clip-path: url(#clippath-3);
      }

      .cls-4 {
        fill: #fcd601;
      }

      .cls-10 {
        clip-path: url(#clippath-5);
      }

      .cls-11 {
        display: none;
      }
    </style>
    <clipPath id="clippath">
      <polygon class="cls-3" points="43.18 78.55 39.52 84.33 43.18 84.33 43.18 78.55"/>
    </clipPath>
    <clipPath id="clippath-1">
      <polygon class="cls-3" points="43.18 78.55 39.52 84.33 37.96 81.02 43.18 78.55"/>
    </clipPath>
    <clipPath id="clippath-2">
      <polygon class="cls-3" points="10.38 9.04 1.27 3.26 5.16 11.51 10.38 9.04"/>
    </clipPath>
    <clipPath id="clippath-3">
      <polygon class="cls-3" points="10.38 9.04 1.27 3.26 10.38 3.26 10.38 9.04"/>
    </clipPath>
    <clipPath id="clippath-4">
      <polygon class="cls-3" points="496.08 9.04 501.86 3.26 496.08 3.26 496.08 9.04"/>
    </clipPath>
    <clipPath id="clippath-5">
      <polygon class="cls-3" points="496.08 9.04 501.86 3.26 501.86 9.04 496.08 9.04"/>
    </clipPath>
    <clipPath id="clippath-6">
      <polygon class="cls-3" points="496.08 78.55 501.86 84.33 501.86 78.55 496.08 78.55"/>
    </clipPath>
    <clipPath id="clippath-7">
      <polygon class="cls-3" points="496.08 78.55 501.86 84.33 496.08 84.33 496.08 78.55"/>
    </clipPath>
  </defs>
  <g id="En_bg_social_Media" data-name="En bg social Media" class="cls-11">
    <g id="_8_-_top_left_bg_social_media" data-name="%8 - top left bg social media">
      <polygon class="cls-4" points="5.83 6.15 5.83 81.44 463.45 81.44 498.97 6.15 5.83 6.15"/>
      <g>
        <polygon class="cls-4" points="13.34 83.07 13.34 84.33 8.72 84.33 8.72 83.07 10.4 83.07 10.4 79.81 9.34 79.81 9.34 78.55 12.72 78.55 12.72 79.81 11.66 79.81 11.66 83.07 13.34 83.07"/>
        <polygon class="cls-4" points="17.96 83.07 17.96 84.33 13.34 84.33 13.34 83.07 15.02 83.07 15.02 79.81 13.96 79.81 13.96 78.55 17.34 78.55 17.34 79.81 16.29 79.81 16.29 83.07 17.96 83.07"/>
        <polygon class="cls-4" points="22.58 83.07 22.58 84.33 17.96 84.33 17.96 83.07 19.64 83.07 19.64 79.81 18.59 79.81 18.59 78.55 21.97 78.55 21.97 79.81 20.91 79.81 20.91 83.07 22.58 83.07"/>
        <polygon class="cls-4" points="27.2 83.07 27.2 84.33 22.58 84.33 22.58 83.07 24.27 83.07 24.27 79.81 23.21 79.81 23.21 78.55 26.59 78.55 26.59 79.81 25.53 79.81 25.53 83.07 27.2 83.07"/>
        <polygon class="cls-4" points="31.82 83.07 31.82 84.33 27.2 84.33 27.2 83.07 28.89 83.07 28.89 79.81 27.83 79.81 27.83 78.55 31.21 78.55 31.21 79.81 30.15 79.81 30.15 83.07 31.82 83.07"/>
        <polygon class="cls-4" points="36.44 83.07 36.44 84.33 31.82 84.33 31.82 83.07 33.51 83.07 33.51 79.81 32.45 79.81 32.45 78.55 35.83 78.55 35.83 79.81 34.77 79.81 34.77 83.07 36.44 83.07"/>
        <polygon class="cls-4" points="41.07 83.07 41.07 84.33 36.44 84.33 36.44 83.07 38.13 83.07 38.13 79.81 37.07 79.81 37.07 78.55 40.45 78.55 40.45 79.81 39.39 79.81 39.39 83.07 41.07 83.07"/>
        <polygon class="cls-4" points="45.69 83.07 45.69 84.33 41.07 84.33 41.07 83.07 42.75 83.07 42.75 79.81 41.69 79.81 41.69 78.55 45.07 78.55 45.07 79.81 44.01 79.81 44.01 83.07 45.69 83.07"/>
        <polygon class="cls-4" points="50.31 83.07 50.31 84.33 45.69 84.33 45.69 83.07 47.37 83.07 47.37 79.81 46.31 79.81 46.31 78.55 49.69 78.55 49.69 79.81 48.64 79.81 48.64 83.07 50.31 83.07"/>
        <polygon class="cls-4" points="54.93 83.07 54.93 84.33 50.31 84.33 50.31 83.07 51.99 83.07 51.99 79.81 50.94 79.81 50.94 78.55 54.32 78.55 54.32 79.81 53.26 79.81 53.26 83.07 54.93 83.07"/>
        <polygon class="cls-4" points="59.55 83.07 59.55 84.33 54.93 84.33 54.93 83.07 56.62 83.07 56.62 79.81 55.56 79.81 55.56 78.55 58.94 78.55 58.94 79.81 57.88 79.81 57.88 83.07 59.55 83.07"/>
        <polygon class="cls-4" points="64.17 83.07 64.17 84.33 59.55 84.33 59.55 83.07 61.24 83.07 61.24 79.81 60.18 79.81 60.18 78.55 63.56 78.55 63.56 79.81 62.5 79.81 62.5 83.07 64.17 83.07"/>
        <polygon class="cls-4" points="68.79 83.07 68.79 84.33 64.17 84.33 64.17 83.07 65.86 83.07 65.86 79.81 64.8 79.81 64.8 78.55 68.18 78.55 68.18 79.81 67.12 79.81 67.12 83.07 68.79 83.07"/>
        <polygon class="cls-4" points="73.42 83.07 73.42 84.33 68.79 84.33 68.79 83.07 70.48 83.07 70.48 79.81 69.42 79.81 69.42 78.55 72.8 78.55 72.8 79.81 71.74 79.81 71.74 83.07 73.42 83.07"/>
        <polygon class="cls-4" points="78.04 83.07 78.04 84.33 73.42 84.33 73.42 83.07 75.1 83.07 75.1 79.81 74.04 79.81 74.04 78.55 77.42 78.55 77.42 79.81 76.37 79.81 76.37 83.07 78.04 83.07"/>
        <polygon class="cls-4" points="82.66 83.07 82.66 84.33 78.04 84.33 78.04 83.07 79.72 83.07 79.72 79.81 78.66 79.81 78.66 78.55 82.04 78.55 82.04 79.81 80.99 79.81 80.99 83.07 82.66 83.07"/>
        <polygon class="cls-4" points="87.28 83.07 87.28 84.33 82.66 84.33 82.66 83.07 84.34 83.07 84.34 79.81 83.29 79.81 83.29 78.55 86.67 78.55 86.67 79.81 85.61 79.81 85.61 83.07 87.28 83.07"/>
        <polygon class="cls-4" points="91.9 83.07 91.9 84.33 87.28 84.33 87.28 83.07 88.97 83.07 88.97 79.81 87.91 79.81 87.91 78.55 91.29 78.55 91.29 79.81 90.23 79.81 90.23 83.07 91.9 83.07"/>
        <polygon class="cls-4" points="96.52 83.07 96.52 84.33 91.9 84.33 91.9 83.07 93.59 83.07 93.59 79.81 92.53 79.81 92.53 78.55 95.91 78.55 95.91 79.81 94.85 79.81 94.85 83.07 96.52 83.07"/>
        <polygon class="cls-4" points="101.14 83.07 101.14 84.33 96.52 84.33 96.52 83.07 98.21 83.07 98.21 79.81 97.15 79.81 97.15 78.55 100.53 78.55 100.53 79.81 99.47 79.81 99.47 83.07 101.14 83.07"/>
        <polygon class="cls-4" points="105.77 83.07 105.77 84.33 101.14 84.33 101.14 83.07 102.83 83.07 102.83 79.81 101.77 79.81 101.77 78.55 105.15 78.55 105.15 79.81 104.09 79.81 104.09 83.07 105.77 83.07"/>
        <polygon class="cls-4" points="110.39 83.07 110.39 84.33 105.77 84.33 105.77 83.07 107.45 83.07 107.45 79.81 106.39 79.81 106.39 78.55 109.77 78.55 109.77 79.81 108.72 79.81 108.72 83.07 110.39 83.07"/>
        <polygon class="cls-4" points="115.01 83.07 115.01 84.33 110.39 84.33 110.39 83.07 112.07 83.07 112.07 79.81 111.01 79.81 111.01 78.55 114.39 78.55 114.39 79.81 113.34 79.81 113.34 83.07 115.01 83.07"/>
        <polygon class="cls-4" points="119.63 83.07 119.63 84.33 115.01 84.33 115.01 83.07 116.69 83.07 116.69 79.81 115.64 79.81 115.64 78.55 119.02 78.55 119.02 79.81 117.96 79.81 117.96 83.07 119.63 83.07"/>
        <polygon class="cls-4" points="124.25 83.07 124.25 84.33 119.63 84.33 119.63 83.07 121.32 83.07 121.32 79.81 120.26 79.81 120.26 78.55 123.64 78.55 123.64 79.81 122.58 79.81 122.58 83.07 124.25 83.07"/>
        <polygon class="cls-4" points="128.87 83.07 128.87 84.33 124.25 84.33 124.25 83.07 125.94 83.07 125.94 79.81 124.88 79.81 124.88 78.55 128.26 78.55 128.26 79.81 127.2 79.81 127.2 83.07 128.87 83.07"/>
        <polygon class="cls-4" points="133.49 83.07 133.49 84.33 128.87 84.33 128.87 83.07 130.56 83.07 130.56 79.81 129.5 79.81 129.5 78.55 132.88 78.55 132.88 79.81 131.82 79.81 131.82 83.07 133.49 83.07"/>
        <polygon class="cls-4" points="138.12 83.07 138.12 84.33 133.49 84.33 133.49 83.07 135.18 83.07 135.18 79.81 134.12 79.81 134.12 78.55 137.5 78.55 137.5 79.81 136.44 79.81 136.44 83.07 138.12 83.07"/>
        <polygon class="cls-4" points="142.74 83.07 142.74 84.33 138.12 84.33 138.12 83.07 139.8 83.07 139.8 79.81 138.74 79.81 138.74 78.55 142.12 78.55 142.12 79.81 141.07 79.81 141.07 83.07 142.74 83.07"/>
        <polygon class="cls-4" points="147.36 83.07 147.36 84.33 142.74 84.33 142.74 83.07 144.42 83.07 144.42 79.81 143.36 79.81 143.36 78.55 146.74 78.55 146.74 79.81 145.69 79.81 145.69 83.07 147.36 83.07"/>
        <polygon class="cls-4" points="151.98 83.07 151.98 84.33 147.36 84.33 147.36 83.07 149.04 83.07 149.04 79.81 147.99 79.81 147.99 78.55 151.37 78.55 151.37 79.81 150.31 79.81 150.31 83.07 151.98 83.07"/>
        <polygon class="cls-4" points="156.6 83.07 156.6 84.33 151.98 84.33 151.98 83.07 153.67 83.07 153.67 79.81 152.61 79.81 152.61 78.55 155.99 78.55 155.99 79.81 154.93 79.81 154.93 83.07 156.6 83.07"/>
        <polygon class="cls-4" points="161.22 83.07 161.22 84.33 156.6 84.33 156.6 83.07 158.29 83.07 158.29 79.81 157.23 79.81 157.23 78.55 160.61 78.55 160.61 79.81 159.55 79.81 159.55 83.07 161.22 83.07"/>
        <polygon class="cls-4" points="165.84 83.07 165.84 84.33 161.22 84.33 161.22 83.07 162.91 83.07 162.91 79.81 161.85 79.81 161.85 78.55 165.23 78.55 165.23 79.81 164.17 79.81 164.17 83.07 165.84 83.07"/>
        <polygon class="cls-4" points="170.47 83.07 170.47 84.33 165.84 84.33 165.84 83.07 167.53 83.07 167.53 79.81 166.47 79.81 166.47 78.55 169.85 78.55 169.85 79.81 168.79 79.81 168.79 83.07 170.47 83.07"/>
        <polygon class="cls-4" points="175.09 83.07 175.09 84.33 170.47 84.33 170.47 83.07 172.15 83.07 172.15 79.81 171.09 79.81 171.09 78.55 174.47 78.55 174.47 79.81 173.42 79.81 173.42 83.07 175.09 83.07"/>
        <polygon class="cls-4" points="179.71 83.07 179.71 84.33 175.09 84.33 175.09 83.07 176.77 83.07 176.77 79.81 175.71 79.81 175.71 78.55 179.09 78.55 179.09 79.81 178.04 79.81 178.04 83.07 179.71 83.07"/>
        <polygon class="cls-4" points="184.33 83.07 184.33 84.33 179.71 84.33 179.71 83.07 181.39 83.07 181.39 79.81 180.34 79.81 180.34 78.55 183.72 78.55 183.72 79.81 182.66 79.81 182.66 83.07 184.33 83.07"/>
        <polygon class="cls-4" points="188.95 83.07 188.95 84.33 184.33 84.33 184.33 83.07 186.02 83.07 186.02 79.81 184.96 79.81 184.96 78.55 188.34 78.55 188.34 79.81 187.28 79.81 187.28 83.07 188.95 83.07"/>
        <polygon class="cls-4" points="193.57 83.07 193.57 84.33 188.95 84.33 188.95 83.07 190.64 83.07 190.64 79.81 189.58 79.81 189.58 78.55 192.96 78.55 192.96 79.81 191.9 79.81 191.9 83.07 193.57 83.07"/>
        <polygon class="cls-4" points="198.19 83.07 198.19 84.33 193.57 84.33 193.57 83.07 195.26 83.07 195.26 79.81 194.2 79.81 194.2 78.55 197.58 78.55 197.58 79.81 196.52 79.81 196.52 83.07 198.19 83.07"/>
        <polygon class="cls-4" points="202.82 83.07 202.82 84.33 198.19 84.33 198.19 83.07 199.88 83.07 199.88 79.81 198.82 79.81 198.82 78.55 202.2 78.55 202.2 79.81 201.14 79.81 201.14 83.07 202.82 83.07"/>
        <polygon class="cls-4" points="207.44 83.07 207.44 84.33 202.82 84.33 202.82 83.07 204.5 83.07 204.5 79.81 203.44 79.81 203.44 78.55 206.82 78.55 206.82 79.81 205.77 79.81 205.77 83.07 207.44 83.07"/>
        <polygon class="cls-4" points="212.06 83.07 212.06 84.33 207.44 84.33 207.44 83.07 209.12 83.07 209.12 79.81 208.06 79.81 208.06 78.55 211.44 78.55 211.44 79.81 210.39 79.81 210.39 83.07 212.06 83.07"/>
        <polygon class="cls-4" points="216.68 83.07 216.68 84.33 212.06 84.33 212.06 83.07 213.74 83.07 213.74 79.81 212.69 79.81 212.69 78.55 216.07 78.55 216.07 79.81 215.01 79.81 215.01 83.07 216.68 83.07"/>
        <polygon class="cls-4" points="221.3 83.07 221.3 84.33 216.68 84.33 216.68 83.07 218.37 83.07 218.37 79.81 217.31 79.81 217.31 78.55 220.69 78.55 220.69 79.81 219.63 79.81 219.63 83.07 221.3 83.07"/>
        <polygon class="cls-4" points="225.92 83.07 225.92 84.33 221.3 84.33 221.3 83.07 222.99 83.07 222.99 79.81 221.93 79.81 221.93 78.55 225.31 78.55 225.31 79.81 224.25 79.81 224.25 83.07 225.92 83.07"/>
        <polygon class="cls-4" points="230.54 83.07 230.54 84.33 225.92 84.33 225.92 83.07 227.61 83.07 227.61 79.81 226.55 79.81 226.55 78.55 229.93 78.55 229.93 79.81 228.87 79.81 228.87 83.07 230.54 83.07"/>
        <polygon class="cls-4" points="235.17 83.07 235.17 84.33 230.54 84.33 230.54 83.07 232.23 83.07 232.23 79.81 231.17 79.81 231.17 78.55 234.55 78.55 234.55 79.81 233.49 79.81 233.49 83.07 235.17 83.07"/>
        <polygon class="cls-4" points="239.79 83.07 239.79 84.33 235.17 84.33 235.17 83.07 236.85 83.07 236.85 79.81 235.79 79.81 235.79 78.55 239.17 78.55 239.17 79.81 238.12 79.81 238.12 83.07 239.79 83.07"/>
        <polygon class="cls-4" points="244.41 83.07 244.41 84.33 239.79 84.33 239.79 83.07 241.47 83.07 241.47 79.81 240.41 79.81 240.41 78.55 243.79 78.55 243.79 79.81 242.74 79.81 242.74 83.07 244.41 83.07"/>
        <polygon class="cls-4" points="249.03 83.07 249.03 84.33 244.41 84.33 244.41 83.07 246.09 83.07 246.09 79.81 245.04 79.81 245.04 78.55 248.42 78.55 248.42 79.81 247.36 79.81 247.36 83.07 249.03 83.07"/>
        <polygon class="cls-4" points="253.65 83.07 253.65 84.33 249.03 84.33 249.03 83.07 250.72 83.07 250.72 79.81 249.66 79.81 249.66 78.55 253.04 78.55 253.04 79.81 251.98 79.81 251.98 83.07 253.65 83.07"/>
        <polygon class="cls-4" points="258.27 83.07 258.27 84.33 253.65 84.33 253.65 83.07 255.34 83.07 255.34 79.81 254.28 79.81 254.28 78.55 257.66 78.55 257.66 79.81 256.6 79.81 256.6 83.07 258.27 83.07"/>
        <polygon class="cls-4" points="262.89 83.07 262.89 84.33 258.27 84.33 258.27 83.07 259.96 83.07 259.96 79.81 258.9 79.81 258.9 78.55 262.28 78.55 262.28 79.81 261.22 79.81 261.22 83.07 262.89 83.07"/>
        <polygon class="cls-4" points="267.52 83.07 267.52 84.33 262.89 84.33 262.89 83.07 264.58 83.07 264.58 79.81 263.52 79.81 263.52 78.55 266.9 78.55 266.9 79.81 265.84 79.81 265.84 83.07 267.52 83.07"/>
        <polygon class="cls-4" points="272.14 83.07 272.14 84.33 267.52 84.33 267.52 83.07 269.2 83.07 269.2 79.81 268.14 79.81 268.14 78.55 271.52 78.55 271.52 79.81 270.47 79.81 270.47 83.07 272.14 83.07"/>
        <polygon class="cls-4" points="276.76 83.07 276.76 84.33 272.14 84.33 272.14 83.07 273.82 83.07 273.82 79.81 272.76 79.81 272.76 78.55 276.14 78.55 276.14 79.81 275.09 79.81 275.09 83.07 276.76 83.07"/>
        <polygon class="cls-4" points="281.38 83.07 281.38 84.33 276.76 84.33 276.76 83.07 278.44 83.07 278.44 79.81 277.39 79.81 277.39 78.55 280.77 78.55 280.77 79.81 279.71 79.81 279.71 83.07 281.38 83.07"/>
        <polygon class="cls-4" points="286 83.07 286 84.33 281.38 84.33 281.38 83.07 283.07 83.07 283.07 79.81 282.01 79.81 282.01 78.55 285.39 78.55 285.39 79.81 284.33 79.81 284.33 83.07 286 83.07"/>
        <polygon class="cls-4" points="290.62 83.07 290.62 84.33 286 84.33 286 83.07 287.69 83.07 287.69 79.81 286.63 79.81 286.63 78.55 290.01 78.55 290.01 79.81 288.95 79.81 288.95 83.07 290.62 83.07"/>
        <polygon class="cls-4" points="295.24 83.07 295.24 84.33 290.62 84.33 290.62 83.07 292.31 83.07 292.31 79.81 291.25 79.81 291.25 78.55 294.63 78.55 294.63 79.81 293.57 79.81 293.57 83.07 295.24 83.07"/>
        <polygon class="cls-4" points="299.87 83.07 299.87 84.33 295.24 84.33 295.24 83.07 296.93 83.07 296.93 79.81 295.87 79.81 295.87 78.55 299.25 78.55 299.25 79.81 298.19 79.81 298.19 83.07 299.87 83.07"/>
        <polygon class="cls-4" points="304.49 83.07 304.49 84.33 299.87 84.33 299.87 83.07 301.55 83.07 301.55 79.81 300.49 79.81 300.49 78.55 303.87 78.55 303.87 79.81 302.82 79.81 302.82 83.07 304.49 83.07"/>
        <polygon class="cls-4" points="309.11 83.07 309.11 84.33 304.49 84.33 304.49 83.07 306.17 83.07 306.17 79.81 305.11 79.81 305.11 78.55 308.49 78.55 308.49 79.81 307.44 79.81 307.44 83.07 309.11 83.07"/>
        <polygon class="cls-4" points="313.73 83.07 313.73 84.33 309.11 84.33 309.11 83.07 310.79 83.07 310.79 79.81 309.74 79.81 309.74 78.55 313.12 78.55 313.12 79.81 312.06 79.81 312.06 83.07 313.73 83.07"/>
        <polygon class="cls-4" points="318.35 83.07 318.35 84.33 313.73 84.33 313.73 83.07 315.42 83.07 315.42 79.81 314.36 79.81 314.36 78.55 317.74 78.55 317.74 79.81 316.68 79.81 316.68 83.07 318.35 83.07"/>
        <polygon class="cls-4" points="322.97 83.07 322.97 84.33 318.35 84.33 318.35 83.07 320.04 83.07 320.04 79.81 318.98 79.81 318.98 78.55 322.36 78.55 322.36 79.81 321.3 79.81 321.3 83.07 322.97 83.07"/>
        <polygon class="cls-4" points="327.59 83.07 327.59 84.33 322.97 84.33 322.97 83.07 324.66 83.07 324.66 79.81 323.6 79.81 323.6 78.55 326.98 78.55 326.98 79.81 325.92 79.81 325.92 83.07 327.59 83.07"/>
        <polygon class="cls-4" points="332.22 83.07 332.22 84.33 327.59 84.33 327.59 83.07 329.28 83.07 329.28 79.81 328.22 79.81 328.22 78.55 331.6 78.55 331.6 79.81 330.54 79.81 330.54 83.07 332.22 83.07"/>
        <polygon class="cls-4" points="336.84 83.07 336.84 84.33 332.22 84.33 332.22 83.07 333.9 83.07 333.9 79.81 332.84 79.81 332.84 78.55 336.22 78.55 336.22 79.81 335.17 79.81 335.17 83.07 336.84 83.07"/>
        <polygon class="cls-4" points="341.46 83.07 341.46 84.33 336.84 84.33 336.84 83.07 338.52 83.07 338.52 79.81 337.46 79.81 337.46 78.55 340.84 78.55 340.84 79.81 339.79 79.81 339.79 83.07 341.46 83.07"/>
        <polygon class="cls-4" points="346.08 83.07 346.08 84.33 341.46 84.33 341.46 83.07 343.14 83.07 343.14 79.81 342.09 79.81 342.09 78.55 345.47 78.55 345.47 79.81 344.41 79.81 344.41 83.07 346.08 83.07"/>
        <polygon class="cls-4" points="350.7 83.07 350.7 84.33 346.08 84.33 346.08 83.07 347.77 83.07 347.77 79.81 346.71 79.81 346.71 78.55 350.09 78.55 350.09 79.81 349.03 79.81 349.03 83.07 350.7 83.07"/>
        <polygon class="cls-4" points="355.32 83.07 355.32 84.33 350.7 84.33 350.7 83.07 352.39 83.07 352.39 79.81 351.33 79.81 351.33 78.55 354.71 78.55 354.71 79.81 353.65 79.81 353.65 83.07 355.32 83.07"/>
        <polygon class="cls-4" points="359.94 83.07 359.94 84.33 355.32 84.33 355.32 83.07 357.01 83.07 357.01 79.81 355.95 79.81 355.95 78.55 359.33 78.55 359.33 79.81 358.27 79.81 358.27 83.07 359.94 83.07"/>
        <polygon class="cls-4" points="364.57 83.07 364.57 84.33 359.94 84.33 359.94 83.07 361.63 83.07 361.63 79.81 360.57 79.81 360.57 78.55 363.95 78.55 363.95 79.81 362.89 79.81 362.89 83.07 364.57 83.07"/>
        <polygon class="cls-4" points="369.19 83.07 369.19 84.33 364.57 84.33 364.57 83.07 366.25 83.07 366.25 79.81 365.19 79.81 365.19 78.55 368.57 78.55 368.57 79.81 367.52 79.81 367.52 83.07 369.19 83.07"/>
        <polygon class="cls-4" points="373.81 83.07 373.81 84.33 369.19 84.33 369.19 83.07 370.87 83.07 370.87 79.81 369.81 79.81 369.81 78.55 373.19 78.55 373.19 79.81 372.14 79.81 372.14 83.07 373.81 83.07"/>
        <polygon class="cls-4" points="378.43 83.07 378.43 84.33 373.81 84.33 373.81 83.07 375.49 83.07 375.49 79.81 374.44 79.81 374.44 78.55 377.82 78.55 377.82 79.81 376.76 79.81 376.76 83.07 378.43 83.07"/>
        <polygon class="cls-4" points="383.05 83.07 383.05 84.33 378.43 84.33 378.43 83.07 380.12 83.07 380.12 79.81 379.06 79.81 379.06 78.55 382.44 78.55 382.44 79.81 381.38 79.81 381.38 83.07 383.05 83.07"/>
        <polygon class="cls-4" points="387.67 83.07 387.67 84.33 383.05 84.33 383.05 83.07 384.74 83.07 384.74 79.81 383.68 79.81 383.68 78.55 387.06 78.55 387.06 79.81 386 79.81 386 83.07 387.67 83.07"/>
        <polygon class="cls-4" points="392.29 83.07 392.29 84.33 387.67 84.33 387.67 83.07 389.36 83.07 389.36 79.81 388.3 79.81 388.3 78.55 391.68 78.55 391.68 79.81 390.62 79.81 390.62 83.07 392.29 83.07"/>
        <polygon class="cls-4" points="396.92 83.07 396.92 84.33 392.29 84.33 392.29 83.07 393.98 83.07 393.98 79.81 392.92 79.81 392.92 78.55 396.3 78.55 396.3 79.81 395.24 79.81 395.24 83.07 396.92 83.07"/>
        <polygon class="cls-4" points="401.54 83.07 401.54 84.33 396.92 84.33 396.92 83.07 398.6 83.07 398.6 79.81 397.54 79.81 397.54 78.55 400.92 78.55 400.92 79.81 399.87 79.81 399.87 83.07 401.54 83.07"/>
        <polygon class="cls-4" points="406.16 83.07 406.16 84.33 401.54 84.33 401.54 83.07 403.22 83.07 403.22 79.81 402.16 79.81 402.16 78.55 405.54 78.55 405.54 79.81 404.49 79.81 404.49 83.07 406.16 83.07"/>
        <polygon class="cls-4" points="410.78 83.07 410.78 84.33 406.16 84.33 406.16 83.07 407.84 83.07 407.84 79.81 406.79 79.81 406.79 78.55 410.17 78.55 410.17 79.81 409.11 79.81 409.11 83.07 410.78 83.07"/>
        <polygon class="cls-4" points="415.4 83.07 415.4 84.33 410.78 84.33 410.78 83.07 412.47 83.07 412.47 79.81 411.41 79.81 411.41 78.55 414.79 78.55 414.79 79.81 413.73 79.81 413.73 83.07 415.4 83.07"/>
        <polygon class="cls-4" points="420.02 83.07 420.02 84.33 415.4 84.33 415.4 83.07 417.09 83.07 417.09 79.81 416.03 79.81 416.03 78.55 419.41 78.55 419.41 79.81 418.35 79.81 418.35 83.07 420.02 83.07"/>
        <polygon class="cls-4" points="424.64 83.07 424.64 84.33 420.02 84.33 420.02 83.07 421.71 83.07 421.71 79.81 420.65 79.81 420.65 78.55 424.03 78.55 424.03 79.81 422.97 79.81 422.97 83.07 424.64 83.07"/>
        <polygon class="cls-4" points="429.27 83.07 429.27 84.33 424.64 84.33 424.64 83.07 426.33 83.07 426.33 79.81 425.27 79.81 425.27 78.55 428.65 78.55 428.65 79.81 427.59 79.81 427.59 83.07 429.27 83.07"/>
        <polygon class="cls-4" points="433.89 83.07 433.89 84.33 429.27 84.33 429.27 83.07 430.95 83.07 430.95 79.81 429.89 79.81 429.89 78.55 433.27 78.55 433.27 79.81 432.22 79.81 432.22 83.07 433.89 83.07"/>
        <polygon class="cls-4" points="438.51 83.07 438.51 84.33 433.89 84.33 433.89 83.07 435.57 83.07 435.57 79.81 434.51 79.81 434.51 78.55 437.89 78.55 437.89 79.81 436.84 79.81 436.84 83.07 438.51 83.07"/>
        <polygon class="cls-4" points="443.13 83.07 443.13 84.33 438.51 84.33 438.51 83.07 440.19 83.07 440.19 79.81 439.14 79.81 439.14 78.55 442.52 78.55 442.52 79.81 441.46 79.81 441.46 83.07 443.13 83.07"/>
        <polygon class="cls-4" points="447.75 83.07 447.75 84.33 443.13 84.33 443.13 83.07 444.82 83.07 444.82 79.81 443.76 79.81 443.76 78.55 447.14 78.55 447.14 79.81 446.08 79.81 446.08 83.07 447.75 83.07"/>
        <polygon class="cls-4" points="452.37 83.07 452.37 84.33 447.75 84.33 447.75 83.07 449.44 83.07 449.44 79.81 448.38 79.81 448.38 78.55 451.76 78.55 451.76 79.81 450.7 79.81 450.7 83.07 452.37 83.07"/>
        <polygon class="cls-4" points="456.99 83.07 456.99 84.33 452.37 84.33 452.37 83.07 454.06 83.07 454.06 79.81 453 79.81 453 78.55 456.38 78.55 456.38 79.81 455.32 79.81 455.32 83.07 456.99 83.07"/>
        <polygon class="cls-4" points="461.62 83.07 461.62 84.33 456.99 84.33 456.99 83.07 458.68 83.07 458.68 79.81 457.62 79.81 457.62 78.55 461 78.55 461 79.81 459.94 79.81 459.94 83.07 461.62 83.07"/>
        <polygon class="cls-4" points="467.63 76.39 468.77 76.93 466.84 81.02 465.7 80.48 466.4 78.99 463.46 77.6 463.02 78.53 461.88 78 463.29 75.01 464.43 75.54 463.99 76.48 466.93 77.87 467.63 76.39"/>
        <polygon class="cls-4" points="469.56 72.3 470.7 72.84 468.77 76.93 467.63 76.39 468.33 74.9 465.39 73.51 464.95 74.45 463.81 73.91 465.22 70.92 466.36 71.46 465.92 72.39 468.86 73.78 469.56 72.3"/>
        <polygon class="cls-4" points="471.49 68.21 472.63 68.75 470.7 72.84 469.56 72.3 470.26 70.81 467.32 69.42 466.88 70.36 465.74 69.82 467.15 66.83 468.29 67.37 467.85 68.3 470.79 69.69 471.49 68.21"/>
        <polygon class="cls-4" points="473.42 64.12 474.56 64.66 472.63 68.75 471.49 68.21 472.19 66.72 469.25 65.33 468.81 66.27 467.67 65.73 469.08 62.74 470.22 63.28 469.78 64.21 472.72 65.6 473.42 64.12"/>
        <polygon class="cls-4" points="475.34 60.03 476.49 60.57 474.56 64.66 473.42 64.12 474.12 62.63 471.18 61.24 470.74 62.18 469.59 61.64 471.01 58.65 472.15 59.19 471.71 60.12 474.65 61.51 475.34 60.03"/>
        <polygon class="cls-4" points="477.27 55.94 478.42 56.48 476.49 60.57 475.34 60.03 476.05 58.54 473.11 57.15 472.67 58.09 471.52 57.55 472.93 54.56 474.08 55.1 473.64 56.04 476.58 57.42 477.27 55.94"/>
        <polygon class="cls-4" points="479.2 51.86 480.35 52.39 478.42 56.48 477.27 55.94 477.98 54.45 475.04 53.07 474.6 54 473.45 53.46 474.86 50.47 476.01 51.01 475.56 51.95 478.51 53.33 479.2 51.86"/>
        <polygon class="cls-4" points="481.13 47.77 482.27 48.31 480.35 52.39 479.2 51.86 479.91 50.36 476.97 48.98 476.52 49.91 475.38 49.37 476.79 46.38 477.94 46.92 477.49 47.86 480.43 49.25 481.13 47.77"/>
        <polygon class="cls-4" points="483.06 43.68 484.2 44.22 482.27 48.31 481.13 47.77 481.84 46.28 478.9 44.89 478.45 45.82 477.31 45.28 478.72 42.29 479.86 42.83 479.42 43.77 482.36 45.16 483.06 43.68"/>
        <polygon class="cls-4" points="484.99 39.59 486.13 40.13 484.2 44.22 483.06 43.68 483.77 42.19 480.82 40.8 480.38 41.73 479.24 41.2 480.65 38.21 481.79 38.74 481.35 39.68 484.29 41.07 484.99 39.59"/>
        <polygon class="cls-4" points="486.92 35.5 488.06 36.04 486.13 40.13 484.99 39.59 485.69 38.1 482.75 36.71 482.31 37.65 481.17 37.11 482.58 34.12 483.72 34.66 483.28 35.59 486.22 36.98 486.92 35.5"/>
        <polygon class="cls-4" points="488.85 31.41 489.99 31.95 488.06 36.04 486.92 35.5 487.62 34.01 484.68 32.62 484.24 33.56 483.1 33.02 484.51 30.03 485.65 30.57 485.21 31.5 488.15 32.89 488.85 31.41"/>
        <polygon class="cls-4" points="490.78 27.32 491.92 27.86 489.99 31.95 488.85 31.41 489.55 29.92 486.61 28.53 486.17 29.47 485.03 28.93 486.44 25.94 487.58 26.48 487.14 27.41 490.08 28.8 490.78 27.32"/>
        <polygon class="cls-4" points="492.71 23.23 493.85 23.77 491.92 27.86 490.78 27.32 491.48 25.83 488.54 24.44 488.1 25.38 486.96 24.84 488.37 21.85 489.51 22.39 489.07 23.32 492.01 24.71 492.71 23.23"/>
        <polygon class="cls-4" points="494.64 19.14 495.78 19.68 493.85 23.77 492.71 23.23 493.41 21.74 490.47 20.35 490.03 21.29 488.89 20.75 490.3 17.76 491.44 18.3 491 19.24 493.94 20.62 494.64 19.14"/>
        <polygon class="cls-4" points="496.57 15.06 497.71 15.59 495.78 19.68 494.64 19.14 495.34 17.65 492.4 16.27 491.96 17.2 490.82 16.66 492.23 13.67 493.37 14.21 492.93 15.15 495.87 16.53 496.57 15.06"/>
        <polygon class="cls-4" points="498.5 10.97 499.64 11.51 497.71 15.59 496.57 15.06 497.27 13.56 494.33 12.18 493.89 13.11 492.75 12.57 494.16 9.58 495.3 10.12 494.86 11.06 497.8 12.45 498.5 10.97"/>
        <polygon class="cls-4" points="489.79 4.53 489.79 3.26 494.41 3.26 494.41 4.53 492.73 4.53 492.73 7.78 493.78 7.78 493.78 9.04 490.4 9.04 490.4 7.78 491.46 7.78 491.46 4.53 489.79 4.53"/>
        <polygon class="cls-4" points="485.16 4.53 485.16 3.26 489.79 3.26 489.79 4.53 488.1 4.53 488.1 7.78 489.16 7.78 489.16 9.04 485.78 9.04 485.78 7.78 486.83 7.78 486.83 4.53 485.16 4.53"/>
        <polygon class="cls-4" points="480.54 4.53 480.54 3.26 485.16 3.26 485.16 4.53 483.47 4.53 483.47 7.78 484.53 7.78 484.53 9.04 481.15 9.04 481.15 7.78 482.21 7.78 482.21 4.53 480.54 4.53"/>
        <polygon class="cls-4" points="475.91 4.53 475.91 3.26 480.54 3.26 480.54 4.53 478.85 4.53 478.85 7.78 479.91 7.78 479.91 9.04 476.52 9.04 476.52 7.78 477.58 7.78 477.58 4.53 475.91 4.53"/>
        <polygon class="cls-4" points="471.28 4.53 471.28 3.26 475.91 3.26 475.91 4.53 474.22 4.53 474.22 7.78 475.28 7.78 475.28 9.04 471.9 9.04 471.9 7.78 472.96 7.78 472.96 4.53 471.28 4.53"/>
        <polygon class="cls-4" points="466.66 4.53 466.66 3.26 471.28 3.26 471.28 4.53 469.6 4.53 469.6 7.78 470.66 7.78 470.66 9.04 467.27 9.04 467.27 7.78 468.33 7.78 468.33 4.53 466.66 4.53"/>
        <polygon class="cls-4" points="462.03 4.53 462.03 3.26 466.66 3.26 466.66 4.53 464.97 4.53 464.97 7.78 466.03 7.78 466.03 9.04 462.65 9.04 462.65 7.78 463.71 7.78 463.71 4.53 462.03 4.53"/>
        <polygon class="cls-4" points="457.41 4.53 457.41 3.26 462.03 3.26 462.03 4.53 460.35 4.53 460.35 7.78 461.4 7.78 461.4 9.04 458.02 9.04 458.02 7.78 459.08 7.78 459.08 4.53 457.41 4.53"/>
        <polygon class="cls-4" points="452.78 4.53 452.78 3.26 457.41 3.26 457.41 4.53 455.72 4.53 455.72 7.78 456.78 7.78 456.78 9.04 453.4 9.04 453.4 7.78 454.45 7.78 454.45 4.53 452.78 4.53"/>
        <polygon class="cls-4" points="448.16 4.53 448.16 3.26 452.78 3.26 452.78 4.53 451.09 4.53 451.09 7.78 452.15 7.78 452.15 9.04 448.77 9.04 448.77 7.78 449.83 7.78 449.83 4.53 448.16 4.53"/>
        <polygon class="cls-4" points="443.53 4.53 443.53 3.26 448.16 3.26 448.16 4.53 446.47 4.53 446.47 7.78 447.53 7.78 447.53 9.04 444.14 9.04 444.14 7.78 445.2 7.78 445.2 4.53 443.53 4.53"/>
        <polygon class="cls-4" points="438.9 4.53 438.9 3.26 443.53 3.26 443.53 4.53 441.84 4.53 441.84 7.78 442.9 7.78 442.9 9.04 439.52 9.04 439.52 7.78 440.58 7.78 440.58 4.53 438.9 4.53"/>
        <polygon class="cls-4" points="434.28 4.53 434.28 3.26 438.9 3.26 438.9 4.53 437.22 4.53 437.22 7.78 438.28 7.78 438.28 9.04 434.89 9.04 434.89 7.78 435.95 7.78 435.95 4.53 434.28 4.53"/>
        <polygon class="cls-4" points="429.65 4.53 429.65 3.26 434.28 3.26 434.28 4.53 432.59 4.53 432.59 7.78 433.65 7.78 433.65 9.04 430.27 9.04 430.27 7.78 431.33 7.78 431.33 4.53 429.65 4.53"/>
        <polygon class="cls-4" points="425.03 4.53 425.03 3.26 429.65 3.26 429.65 4.53 427.97 4.53 427.97 7.78 429.02 7.78 429.02 9.04 425.64 9.04 425.64 7.78 426.7 7.78 426.7 4.53 425.03 4.53"/>
        <polygon class="cls-4" points="420.4 4.53 420.4 3.26 425.03 3.26 425.03 4.53 423.34 4.53 423.34 7.78 424.4 7.78 424.4 9.04 421.02 9.04 421.02 7.78 422.07 7.78 422.07 4.53 420.4 4.53"/>
        <polygon class="cls-4" points="415.78 4.53 415.78 3.26 420.4 3.26 420.4 4.53 418.71 4.53 418.71 7.78 419.77 7.78 419.77 9.04 416.39 9.04 416.39 7.78 417.45 7.78 417.45 4.53 415.78 4.53"/>
        <polygon class="cls-4" points="411.15 4.53 411.15 3.26 415.78 3.26 415.78 4.53 414.09 4.53 414.09 7.78 415.15 7.78 415.15 9.04 411.76 9.04 411.76 7.78 412.82 7.78 412.82 4.53 411.15 4.53"/>
        <polygon class="cls-4" points="406.52 4.53 406.52 3.26 411.15 3.26 411.15 4.53 409.46 4.53 409.46 7.78 410.52 7.78 410.52 9.04 407.14 9.04 407.14 7.78 408.2 7.78 408.2 4.53 406.52 4.53"/>
        <polygon class="cls-4" points="401.9 4.53 401.9 3.26 406.52 3.26 406.52 4.53 404.84 4.53 404.84 7.78 405.9 7.78 405.9 9.04 402.51 9.04 402.51 7.78 403.57 7.78 403.57 4.53 401.9 4.53"/>
        <polygon class="cls-4" points="397.27 4.53 397.27 3.26 401.9 3.26 401.9 4.53 400.21 4.53 400.21 7.78 401.27 7.78 401.27 9.04 397.89 9.04 397.89 7.78 398.95 7.78 398.95 4.53 397.27 4.53"/>
        <polygon class="cls-4" points="392.65 4.53 392.65 3.26 397.27 3.26 397.27 4.53 395.59 4.53 395.59 7.78 396.64 7.78 396.64 9.04 393.26 9.04 393.26 7.78 394.32 7.78 394.32 4.53 392.65 4.53"/>
        <polygon class="cls-4" points="388.02 4.53 388.02 3.26 392.65 3.26 392.65 4.53 390.96 4.53 390.96 7.78 392.02 7.78 392.02 9.04 388.64 9.04 388.64 7.78 389.69 7.78 389.69 4.53 388.02 4.53"/>
        <polygon class="cls-4" points="383.4 4.53 383.4 3.26 388.02 3.26 388.02 4.53 386.33 4.53 386.33 7.78 387.39 7.78 387.39 9.04 384.01 9.04 384.01 7.78 385.07 7.78 385.07 4.53 383.4 4.53"/>
        <polygon class="cls-4" points="378.77 4.53 378.77 3.26 383.4 3.26 383.4 4.53 381.71 4.53 381.71 7.78 382.77 7.78 382.77 9.04 379.38 9.04 379.38 7.78 380.44 7.78 380.44 4.53 378.77 4.53"/>
        <polygon class="cls-4" points="374.14 4.53 374.14 3.26 378.77 3.26 378.77 4.53 377.08 4.53 377.08 7.78 378.14 7.78 378.14 9.04 374.76 9.04 374.76 7.78 375.82 7.78 375.82 4.53 374.14 4.53"/>
        <polygon class="cls-4" points="369.52 4.53 369.52 3.26 374.14 3.26 374.14 4.53 372.46 4.53 372.46 7.78 373.52 7.78 373.52 9.04 370.13 9.04 370.13 7.78 371.19 7.78 371.19 4.53 369.52 4.53"/>
        <polygon class="cls-4" points="364.89 4.53 364.89 3.26 369.52 3.26 369.52 4.53 367.83 4.53 367.83 7.78 368.89 7.78 368.89 9.04 365.51 9.04 365.51 7.78 366.57 7.78 366.57 4.53 364.89 4.53"/>
        <polygon class="cls-4" points="360.27 4.53 360.27 3.26 364.89 3.26 364.89 4.53 363.21 4.53 363.21 7.78 364.26 7.78 364.26 9.04 360.88 9.04 360.88 7.78 361.94 7.78 361.94 4.53 360.27 4.53"/>
        <polygon class="cls-4" points="355.64 4.53 355.64 3.26 360.27 3.26 360.27 4.53 358.58 4.53 358.58 7.78 359.64 7.78 359.64 9.04 356.26 9.04 356.26 7.78 357.32 7.78 357.32 4.53 355.64 4.53"/>
        <polygon class="cls-4" points="351.02 4.53 351.02 3.26 355.64 3.26 355.64 4.53 353.95 4.53 353.95 7.78 355.01 7.78 355.01 9.04 351.63 9.04 351.63 7.78 352.69 7.78 352.69 4.53 351.02 4.53"/>
        <polygon class="cls-4" points="346.39 4.53 346.39 3.26 351.02 3.26 351.02 4.53 349.33 4.53 349.33 7.78 350.39 7.78 350.39 9.04 347.01 9.04 347.01 7.78 348.06 7.78 348.06 4.53 346.39 4.53"/>
        <polygon class="cls-4" points="341.76 4.53 341.76 3.26 346.39 3.26 346.39 4.53 344.7 4.53 344.7 7.78 345.76 7.78 345.76 9.04 342.38 9.04 342.38 7.78 343.44 7.78 343.44 4.53 341.76 4.53"/>
        <polygon class="cls-4" points="337.14 4.53 337.14 3.26 341.76 3.26 341.76 4.53 340.08 4.53 340.08 7.78 341.14 7.78 341.14 9.04 337.75 9.04 337.75 7.78 338.81 7.78 338.81 4.53 337.14 4.53"/>
        <polygon class="cls-4" points="332.51 4.53 332.51 3.26 337.14 3.26 337.14 4.53 335.45 4.53 335.45 7.78 336.51 7.78 336.51 9.04 333.13 9.04 333.13 7.78 334.19 7.78 334.19 4.53 332.51 4.53"/>
        <polygon class="cls-4" points="327.89 4.53 327.89 3.26 332.51 3.26 332.51 4.53 330.83 4.53 330.83 7.78 331.89 7.78 331.89 9.04 328.5 9.04 328.5 7.78 329.56 7.78 329.56 4.53 327.89 4.53"/>
        <polygon class="cls-4" points="323.26 4.53 323.26 3.26 327.89 3.26 327.89 4.53 326.2 4.53 326.2 7.78 327.26 7.78 327.26 9.04 323.88 9.04 323.88 7.78 324.94 7.78 324.94 4.53 323.26 4.53"/>
        <polygon class="cls-4" points="318.64 4.53 318.64 3.26 323.26 3.26 323.26 4.53 321.58 4.53 321.58 7.78 322.63 7.78 322.63 9.04 319.25 9.04 319.25 7.78 320.31 7.78 320.31 4.53 318.64 4.53"/>
        <polygon class="cls-4" points="314.01 4.53 314.01 3.26 318.64 3.26 318.64 4.53 316.95 4.53 316.95 7.78 318.01 7.78 318.01 9.04 314.63 9.04 314.63 7.78 315.68 7.78 315.68 4.53 314.01 4.53"/>
        <polygon class="cls-4" points="309.38 4.53 309.38 3.26 314.01 3.26 314.01 4.53 312.32 4.53 312.32 7.78 313.38 7.78 313.38 9.04 310 9.04 310 7.78 311.06 7.78 311.06 4.53 309.38 4.53"/>
        <polygon class="cls-4" points="304.76 4.53 304.76 3.26 309.38 3.26 309.38 4.53 307.7 4.53 307.7 7.78 308.76 7.78 308.76 9.04 305.37 9.04 305.37 7.78 306.43 7.78 306.43 4.53 304.76 4.53"/>
        <polygon class="cls-4" points="300.13 4.53 300.13 3.26 304.76 3.26 304.76 4.53 303.07 4.53 303.07 7.78 304.13 7.78 304.13 9.04 300.75 9.04 300.75 7.78 301.81 7.78 301.81 4.53 300.13 4.53"/>
        <polygon class="cls-4" points="295.51 4.53 295.51 3.26 300.13 3.26 300.13 4.53 298.45 4.53 298.45 7.78 299.51 7.78 299.51 9.04 296.12 9.04 296.12 7.78 297.18 7.78 297.18 4.53 295.51 4.53"/>
        <polygon class="cls-4" points="290.88 4.53 290.88 3.26 295.51 3.26 295.51 4.53 293.82 4.53 293.82 7.78 294.88 7.78 294.88 9.04 291.5 9.04 291.5 7.78 292.56 7.78 292.56 4.53 290.88 4.53"/>
        <polygon class="cls-4" points="286.26 4.53 286.26 3.26 290.88 3.26 290.88 4.53 289.2 4.53 289.2 7.78 290.25 7.78 290.25 9.04 286.87 9.04 286.87 7.78 287.93 7.78 287.93 4.53 286.26 4.53"/>
        <polygon class="cls-4" points="281.63 4.53 281.63 3.26 286.26 3.26 286.26 4.53 284.57 4.53 284.57 7.78 285.63 7.78 285.63 9.04 282.25 9.04 282.25 7.78 283.3 7.78 283.3 4.53 281.63 4.53"/>
        <polygon class="cls-4" points="277.01 4.53 277.01 3.26 281.63 3.26 281.63 4.53 279.94 4.53 279.94 7.78 281 7.78 281 9.04 277.62 9.04 277.62 7.78 278.68 7.78 278.68 4.53 277.01 4.53"/>
        <polygon class="cls-4" points="272.38 4.53 272.38 3.26 277.01 3.26 277.01 4.53 275.32 4.53 275.32 7.78 276.38 7.78 276.38 9.04 272.99 9.04 272.99 7.78 274.05 7.78 274.05 4.53 272.38 4.53"/>
        <polygon class="cls-4" points="267.75 4.53 267.75 3.26 272.38 3.26 272.38 4.53 270.69 4.53 270.69 7.78 271.75 7.78 271.75 9.04 268.37 9.04 268.37 7.78 269.43 7.78 269.43 4.53 267.75 4.53"/>
        <polygon class="cls-4" points="263.13 4.53 263.13 3.26 267.75 3.26 267.75 4.53 266.07 4.53 266.07 7.78 267.13 7.78 267.13 9.04 263.74 9.04 263.74 7.78 264.8 7.78 264.8 4.53 263.13 4.53"/>
        <polygon class="cls-4" points="258.5 4.53 258.5 3.26 263.13 3.26 263.13 4.53 261.44 4.53 261.44 7.78 262.5 7.78 262.5 9.04 259.12 9.04 259.12 7.78 260.18 7.78 260.18 4.53 258.5 4.53"/>
        <polygon class="cls-4" points="253.88 4.53 253.88 3.26 258.5 3.26 258.5 4.53 256.82 4.53 256.82 7.78 257.87 7.78 257.87 9.04 254.49 9.04 254.49 7.78 255.55 7.78 255.55 4.53 253.88 4.53"/>
        <polygon class="cls-4" points="249.25 4.53 249.25 3.26 253.88 3.26 253.88 4.53 252.19 4.53 252.19 7.78 253.25 7.78 253.25 9.04 249.87 9.04 249.87 7.78 250.92 7.78 250.92 4.53 249.25 4.53"/>
        <polygon class="cls-4" points="244.63 4.53 244.63 3.26 249.25 3.26 249.25 4.53 247.56 4.53 247.56 7.78 248.62 7.78 248.62 9.04 245.24 9.04 245.24 7.78 246.3 7.78 246.3 4.53 244.63 4.53"/>
        <polygon class="cls-4" points="240 4.53 240 3.26 244.63 3.26 244.63 4.53 242.94 4.53 242.94 7.78 244 7.78 244 9.04 240.61 9.04 240.61 7.78 241.67 7.78 241.67 4.53 240 4.53"/>
        <polygon class="cls-4" points="235.37 4.53 235.37 3.26 240 3.26 240 4.53 238.31 4.53 238.31 7.78 239.37 7.78 239.37 9.04 235.99 9.04 235.99 7.78 237.05 7.78 237.05 4.53 235.37 4.53"/>
        <polygon class="cls-4" points="230.75 4.53 230.75 3.26 235.37 3.26 235.37 4.53 233.69 4.53 233.69 7.78 234.75 7.78 234.75 9.04 231.36 9.04 231.36 7.78 232.42 7.78 232.42 4.53 230.75 4.53"/>
        <polygon class="cls-4" points="226.12 4.53 226.12 3.26 230.75 3.26 230.75 4.53 229.06 4.53 229.06 7.78 230.12 7.78 230.12 9.04 226.74 9.04 226.74 7.78 227.8 7.78 227.8 4.53 226.12 4.53"/>
        <polygon class="cls-4" points="221.5 4.53 221.5 3.26 226.12 3.26 226.12 4.53 224.44 4.53 224.44 7.78 225.49 7.78 225.49 9.04 222.11 9.04 222.11 7.78 223.17 7.78 223.17 4.53 221.5 4.53"/>
        <polygon class="cls-4" points="216.87 4.53 216.87 3.26 221.5 3.26 221.5 4.53 219.81 4.53 219.81 7.78 220.87 7.78 220.87 9.04 217.49 9.04 217.49 7.78 218.54 7.78 218.54 4.53 216.87 4.53"/>
        <polygon class="cls-4" points="212.25 4.53 212.25 3.26 216.87 3.26 216.87 4.53 215.18 4.53 215.18 7.78 216.24 7.78 216.24 9.04 212.86 9.04 212.86 7.78 213.92 7.78 213.92 4.53 212.25 4.53"/>
        <polygon class="cls-4" points="207.62 4.53 207.62 3.26 212.25 3.26 212.25 4.53 210.56 4.53 210.56 7.78 211.62 7.78 211.62 9.04 208.23 9.04 208.23 7.78 209.29 7.78 209.29 4.53 207.62 4.53"/>
        <polygon class="cls-4" points="202.99 4.53 202.99 3.26 207.62 3.26 207.62 4.53 205.93 4.53 205.93 7.78 206.99 7.78 206.99 9.04 203.61 9.04 203.61 7.78 204.67 7.78 204.67 4.53 202.99 4.53"/>
        <polygon class="cls-4" points="198.37 4.53 198.37 3.26 202.99 3.26 202.99 4.53 201.31 4.53 201.31 7.78 202.37 7.78 202.37 9.04 198.98 9.04 198.98 7.78 200.04 7.78 200.04 4.53 198.37 4.53"/>
        <polygon class="cls-4" points="193.74 4.53 193.74 3.26 198.37 3.26 198.37 4.53 196.68 4.53 196.68 7.78 197.74 7.78 197.74 9.04 194.36 9.04 194.36 7.78 195.42 7.78 195.42 4.53 193.74 4.53"/>
        <polygon class="cls-4" points="189.12 4.53 189.12 3.26 193.74 3.26 193.74 4.53 192.06 4.53 192.06 7.78 193.11 7.78 193.11 9.04 189.73 9.04 189.73 7.78 190.79 7.78 190.79 4.53 189.12 4.53"/>
        <polygon class="cls-4" points="184.49 4.53 184.49 3.26 189.12 3.26 189.12 4.53 187.43 4.53 187.43 7.78 188.49 7.78 188.49 9.04 185.11 9.04 185.11 7.78 186.16 7.78 186.16 4.53 184.49 4.53"/>
        <polygon class="cls-4" points="179.87 4.53 179.87 3.26 184.49 3.26 184.49 4.53 182.8 4.53 182.8 7.78 183.86 7.78 183.86 9.04 180.48 9.04 180.48 7.78 181.54 7.78 181.54 4.53 179.87 4.53"/>
        <polygon class="cls-4" points="175.24 4.53 175.24 3.26 179.87 3.26 179.87 4.53 178.18 4.53 178.18 7.78 179.24 7.78 179.24 9.04 175.85 9.04 175.85 7.78 176.91 7.78 176.91 4.53 175.24 4.53"/>
        <polygon class="cls-4" points="170.61 4.53 170.61 3.26 175.24 3.26 175.24 4.53 173.55 4.53 173.55 7.78 174.61 7.78 174.61 9.04 171.23 9.04 171.23 7.78 172.29 7.78 172.29 4.53 170.61 4.53"/>
        <polygon class="cls-4" points="165.99 4.53 165.99 3.26 170.61 3.26 170.61 4.53 168.93 4.53 168.93 7.78 169.99 7.78 169.99 9.04 166.6 9.04 166.6 7.78 167.66 7.78 167.66 4.53 165.99 4.53"/>
        <polygon class="cls-4" points="161.36 4.53 161.36 3.26 165.99 3.26 165.99 4.53 164.3 4.53 164.3 7.78 165.36 7.78 165.36 9.04 161.98 9.04 161.98 7.78 163.04 7.78 163.04 4.53 161.36 4.53"/>
        <polygon class="cls-4" points="156.74 4.53 156.74 3.26 161.36 3.26 161.36 4.53 159.68 4.53 159.68 7.78 160.73 7.78 160.73 9.04 157.35 9.04 157.35 7.78 158.41 7.78 158.41 4.53 156.74 4.53"/>
        <polygon class="cls-4" points="152.11 4.53 152.11 3.26 156.74 3.26 156.74 4.53 155.05 4.53 155.05 7.78 156.11 7.78 156.11 9.04 152.73 9.04 152.73 7.78 153.78 7.78 153.78 4.53 152.11 4.53"/>
        <polygon class="cls-4" points="147.49 4.53 147.49 3.26 152.11 3.26 152.11 4.53 150.42 4.53 150.42 7.78 151.48 7.78 151.48 9.04 148.1 9.04 148.1 7.78 149.16 7.78 149.16 4.53 147.49 4.53"/>
        <polygon class="cls-4" points="142.86 4.53 142.86 3.26 147.49 3.26 147.49 4.53 145.8 4.53 145.8 7.78 146.86 7.78 146.86 9.04 143.47 9.04 143.47 7.78 144.53 7.78 144.53 4.53 142.86 4.53"/>
        <polygon class="cls-4" points="138.23 4.53 138.23 3.26 142.86 3.26 142.86 4.53 141.17 4.53 141.17 7.78 142.23 7.78 142.23 9.04 138.85 9.04 138.85 7.78 139.91 7.78 139.91 4.53 138.23 4.53"/>
        <polygon class="cls-4" points="133.61 4.53 133.61 3.26 138.23 3.26 138.23 4.53 136.55 4.53 136.55 7.78 137.61 7.78 137.61 9.04 134.22 9.04 134.22 7.78 135.28 7.78 135.28 4.53 133.61 4.53"/>
        <polygon class="cls-4" points="128.98 4.53 128.98 3.26 133.61 3.26 133.61 4.53 131.92 4.53 131.92 7.78 132.98 7.78 132.98 9.04 129.6 9.04 129.6 7.78 130.66 7.78 130.66 4.53 128.98 4.53"/>
        <polygon class="cls-4" points="124.36 4.53 124.36 3.26 128.98 3.26 128.98 4.53 127.3 4.53 127.3 7.78 128.35 7.78 128.35 9.04 124.97 9.04 124.97 7.78 126.03 7.78 126.03 4.53 124.36 4.53"/>
        <polygon class="cls-4" points="119.73 4.53 119.73 3.26 124.36 3.26 124.36 4.53 122.67 4.53 122.67 7.78 123.73 7.78 123.73 9.04 120.35 9.04 120.35 7.78 121.41 7.78 121.41 4.53 119.73 4.53"/>
        <polygon class="cls-4" points="115.11 4.53 115.11 3.26 119.73 3.26 119.73 4.53 118.04 4.53 118.04 7.78 119.1 7.78 119.1 9.04 115.72 9.04 115.72 7.78 116.78 7.78 116.78 4.53 115.11 4.53"/>
        <polygon class="cls-4" points="110.48 4.53 110.48 3.26 115.11 3.26 115.11 4.53 113.42 4.53 113.42 7.78 114.48 7.78 114.48 9.04 111.1 9.04 111.1 7.78 112.15 7.78 112.15 4.53 110.48 4.53"/>
        <polygon class="cls-4" points="105.85 4.53 105.85 3.26 110.48 3.26 110.48 4.53 108.79 4.53 108.79 7.78 109.85 7.78 109.85 9.04 106.47 9.04 106.47 7.78 107.53 7.78 107.53 4.53 105.85 4.53"/>
        <polygon class="cls-4" points="101.23 4.53 101.23 3.26 105.85 3.26 105.85 4.53 104.17 4.53 104.17 7.78 105.23 7.78 105.23 9.04 101.84 9.04 101.84 7.78 102.9 7.78 102.9 4.53 101.23 4.53"/>
        <polygon class="cls-4" points="96.6 4.53 96.6 3.26 101.23 3.26 101.23 4.53 99.54 4.53 99.54 7.78 100.6 7.78 100.6 9.04 97.22 9.04 97.22 7.78 98.28 7.78 98.28 4.53 96.6 4.53"/>
        <polygon class="cls-4" points="91.98 4.53 91.98 3.26 96.6 3.26 96.6 4.53 94.92 4.53 94.92 7.78 95.98 7.78 95.98 9.04 92.59 9.04 92.59 7.78 93.65 7.78 93.65 4.53 91.98 4.53"/>
        <polygon class="cls-4" points="87.35 4.53 87.35 3.26 91.98 3.26 91.98 4.53 90.29 4.53 90.29 7.78 91.35 7.78 91.35 9.04 87.97 9.04 87.97 7.78 89.03 7.78 89.03 4.53 87.35 4.53"/>
        <polygon class="cls-4" points="82.73 4.53 82.73 3.26 87.35 3.26 87.35 4.53 85.67 4.53 85.67 7.78 86.72 7.78 86.72 9.04 83.34 9.04 83.34 7.78 84.4 7.78 84.4 4.53 82.73 4.53"/>
        <polygon class="cls-4" points="78.1 4.53 78.1 3.26 82.73 3.26 82.73 4.53 81.04 4.53 81.04 7.78 82.1 7.78 82.1 9.04 78.72 9.04 78.72 7.78 79.77 7.78 79.77 4.53 78.1 4.53"/>
        <polygon class="cls-4" points="73.47 4.53 73.47 3.26 78.1 3.26 78.1 4.53 76.41 4.53 76.41 7.78 77.47 7.78 77.47 9.04 74.09 9.04 74.09 7.78 75.15 7.78 75.15 4.53 73.47 4.53"/>
        <polygon class="cls-4" points="68.85 4.53 68.85 3.26 73.47 3.26 73.47 4.53 71.79 4.53 71.79 7.78 72.85 7.78 72.85 9.04 69.46 9.04 69.46 7.78 70.52 7.78 70.52 4.53 68.85 4.53"/>
        <polygon class="cls-4" points="64.22 4.53 64.22 3.26 68.85 3.26 68.85 4.53 67.16 4.53 67.16 7.78 68.22 7.78 68.22 9.04 64.84 9.04 64.84 7.78 65.9 7.78 65.9 4.53 64.22 4.53"/>
        <polygon class="cls-4" points="59.6 4.53 59.6 3.26 64.22 3.26 64.22 4.53 62.54 4.53 62.54 7.78 63.6 7.78 63.6 9.04 60.21 9.04 60.21 7.78 61.27 7.78 61.27 4.53 59.6 4.53"/>
        <polygon class="cls-4" points="54.97 4.53 54.97 3.26 59.6 3.26 59.6 4.53 57.91 4.53 57.91 7.78 58.97 7.78 58.97 9.04 55.59 9.04 55.59 7.78 56.65 7.78 56.65 4.53 54.97 4.53"/>
        <polygon class="cls-4" points="50.35 4.53 50.35 3.26 54.97 3.26 54.97 4.53 53.29 4.53 53.29 7.78 54.34 7.78 54.34 9.04 50.96 9.04 50.96 7.78 52.02 7.78 52.02 4.53 50.35 4.53"/>
        <polygon class="cls-4" points="45.72 4.53 45.72 3.26 50.35 3.26 50.35 4.53 48.66 4.53 48.66 7.78 49.72 7.78 49.72 9.04 46.34 9.04 46.34 7.78 47.39 7.78 47.39 4.53 45.72 4.53"/>
        <polygon class="cls-4" points="41.1 4.53 41.1 3.26 45.72 3.26 45.72 4.53 44.03 4.53 44.03 7.78 45.09 7.78 45.09 9.04 41.71 9.04 41.71 7.78 42.77 7.78 42.77 4.53 41.1 4.53"/>
        <polygon class="cls-4" points="36.47 4.53 36.47 3.26 41.1 3.26 41.1 4.53 39.41 4.53 39.41 7.78 40.47 7.78 40.47 9.04 37.08 9.04 37.08 7.78 38.14 7.78 38.14 4.53 36.47 4.53"/>
        <polygon class="cls-4" points="31.84 4.53 31.84 3.26 36.47 3.26 36.47 4.53 34.78 4.53 34.78 7.78 35.84 7.78 35.84 9.04 32.46 9.04 32.46 7.78 33.52 7.78 33.52 4.53 31.84 4.53"/>
        <polygon class="cls-4" points="27.22 4.53 27.22 3.26 31.84 3.26 31.84 4.53 30.16 4.53 30.16 7.78 31.22 7.78 31.22 9.04 27.83 9.04 27.83 7.78 28.89 7.78 28.89 4.53 27.22 4.53"/>
        <polygon class="cls-4" points="22.59 4.53 22.59 3.26 27.22 3.26 27.22 4.53 25.53 4.53 25.53 7.78 26.59 7.78 26.59 9.04 23.21 9.04 23.21 7.78 24.27 7.78 24.27 4.53 22.59 4.53"/>
        <polygon class="cls-4" points="17.97 4.53 17.97 3.26 22.59 3.26 22.59 4.53 20.91 4.53 20.91 7.78 21.96 7.78 21.96 9.04 18.58 9.04 18.58 7.78 19.64 7.78 19.64 4.53 17.97 4.53"/>
        <polygon class="cls-4" points="13.34 4.53 13.34 3.26 17.97 3.26 17.97 4.53 16.28 4.53 16.28 7.78 17.34 7.78 17.34 9.04 13.96 9.04 13.96 7.78 15.01 7.78 15.01 4.53 13.34 4.53"/>
        <polygon class="cls-4" points="8.72 4.53 8.72 3.26 13.34 3.26 13.34 4.53 11.65 4.53 11.65 7.78 12.71 7.78 12.71 9.04 9.33 9.04 9.33 7.78 10.39 7.78 10.39 4.53 8.72 4.53"/>
        <polygon class="cls-4" points="4.2 13.67 2.94 13.67 2.94 9.04 4.2 9.04 4.2 10.73 7.45 10.73 7.45 9.67 8.72 9.67 8.72 13.06 7.45 13.06 7.45 12 4.2 12 4.2 13.67"/>
        <polygon class="cls-4" points="4.2 18.31 2.94 18.31 2.94 13.67 4.2 13.67 4.2 15.36 7.45 15.36 7.45 14.3 8.72 14.3 8.72 17.69 7.45 17.69 7.45 16.63 4.2 16.63 4.2 18.31"/>
        <polygon class="cls-4" points="4.2 22.94 2.94 22.94 2.94 18.31 4.2 18.31 4.2 20 7.45 20 7.45 18.94 8.72 18.94 8.72 22.33 7.45 22.33 7.45 21.27 4.2 21.27 4.2 22.94"/>
        <polygon class="cls-4" points="4.2 27.58 2.94 27.58 2.94 22.94 4.2 22.94 4.2 24.63 7.45 24.63 7.45 23.57 8.72 23.57 8.72 26.96 7.45 26.96 7.45 25.9 4.2 25.9 4.2 27.58"/>
        <polygon class="cls-4" points="4.2 32.21 2.94 32.21 2.94 27.58 4.2 27.58 4.2 29.27 7.45 29.27 7.45 28.21 8.72 28.21 8.72 31.59 7.45 31.59 7.45 30.53 4.2 30.53 4.2 32.21"/>
        <polygon class="cls-4" points="4.2 36.84 2.94 36.84 2.94 32.21 4.2 32.21 4.2 33.9 7.45 33.9 7.45 32.84 8.72 32.84 8.72 36.23 7.45 36.23 7.45 35.17 4.2 35.17 4.2 36.84"/>
        <polygon class="cls-4" points="4.2 41.48 2.94 41.48 2.94 36.84 4.2 36.84 4.2 38.53 7.45 38.53 7.45 37.47 8.72 37.47 8.72 40.86 7.45 40.86 7.45 39.8 4.2 39.8 4.2 41.48"/>
        <polygon class="cls-4" points="4.2 46.11 2.94 46.11 2.94 41.48 4.2 41.48 4.2 43.17 7.45 43.17 7.45 42.11 8.72 42.11 8.72 45.5 7.45 45.5 7.45 44.44 4.2 44.44 4.2 46.11"/>
        <polygon class="cls-4" points="4.2 50.75 2.94 50.75 2.94 46.11 4.2 46.11 4.2 47.8 7.45 47.8 7.45 46.74 8.72 46.74 8.72 50.13 7.45 50.13 7.45 49.07 4.2 49.07 4.2 50.75"/>
        <polygon class="cls-4" points="4.2 55.38 2.94 55.38 2.94 50.75 4.2 50.75 4.2 52.44 7.45 52.44 7.45 51.38 8.72 51.38 8.72 54.76 7.45 54.76 7.45 53.7 4.2 53.7 4.2 55.38"/>
        <polygon class="cls-4" points="4.2 60.01 2.94 60.01 2.94 55.38 4.2 55.38 4.2 57.07 7.45 57.07 7.45 56.01 8.72 56.01 8.72 59.4 7.45 59.4 7.45 58.34 4.2 58.34 4.2 60.01"/>
        <polygon class="cls-4" points="4.2 64.65 2.94 64.65 2.94 60.01 4.2 60.01 4.2 61.7 7.45 61.7 7.45 60.64 8.72 60.64 8.72 64.03 7.45 64.03 7.45 62.97 4.2 62.97 4.2 64.65"/>
        <polygon class="cls-4" points="4.2 69.28 2.94 69.28 2.94 64.65 4.2 64.65 4.2 66.34 7.45 66.34 7.45 65.28 8.72 65.28 8.72 68.67 7.45 68.67 7.45 67.61 4.2 67.61 4.2 69.28"/>
        <polygon class="cls-4" points="4.2 73.92 2.94 73.92 2.94 69.28 4.2 69.28 4.2 70.97 7.45 70.97 7.45 69.91 8.72 69.91 8.72 73.3 7.45 73.3 7.45 72.24 4.2 72.24 4.2 73.92"/>
        <polygon class="cls-4" points="4.2 78.55 2.94 78.55 2.94 73.92 4.2 73.92 4.2 75.61 7.45 75.61 7.45 74.55 8.72 74.55 8.72 77.94 7.45 77.94 7.45 76.87 4.2 76.87 4.2 78.55"/>
      </g>
    </g>
  </g>
  <g id="Per_bg_social_Media" data-name="Per bg social Media">
    <g id="_8_-_top_left_bg_social_media-2" data-name="%8 - top left bg social media">
      <polygon class="cls-4" points="498.97 6.15 498.97 81.44 41.35 81.44 5.83 6.15 498.97 6.15"/>
      <g>
        <polygon class="cls-4" points="491.46 79.81 491.46 78.55 496.08 78.55 496.08 79.81 494.4 79.81 494.4 83.07 495.45 83.07 495.45 84.33 492.07 84.33 492.07 83.07 493.13 83.07 493.13 79.81 491.46 79.81"/>
        <polygon class="cls-4" points="486.84 79.81 486.84 78.55 491.46 78.55 491.46 79.81 489.77 79.81 489.77 83.07 490.83 83.07 490.83 84.33 487.45 84.33 487.45 83.07 488.51 83.07 488.51 79.81 486.84 79.81"/>
        <polygon class="cls-4" points="482.22 79.81 482.22 78.55 486.84 78.55 486.84 79.81 485.15 79.81 485.15 83.07 486.21 83.07 486.21 84.33 482.83 84.33 482.83 83.07 483.89 83.07 483.89 79.81 482.22 79.81"/>
        <polygon class="cls-4" points="477.6 79.81 477.6 78.55 482.22 78.55 482.22 79.81 480.53 79.81 480.53 83.07 481.59 83.07 481.59 84.33 478.21 84.33 478.21 83.07 479.27 83.07 479.27 79.81 477.6 79.81"/>
        <polygon class="cls-4" points="472.97 79.81 472.97 78.55 477.6 78.55 477.6 79.81 475.91 79.81 475.91 83.07 476.97 83.07 476.97 84.33 473.59 84.33 473.59 83.07 474.65 83.07 474.65 79.81 472.97 79.81"/>
        <polygon class="cls-4" points="468.35 79.81 468.35 78.55 472.97 78.55 472.97 79.81 471.29 79.81 471.29 83.07 472.35 83.07 472.35 84.33 468.97 84.33 468.97 83.07 470.02 83.07 470.02 79.81 468.35 79.81"/>
        <polygon class="cls-4" points="463.73 79.81 463.73 78.55 468.35 78.55 468.35 79.81 466.67 79.81 466.67 83.07 467.72 83.07 467.72 84.33 464.34 84.33 464.34 83.07 465.4 83.07 465.4 79.81 463.73 79.81"/>
        <polygon class="cls-4" points="459.11 79.81 459.11 78.55 463.73 78.55 463.73 79.81 462.05 79.81 462.05 83.07 463.1 83.07 463.1 84.33 459.72 84.33 459.72 83.07 460.78 83.07 460.78 79.81 459.11 79.81"/>
        <polygon class="cls-4" points="454.49 79.81 454.49 78.55 459.11 78.55 459.11 79.81 457.42 79.81 457.42 83.07 458.48 83.07 458.48 84.33 455.1 84.33 455.1 83.07 456.16 83.07 456.16 79.81 454.49 79.81"/>
        <polygon class="cls-4" points="449.87 79.81 449.87 78.55 454.49 78.55 454.49 79.81 452.8 79.81 452.8 83.07 453.86 83.07 453.86 84.33 450.48 84.33 450.48 83.07 451.54 83.07 451.54 79.81 449.87 79.81"/>
        <polygon class="cls-4" points="445.24 79.81 445.24 78.55 449.87 78.55 449.87 79.81 448.18 79.81 448.18 83.07 449.24 83.07 449.24 84.33 445.86 84.33 445.86 83.07 446.92 83.07 446.92 79.81 445.24 79.81"/>
        <polygon class="cls-4" points="440.62 79.81 440.62 78.55 445.24 78.55 445.24 79.81 443.56 79.81 443.56 83.07 444.62 83.07 444.62 84.33 441.24 84.33 441.24 83.07 442.3 83.07 442.3 79.81 440.62 79.81"/>
        <polygon class="cls-4" points="436 79.81 436 78.55 440.62 78.55 440.62 79.81 438.94 79.81 438.94 83.07 440 83.07 440 84.33 436.62 84.33 436.62 83.07 437.67 83.07 437.67 79.81 436 79.81"/>
        <polygon class="cls-4" points="431.38 79.81 431.38 78.55 436 78.55 436 79.81 434.32 79.81 434.32 83.07 435.37 83.07 435.37 84.33 431.99 84.33 431.99 83.07 433.05 83.07 433.05 79.81 431.38 79.81"/>
        <polygon class="cls-4" points="426.76 79.81 426.76 78.55 431.38 78.55 431.38 79.81 429.7 79.81 429.7 83.07 430.75 83.07 430.75 84.33 427.37 84.33 427.37 83.07 428.43 83.07 428.43 79.81 426.76 79.81"/>
        <polygon class="cls-4" points="422.14 79.81 422.14 78.55 426.76 78.55 426.76 79.81 425.07 79.81 425.07 83.07 426.13 83.07 426.13 84.33 422.75 84.33 422.75 83.07 423.81 83.07 423.81 79.81 422.14 79.81"/>
        <polygon class="cls-4" points="417.52 79.81 417.52 78.55 422.14 78.55 422.14 79.81 420.45 79.81 420.45 83.07 421.51 83.07 421.51 84.33 418.13 84.33 418.13 83.07 419.19 83.07 419.19 79.81 417.52 79.81"/>
        <polygon class="cls-4" points="412.89 79.81 412.89 78.55 417.52 78.55 417.52 79.81 415.83 79.81 415.83 83.07 416.89 83.07 416.89 84.33 413.51 84.33 413.51 83.07 414.57 83.07 414.57 79.81 412.89 79.81"/>
        <polygon class="cls-4" points="408.27 79.81 408.27 78.55 412.89 78.55 412.89 79.81 411.21 79.81 411.21 83.07 412.27 83.07 412.27 84.33 408.89 84.33 408.89 83.07 409.95 83.07 409.95 79.81 408.27 79.81"/>
        <polygon class="cls-4" points="403.65 79.81 403.65 78.55 408.27 78.55 408.27 79.81 406.59 79.81 406.59 83.07 407.65 83.07 407.65 84.33 404.27 84.33 404.27 83.07 405.32 83.07 405.32 79.81 403.65 79.81"/>
        <polygon class="cls-4" points="399.03 79.81 399.03 78.55 403.65 78.55 403.65 79.81 401.97 79.81 401.97 83.07 403.02 83.07 403.02 84.33 399.64 84.33 399.64 83.07 400.7 83.07 400.7 79.81 399.03 79.81"/>
        <polygon class="cls-4" points="394.41 79.81 394.41 78.55 399.03 78.55 399.03 79.81 397.35 79.81 397.35 83.07 398.4 83.07 398.4 84.33 395.02 84.33 395.02 83.07 396.08 83.07 396.08 79.81 394.41 79.81"/>
        <polygon class="cls-4" points="389.79 79.81 389.79 78.55 394.41 78.55 394.41 79.81 392.72 79.81 392.72 83.07 393.78 83.07 393.78 84.33 390.4 84.33 390.4 83.07 391.46 83.07 391.46 79.81 389.79 79.81"/>
        <polygon class="cls-4" points="385.17 79.81 385.17 78.55 389.79 78.55 389.79 79.81 388.1 79.81 388.1 83.07 389.16 83.07 389.16 84.33 385.78 84.33 385.78 83.07 386.84 83.07 386.84 79.81 385.17 79.81"/>
        <polygon class="cls-4" points="380.54 79.81 380.54 78.55 385.17 78.55 385.17 79.81 383.48 79.81 383.48 83.07 384.54 83.07 384.54 84.33 381.16 84.33 381.16 83.07 382.22 83.07 382.22 79.81 380.54 79.81"/>
        <polygon class="cls-4" points="375.92 79.81 375.92 78.55 380.54 78.55 380.54 79.81 378.86 79.81 378.86 83.07 379.92 83.07 379.92 84.33 376.54 84.33 376.54 83.07 377.6 83.07 377.6 79.81 375.92 79.81"/>
        <polygon class="cls-4" points="371.3 79.81 371.3 78.55 375.92 78.55 375.92 79.81 374.24 79.81 374.24 83.07 375.3 83.07 375.3 84.33 371.92 84.33 371.92 83.07 372.97 83.07 372.97 79.81 371.3 79.81"/>
        <polygon class="cls-4" points="366.68 79.81 366.68 78.55 371.3 78.55 371.3 79.81 369.62 79.81 369.62 83.07 370.67 83.07 370.67 84.33 367.29 84.33 367.29 83.07 368.35 83.07 368.35 79.81 366.68 79.81"/>
        <polygon class="cls-4" points="362.06 79.81 362.06 78.55 366.68 78.55 366.68 79.81 365 79.81 365 83.07 366.05 83.07 366.05 84.33 362.67 84.33 362.67 83.07 363.73 83.07 363.73 79.81 362.06 79.81"/>
        <polygon class="cls-4" points="357.44 79.81 357.44 78.55 362.06 78.55 362.06 79.81 360.37 79.81 360.37 83.07 361.43 83.07 361.43 84.33 358.05 84.33 358.05 83.07 359.11 83.07 359.11 79.81 357.44 79.81"/>
        <polygon class="cls-4" points="352.82 79.81 352.82 78.55 357.44 78.55 357.44 79.81 355.75 79.81 355.75 83.07 356.81 83.07 356.81 84.33 353.43 84.33 353.43 83.07 354.49 83.07 354.49 79.81 352.82 79.81"/>
        <polygon class="cls-4" points="348.19 79.81 348.19 78.55 352.82 78.55 352.82 79.81 351.13 79.81 351.13 83.07 352.19 83.07 352.19 84.33 348.81 84.33 348.81 83.07 349.87 83.07 349.87 79.81 348.19 79.81"/>
        <polygon class="cls-4" points="343.57 79.81 343.57 78.55 348.19 78.55 348.19 79.81 346.51 79.81 346.51 83.07 347.57 83.07 347.57 84.33 344.19 84.33 344.19 83.07 345.25 83.07 345.25 79.81 343.57 79.81"/>
        <polygon class="cls-4" points="338.95 79.81 338.95 78.55 343.57 78.55 343.57 79.81 341.89 79.81 341.89 83.07 342.95 83.07 342.95 84.33 339.57 84.33 339.57 83.07 340.62 83.07 340.62 79.81 338.95 79.81"/>
        <polygon class="cls-4" points="334.33 79.81 334.33 78.55 338.95 78.55 338.95 79.81 337.27 79.81 337.27 83.07 338.32 83.07 338.32 84.33 334.94 84.33 334.94 83.07 336 83.07 336 79.81 334.33 79.81"/>
        <polygon class="cls-4" points="329.71 79.81 329.71 78.55 334.33 78.55 334.33 79.81 332.65 79.81 332.65 83.07 333.7 83.07 333.7 84.33 330.32 84.33 330.32 83.07 331.38 83.07 331.38 79.81 329.71 79.81"/>
        <polygon class="cls-4" points="325.09 79.81 325.09 78.55 329.71 78.55 329.71 79.81 328.02 79.81 328.02 83.07 329.08 83.07 329.08 84.33 325.7 84.33 325.7 83.07 326.76 83.07 326.76 79.81 325.09 79.81"/>
        <polygon class="cls-4" points="320.47 79.81 320.47 78.55 325.09 78.55 325.09 79.81 323.4 79.81 323.4 83.07 324.46 83.07 324.46 84.33 321.08 84.33 321.08 83.07 322.14 83.07 322.14 79.81 320.47 79.81"/>
        <polygon class="cls-4" points="315.84 79.81 315.84 78.55 320.47 78.55 320.47 79.81 318.78 79.81 318.78 83.07 319.84 83.07 319.84 84.33 316.46 84.33 316.46 83.07 317.52 83.07 317.52 79.81 315.84 79.81"/>
        <polygon class="cls-4" points="311.22 79.81 311.22 78.55 315.84 78.55 315.84 79.81 314.16 79.81 314.16 83.07 315.22 83.07 315.22 84.33 311.84 84.33 311.84 83.07 312.9 83.07 312.9 79.81 311.22 79.81"/>
        <polygon class="cls-4" points="306.6 79.81 306.6 78.55 311.22 78.55 311.22 79.81 309.54 79.81 309.54 83.07 310.6 83.07 310.6 84.33 307.22 84.33 307.22 83.07 308.27 83.07 308.27 79.81 306.6 79.81"/>
        <polygon class="cls-4" points="301.98 79.81 301.98 78.55 306.6 78.55 306.6 79.81 304.92 79.81 304.92 83.07 305.97 83.07 305.97 84.33 302.59 84.33 302.59 83.07 303.65 83.07 303.65 79.81 301.98 79.81"/>
        <polygon class="cls-4" points="297.36 79.81 297.36 78.55 301.98 78.55 301.98 79.81 300.3 79.81 300.3 83.07 301.35 83.07 301.35 84.33 297.97 84.33 297.97 83.07 299.03 83.07 299.03 79.81 297.36 79.81"/>
        <polygon class="cls-4" points="292.74 79.81 292.74 78.55 297.36 78.55 297.36 79.81 295.67 79.81 295.67 83.07 296.73 83.07 296.73 84.33 293.35 84.33 293.35 83.07 294.41 83.07 294.41 79.81 292.74 79.81"/>
        <polygon class="cls-4" points="288.12 79.81 288.12 78.55 292.74 78.55 292.74 79.81 291.05 79.81 291.05 83.07 292.11 83.07 292.11 84.33 288.73 84.33 288.73 83.07 289.79 83.07 289.79 79.81 288.12 79.81"/>
        <polygon class="cls-4" points="283.49 79.81 283.49 78.55 288.12 78.55 288.12 79.81 286.43 79.81 286.43 83.07 287.49 83.07 287.49 84.33 284.11 84.33 284.11 83.07 285.17 83.07 285.17 79.81 283.49 79.81"/>
        <polygon class="cls-4" points="278.87 79.81 278.87 78.55 283.49 78.55 283.49 79.81 281.81 79.81 281.81 83.07 282.87 83.07 282.87 84.33 279.49 84.33 279.49 83.07 280.55 83.07 280.55 79.81 278.87 79.81"/>
        <polygon class="cls-4" points="274.25 79.81 274.25 78.55 278.87 78.55 278.87 79.81 277.19 79.81 277.19 83.07 278.25 83.07 278.25 84.33 274.87 84.33 274.87 83.07 275.92 83.07 275.92 79.81 274.25 79.81"/>
        <polygon class="cls-4" points="269.63 79.81 269.63 78.55 274.25 78.55 274.25 79.81 272.57 79.81 272.57 83.07 273.62 83.07 273.62 84.33 270.24 84.33 270.24 83.07 271.3 83.07 271.3 79.81 269.63 79.81"/>
        <polygon class="cls-4" points="265.01 79.81 265.01 78.55 269.63 78.55 269.63 79.81 267.95 79.81 267.95 83.07 269 83.07 269 84.33 265.62 84.33 265.62 83.07 266.68 83.07 266.68 79.81 265.01 79.81"/>
        <polygon class="cls-4" points="260.39 79.81 260.39 78.55 265.01 78.55 265.01 79.81 263.32 79.81 263.32 83.07 264.38 83.07 264.38 84.33 261 84.33 261 83.07 262.06 83.07 262.06 79.81 260.39 79.81"/>
        <polygon class="cls-4" points="255.77 79.81 255.77 78.55 260.39 78.55 260.39 79.81 258.7 79.81 258.7 83.07 259.76 83.07 259.76 84.33 256.38 84.33 256.38 83.07 257.44 83.07 257.44 79.81 255.77 79.81"/>
        <polygon class="cls-4" points="251.14 79.81 251.14 78.55 255.77 78.55 255.77 79.81 254.08 79.81 254.08 83.07 255.14 83.07 255.14 84.33 251.76 84.33 251.76 83.07 252.82 83.07 252.82 79.81 251.14 79.81"/>
        <polygon class="cls-4" points="246.52 79.81 246.52 78.55 251.14 78.55 251.14 79.81 249.46 79.81 249.46 83.07 250.52 83.07 250.52 84.33 247.14 84.33 247.14 83.07 248.2 83.07 248.2 79.81 246.52 79.81"/>
        <polygon class="cls-4" points="241.9 79.81 241.9 78.55 246.52 78.55 246.52 79.81 244.84 79.81 244.84 83.07 245.9 83.07 245.9 84.33 242.52 84.33 242.52 83.07 243.57 83.07 243.57 79.81 241.9 79.81"/>
        <polygon class="cls-4" points="237.28 79.81 237.28 78.55 241.9 78.55 241.9 79.81 240.22 79.81 240.22 83.07 241.27 83.07 241.27 84.33 237.89 84.33 237.89 83.07 238.95 83.07 238.95 79.81 237.28 79.81"/>
        <polygon class="cls-4" points="232.66 79.81 232.66 78.55 237.28 78.55 237.28 79.81 235.6 79.81 235.6 83.07 236.65 83.07 236.65 84.33 233.27 84.33 233.27 83.07 234.33 83.07 234.33 79.81 232.66 79.81"/>
        <polygon class="cls-4" points="228.04 79.81 228.04 78.55 232.66 78.55 232.66 79.81 230.97 79.81 230.97 83.07 232.03 83.07 232.03 84.33 228.65 84.33 228.65 83.07 229.71 83.07 229.71 79.81 228.04 79.81"/>
        <polygon class="cls-4" points="223.42 79.81 223.42 78.55 228.04 78.55 228.04 79.81 226.35 79.81 226.35 83.07 227.41 83.07 227.41 84.33 224.03 84.33 224.03 83.07 225.09 83.07 225.09 79.81 223.42 79.81"/>
        <polygon class="cls-4" points="218.79 79.81 218.79 78.55 223.42 78.55 223.42 79.81 221.73 79.81 221.73 83.07 222.79 83.07 222.79 84.33 219.41 84.33 219.41 83.07 220.47 83.07 220.47 79.81 218.79 79.81"/>
        <polygon class="cls-4" points="214.17 79.81 214.17 78.55 218.79 78.55 218.79 79.81 217.11 79.81 217.11 83.07 218.17 83.07 218.17 84.33 214.79 84.33 214.79 83.07 215.85 83.07 215.85 79.81 214.17 79.81"/>
        <polygon class="cls-4" points="209.55 79.81 209.55 78.55 214.17 78.55 214.17 79.81 212.49 79.81 212.49 83.07 213.55 83.07 213.55 84.33 210.17 84.33 210.17 83.07 211.22 83.07 211.22 79.81 209.55 79.81"/>
        <polygon class="cls-4" points="204.93 79.81 204.93 78.55 209.55 78.55 209.55 79.81 207.87 79.81 207.87 83.07 208.92 83.07 208.92 84.33 205.54 84.33 205.54 83.07 206.6 83.07 206.6 79.81 204.93 79.81"/>
        <polygon class="cls-4" points="200.31 79.81 200.31 78.55 204.93 78.55 204.93 79.81 203.25 79.81 203.25 83.07 204.3 83.07 204.3 84.33 200.92 84.33 200.92 83.07 201.98 83.07 201.98 79.81 200.31 79.81"/>
        <polygon class="cls-4" points="195.69 79.81 195.69 78.55 200.31 78.55 200.31 79.81 198.62 79.81 198.62 83.07 199.68 83.07 199.68 84.33 196.3 84.33 196.3 83.07 197.36 83.07 197.36 79.81 195.69 79.81"/>
        <polygon class="cls-4" points="191.07 79.81 191.07 78.55 195.69 78.55 195.69 79.81 194 79.81 194 83.07 195.06 83.07 195.06 84.33 191.68 84.33 191.68 83.07 192.74 83.07 192.74 79.81 191.07 79.81"/>
        <polygon class="cls-4" points="186.44 79.81 186.44 78.55 191.07 78.55 191.07 79.81 189.38 79.81 189.38 83.07 190.44 83.07 190.44 84.33 187.06 84.33 187.06 83.07 188.12 83.07 188.12 79.81 186.44 79.81"/>
        <polygon class="cls-4" points="181.82 79.81 181.82 78.55 186.44 78.55 186.44 79.81 184.76 79.81 184.76 83.07 185.82 83.07 185.82 84.33 182.44 84.33 182.44 83.07 183.5 83.07 183.5 79.81 181.82 79.81"/>
        <polygon class="cls-4" points="177.2 79.81 177.2 78.55 181.82 78.55 181.82 79.81 180.14 79.81 180.14 83.07 181.2 83.07 181.2 84.33 177.82 84.33 177.82 83.07 178.87 83.07 178.87 79.81 177.2 79.81"/>
        <polygon class="cls-4" points="172.58 79.81 172.58 78.55 177.2 78.55 177.2 79.81 175.52 79.81 175.52 83.07 176.57 83.07 176.57 84.33 173.19 84.33 173.19 83.07 174.25 83.07 174.25 79.81 172.58 79.81"/>
        <polygon class="cls-4" points="167.96 79.81 167.96 78.55 172.58 78.55 172.58 79.81 170.9 79.81 170.9 83.07 171.95 83.07 171.95 84.33 168.57 84.33 168.57 83.07 169.63 83.07 169.63 79.81 167.96 79.81"/>
        <polygon class="cls-4" points="163.34 79.81 163.34 78.55 167.96 78.55 167.96 79.81 166.27 79.81 166.27 83.07 167.33 83.07 167.33 84.33 163.95 84.33 163.95 83.07 165.01 83.07 165.01 79.81 163.34 79.81"/>
        <polygon class="cls-4" points="158.72 79.81 158.72 78.55 163.34 78.55 163.34 79.81 161.65 79.81 161.65 83.07 162.71 83.07 162.71 84.33 159.33 84.33 159.33 83.07 160.39 83.07 160.39 79.81 158.72 79.81"/>
        <polygon class="cls-4" points="154.09 79.81 154.09 78.55 158.72 78.55 158.72 79.81 157.03 79.81 157.03 83.07 158.09 83.07 158.09 84.33 154.71 84.33 154.71 83.07 155.77 83.07 155.77 79.81 154.09 79.81"/>
        <polygon class="cls-4" points="149.47 79.81 149.47 78.55 154.09 78.55 154.09 79.81 152.41 79.81 152.41 83.07 153.47 83.07 153.47 84.33 150.09 84.33 150.09 83.07 151.15 83.07 151.15 79.81 149.47 79.81"/>
        <polygon class="cls-4" points="144.85 79.81 144.85 78.55 149.47 78.55 149.47 79.81 147.79 79.81 147.79 83.07 148.85 83.07 148.85 84.33 145.47 84.33 145.47 83.07 146.52 83.07 146.52 79.81 144.85 79.81"/>
        <polygon class="cls-4" points="140.23 79.81 140.23 78.55 144.85 78.55 144.85 79.81 143.17 79.81 143.17 83.07 144.22 83.07 144.22 84.33 140.84 84.33 140.84 83.07 141.9 83.07 141.9 79.81 140.23 79.81"/>
        <polygon class="cls-4" points="135.61 79.81 135.61 78.55 140.23 78.55 140.23 79.81 138.55 79.81 138.55 83.07 139.6 83.07 139.6 84.33 136.22 84.33 136.22 83.07 137.28 83.07 137.28 79.81 135.61 79.81"/>
        <polygon class="cls-4" points="130.99 79.81 130.99 78.55 135.61 78.55 135.61 79.81 133.92 79.81 133.92 83.07 134.98 83.07 134.98 84.33 131.6 84.33 131.6 83.07 132.66 83.07 132.66 79.81 130.99 79.81"/>
        <polygon class="cls-4" points="126.37 79.81 126.37 78.55 130.99 78.55 130.99 79.81 129.3 79.81 129.3 83.07 130.36 83.07 130.36 84.33 126.98 84.33 126.98 83.07 128.04 83.07 128.04 79.81 126.37 79.81"/>
        <polygon class="cls-4" points="121.74 79.81 121.74 78.55 126.37 78.55 126.37 79.81 124.68 79.81 124.68 83.07 125.74 83.07 125.74 84.33 122.36 84.33 122.36 83.07 123.42 83.07 123.42 79.81 121.74 79.81"/>
        <polygon class="cls-4" points="117.12 79.81 117.12 78.55 121.74 78.55 121.74 79.81 120.06 79.81 120.06 83.07 121.12 83.07 121.12 84.33 117.74 84.33 117.74 83.07 118.8 83.07 118.8 79.81 117.12 79.81"/>
        <polygon class="cls-4" points="112.5 79.81 112.5 78.55 117.12 78.55 117.12 79.81 115.44 79.81 115.44 83.07 116.5 83.07 116.5 84.33 113.12 84.33 113.12 83.07 114.17 83.07 114.17 79.81 112.5 79.81"/>
        <polygon class="cls-4" points="107.88 79.81 107.88 78.55 112.5 78.55 112.5 79.81 110.82 79.81 110.82 83.07 111.87 83.07 111.87 84.33 108.49 84.33 108.49 83.07 109.55 83.07 109.55 79.81 107.88 79.81"/>
        <polygon class="cls-4" points="103.26 79.81 103.26 78.55 107.88 78.55 107.88 79.81 106.19 79.81 106.19 83.07 107.25 83.07 107.25 84.33 103.87 84.33 103.87 83.07 104.93 83.07 104.93 79.81 103.26 79.81"/>
        <polygon class="cls-4" points="98.64 79.81 98.64 78.55 103.26 78.55 103.26 79.81 101.57 79.81 101.57 83.07 102.63 83.07 102.63 84.33 99.25 84.33 99.25 83.07 100.31 83.07 100.31 79.81 98.64 79.81"/>
        <polygon class="cls-4" points="94.02 79.81 94.02 78.55 98.64 78.55 98.64 79.81 96.95 79.81 96.95 83.07 98.01 83.07 98.01 84.33 94.63 84.33 94.63 83.07 95.69 83.07 95.69 79.81 94.02 79.81"/>
        <polygon class="cls-4" points="89.39 79.81 89.39 78.55 94.02 78.55 94.02 79.81 92.33 79.81 92.33 83.07 93.39 83.07 93.39 84.33 90.01 84.33 90.01 83.07 91.07 83.07 91.07 79.81 89.39 79.81"/>
        <polygon class="cls-4" points="84.77 79.81 84.77 78.55 89.39 78.55 89.39 79.81 87.71 79.81 87.71 83.07 88.77 83.07 88.77 84.33 85.39 84.33 85.39 83.07 86.44 83.07 86.44 79.81 84.77 79.81"/>
        <polygon class="cls-4" points="80.15 79.81 80.15 78.55 84.77 78.55 84.77 79.81 83.09 79.81 83.09 83.07 84.15 83.07 84.15 84.33 80.77 84.33 80.77 83.07 81.82 83.07 81.82 79.81 80.15 79.81"/>
        <polygon class="cls-4" points="75.53 79.81 75.53 78.55 80.15 78.55 80.15 79.81 78.47 79.81 78.47 83.07 79.52 83.07 79.52 84.33 76.14 84.33 76.14 83.07 77.2 83.07 77.2 79.81 75.53 79.81"/>
        <polygon class="cls-4" points="70.91 79.81 70.91 78.55 75.53 78.55 75.53 79.81 73.84 79.81 73.84 83.07 74.9 83.07 74.9 84.33 71.52 84.33 71.52 83.07 72.58 83.07 72.58 79.81 70.91 79.81"/>
        <polygon class="cls-4" points="66.29 79.81 66.29 78.55 70.91 78.55 70.91 79.81 69.22 79.81 69.22 83.07 70.28 83.07 70.28 84.33 66.9 84.33 66.9 83.07 67.96 83.07 67.96 79.81 66.29 79.81"/>
        <polygon class="cls-4" points="61.67 79.81 61.67 78.55 66.29 78.55 66.29 79.81 64.6 79.81 64.6 83.07 65.66 83.07 65.66 84.33 62.28 84.33 62.28 83.07 63.34 83.07 63.34 79.81 61.67 79.81"/>
        <polygon class="cls-4" points="57.04 79.81 57.04 78.55 61.67 78.55 61.67 79.81 59.98 79.81 59.98 83.07 61.04 83.07 61.04 84.33 57.66 84.33 57.66 83.07 58.72 83.07 58.72 79.81 57.04 79.81"/>
        <polygon class="cls-4" points="52.42 79.81 52.42 78.55 57.04 78.55 57.04 79.81 55.36 79.81 55.36 83.07 56.42 83.07 56.42 84.33 53.04 84.33 53.04 83.07 54.09 83.07 54.09 79.81 52.42 79.81"/>
        <polygon class="cls-4" points="47.8 79.81 47.8 78.55 52.42 78.55 52.42 79.81 50.74 79.81 50.74 83.07 51.8 83.07 51.8 84.33 48.42 84.33 48.42 83.07 49.47 83.07 49.47 79.81 47.8 79.81"/>
        <polygon class="cls-4" points="43.18 79.81 43.18 78.55 47.8 78.55 47.8 79.81 46.12 79.81 46.12 83.07 47.17 83.07 47.17 84.33 43.79 84.33 43.79 83.07 44.85 83.07 44.85 79.81 43.18 79.81"/>
        <polygon class="cls-4" points="40.11 75 41.25 74.46 43.18 78.55 42.04 79.09 41.33 77.6 38.39 78.99 38.84 79.92 37.69 80.46 36.28 77.47 37.42 76.93 37.87 77.87 40.81 76.48 40.11 75"/>
        <polygon class="cls-4" points="38.18 70.91 39.32 70.37 41.25 74.46 40.11 75 39.41 73.51 36.46 74.9 36.91 75.83 35.76 76.37 34.35 73.38 35.5 72.84 35.94 73.78 38.88 72.39 38.18 70.91"/>
        <polygon class="cls-4" points="36.25 66.82 37.39 66.28 39.32 70.37 38.18 70.91 37.48 69.42 34.54 70.81 34.98 71.74 33.83 72.28 32.42 69.29 33.57 68.75 34.01 69.69 36.95 68.3 36.25 66.82"/>
        <polygon class="cls-4" points="34.32 62.73 35.46 62.2 37.39 66.28 36.25 66.82 35.55 65.33 32.61 66.72 33.05 67.66 31.91 68.19 30.49 65.2 31.64 64.67 32.08 65.6 35.02 64.21 34.32 62.73"/>
        <polygon class="cls-4" points="32.39 58.65 33.53 58.11 35.46 62.2 34.32 62.73 33.62 61.24 30.68 62.63 31.12 63.57 29.98 64.11 28.57 61.12 29.71 60.58 30.15 61.51 33.09 60.12 32.39 58.65"/>
        <polygon class="cls-4" points="30.46 54.56 31.61 54.02 33.53 58.11 32.39 58.65 31.69 57.15 28.75 58.54 29.19 59.48 28.05 60.02 26.64 57.03 27.78 56.49 28.22 57.42 31.16 56.04 30.46 54.56"/>
        <polygon class="cls-4" points="28.53 50.47 29.68 49.93 31.61 54.02 30.46 54.56 29.76 53.07 26.82 54.45 27.26 55.39 26.12 55.93 24.71 52.94 25.85 52.4 26.29 53.33 29.23 51.95 28.53 50.47"/>
        <polygon class="cls-4" points="26.6 46.38 27.75 45.84 29.68 49.93 28.53 50.47 27.83 48.98 24.89 50.36 25.33 51.3 24.19 51.84 22.78 48.85 23.92 48.31 24.36 49.25 27.3 47.86 26.6 46.38"/>
        <polygon class="cls-4" points="24.67 42.29 25.82 41.75 27.75 45.84 26.6 46.38 25.9 44.89 22.96 46.28 23.4 47.21 22.26 47.75 20.85 44.76 21.99 44.22 22.43 45.16 25.37 43.77 24.67 42.29"/>
        <polygon class="cls-4" points="22.75 38.2 23.89 37.66 25.82 41.75 24.67 42.29 23.97 40.8 21.03 42.19 21.47 43.12 20.33 43.66 18.92 40.67 20.06 40.13 20.5 41.07 23.44 39.68 22.75 38.2"/>
        <polygon class="cls-4" points="20.82 34.11 21.96 33.57 23.89 37.66 22.75 38.2 22.04 36.71 19.1 38.1 19.54 39.03 18.4 39.57 16.99 36.58 18.13 36.04 18.57 36.98 21.51 35.59 20.82 34.11"/>
        <polygon class="cls-4" points="18.89 30.02 20.03 29.48 21.96 33.57 20.82 34.11 20.11 32.62 17.17 34.01 17.61 34.94 16.47 35.48 15.06 32.49 16.2 31.95 16.64 32.89 19.59 31.5 18.89 30.02"/>
        <polygon class="cls-4" points="16.96 25.93 18.1 25.4 20.03 29.48 18.89 30.02 18.18 28.53 15.24 29.92 15.68 30.86 14.54 31.39 13.13 28.4 14.27 27.87 14.72 28.8 17.66 27.41 16.96 25.93"/>
        <polygon class="cls-4" points="15.03 21.85 16.17 21.31 18.1 25.4 16.96 25.93 16.25 24.44 13.31 25.83 13.76 26.77 12.61 27.31 11.2 24.32 12.34 23.78 12.79 24.71 15.73 23.32 15.03 21.85"/>
        <polygon class="cls-4" points="13.1 17.76 14.24 17.22 16.17 21.31 15.03 21.85 14.33 20.35 11.39 21.74 11.83 22.68 10.68 23.22 9.27 20.23 10.42 19.69 10.86 20.62 13.8 19.24 13.1 17.76"/>
        <polygon class="cls-4" points="11.17 13.67 12.31 13.13 14.24 17.22 13.1 17.76 12.4 16.27 9.46 17.65 9.9 18.59 8.75 19.13 7.34 16.14 8.49 15.6 8.93 16.53 11.87 15.15 11.17 13.67"/>
        <polygon class="cls-4" points="9.24 9.58 10.38 9.04 12.31 13.13 11.17 13.67 10.47 12.18 7.53 13.56 7.97 14.5 6.83 15.04 5.41 12.05 6.56 11.51 7 12.45 9.94 11.06 9.24 9.58"/>
        <polygon class="cls-4" points="15.01 7.78 15.01 9.04 10.38 9.04 10.38 7.78 12.07 7.78 12.07 4.53 11.01 4.53 11.01 3.26 14.39 3.26 14.39 4.53 13.34 4.53 13.34 7.78 15.01 7.78"/>
        <polygon class="cls-4" points="19.64 7.78 19.64 9.04 15.01 9.04 15.01 7.78 16.7 7.78 16.7 4.53 15.64 4.53 15.64 3.26 19.02 3.26 19.02 4.53 17.96 4.53 17.96 7.78 19.64 7.78"/>
        <polygon class="cls-4" points="24.26 7.78 24.26 9.04 19.64 9.04 19.64 7.78 21.32 7.78 21.32 4.53 20.26 4.53 20.26 3.26 23.65 3.26 23.65 4.53 22.59 4.53 22.59 7.78 24.26 7.78"/>
        <polygon class="cls-4" points="28.89 7.78 28.89 9.04 24.26 9.04 24.26 7.78 25.95 7.78 25.95 4.53 24.89 4.53 24.89 3.26 28.27 3.26 28.27 4.53 27.21 4.53 27.21 7.78 28.89 7.78"/>
        <polygon class="cls-4" points="33.51 7.78 33.51 9.04 28.89 9.04 28.89 7.78 30.57 7.78 30.57 4.53 29.51 4.53 29.51 3.26 32.9 3.26 32.9 4.53 31.84 4.53 31.84 7.78 33.51 7.78"/>
        <polygon class="cls-4" points="38.14 7.78 38.14 9.04 33.51 9.04 33.51 7.78 35.2 7.78 35.2 4.53 34.14 4.53 34.14 3.26 37.52 3.26 37.52 4.53 36.46 4.53 36.46 7.78 38.14 7.78"/>
        <polygon class="cls-4" points="42.76 7.78 42.76 9.04 38.14 9.04 38.14 7.78 39.82 7.78 39.82 4.53 38.77 4.53 38.77 3.26 42.15 3.26 42.15 4.53 41.09 4.53 41.09 7.78 42.76 7.78"/>
        <polygon class="cls-4" points="47.39 7.78 47.39 9.04 42.76 9.04 42.76 7.78 44.45 7.78 44.45 4.53 43.39 4.53 43.39 3.26 46.77 3.26 46.77 4.53 45.72 4.53 45.72 7.78 47.39 7.78"/>
        <polygon class="cls-4" points="52.01 7.78 52.01 9.04 47.39 9.04 47.39 7.78 49.08 7.78 49.08 4.53 48.02 4.53 48.02 3.26 51.4 3.26 51.4 4.53 50.34 4.53 50.34 7.78 52.01 7.78"/>
        <polygon class="cls-4" points="56.64 7.78 56.64 9.04 52.01 9.04 52.01 7.78 53.7 7.78 53.7 4.53 52.64 4.53 52.64 3.26 56.03 3.26 56.03 4.53 54.97 4.53 54.97 7.78 56.64 7.78"/>
        <polygon class="cls-4" points="61.27 7.78 61.27 9.04 56.64 9.04 56.64 7.78 58.33 7.78 58.33 4.53 57.27 4.53 57.27 3.26 60.65 3.26 60.65 4.53 59.59 4.53 59.59 7.78 61.27 7.78"/>
        <polygon class="cls-4" points="65.89 7.78 65.89 9.04 61.27 9.04 61.27 7.78 62.95 7.78 62.95 4.53 61.89 4.53 61.89 3.26 65.28 3.26 65.28 4.53 64.22 4.53 64.22 7.78 65.89 7.78"/>
        <polygon class="cls-4" points="70.52 7.78 70.52 9.04 65.89 9.04 65.89 7.78 67.58 7.78 67.58 4.53 66.52 4.53 66.52 3.26 69.9 3.26 69.9 4.53 68.84 4.53 68.84 7.78 70.52 7.78"/>
        <polygon class="cls-4" points="75.14 7.78 75.14 9.04 70.52 9.04 70.52 7.78 72.2 7.78 72.2 4.53 71.15 4.53 71.15 3.26 74.53 3.26 74.53 4.53 73.47 4.53 73.47 7.78 75.14 7.78"/>
        <polygon class="cls-4" points="79.77 7.78 79.77 9.04 75.14 9.04 75.14 7.78 76.83 7.78 76.83 4.53 75.77 4.53 75.77 3.26 79.15 3.26 79.15 4.53 78.1 4.53 78.1 7.78 79.77 7.78"/>
        <polygon class="cls-4" points="84.39 7.78 84.39 9.04 79.77 9.04 79.77 7.78 81.46 7.78 81.46 4.53 80.4 4.53 80.4 3.26 83.78 3.26 83.78 4.53 82.72 4.53 82.72 7.78 84.39 7.78"/>
        <polygon class="cls-4" points="89.02 7.78 89.02 9.04 84.39 9.04 84.39 7.78 86.08 7.78 86.08 4.53 85.02 4.53 85.02 3.26 88.41 3.26 88.41 4.53 87.35 4.53 87.35 7.78 89.02 7.78"/>
        <polygon class="cls-4" points="93.65 7.78 93.65 9.04 89.02 9.04 89.02 7.78 90.71 7.78 90.71 4.53 89.65 4.53 89.65 3.26 93.03 3.26 93.03 4.53 91.97 4.53 91.97 7.78 93.65 7.78"/>
        <polygon class="cls-4" points="98.27 7.78 98.27 9.04 93.65 9.04 93.65 7.78 95.33 7.78 95.33 4.53 94.27 4.53 94.27 3.26 97.66 3.26 97.66 4.53 96.6 4.53 96.6 7.78 98.27 7.78"/>
        <polygon class="cls-4" points="102.9 7.78 102.9 9.04 98.27 9.04 98.27 7.78 99.96 7.78 99.96 4.53 98.9 4.53 98.9 3.26 102.28 3.26 102.28 4.53 101.22 4.53 101.22 7.78 102.9 7.78"/>
        <polygon class="cls-4" points="107.52 7.78 107.52 9.04 102.9 9.04 102.9 7.78 104.58 7.78 104.58 4.53 103.53 4.53 103.53 3.26 106.91 3.26 106.91 4.53 105.85 4.53 105.85 7.78 107.52 7.78"/>
        <polygon class="cls-4" points="112.15 7.78 112.15 9.04 107.52 9.04 107.52 7.78 109.21 7.78 109.21 4.53 108.15 4.53 108.15 3.26 111.53 3.26 111.53 4.53 110.48 4.53 110.48 7.78 112.15 7.78"/>
        <polygon class="cls-4" points="116.77 7.78 116.77 9.04 112.15 9.04 112.15 7.78 113.84 7.78 113.84 4.53 112.78 4.53 112.78 3.26 116.16 3.26 116.16 4.53 115.1 4.53 115.1 7.78 116.77 7.78"/>
        <polygon class="cls-4" points="121.4 7.78 121.4 9.04 116.77 9.04 116.77 7.78 118.46 7.78 118.46 4.53 117.4 4.53 117.4 3.26 120.79 3.26 120.79 4.53 119.73 4.53 119.73 7.78 121.4 7.78"/>
        <polygon class="cls-4" points="126.03 7.78 126.03 9.04 121.4 9.04 121.4 7.78 123.09 7.78 123.09 4.53 122.03 4.53 122.03 3.26 125.41 3.26 125.41 4.53 124.35 4.53 124.35 7.78 126.03 7.78"/>
        <polygon class="cls-4" points="130.65 7.78 130.65 9.04 126.03 9.04 126.03 7.78 127.71 7.78 127.71 4.53 126.65 4.53 126.65 3.26 130.04 3.26 130.04 4.53 128.98 4.53 128.98 7.78 130.65 7.78"/>
        <polygon class="cls-4" points="135.28 7.78 135.28 9.04 130.65 9.04 130.65 7.78 132.34 7.78 132.34 4.53 131.28 4.53 131.28 3.26 134.66 3.26 134.66 4.53 133.6 4.53 133.6 7.78 135.28 7.78"/>
        <polygon class="cls-4" points="139.9 7.78 139.9 9.04 135.28 9.04 135.28 7.78 136.96 7.78 136.96 4.53 135.91 4.53 135.91 3.26 139.29 3.26 139.29 4.53 138.23 4.53 138.23 7.78 139.9 7.78"/>
        <polygon class="cls-4" points="144.53 7.78 144.53 9.04 139.9 9.04 139.9 7.78 141.59 7.78 141.59 4.53 140.53 4.53 140.53 3.26 143.91 3.26 143.91 4.53 142.86 4.53 142.86 7.78 144.53 7.78"/>
        <polygon class="cls-4" points="149.15 7.78 149.15 9.04 144.53 9.04 144.53 7.78 146.22 7.78 146.22 4.53 145.16 4.53 145.16 3.26 148.54 3.26 148.54 4.53 147.48 4.53 147.48 7.78 149.15 7.78"/>
        <polygon class="cls-4" points="153.78 7.78 153.78 9.04 149.15 9.04 149.15 7.78 150.84 7.78 150.84 4.53 149.78 4.53 149.78 3.26 153.17 3.26 153.17 4.53 152.11 4.53 152.11 7.78 153.78 7.78"/>
        <polygon class="cls-4" points="158.41 7.78 158.41 9.04 153.78 9.04 153.78 7.78 155.47 7.78 155.47 4.53 154.41 4.53 154.41 3.26 157.79 3.26 157.79 4.53 156.73 4.53 156.73 7.78 158.41 7.78"/>
        <polygon class="cls-4" points="163.03 7.78 163.03 9.04 158.41 9.04 158.41 7.78 160.09 7.78 160.09 4.53 159.03 4.53 159.03 3.26 162.42 3.26 162.42 4.53 161.36 4.53 161.36 7.78 163.03 7.78"/>
        <polygon class="cls-4" points="167.66 7.78 167.66 9.04 163.03 9.04 163.03 7.78 164.72 7.78 164.72 4.53 163.66 4.53 163.66 3.26 167.04 3.26 167.04 4.53 165.98 4.53 165.98 7.78 167.66 7.78"/>
        <polygon class="cls-4" points="172.28 7.78 172.28 9.04 167.66 9.04 167.66 7.78 169.34 7.78 169.34 4.53 168.29 4.53 168.29 3.26 171.67 3.26 171.67 4.53 170.61 4.53 170.61 7.78 172.28 7.78"/>
        <polygon class="cls-4" points="176.91 7.78 176.91 9.04 172.28 9.04 172.28 7.78 173.97 7.78 173.97 4.53 172.91 4.53 172.91 3.26 176.29 3.26 176.29 4.53 175.24 4.53 175.24 7.78 176.91 7.78"/>
        <polygon class="cls-4" points="181.53 7.78 181.53 9.04 176.91 9.04 176.91 7.78 178.6 7.78 178.6 4.53 177.54 4.53 177.54 3.26 180.92 3.26 180.92 4.53 179.86 4.53 179.86 7.78 181.53 7.78"/>
        <polygon class="cls-4" points="186.16 7.78 186.16 9.04 181.53 9.04 181.53 7.78 183.22 7.78 183.22 4.53 182.16 4.53 182.16 3.26 185.55 3.26 185.55 4.53 184.49 4.53 184.49 7.78 186.16 7.78"/>
        <polygon class="cls-4" points="190.79 7.78 190.79 9.04 186.16 9.04 186.16 7.78 187.85 7.78 187.85 4.53 186.79 4.53 186.79 3.26 190.17 3.26 190.17 4.53 189.11 4.53 189.11 7.78 190.79 7.78"/>
        <polygon class="cls-4" points="195.41 7.78 195.41 9.04 190.79 9.04 190.79 7.78 192.47 7.78 192.47 4.53 191.41 4.53 191.41 3.26 194.8 3.26 194.8 4.53 193.74 4.53 193.74 7.78 195.41 7.78"/>
        <polygon class="cls-4" points="200.04 7.78 200.04 9.04 195.41 9.04 195.41 7.78 197.1 7.78 197.1 4.53 196.04 4.53 196.04 3.26 199.42 3.26 199.42 4.53 198.36 4.53 198.36 7.78 200.04 7.78"/>
        <polygon class="cls-4" points="204.66 7.78 204.66 9.04 200.04 9.04 200.04 7.78 201.72 7.78 201.72 4.53 200.67 4.53 200.67 3.26 204.05 3.26 204.05 4.53 202.99 4.53 202.99 7.78 204.66 7.78"/>
        <polygon class="cls-4" points="209.29 7.78 209.29 9.04 204.66 9.04 204.66 7.78 206.35 7.78 206.35 4.53 205.29 4.53 205.29 3.26 208.67 3.26 208.67 4.53 207.61 4.53 207.61 7.78 209.29 7.78"/>
        <polygon class="cls-4" points="213.91 7.78 213.91 9.04 209.29 9.04 209.29 7.78 210.98 7.78 210.98 4.53 209.92 4.53 209.92 3.26 213.3 3.26 213.3 4.53 212.24 4.53 212.24 7.78 213.91 7.78"/>
        <polygon class="cls-4" points="218.54 7.78 218.54 9.04 213.91 9.04 213.91 7.78 215.6 7.78 215.6 4.53 214.54 4.53 214.54 3.26 217.92 3.26 217.92 4.53 216.87 4.53 216.87 7.78 218.54 7.78"/>
        <polygon class="cls-4" points="223.17 7.78 223.17 9.04 218.54 9.04 218.54 7.78 220.23 7.78 220.23 4.53 219.17 4.53 219.17 3.26 222.55 3.26 222.55 4.53 221.49 4.53 221.49 7.78 223.17 7.78"/>
        <polygon class="cls-4" points="227.79 7.78 227.79 9.04 223.17 9.04 223.17 7.78 224.85 7.78 224.85 4.53 223.79 4.53 223.79 3.26 227.18 3.26 227.18 4.53 226.12 4.53 226.12 7.78 227.79 7.78"/>
        <polygon class="cls-4" points="232.42 7.78 232.42 9.04 227.79 9.04 227.79 7.78 229.48 7.78 229.48 4.53 228.42 4.53 228.42 3.26 231.8 3.26 231.8 4.53 230.74 4.53 230.74 7.78 232.42 7.78"/>
        <polygon class="cls-4" points="237.04 7.78 237.04 9.04 232.42 9.04 232.42 7.78 234.1 7.78 234.1 4.53 233.04 4.53 233.04 3.26 236.43 3.26 236.43 4.53 235.37 4.53 235.37 7.78 237.04 7.78"/>
        <polygon class="cls-4" points="241.67 7.78 241.67 9.04 237.04 9.04 237.04 7.78 238.73 7.78 238.73 4.53 237.67 4.53 237.67 3.26 241.05 3.26 241.05 4.53 239.99 4.53 239.99 7.78 241.67 7.78"/>
        <polygon class="cls-4" points="246.29 7.78 246.29 9.04 241.67 9.04 241.67 7.78 243.35 7.78 243.35 4.53 242.3 4.53 242.3 3.26 245.68 3.26 245.68 4.53 244.62 4.53 244.62 7.78 246.29 7.78"/>
        <polygon class="cls-4" points="250.92 7.78 250.92 9.04 246.29 9.04 246.29 7.78 247.98 7.78 247.98 4.53 246.92 4.53 246.92 3.26 250.3 3.26 250.3 4.53 249.25 4.53 249.25 7.78 250.92 7.78"/>
        <polygon class="cls-4" points="255.55 7.78 255.55 9.04 250.92 9.04 250.92 7.78 252.61 7.78 252.61 4.53 251.55 4.53 251.55 3.26 254.93 3.26 254.93 4.53 253.87 4.53 253.87 7.78 255.55 7.78"/>
        <polygon class="cls-4" points="260.17 7.78 260.17 9.04 255.55 9.04 255.55 7.78 257.23 7.78 257.23 4.53 256.17 4.53 256.17 3.26 259.56 3.26 259.56 4.53 258.5 4.53 258.5 7.78 260.17 7.78"/>
        <polygon class="cls-4" points="264.8 7.78 264.8 9.04 260.17 9.04 260.17 7.78 261.86 7.78 261.86 4.53 260.8 4.53 260.8 3.26 264.18 3.26 264.18 4.53 263.12 4.53 263.12 7.78 264.8 7.78"/>
        <polygon class="cls-4" points="269.42 7.78 269.42 9.04 264.8 9.04 264.8 7.78 266.48 7.78 266.48 4.53 265.42 4.53 265.42 3.26 268.81 3.26 268.81 4.53 267.75 4.53 267.75 7.78 269.42 7.78"/>
        <polygon class="cls-4" points="274.05 7.78 274.05 9.04 269.42 9.04 269.42 7.78 271.11 7.78 271.11 4.53 270.05 4.53 270.05 3.26 273.43 3.26 273.43 4.53 272.37 4.53 272.37 7.78 274.05 7.78"/>
        <polygon class="cls-4" points="278.67 7.78 278.67 9.04 274.05 9.04 274.05 7.78 275.73 7.78 275.73 4.53 274.68 4.53 274.68 3.26 278.06 3.26 278.06 4.53 277 4.53 277 7.78 278.67 7.78"/>
        <polygon class="cls-4" points="283.3 7.78 283.3 9.04 278.67 9.04 278.67 7.78 280.36 7.78 280.36 4.53 279.3 4.53 279.3 3.26 282.68 3.26 282.68 4.53 281.63 4.53 281.63 7.78 283.3 7.78"/>
        <polygon class="cls-4" points="287.92 7.78 287.92 9.04 283.3 9.04 283.3 7.78 284.99 7.78 284.99 4.53 283.93 4.53 283.93 3.26 287.31 3.26 287.31 4.53 286.25 4.53 286.25 7.78 287.92 7.78"/>
        <polygon class="cls-4" points="292.55 7.78 292.55 9.04 287.92 9.04 287.92 7.78 289.61 7.78 289.61 4.53 288.55 4.53 288.55 3.26 291.94 3.26 291.94 4.53 290.88 4.53 290.88 7.78 292.55 7.78"/>
        <polygon class="cls-4" points="297.18 7.78 297.18 9.04 292.55 9.04 292.55 7.78 294.24 7.78 294.24 4.53 293.18 4.53 293.18 3.26 296.56 3.26 296.56 4.53 295.5 4.53 295.5 7.78 297.18 7.78"/>
        <polygon class="cls-4" points="301.8 7.78 301.8 9.04 297.18 9.04 297.18 7.78 298.86 7.78 298.86 4.53 297.8 4.53 297.8 3.26 301.19 3.26 301.19 4.53 300.13 4.53 300.13 7.78 301.8 7.78"/>
        <polygon class="cls-4" points="306.43 7.78 306.43 9.04 301.8 9.04 301.8 7.78 303.49 7.78 303.49 4.53 302.43 4.53 302.43 3.26 305.81 3.26 305.81 4.53 304.75 4.53 304.75 7.78 306.43 7.78"/>
        <polygon class="cls-4" points="311.05 7.78 311.05 9.04 306.43 9.04 306.43 7.78 308.11 7.78 308.11 4.53 307.06 4.53 307.06 3.26 310.44 3.26 310.44 4.53 309.38 4.53 309.38 7.78 311.05 7.78"/>
        <polygon class="cls-4" points="315.68 7.78 315.68 9.04 311.05 9.04 311.05 7.78 312.74 7.78 312.74 4.53 311.68 4.53 311.68 3.26 315.06 3.26 315.06 4.53 314.01 4.53 314.01 7.78 315.68 7.78"/>
        <polygon class="cls-4" points="320.3 7.78 320.3 9.04 315.68 9.04 315.68 7.78 317.37 7.78 317.37 4.53 316.31 4.53 316.31 3.26 319.69 3.26 319.69 4.53 318.63 4.53 318.63 7.78 320.3 7.78"/>
        <polygon class="cls-4" points="324.93 7.78 324.93 9.04 320.3 9.04 320.3 7.78 321.99 7.78 321.99 4.53 320.93 4.53 320.93 3.26 324.32 3.26 324.32 4.53 323.26 4.53 323.26 7.78 324.93 7.78"/>
        <polygon class="cls-4" points="329.56 7.78 329.56 9.04 324.93 9.04 324.93 7.78 326.62 7.78 326.62 4.53 325.56 4.53 325.56 3.26 328.94 3.26 328.94 4.53 327.88 4.53 327.88 7.78 329.56 7.78"/>
        <polygon class="cls-4" points="334.18 7.78 334.18 9.04 329.56 9.04 329.56 7.78 331.24 7.78 331.24 4.53 330.18 4.53 330.18 3.26 333.57 3.26 333.57 4.53 332.51 4.53 332.51 7.78 334.18 7.78"/>
        <polygon class="cls-4" points="338.81 7.78 338.81 9.04 334.18 9.04 334.18 7.78 335.87 7.78 335.87 4.53 334.81 4.53 334.81 3.26 338.19 3.26 338.19 4.53 337.13 4.53 337.13 7.78 338.81 7.78"/>
        <polygon class="cls-4" points="343.43 7.78 343.43 9.04 338.81 9.04 338.81 7.78 340.49 7.78 340.49 4.53 339.44 4.53 339.44 3.26 342.82 3.26 342.82 4.53 341.76 4.53 341.76 7.78 343.43 7.78"/>
        <polygon class="cls-4" points="348.06 7.78 348.06 9.04 343.43 9.04 343.43 7.78 345.12 7.78 345.12 4.53 344.06 4.53 344.06 3.26 347.44 3.26 347.44 4.53 346.39 4.53 346.39 7.78 348.06 7.78"/>
        <polygon class="cls-4" points="352.68 7.78 352.68 9.04 348.06 9.04 348.06 7.78 349.75 7.78 349.75 4.53 348.69 4.53 348.69 3.26 352.07 3.26 352.07 4.53 351.01 4.53 351.01 7.78 352.68 7.78"/>
        <polygon class="cls-4" points="357.31 7.78 357.31 9.04 352.68 9.04 352.68 7.78 354.37 7.78 354.37 4.53 353.31 4.53 353.31 3.26 356.7 3.26 356.7 4.53 355.64 4.53 355.64 7.78 357.31 7.78"/>
        <polygon class="cls-4" points="361.94 7.78 361.94 9.04 357.31 9.04 357.31 7.78 359 7.78 359 4.53 357.94 4.53 357.94 3.26 361.32 3.26 361.32 4.53 360.26 4.53 360.26 7.78 361.94 7.78"/>
        <polygon class="cls-4" points="366.56 7.78 366.56 9.04 361.94 9.04 361.94 7.78 363.62 7.78 363.62 4.53 362.56 4.53 362.56 3.26 365.95 3.26 365.95 4.53 364.89 4.53 364.89 7.78 366.56 7.78"/>
        <polygon class="cls-4" points="371.19 7.78 371.19 9.04 366.56 9.04 366.56 7.78 368.25 7.78 368.25 4.53 367.19 4.53 367.19 3.26 370.57 3.26 370.57 4.53 369.51 4.53 369.51 7.78 371.19 7.78"/>
        <polygon class="cls-4" points="375.81 7.78 375.81 9.04 371.19 9.04 371.19 7.78 372.87 7.78 372.87 4.53 371.82 4.53 371.82 3.26 375.2 3.26 375.2 4.53 374.14 4.53 374.14 7.78 375.81 7.78"/>
        <polygon class="cls-4" points="380.44 7.78 380.44 9.04 375.81 9.04 375.81 7.78 377.5 7.78 377.5 4.53 376.44 4.53 376.44 3.26 379.82 3.26 379.82 4.53 378.77 4.53 378.77 7.78 380.44 7.78"/>
        <polygon class="cls-4" points="385.06 7.78 385.06 9.04 380.44 9.04 380.44 7.78 382.13 7.78 382.13 4.53 381.07 4.53 381.07 3.26 384.45 3.26 384.45 4.53 383.39 4.53 383.39 7.78 385.06 7.78"/>
        <polygon class="cls-4" points="389.69 7.78 389.69 9.04 385.06 9.04 385.06 7.78 386.75 7.78 386.75 4.53 385.69 4.53 385.69 3.26 389.08 3.26 389.08 4.53 388.02 4.53 388.02 7.78 389.69 7.78"/>
        <polygon class="cls-4" points="394.32 7.78 394.32 9.04 389.69 9.04 389.69 7.78 391.38 7.78 391.38 4.53 390.32 4.53 390.32 3.26 393.7 3.26 393.7 4.53 392.64 4.53 392.64 7.78 394.32 7.78"/>
        <polygon class="cls-4" points="398.94 7.78 398.94 9.04 394.32 9.04 394.32 7.78 396 7.78 396 4.53 394.94 4.53 394.94 3.26 398.33 3.26 398.33 4.53 397.27 4.53 397.27 7.78 398.94 7.78"/>
        <polygon class="cls-4" points="403.57 7.78 403.57 9.04 398.94 9.04 398.94 7.78 400.63 7.78 400.63 4.53 399.57 4.53 399.57 3.26 402.95 3.26 402.95 4.53 401.89 4.53 401.89 7.78 403.57 7.78"/>
        <polygon class="cls-4" points="408.19 7.78 408.19 9.04 403.57 9.04 403.57 7.78 405.25 7.78 405.25 4.53 404.2 4.53 404.2 3.26 407.58 3.26 407.58 4.53 406.52 4.53 406.52 7.78 408.19 7.78"/>
        <polygon class="cls-4" points="412.82 7.78 412.82 9.04 408.19 9.04 408.19 7.78 409.88 7.78 409.88 4.53 408.82 4.53 408.82 3.26 412.2 3.26 412.2 4.53 411.15 4.53 411.15 7.78 412.82 7.78"/>
        <polygon class="cls-4" points="417.44 7.78 417.44 9.04 412.82 9.04 412.82 7.78 414.51 7.78 414.51 4.53 413.45 4.53 413.45 3.26 416.83 3.26 416.83 4.53 415.77 4.53 415.77 7.78 417.44 7.78"/>
        <polygon class="cls-4" points="422.07 7.78 422.07 9.04 417.44 9.04 417.44 7.78 419.13 7.78 419.13 4.53 418.07 4.53 418.07 3.26 421.46 3.26 421.46 4.53 420.4 4.53 420.4 7.78 422.07 7.78"/>
        <polygon class="cls-4" points="426.7 7.78 426.7 9.04 422.07 9.04 422.07 7.78 423.76 7.78 423.76 4.53 422.7 4.53 422.7 3.26 426.08 3.26 426.08 4.53 425.02 4.53 425.02 7.78 426.7 7.78"/>
        <polygon class="cls-4" points="431.32 7.78 431.32 9.04 426.7 9.04 426.7 7.78 428.38 7.78 428.38 4.53 427.32 4.53 427.32 3.26 430.71 3.26 430.71 4.53 429.65 4.53 429.65 7.78 431.32 7.78"/>
        <polygon class="cls-4" points="435.95 7.78 435.95 9.04 431.32 9.04 431.32 7.78 433.01 7.78 433.01 4.53 431.95 4.53 431.95 3.26 435.33 3.26 435.33 4.53 434.27 4.53 434.27 7.78 435.95 7.78"/>
        <polygon class="cls-4" points="440.57 7.78 440.57 9.04 435.95 9.04 435.95 7.78 437.63 7.78 437.63 4.53 436.58 4.53 436.58 3.26 439.96 3.26 439.96 4.53 438.9 4.53 438.9 7.78 440.57 7.78"/>
        <polygon class="cls-4" points="445.2 7.78 445.2 9.04 440.57 9.04 440.57 7.78 442.26 7.78 442.26 4.53 441.2 4.53 441.2 3.26 444.58 3.26 444.58 4.53 443.52 4.53 443.52 7.78 445.2 7.78"/>
        <polygon class="cls-4" points="449.82 7.78 449.82 9.04 445.2 9.04 445.2 7.78 446.89 7.78 446.89 4.53 445.83 4.53 445.83 3.26 449.21 3.26 449.21 4.53 448.15 4.53 448.15 7.78 449.82 7.78"/>
        <polygon class="cls-4" points="454.45 7.78 454.45 9.04 449.82 9.04 449.82 7.78 451.51 7.78 451.51 4.53 450.45 4.53 450.45 3.26 453.83 3.26 453.83 4.53 452.78 4.53 452.78 7.78 454.45 7.78"/>
        <polygon class="cls-4" points="459.08 7.78 459.08 9.04 454.45 9.04 454.45 7.78 456.14 7.78 456.14 4.53 455.08 4.53 455.08 3.26 458.46 3.26 458.46 4.53 457.4 4.53 457.4 7.78 459.08 7.78"/>
        <polygon class="cls-4" points="463.7 7.78 463.7 9.04 459.08 9.04 459.08 7.78 460.76 7.78 460.76 4.53 459.7 4.53 459.7 3.26 463.09 3.26 463.09 4.53 462.03 4.53 462.03 7.78 463.7 7.78"/>
        <polygon class="cls-4" points="468.33 7.78 468.33 9.04 463.7 9.04 463.7 7.78 465.39 7.78 465.39 4.53 464.33 4.53 464.33 3.26 467.71 3.26 467.71 4.53 466.65 4.53 466.65 7.78 468.33 7.78"/>
        <polygon class="cls-4" points="472.95 7.78 472.95 9.04 468.33 9.04 468.33 7.78 470.01 7.78 470.01 4.53 468.95 4.53 468.95 3.26 472.34 3.26 472.34 4.53 471.28 4.53 471.28 7.78 472.95 7.78"/>
        <polygon class="cls-4" points="477.58 7.78 477.58 9.04 472.95 9.04 472.95 7.78 474.64 7.78 474.64 4.53 473.58 4.53 473.58 3.26 476.96 3.26 476.96 4.53 475.9 4.53 475.9 7.78 477.58 7.78"/>
        <polygon class="cls-4" points="482.2 7.78 482.2 9.04 477.58 9.04 477.58 7.78 479.26 7.78 479.26 4.53 478.21 4.53 478.21 3.26 481.59 3.26 481.59 4.53 480.53 4.53 480.53 7.78 482.2 7.78"/>
        <polygon class="cls-4" points="486.83 7.78 486.83 9.04 482.2 9.04 482.2 7.78 483.89 7.78 483.89 4.53 482.83 4.53 482.83 3.26 486.21 3.26 486.21 4.53 485.16 4.53 485.16 7.78 486.83 7.78"/>
        <polygon class="cls-4" points="491.46 7.78 491.46 9.04 486.83 9.04 486.83 7.78 488.52 7.78 488.52 4.53 487.46 4.53 487.46 3.26 490.84 3.26 490.84 4.53 489.78 4.53 489.78 7.78 491.46 7.78"/>
        <polygon class="cls-4" points="496.08 7.78 496.08 9.04 491.46 9.04 491.46 7.78 493.14 7.78 493.14 4.53 492.08 4.53 492.08 3.26 495.47 3.26 495.47 4.53 494.41 4.53 494.41 7.78 496.08 7.78"/>
        <polygon class="cls-4" points="497.34 13.67 496.08 13.67 496.08 9.04 497.34 9.04 497.34 10.73 500.6 10.73 500.6 9.67 501.86 9.67 501.86 13.06 500.6 13.06 500.6 12 497.34 12 497.34 13.67"/>
        <polygon class="cls-4" points="497.34 18.31 496.08 18.31 496.08 13.67 497.34 13.67 497.34 15.36 500.6 15.36 500.6 14.3 501.86 14.3 501.86 17.69 500.6 17.69 500.6 16.63 497.34 16.63 497.34 18.31"/>
        <polygon class="cls-4" points="497.34 22.94 496.08 22.94 496.08 18.31 497.34 18.31 497.34 20 500.6 20 500.6 18.94 501.86 18.94 501.86 22.33 500.6 22.33 500.6 21.27 497.34 21.27 497.34 22.94"/>
        <polygon class="cls-4" points="497.34 27.58 496.08 27.58 496.08 22.94 497.34 22.94 497.34 24.63 500.6 24.63 500.6 23.57 501.86 23.57 501.86 26.96 500.6 26.96 500.6 25.9 497.34 25.9 497.34 27.58"/>
        <polygon class="cls-4" points="497.34 32.21 496.08 32.21 496.08 27.58 497.34 27.58 497.34 29.27 500.6 29.27 500.6 28.21 501.86 28.21 501.86 31.59 500.6 31.59 500.6 30.53 497.34 30.53 497.34 32.21"/>
        <polygon class="cls-4" points="497.34 36.84 496.08 36.84 496.08 32.21 497.34 32.21 497.34 33.9 500.6 33.9 500.6 32.84 501.86 32.84 501.86 36.23 500.6 36.23 500.6 35.17 497.34 35.17 497.34 36.84"/>
        <polygon class="cls-4" points="497.34 41.48 496.08 41.48 496.08 36.84 497.34 36.84 497.34 38.53 500.6 38.53 500.6 37.47 501.86 37.47 501.86 40.86 500.6 40.86 500.6 39.8 497.34 39.8 497.34 41.48"/>
        <polygon class="cls-4" points="497.34 46.11 496.08 46.11 496.08 41.48 497.34 41.48 497.34 43.17 500.6 43.17 500.6 42.11 501.86 42.11 501.86 45.5 500.6 45.5 500.6 44.44 497.34 44.44 497.34 46.11"/>
        <polygon class="cls-4" points="497.34 50.75 496.08 50.75 496.08 46.11 497.34 46.11 497.34 47.8 500.6 47.8 500.6 46.74 501.86 46.74 501.86 50.13 500.6 50.13 500.6 49.07 497.34 49.07 497.34 50.75"/>
        <polygon class="cls-4" points="497.34 55.38 496.08 55.38 496.08 50.75 497.34 50.75 497.34 52.44 500.6 52.44 500.6 51.38 501.86 51.38 501.86 54.76 500.6 54.76 500.6 53.7 497.34 53.7 497.34 55.38"/>
        <polygon class="cls-4" points="497.34 60.01 496.08 60.01 496.08 55.38 497.34 55.38 497.34 57.07 500.6 57.07 500.6 56.01 501.86 56.01 501.86 59.4 500.6 59.4 500.6 58.34 497.34 58.34 497.34 60.01"/>
        <polygon class="cls-4" points="497.34 64.65 496.08 64.65 496.08 60.01 497.34 60.01 497.34 61.7 500.6 61.7 500.6 60.64 501.86 60.64 501.86 64.03 500.6 64.03 500.6 62.97 497.34 62.97 497.34 64.65"/>
        <polygon class="cls-4" points="497.34 69.28 496.08 69.28 496.08 64.65 497.34 64.65 497.34 66.34 500.6 66.34 500.6 65.28 501.86 65.28 501.86 68.67 500.6 68.67 500.6 67.61 497.34 67.61 497.34 69.28"/>
        <polygon class="cls-4" points="497.34 73.92 496.08 73.92 496.08 69.28 497.34 69.28 497.34 70.97 500.6 70.97 500.6 69.91 501.86 69.91 501.86 73.3 500.6 73.3 500.6 72.24 497.34 72.24 497.34 73.92"/>
        <polygon class="cls-4" points="497.34 78.55 496.08 78.55 496.08 73.92 497.34 73.92 497.34 75.61 500.6 75.61 500.6 74.55 501.86 74.55 501.86 77.94 500.6 77.94 500.6 76.87 497.34 76.87 497.34 78.55"/>
        <g class="cls-8">
          <polygon class="cls-4" points="39.52 79.81 39.52 78.55 43.18 78.55 43.18 79.81 41.84 79.81 41.84 83.07 42.68 83.07 42.68 84.33 40 84.33 40 83.07 40.84 83.07 40.84 79.81 39.52 79.81"/>
        </g>
        <g class="cls-6">
          <polygon class="cls-4" points="42.04 79.09 43.18 78.55 44.74 81.86 43.6 82.4 43.03 81.19 40.09 82.58 40.45 83.34 39.31 83.88 38.16 81.46 39.31 80.92 39.66 81.68 42.6 80.29 42.04 79.09"/>
        </g>
        <g class="cls-1">
          <polygon class="cls-4" points="5.35 1.34 6.49 .8 10.38 9.04 9.24 9.58 7.82 6.57 4.88 7.96 5.77 9.85 4.63 10.39 1.79 4.36 2.93 3.82 3.82 5.71 6.76 4.32 5.35 1.34"/>
        </g>
        <g class="cls-9">
          <polygon class="cls-4" points="10.38 7.78 10.38 9.04 1.27 9.04 1.27 7.78 4.59 7.78 4.59 4.53 2.51 4.53 2.51 3.26 9.17 3.26 9.17 4.53 7.09 4.53 7.09 7.78 10.38 7.78"/>
        </g>
        <g class="cls-7">
          <polygon class="cls-4" points="501.86 7.78 501.86 9.04 496.08 9.04 496.08 7.78 498.19 7.78 498.19 4.53 496.87 4.53 496.87 3.26 501.09 3.26 501.09 4.53 499.77 4.53 499.77 7.78 501.86 7.78"/>
        </g>
        <g class="cls-10">
          <polygon class="cls-4" points="497.34 9.04 496.08 9.04 496.08 3.26 497.34 3.26 497.34 5.37 500.6 5.37 500.6 4.05 501.86 4.05 501.86 8.27 500.6 8.27 500.6 6.95 497.34 6.95 497.34 9.04"/>
        </g>
        <g class="cls-2">
          <polygon class="cls-4" points="497.34 84.33 496.08 84.33 496.08 78.55 497.34 78.55 497.34 80.66 500.6 80.66 500.6 79.34 501.86 79.34 501.86 83.56 500.6 83.56 500.6 82.24 497.34 82.24 497.34 84.33"/>
        </g>
        <g class="cls-5">
          <polygon class="cls-4" points="496.08 79.81 496.08 78.55 501.86 78.55 501.86 79.81 499.75 79.81 499.75 83.07 501.07 83.07 501.07 84.33 496.85 84.33 496.85 83.07 498.17 83.07 498.17 79.81 496.08 79.81"/>
        </g>
      </g>
    </g>
  </g>
</svg>